%TF.GenerationSoftware,KiCad,Pcbnew,(5.1.6)-1*%
%TF.CreationDate,2020-10-07T00:16:53+02:00*%
%TF.ProjectId,RPI_FEATHER,5250495f-4645-4415-9448-45522e6b6963,rev?*%
%TF.SameCoordinates,Original*%
%TF.FileFunction,Legend,Bot*%
%TF.FilePolarity,Positive*%
%FSLAX46Y46*%
G04 Gerber Fmt 4.6, Leading zero omitted, Abs format (unit mm)*
G04 Created by KiCad (PCBNEW (5.1.6)-1) date 2020-10-07 00:16:53*
%MOMM*%
%LPD*%
G01*
G04 APERTURE LIST*
%ADD10C,0.200000*%
G04 APERTURE END LIST*
D10*
%TO.C,REF\u002A\u002A*%
X136969200Y-54779919D02*
X136779815Y-54680532D01*
X136779815Y-54680532D02*
X136609891Y-54550228D01*
X136609891Y-54550228D02*
X136467261Y-54407309D01*
X136467261Y-54407309D02*
X136323057Y-54243478D01*
X136323057Y-54243478D02*
X136296216Y-54211758D01*
X138596245Y-55023708D02*
X138354893Y-55023145D01*
X138354893Y-55023145D02*
X138119505Y-55013303D01*
X138119505Y-55013303D02*
X137892522Y-54994549D01*
X137892522Y-54994549D02*
X137676388Y-54967249D01*
X137676388Y-54967249D02*
X137473546Y-54931769D01*
X137473546Y-54931769D02*
X137242406Y-54876476D01*
X137242406Y-54876476D02*
X137040624Y-54809690D01*
X137040624Y-54809690D02*
X136969200Y-54779919D01*
X139804878Y-55113926D02*
X139648736Y-55241222D01*
X139648736Y-55241222D02*
X139647922Y-55246924D01*
X128962378Y-54009279D02*
X128652754Y-53851361D01*
X142377098Y-56354040D02*
X142041880Y-56202046D01*
X129015093Y-53869333D02*
X128962378Y-54009279D01*
X129540091Y-53305542D02*
X129370437Y-53426432D01*
X129370437Y-53426432D02*
X129214661Y-53579505D01*
X129214661Y-53579505D02*
X129084677Y-53742785D01*
X129084677Y-53742785D02*
X129015093Y-53869333D01*
X130885701Y-53538053D02*
X130718473Y-53392606D01*
X130718473Y-53392606D02*
X130519665Y-53284870D01*
X130519665Y-53284870D02*
X130299945Y-53216687D01*
X130299945Y-53216687D02*
X130069979Y-53189901D01*
X130069979Y-53189901D02*
X129840434Y-53206354D01*
X129840434Y-53206354D02*
X129621978Y-53267891D01*
X129621978Y-53267891D02*
X129540091Y-53305542D01*
X131138889Y-53870976D02*
X131020195Y-53698990D01*
X131020195Y-53698990D02*
X130885701Y-53538053D01*
X131217378Y-54011849D02*
X131138889Y-53870976D01*
X131502001Y-53878850D02*
X131316511Y-53974920D01*
X131316511Y-53974920D02*
X131217378Y-54011849D01*
X139647922Y-55246924D02*
X139568124Y-55298757D01*
X132314698Y-51962705D02*
X132103495Y-51950001D01*
X132103495Y-51950001D02*
X131893847Y-51968545D01*
X131893847Y-51968545D02*
X131785938Y-52137571D01*
X131785938Y-52137571D02*
X131775432Y-52374381D01*
X131775432Y-52374381D02*
X131775278Y-52418400D01*
X131773696Y-53351568D02*
X131772929Y-53729386D01*
X131681365Y-52716836D02*
X131493104Y-52640708D01*
X131493104Y-52640708D02*
X131291535Y-52566695D01*
X131291535Y-52566695D02*
X131083098Y-52496478D01*
X131083098Y-52496478D02*
X130874238Y-52431736D01*
X130874238Y-52431736D02*
X130671396Y-52374152D01*
X130671396Y-52374152D02*
X130421438Y-52311413D01*
X130421438Y-52311413D02*
X130208904Y-52268372D01*
X130208904Y-52268372D02*
X129993682Y-52249460D01*
X129993682Y-52249460D02*
X129946640Y-52264189D01*
X143132792Y-57160686D02*
X143053355Y-56967605D01*
X143053355Y-56967605D02*
X142944824Y-56793447D01*
X142944824Y-56793447D02*
X142807523Y-56638559D01*
X142807523Y-56638559D02*
X142641778Y-56503288D01*
X142641778Y-56503288D02*
X142447912Y-56387979D01*
X142447912Y-56387979D02*
X142377098Y-56354040D01*
X131772929Y-53729386D02*
X131502001Y-53878850D01*
X129946640Y-52264189D02*
X130081292Y-52423966D01*
X130081292Y-52423966D02*
X130291869Y-52470179D01*
X130291869Y-52470179D02*
X130324526Y-52475836D01*
X139274533Y-55112111D02*
X139081266Y-55050851D01*
X139081266Y-55050851D02*
X138875384Y-55027023D01*
X138875384Y-55027023D02*
X138659396Y-55022920D01*
X138659396Y-55022920D02*
X138596245Y-55023708D01*
X139568124Y-55298757D02*
X139488326Y-55253637D01*
X131774463Y-52973752D02*
X131773696Y-53351568D01*
X131775278Y-52418400D02*
X131769891Y-52628402D01*
X131769891Y-52628402D02*
X131681365Y-52716836D01*
X142041880Y-56202046D02*
X142041880Y-55854139D01*
X141724427Y-55113423D02*
X141483158Y-55060387D01*
X141483158Y-55060387D02*
X141224988Y-55038669D01*
X141224988Y-55038669D02*
X141001020Y-55029535D01*
X141001020Y-55029535D02*
X140764731Y-55026532D01*
X140764731Y-55026532D02*
X140528436Y-55029655D01*
X140528436Y-55029655D02*
X140304452Y-55038903D01*
X140304452Y-55038903D02*
X140046242Y-55060756D01*
X140046242Y-55060756D02*
X139829521Y-55103365D01*
X139829521Y-55103365D02*
X139804878Y-55113926D01*
X142041880Y-55854139D02*
X142031737Y-55644940D01*
X142031737Y-55644940D02*
X141992981Y-55446282D01*
X141992981Y-55446282D02*
X141897099Y-55254673D01*
X141897099Y-55254673D02*
X141745003Y-55124565D01*
X141745003Y-55124565D02*
X141724427Y-55113423D01*
X131415370Y-52811658D02*
X131774463Y-52973752D01*
X130324526Y-52475836D02*
X130521818Y-52511435D01*
X130521818Y-52511435D02*
X130723323Y-52555594D01*
X130723323Y-52555594D02*
X130935958Y-52617145D01*
X130935958Y-52617145D02*
X131155692Y-52699129D01*
X131155692Y-52699129D02*
X131374582Y-52793329D01*
X131374582Y-52793329D02*
X131415370Y-52811658D01*
X134932219Y-52910084D02*
X134715043Y-52772801D01*
X134715043Y-52772801D02*
X134483095Y-52642313D01*
X134483095Y-52642313D02*
X134239468Y-52519738D01*
X134239468Y-52519738D02*
X133987254Y-52406195D01*
X133987254Y-52406195D02*
X133729546Y-52302804D01*
X133729546Y-52302804D02*
X133469436Y-52210684D01*
X133469436Y-52210684D02*
X133210016Y-52130954D01*
X133210016Y-52130954D02*
X132954380Y-52064733D01*
X132954380Y-52064733D02*
X132705620Y-52013142D01*
X132705620Y-52013142D02*
X132466827Y-51977298D01*
X132466827Y-51977298D02*
X132314698Y-51962705D01*
X136296216Y-54211758D02*
X136160501Y-54053639D01*
X136160501Y-54053639D02*
X136025169Y-53901803D01*
X136025169Y-53901803D02*
X135846061Y-53709836D01*
X135846061Y-53709836D02*
X135669413Y-53530738D01*
X135669413Y-53530738D02*
X135496242Y-53365479D01*
X135496242Y-53365479D02*
X135327566Y-53215032D01*
X135327566Y-53215032D02*
X135164402Y-53080366D01*
X135164402Y-53080366D02*
X134969750Y-52935707D01*
X134969750Y-52935707D02*
X134932219Y-52910084D01*
X139488326Y-55253637D02*
X139317479Y-55132398D01*
X139317479Y-55132398D02*
X139274533Y-55112111D01*
X128501147Y-52693275D02*
X128297626Y-52705072D01*
X128297626Y-52705072D02*
X128288351Y-52700919D01*
X128367275Y-51840782D02*
X128586773Y-51867398D01*
X128586773Y-51867398D02*
X128775365Y-51943544D01*
X128775365Y-51943544D02*
X128935132Y-52079479D01*
X128935132Y-52079479D02*
X128981091Y-52147346D01*
X128501144Y-52693264D02*
X128501147Y-52693275D01*
X128664738Y-52237357D02*
X128664738Y-52237357D01*
X128017772Y-52331482D02*
X127970314Y-52553148D01*
X127970314Y-52553148D02*
X128063027Y-52764837D01*
X128063027Y-52764837D02*
X128258944Y-52887493D01*
X128258944Y-52887493D02*
X128464233Y-52891123D01*
X128464233Y-52891123D02*
X128664738Y-52774184D01*
X127702102Y-52613146D02*
X127700880Y-52378533D01*
X127700880Y-52378533D02*
X127766306Y-52175469D01*
X127766306Y-52175469D02*
X127890712Y-52012859D01*
X127890712Y-52012859D02*
X128066427Y-51899609D01*
X128066427Y-51899609D02*
X128285783Y-51844623D01*
X128285783Y-51844623D02*
X128367275Y-51840782D01*
X128263324Y-52319562D02*
X128463823Y-52316239D01*
X128463823Y-52316239D02*
X128582070Y-52486130D01*
X128582070Y-52486130D02*
X128519226Y-52676815D01*
X128519226Y-52676815D02*
X128501144Y-52693264D01*
X128981091Y-52147346D02*
X129039954Y-52360759D01*
X129039954Y-52360759D02*
X129045052Y-52567591D01*
X129045052Y-52567591D02*
X129016982Y-52767137D01*
X129016982Y-52767137D02*
X128935729Y-52949769D01*
X128216982Y-53179097D02*
X128020783Y-53093040D01*
X128020783Y-53093040D02*
X127850948Y-52948885D01*
X127850948Y-52948885D02*
X127740287Y-52760421D01*
X127740287Y-52760421D02*
X127702102Y-52613146D01*
X128935729Y-52949769D02*
X128935729Y-52949769D01*
X128288351Y-52700919D02*
X128160118Y-52541332D01*
X128160118Y-52541332D02*
X128224420Y-52346248D01*
X128224420Y-52346248D02*
X128263324Y-52319562D01*
X128795317Y-52505771D02*
X128726847Y-52316166D01*
X128726847Y-52316166D02*
X128664738Y-52237357D01*
X128664738Y-52774184D02*
X128772937Y-52605075D01*
X128772937Y-52605075D02*
X128795317Y-52505771D01*
X128664738Y-52237357D02*
X128493093Y-52125311D01*
X128493093Y-52125311D02*
X128290560Y-52109819D01*
X128290560Y-52109819D02*
X128109835Y-52206761D01*
X128109835Y-52206761D02*
X128017772Y-52331482D01*
X130560912Y-58113769D02*
X130560912Y-58113846D01*
X128935729Y-52949769D02*
X128767313Y-53074688D01*
X128767313Y-53074688D02*
X128633689Y-53145074D01*
X126993355Y-52933658D02*
X127486877Y-52686599D01*
X128393090Y-63067010D02*
X128560968Y-62938372D01*
X128560968Y-62938372D02*
X128631010Y-62743387D01*
X128631010Y-62743387D02*
X128594709Y-62524405D01*
X128594709Y-62524405D02*
X128525461Y-62407967D01*
X128854598Y-63043439D02*
X128854598Y-63043439D01*
X130560912Y-58113846D02*
X130349192Y-58107857D01*
X130349192Y-58107857D02*
X130139884Y-58088400D01*
X130139884Y-58088400D02*
X129954874Y-58008548D01*
X129954874Y-58008548D02*
X129920787Y-57980091D01*
X129114513Y-60056133D02*
X129003682Y-60139834D01*
X129003680Y-60139834D02*
X129025823Y-59989637D01*
X127672055Y-63043439D02*
X127582457Y-62820812D01*
X127582457Y-62820812D02*
X127572079Y-62596952D01*
X127572079Y-62596952D02*
X127632137Y-62387825D01*
X127632137Y-62387825D02*
X127753848Y-62209401D01*
X127753848Y-62209401D02*
X127928428Y-62077647D01*
X127928428Y-62077647D02*
X128147092Y-62008530D01*
X128147092Y-62008530D02*
X128244935Y-62001999D01*
X128445720Y-60702216D02*
X128445723Y-60702224D01*
X128854598Y-63043439D02*
X128709762Y-63199601D01*
X128709762Y-63199601D02*
X128529329Y-63312723D01*
X128529329Y-63312723D02*
X128320394Y-63380682D01*
X128320394Y-63380682D02*
X128263327Y-63384975D01*
X130657284Y-59927037D02*
X130633824Y-59980236D01*
X129779500Y-57855635D02*
X130546859Y-57853916D01*
X131412044Y-58265676D02*
X131412045Y-58265676D01*
X127898156Y-51773326D02*
X127742408Y-51920393D01*
X127742408Y-51920393D02*
X127611771Y-52099134D01*
X127611771Y-52099134D02*
X127527084Y-52287845D01*
X127527084Y-52287845D02*
X127518541Y-52349026D01*
X129003682Y-60139834D02*
X129003680Y-60139834D01*
X125386577Y-54185553D02*
X125526209Y-54028407D01*
X125526209Y-54028407D02*
X125698847Y-53859361D01*
X125698847Y-53859361D02*
X125896732Y-53684458D01*
X125896732Y-53684458D02*
X126057048Y-53553075D01*
X126057048Y-53553075D02*
X126223929Y-53424347D01*
X126223929Y-53424347D02*
X126394103Y-53300825D01*
X126394103Y-53300825D02*
X126564297Y-53185059D01*
X126564297Y-53185059D02*
X126785596Y-53047176D01*
X126785596Y-53047176D02*
X126993355Y-52933658D01*
X127894039Y-62526295D02*
X127870027Y-62728824D01*
X127870027Y-62728824D02*
X127962968Y-62934002D01*
X127962968Y-62934002D02*
X128142379Y-63065705D01*
X128142379Y-63065705D02*
X128364501Y-63076519D01*
X128364501Y-63076519D02*
X128393090Y-63067010D01*
X130600946Y-59873837D02*
X130657284Y-59927037D01*
X129220360Y-52316229D02*
X129220360Y-52316229D01*
X127305744Y-58196400D02*
X127225945Y-58243907D01*
X131412045Y-58265676D02*
X131348871Y-58202501D01*
X127486877Y-52686599D02*
X127582313Y-52872624D01*
X127260856Y-59426783D02*
X127258054Y-59517203D01*
X130633824Y-59980236D02*
X130633824Y-59980236D01*
X127258054Y-59517203D02*
X127168294Y-59541346D01*
X129073177Y-53042183D02*
X129169457Y-52846013D01*
X129169457Y-52846013D02*
X129220376Y-52629071D01*
X129220376Y-52629071D02*
X129230602Y-52407603D01*
X129230602Y-52407603D02*
X129220360Y-52316229D01*
X128751777Y-53282891D02*
X128929924Y-53173456D01*
X128929924Y-53173456D02*
X129073177Y-53042183D01*
X127582313Y-52872624D02*
X127708171Y-53059960D01*
X127708171Y-53059960D02*
X127867686Y-53206073D01*
X127867686Y-53206073D02*
X128052270Y-53307950D01*
X128052270Y-53307950D02*
X128253338Y-53362578D01*
X128253338Y-53362578D02*
X128462304Y-53366947D01*
X128462304Y-53366947D02*
X128670582Y-53318043D01*
X128670582Y-53318043D02*
X128751777Y-53282891D01*
X124708678Y-59840579D02*
X124618264Y-59651616D01*
X124618264Y-59651616D02*
X124535871Y-59456836D01*
X124535871Y-59456836D02*
X124461583Y-59256889D01*
X124461583Y-59256889D02*
X124395486Y-59052430D01*
X124395486Y-59052430D02*
X124337664Y-58844111D01*
X124337664Y-58844111D02*
X124288202Y-58632586D01*
X124288202Y-58632586D02*
X124247186Y-58418505D01*
X124247186Y-58418505D02*
X124214699Y-58202524D01*
X124214699Y-58202524D02*
X124190828Y-57985294D01*
X124190828Y-57985294D02*
X124175657Y-57767469D01*
X124175657Y-57767469D02*
X124169271Y-57549700D01*
X124169271Y-57549700D02*
X124171755Y-57332642D01*
X124171755Y-57332642D02*
X124183193Y-57116947D01*
X124183193Y-57116947D02*
X124203672Y-56903268D01*
X124203672Y-56903268D02*
X124233275Y-56692257D01*
X124233275Y-56692257D02*
X124272088Y-56484568D01*
X125522695Y-61218596D02*
X125507310Y-61006014D01*
X125507310Y-61006014D02*
X125441802Y-60930481D01*
X128525461Y-62407967D02*
X128344297Y-62279761D01*
X128344297Y-62279761D02*
X128141520Y-62282510D01*
X128141520Y-62282510D02*
X127964210Y-62407391D01*
X127964210Y-62407391D02*
X127894039Y-62526295D01*
X128751777Y-51728650D02*
X128561699Y-51661652D01*
X128561699Y-51661652D02*
X128361106Y-51638294D01*
X128361106Y-51638294D02*
X128137524Y-51664065D01*
X128137524Y-51664065D02*
X127940666Y-51744719D01*
X127940666Y-51744719D02*
X127898156Y-51773326D01*
X129716231Y-58263491D02*
X129628126Y-58200316D01*
X128525461Y-62407967D02*
X128525461Y-62407967D01*
X127146147Y-58165778D02*
X127225945Y-58118270D01*
X129628126Y-58200316D02*
X129705804Y-58118270D01*
X129716229Y-58263491D02*
X129716231Y-58263491D01*
X131348871Y-58202501D02*
X131433103Y-58118270D01*
X125441802Y-60930481D02*
X125293677Y-60750665D01*
X125293677Y-60750665D02*
X125168937Y-60580223D01*
X125168937Y-60580223D02*
X125038856Y-60390299D01*
X125038856Y-60390299D02*
X124912644Y-60194588D01*
X124912644Y-60194588D02*
X124799514Y-60006783D01*
X124799514Y-60006783D02*
X124708678Y-59840579D01*
X130577485Y-59927037D02*
X130600946Y-59873837D01*
X124004097Y-57492629D02*
X124007607Y-57769944D01*
X124007607Y-57769944D02*
X124019743Y-58028450D01*
X124019743Y-58028450D02*
X124041395Y-58271812D01*
X124041395Y-58271812D02*
X124073451Y-58503695D01*
X124073451Y-58503695D02*
X124116799Y-58727763D01*
X124116799Y-58727763D02*
X124172328Y-58947682D01*
X124172328Y-58947682D02*
X124240928Y-59167117D01*
X124240928Y-59167117D02*
X124323486Y-59389732D01*
X124323486Y-59389732D02*
X124420892Y-59619193D01*
X124420892Y-59619193D02*
X124534033Y-59859164D01*
X124534033Y-59859164D02*
X124618643Y-60026794D01*
X127168294Y-59541346D02*
X127168306Y-59541337D01*
X124290173Y-55750912D02*
X124212263Y-55985897D01*
X124212263Y-55985897D02*
X124149160Y-56199122D01*
X124149160Y-56199122D02*
X124099482Y-56398999D01*
X124099482Y-56398999D02*
X124054158Y-56642893D01*
X124054158Y-56642893D02*
X124029633Y-56843498D01*
X124029633Y-56843498D02*
X124014041Y-57058098D01*
X124014041Y-57058098D02*
X124006002Y-57295106D01*
X124006002Y-57295106D02*
X124004097Y-57492629D01*
X127162056Y-52635960D02*
X126915449Y-52759169D01*
X126915449Y-52759169D02*
X126675096Y-52894831D01*
X126675096Y-52894831D02*
X126441574Y-53042320D01*
X126441574Y-53042320D02*
X126215462Y-53201008D01*
X126215462Y-53201008D02*
X125997336Y-53370270D01*
X125997336Y-53370270D02*
X125787773Y-53549480D01*
X125787773Y-53549480D02*
X125587352Y-53738011D01*
X125587352Y-53738011D02*
X125396648Y-53935237D01*
X125396648Y-53935237D02*
X125216241Y-54140531D01*
X125216241Y-54140531D02*
X125046707Y-54353268D01*
X125046707Y-54353268D02*
X124888623Y-54572822D01*
X124888623Y-54572822D02*
X124742568Y-54798565D01*
X124742568Y-54798565D02*
X124609117Y-55029872D01*
X124609117Y-55029872D02*
X124488850Y-55266116D01*
X124488850Y-55266116D02*
X124382342Y-55506671D01*
X124382342Y-55506671D02*
X124290173Y-55750912D01*
X129920787Y-57980091D02*
X129779500Y-57855635D01*
X127168306Y-59541337D02*
X127260856Y-59426783D01*
X129220360Y-52316229D02*
X129156491Y-52111523D01*
X129156491Y-52111523D02*
X129040189Y-51938595D01*
X129040189Y-51938595D02*
X128870062Y-51795701D01*
X128870062Y-51795701D02*
X128751777Y-51728650D01*
X127225945Y-58243907D02*
X127225945Y-58243907D01*
X128244935Y-62001999D02*
X128481347Y-62042707D01*
X128481347Y-62042707D02*
X128679870Y-62153190D01*
X128679870Y-62153190D02*
X128830692Y-62316685D01*
X128830692Y-62316685D02*
X128924004Y-62516432D01*
X128924004Y-62516432D02*
X128949993Y-62735671D01*
X128949993Y-62735671D02*
X128898850Y-62957641D01*
X128898850Y-62957641D02*
X128854598Y-63043439D01*
X130633824Y-59980236D02*
X130577485Y-59927037D01*
X131433103Y-58118270D02*
X131412044Y-58265676D01*
X127225945Y-58118270D02*
X127305744Y-58196400D01*
X127518541Y-52349026D02*
X127400240Y-52511844D01*
X127400240Y-52511844D02*
X127213080Y-52611789D01*
X127213080Y-52611789D02*
X127162056Y-52635960D01*
X128633689Y-53145074D02*
X128434555Y-53210537D01*
X128434555Y-53210537D02*
X128232870Y-53183781D01*
X128232870Y-53183781D02*
X128216982Y-53179097D01*
X124272088Y-56484568D02*
X124327014Y-56249732D01*
X124327014Y-56249732D02*
X124391634Y-56020044D01*
X124391634Y-56020044D02*
X124466141Y-55795105D01*
X124466141Y-55795105D02*
X124550729Y-55574514D01*
X124550729Y-55574514D02*
X124645592Y-55357874D01*
X124645592Y-55357874D02*
X124750923Y-55144783D01*
X124750923Y-55144783D02*
X124866917Y-54934842D01*
X124866917Y-54934842D02*
X124993766Y-54727651D01*
X124993766Y-54727651D02*
X125131665Y-54522812D01*
X125131665Y-54522812D02*
X125280807Y-54319924D01*
X125280807Y-54319924D02*
X125386577Y-54185553D01*
X131186984Y-57987631D02*
X131005670Y-58102003D01*
X131005670Y-58102003D02*
X130783479Y-58116362D01*
X130783479Y-58116362D02*
X130560912Y-58113769D01*
X127225945Y-58243907D02*
X127146147Y-58165778D01*
X131314219Y-57852196D02*
X131186984Y-57987631D01*
X124618643Y-60026794D02*
X124722296Y-60212168D01*
X124722296Y-60212168D02*
X124846901Y-60411241D01*
X124846901Y-60411241D02*
X124983318Y-60611962D01*
X124983318Y-60611962D02*
X125122407Y-60802284D01*
X125122407Y-60802284D02*
X125255029Y-60970157D01*
X125255029Y-60970157D02*
X125397789Y-61130074D01*
X125397789Y-61130074D02*
X125522695Y-61218596D01*
X128263327Y-63384975D02*
X128061228Y-63340738D01*
X128061228Y-63340738D02*
X127873767Y-63241353D01*
X127873767Y-63241353D02*
X127719877Y-63107972D01*
X127719877Y-63107972D02*
X127672055Y-63043439D01*
X129025823Y-59989637D02*
X129114513Y-60056133D01*
X129705804Y-58118270D02*
X129716229Y-58263491D01*
X130546859Y-57853916D02*
X131314219Y-57852196D01*
X129408817Y-59236880D02*
X129408816Y-59236869D01*
X129220910Y-59368454D02*
X129274109Y-59391907D01*
X129167710Y-59424793D02*
X129220910Y-59368454D01*
X128945656Y-59237029D02*
X128737590Y-59278012D01*
X128737590Y-59278012D02*
X128545450Y-59350100D01*
X128545450Y-59350100D02*
X128383317Y-59476281D01*
X128383317Y-59476281D02*
X128350291Y-59508118D01*
X129220910Y-59448245D02*
X129167710Y-59424793D01*
X127486802Y-58871366D02*
X127396383Y-58868594D01*
X127699229Y-58796607D02*
X127888779Y-58701330D01*
X127888779Y-58701330D02*
X128076199Y-58771828D01*
X128076199Y-58771828D02*
X128101858Y-58806397D01*
X129403306Y-59577455D02*
X129483500Y-59388031D01*
X129483500Y-59388031D02*
X129408817Y-59236880D01*
X130946862Y-60524064D02*
X130773334Y-60408460D01*
X130773334Y-60408460D02*
X130574980Y-60485096D01*
X130574980Y-60485096D02*
X130539410Y-60542756D01*
X128354780Y-58918087D02*
X128554438Y-58813638D01*
X128554438Y-58813638D02*
X128787688Y-58804372D01*
X128787688Y-58804372D02*
X129010450Y-58799319D01*
X129010450Y-58799319D02*
X129075602Y-58798021D01*
X128455501Y-59872631D02*
X128459627Y-59668863D01*
X128459627Y-59668863D02*
X128563086Y-59558513D01*
X129075602Y-58798021D02*
X129305570Y-58792112D01*
X129305570Y-58792112D02*
X129522513Y-58782279D01*
X129522513Y-58782279D02*
X129737812Y-58760802D01*
X129737812Y-58760802D02*
X129846067Y-58716795D01*
X127419684Y-58566621D02*
X127232129Y-58665690D01*
X127232129Y-58665690D02*
X127173273Y-58859866D01*
X127173273Y-58859866D02*
X127179668Y-58886914D01*
X129408816Y-59236869D02*
X129209044Y-59201099D01*
X129209044Y-59201099D02*
X129000068Y-59228050D01*
X129000068Y-59228050D02*
X128945656Y-59237029D01*
X130018895Y-59477984D02*
X130144473Y-59378760D01*
X127729760Y-60249180D02*
X127761656Y-60048688D01*
X127761656Y-60048688D02*
X127757337Y-60031552D01*
X128128177Y-60693421D02*
X127928315Y-60725017D01*
X127928315Y-60725017D02*
X127760007Y-60592666D01*
X127760007Y-60592666D02*
X127694833Y-60401991D01*
X127694833Y-60401991D02*
X127729760Y-60249180D01*
X129061313Y-59554642D02*
X129238313Y-59656106D01*
X129238313Y-59656106D02*
X129403306Y-59577455D01*
X128098849Y-59714242D02*
X128011549Y-59906317D01*
X128011549Y-59906317D02*
X128023067Y-60030715D01*
X127731336Y-58521560D02*
X127531739Y-58554493D01*
X127531739Y-58554493D02*
X127419684Y-58566621D01*
X129687566Y-61481305D02*
X129884908Y-61548681D01*
X129884908Y-61548681D02*
X130101313Y-61478914D01*
X130101313Y-61478914D02*
X130132027Y-61468184D01*
X130098694Y-59554644D02*
X130098694Y-59554644D01*
X130946865Y-60524050D02*
X130946862Y-60524064D01*
X129806099Y-61310213D02*
X129859298Y-61257014D01*
X128445723Y-60702224D02*
X128259561Y-60626459D01*
X128259561Y-60626459D02*
X128128177Y-60693421D01*
X130144473Y-59378760D02*
X130098694Y-59554644D01*
X128563086Y-59558513D02*
X128746003Y-59463822D01*
X128746003Y-59463822D02*
X128950654Y-59477979D01*
X128950654Y-59477979D02*
X129061313Y-59554642D01*
X128373703Y-60137705D02*
X128466516Y-59956791D01*
X128466516Y-59956791D02*
X128455501Y-59872631D01*
X130897084Y-60869140D02*
X131017100Y-60706270D01*
X131017100Y-60706270D02*
X130946865Y-60524050D01*
X128023067Y-60030715D02*
X128172352Y-60167066D01*
X128172352Y-60167066D02*
X128373703Y-60137705D01*
X128350291Y-59508118D02*
X128198362Y-59646520D01*
X128198362Y-59646520D02*
X128098849Y-59714242D01*
X129859298Y-61257014D02*
X129912497Y-61310213D01*
X127396383Y-58868594D02*
X127396384Y-58868577D01*
X127462670Y-58781607D02*
X127486802Y-58871366D01*
X127396384Y-58868577D02*
X127462670Y-58781607D01*
X130072098Y-61205676D02*
X129965699Y-61097406D01*
X129823832Y-58645119D02*
X129602216Y-58642678D01*
X129602216Y-58642678D02*
X129398827Y-58642645D01*
X129398827Y-58642645D02*
X129192069Y-58643210D01*
X129192069Y-58643210D02*
X129043272Y-58643902D01*
X128180361Y-59362338D02*
X128310805Y-59191145D01*
X128310805Y-59191145D02*
X128360786Y-58988052D01*
X128360786Y-58988052D02*
X128354780Y-58918087D01*
X127179668Y-58886914D02*
X127304724Y-59048820D01*
X127304724Y-59048820D02*
X127459975Y-59063084D01*
X129823831Y-58645156D02*
X129823832Y-58645119D01*
X128097725Y-59220210D02*
X128180361Y-59362338D01*
X129859298Y-61363412D02*
X129806099Y-61310213D01*
X130617789Y-61183635D02*
X130750845Y-61033462D01*
X130750845Y-61033462D02*
X130890095Y-60876967D01*
X130890095Y-60876967D02*
X130897084Y-60869140D01*
X128101858Y-58806397D02*
X128154185Y-59006756D01*
X128154185Y-59006756D02*
X128110814Y-59204796D01*
X128110814Y-59204796D02*
X128097725Y-59220210D01*
X128112289Y-58566091D02*
X127907744Y-58513086D01*
X127907744Y-58513086D02*
X127731336Y-58521560D01*
X129846067Y-58716795D02*
X129823831Y-58645156D01*
X130543083Y-60785480D02*
X130580086Y-60982825D01*
X127459975Y-59063084D02*
X127636606Y-58950964D01*
X127636606Y-58950964D02*
X127699229Y-58796607D01*
X129912497Y-61310213D02*
X129859298Y-61363412D01*
X130132027Y-61468184D02*
X130320873Y-61390146D01*
X130320873Y-61390146D02*
X130507199Y-61281000D01*
X130507199Y-61281000D02*
X130617789Y-61183635D01*
X129859298Y-61363412D02*
X129859298Y-61363412D01*
X130539410Y-60542756D02*
X130522771Y-60748758D01*
X130522771Y-60748758D02*
X130543083Y-60785480D01*
X129965699Y-61097406D02*
X129756024Y-61090682D01*
X129756024Y-61090682D02*
X129622038Y-61260811D01*
X129622038Y-61260811D02*
X129670700Y-61462856D01*
X129670700Y-61462856D02*
X129687566Y-61481305D01*
X128465479Y-61033570D02*
X128521606Y-60838645D01*
X128521606Y-60838645D02*
X128445720Y-60702216D01*
X128128940Y-61041979D02*
X128323945Y-61092505D01*
X128323945Y-61092505D02*
X128465479Y-61033570D01*
X127885719Y-60902931D02*
X128066820Y-60992197D01*
X128066820Y-60992197D02*
X128128940Y-61041979D01*
X127465338Y-60444034D02*
X127542895Y-60630953D01*
X127542895Y-60630953D02*
X127695025Y-60788500D01*
X127695025Y-60788500D02*
X127866009Y-60894623D01*
X127866009Y-60894623D02*
X127885719Y-60902931D01*
X130580086Y-60982825D02*
X130438747Y-61137604D01*
X130438747Y-61137604D02*
X130239890Y-61236227D01*
X130239890Y-61236227D02*
X130072098Y-61205676D01*
X127385539Y-60299435D02*
X127465338Y-60444034D01*
X127384851Y-59927615D02*
X127308556Y-60113427D01*
X127308556Y-60113427D02*
X127385539Y-60299435D01*
X127757337Y-60031552D02*
X127595625Y-59897787D01*
X127595625Y-59897787D02*
X127395179Y-59919763D01*
X127395179Y-59919763D02*
X127384851Y-59927615D01*
X129220910Y-59448245D02*
X129220910Y-59448245D01*
X129043272Y-58643902D02*
X128807936Y-58643525D01*
X128807936Y-58643525D02*
X128578816Y-58638094D01*
X128578816Y-58638094D02*
X128373928Y-58623970D01*
X128373928Y-58623970D02*
X128171473Y-58587042D01*
X128171473Y-58587042D02*
X128112289Y-58566091D01*
X129274109Y-59391907D02*
X129220910Y-59448245D01*
X130732500Y-59065919D02*
X130741249Y-59270608D01*
X130741249Y-59270608D02*
X130870384Y-59426671D01*
X130870384Y-59426671D02*
X130976478Y-59448245D01*
X130284891Y-59687642D02*
X130385605Y-59507387D01*
X130385605Y-59507387D02*
X130318035Y-59309593D01*
X130318035Y-59309593D02*
X130250454Y-59248131D01*
X130633837Y-58801615D02*
X130744137Y-58978765D01*
X130744137Y-58978765D02*
X130732500Y-59065919D01*
X130250454Y-59248131D02*
X130133261Y-59081450D01*
X130133261Y-59081450D02*
X130143379Y-59011033D01*
X130976478Y-59448245D02*
X131172792Y-59358869D01*
X131172792Y-59358869D02*
X131234546Y-59161769D01*
X131234546Y-59161769D02*
X131136984Y-58963484D01*
X131136984Y-58963484D02*
X131096176Y-58933061D01*
X131003078Y-59235450D02*
X131003078Y-59235450D01*
X131047410Y-59111318D02*
X131003078Y-59235450D01*
X130143379Y-59011033D02*
X130270343Y-58843569D01*
X130270343Y-58843569D02*
X130467450Y-58774980D01*
X130467450Y-58774980D02*
X130633837Y-58801615D01*
X130098694Y-59554644D02*
X130018895Y-59477984D01*
X130923279Y-59155652D02*
X131047410Y-59111318D01*
X131003078Y-59235450D02*
X130923279Y-59155652D01*
X131096176Y-58933061D02*
X131096176Y-58933061D01*
X130098694Y-60725023D02*
X130173060Y-60533234D01*
X130173060Y-60533234D02*
X130178310Y-60322843D01*
X130178310Y-60322843D02*
X130178493Y-60254476D01*
X130178493Y-60254476D02*
X130181320Y-60032807D01*
X130181320Y-60032807D02*
X130203773Y-59822278D01*
X130203773Y-59822278D02*
X130284891Y-59687642D01*
X131670707Y-60912059D02*
X131773722Y-61091821D01*
X131773722Y-61091821D02*
X131774463Y-61127601D01*
X131585250Y-57970482D02*
X131638449Y-57852249D01*
X129513504Y-57977894D02*
X129435133Y-58176381D01*
X129435133Y-58176381D02*
X129500203Y-58369475D01*
X126565083Y-59148803D02*
X126469793Y-58952059D01*
X126469793Y-58952059D02*
X126468532Y-58739879D01*
X126468532Y-58739879D02*
X126547061Y-58554908D01*
X126547061Y-58554908D02*
X126589893Y-58497578D01*
X131184502Y-58351891D02*
X131361307Y-58451512D01*
X131361307Y-58451512D02*
X131558225Y-58401941D01*
X127796463Y-58257547D02*
X127998335Y-58239960D01*
X127998335Y-58239960D02*
X128077130Y-58171452D01*
X126732777Y-59503144D02*
X126919084Y-59600153D01*
X126919084Y-59600153D02*
X127023504Y-59676148D01*
X129140444Y-60740473D02*
X129165175Y-60532563D01*
X129165175Y-60532563D02*
X129199321Y-60335188D01*
X129199321Y-60335188D02*
X129233080Y-60214165D01*
X130072616Y-61842203D02*
X129872494Y-61826135D01*
X129872494Y-61826135D02*
X129664720Y-61766916D01*
X129664720Y-61766916D02*
X129485050Y-61664342D01*
X129485050Y-61664342D02*
X129333931Y-61518659D01*
X129333931Y-61518659D02*
X129243718Y-61388342D01*
X129243718Y-61388342D02*
X129148587Y-61199593D01*
X129148587Y-61199593D02*
X129122328Y-60992475D01*
X129122328Y-60992475D02*
X129137234Y-60775100D01*
X129137234Y-60775100D02*
X129140444Y-60740473D01*
X127358942Y-57898943D02*
X127581636Y-57871056D01*
X127581636Y-57871056D02*
X127808792Y-57861564D01*
X127808792Y-57861564D02*
X128042342Y-57855942D01*
X128042342Y-57855942D02*
X128251705Y-57853211D01*
X128251705Y-57853211D02*
X128476123Y-57852259D01*
X127786148Y-58075167D02*
X127582035Y-58051241D01*
X127582035Y-58051241D02*
X127393673Y-57973543D01*
X127393673Y-57973543D02*
X127358942Y-57898943D01*
X131358895Y-60419670D02*
X131412749Y-60619741D01*
X131412749Y-60619741D02*
X131522297Y-60788417D01*
X131522297Y-60788417D02*
X131670707Y-60912059D01*
X131508469Y-59687642D02*
X131304663Y-59614252D01*
X131304663Y-59614252D02*
X131099075Y-59613186D01*
X131099075Y-59613186D02*
X130893599Y-59629337D01*
X130893599Y-59629337D02*
X130773047Y-59642781D01*
X127378466Y-61035963D02*
X127246986Y-60874443D01*
X127246986Y-60874443D02*
X127152140Y-60691673D01*
X127152140Y-60691673D02*
X127113422Y-60481232D01*
X127113422Y-60481232D02*
X127119397Y-60251949D01*
X127119397Y-60251949D02*
X127148495Y-60009336D01*
X127148495Y-60009336D02*
X127156692Y-59953950D01*
X130410173Y-59798349D02*
X130374798Y-59996445D01*
X130374798Y-59996445D02*
X130516089Y-60155502D01*
X130516089Y-60155502D02*
X130530304Y-60161380D01*
X130018895Y-60246232D02*
X130021387Y-60461203D01*
X130021387Y-60461203D02*
X130041947Y-60666856D01*
X130041947Y-60666856D02*
X130098694Y-60725023D01*
X129912497Y-59661043D02*
X130002416Y-59850899D01*
X130002416Y-59850899D02*
X130017515Y-60077330D01*
X130017515Y-60077330D02*
X130018895Y-60246232D01*
X131553465Y-60459027D02*
X131358895Y-60419670D01*
X129852310Y-59319568D02*
X129823772Y-59518076D01*
X129823772Y-59518076D02*
X129912497Y-59661043D01*
X128476123Y-57852259D02*
X128739805Y-57853152D01*
X128739805Y-57853152D02*
X128965937Y-57855920D01*
X128965937Y-57855920D02*
X129210899Y-57862753D01*
X129210899Y-57862753D02*
X129429818Y-57876778D01*
X129429818Y-57876778D02*
X129513504Y-57977894D01*
X129931962Y-59081885D02*
X129878341Y-59280646D01*
X129878341Y-59280646D02*
X129852310Y-59319568D01*
X126387909Y-58084347D02*
X126576735Y-57977107D01*
X126576735Y-57977107D02*
X126764469Y-57904188D01*
X126764469Y-57904188D02*
X126969333Y-57852890D01*
X126969333Y-57852890D02*
X127146147Y-57885925D01*
X130799499Y-58719039D02*
X130605747Y-58619260D01*
X130605747Y-58619260D02*
X130401460Y-58607340D01*
X130401460Y-58607340D02*
X130209033Y-58673914D01*
X130209033Y-58673914D02*
X130050862Y-58809613D01*
X130050862Y-58809613D02*
X129949342Y-59005071D01*
X129949342Y-59005071D02*
X129931962Y-59081885D01*
X128077130Y-58171452D02*
X127893157Y-58083521D01*
X127893157Y-58083521D02*
X127786148Y-58075167D01*
X131096176Y-58933061D02*
X130928526Y-58817599D01*
X130928526Y-58817599D02*
X130799499Y-58719039D01*
X131774463Y-58809831D02*
X131774240Y-59041690D01*
X131774240Y-59041690D02*
X131772759Y-59288258D01*
X131772759Y-59288258D02*
X131767647Y-59508895D01*
X131767647Y-59508895D02*
X131743625Y-59715423D01*
X131743625Y-59715423D02*
X131674578Y-59767413D01*
X127445766Y-59572188D02*
X127426506Y-59356005D01*
X127426506Y-59356005D02*
X127257725Y-59245378D01*
X127257725Y-59245378D02*
X127057067Y-59285157D01*
X127057067Y-59285157D02*
X127009531Y-59312717D01*
X126127570Y-59289469D02*
X126050605Y-59061826D01*
X126050605Y-59061826D02*
X126035245Y-58852198D01*
X126035245Y-58852198D02*
X126061158Y-58638669D01*
X126061158Y-58638669D02*
X126125466Y-58434561D01*
X126125466Y-58434561D02*
X126225290Y-58253199D01*
X126225290Y-58253199D02*
X126387909Y-58084347D01*
X129500203Y-58369475D02*
X129682320Y-58453076D01*
X129682320Y-58453076D02*
X129877593Y-58381265D01*
X126589893Y-58497578D02*
X126743239Y-58352109D01*
X126743239Y-58352109D02*
X126939984Y-58303404D01*
X126939984Y-58303404D02*
X127051027Y-58354247D01*
X129121415Y-59796231D02*
X128920168Y-59805692D01*
X128920168Y-59805692D02*
X128882143Y-59817958D01*
X131508469Y-60035272D02*
X131596236Y-60219476D01*
X131596236Y-60219476D02*
X131654766Y-60236632D01*
X131774463Y-61127601D02*
X131744367Y-61310213D01*
X128960518Y-60363354D02*
X128989474Y-60574914D01*
X128989474Y-60574914D02*
X128934296Y-60772522D01*
X128934296Y-60772522D02*
X128844007Y-60951595D01*
X128844007Y-60951595D02*
X128817547Y-60986500D01*
X131744367Y-61310213D02*
X131552684Y-61221861D01*
X131552684Y-61221861D02*
X131378325Y-61092689D01*
X131378325Y-61092689D02*
X131338747Y-61057405D01*
X130773047Y-59642781D02*
X130567975Y-59683027D01*
X130567975Y-59683027D02*
X130410173Y-59798349D01*
X130986249Y-61208034D02*
X130895677Y-61411861D01*
X130895677Y-61411861D02*
X130761864Y-61580644D01*
X130761864Y-61580644D02*
X130590190Y-61710649D01*
X130590190Y-61710649D02*
X130386038Y-61798139D01*
X130386038Y-61798139D02*
X130154790Y-61839379D01*
X130154790Y-61839379D02*
X130072616Y-61842203D01*
X131774463Y-60489328D02*
X131751937Y-60690775D01*
X131751937Y-60690775D02*
X131727778Y-60725023D01*
X129877593Y-58381265D02*
X130068761Y-58299677D01*
X130068761Y-58299677D02*
X130275383Y-58281699D01*
X130275383Y-58281699D02*
X130481917Y-58278041D01*
X130481917Y-58278041D02*
X130566061Y-58277841D01*
X128817547Y-60986500D02*
X128667569Y-61127690D01*
X128667569Y-61127690D02*
X128492559Y-61230873D01*
X128492559Y-61230873D02*
X128300762Y-61295766D01*
X128300762Y-61295766D02*
X128100419Y-61322086D01*
X128100419Y-61322086D02*
X127899775Y-61309549D01*
X127899775Y-61309549D02*
X127661104Y-61238803D01*
X127661104Y-61238803D02*
X127450941Y-61106348D01*
X127450941Y-61106348D02*
X127378466Y-61035963D01*
X126499521Y-58333298D02*
X126361330Y-58496465D01*
X126361330Y-58496465D02*
X126299263Y-58691114D01*
X126299263Y-58691114D02*
X126294962Y-58834606D01*
X126921361Y-59818651D02*
X126717067Y-59768778D01*
X126717067Y-59768778D02*
X126516286Y-59672907D01*
X126516286Y-59672907D02*
X126334945Y-59541658D01*
X126334945Y-59541658D02*
X126188973Y-59385648D01*
X126188973Y-59385648D02*
X126127570Y-59289469D01*
X130566061Y-58277841D02*
X130771860Y-58279992D01*
X130771860Y-58279992D02*
X130973630Y-58290310D01*
X130973630Y-58290310D02*
X131168560Y-58337438D01*
X131168560Y-58337438D02*
X131184502Y-58351891D01*
X127419881Y-58350646D02*
X127615322Y-58274283D01*
X127615322Y-58274283D02*
X127796463Y-58257547D01*
X126810576Y-58118261D02*
X126631938Y-58213284D01*
X126631938Y-58213284D02*
X126499521Y-58333298D01*
X131654766Y-60236632D02*
X131773009Y-60405604D01*
X131773009Y-60405604D02*
X131774463Y-60489328D01*
X130870080Y-59926824D02*
X131020069Y-59786559D01*
X131020069Y-59786559D02*
X131227017Y-59783443D01*
X131227017Y-59783443D02*
X131312558Y-59802509D01*
X127051027Y-58354247D02*
X127236227Y-58432821D01*
X127236227Y-58432821D02*
X127419881Y-58350646D01*
X127156692Y-59953950D02*
X126993302Y-59827893D01*
X126993302Y-59827893D02*
X126921361Y-59818651D01*
X127009531Y-59312717D02*
X126808184Y-59355108D01*
X126808184Y-59355108D02*
X126642557Y-59239131D01*
X126642557Y-59239131D02*
X126565083Y-59148803D01*
X126294962Y-58834606D02*
X126315825Y-59036318D01*
X126315825Y-59036318D02*
X126390889Y-59228589D01*
X126390889Y-59228589D02*
X126540905Y-59396513D01*
X126540905Y-59396513D02*
X126732777Y-59503144D01*
X127146147Y-57885925D02*
X127003064Y-58037657D01*
X127003064Y-58037657D02*
X126810576Y-58118261D01*
X130530304Y-60161380D02*
X130731925Y-60118511D01*
X130731925Y-60118511D02*
X130864549Y-59963502D01*
X130864549Y-59963502D02*
X130870080Y-59926824D01*
X128882143Y-59817958D02*
X128745734Y-59985646D01*
X128745734Y-59985646D02*
X128776154Y-60197336D01*
X128776154Y-60197336D02*
X128916116Y-60344485D01*
X128916116Y-60344485D02*
X128960518Y-60363354D01*
X131558225Y-58401941D02*
X131662406Y-58227402D01*
X131662406Y-58227402D02*
X131614166Y-58016746D01*
X131614166Y-58016746D02*
X131585250Y-57970482D01*
X131674578Y-59767413D02*
X131674579Y-59767441D01*
X131774463Y-57852249D02*
X131774463Y-58809831D01*
X131727778Y-60725023D02*
X131583055Y-60573125D01*
X131583055Y-60573125D02*
X131553465Y-60459027D01*
X131638449Y-57852249D02*
X131774463Y-57852249D01*
X127023504Y-59676148D02*
X127213744Y-59755679D01*
X127213744Y-59755679D02*
X127402459Y-59664989D01*
X127402459Y-59664989D02*
X127445766Y-59572188D01*
X131312558Y-59802509D02*
X131481447Y-59921911D01*
X131481447Y-59921911D02*
X131508469Y-60035272D01*
X129233080Y-60214165D02*
X129260240Y-60007156D01*
X129260240Y-60007156D02*
X129164912Y-59819069D01*
X129164912Y-59819069D02*
X129121415Y-59796231D01*
X131338747Y-61057405D02*
X131158570Y-60954545D01*
X131158570Y-60954545D02*
X131018933Y-61112514D01*
X131018933Y-61112514D02*
X130986249Y-61208034D01*
X133193511Y-61629406D02*
X132990259Y-61713720D01*
X132990259Y-61713720D02*
X132876326Y-61886850D01*
X132876326Y-61886850D02*
X132839370Y-62099357D01*
X132839370Y-62099357D02*
X132895931Y-62300314D01*
X132895931Y-62300314D02*
X132952899Y-62370283D01*
X134051118Y-61444551D02*
X133969673Y-61257701D01*
X133969673Y-61257701D02*
X133783762Y-61121675D01*
X133783762Y-61121675D02*
X133634988Y-61020358D01*
X130930188Y-53885999D02*
X131011332Y-54075312D01*
X131011332Y-54075312D02*
X131039099Y-54292267D01*
X131039099Y-54292267D02*
X131040454Y-54495026D01*
X131040454Y-54495026D02*
X131039168Y-54566302D01*
X134011670Y-61802304D02*
X133874782Y-61650353D01*
X133874782Y-61650353D02*
X133823409Y-61629406D01*
X133634988Y-61020358D02*
X133458546Y-60895941D01*
X133458546Y-60895941D02*
X133300761Y-60767841D01*
X133300761Y-60767841D02*
X133264037Y-60721651D01*
X126218503Y-56838373D02*
X126127602Y-56633268D01*
X126127602Y-56633268D02*
X126088229Y-56425995D01*
X126088229Y-56425995D02*
X126100365Y-56216279D01*
X126100365Y-56216279D02*
X126163993Y-56003845D01*
X133689629Y-60671828D02*
X133900016Y-60665161D01*
X133900016Y-60665161D02*
X134102920Y-60625680D01*
X134102920Y-60625680D02*
X134075323Y-60550035D01*
X126640756Y-55505172D02*
X126849867Y-55432720D01*
X126849867Y-55432720D02*
X127053498Y-55411752D01*
X127053498Y-55411752D02*
X127257303Y-55442401D01*
X127257303Y-55442401D02*
X127466939Y-55524801D01*
X134075323Y-60550035D02*
X134075323Y-60550032D01*
X134115221Y-59052343D02*
X134110924Y-58839927D01*
X134110924Y-58839927D02*
X134095095Y-58637986D01*
X134095095Y-58637986D02*
X134079754Y-58579328D01*
X129558305Y-53521399D02*
X129741259Y-53421267D01*
X129741259Y-53421267D02*
X129946317Y-53389646D01*
X129946317Y-53389646D02*
X130105685Y-53395114D01*
X129196053Y-54397693D02*
X129122584Y-54205402D01*
X129122584Y-54205402D02*
X129114512Y-54151512D01*
X134079754Y-58579328D02*
X134079755Y-58579328D01*
X133553657Y-59755599D02*
X133570549Y-59962293D01*
X133570549Y-59962293D02*
X133505936Y-60033435D01*
X131458131Y-55434445D02*
X131335408Y-55265521D01*
X131335408Y-55265521D02*
X131256438Y-55048715D01*
X131256438Y-55048715D02*
X131225636Y-54846938D01*
X131225636Y-54846938D02*
X131228015Y-54639212D01*
X131228015Y-54639212D02*
X131264845Y-54437949D01*
X131264845Y-54437949D02*
X131337397Y-54255560D01*
X131112044Y-55233311D02*
X131218689Y-55426079D01*
X131218689Y-55426079D02*
X131355900Y-55597289D01*
X131355900Y-55597289D02*
X131523977Y-55721257D01*
X131523977Y-55721257D02*
X131545021Y-55724299D01*
X131039168Y-54566302D02*
X131039595Y-54787764D01*
X131039595Y-54787764D02*
X131053889Y-54989974D01*
X131053889Y-54989974D02*
X131096859Y-55192912D01*
X131096859Y-55192912D02*
X131112044Y-55233311D01*
X130105685Y-53395114D02*
X130311867Y-53421974D01*
X130311867Y-53421974D02*
X130519345Y-53489561D01*
X130519345Y-53489561D02*
X130694583Y-53598195D01*
X130694583Y-53598195D02*
X130841123Y-53749986D01*
X130841123Y-53749986D02*
X130930188Y-53885999D01*
X127176049Y-55005004D02*
X127166558Y-54786045D01*
X127166558Y-54786045D02*
X127214815Y-54565402D01*
X127214815Y-54565402D02*
X127300494Y-54382202D01*
X127300494Y-54382202D02*
X127423235Y-54218245D01*
X127423235Y-54218245D02*
X127464645Y-54176277D01*
X128139429Y-56182698D02*
X128086250Y-55963931D01*
X128086250Y-55963931D02*
X127992515Y-55763551D01*
X127992515Y-55763551D02*
X127864233Y-55589179D01*
X127864233Y-55589179D02*
X127707412Y-55448439D01*
X127707412Y-55448439D02*
X127528063Y-55348952D01*
X127528063Y-55348952D02*
X127464312Y-55326276D01*
X133713263Y-62533792D02*
X133896230Y-62439334D01*
X133896230Y-62439334D02*
X134026844Y-62285253D01*
X134026844Y-62285253D02*
X134090744Y-62134797D01*
X128084990Y-56415888D02*
X128143958Y-56217097D01*
X128143958Y-56217097D02*
X128139429Y-56182698D01*
X129832829Y-56398561D02*
X129604308Y-56442769D01*
X129604308Y-56442769D02*
X129422875Y-56530172D01*
X129422875Y-56530172D02*
X129255510Y-56658099D01*
X129255510Y-56658099D02*
X129107733Y-56821450D01*
X129107733Y-56821450D02*
X128985061Y-57015126D01*
X128985061Y-57015126D02*
X128893014Y-57234026D01*
X128893014Y-57234026D02*
X128878765Y-57280384D01*
X130440278Y-57373483D02*
X130174342Y-57373389D01*
X130174342Y-57373389D02*
X129942016Y-57372726D01*
X129942016Y-57372726D02*
X129741486Y-57370924D01*
X129741486Y-57370924D02*
X129496337Y-57364832D01*
X129496337Y-57364832D02*
X129263818Y-57347387D01*
X129263818Y-57347387D02*
X129075612Y-57278385D01*
X129075612Y-57278385D02*
X129133758Y-57083435D01*
X129133758Y-57083435D02*
X129202314Y-56983751D01*
X129202314Y-56983751D02*
X129343112Y-56820229D01*
X129343112Y-56820229D02*
X129511097Y-56693083D01*
X129511097Y-56693083D02*
X129706415Y-56602227D01*
X129706415Y-56602227D02*
X129929213Y-56547572D01*
X132952899Y-62370283D02*
X133110173Y-62450449D01*
X133815781Y-61805616D02*
X133926528Y-61989850D01*
X133926528Y-61989850D02*
X133900025Y-62203985D01*
X133900025Y-62203985D02*
X133877027Y-62246828D01*
X133877027Y-62246828D02*
X133713359Y-62366050D01*
X133713359Y-62366050D02*
X133562449Y-62221645D01*
X133562449Y-62221645D02*
X133530032Y-62005298D01*
X129318742Y-55134123D02*
X129335217Y-54920255D01*
X129335217Y-54920255D02*
X129304755Y-54715750D01*
X129304755Y-54715750D02*
X129245288Y-54510445D01*
X129245288Y-54510445D02*
X129196053Y-54397693D01*
X127464645Y-54176277D02*
X127653059Y-54032599D01*
X127653059Y-54032599D02*
X127853905Y-53942389D01*
X127853905Y-53942389D02*
X128060636Y-53902624D01*
X128060636Y-53902624D02*
X128266705Y-53910282D01*
X128266705Y-53910282D02*
X128465565Y-53962338D01*
X128465565Y-53962338D02*
X128650669Y-54055770D01*
X128650669Y-54055770D02*
X128815471Y-54187553D01*
X128815471Y-54187553D02*
X128953422Y-54354666D01*
X128953422Y-54354666D02*
X129057977Y-54554085D01*
X129057977Y-54554085D02*
X129122589Y-54782786D01*
X129122589Y-54782786D02*
X129140240Y-54950029D01*
X127466939Y-55524801D02*
X127654738Y-55646909D01*
X127654738Y-55646909D02*
X127801323Y-55801705D01*
X127801323Y-55801705D02*
X127905006Y-55986893D01*
X127905006Y-55986893D02*
X127964096Y-56200178D01*
X128878765Y-57280384D02*
X128673966Y-57360121D01*
X128673966Y-57360121D02*
X128452538Y-57368276D01*
X128452538Y-57368276D02*
X128237891Y-57370039D01*
X128237891Y-57370039D02*
X128035701Y-57369969D01*
X128035701Y-57369969D02*
X127879303Y-57369436D01*
X129140240Y-54950029D02*
X129171846Y-55157431D01*
X129171846Y-55157431D02*
X129318742Y-55134123D01*
X133259604Y-61310217D02*
X133058415Y-61313642D01*
X133058415Y-61313642D02*
X132859153Y-61348722D01*
X132859153Y-61348722D02*
X132851632Y-61376716D01*
X133106993Y-61814792D02*
X133308364Y-61871248D01*
X133308364Y-61871248D02*
X133383092Y-62065226D01*
X133383092Y-62065226D02*
X133391144Y-62109951D01*
X133530032Y-62005298D02*
X133469397Y-61801020D01*
X133469397Y-61801020D02*
X133319440Y-61660829D01*
X133319440Y-61660829D02*
X133193511Y-61629406D01*
X126163993Y-56003845D02*
X126260791Y-55812531D01*
X126260791Y-55812531D02*
X126392286Y-55657590D01*
X126392286Y-55657590D02*
X126573139Y-55538042D01*
X126573139Y-55538042D02*
X126640756Y-55505172D01*
X127879303Y-57369436D02*
X127663005Y-57367803D01*
X127663005Y-57367803D02*
X127380727Y-57361954D01*
X127380727Y-57361954D02*
X127144057Y-57350430D01*
X127144057Y-57350430D02*
X126889735Y-57323132D01*
X126889735Y-57323132D02*
X126693193Y-57278292D01*
X126693193Y-57278292D02*
X126508482Y-57191089D01*
X126508482Y-57191089D02*
X126341916Y-57029779D01*
X126341916Y-57029779D02*
X126218503Y-56838373D01*
X133505936Y-60033435D02*
X133308125Y-59977403D01*
X133308125Y-59977403D02*
X133157639Y-59874224D01*
X127464312Y-55326276D02*
X127277158Y-55235514D01*
X127277158Y-55235514D02*
X127183351Y-55041195D01*
X127183351Y-55041195D02*
X127176049Y-55005004D01*
X127964096Y-56200178D02*
X128030930Y-56391709D01*
X128030930Y-56391709D02*
X128084990Y-56415888D01*
X129929213Y-56547572D02*
X130114499Y-56470773D01*
X130114499Y-56470773D02*
X129915542Y-56398489D01*
X129915542Y-56398489D02*
X129832829Y-56398561D01*
X134011670Y-61802304D02*
X134011670Y-61802304D01*
X133262238Y-60945974D02*
X133426931Y-61059566D01*
X133426931Y-61059566D02*
X133589601Y-61179811D01*
X133589601Y-61179811D02*
X133687831Y-61270317D01*
X133045549Y-62267795D02*
X132998104Y-62069307D01*
X132998104Y-62069307D02*
X132998042Y-62058584D01*
X134075323Y-60550032D02*
X133855332Y-60541101D01*
X133855332Y-60541101D02*
X133622162Y-60540735D01*
X133622162Y-60540735D02*
X133415337Y-60542493D01*
X133415337Y-60542493D02*
X133214086Y-60545874D01*
X133214086Y-60545874D02*
X133003556Y-60552102D01*
X133003556Y-60552102D02*
X132878344Y-60560216D01*
X132878344Y-60560216D02*
X132980715Y-60745503D01*
X132980715Y-60745503D02*
X133161541Y-60877381D01*
X133161541Y-60877381D02*
X133262238Y-60945974D01*
X134090744Y-62134797D02*
X134073656Y-61930347D01*
X134073656Y-61930347D02*
X134011670Y-61802304D01*
X133823409Y-61629406D02*
X133815781Y-61805616D01*
X133505936Y-60033435D02*
X133505936Y-60033435D01*
X133391144Y-62109951D02*
X133454799Y-62306205D01*
X133454799Y-62306205D02*
X133574552Y-62469399D01*
X133574552Y-62469399D02*
X133713263Y-62533792D01*
X133157639Y-59874224D02*
X133341692Y-59782819D01*
X133341692Y-59782819D02*
X133543076Y-59750266D01*
X133543076Y-59750266D02*
X133553657Y-59755599D01*
X133110173Y-62450449D02*
X133045549Y-62267795D01*
X133687831Y-61270317D02*
X133481893Y-61304420D01*
X133481893Y-61304420D02*
X133281644Y-61310164D01*
X133281644Y-61310164D02*
X133259604Y-61310217D01*
X132851632Y-61376716D02*
X133066627Y-61429994D01*
X133066627Y-61429994D02*
X133299283Y-61452091D01*
X133299283Y-61452091D02*
X133506688Y-61463821D01*
X133506688Y-61463821D02*
X133709291Y-61468922D01*
X133709291Y-61468922D02*
X133922440Y-61464091D01*
X133922440Y-61464091D02*
X134051118Y-61444551D01*
X133264037Y-60721651D02*
X133469376Y-60679066D01*
X133469376Y-60679066D02*
X133689629Y-60671828D01*
X131674579Y-59767441D02*
X131508469Y-59687642D01*
X132998042Y-62058584D02*
X133034960Y-61860575D01*
X133034960Y-61860575D02*
X133106993Y-61814792D01*
X131769383Y-57373470D02*
X130440278Y-57373483D01*
X131785223Y-56508986D02*
X131769383Y-57373470D01*
X131718076Y-53968730D02*
X131757698Y-54174738D01*
X131757698Y-54174738D02*
X131772581Y-54414533D01*
X131772581Y-54414533D02*
X131781331Y-54644537D01*
X131781331Y-54644537D02*
X131787866Y-54911996D01*
X131787866Y-54911996D02*
X131792057Y-55211928D01*
X131792057Y-55211928D02*
X131793482Y-55427464D01*
X131793482Y-55427464D02*
X131793767Y-55653740D01*
X131793767Y-55653740D02*
X131792873Y-55889283D01*
X131792873Y-55889283D02*
X131790760Y-56132614D01*
X131790760Y-56132614D02*
X131787391Y-56382258D01*
X131787391Y-56382258D02*
X131785223Y-56508986D01*
X131337397Y-54255560D02*
X131474737Y-54101644D01*
X131474737Y-54101644D02*
X131641421Y-53990754D01*
X131641421Y-53990754D02*
X131718076Y-53968730D01*
X131545021Y-55724299D02*
X131537479Y-55519880D01*
X131537479Y-55519880D02*
X131458131Y-55434445D01*
X129114512Y-54151512D02*
X129173028Y-53960157D01*
X129173028Y-53960157D02*
X129286222Y-53783690D01*
X129286222Y-53783690D02*
X129435465Y-53619036D01*
X129435465Y-53619036D02*
X129558305Y-53521399D01*
X133991108Y-59373233D02*
X133414776Y-59601769D01*
X133540431Y-59012821D02*
X133559838Y-58812042D01*
X133559838Y-58812042D02*
X133729895Y-58713362D01*
X133181458Y-58703458D02*
X133364495Y-58792875D01*
X133364495Y-58792875D02*
X133380955Y-58978572D01*
X132838445Y-58916255D02*
X132843028Y-59116881D01*
X132843028Y-59116881D02*
X132918243Y-59288648D01*
X133228571Y-56681895D02*
X133435262Y-56697566D01*
X133435262Y-56697566D02*
X133494566Y-56717363D01*
X133246208Y-56203114D02*
X133057048Y-56124691D01*
X133057048Y-56124691D02*
X132998924Y-55914993D01*
X132998924Y-55914993D02*
X132998044Y-55873279D01*
X132998042Y-58996054D02*
X132998042Y-58703458D01*
X133796028Y-57649425D02*
X134007458Y-57623246D01*
X134007458Y-57623246D02*
X133830030Y-57530713D01*
X133830030Y-57530713D02*
X133713570Y-57526859D01*
X132998042Y-56864292D02*
X133096750Y-56685128D01*
X133096750Y-56685128D02*
X133228571Y-56681895D01*
X134048500Y-55535781D02*
X134048499Y-55535772D01*
X133526895Y-55671123D02*
X133733479Y-55666840D01*
X133733479Y-55666840D02*
X133954253Y-55647916D01*
X133954253Y-55647916D02*
X134048500Y-55535781D01*
X134091543Y-56357987D02*
X133970729Y-56174958D01*
X133970729Y-56174958D02*
X133825430Y-56021330D01*
X133825430Y-56021330D02*
X133673721Y-55880065D01*
X133673721Y-55880065D02*
X133519120Y-55777522D01*
X132839714Y-59891971D02*
X133049881Y-60016813D01*
X133049881Y-60016813D02*
X133236269Y-60102899D01*
X133236269Y-60102899D02*
X133446642Y-60193691D01*
X133446642Y-60193691D02*
X133657543Y-60279218D01*
X133657543Y-60279218D02*
X133845513Y-60349509D01*
X133845513Y-60349509D02*
X134048722Y-60405867D01*
X133414776Y-59601769D02*
X133217218Y-59683895D01*
X133217218Y-59683895D02*
X133028116Y-59771292D01*
X133028116Y-59771292D02*
X132851221Y-59874918D01*
X132851221Y-59874918D02*
X132839714Y-59891971D01*
X133524671Y-58218914D02*
X133540652Y-57942493D01*
X134076021Y-58304466D02*
X133874489Y-58242291D01*
X133874489Y-58242291D02*
X133794046Y-58235093D01*
X133689628Y-59894230D02*
X133714935Y-59689372D01*
X133714935Y-59689372D02*
X133902425Y-59575036D01*
X133729895Y-58713362D02*
X133922020Y-58777349D01*
X133922020Y-58777349D02*
X133958013Y-58975131D01*
X133958013Y-58975131D02*
X133969361Y-59104844D01*
X133380955Y-58978572D02*
X133412229Y-59195443D01*
X133412229Y-59195443D02*
X133540431Y-59012821D01*
X133540652Y-57942493D02*
X133556633Y-57666070D01*
X133370435Y-57932073D02*
X133370435Y-58224667D01*
X133494566Y-56717363D02*
X133522474Y-56917788D01*
X133522474Y-56917788D02*
X133463534Y-57065348D01*
X133463534Y-57065348D02*
X133291462Y-57186194D01*
X133291462Y-57186194D02*
X133095530Y-57132680D01*
X133095530Y-57132680D02*
X133005035Y-56949339D01*
X133005035Y-56949339D02*
X132998042Y-56864292D01*
X133519120Y-55777522D02*
X133476835Y-55887417D01*
X133678749Y-56096962D02*
X133842576Y-56216737D01*
X133842576Y-56216737D02*
X133886081Y-56256409D01*
X132848735Y-55824079D02*
X132849345Y-56030843D01*
X132849345Y-56030843D02*
X132933647Y-56217133D01*
X132933647Y-56217133D02*
X132951106Y-56236370D01*
X132865044Y-55538116D02*
X132848735Y-55824079D01*
X132998044Y-55671123D02*
X133526895Y-55671123D01*
X132951106Y-56236370D02*
X133133348Y-56348782D01*
X133133348Y-56348782D02*
X133334790Y-56340918D01*
X133334790Y-56340918D02*
X133508271Y-56229714D01*
X133370435Y-58224667D02*
X133104440Y-58224667D01*
X132849824Y-57578743D02*
X133052152Y-57638938D01*
X133052152Y-57638938D02*
X133100007Y-57639479D01*
X133886081Y-56256409D02*
X134055478Y-56370646D01*
X134055478Y-56370646D02*
X134091543Y-56357987D01*
X133636429Y-56874641D02*
X133721794Y-56686836D01*
X133721794Y-56686836D02*
X133858391Y-56671647D01*
X132918243Y-59288648D02*
X132996591Y-59090208D01*
X132996591Y-59090208D02*
X132998042Y-58996054D01*
X133441367Y-58543862D02*
X132838445Y-58543862D01*
X133463534Y-58372654D02*
X133692601Y-58364266D01*
X133692601Y-58364266D02*
X133895503Y-58349503D01*
X133895503Y-58349503D02*
X134076021Y-58304466D01*
X132998044Y-55873279D02*
X132998044Y-55671123D01*
X133994269Y-56493960D02*
X133994270Y-56493969D01*
X133476835Y-55887417D02*
X133424883Y-56089483D01*
X133424883Y-56089483D02*
X133258270Y-56202711D01*
X133258270Y-56202711D02*
X133246208Y-56203114D01*
X133969361Y-59104844D02*
X133991108Y-59373233D01*
X132998042Y-58703458D02*
X133181458Y-58703458D01*
X133508271Y-56229714D02*
X133665204Y-56101106D01*
X133665204Y-56101106D02*
X133678749Y-56096962D01*
X133994270Y-56493969D02*
X133777594Y-56476739D01*
X133777594Y-56476739D02*
X133569821Y-56474651D01*
X133569821Y-56474651D02*
X133365402Y-56478702D01*
X132838445Y-58306155D02*
X133031765Y-58375525D01*
X133031765Y-58375525D02*
X133244836Y-58376840D01*
X133244836Y-58376840D02*
X133463534Y-58372654D01*
X133104440Y-58224667D02*
X132903159Y-58239769D01*
X132903159Y-58239769D02*
X132838445Y-58306155D01*
X133370435Y-57639479D02*
X133370435Y-57932073D01*
X133858391Y-56671647D02*
X134062646Y-56620406D01*
X134062646Y-56620406D02*
X133994269Y-56493960D01*
X132848243Y-56730819D02*
X132843120Y-56933827D01*
X132843120Y-56933827D02*
X132883222Y-57131565D01*
X132883222Y-57131565D02*
X133040592Y-57280304D01*
X133040592Y-57280304D02*
X133077188Y-57296832D01*
X133100007Y-57639479D02*
X133370435Y-57639479D01*
X134079755Y-58579328D02*
X133877599Y-58554280D01*
X133877599Y-58554280D02*
X133650281Y-58546023D01*
X133650281Y-58546023D02*
X133441367Y-58543862D01*
X132865044Y-56495691D02*
X132848243Y-56730819D01*
X133713569Y-57526854D02*
X133509118Y-57523986D01*
X133509118Y-57523986D02*
X133291584Y-57521730D01*
X133291584Y-57521730D02*
X133066202Y-57522729D01*
X133066202Y-57522729D02*
X132864128Y-57554370D01*
X132864128Y-57554370D02*
X132849824Y-57578743D01*
X133365402Y-56478702D02*
X132865044Y-56495691D01*
X133794046Y-58235093D02*
X133524671Y-58218914D01*
X133556633Y-57666070D02*
X133796028Y-57649425D01*
X133713570Y-57526859D02*
X133713569Y-57526854D01*
X134115221Y-59489893D02*
X134115221Y-59052343D01*
X132838445Y-58543862D02*
X132838445Y-58916255D01*
X133902425Y-59575036D02*
X134115221Y-59489893D01*
X133463534Y-57065348D02*
X133463534Y-57065348D01*
X133420038Y-55522850D02*
X132865044Y-55538116D01*
X133077188Y-57296832D02*
X133276193Y-57342390D01*
X133276193Y-57342390D02*
X133478922Y-57279968D01*
X133478922Y-57279968D02*
X133604375Y-57094633D01*
X133604375Y-57094633D02*
X133636429Y-56874641D01*
X133902425Y-60213425D02*
X133725375Y-60114748D01*
X133725375Y-60114748D02*
X133689661Y-59914570D01*
X133689661Y-59914570D02*
X133689628Y-59894230D01*
X134048722Y-60405867D02*
X133939074Y-60228971D01*
X133939074Y-60228971D02*
X133902425Y-60213425D01*
X131958598Y-52282248D02*
X132131277Y-52163620D01*
X132131277Y-52163620D02*
X132296977Y-52159975D01*
X141263536Y-55192322D02*
X141468329Y-55211664D01*
X141468329Y-55211664D02*
X141659179Y-55288907D01*
X141659179Y-55288907D02*
X141797371Y-55442568D01*
X139419656Y-55458313D02*
X139448392Y-55685925D01*
X139448392Y-55685925D02*
X139460112Y-55905804D01*
X139460112Y-55905804D02*
X139470019Y-56181481D01*
X139470019Y-56181481D02*
X139478073Y-56501769D01*
X139478073Y-56501769D02*
X139484240Y-56855482D01*
X139484240Y-56855482D02*
X139488481Y-57231431D01*
X139488481Y-57231431D02*
X139490760Y-57618429D01*
X139490760Y-57618429D02*
X139491039Y-58005289D01*
X139491039Y-58005289D02*
X139489282Y-58380824D01*
X139489282Y-58380824D02*
X139485452Y-58733847D01*
X139485452Y-58733847D02*
X139479512Y-59053169D01*
X139479512Y-59053169D02*
X139471424Y-59327605D01*
X139471424Y-59327605D02*
X139461153Y-59545966D01*
X139461153Y-59545966D02*
X139433909Y-59769715D01*
X136219232Y-54398365D02*
X136358205Y-54554623D01*
X136358205Y-54554623D02*
X136504085Y-54691677D01*
X136504085Y-54691677D02*
X136713281Y-54845994D01*
X136713281Y-54845994D02*
X136944227Y-54969655D01*
X136944227Y-54969655D02*
X137134964Y-55043482D01*
X137134964Y-55043482D02*
X137343264Y-55102025D01*
X137343264Y-55102025D02*
X137571408Y-55146126D01*
X137571408Y-55146126D02*
X137821681Y-55176625D01*
X137821681Y-55176625D02*
X138096365Y-55194363D01*
X138096365Y-55194363D02*
X138397745Y-55200179D01*
X141797371Y-55442568D02*
X141836400Y-55679185D01*
X141836400Y-55679185D02*
X141851942Y-55897869D01*
X141851942Y-55897869D02*
X141864811Y-56169403D01*
X141864811Y-56169403D02*
X141874991Y-56483239D01*
X141874991Y-56483239D02*
X141882464Y-56828829D01*
X141882464Y-56828829D02*
X141887212Y-57195624D01*
X141887212Y-57195624D02*
X141889218Y-57573075D01*
X141889218Y-57573075D02*
X141888464Y-57950632D01*
X141888464Y-57950632D02*
X141884934Y-58317748D01*
X141884934Y-58317748D02*
X141878608Y-58663874D01*
X141878608Y-58663874D02*
X141869471Y-58978460D01*
X141869471Y-58978460D02*
X141857504Y-59250958D01*
X141857504Y-59250958D02*
X141842690Y-59470819D01*
X141842690Y-59470819D02*
X141815092Y-59678842D01*
X141815092Y-59678842D02*
X141804451Y-59710437D01*
X132296977Y-52159975D02*
X132531580Y-52174594D01*
X132531580Y-52174594D02*
X132797222Y-52216648D01*
X132797222Y-52216648D02*
X133011774Y-52264566D01*
X133011774Y-52264566D02*
X133235524Y-52325254D01*
X133235524Y-52325254D02*
X133464933Y-52397570D01*
X133464933Y-52397570D02*
X133696460Y-52480374D01*
X133696460Y-52480374D02*
X133926565Y-52572523D01*
X133926565Y-52572523D02*
X134151708Y-52672878D01*
X134151708Y-52672878D02*
X134368348Y-52780296D01*
X134368348Y-52780296D02*
X134572946Y-52893638D01*
X140061922Y-55195585D02*
X140093069Y-55420049D01*
X139735151Y-55431536D02*
X139884312Y-55288794D01*
X139884312Y-55288794D02*
X139914568Y-55271782D01*
X140947553Y-56203117D02*
X140957534Y-56415295D01*
X140957534Y-56415295D02*
X140967788Y-56621110D01*
X140967788Y-56621110D02*
X140979812Y-56847990D01*
X140979812Y-56847990D02*
X140992452Y-57066820D01*
X140992452Y-57066820D02*
X141004581Y-57240499D01*
X139914568Y-55271782D02*
X140061922Y-55195585D01*
X134572946Y-52893638D02*
X134790237Y-53027630D01*
X134790237Y-53027630D02*
X134993653Y-53167403D01*
X134993653Y-53167403D02*
X135188489Y-53317794D01*
X135188489Y-53317794D02*
X135380038Y-53483642D01*
X135380038Y-53483642D02*
X135573593Y-53669784D01*
X135573593Y-53669784D02*
X135723261Y-53825620D01*
X135723261Y-53825620D02*
X135879267Y-53997635D01*
X135879267Y-53997635D02*
X136043847Y-54187869D01*
X136043847Y-54187869D02*
X136219232Y-54398365D01*
X140384910Y-59621143D02*
X140386885Y-59826262D01*
X140386885Y-59826262D02*
X140254450Y-59980236D01*
X141150796Y-59932695D02*
X141150796Y-59932681D01*
X140093069Y-55420049D02*
X140122327Y-55699279D01*
X140122327Y-55699279D02*
X140141179Y-55914875D01*
X140141179Y-55914875D02*
X140162137Y-56170945D01*
X140162137Y-56170945D02*
X140184672Y-56459852D01*
X140184672Y-56459852D02*
X140208254Y-56773960D01*
X140208254Y-56773960D02*
X140232351Y-57105633D01*
X140232351Y-57105633D02*
X140256433Y-57447234D01*
X140256433Y-57447234D02*
X140279971Y-57791128D01*
X140279971Y-57791128D02*
X140302432Y-58129678D01*
X140302432Y-58129678D02*
X140323288Y-58455248D01*
X140323288Y-58455248D02*
X140342007Y-58760203D01*
X140342007Y-58760203D02*
X140358060Y-59036906D01*
X140358060Y-59036906D02*
X140370914Y-59277721D01*
X140370914Y-59277721D02*
X140383041Y-59554949D01*
X140383041Y-59554949D02*
X140384910Y-59621143D01*
X141082698Y-58304479D02*
X141096636Y-58506859D01*
X141096636Y-58506859D02*
X141112584Y-58739231D01*
X141112584Y-58739231D02*
X141129152Y-58982496D01*
X141129152Y-58982496D02*
X141143109Y-59190198D01*
X141143109Y-59190198D02*
X141158113Y-59417956D01*
X141158113Y-59417956D02*
X141173185Y-59651792D01*
X141173185Y-59651792D02*
X141181401Y-59780755D01*
X134048499Y-55535772D02*
X133833582Y-55520339D01*
X133833582Y-55520339D02*
X133614832Y-55519325D01*
X133614832Y-55519325D02*
X133420038Y-55522850D01*
X134038625Y-54953470D02*
X134103165Y-54753914D01*
X134103165Y-54753914D02*
X134082307Y-54547477D01*
X134082307Y-54547477D02*
X133994678Y-54390794D01*
X133407421Y-53361514D02*
X133256700Y-53509249D01*
X133256700Y-53509249D02*
X133131611Y-53591258D01*
X133814692Y-55041494D02*
X133814692Y-55041494D01*
X140584315Y-55202891D02*
X140790876Y-55225419D01*
X140790876Y-55225419D02*
X140899171Y-55298735D01*
X140523864Y-58889664D02*
X140511346Y-58672904D01*
X140511346Y-58672904D02*
X140497087Y-58447674D01*
X140497087Y-58447674D02*
X140483781Y-58247198D01*
X140483781Y-58247198D02*
X140469254Y-58035538D01*
X140469254Y-58035538D02*
X140453936Y-57819024D01*
X140453936Y-57819024D02*
X140438260Y-57603982D01*
X140438260Y-57603982D02*
X140422654Y-57396741D01*
X140422654Y-57396741D02*
X140418815Y-57346892D01*
X133852941Y-54462262D02*
X133925801Y-54649921D01*
X133925801Y-54649921D02*
X133916332Y-54857857D01*
X133916332Y-54857857D02*
X133814692Y-55041494D01*
X139433907Y-59769717D02*
X139277901Y-59920248D01*
X139277901Y-59920248D02*
X139083265Y-59976534D01*
X139083265Y-59976534D02*
X138872407Y-60004164D01*
X138872407Y-60004164D02*
X138649591Y-60021328D01*
X138649591Y-60021328D02*
X138446078Y-60032458D01*
X138446078Y-60032458D02*
X138291347Y-60039455D01*
X140280248Y-55186839D02*
X140584315Y-55202891D01*
X141004581Y-57240499D02*
X141020936Y-57444839D01*
X141020936Y-57444839D02*
X141038231Y-57677483D01*
X141038231Y-57677483D02*
X141055392Y-57915237D01*
X141055392Y-57915237D02*
X141070513Y-58129151D01*
X141070513Y-58129151D02*
X141082698Y-58304479D01*
X132998042Y-54709731D02*
X133038537Y-54508865D01*
X133038537Y-54508865D02*
X133172932Y-54335460D01*
X133172932Y-54335460D02*
X133365344Y-54246137D01*
X133365344Y-54246137D02*
X133578095Y-54251803D01*
X133578095Y-54251803D02*
X133773509Y-54363363D01*
X133773509Y-54363363D02*
X133852941Y-54462262D01*
X133273787Y-55144341D02*
X133108386Y-55026488D01*
X133108386Y-55026488D02*
X133009113Y-54835393D01*
X133009113Y-54835393D02*
X132998042Y-54709731D01*
X133814692Y-55041494D02*
X133631728Y-55147401D01*
X133631728Y-55147401D02*
X133420004Y-55177879D01*
X133420004Y-55177879D02*
X133273787Y-55144341D01*
X133994678Y-54390794D02*
X133994678Y-54390794D01*
X138291347Y-60039455D02*
X138061786Y-60050607D01*
X138061786Y-60050607D02*
X137854068Y-60064197D01*
X137854068Y-60064197D02*
X137578772Y-60091245D01*
X137578772Y-60091245D02*
X137340602Y-60129159D01*
X137340602Y-60129159D02*
X137132346Y-60181169D01*
X137132346Y-60181169D02*
X136888736Y-60278023D01*
X136888736Y-60278023D02*
X136668386Y-60413333D01*
X136668386Y-60413333D02*
X136508104Y-60544655D01*
X136508104Y-60544655D02*
X136344077Y-60705143D01*
X136344077Y-60705143D02*
X136169092Y-60898026D01*
X136169092Y-60898026D02*
X136042787Y-61046207D01*
X133450234Y-55349836D02*
X133646825Y-55311178D01*
X133646825Y-55311178D02*
X133834947Y-55204821D01*
X133834947Y-55204821D02*
X133983984Y-55051419D01*
X133983984Y-55051419D02*
X134038625Y-54953470D01*
X133127555Y-53129279D02*
X133298262Y-53255638D01*
X133298262Y-53255638D02*
X133407421Y-53361514D01*
X132958143Y-54356744D02*
X132865698Y-54561165D01*
X132865698Y-54561165D02*
X132847877Y-54771372D01*
X132847877Y-54771372D02*
X132896562Y-54970984D01*
X132896562Y-54970984D02*
X133003632Y-55143617D01*
X133003632Y-55143617D02*
X133160970Y-55272890D01*
X133160970Y-55272890D02*
X133360456Y-55342421D01*
X133360456Y-55342421D02*
X133450234Y-55349836D01*
X133994678Y-54390794D02*
X133856234Y-54238957D01*
X133856234Y-54238957D02*
X133654718Y-54127599D01*
X133654718Y-54127599D02*
X133435697Y-54094220D01*
X133435697Y-54094220D02*
X133221508Y-54139554D01*
X133221508Y-54139554D02*
X133034486Y-54264333D01*
X133034486Y-54264333D02*
X132958143Y-54356744D01*
X133477366Y-52798365D02*
X133477366Y-52798364D01*
X140618714Y-59976491D02*
X140586755Y-59725674D01*
X141181401Y-59780755D02*
X141150796Y-59932695D01*
X139729621Y-59726609D02*
X139715969Y-59514962D01*
X139715969Y-59514962D02*
X139710778Y-59298819D01*
X139710778Y-59298819D02*
X139706655Y-59024610D01*
X139706655Y-59024610D02*
X139703587Y-58703948D01*
X139703587Y-58703948D02*
X139701559Y-58348443D01*
X139701559Y-58348443D02*
X139700554Y-57969707D01*
X139700554Y-57969707D02*
X139700560Y-57579350D01*
X139700560Y-57579350D02*
X139701559Y-57188985D01*
X139701559Y-57188985D02*
X139703539Y-56810223D01*
X139703539Y-56810223D02*
X139706483Y-56454674D01*
X139706483Y-56454674D02*
X139710377Y-56133951D01*
X139710377Y-56133951D02*
X139715206Y-55859664D01*
X139715206Y-55859664D02*
X139720954Y-55643425D01*
X139720954Y-55643425D02*
X139735151Y-55431536D01*
X134102086Y-52864864D02*
X133896394Y-52806022D01*
X133896394Y-52806022D02*
X133684128Y-52799591D01*
X133684128Y-52799591D02*
X133477366Y-52798365D01*
X133450433Y-53903934D02*
X133689618Y-53894179D01*
X133689618Y-53894179D02*
X133906331Y-53874536D01*
X133906331Y-53874536D02*
X133688702Y-53759809D01*
X133688702Y-53759809D02*
X133630481Y-53755949D01*
X133477366Y-52798364D02*
X133230743Y-52800429D01*
X133230743Y-52800429D02*
X133011568Y-52811628D01*
X133011568Y-52811628D02*
X132960398Y-53008685D01*
X132960398Y-53008685D02*
X133127555Y-53129279D01*
X132444498Y-63063785D02*
X132240632Y-63086789D01*
X132240632Y-63086789D02*
X132037776Y-63096408D01*
X132037776Y-63096408D02*
X131992305Y-63088581D01*
X140312473Y-55788076D02*
X140280248Y-55186839D01*
X136042787Y-61046207D02*
X135854566Y-61262463D01*
X135854566Y-61262463D02*
X135662956Y-61465856D01*
X135662956Y-61465856D02*
X135467637Y-61656567D01*
X135467637Y-61656567D02*
X135268285Y-61834776D01*
X135268285Y-61834776D02*
X135064581Y-62000663D01*
X135064581Y-62000663D02*
X134856201Y-62154410D01*
X134856201Y-62154410D02*
X134642824Y-62296195D01*
X134642824Y-62296195D02*
X134424128Y-62426200D01*
X134424128Y-62426200D02*
X134199793Y-62544604D01*
X134199793Y-62544604D02*
X133969495Y-62651589D01*
X133969495Y-62651589D02*
X133732914Y-62747335D01*
X133732914Y-62747335D02*
X133489728Y-62832021D01*
X133489728Y-62832021D02*
X133239615Y-62905829D01*
X133239615Y-62905829D02*
X132982253Y-62968939D01*
X132982253Y-62968939D02*
X132717321Y-63021530D01*
X132717321Y-63021530D02*
X132444498Y-63063785D01*
X133672060Y-52946899D02*
X133887402Y-52932139D01*
X133887402Y-52932139D02*
X134085585Y-52884163D01*
X134085585Y-52884163D02*
X134102086Y-52864864D01*
X140899171Y-55298735D02*
X140913109Y-55510770D01*
X140913109Y-55510770D02*
X140924722Y-55729236D01*
X140924722Y-55729236D02*
X140935918Y-55955007D01*
X140935918Y-55955007D02*
X140945611Y-56160745D01*
X140945611Y-56160745D02*
X140947553Y-56203117D01*
X133451087Y-53547828D02*
X133704443Y-53366306D01*
X133197731Y-53729350D02*
X133451087Y-53547828D01*
X140418815Y-57346892D02*
X140403268Y-57142262D01*
X140403268Y-57142262D02*
X140387494Y-56927639D01*
X140387494Y-56927639D02*
X140371927Y-56709416D01*
X140371927Y-56709416D02*
X140357004Y-56493986D01*
X140357004Y-56493986D02*
X140343160Y-56287744D01*
X140343160Y-56287744D02*
X140328040Y-56052601D01*
X140328040Y-56052601D02*
X140314221Y-55820146D01*
X140314221Y-55820146D02*
X140312473Y-55788076D01*
X141150796Y-59932681D02*
X140939577Y-59951491D01*
X140939577Y-59951491D02*
X140864805Y-59957402D01*
X133630481Y-53755949D02*
X133197731Y-53729350D01*
X139433909Y-59769715D02*
X139433907Y-59769717D01*
X140586755Y-59725674D02*
X140565719Y-59510837D01*
X140565719Y-59510837D02*
X140548710Y-59289214D01*
X140548710Y-59289214D02*
X140534478Y-59074510D01*
X140534478Y-59074510D02*
X140523864Y-58889664D01*
X133264037Y-53013399D02*
X133460899Y-52962346D01*
X133460899Y-52962346D02*
X133672060Y-52946899D01*
X133303937Y-53065791D02*
X133264037Y-53013399D01*
X141804451Y-59710437D02*
X141804452Y-59710437D01*
X131992305Y-63088581D02*
X131981024Y-62815829D01*
X131981024Y-62815829D02*
X131973897Y-62375811D01*
X131973897Y-62375811D02*
X131970487Y-62089885D01*
X131970487Y-62089885D02*
X131967196Y-61765143D01*
X131967196Y-61765143D02*
X131964036Y-61405433D01*
X131964036Y-61405433D02*
X131961019Y-61014599D01*
X131961019Y-61014599D02*
X131958156Y-60596489D01*
X131958156Y-60596489D02*
X131955460Y-60154949D01*
X131955460Y-60154949D02*
X131952943Y-59693826D01*
X131952943Y-59693826D02*
X131950616Y-59216965D01*
X131950616Y-59216965D02*
X131948492Y-58728213D01*
X131948492Y-58728213D02*
X131946583Y-58231417D01*
X131946583Y-58231417D02*
X131944901Y-57730423D01*
X131944901Y-57730423D02*
X131943457Y-57229077D01*
X131943457Y-57229077D02*
X131942263Y-56731226D01*
X131942263Y-56731226D02*
X131941333Y-56240716D01*
X131941333Y-56240716D02*
X131940677Y-55761394D01*
X131940677Y-55761394D02*
X131940308Y-55297106D01*
X131940308Y-55297106D02*
X131940237Y-54851698D01*
X131940237Y-54851698D02*
X131940477Y-54429017D01*
X131940477Y-54429017D02*
X131941040Y-54032909D01*
X131941040Y-54032909D02*
X131941937Y-53667220D01*
X131941937Y-53667220D02*
X131943181Y-53335798D01*
X131943181Y-53335798D02*
X131944784Y-53042488D01*
X131944784Y-53042488D02*
X131946758Y-52791137D01*
X131946758Y-52791137D02*
X131949114Y-52585591D01*
X131949114Y-52585591D02*
X131955022Y-52327300D01*
X131955022Y-52327300D02*
X131958598Y-52282248D01*
X133524139Y-53216765D02*
X133363710Y-53096455D01*
X133363710Y-53096455D02*
X133303937Y-53065791D01*
X133704443Y-53366306D02*
X133524139Y-53216765D01*
X133131611Y-53591258D02*
X132954799Y-53705598D01*
X132954799Y-53705598D02*
X133030806Y-53901632D01*
X133030806Y-53901632D02*
X133264417Y-53906938D01*
X133264417Y-53906938D02*
X133450433Y-53903934D01*
X138397745Y-55200179D02*
X138628402Y-55203467D01*
X138628402Y-55203467D02*
X138867805Y-55217313D01*
X138867805Y-55217313D02*
X139090580Y-55250031D01*
X139090580Y-55250031D02*
X139293702Y-55324904D01*
X139293702Y-55324904D02*
X139419656Y-55458313D01*
X140864805Y-59957402D02*
X140618714Y-59976491D01*
X140254450Y-59980236D02*
X140254452Y-59980236D01*
X140254452Y-59980236D02*
X140039771Y-59936077D01*
X140039771Y-59936077D02*
X139849069Y-59843920D01*
X139849069Y-59843920D02*
X139729621Y-59726609D01*
X126729642Y-55291266D02*
X126533771Y-55368586D01*
X126533771Y-55368586D02*
X126344190Y-55492580D01*
X126344190Y-55492580D02*
X126175451Y-55650582D01*
X126175451Y-55650582D02*
X126042111Y-55829930D01*
X126042111Y-55829930D02*
X125987410Y-55937125D01*
X127107307Y-60982077D02*
X127233655Y-61144295D01*
X127233655Y-61144295D02*
X127404803Y-61298828D01*
X127404803Y-61298828D02*
X127597891Y-61413737D01*
X127597891Y-61413737D02*
X127809107Y-61486678D01*
X127809107Y-61486678D02*
X127968965Y-61511787D01*
X131468571Y-62410001D02*
X131774465Y-62273663D01*
X129260810Y-57693860D02*
X129002711Y-57693955D01*
X129002711Y-57693955D02*
X128761090Y-57694068D01*
X128761090Y-57694068D02*
X128535332Y-57694281D01*
X128535332Y-57694281D02*
X128324821Y-57694678D01*
X128324821Y-57694678D02*
X127947082Y-57696351D01*
X127947082Y-57696351D02*
X127622950Y-57699748D01*
X127622950Y-57699748D02*
X127347504Y-57705530D01*
X127347504Y-57705530D02*
X127115823Y-57714360D01*
X127115823Y-57714360D02*
X126839593Y-57734764D01*
X126839593Y-57734764D02*
X126634149Y-57765745D01*
X126634149Y-57765745D02*
X126441623Y-57827362D01*
X126441623Y-57827362D02*
X126276419Y-57944466D01*
X126276419Y-57944466D02*
X126123278Y-58115750D01*
X142971551Y-57893296D02*
X142894518Y-58095593D01*
X142894518Y-58095593D02*
X142791558Y-58271402D01*
X142791558Y-58271402D02*
X142642499Y-58439442D01*
X142642499Y-58439442D02*
X142460356Y-58571901D01*
X142460356Y-58571901D02*
X142409701Y-58599395D01*
X132086051Y-63278189D02*
X132332157Y-63267246D01*
X132332157Y-63267246D02*
X132595233Y-63235925D01*
X132595233Y-63235925D02*
X132801160Y-63199739D01*
X132801160Y-63199739D02*
X133012515Y-63153199D01*
X133012515Y-63153199D02*
X133227534Y-63096781D01*
X133227534Y-63096781D02*
X133444453Y-63030959D01*
X133444453Y-63030959D02*
X133661506Y-62956211D01*
X133661506Y-62956211D02*
X133876930Y-62873010D01*
X133876930Y-62873010D02*
X134088959Y-62781832D01*
X134088959Y-62781832D02*
X134295831Y-62683154D01*
X127412144Y-62705012D02*
X127435320Y-62914281D01*
X127435320Y-62914281D02*
X127501640Y-63106739D01*
X127501640Y-63106739D02*
X127624091Y-63295064D01*
X127624091Y-63295064D02*
X127789427Y-63437342D01*
X127789427Y-63437342D02*
X127836620Y-63464211D01*
X125987410Y-55937125D02*
X125930770Y-56146467D01*
X125930770Y-56146467D02*
X125913404Y-56359641D01*
X125913404Y-56359641D02*
X125925882Y-56576825D01*
X125925882Y-56576825D02*
X125968013Y-56775121D01*
X125968013Y-56775121D02*
X125995098Y-56848649D01*
X126986553Y-55225422D02*
X126729642Y-55291266D01*
X140729337Y-60128318D02*
X140933028Y-60131566D01*
X140933028Y-60131566D02*
X141153782Y-60133528D01*
X141153782Y-60133528D02*
X141360748Y-60131025D01*
X141360748Y-60131025D02*
X141574148Y-60111818D01*
X141574148Y-60111818D02*
X141763913Y-60035195D01*
X131774385Y-62081613D02*
X131495159Y-62208401D01*
X143132794Y-57160699D02*
X143132792Y-57160686D01*
X128652754Y-53851361D02*
X128429049Y-53759751D01*
X128429049Y-53759751D02*
X128210206Y-53715413D01*
X128210206Y-53715413D02*
X127996648Y-53718275D01*
X127996648Y-53718275D02*
X127788799Y-53768263D01*
X127788799Y-53768263D02*
X127587084Y-53865305D01*
X127587084Y-53865305D02*
X127391926Y-54009327D01*
X127391926Y-54009327D02*
X127315795Y-54080074D01*
X129726302Y-62830660D02*
X129943158Y-62812653D01*
X129943158Y-62812653D02*
X130165988Y-62783389D01*
X130165988Y-62783389D02*
X130391936Y-62743557D01*
X130391936Y-62743557D02*
X130618148Y-62693847D01*
X130618148Y-62693847D02*
X130841772Y-62634947D01*
X130841772Y-62634947D02*
X131059953Y-62567547D01*
X131059953Y-62567547D02*
X131269837Y-62492335D01*
X131269837Y-62492335D02*
X131468571Y-62410001D01*
X131774464Y-57612895D02*
X131558777Y-57668912D01*
X131558777Y-57668912D02*
X131342027Y-57679165D01*
X131342027Y-57679165D02*
X131112843Y-57684707D01*
X131112843Y-57684707D02*
X130817943Y-57688685D01*
X130817943Y-57688685D02*
X130581007Y-57690592D01*
X130581007Y-57690592D02*
X130309122Y-57691989D01*
X130309122Y-57691989D02*
X129999992Y-57692950D01*
X129999992Y-57692950D02*
X129651320Y-57693549D01*
X129651320Y-57693549D02*
X129260810Y-57693860D01*
X125995098Y-56848649D02*
X126102537Y-57021392D01*
X126102537Y-57021392D02*
X126240430Y-57175806D01*
X126240430Y-57175806D02*
X126400002Y-57317754D01*
X126400002Y-57317754D02*
X126587531Y-57444444D01*
X126587531Y-57444444D02*
X126727122Y-57499828D01*
X142311103Y-58845321D02*
X142526970Y-58758890D01*
X142526970Y-58758890D02*
X142721659Y-58614126D01*
X142721659Y-58614126D02*
X142889594Y-58422461D01*
X142889594Y-58422461D02*
X143025197Y-58195324D01*
X143025197Y-58195324D02*
X143102329Y-58008571D01*
X143102329Y-58008571D02*
X143155787Y-57813118D01*
X143155787Y-57813118D02*
X143183217Y-57613788D01*
X143183217Y-57613788D02*
X143175240Y-57350320D01*
X143175240Y-57350320D02*
X143132794Y-57160699D01*
X127758221Y-61971391D02*
X127598587Y-62118783D01*
X127598587Y-62118783D02*
X127481359Y-62304614D01*
X127481359Y-62304614D02*
X127426517Y-62500452D01*
X127426517Y-62500452D02*
X127412144Y-62705012D01*
X141763913Y-60035195D02*
X141924841Y-59894873D01*
X141924841Y-59894873D02*
X142011326Y-59696800D01*
X142011326Y-59696800D02*
X142038865Y-59465944D01*
X142038865Y-59465944D02*
X142041881Y-59318314D01*
X136150801Y-61189532D02*
X136300133Y-61016333D01*
X136300133Y-61016333D02*
X136441584Y-60857175D01*
X136441584Y-60857175D02*
X136585589Y-60701180D01*
X136585589Y-60701180D02*
X136735745Y-60553456D01*
X136735745Y-60553456D02*
X136749722Y-60542980D01*
X131774465Y-62691978D02*
X131776439Y-62918273D01*
X131776439Y-62918273D02*
X131794249Y-63124899D01*
X131794249Y-63124899D02*
X131946314Y-63272497D01*
X131946314Y-63272497D02*
X132086051Y-63278189D01*
X129061314Y-63000490D02*
X129213810Y-62870551D01*
X129213810Y-62870551D02*
X129429493Y-62848991D01*
X129429493Y-62848991D02*
X129668610Y-62833973D01*
X129668610Y-62833973D02*
X129726302Y-62830660D01*
X131774425Y-61809870D02*
X131774385Y-62081613D01*
X129333959Y-57533096D02*
X129713018Y-57533225D01*
X129713018Y-57533225D02*
X130051479Y-57533662D01*
X130051479Y-57533662D02*
X130351568Y-57534479D01*
X130351568Y-57534479D02*
X130615515Y-57535750D01*
X130615515Y-57535750D02*
X130845545Y-57537547D01*
X130845545Y-57537547D02*
X131131870Y-57541389D01*
X131131870Y-57541389D02*
X131354413Y-57546825D01*
X131354413Y-57546825D02*
X131564914Y-57556977D01*
X131564914Y-57556977D02*
X131765126Y-57594802D01*
X131765126Y-57594802D02*
X131774464Y-57612895D01*
X127968965Y-61511787D02*
X128183099Y-61509455D01*
X128183099Y-61509455D02*
X128380735Y-61462543D01*
X128380735Y-61462543D02*
X128591537Y-61376772D01*
X128591537Y-61376772D02*
X128779102Y-61285139D01*
X128779102Y-61285139D02*
X128911045Y-61216569D01*
X126819431Y-59980250D02*
X126927705Y-60165039D01*
X126927705Y-60165039D02*
X126941443Y-60370742D01*
X125896215Y-59164379D02*
X125976265Y-59362184D01*
X125976265Y-59362184D02*
X126092810Y-59545181D01*
X126092810Y-59545181D02*
X126237179Y-59705705D01*
X126237179Y-59705705D02*
X126400702Y-59836097D01*
X126400702Y-59836097D02*
X126610008Y-59942005D01*
X126610008Y-59942005D02*
X126819431Y-59980250D01*
X126727122Y-57499828D02*
X126932874Y-57511236D01*
X126932874Y-57511236D02*
X127167819Y-57517045D01*
X127167819Y-57517045D02*
X127391859Y-57520958D01*
X127391859Y-57520958D02*
X127651887Y-57524427D01*
X127651887Y-57524427D02*
X127943392Y-57527394D01*
X127943392Y-57527394D02*
X128152987Y-57529065D01*
X128152987Y-57529065D02*
X128373231Y-57530471D01*
X128373231Y-57530471D02*
X128602786Y-57531593D01*
X128602786Y-57531593D02*
X128840317Y-57532417D01*
X128840317Y-57532417D02*
X129084487Y-57532923D01*
X129084487Y-57532923D02*
X129333959Y-57533096D01*
X127836620Y-63464211D02*
X128035021Y-63523869D01*
X128035021Y-63523869D02*
X128251880Y-63542361D01*
X128251880Y-63542361D02*
X128459926Y-63527067D01*
X128459926Y-63527067D02*
X128599319Y-63485003D01*
X131495159Y-62208401D02*
X131301817Y-62290007D01*
X131301817Y-62290007D02*
X131093186Y-62366906D01*
X131093186Y-62366906D02*
X130873869Y-62438084D01*
X130873869Y-62438084D02*
X130648473Y-62502527D01*
X130648473Y-62502527D02*
X130421601Y-62559220D01*
X130421601Y-62559220D02*
X130197860Y-62607150D01*
X130197860Y-62607150D02*
X129981855Y-62645302D01*
X129981855Y-62645302D02*
X129778189Y-62672662D01*
X129778189Y-62672662D02*
X129533791Y-62690601D01*
X129533791Y-62690601D02*
X129330434Y-62685148D01*
X129099874Y-62482551D02*
X129016511Y-62267812D01*
X129016511Y-62267812D02*
X128891637Y-62089537D01*
X128891637Y-62089537D02*
X128733959Y-61951042D01*
X128733959Y-61951042D02*
X128552184Y-61855646D01*
X128552184Y-61855646D02*
X128355015Y-61806665D01*
X128355015Y-61806665D02*
X128151162Y-61807417D01*
X128151162Y-61807417D02*
X127949328Y-61861220D01*
X127949328Y-61861220D02*
X127758221Y-61971391D01*
X131774465Y-61538128D02*
X131774425Y-61809870D01*
X139596807Y-59857261D02*
X139732897Y-59985256D01*
X138236066Y-60240039D02*
X138496491Y-60236106D01*
X138496491Y-60236106D02*
X138717903Y-60226149D01*
X138717903Y-60226149D02*
X138946183Y-60203943D01*
X138946183Y-60203943D02*
X139159799Y-60160801D01*
X139159799Y-60160801D02*
X139365457Y-60070607D01*
X139365457Y-60070607D02*
X139461513Y-59992555D01*
X131218680Y-61257028D02*
X131409810Y-61349381D01*
X131409810Y-61349381D02*
X131503560Y-61397578D01*
X126941443Y-60370742D02*
X126957444Y-60574604D01*
X126957444Y-60574604D02*
X127001234Y-60777505D01*
X127001234Y-60777505D02*
X127096455Y-60965474D01*
X127096455Y-60965474D02*
X127107307Y-60982077D01*
X139732897Y-59985256D02*
X139906084Y-60085412D01*
X139906084Y-60085412D02*
X140120852Y-60111369D01*
X140120852Y-60111369D02*
X140342068Y-60120268D01*
X140342068Y-60120268D02*
X140583560Y-60125677D01*
X140583560Y-60125677D02*
X140729337Y-60128318D01*
X141804452Y-59710437D02*
X141675013Y-59869676D01*
X141675013Y-59869676D02*
X141477179Y-59926852D01*
X141477179Y-59926852D02*
X141462018Y-59927037D01*
X128599319Y-63485003D02*
X128772799Y-63366007D01*
X128772799Y-63366007D02*
X128919753Y-63226485D01*
X128919753Y-63226485D02*
X129042967Y-63060779D01*
X129042967Y-63060779D02*
X129061314Y-63000490D01*
X134295831Y-62683154D02*
X134514148Y-62570358D01*
X134514148Y-62570358D02*
X134712893Y-62460289D01*
X134712893Y-62460289D02*
X134895660Y-62350053D01*
X134895660Y-62350053D02*
X135066042Y-62236755D01*
X135066042Y-62236755D02*
X135227634Y-62117502D01*
X135227634Y-62117502D02*
X135384031Y-61989399D01*
X135384031Y-61989399D02*
X135538826Y-61849552D01*
X135538826Y-61849552D02*
X135695616Y-61695067D01*
X135695616Y-61695067D02*
X135857992Y-61523050D01*
X135857992Y-61523050D02*
X136029552Y-61330605D01*
X136029552Y-61330605D02*
X136150801Y-61189532D01*
X131774465Y-62273663D02*
X131774465Y-62691978D01*
X142971551Y-57893296D02*
X142971551Y-57893296D01*
X142705275Y-56786631D02*
X142827465Y-56966750D01*
X142827465Y-56966750D02*
X142924721Y-57162930D01*
X142924721Y-57162930D02*
X143004128Y-57363722D01*
X143004128Y-57363722D02*
X143050924Y-57563323D01*
X129330434Y-62685148D02*
X129144222Y-62605082D01*
X129144222Y-62605082D02*
X129099874Y-62482551D01*
X142041881Y-59318314D02*
X142051094Y-59102529D01*
X142051094Y-59102529D02*
X142133782Y-58916713D01*
X142133782Y-58916713D02*
X142311103Y-58845321D01*
X139461513Y-59992555D02*
X139596807Y-59857261D01*
X129779697Y-62001870D02*
X130007032Y-62040291D01*
X130007032Y-62040291D02*
X130233602Y-62030959D01*
X130233602Y-62030959D02*
X130452987Y-61976451D01*
X130452987Y-61976451D02*
X130658769Y-61879348D01*
X130658769Y-61879348D02*
X130844532Y-61742226D01*
X130844532Y-61742226D02*
X131003858Y-61567666D01*
X131003858Y-61567666D02*
X131058748Y-61487937D01*
X142409701Y-58599395D02*
X142211651Y-58693018D01*
X142211651Y-58693018D02*
X142062417Y-58545504D01*
X142062417Y-58545504D02*
X142045654Y-58299140D01*
X142045654Y-58299140D02*
X142042416Y-58082627D01*
X142042416Y-58082627D02*
X142041815Y-57807792D01*
X142041815Y-57807792D02*
X142041880Y-57589420D01*
X136749722Y-60542980D02*
X136937780Y-60445493D01*
X136937780Y-60445493D02*
X137132314Y-60377402D01*
X137132314Y-60377402D02*
X137357166Y-60322094D01*
X137357166Y-60322094D02*
X137556317Y-60287571D01*
X137556317Y-60287571D02*
X137770484Y-60262122D01*
X137770484Y-60262122D02*
X137997717Y-60246146D01*
X137997717Y-60246146D02*
X138236066Y-60240039D01*
X126123278Y-58115750D02*
X125991059Y-58296407D01*
X125991059Y-58296407D02*
X125900817Y-58481651D01*
X125900817Y-58481651D02*
X125847865Y-58706904D01*
X125847865Y-58706904D02*
X125846712Y-58910668D01*
X125846712Y-58910668D02*
X125885820Y-59126941D01*
X125885820Y-59126941D02*
X125896215Y-59164379D01*
X131503560Y-61397578D02*
X131774465Y-61538128D01*
X129037638Y-61388673D02*
X129145450Y-61558057D01*
X129145450Y-61558057D02*
X129297647Y-61719154D01*
X129297647Y-61719154D02*
X129478062Y-61858604D01*
X129478062Y-61858604D02*
X129670527Y-61963046D01*
X129670527Y-61963046D02*
X129779697Y-62001870D01*
X128911045Y-61216569D02*
X129032943Y-61378904D01*
X129032943Y-61378904D02*
X129037638Y-61388673D01*
X126986553Y-54922782D02*
X126986553Y-55225422D01*
X141077308Y-55192322D02*
X141263536Y-55192322D01*
X141112444Y-55897210D02*
X141077308Y-55192322D01*
X141194241Y-57187286D02*
X141178819Y-56981936D01*
X141178819Y-56981936D02*
X141164988Y-56782014D01*
X141164988Y-56782014D02*
X141150966Y-56566935D01*
X141150966Y-56566935D02*
X141137408Y-56347034D01*
X141137408Y-56347034D02*
X141124969Y-56132647D01*
X141124969Y-56132647D02*
X141112444Y-55897210D01*
X131058748Y-61487937D02*
X131171262Y-61317198D01*
X131171262Y-61317198D02*
X131218680Y-61257028D01*
X141305275Y-58849756D02*
X141291391Y-58621409D01*
X141291391Y-58621409D02*
X141276597Y-58385293D01*
X141276597Y-58385293D02*
X141261350Y-58148226D01*
X141261350Y-58148226D02*
X141246104Y-57917027D01*
X141246104Y-57917027D02*
X141231314Y-57698515D01*
X141231314Y-57698515D02*
X141214164Y-57453603D01*
X141214164Y-57453603D02*
X141199328Y-57252486D01*
X141199328Y-57252486D02*
X141194241Y-57187286D01*
X141462018Y-59927037D02*
X141370235Y-59719984D01*
X141370235Y-59719984D02*
X141346491Y-59477027D01*
X141346491Y-59477027D02*
X141329653Y-59241653D01*
X141329653Y-59241653D02*
X141315607Y-59020478D01*
X141315607Y-59020478D02*
X141305275Y-58849756D01*
X143050924Y-57563323D02*
X143006462Y-57769527D01*
X143006462Y-57769527D02*
X142971551Y-57893296D01*
X127315795Y-54080074D02*
X127181888Y-54234409D01*
X127181888Y-54234409D02*
X127073907Y-54424663D01*
X127073907Y-54424663D02*
X127010204Y-54639389D01*
X127010204Y-54639389D02*
X126987685Y-54855288D01*
X126987685Y-54855288D02*
X126986553Y-54922782D01*
X142086259Y-56447951D02*
X142291555Y-56501316D01*
X142291555Y-56501316D02*
X142479536Y-56607985D01*
X142479536Y-56607985D02*
X142653751Y-56737674D01*
X142653751Y-56737674D02*
X142705275Y-56786631D01*
X142041880Y-57589420D02*
X142042785Y-57365072D01*
X142042785Y-57365072D02*
X142045381Y-57154694D01*
X142045381Y-57154694D02*
X142050726Y-56918497D01*
X142050726Y-56918497D02*
X142059750Y-56686403D01*
X142059750Y-56686403D02*
X142077344Y-56476198D01*
X142077344Y-56476198D02*
X142086259Y-56447951D01*
%TD*%
M02*
