%TF.GenerationSoftware,KiCad,Pcbnew,(5.1.6)-1*%
%TF.CreationDate,2020-10-07T00:16:53+02:00*%
%TF.ProjectId,RPI_FEATHER,5250495f-4645-4415-9448-45522e6b6963,rev?*%
%TF.SameCoordinates,Original*%
%TF.FileFunction,Copper,L1,Top*%
%TF.FilePolarity,Positive*%
%FSLAX46Y46*%
G04 Gerber Fmt 4.6, Leading zero omitted, Abs format (unit mm)*
G04 Created by KiCad (PCBNEW (5.1.6)-1) date 2020-10-07 00:16:53*
%MOMM*%
%LPD*%
G01*
G04 APERTURE LIST*
%TA.AperFunction,ComponentPad*%
%ADD10C,1.524000*%
%TD*%
%TA.AperFunction,ComponentPad*%
%ADD11R,1.524000X1.524000*%
%TD*%
%TA.AperFunction,WasherPad*%
%ADD12C,3.556000*%
%TD*%
%TA.AperFunction,ComponentPad*%
%ADD13O,1.700000X1.700000*%
%TD*%
%TA.AperFunction,ComponentPad*%
%ADD14R,1.700000X1.700000*%
%TD*%
%TA.AperFunction,ViaPad*%
%ADD15C,0.889000*%
%TD*%
%TA.AperFunction,Conductor*%
%ADD16C,0.254000*%
%TD*%
G04 APERTURE END LIST*
D10*
%TO.P,PI2,40*%
%TO.N,/GPIO21*%
X117912000Y-93784400D03*
%TO.P,PI2,39*%
%TO.N,GND*%
X117912000Y-91244400D03*
%TO.P,PI2,38*%
%TO.N,/GPIO20*%
X120452000Y-93784400D03*
%TO.P,PI2,37*%
%TO.N,/GPIO26*%
X120452000Y-91244400D03*
%TO.P,PI2,36*%
%TO.N,/GPIO16*%
X122992000Y-93784400D03*
%TO.P,PI2,35*%
%TO.N,/GPIO19*%
X122992000Y-91244400D03*
%TO.P,PI2,34*%
%TO.N,GND*%
X125532000Y-93784400D03*
%TO.P,PI2,33*%
%TO.N,/GPIO13*%
X125532000Y-91244400D03*
%TO.P,PI2,32*%
%TO.N,/GPIO12*%
X128072000Y-93784400D03*
%TO.P,PI2,31*%
%TO.N,/GPIO6*%
X128072000Y-91244400D03*
%TO.P,PI2,30*%
%TO.N,GND*%
X130612000Y-93784400D03*
%TO.P,PI2,29*%
%TO.N,/GPIO5*%
X130612000Y-91244400D03*
%TO.P,PI2,28*%
%TO.N,N/C*%
X133152000Y-93784400D03*
%TO.P,PI2,27*%
X133152000Y-91244400D03*
%TO.P,PI2,26*%
X135692000Y-93784400D03*
%TO.P,PI2,25*%
%TO.N,GND*%
X135692000Y-91244400D03*
%TO.P,PI2,24*%
%TO.N,/F13*%
X138232000Y-93784400D03*
%TO.P,PI2,23*%
%TO.N,/SCK*%
X138232000Y-91244400D03*
%TO.P,PI2,22*%
%TO.N,/F12*%
X140772000Y-93784400D03*
%TO.P,PI2,21*%
%TO.N,/MISO*%
X140772000Y-91244400D03*
%TO.P,PI2,20*%
%TO.N,GND*%
X143312000Y-93784400D03*
%TO.P,PI2,19*%
%TO.N,/MOSI*%
X143312000Y-91244400D03*
%TO.P,PI2,18*%
%TO.N,/F11*%
X145852000Y-93784400D03*
%TO.P,PI2,17*%
%TO.N,3.3v*%
X145852000Y-91244400D03*
%TO.P,PI2,16*%
%TO.N,/GPIO23*%
X148392000Y-93784400D03*
%TO.P,PI2,15*%
%TO.N,/F9*%
X148392000Y-91244400D03*
%TO.P,PI2,14*%
%TO.N,GND*%
X150932000Y-93784400D03*
%TO.P,PI2,13*%
%TO.N,/F6*%
X150932000Y-91244400D03*
%TO.P,PI2,12*%
%TO.N,/GPIO18*%
X153472000Y-93784400D03*
%TO.P,PI2,11*%
%TO.N,/F5*%
X153472000Y-91244400D03*
%TO.P,PI2,10*%
%TO.N,/TX*%
X156012000Y-93784400D03*
%TO.P,PI2,9*%
%TO.N,GND*%
X156012000Y-91244400D03*
%TO.P,PI2,8*%
%TO.N,/RX*%
X158552000Y-93784400D03*
%TO.P,PI2,7*%
%TO.N,/GPIO4*%
X158552000Y-91244400D03*
%TO.P,PI2,6*%
%TO.N,GND*%
X161092000Y-93784400D03*
%TO.P,PI2,5*%
%TO.N,N/C*%
X161092000Y-91244400D03*
%TO.P,PI2,4*%
%TO.N,/5v*%
X163632000Y-93784400D03*
%TO.P,PI2,3*%
%TO.N,N/C*%
X163632000Y-91244400D03*
%TO.P,PI2,2*%
%TO.N,/5v*%
X166172000Y-93784400D03*
D11*
%TO.P,PI2,1*%
%TO.N,3.3v*%
X166172000Y-91244400D03*
%TD*%
D12*
%TO.P,U1,*%
%TO.N,*%
X164902000Y-66479400D03*
X119182000Y-66479400D03*
X164902000Y-48699400D03*
X119182000Y-48699400D03*
D10*
%TO.P,U1,1*%
%TO.N,N/C*%
X161092000Y-47429400D03*
%TO.P,U1,2*%
X158552000Y-47429400D03*
%TO.P,U1,3*%
%TO.N,/F5*%
X156012000Y-47429400D03*
%TO.P,U1,4*%
%TO.N,/F6*%
X153472000Y-47429400D03*
%TO.P,U1,5*%
%TO.N,/F9*%
X150932000Y-47429400D03*
%TO.P,U1,6*%
%TO.N,N/C*%
X148392000Y-47429400D03*
%TO.P,U1,7*%
%TO.N,/F11*%
X145852000Y-47429400D03*
%TO.P,U1,8*%
%TO.N,/F12*%
X143312000Y-47429400D03*
%TO.P,U1,9*%
%TO.N,/F13*%
X140772000Y-47429400D03*
%TO.P,U1,10*%
%TO.N,/5v*%
X138232000Y-47429400D03*
%TO.P,U1,11*%
%TO.N,N/C*%
X135692000Y-47429400D03*
%TO.P,U1,12*%
X133152000Y-47429400D03*
%TO.P,U1,13*%
X161092000Y-67749400D03*
%TO.P,U1,14*%
%TO.N,Net-(R1-Pad2)*%
X158552000Y-67749400D03*
%TO.P,U1,15*%
%TO.N,Net-(R2-Pad2)*%
X156012000Y-67749400D03*
%TO.P,U1,16*%
%TO.N,/MISO*%
X153472000Y-67749400D03*
%TO.P,U1,17*%
%TO.N,/MOSI*%
X150932000Y-67749400D03*
%TO.P,U1,18*%
%TO.N,/SCK*%
X148392000Y-67749400D03*
%TO.P,U1,19*%
%TO.N,/A5*%
X145852000Y-67749400D03*
%TO.P,U1,20*%
%TO.N,/A4*%
X143312000Y-67749400D03*
%TO.P,U1,21*%
%TO.N,/A3*%
X140772000Y-67749400D03*
%TO.P,U1,22*%
%TO.N,/A2*%
X138232000Y-67749400D03*
%TO.P,U1,23*%
%TO.N,/A1*%
X135692000Y-67749400D03*
%TO.P,U1,24*%
%TO.N,/A0*%
X133152000Y-67749400D03*
%TO.P,U1,25*%
%TO.N,GND*%
X130612000Y-67749400D03*
%TO.P,U1,26*%
%TO.N,N/C*%
X128072000Y-67749400D03*
%TO.P,U1,27*%
%TO.N,3.3v*%
X125532000Y-67749400D03*
%TO.P,U1,28*%
%TO.N,/FRST*%
X122992000Y-67749400D03*
%TD*%
D11*
%TO.P,PI1,1*%
%TO.N,3.3v*%
X117912000Y-85529400D03*
D10*
%TO.P,PI1,2*%
%TO.N,/5v*%
X117912000Y-82989400D03*
%TO.P,PI1,3*%
%TO.N,N/C*%
X120452000Y-85529400D03*
%TO.P,PI1,4*%
%TO.N,/5v*%
X120452000Y-82989400D03*
%TO.P,PI1,5*%
%TO.N,N/C*%
X122992000Y-85529400D03*
%TO.P,PI1,6*%
%TO.N,GND*%
X122992000Y-82989400D03*
%TO.P,PI1,7*%
%TO.N,/GPIO4*%
X125532000Y-85529400D03*
%TO.P,PI1,8*%
%TO.N,/RX*%
X125532000Y-82989400D03*
%TO.P,PI1,9*%
%TO.N,GND*%
X128072000Y-85529400D03*
%TO.P,PI1,10*%
%TO.N,/TX*%
X128072000Y-82989400D03*
%TO.P,PI1,11*%
%TO.N,/F5*%
X130612000Y-85529400D03*
%TO.P,PI1,12*%
%TO.N,/GPIO18*%
X130612000Y-82989400D03*
%TO.P,PI1,13*%
%TO.N,/F6*%
X133152000Y-85529400D03*
%TO.P,PI1,14*%
%TO.N,GND*%
X133152000Y-82989400D03*
%TO.P,PI1,15*%
%TO.N,/F9*%
X135692000Y-85529400D03*
%TO.P,PI1,16*%
%TO.N,/GPIO23*%
X135692000Y-82989400D03*
%TO.P,PI1,17*%
%TO.N,3.3v*%
X138232000Y-85529400D03*
%TO.P,PI1,18*%
%TO.N,/F11*%
X138232000Y-82989400D03*
%TO.P,PI1,19*%
%TO.N,/MOSI*%
X140772000Y-85529400D03*
%TO.P,PI1,20*%
%TO.N,GND*%
X140772000Y-82989400D03*
%TO.P,PI1,21*%
%TO.N,/MISO*%
X143312000Y-85529400D03*
%TO.P,PI1,22*%
%TO.N,/F12*%
X143312000Y-82989400D03*
%TO.P,PI1,23*%
%TO.N,/SCK*%
X145852000Y-85529400D03*
%TO.P,PI1,24*%
%TO.N,/F13*%
X145852000Y-82989400D03*
%TO.P,PI1,25*%
%TO.N,GND*%
X148392000Y-85529400D03*
%TO.P,PI1,26*%
%TO.N,N/C*%
X148392000Y-82989400D03*
%TO.P,PI1,27*%
X150932000Y-85529400D03*
%TO.P,PI1,28*%
X150932000Y-82989400D03*
%TO.P,PI1,29*%
%TO.N,/GPIO5*%
X153472000Y-85529400D03*
%TO.P,PI1,30*%
%TO.N,GND*%
X153472000Y-82989400D03*
%TO.P,PI1,31*%
%TO.N,/GPIO6*%
X156012000Y-85529400D03*
%TO.P,PI1,32*%
%TO.N,/GPIO12*%
X156012000Y-82989400D03*
%TO.P,PI1,33*%
%TO.N,/GPIO13*%
X158552000Y-85529400D03*
%TO.P,PI1,34*%
%TO.N,GND*%
X158552000Y-82989400D03*
%TO.P,PI1,35*%
%TO.N,/GPIO19*%
X161092000Y-85529400D03*
%TO.P,PI1,36*%
%TO.N,/GPIO16*%
X161092000Y-82989400D03*
%TO.P,PI1,37*%
%TO.N,/GPIO26*%
X163632000Y-85529400D03*
%TO.P,PI1,38*%
%TO.N,/GPIO20*%
X163632000Y-82989400D03*
%TO.P,PI1,39*%
%TO.N,GND*%
X166172000Y-85529400D03*
%TO.P,PI1,40*%
%TO.N,/GPIO21*%
X166172000Y-82989400D03*
%TD*%
%TO.P,R1,1*%
%TO.N,/TX*%
%TA.AperFunction,SMDPad,CuDef*%
G36*
G01*
X119026999Y-75704400D02*
X119927001Y-75704400D01*
G75*
G02*
X120177000Y-75954399I0J-249999D01*
G01*
X120177000Y-76604401D01*
G75*
G02*
X119927001Y-76854400I-249999J0D01*
G01*
X119026999Y-76854400D01*
G75*
G02*
X118777000Y-76604401I0J249999D01*
G01*
X118777000Y-75954399D01*
G75*
G02*
X119026999Y-75704400I249999J0D01*
G01*
G37*
%TD.AperFunction*%
%TO.P,R1,2*%
%TO.N,Net-(R1-Pad2)*%
%TA.AperFunction,SMDPad,CuDef*%
G36*
G01*
X119026999Y-77754400D02*
X119927001Y-77754400D01*
G75*
G02*
X120177000Y-78004399I0J-249999D01*
G01*
X120177000Y-78654401D01*
G75*
G02*
X119927001Y-78904400I-249999J0D01*
G01*
X119026999Y-78904400D01*
G75*
G02*
X118777000Y-78654401I0J249999D01*
G01*
X118777000Y-78004399D01*
G75*
G02*
X119026999Y-77754400I249999J0D01*
G01*
G37*
%TD.AperFunction*%
%TD*%
%TO.P,R2,2*%
%TO.N,Net-(R2-Pad2)*%
%TA.AperFunction,SMDPad,CuDef*%
G36*
G01*
X119026999Y-73004400D02*
X119927001Y-73004400D01*
G75*
G02*
X120177000Y-73254399I0J-249999D01*
G01*
X120177000Y-73904401D01*
G75*
G02*
X119927001Y-74154400I-249999J0D01*
G01*
X119026999Y-74154400D01*
G75*
G02*
X118777000Y-73904401I0J249999D01*
G01*
X118777000Y-73254399D01*
G75*
G02*
X119026999Y-73004400I249999J0D01*
G01*
G37*
%TD.AperFunction*%
%TO.P,R2,1*%
%TO.N,/RX*%
%TA.AperFunction,SMDPad,CuDef*%
G36*
G01*
X119026999Y-70954400D02*
X119927001Y-70954400D01*
G75*
G02*
X120177000Y-71204399I0J-249999D01*
G01*
X120177000Y-71854401D01*
G75*
G02*
X119927001Y-72104400I-249999J0D01*
G01*
X119026999Y-72104400D01*
G75*
G02*
X118777000Y-71854401I0J249999D01*
G01*
X118777000Y-71204399D01*
G75*
G02*
X119026999Y-70954400I249999J0D01*
G01*
G37*
%TD.AperFunction*%
%TD*%
%TO.P,D1,1*%
%TO.N,GND*%
%TA.AperFunction,SMDPad,CuDef*%
G36*
G01*
X169032000Y-82427401D02*
X169032000Y-81527399D01*
G75*
G02*
X169281999Y-81277400I249999J0D01*
G01*
X169932001Y-81277400D01*
G75*
G02*
X170182000Y-81527399I0J-249999D01*
G01*
X170182000Y-82427401D01*
G75*
G02*
X169932001Y-82677400I-249999J0D01*
G01*
X169281999Y-82677400D01*
G75*
G02*
X169032000Y-82427401I0J249999D01*
G01*
G37*
%TD.AperFunction*%
%TO.P,D1,2*%
%TO.N,Net-(D1-Pad2)*%
%TA.AperFunction,SMDPad,CuDef*%
G36*
G01*
X171082000Y-82427401D02*
X171082000Y-81527399D01*
G75*
G02*
X171331999Y-81277400I249999J0D01*
G01*
X171982001Y-81277400D01*
G75*
G02*
X172232000Y-81527399I0J-249999D01*
G01*
X172232000Y-82427401D01*
G75*
G02*
X171982001Y-82677400I-249999J0D01*
G01*
X171331999Y-82677400D01*
G75*
G02*
X171082000Y-82427401I0J249999D01*
G01*
G37*
%TD.AperFunction*%
%TD*%
%TO.P,R3,1*%
%TO.N,3.3v*%
%TA.AperFunction,SMDPad,CuDef*%
G36*
G01*
X168890000Y-84963401D02*
X168890000Y-84063399D01*
G75*
G02*
X169139999Y-83813400I249999J0D01*
G01*
X169790001Y-83813400D01*
G75*
G02*
X170040000Y-84063399I0J-249999D01*
G01*
X170040000Y-84963401D01*
G75*
G02*
X169790001Y-85213400I-249999J0D01*
G01*
X169139999Y-85213400D01*
G75*
G02*
X168890000Y-84963401I0J249999D01*
G01*
G37*
%TD.AperFunction*%
%TO.P,R3,2*%
%TO.N,Net-(D1-Pad2)*%
%TA.AperFunction,SMDPad,CuDef*%
G36*
G01*
X170940000Y-84963401D02*
X170940000Y-84063399D01*
G75*
G02*
X171189999Y-83813400I249999J0D01*
G01*
X171840001Y-83813400D01*
G75*
G02*
X172090000Y-84063399I0J-249999D01*
G01*
X172090000Y-84963401D01*
G75*
G02*
X171840001Y-85213400I-249999J0D01*
G01*
X171189999Y-85213400D01*
G75*
G02*
X170940000Y-84963401I0J249999D01*
G01*
G37*
%TD.AperFunction*%
%TD*%
D13*
%TO.P,J1,12*%
%TO.N,/MISO*%
X171252000Y-75369400D03*
%TO.P,J1,11*%
%TO.N,/MOSI*%
X171252000Y-72829400D03*
%TO.P,J1,10*%
%TO.N,/SCK*%
X171252000Y-70289400D03*
%TO.P,J1,9*%
%TO.N,GND*%
X171252000Y-67749400D03*
%TO.P,J1,8*%
%TO.N,3.3v*%
X171252000Y-65209400D03*
%TO.P,J1,7*%
%TO.N,/FRST*%
X171252000Y-62669400D03*
%TO.P,J1,6*%
%TO.N,/A0*%
X171252000Y-60129400D03*
%TO.P,J1,5*%
%TO.N,/A1*%
X171252000Y-57589400D03*
%TO.P,J1,4*%
%TO.N,/A2*%
X171252000Y-55049400D03*
%TO.P,J1,3*%
%TO.N,/A3*%
X171252000Y-52509400D03*
%TO.P,J1,2*%
%TO.N,/A4*%
X171252000Y-49969400D03*
D14*
%TO.P,J1,1*%
%TO.N,/A5*%
X171252000Y-47429400D03*
%TD*%
%TO.P,J2,1*%
%TO.N,/GPIO4*%
X112832000Y-47429400D03*
D13*
%TO.P,J2,2*%
%TO.N,/GPIO5*%
X112832000Y-49969400D03*
%TO.P,J2,3*%
%TO.N,/GPIO6*%
X112832000Y-52509400D03*
%TO.P,J2,4*%
%TO.N,/GPIO12*%
X112832000Y-55049400D03*
%TO.P,J2,5*%
%TO.N,/GPIO13*%
X112832000Y-57589400D03*
%TO.P,J2,6*%
%TO.N,/GPIO16*%
X112832000Y-60129400D03*
%TO.P,J2,7*%
%TO.N,/GPIO18*%
X112832000Y-62669400D03*
%TO.P,J2,8*%
%TO.N,/GPIO19*%
X112832000Y-65209400D03*
%TO.P,J2,9*%
%TO.N,/GPIO20*%
X112832000Y-67749400D03*
%TO.P,J2,10*%
%TO.N,/GPIO21*%
X112832000Y-70289400D03*
%TO.P,J2,11*%
%TO.N,/GPIO23*%
X112832000Y-72829400D03*
%TO.P,J2,12*%
%TO.N,/GPIO26*%
X112832000Y-75369400D03*
%TD*%
D15*
%TO.N,3.3v*%
X138212500Y-88600000D03*
X136559800Y-75659000D03*
%TO.N,/TX*%
X157818700Y-80617600D03*
%TO.N,/MISO*%
X142968300Y-71111000D03*
%TO.N,/MOSI*%
X142757800Y-76762900D03*
X146807800Y-86672800D03*
X151451200Y-73896700D03*
%TO.N,/SCK*%
X143539900Y-89771600D03*
%TO.N,/A0*%
X153438600Y-56660500D03*
%TO.N,/GPIO4*%
X126102400Y-77183900D03*
%TO.N,/GPIO5*%
X131859900Y-81392300D03*
%TO.N,/GPIO6*%
X122080700Y-95977500D03*
%TO.N,/GPIO12*%
X129262600Y-80888100D03*
%TO.N,/GPIO13*%
X126228400Y-80367700D03*
%TO.N,/GPIO16*%
X152640600Y-53549500D03*
%TO.N,/GPIO18*%
X119415100Y-68957600D03*
X133340500Y-87130000D03*
%TO.N,/GPIO19*%
X115397500Y-87385800D03*
X160529700Y-79564600D03*
X123864700Y-78546400D03*
%TO.N,/GPIO20*%
X121753400Y-79392500D03*
%TO.N,/GPIO21*%
X120981700Y-77908000D03*
%TO.N,/GPIO23*%
X132270300Y-75011100D03*
X118195300Y-75011100D03*
%TO.N,/F9*%
X128913100Y-71087500D03*
X148392000Y-88074900D03*
%TD*%
D16*
%TO.N,GND*%
X133152000Y-82989400D02*
X134312900Y-81828500D01*
X134312900Y-81828500D02*
X138748600Y-81828500D01*
X138748600Y-81828500D02*
X139909500Y-82989400D01*
X139909500Y-82989400D02*
X140772000Y-82989400D01*
X125532000Y-93784400D02*
X124262000Y-92514400D01*
X124262000Y-92514400D02*
X124262000Y-90821200D01*
X124262000Y-90821200D02*
X123540300Y-90099500D01*
X123540300Y-90099500D02*
X119056900Y-90099500D01*
X119056900Y-90099500D02*
X117912000Y-91244400D01*
X143312000Y-93784400D02*
X142042000Y-92514400D01*
X142042000Y-92514400D02*
X136962000Y-92514400D01*
X136962000Y-92514400D02*
X135692000Y-91244400D01*
X135692000Y-91244400D02*
X134422000Y-92514400D01*
X134422000Y-92514400D02*
X131882000Y-92514400D01*
X131882000Y-92514400D02*
X130612000Y-93784400D01*
X127634800Y-85092100D02*
X129342000Y-83384900D01*
X129342000Y-83384900D02*
X129342000Y-82637100D01*
X129342000Y-82637100D02*
X130155100Y-81824000D01*
X130155100Y-81824000D02*
X131096300Y-81824000D01*
X131096300Y-81824000D02*
X131490500Y-82218200D01*
X131490500Y-82218200D02*
X132380800Y-82218200D01*
X132380800Y-82218200D02*
X133152000Y-82989400D01*
X127634800Y-85092100D02*
X126802000Y-84259400D01*
X126802000Y-84259400D02*
X124262000Y-84259400D01*
X124262000Y-84259400D02*
X122992000Y-82989400D01*
X128072000Y-85529400D02*
X127634800Y-85092100D01*
X166172000Y-84301600D02*
X159864200Y-84301600D01*
X159864200Y-84301600D02*
X158552000Y-82989400D01*
X169607000Y-81977400D02*
X167282800Y-84301600D01*
X167282800Y-84301600D02*
X166172000Y-84301600D01*
X166172000Y-85529400D02*
X166172000Y-84301600D01*
X150932000Y-93784400D02*
X149788700Y-92641100D01*
X149788700Y-92641100D02*
X144455300Y-92641100D01*
X144455300Y-92641100D02*
X143312000Y-93784400D01*
X148392000Y-85529400D02*
X147122000Y-84259400D01*
X147122000Y-84259400D02*
X142042000Y-84259400D01*
X142042000Y-84259400D02*
X140772000Y-82989400D01*
X153472000Y-82989400D02*
X152202000Y-84259400D01*
X152202000Y-84259400D02*
X149662000Y-84259400D01*
X149662000Y-84259400D02*
X148392000Y-85529400D01*
%TO.N,3.3v*%
X170020700Y-65209400D02*
X169118200Y-64306900D01*
X169118200Y-64306900D02*
X160350200Y-64306900D01*
X160350200Y-64306900D02*
X157408600Y-67248500D01*
X157408600Y-67248500D02*
X157408600Y-67971300D01*
X157408600Y-67971300D02*
X153458200Y-71921700D01*
X153458200Y-71921700D02*
X151062500Y-71921700D01*
X151062500Y-71921700D02*
X147555400Y-75428800D01*
X147555400Y-75428800D02*
X136790000Y-75428800D01*
X136790000Y-75428800D02*
X136559800Y-75659000D01*
X145852000Y-91244400D02*
X145852000Y-90915800D01*
X145852000Y-90915800D02*
X143734800Y-88798600D01*
X143734800Y-88798600D02*
X138411100Y-88798600D01*
X138411100Y-88798600D02*
X138212500Y-88600000D01*
X119055300Y-85529400D02*
X119055300Y-85815200D01*
X119055300Y-85815200D02*
X121840100Y-88600000D01*
X121840100Y-88600000D02*
X138212500Y-88600000D01*
X117912000Y-85529400D02*
X119055300Y-85529400D01*
X166172000Y-91244400D02*
X166172000Y-90101100D01*
X166172000Y-90101100D02*
X169465000Y-86808100D01*
X169465000Y-86808100D02*
X169465000Y-84513400D01*
X171252000Y-65209400D02*
X170020700Y-65209400D01*
%TO.N,/5v*%
X117912000Y-82989400D02*
X116861200Y-81938600D01*
X116861200Y-81938600D02*
X116861200Y-72471400D01*
X116861200Y-72471400D02*
X119549200Y-69783400D01*
X119549200Y-69783400D02*
X119757200Y-69783400D01*
X119757200Y-69783400D02*
X120240900Y-69299700D01*
X120240900Y-69299700D02*
X120240900Y-68883700D01*
X120240900Y-68883700D02*
X138232000Y-50892600D01*
X138232000Y-50892600D02*
X138232000Y-47429400D01*
X120452000Y-82989400D02*
X117912000Y-82989400D01*
%TO.N,/RX*%
X121622400Y-81846000D02*
X121622400Y-83435800D01*
X121622400Y-83435800D02*
X120925400Y-84132800D01*
X120925400Y-84132800D02*
X117217800Y-84132800D01*
X117217800Y-84132800D02*
X116719700Y-84630900D01*
X116719700Y-84630900D02*
X116719700Y-91718400D01*
X116719700Y-91718400D02*
X117389100Y-92387800D01*
X117389100Y-92387800D02*
X120736100Y-92387800D01*
X120736100Y-92387800D02*
X121722000Y-93373700D01*
X121722000Y-93373700D02*
X121722000Y-94136400D01*
X121722000Y-94136400D02*
X123566800Y-95981200D01*
X123566800Y-95981200D02*
X156355200Y-95981200D01*
X156355200Y-95981200D02*
X158552000Y-93784400D01*
X119477000Y-71529400D02*
X117369500Y-73636900D01*
X117369500Y-73636900D02*
X117369500Y-78673300D01*
X117369500Y-78673300D02*
X120542200Y-81846000D01*
X120542200Y-81846000D02*
X121622400Y-81846000D01*
X125532000Y-82989400D02*
X124388600Y-81846000D01*
X124388600Y-81846000D02*
X121622400Y-81846000D01*
%TO.N,/TX*%
X157818700Y-80617600D02*
X156956400Y-79755300D01*
X156956400Y-79755300D02*
X141707000Y-79755300D01*
X141707000Y-79755300D02*
X141493600Y-79541900D01*
X141493600Y-79541900D02*
X125886400Y-79541900D01*
X125886400Y-79541900D02*
X125311000Y-80117300D01*
X125311000Y-80117300D02*
X125311000Y-80277100D01*
X125311000Y-80277100D02*
X125311000Y-80673600D01*
X125311000Y-80673600D02*
X127626800Y-82989400D01*
X127626800Y-82989400D02*
X128072000Y-82989400D01*
X119477000Y-76279400D02*
X118349100Y-77407300D01*
X118349100Y-77407300D02*
X118349100Y-78933900D01*
X118349100Y-78933900D02*
X119692300Y-80277100D01*
X119692300Y-80277100D02*
X125311000Y-80277100D01*
%TO.N,Net-(R1-Pad2)*%
X158552000Y-67749400D02*
X153871400Y-72430000D01*
X153871400Y-72430000D02*
X151632200Y-72430000D01*
X151632200Y-72430000D02*
X148125100Y-75937100D01*
X148125100Y-75937100D02*
X142233900Y-75937100D01*
X142233900Y-75937100D02*
X141686100Y-76484900D01*
X141686100Y-76484900D02*
X126571300Y-76484900D01*
X126571300Y-76484900D02*
X126444500Y-76358100D01*
X126444500Y-76358100D02*
X121354800Y-76358100D01*
X121354800Y-76358100D02*
X119477000Y-78235900D01*
X119477000Y-78235900D02*
X119477000Y-78329400D01*
%TO.N,Net-(R2-Pad2)*%
X156012000Y-67749400D02*
X152348000Y-71413400D01*
X152348000Y-71413400D02*
X150851900Y-71413400D01*
X150851900Y-71413400D02*
X148685900Y-73579400D01*
X148685900Y-73579400D02*
X119477000Y-73579400D01*
%TO.N,/MISO*%
X153472000Y-67749400D02*
X151774000Y-69447400D01*
X151774000Y-69447400D02*
X150808200Y-69447400D01*
X150808200Y-69447400D02*
X149144600Y-71111000D01*
X149144600Y-71111000D02*
X142968300Y-71111000D01*
X171252000Y-74138100D02*
X171713700Y-74138100D01*
X171713700Y-74138100D02*
X172491400Y-73360400D01*
X172491400Y-73360400D02*
X172491400Y-72320000D01*
X172491400Y-72320000D02*
X171730900Y-71559500D01*
X171730900Y-71559500D02*
X170726600Y-71559500D01*
X170726600Y-71559500D02*
X169970600Y-70803500D01*
X169970600Y-70803500D02*
X169970600Y-67242900D01*
X169970600Y-67242900D02*
X170734100Y-66479400D01*
X170734100Y-66479400D02*
X171827500Y-66479400D01*
X171827500Y-66479400D02*
X172536200Y-65770700D01*
X172536200Y-65770700D02*
X172536200Y-62207100D01*
X172536200Y-62207100D02*
X171728500Y-61399400D01*
X171728500Y-61399400D02*
X159822000Y-61399400D01*
X159822000Y-61399400D02*
X153472000Y-67749400D01*
X171252000Y-75369400D02*
X171252000Y-74138100D01*
%TO.N,/MOSI*%
X151451200Y-73896700D02*
X148585000Y-76762900D01*
X148585000Y-76762900D02*
X142757800Y-76762900D01*
X170020700Y-72829400D02*
X168953400Y-73896700D01*
X168953400Y-73896700D02*
X151451200Y-73896700D01*
X140772000Y-85529400D02*
X141915400Y-86672800D01*
X141915400Y-86672800D02*
X146807800Y-86672800D01*
X171252000Y-72829400D02*
X170020700Y-72829400D01*
%TO.N,/SCK*%
X143539900Y-89771600D02*
X139704800Y-89771600D01*
X139704800Y-89771600D02*
X138232000Y-91244400D01*
X171252000Y-70289400D02*
X171252000Y-69058100D01*
X171252000Y-69058100D02*
X171713700Y-69058100D01*
X171713700Y-69058100D02*
X173083200Y-67688600D01*
X173083200Y-67688600D02*
X173083200Y-55130900D01*
X173083200Y-55130900D02*
X171731700Y-53779400D01*
X171731700Y-53779400D02*
X162362000Y-53779400D01*
X162362000Y-53779400D02*
X148392000Y-67749400D01*
%TO.N,Net-(D1-Pad2)*%
X171657000Y-81977400D02*
X171515000Y-82119400D01*
X171515000Y-82119400D02*
X171515000Y-84513400D01*
%TO.N,/FRST*%
X122992000Y-67749400D02*
X127179400Y-71936800D01*
X127179400Y-71936800D02*
X149401100Y-71936800D01*
X149401100Y-71936800D02*
X150686900Y-70651000D01*
X150686900Y-70651000D02*
X152197100Y-70651000D01*
X152197100Y-70651000D02*
X154742000Y-68106100D01*
X154742000Y-68106100D02*
X154742000Y-67391500D01*
X154742000Y-67391500D02*
X159464100Y-62669400D01*
X159464100Y-62669400D02*
X171252000Y-62669400D01*
%TO.N,/A0*%
X133152000Y-67749400D02*
X144240900Y-56660500D01*
X144240900Y-56660500D02*
X153438600Y-56660500D01*
%TO.N,/A1*%
X135692000Y-67749400D02*
X137866700Y-69924100D01*
X137866700Y-69924100D02*
X148740500Y-69924100D01*
X148740500Y-69924100D02*
X149725600Y-68939000D01*
X149725600Y-68939000D02*
X151386900Y-68939000D01*
X151386900Y-68939000D02*
X152202000Y-68123900D01*
X152202000Y-68123900D02*
X152202000Y-67342100D01*
X152202000Y-67342100D02*
X161954700Y-57589400D01*
X161954700Y-57589400D02*
X171252000Y-57589400D01*
%TO.N,/A2*%
X171252000Y-55049400D02*
X162004100Y-55049400D01*
X162004100Y-55049400D02*
X149662000Y-67391500D01*
X149662000Y-67391500D02*
X149662000Y-68102800D01*
X149662000Y-68102800D02*
X148353600Y-69411200D01*
X148353600Y-69411200D02*
X139893800Y-69411200D01*
X139893800Y-69411200D02*
X138232000Y-67749400D01*
%TO.N,/A3*%
X140772000Y-67749400D02*
X141919100Y-68896500D01*
X141919100Y-68896500D02*
X146367700Y-68896500D01*
X146367700Y-68896500D02*
X147122000Y-68142200D01*
X147122000Y-68142200D02*
X147122000Y-67391500D01*
X147122000Y-67391500D02*
X162004100Y-52509400D01*
X162004100Y-52509400D02*
X171252000Y-52509400D01*
%TO.N,/A4*%
X171252000Y-49969400D02*
X170020700Y-49969400D01*
X170020700Y-49969400D02*
X168789400Y-51200700D01*
X168789400Y-51200700D02*
X160200600Y-51200700D01*
X160200600Y-51200700D02*
X143651900Y-67749400D01*
X143651900Y-67749400D02*
X143312000Y-67749400D01*
%TO.N,/A5*%
X145852000Y-67749400D02*
X161681800Y-51919600D01*
X161681800Y-51919600D02*
X170100500Y-51919600D01*
X170100500Y-51919600D02*
X170780700Y-51239400D01*
X170780700Y-51239400D02*
X171730800Y-51239400D01*
X171730800Y-51239400D02*
X172491400Y-50478800D01*
X172491400Y-50478800D02*
X172491400Y-49438400D01*
X172491400Y-49438400D02*
X171713700Y-48660700D01*
X171713700Y-48660700D02*
X171252000Y-48660700D01*
X171252000Y-47429400D02*
X171252000Y-48660700D01*
%TO.N,/GPIO4*%
X158552000Y-91244400D02*
X160213900Y-89582500D01*
X160213900Y-89582500D02*
X163742400Y-89582500D01*
X163742400Y-89582500D02*
X167875600Y-85449300D01*
X167875600Y-85449300D02*
X167875600Y-84427800D01*
X167875600Y-84427800D02*
X169237800Y-83065600D01*
X169237800Y-83065600D02*
X170243100Y-83065600D01*
X170243100Y-83065600D02*
X170632000Y-82676700D01*
X170632000Y-82676700D02*
X170632000Y-81262900D01*
X170632000Y-81262900D02*
X167091200Y-77722100D01*
X167091200Y-77722100D02*
X142549000Y-77722100D01*
X142549000Y-77722100D02*
X142010800Y-77183900D01*
X142010800Y-77183900D02*
X126102400Y-77183900D01*
%TO.N,/GPIO5*%
X131859900Y-81392300D02*
X131932100Y-81320100D01*
X131932100Y-81320100D02*
X139415900Y-81320100D01*
X139415900Y-81320100D02*
X139884400Y-81788600D01*
X139884400Y-81788600D02*
X153899100Y-81788600D01*
X153899100Y-81788600D02*
X154636600Y-82526100D01*
X154636600Y-82526100D02*
X154636600Y-84364800D01*
X154636600Y-84364800D02*
X153472000Y-85529400D01*
%TO.N,/GPIO6*%
X128072000Y-91244400D02*
X129342000Y-92514400D01*
X129342000Y-92514400D02*
X129342000Y-94173700D01*
X129342000Y-94173700D02*
X130123400Y-94955100D01*
X130123400Y-94955100D02*
X153956800Y-94955100D01*
X153956800Y-94955100D02*
X154615400Y-94296500D01*
X154615400Y-94296500D02*
X154615400Y-86926000D01*
X154615400Y-86926000D02*
X156012000Y-85529400D01*
X112832000Y-52509400D02*
X112832000Y-53740700D01*
X112832000Y-53740700D02*
X112370300Y-53740700D01*
X112370300Y-53740700D02*
X111582400Y-54528600D01*
X111582400Y-54528600D02*
X111582400Y-89073400D01*
X111582400Y-89073400D02*
X118486500Y-95977500D01*
X118486500Y-95977500D02*
X122080700Y-95977500D01*
%TO.N,/GPIO12*%
X129262600Y-80888100D02*
X129584200Y-80566500D01*
X129584200Y-80566500D02*
X139556000Y-80566500D01*
X139556000Y-80566500D02*
X140020800Y-81031300D01*
X140020800Y-81031300D02*
X154053900Y-81031300D01*
X154053900Y-81031300D02*
X156012000Y-82989400D01*
%TO.N,/GPIO13*%
X126228400Y-80367700D02*
X126538000Y-80058100D01*
X126538000Y-80058100D02*
X140931600Y-80058100D01*
X140931600Y-80058100D02*
X141137200Y-80263700D01*
X141137200Y-80263700D02*
X154917900Y-80263700D01*
X154917900Y-80263700D02*
X157282000Y-82627800D01*
X157282000Y-82627800D02*
X157282000Y-84259400D01*
X157282000Y-84259400D02*
X158552000Y-85529400D01*
%TO.N,/GPIO16*%
X112832000Y-60129400D02*
X124672500Y-60129400D01*
X124672500Y-60129400D02*
X136962000Y-47839900D01*
X136962000Y-47839900D02*
X136962000Y-47010200D01*
X136962000Y-47010200D02*
X137695400Y-46276800D01*
X137695400Y-46276800D02*
X138758300Y-46276800D01*
X138758300Y-46276800D02*
X139502000Y-47020500D01*
X139502000Y-47020500D02*
X139502000Y-47796700D01*
X139502000Y-47796700D02*
X140278100Y-48572800D01*
X140278100Y-48572800D02*
X147663900Y-48572800D01*
X147663900Y-48572800D02*
X152640600Y-53549500D01*
%TO.N,/GPIO18*%
X112832000Y-63900700D02*
X113460800Y-63900700D01*
X113460800Y-63900700D02*
X118517700Y-68957600D01*
X118517700Y-68957600D02*
X119415100Y-68957600D01*
X112832000Y-62669400D02*
X112832000Y-63900700D01*
X133340500Y-87130000D02*
X133110500Y-87130000D01*
X133110500Y-87130000D02*
X131882000Y-85901500D01*
X131882000Y-85901500D02*
X131882000Y-84259400D01*
X131882000Y-84259400D02*
X130612000Y-82989400D01*
%TO.N,/GPIO19*%
X160529700Y-79564600D02*
X159703800Y-78738700D01*
X159703800Y-78738700D02*
X142128000Y-78738700D01*
X142128000Y-78738700D02*
X141907400Y-78518100D01*
X141907400Y-78518100D02*
X123893000Y-78518100D01*
X123893000Y-78518100D02*
X123864700Y-78546400D01*
X112832000Y-66440700D02*
X113293700Y-66440700D01*
X113293700Y-66440700D02*
X115397500Y-68544500D01*
X115397500Y-68544500D02*
X115397500Y-87385800D01*
X112832000Y-65209400D02*
X112832000Y-66440700D01*
%TO.N,/GPIO20*%
X163632000Y-82989400D02*
X162786700Y-82989400D01*
X162786700Y-82989400D02*
X159044300Y-79247000D01*
X159044300Y-79247000D02*
X141917500Y-79247000D01*
X141917500Y-79247000D02*
X141704100Y-79033600D01*
X141704100Y-79033600D02*
X125675900Y-79033600D01*
X125675900Y-79033600D02*
X125317000Y-79392500D01*
X125317000Y-79392500D02*
X121753400Y-79392500D01*
%TO.N,/GPIO21*%
X166172000Y-82989400D02*
X161413000Y-78230400D01*
X161413000Y-78230400D02*
X142338500Y-78230400D01*
X142338500Y-78230400D02*
X142117900Y-78009800D01*
X142117900Y-78009800D02*
X125674300Y-78009800D01*
X125674300Y-78009800D02*
X125365900Y-77701400D01*
X125365900Y-77701400D02*
X121188300Y-77701400D01*
X121188300Y-77701400D02*
X120981700Y-77908000D01*
X117912000Y-93784400D02*
X114273800Y-90146200D01*
X114273800Y-90146200D02*
X114273800Y-72500600D01*
X114273800Y-72500600D02*
X113293900Y-71520700D01*
X113293900Y-71520700D02*
X112832000Y-71520700D01*
X112832000Y-70289400D02*
X112832000Y-71520700D01*
%TO.N,/GPIO23*%
X118195300Y-75011100D02*
X132270300Y-75011100D01*
%TO.N,/GPIO26*%
X120452000Y-91244400D02*
X121848600Y-92641000D01*
X121848600Y-92641000D02*
X123465400Y-92641000D01*
X123465400Y-92641000D02*
X124262000Y-93437600D01*
X124262000Y-93437600D02*
X124262000Y-94134800D01*
X124262000Y-94134800D02*
X125590700Y-95463500D01*
X125590700Y-95463500D02*
X155979100Y-95463500D01*
X155979100Y-95463500D02*
X157282000Y-94160600D01*
X157282000Y-94160600D02*
X157282000Y-90850300D01*
X157282000Y-90850300D02*
X160123700Y-88008600D01*
X160123700Y-88008600D02*
X161152800Y-88008600D01*
X161152800Y-88008600D02*
X163632000Y-85529400D01*
%TO.N,/F5*%
X153472000Y-91244400D02*
X152307900Y-92408500D01*
X152307900Y-92408500D02*
X150467400Y-92408500D01*
X150467400Y-92408500D02*
X149662000Y-91603100D01*
X149662000Y-91603100D02*
X149662000Y-90896400D01*
X149662000Y-90896400D02*
X148861100Y-90095500D01*
X148861100Y-90095500D02*
X145750500Y-90095500D01*
X145750500Y-90095500D02*
X143905700Y-88250700D01*
X143905700Y-88250700D02*
X139031100Y-88250700D01*
X139031100Y-88250700D02*
X138554600Y-87774200D01*
X138554600Y-87774200D02*
X137870500Y-87774200D01*
X137870500Y-87774200D02*
X137647200Y-87997500D01*
X137647200Y-87997500D02*
X133040200Y-87997500D01*
X133040200Y-87997500D02*
X130612000Y-85569300D01*
X130612000Y-85569300D02*
X130612000Y-85529400D01*
%TO.N,/F6*%
X150932000Y-91244400D02*
X148588300Y-88900700D01*
X148588300Y-88900700D02*
X146586400Y-88900700D01*
X146586400Y-88900700D02*
X145428100Y-87742400D01*
X145428100Y-87742400D02*
X139241600Y-87742400D01*
X139241600Y-87742400D02*
X138765100Y-87265900D01*
X138765100Y-87265900D02*
X134888500Y-87265900D01*
X134888500Y-87265900D02*
X133152000Y-85529400D01*
%TO.N,/F9*%
X128913100Y-71087500D02*
X131882000Y-68118600D01*
X131882000Y-68118600D02*
X131882000Y-67362300D01*
X131882000Y-67362300D02*
X143409700Y-55834600D01*
X143409700Y-55834600D02*
X151523500Y-55834600D01*
X151523500Y-55834600D02*
X153487200Y-53870900D01*
X153487200Y-53870900D02*
X153487200Y-49984600D01*
X153487200Y-49984600D02*
X150932000Y-47429400D01*
X148392000Y-88074900D02*
X146928300Y-88074900D01*
X146928300Y-88074900D02*
X146034600Y-87181200D01*
X146034600Y-87181200D02*
X139399200Y-87181200D01*
X139399200Y-87181200D02*
X138975600Y-86757600D01*
X138975600Y-86757600D02*
X136920200Y-86757600D01*
X136920200Y-86757600D02*
X135692000Y-85529400D01*
%TD*%
%TO.N,GND*%
G36*
X170305368Y-73982875D02*
G01*
X170479760Y-74099400D01*
X170305368Y-74215925D01*
X170098525Y-74422768D01*
X169936010Y-74665989D01*
X169824068Y-74936242D01*
X169767000Y-75223140D01*
X169767000Y-75515660D01*
X169824068Y-75802558D01*
X169936010Y-76072811D01*
X170098525Y-76316032D01*
X170305368Y-76522875D01*
X170548589Y-76685390D01*
X170818842Y-76797332D01*
X171105740Y-76854400D01*
X171398260Y-76854400D01*
X171685158Y-76797332D01*
X171955411Y-76685390D01*
X172198632Y-76522875D01*
X172405475Y-76316032D01*
X172567990Y-76072811D01*
X172679932Y-75802558D01*
X172737000Y-75515660D01*
X172737000Y-75223140D01*
X172679932Y-74936242D01*
X172567990Y-74665989D01*
X172446005Y-74483425D01*
X173003753Y-73925678D01*
X173032822Y-73901822D01*
X173081880Y-73842044D01*
X173081880Y-86764544D01*
X173081881Y-95654690D01*
X173067875Y-95797529D01*
X173036479Y-95901519D01*
X172985481Y-95997433D01*
X172916821Y-96081619D01*
X172833123Y-96150859D01*
X172737569Y-96202525D01*
X172633802Y-96234647D01*
X172493239Y-96249420D01*
X157164610Y-96249420D01*
X158262789Y-95151241D01*
X158414408Y-95181400D01*
X158689592Y-95181400D01*
X158959490Y-95127714D01*
X159213727Y-95022405D01*
X159442535Y-94869520D01*
X159562090Y-94749965D01*
X160306040Y-94749965D01*
X160373020Y-94990056D01*
X160622048Y-95107156D01*
X160889135Y-95173423D01*
X161164017Y-95186310D01*
X161436133Y-95145322D01*
X161695023Y-95052036D01*
X161810980Y-94990056D01*
X161877960Y-94749965D01*
X161092000Y-93964005D01*
X160306040Y-94749965D01*
X159562090Y-94749965D01*
X159637120Y-94674935D01*
X159790005Y-94446127D01*
X159819692Y-94374457D01*
X159824364Y-94387423D01*
X159886344Y-94503380D01*
X160126435Y-94570360D01*
X160912395Y-93784400D01*
X160126435Y-92998440D01*
X159886344Y-93065420D01*
X159822515Y-93201160D01*
X159790005Y-93122673D01*
X159637120Y-92893865D01*
X159442535Y-92699280D01*
X159213727Y-92546395D01*
X159136485Y-92514400D01*
X159213727Y-92482405D01*
X159442535Y-92329520D01*
X159637120Y-92134935D01*
X159790005Y-91906127D01*
X159822000Y-91828885D01*
X159853995Y-91906127D01*
X160006880Y-92134935D01*
X160201465Y-92329520D01*
X160430273Y-92482405D01*
X160501943Y-92512092D01*
X160488977Y-92516764D01*
X160373020Y-92578744D01*
X160306040Y-92818835D01*
X161092000Y-93604795D01*
X161877960Y-92818835D01*
X161810980Y-92578744D01*
X161675240Y-92514915D01*
X161753727Y-92482405D01*
X161982535Y-92329520D01*
X162177120Y-92134935D01*
X162330005Y-91906127D01*
X162362000Y-91828885D01*
X162393995Y-91906127D01*
X162546880Y-92134935D01*
X162741465Y-92329520D01*
X162970273Y-92482405D01*
X163047515Y-92514400D01*
X162970273Y-92546395D01*
X162741465Y-92699280D01*
X162546880Y-92893865D01*
X162393995Y-93122673D01*
X162364308Y-93194343D01*
X162359636Y-93181377D01*
X162297656Y-93065420D01*
X162057565Y-92998440D01*
X161271605Y-93784400D01*
X162057565Y-94570360D01*
X162297656Y-94503380D01*
X162361485Y-94367640D01*
X162393995Y-94446127D01*
X162546880Y-94674935D01*
X162741465Y-94869520D01*
X162970273Y-95022405D01*
X163224510Y-95127714D01*
X163494408Y-95181400D01*
X163769592Y-95181400D01*
X164039490Y-95127714D01*
X164293727Y-95022405D01*
X164522535Y-94869520D01*
X164717120Y-94674935D01*
X164870005Y-94446127D01*
X164902000Y-94368885D01*
X164933995Y-94446127D01*
X165086880Y-94674935D01*
X165281465Y-94869520D01*
X165510273Y-95022405D01*
X165764510Y-95127714D01*
X166034408Y-95181400D01*
X166309592Y-95181400D01*
X166579490Y-95127714D01*
X166833727Y-95022405D01*
X167062535Y-94869520D01*
X167257120Y-94674935D01*
X167410005Y-94446127D01*
X167491858Y-94248517D01*
X169517000Y-94248517D01*
X169517000Y-94590283D01*
X169583675Y-94925481D01*
X169714463Y-95241231D01*
X169904337Y-95525398D01*
X170146002Y-95767063D01*
X170430169Y-95956937D01*
X170745919Y-96087725D01*
X171081117Y-96154400D01*
X171422883Y-96154400D01*
X171758081Y-96087725D01*
X172073831Y-95956937D01*
X172357998Y-95767063D01*
X172599663Y-95525398D01*
X172789537Y-95241231D01*
X172920325Y-94925481D01*
X172987000Y-94590283D01*
X172987000Y-94248517D01*
X172920325Y-93913319D01*
X172789537Y-93597569D01*
X172599663Y-93313402D01*
X172357998Y-93071737D01*
X172073831Y-92881863D01*
X171758081Y-92751075D01*
X171422883Y-92684400D01*
X171081117Y-92684400D01*
X170745919Y-92751075D01*
X170430169Y-92881863D01*
X170146002Y-93071737D01*
X169904337Y-93313402D01*
X169714463Y-93597569D01*
X169583675Y-93913319D01*
X169517000Y-94248517D01*
X167491858Y-94248517D01*
X167515314Y-94191890D01*
X167569000Y-93921992D01*
X167569000Y-93646808D01*
X167515314Y-93376910D01*
X167410005Y-93122673D01*
X167257120Y-92893865D01*
X167062535Y-92699280D01*
X166974535Y-92640480D01*
X167058482Y-92632212D01*
X167178180Y-92595902D01*
X167288494Y-92536937D01*
X167385185Y-92457585D01*
X167464537Y-92360894D01*
X167523502Y-92250580D01*
X167559812Y-92130882D01*
X167572072Y-92006400D01*
X167572072Y-90482400D01*
X167559812Y-90357918D01*
X167523502Y-90238220D01*
X167464537Y-90127906D01*
X167385185Y-90031215D01*
X167349116Y-90001614D01*
X169977353Y-87373378D01*
X170006422Y-87349522D01*
X170101645Y-87233492D01*
X170172402Y-87101115D01*
X170215974Y-86957478D01*
X170227000Y-86845526D01*
X170227000Y-86845524D01*
X170230686Y-86808101D01*
X170227000Y-86770678D01*
X170227000Y-85731945D01*
X170283387Y-85701805D01*
X170417962Y-85591362D01*
X170490000Y-85503584D01*
X170562038Y-85591362D01*
X170696613Y-85701805D01*
X170850149Y-85783872D01*
X171016745Y-85834408D01*
X171189999Y-85851472D01*
X171840001Y-85851472D01*
X172013255Y-85834408D01*
X172179851Y-85783872D01*
X172333387Y-85701805D01*
X172467962Y-85591362D01*
X172578405Y-85456787D01*
X172660472Y-85303251D01*
X172711008Y-85136655D01*
X172728072Y-84963401D01*
X172728072Y-84063399D01*
X172711008Y-83890145D01*
X172660472Y-83723549D01*
X172578405Y-83570013D01*
X172467962Y-83435438D01*
X172333387Y-83324995D01*
X172277000Y-83294855D01*
X172277000Y-83261477D01*
X172321851Y-83247872D01*
X172475387Y-83165805D01*
X172609962Y-83055362D01*
X172720405Y-82920787D01*
X172802472Y-82767251D01*
X172853008Y-82600655D01*
X172870072Y-82427401D01*
X172870072Y-81527399D01*
X172853008Y-81354145D01*
X172802472Y-81187549D01*
X172720405Y-81034013D01*
X172609962Y-80899438D01*
X172475387Y-80788995D01*
X172321851Y-80706928D01*
X172155255Y-80656392D01*
X171982001Y-80639328D01*
X171331999Y-80639328D01*
X171158745Y-80656392D01*
X171116069Y-80669338D01*
X167656484Y-77209754D01*
X167632622Y-77180678D01*
X167516592Y-77085455D01*
X167384215Y-77014698D01*
X167240578Y-76971126D01*
X167128626Y-76960100D01*
X167128623Y-76960100D01*
X167091200Y-76956414D01*
X167053777Y-76960100D01*
X149465430Y-76960100D01*
X151449331Y-74976200D01*
X151557521Y-74976200D01*
X151766078Y-74934715D01*
X151962535Y-74853340D01*
X152139341Y-74735202D01*
X152215843Y-74658700D01*
X168915977Y-74658700D01*
X168953400Y-74662386D01*
X168990823Y-74658700D01*
X168990826Y-74658700D01*
X169102778Y-74647674D01*
X169246415Y-74604102D01*
X169378792Y-74533345D01*
X169494822Y-74438122D01*
X169518684Y-74409046D01*
X170125112Y-73802619D01*
X170305368Y-73982875D01*
G37*
X170305368Y-73982875D02*
X170479760Y-74099400D01*
X170305368Y-74215925D01*
X170098525Y-74422768D01*
X169936010Y-74665989D01*
X169824068Y-74936242D01*
X169767000Y-75223140D01*
X169767000Y-75515660D01*
X169824068Y-75802558D01*
X169936010Y-76072811D01*
X170098525Y-76316032D01*
X170305368Y-76522875D01*
X170548589Y-76685390D01*
X170818842Y-76797332D01*
X171105740Y-76854400D01*
X171398260Y-76854400D01*
X171685158Y-76797332D01*
X171955411Y-76685390D01*
X172198632Y-76522875D01*
X172405475Y-76316032D01*
X172567990Y-76072811D01*
X172679932Y-75802558D01*
X172737000Y-75515660D01*
X172737000Y-75223140D01*
X172679932Y-74936242D01*
X172567990Y-74665989D01*
X172446005Y-74483425D01*
X173003753Y-73925678D01*
X173032822Y-73901822D01*
X173081880Y-73842044D01*
X173081880Y-86764544D01*
X173081881Y-95654690D01*
X173067875Y-95797529D01*
X173036479Y-95901519D01*
X172985481Y-95997433D01*
X172916821Y-96081619D01*
X172833123Y-96150859D01*
X172737569Y-96202525D01*
X172633802Y-96234647D01*
X172493239Y-96249420D01*
X157164610Y-96249420D01*
X158262789Y-95151241D01*
X158414408Y-95181400D01*
X158689592Y-95181400D01*
X158959490Y-95127714D01*
X159213727Y-95022405D01*
X159442535Y-94869520D01*
X159562090Y-94749965D01*
X160306040Y-94749965D01*
X160373020Y-94990056D01*
X160622048Y-95107156D01*
X160889135Y-95173423D01*
X161164017Y-95186310D01*
X161436133Y-95145322D01*
X161695023Y-95052036D01*
X161810980Y-94990056D01*
X161877960Y-94749965D01*
X161092000Y-93964005D01*
X160306040Y-94749965D01*
X159562090Y-94749965D01*
X159637120Y-94674935D01*
X159790005Y-94446127D01*
X159819692Y-94374457D01*
X159824364Y-94387423D01*
X159886344Y-94503380D01*
X160126435Y-94570360D01*
X160912395Y-93784400D01*
X160126435Y-92998440D01*
X159886344Y-93065420D01*
X159822515Y-93201160D01*
X159790005Y-93122673D01*
X159637120Y-92893865D01*
X159442535Y-92699280D01*
X159213727Y-92546395D01*
X159136485Y-92514400D01*
X159213727Y-92482405D01*
X159442535Y-92329520D01*
X159637120Y-92134935D01*
X159790005Y-91906127D01*
X159822000Y-91828885D01*
X159853995Y-91906127D01*
X160006880Y-92134935D01*
X160201465Y-92329520D01*
X160430273Y-92482405D01*
X160501943Y-92512092D01*
X160488977Y-92516764D01*
X160373020Y-92578744D01*
X160306040Y-92818835D01*
X161092000Y-93604795D01*
X161877960Y-92818835D01*
X161810980Y-92578744D01*
X161675240Y-92514915D01*
X161753727Y-92482405D01*
X161982535Y-92329520D01*
X162177120Y-92134935D01*
X162330005Y-91906127D01*
X162362000Y-91828885D01*
X162393995Y-91906127D01*
X162546880Y-92134935D01*
X162741465Y-92329520D01*
X162970273Y-92482405D01*
X163047515Y-92514400D01*
X162970273Y-92546395D01*
X162741465Y-92699280D01*
X162546880Y-92893865D01*
X162393995Y-93122673D01*
X162364308Y-93194343D01*
X162359636Y-93181377D01*
X162297656Y-93065420D01*
X162057565Y-92998440D01*
X161271605Y-93784400D01*
X162057565Y-94570360D01*
X162297656Y-94503380D01*
X162361485Y-94367640D01*
X162393995Y-94446127D01*
X162546880Y-94674935D01*
X162741465Y-94869520D01*
X162970273Y-95022405D01*
X163224510Y-95127714D01*
X163494408Y-95181400D01*
X163769592Y-95181400D01*
X164039490Y-95127714D01*
X164293727Y-95022405D01*
X164522535Y-94869520D01*
X164717120Y-94674935D01*
X164870005Y-94446127D01*
X164902000Y-94368885D01*
X164933995Y-94446127D01*
X165086880Y-94674935D01*
X165281465Y-94869520D01*
X165510273Y-95022405D01*
X165764510Y-95127714D01*
X166034408Y-95181400D01*
X166309592Y-95181400D01*
X166579490Y-95127714D01*
X166833727Y-95022405D01*
X167062535Y-94869520D01*
X167257120Y-94674935D01*
X167410005Y-94446127D01*
X167491858Y-94248517D01*
X169517000Y-94248517D01*
X169517000Y-94590283D01*
X169583675Y-94925481D01*
X169714463Y-95241231D01*
X169904337Y-95525398D01*
X170146002Y-95767063D01*
X170430169Y-95956937D01*
X170745919Y-96087725D01*
X171081117Y-96154400D01*
X171422883Y-96154400D01*
X171758081Y-96087725D01*
X172073831Y-95956937D01*
X172357998Y-95767063D01*
X172599663Y-95525398D01*
X172789537Y-95241231D01*
X172920325Y-94925481D01*
X172987000Y-94590283D01*
X172987000Y-94248517D01*
X172920325Y-93913319D01*
X172789537Y-93597569D01*
X172599663Y-93313402D01*
X172357998Y-93071737D01*
X172073831Y-92881863D01*
X171758081Y-92751075D01*
X171422883Y-92684400D01*
X171081117Y-92684400D01*
X170745919Y-92751075D01*
X170430169Y-92881863D01*
X170146002Y-93071737D01*
X169904337Y-93313402D01*
X169714463Y-93597569D01*
X169583675Y-93913319D01*
X169517000Y-94248517D01*
X167491858Y-94248517D01*
X167515314Y-94191890D01*
X167569000Y-93921992D01*
X167569000Y-93646808D01*
X167515314Y-93376910D01*
X167410005Y-93122673D01*
X167257120Y-92893865D01*
X167062535Y-92699280D01*
X166974535Y-92640480D01*
X167058482Y-92632212D01*
X167178180Y-92595902D01*
X167288494Y-92536937D01*
X167385185Y-92457585D01*
X167464537Y-92360894D01*
X167523502Y-92250580D01*
X167559812Y-92130882D01*
X167572072Y-92006400D01*
X167572072Y-90482400D01*
X167559812Y-90357918D01*
X167523502Y-90238220D01*
X167464537Y-90127906D01*
X167385185Y-90031215D01*
X167349116Y-90001614D01*
X169977353Y-87373378D01*
X170006422Y-87349522D01*
X170101645Y-87233492D01*
X170172402Y-87101115D01*
X170215974Y-86957478D01*
X170227000Y-86845526D01*
X170227000Y-86845524D01*
X170230686Y-86808101D01*
X170227000Y-86770678D01*
X170227000Y-85731945D01*
X170283387Y-85701805D01*
X170417962Y-85591362D01*
X170490000Y-85503584D01*
X170562038Y-85591362D01*
X170696613Y-85701805D01*
X170850149Y-85783872D01*
X171016745Y-85834408D01*
X171189999Y-85851472D01*
X171840001Y-85851472D01*
X172013255Y-85834408D01*
X172179851Y-85783872D01*
X172333387Y-85701805D01*
X172467962Y-85591362D01*
X172578405Y-85456787D01*
X172660472Y-85303251D01*
X172711008Y-85136655D01*
X172728072Y-84963401D01*
X172728072Y-84063399D01*
X172711008Y-83890145D01*
X172660472Y-83723549D01*
X172578405Y-83570013D01*
X172467962Y-83435438D01*
X172333387Y-83324995D01*
X172277000Y-83294855D01*
X172277000Y-83261477D01*
X172321851Y-83247872D01*
X172475387Y-83165805D01*
X172609962Y-83055362D01*
X172720405Y-82920787D01*
X172802472Y-82767251D01*
X172853008Y-82600655D01*
X172870072Y-82427401D01*
X172870072Y-81527399D01*
X172853008Y-81354145D01*
X172802472Y-81187549D01*
X172720405Y-81034013D01*
X172609962Y-80899438D01*
X172475387Y-80788995D01*
X172321851Y-80706928D01*
X172155255Y-80656392D01*
X171982001Y-80639328D01*
X171331999Y-80639328D01*
X171158745Y-80656392D01*
X171116069Y-80669338D01*
X167656484Y-77209754D01*
X167632622Y-77180678D01*
X167516592Y-77085455D01*
X167384215Y-77014698D01*
X167240578Y-76971126D01*
X167128626Y-76960100D01*
X167128623Y-76960100D01*
X167091200Y-76956414D01*
X167053777Y-76960100D01*
X149465430Y-76960100D01*
X151449331Y-74976200D01*
X151557521Y-74976200D01*
X151766078Y-74934715D01*
X151962535Y-74853340D01*
X152139341Y-74735202D01*
X152215843Y-74658700D01*
X168915977Y-74658700D01*
X168953400Y-74662386D01*
X168990823Y-74658700D01*
X168990826Y-74658700D01*
X169102778Y-74647674D01*
X169246415Y-74604102D01*
X169378792Y-74533345D01*
X169494822Y-74438122D01*
X169518684Y-74409046D01*
X170125112Y-73802619D01*
X170305368Y-73982875D01*
G36*
X151125748Y-93770258D02*
G01*
X151111605Y-93784400D01*
X151125748Y-93798543D01*
X150946143Y-93978148D01*
X150932000Y-93964005D01*
X150917858Y-93978148D01*
X150738253Y-93798543D01*
X150752395Y-93784400D01*
X150738253Y-93770258D01*
X150917858Y-93590653D01*
X150932000Y-93604795D01*
X150946143Y-93590653D01*
X151125748Y-93770258D01*
G37*
X151125748Y-93770258D02*
X151111605Y-93784400D01*
X151125748Y-93798543D01*
X150946143Y-93978148D01*
X150932000Y-93964005D01*
X150917858Y-93978148D01*
X150738253Y-93798543D01*
X150752395Y-93784400D01*
X150738253Y-93770258D01*
X150917858Y-93590653D01*
X150932000Y-93604795D01*
X150946143Y-93590653D01*
X151125748Y-93770258D01*
G36*
X144613995Y-91906127D02*
G01*
X144766880Y-92134935D01*
X144961465Y-92329520D01*
X145190273Y-92482405D01*
X145267515Y-92514400D01*
X145190273Y-92546395D01*
X144961465Y-92699280D01*
X144766880Y-92893865D01*
X144613995Y-93122673D01*
X144584308Y-93194343D01*
X144579636Y-93181377D01*
X144517656Y-93065420D01*
X144277565Y-92998440D01*
X143491605Y-93784400D01*
X143505748Y-93798543D01*
X143326143Y-93978148D01*
X143312000Y-93964005D01*
X143297858Y-93978148D01*
X143118253Y-93798543D01*
X143132395Y-93784400D01*
X142346435Y-92998440D01*
X142106344Y-93065420D01*
X142042515Y-93201160D01*
X142010005Y-93122673D01*
X141857120Y-92893865D01*
X141662535Y-92699280D01*
X141433727Y-92546395D01*
X141356485Y-92514400D01*
X141433727Y-92482405D01*
X141662535Y-92329520D01*
X141857120Y-92134935D01*
X142010005Y-91906127D01*
X142042000Y-91828885D01*
X142073995Y-91906127D01*
X142226880Y-92134935D01*
X142421465Y-92329520D01*
X142650273Y-92482405D01*
X142721943Y-92512092D01*
X142708977Y-92516764D01*
X142593020Y-92578744D01*
X142526040Y-92818835D01*
X143312000Y-93604795D01*
X144097960Y-92818835D01*
X144030980Y-92578744D01*
X143895240Y-92514915D01*
X143973727Y-92482405D01*
X144202535Y-92329520D01*
X144397120Y-92134935D01*
X144550005Y-91906127D01*
X144582000Y-91828885D01*
X144613995Y-91906127D01*
G37*
X144613995Y-91906127D02*
X144766880Y-92134935D01*
X144961465Y-92329520D01*
X145190273Y-92482405D01*
X145267515Y-92514400D01*
X145190273Y-92546395D01*
X144961465Y-92699280D01*
X144766880Y-92893865D01*
X144613995Y-93122673D01*
X144584308Y-93194343D01*
X144579636Y-93181377D01*
X144517656Y-93065420D01*
X144277565Y-92998440D01*
X143491605Y-93784400D01*
X143505748Y-93798543D01*
X143326143Y-93978148D01*
X143312000Y-93964005D01*
X143297858Y-93978148D01*
X143118253Y-93798543D01*
X143132395Y-93784400D01*
X142346435Y-92998440D01*
X142106344Y-93065420D01*
X142042515Y-93201160D01*
X142010005Y-93122673D01*
X141857120Y-92893865D01*
X141662535Y-92699280D01*
X141433727Y-92546395D01*
X141356485Y-92514400D01*
X141433727Y-92482405D01*
X141662535Y-92329520D01*
X141857120Y-92134935D01*
X142010005Y-91906127D01*
X142042000Y-91828885D01*
X142073995Y-91906127D01*
X142226880Y-92134935D01*
X142421465Y-92329520D01*
X142650273Y-92482405D01*
X142721943Y-92512092D01*
X142708977Y-92516764D01*
X142593020Y-92578744D01*
X142526040Y-92818835D01*
X143312000Y-93604795D01*
X144097960Y-92818835D01*
X144030980Y-92578744D01*
X143895240Y-92514915D01*
X143973727Y-92482405D01*
X144202535Y-92329520D01*
X144397120Y-92134935D01*
X144550005Y-91906127D01*
X144582000Y-91828885D01*
X144613995Y-91906127D01*
G36*
X131913995Y-91906127D02*
G01*
X132066880Y-92134935D01*
X132261465Y-92329520D01*
X132490273Y-92482405D01*
X132567515Y-92514400D01*
X132490273Y-92546395D01*
X132261465Y-92699280D01*
X132066880Y-92893865D01*
X131913995Y-93122673D01*
X131884308Y-93194343D01*
X131879636Y-93181377D01*
X131817656Y-93065420D01*
X131577565Y-92998440D01*
X130791605Y-93784400D01*
X130805748Y-93798543D01*
X130626143Y-93978148D01*
X130612000Y-93964005D01*
X130597858Y-93978148D01*
X130418253Y-93798543D01*
X130432395Y-93784400D01*
X130418253Y-93770258D01*
X130597858Y-93590653D01*
X130612000Y-93604795D01*
X131397960Y-92818835D01*
X131330980Y-92578744D01*
X131195240Y-92514915D01*
X131273727Y-92482405D01*
X131502535Y-92329520D01*
X131697120Y-92134935D01*
X131850005Y-91906127D01*
X131882000Y-91828885D01*
X131913995Y-91906127D01*
G37*
X131913995Y-91906127D02*
X132066880Y-92134935D01*
X132261465Y-92329520D01*
X132490273Y-92482405D01*
X132567515Y-92514400D01*
X132490273Y-92546395D01*
X132261465Y-92699280D01*
X132066880Y-92893865D01*
X131913995Y-93122673D01*
X131884308Y-93194343D01*
X131879636Y-93181377D01*
X131817656Y-93065420D01*
X131577565Y-92998440D01*
X130791605Y-93784400D01*
X130805748Y-93798543D01*
X130626143Y-93978148D01*
X130612000Y-93964005D01*
X130597858Y-93978148D01*
X130418253Y-93798543D01*
X130432395Y-93784400D01*
X130418253Y-93770258D01*
X130597858Y-93590653D01*
X130612000Y-93604795D01*
X131397960Y-92818835D01*
X131330980Y-92578744D01*
X131195240Y-92514915D01*
X131273727Y-92482405D01*
X131502535Y-92329520D01*
X131697120Y-92134935D01*
X131850005Y-91906127D01*
X131882000Y-91828885D01*
X131913995Y-91906127D01*
G36*
X126833995Y-91906127D02*
G01*
X126986880Y-92134935D01*
X127181465Y-92329520D01*
X127410273Y-92482405D01*
X127487515Y-92514400D01*
X127410273Y-92546395D01*
X127181465Y-92699280D01*
X126986880Y-92893865D01*
X126833995Y-93122673D01*
X126804308Y-93194343D01*
X126799636Y-93181377D01*
X126737656Y-93065420D01*
X126497565Y-92998440D01*
X125711605Y-93784400D01*
X125725748Y-93798543D01*
X125546143Y-93978148D01*
X125532000Y-93964005D01*
X125517858Y-93978148D01*
X125338253Y-93798543D01*
X125352395Y-93784400D01*
X125338253Y-93770258D01*
X125517858Y-93590653D01*
X125532000Y-93604795D01*
X126317960Y-92818835D01*
X126250980Y-92578744D01*
X126115240Y-92514915D01*
X126193727Y-92482405D01*
X126422535Y-92329520D01*
X126617120Y-92134935D01*
X126770005Y-91906127D01*
X126802000Y-91828885D01*
X126833995Y-91906127D01*
G37*
X126833995Y-91906127D02*
X126986880Y-92134935D01*
X127181465Y-92329520D01*
X127410273Y-92482405D01*
X127487515Y-92514400D01*
X127410273Y-92546395D01*
X127181465Y-92699280D01*
X126986880Y-92893865D01*
X126833995Y-93122673D01*
X126804308Y-93194343D01*
X126799636Y-93181377D01*
X126737656Y-93065420D01*
X126497565Y-92998440D01*
X125711605Y-93784400D01*
X125725748Y-93798543D01*
X125546143Y-93978148D01*
X125532000Y-93964005D01*
X125517858Y-93978148D01*
X125338253Y-93798543D01*
X125352395Y-93784400D01*
X125338253Y-93770258D01*
X125517858Y-93590653D01*
X125532000Y-93604795D01*
X126317960Y-92818835D01*
X126250980Y-92578744D01*
X126115240Y-92514915D01*
X126193727Y-92482405D01*
X126422535Y-92329520D01*
X126617120Y-92134935D01*
X126770005Y-91906127D01*
X126802000Y-91828885D01*
X126833995Y-91906127D01*
G36*
X149856662Y-92875392D02*
G01*
X149850023Y-92882031D01*
X149966433Y-92998441D01*
X149726344Y-93065420D01*
X149662515Y-93201160D01*
X149630005Y-93122673D01*
X149477120Y-92893865D01*
X149282535Y-92699280D01*
X149053727Y-92546395D01*
X148976485Y-92514400D01*
X149053727Y-92482405D01*
X149282535Y-92329520D01*
X149296663Y-92315393D01*
X149856662Y-92875392D01*
G37*
X149856662Y-92875392D02*
X149850023Y-92882031D01*
X149966433Y-92998441D01*
X149726344Y-93065420D01*
X149662515Y-93201160D01*
X149630005Y-93122673D01*
X149477120Y-92893865D01*
X149282535Y-92699280D01*
X149053727Y-92546395D01*
X148976485Y-92514400D01*
X149053727Y-92482405D01*
X149282535Y-92329520D01*
X149296663Y-92315393D01*
X149856662Y-92875392D01*
G36*
X121274820Y-89112351D02*
G01*
X121298678Y-89141422D01*
X121327748Y-89165279D01*
X121414707Y-89236645D01*
X121458898Y-89260265D01*
X121547085Y-89307402D01*
X121690722Y-89350974D01*
X121802674Y-89362000D01*
X121802677Y-89362000D01*
X121840100Y-89365686D01*
X121877523Y-89362000D01*
X137447857Y-89362000D01*
X137524359Y-89438502D01*
X137701165Y-89556640D01*
X137897622Y-89638015D01*
X138106179Y-89679500D01*
X138318821Y-89679500D01*
X138527378Y-89638015D01*
X138714275Y-89560600D01*
X138838169Y-89560600D01*
X138521211Y-89877559D01*
X138369592Y-89847400D01*
X138094408Y-89847400D01*
X137824510Y-89901086D01*
X137570273Y-90006395D01*
X137341465Y-90159280D01*
X137146880Y-90353865D01*
X136993995Y-90582673D01*
X136964308Y-90654343D01*
X136959636Y-90641377D01*
X136897656Y-90525420D01*
X136657565Y-90458440D01*
X135871605Y-91244400D01*
X136657565Y-92030360D01*
X136897656Y-91963380D01*
X136961485Y-91827640D01*
X136993995Y-91906127D01*
X137146880Y-92134935D01*
X137341465Y-92329520D01*
X137570273Y-92482405D01*
X137647515Y-92514400D01*
X137570273Y-92546395D01*
X137341465Y-92699280D01*
X137146880Y-92893865D01*
X136993995Y-93122673D01*
X136962000Y-93199915D01*
X136930005Y-93122673D01*
X136777120Y-92893865D01*
X136582535Y-92699280D01*
X136353727Y-92546395D01*
X136282057Y-92516708D01*
X136295023Y-92512036D01*
X136410980Y-92450056D01*
X136477960Y-92209965D01*
X135692000Y-91424005D01*
X134906040Y-92209965D01*
X134973020Y-92450056D01*
X135108760Y-92513885D01*
X135030273Y-92546395D01*
X134801465Y-92699280D01*
X134606880Y-92893865D01*
X134453995Y-93122673D01*
X134422000Y-93199915D01*
X134390005Y-93122673D01*
X134237120Y-92893865D01*
X134042535Y-92699280D01*
X133813727Y-92546395D01*
X133736485Y-92514400D01*
X133813727Y-92482405D01*
X134042535Y-92329520D01*
X134237120Y-92134935D01*
X134390005Y-91906127D01*
X134419692Y-91834457D01*
X134424364Y-91847423D01*
X134486344Y-91963380D01*
X134726435Y-92030360D01*
X135512395Y-91244400D01*
X134726435Y-90458440D01*
X134486344Y-90525420D01*
X134422515Y-90661160D01*
X134390005Y-90582673D01*
X134237120Y-90353865D01*
X134162090Y-90278835D01*
X134906040Y-90278835D01*
X135692000Y-91064795D01*
X136477960Y-90278835D01*
X136410980Y-90038744D01*
X136161952Y-89921644D01*
X135894865Y-89855377D01*
X135619983Y-89842490D01*
X135347867Y-89883478D01*
X135088977Y-89976764D01*
X134973020Y-90038744D01*
X134906040Y-90278835D01*
X134162090Y-90278835D01*
X134042535Y-90159280D01*
X133813727Y-90006395D01*
X133559490Y-89901086D01*
X133289592Y-89847400D01*
X133014408Y-89847400D01*
X132744510Y-89901086D01*
X132490273Y-90006395D01*
X132261465Y-90159280D01*
X132066880Y-90353865D01*
X131913995Y-90582673D01*
X131882000Y-90659915D01*
X131850005Y-90582673D01*
X131697120Y-90353865D01*
X131502535Y-90159280D01*
X131273727Y-90006395D01*
X131019490Y-89901086D01*
X130749592Y-89847400D01*
X130474408Y-89847400D01*
X130204510Y-89901086D01*
X129950273Y-90006395D01*
X129721465Y-90159280D01*
X129526880Y-90353865D01*
X129373995Y-90582673D01*
X129342000Y-90659915D01*
X129310005Y-90582673D01*
X129157120Y-90353865D01*
X128962535Y-90159280D01*
X128733727Y-90006395D01*
X128479490Y-89901086D01*
X128209592Y-89847400D01*
X127934408Y-89847400D01*
X127664510Y-89901086D01*
X127410273Y-90006395D01*
X127181465Y-90159280D01*
X126986880Y-90353865D01*
X126833995Y-90582673D01*
X126802000Y-90659915D01*
X126770005Y-90582673D01*
X126617120Y-90353865D01*
X126422535Y-90159280D01*
X126193727Y-90006395D01*
X125939490Y-89901086D01*
X125669592Y-89847400D01*
X125394408Y-89847400D01*
X125124510Y-89901086D01*
X124870273Y-90006395D01*
X124641465Y-90159280D01*
X124446880Y-90353865D01*
X124293995Y-90582673D01*
X124262000Y-90659915D01*
X124230005Y-90582673D01*
X124077120Y-90353865D01*
X123882535Y-90159280D01*
X123653727Y-90006395D01*
X123399490Y-89901086D01*
X123129592Y-89847400D01*
X122854408Y-89847400D01*
X122584510Y-89901086D01*
X122330273Y-90006395D01*
X122101465Y-90159280D01*
X121906880Y-90353865D01*
X121753995Y-90582673D01*
X121722000Y-90659915D01*
X121690005Y-90582673D01*
X121537120Y-90353865D01*
X121342535Y-90159280D01*
X121113727Y-90006395D01*
X120859490Y-89901086D01*
X120589592Y-89847400D01*
X120314408Y-89847400D01*
X120044510Y-89901086D01*
X119790273Y-90006395D01*
X119561465Y-90159280D01*
X119366880Y-90353865D01*
X119213995Y-90582673D01*
X119184308Y-90654343D01*
X119179636Y-90641377D01*
X119117656Y-90525420D01*
X118877565Y-90458440D01*
X118091605Y-91244400D01*
X118105748Y-91258543D01*
X117926143Y-91438148D01*
X117912000Y-91424005D01*
X117897858Y-91438148D01*
X117718253Y-91258543D01*
X117732395Y-91244400D01*
X117718253Y-91230258D01*
X117897858Y-91050653D01*
X117912000Y-91064795D01*
X118697960Y-90278835D01*
X118630980Y-90038744D01*
X118381952Y-89921644D01*
X118114865Y-89855377D01*
X117839983Y-89842490D01*
X117567867Y-89883478D01*
X117481700Y-89914527D01*
X117481700Y-86929472D01*
X118674000Y-86929472D01*
X118798482Y-86917212D01*
X118918180Y-86880902D01*
X118999764Y-86837294D01*
X121274820Y-89112351D01*
G37*
X121274820Y-89112351D02*
X121298678Y-89141422D01*
X121327748Y-89165279D01*
X121414707Y-89236645D01*
X121458898Y-89260265D01*
X121547085Y-89307402D01*
X121690722Y-89350974D01*
X121802674Y-89362000D01*
X121802677Y-89362000D01*
X121840100Y-89365686D01*
X121877523Y-89362000D01*
X137447857Y-89362000D01*
X137524359Y-89438502D01*
X137701165Y-89556640D01*
X137897622Y-89638015D01*
X138106179Y-89679500D01*
X138318821Y-89679500D01*
X138527378Y-89638015D01*
X138714275Y-89560600D01*
X138838169Y-89560600D01*
X138521211Y-89877559D01*
X138369592Y-89847400D01*
X138094408Y-89847400D01*
X137824510Y-89901086D01*
X137570273Y-90006395D01*
X137341465Y-90159280D01*
X137146880Y-90353865D01*
X136993995Y-90582673D01*
X136964308Y-90654343D01*
X136959636Y-90641377D01*
X136897656Y-90525420D01*
X136657565Y-90458440D01*
X135871605Y-91244400D01*
X136657565Y-92030360D01*
X136897656Y-91963380D01*
X136961485Y-91827640D01*
X136993995Y-91906127D01*
X137146880Y-92134935D01*
X137341465Y-92329520D01*
X137570273Y-92482405D01*
X137647515Y-92514400D01*
X137570273Y-92546395D01*
X137341465Y-92699280D01*
X137146880Y-92893865D01*
X136993995Y-93122673D01*
X136962000Y-93199915D01*
X136930005Y-93122673D01*
X136777120Y-92893865D01*
X136582535Y-92699280D01*
X136353727Y-92546395D01*
X136282057Y-92516708D01*
X136295023Y-92512036D01*
X136410980Y-92450056D01*
X136477960Y-92209965D01*
X135692000Y-91424005D01*
X134906040Y-92209965D01*
X134973020Y-92450056D01*
X135108760Y-92513885D01*
X135030273Y-92546395D01*
X134801465Y-92699280D01*
X134606880Y-92893865D01*
X134453995Y-93122673D01*
X134422000Y-93199915D01*
X134390005Y-93122673D01*
X134237120Y-92893865D01*
X134042535Y-92699280D01*
X133813727Y-92546395D01*
X133736485Y-92514400D01*
X133813727Y-92482405D01*
X134042535Y-92329520D01*
X134237120Y-92134935D01*
X134390005Y-91906127D01*
X134419692Y-91834457D01*
X134424364Y-91847423D01*
X134486344Y-91963380D01*
X134726435Y-92030360D01*
X135512395Y-91244400D01*
X134726435Y-90458440D01*
X134486344Y-90525420D01*
X134422515Y-90661160D01*
X134390005Y-90582673D01*
X134237120Y-90353865D01*
X134162090Y-90278835D01*
X134906040Y-90278835D01*
X135692000Y-91064795D01*
X136477960Y-90278835D01*
X136410980Y-90038744D01*
X136161952Y-89921644D01*
X135894865Y-89855377D01*
X135619983Y-89842490D01*
X135347867Y-89883478D01*
X135088977Y-89976764D01*
X134973020Y-90038744D01*
X134906040Y-90278835D01*
X134162090Y-90278835D01*
X134042535Y-90159280D01*
X133813727Y-90006395D01*
X133559490Y-89901086D01*
X133289592Y-89847400D01*
X133014408Y-89847400D01*
X132744510Y-89901086D01*
X132490273Y-90006395D01*
X132261465Y-90159280D01*
X132066880Y-90353865D01*
X131913995Y-90582673D01*
X131882000Y-90659915D01*
X131850005Y-90582673D01*
X131697120Y-90353865D01*
X131502535Y-90159280D01*
X131273727Y-90006395D01*
X131019490Y-89901086D01*
X130749592Y-89847400D01*
X130474408Y-89847400D01*
X130204510Y-89901086D01*
X129950273Y-90006395D01*
X129721465Y-90159280D01*
X129526880Y-90353865D01*
X129373995Y-90582673D01*
X129342000Y-90659915D01*
X129310005Y-90582673D01*
X129157120Y-90353865D01*
X128962535Y-90159280D01*
X128733727Y-90006395D01*
X128479490Y-89901086D01*
X128209592Y-89847400D01*
X127934408Y-89847400D01*
X127664510Y-89901086D01*
X127410273Y-90006395D01*
X127181465Y-90159280D01*
X126986880Y-90353865D01*
X126833995Y-90582673D01*
X126802000Y-90659915D01*
X126770005Y-90582673D01*
X126617120Y-90353865D01*
X126422535Y-90159280D01*
X126193727Y-90006395D01*
X125939490Y-89901086D01*
X125669592Y-89847400D01*
X125394408Y-89847400D01*
X125124510Y-89901086D01*
X124870273Y-90006395D01*
X124641465Y-90159280D01*
X124446880Y-90353865D01*
X124293995Y-90582673D01*
X124262000Y-90659915D01*
X124230005Y-90582673D01*
X124077120Y-90353865D01*
X123882535Y-90159280D01*
X123653727Y-90006395D01*
X123399490Y-89901086D01*
X123129592Y-89847400D01*
X122854408Y-89847400D01*
X122584510Y-89901086D01*
X122330273Y-90006395D01*
X122101465Y-90159280D01*
X121906880Y-90353865D01*
X121753995Y-90582673D01*
X121722000Y-90659915D01*
X121690005Y-90582673D01*
X121537120Y-90353865D01*
X121342535Y-90159280D01*
X121113727Y-90006395D01*
X120859490Y-89901086D01*
X120589592Y-89847400D01*
X120314408Y-89847400D01*
X120044510Y-89901086D01*
X119790273Y-90006395D01*
X119561465Y-90159280D01*
X119366880Y-90353865D01*
X119213995Y-90582673D01*
X119184308Y-90654343D01*
X119179636Y-90641377D01*
X119117656Y-90525420D01*
X118877565Y-90458440D01*
X118091605Y-91244400D01*
X118105748Y-91258543D01*
X117926143Y-91438148D01*
X117912000Y-91424005D01*
X117897858Y-91438148D01*
X117718253Y-91258543D01*
X117732395Y-91244400D01*
X117718253Y-91230258D01*
X117897858Y-91050653D01*
X117912000Y-91064795D01*
X118697960Y-90278835D01*
X118630980Y-90038744D01*
X118381952Y-89921644D01*
X118114865Y-89855377D01*
X117839983Y-89842490D01*
X117567867Y-89883478D01*
X117481700Y-89914527D01*
X117481700Y-86929472D01*
X118674000Y-86929472D01*
X118798482Y-86917212D01*
X118918180Y-86880902D01*
X118999764Y-86837294D01*
X121274820Y-89112351D01*
G36*
X124293995Y-91906127D02*
G01*
X124446880Y-92134935D01*
X124641465Y-92329520D01*
X124870273Y-92482405D01*
X124941943Y-92512092D01*
X124928977Y-92516764D01*
X124813020Y-92578744D01*
X124746041Y-92818833D01*
X124629631Y-92702423D01*
X124617042Y-92715012D01*
X124057043Y-92155013D01*
X124077120Y-92134935D01*
X124230005Y-91906127D01*
X124262000Y-91828885D01*
X124293995Y-91906127D01*
G37*
X124293995Y-91906127D02*
X124446880Y-92134935D01*
X124641465Y-92329520D01*
X124870273Y-92482405D01*
X124941943Y-92512092D01*
X124928977Y-92516764D01*
X124813020Y-92578744D01*
X124746041Y-92818833D01*
X124629631Y-92702423D01*
X124617042Y-92715012D01*
X124057043Y-92155013D01*
X124077120Y-92134935D01*
X124230005Y-91906127D01*
X124262000Y-91828885D01*
X124293995Y-91906127D01*
G36*
X156205748Y-91230258D02*
G01*
X156191605Y-91244400D01*
X156205748Y-91258543D01*
X156026143Y-91438148D01*
X156012000Y-91424005D01*
X155997858Y-91438148D01*
X155818253Y-91258543D01*
X155832395Y-91244400D01*
X155818253Y-91230258D01*
X155997858Y-91050653D01*
X156012000Y-91064795D01*
X156026143Y-91050653D01*
X156205748Y-91230258D01*
G37*
X156205748Y-91230258D02*
X156191605Y-91244400D01*
X156205748Y-91258543D01*
X156026143Y-91438148D01*
X156012000Y-91424005D01*
X155997858Y-91438148D01*
X155818253Y-91258543D01*
X155832395Y-91244400D01*
X155818253Y-91230258D01*
X155997858Y-91050653D01*
X156012000Y-91064795D01*
X156026143Y-91050653D01*
X156205748Y-91230258D01*
G36*
X149693995Y-83651127D02*
G01*
X149846880Y-83879935D01*
X150041465Y-84074520D01*
X150270273Y-84227405D01*
X150347515Y-84259400D01*
X150270273Y-84291395D01*
X150041465Y-84444280D01*
X149846880Y-84638865D01*
X149693995Y-84867673D01*
X149664308Y-84939343D01*
X149659636Y-84926377D01*
X149597656Y-84810420D01*
X149357565Y-84743440D01*
X148571605Y-85529400D01*
X149357565Y-86315360D01*
X149597656Y-86248380D01*
X149661485Y-86112640D01*
X149693995Y-86191127D01*
X149846880Y-86419935D01*
X150041465Y-86614520D01*
X150270273Y-86767405D01*
X150524510Y-86872714D01*
X150794408Y-86926400D01*
X151069592Y-86926400D01*
X151339490Y-86872714D01*
X151593727Y-86767405D01*
X151822535Y-86614520D01*
X152017120Y-86419935D01*
X152170005Y-86191127D01*
X152202000Y-86113885D01*
X152233995Y-86191127D01*
X152386880Y-86419935D01*
X152581465Y-86614520D01*
X152810273Y-86767405D01*
X153064510Y-86872714D01*
X153334408Y-86926400D01*
X153609592Y-86926400D01*
X153854472Y-86877690D01*
X153849714Y-86926000D01*
X153853401Y-86963433D01*
X153853401Y-89895896D01*
X153609592Y-89847400D01*
X153334408Y-89847400D01*
X153064510Y-89901086D01*
X152810273Y-90006395D01*
X152581465Y-90159280D01*
X152386880Y-90353865D01*
X152233995Y-90582673D01*
X152202000Y-90659915D01*
X152170005Y-90582673D01*
X152017120Y-90353865D01*
X151822535Y-90159280D01*
X151593727Y-90006395D01*
X151339490Y-89901086D01*
X151069592Y-89847400D01*
X150794408Y-89847400D01*
X150642789Y-89877559D01*
X149349467Y-88584237D01*
X149430015Y-88389778D01*
X149471500Y-88181221D01*
X149471500Y-87968579D01*
X149430015Y-87760022D01*
X149348640Y-87563565D01*
X149230502Y-87386759D01*
X149080141Y-87236398D01*
X148903335Y-87118260D01*
X148706878Y-87036885D01*
X148498321Y-86995400D01*
X148285679Y-86995400D01*
X148077122Y-87036885D01*
X147880665Y-87118260D01*
X147750215Y-87205424D01*
X147764440Y-87184135D01*
X147845815Y-86987678D01*
X147876987Y-86830967D01*
X147922048Y-86852156D01*
X148189135Y-86918423D01*
X148464017Y-86931310D01*
X148736133Y-86890322D01*
X148995023Y-86797036D01*
X149110980Y-86735056D01*
X149177960Y-86494965D01*
X148392000Y-85709005D01*
X148377858Y-85723148D01*
X148198253Y-85543543D01*
X148212395Y-85529400D01*
X147426435Y-84743440D01*
X147186344Y-84810420D01*
X147122515Y-84946160D01*
X147090005Y-84867673D01*
X146937120Y-84638865D01*
X146742535Y-84444280D01*
X146513727Y-84291395D01*
X146436485Y-84259400D01*
X146513727Y-84227405D01*
X146742535Y-84074520D01*
X146937120Y-83879935D01*
X147090005Y-83651127D01*
X147122000Y-83573885D01*
X147153995Y-83651127D01*
X147306880Y-83879935D01*
X147501465Y-84074520D01*
X147730273Y-84227405D01*
X147801943Y-84257092D01*
X147788977Y-84261764D01*
X147673020Y-84323744D01*
X147606040Y-84563835D01*
X148392000Y-85349795D01*
X149177960Y-84563835D01*
X149110980Y-84323744D01*
X148975240Y-84259915D01*
X149053727Y-84227405D01*
X149282535Y-84074520D01*
X149477120Y-83879935D01*
X149630005Y-83651127D01*
X149662000Y-83573885D01*
X149693995Y-83651127D01*
G37*
X149693995Y-83651127D02*
X149846880Y-83879935D01*
X150041465Y-84074520D01*
X150270273Y-84227405D01*
X150347515Y-84259400D01*
X150270273Y-84291395D01*
X150041465Y-84444280D01*
X149846880Y-84638865D01*
X149693995Y-84867673D01*
X149664308Y-84939343D01*
X149659636Y-84926377D01*
X149597656Y-84810420D01*
X149357565Y-84743440D01*
X148571605Y-85529400D01*
X149357565Y-86315360D01*
X149597656Y-86248380D01*
X149661485Y-86112640D01*
X149693995Y-86191127D01*
X149846880Y-86419935D01*
X150041465Y-86614520D01*
X150270273Y-86767405D01*
X150524510Y-86872714D01*
X150794408Y-86926400D01*
X151069592Y-86926400D01*
X151339490Y-86872714D01*
X151593727Y-86767405D01*
X151822535Y-86614520D01*
X152017120Y-86419935D01*
X152170005Y-86191127D01*
X152202000Y-86113885D01*
X152233995Y-86191127D01*
X152386880Y-86419935D01*
X152581465Y-86614520D01*
X152810273Y-86767405D01*
X153064510Y-86872714D01*
X153334408Y-86926400D01*
X153609592Y-86926400D01*
X153854472Y-86877690D01*
X153849714Y-86926000D01*
X153853401Y-86963433D01*
X153853401Y-89895896D01*
X153609592Y-89847400D01*
X153334408Y-89847400D01*
X153064510Y-89901086D01*
X152810273Y-90006395D01*
X152581465Y-90159280D01*
X152386880Y-90353865D01*
X152233995Y-90582673D01*
X152202000Y-90659915D01*
X152170005Y-90582673D01*
X152017120Y-90353865D01*
X151822535Y-90159280D01*
X151593727Y-90006395D01*
X151339490Y-89901086D01*
X151069592Y-89847400D01*
X150794408Y-89847400D01*
X150642789Y-89877559D01*
X149349467Y-88584237D01*
X149430015Y-88389778D01*
X149471500Y-88181221D01*
X149471500Y-87968579D01*
X149430015Y-87760022D01*
X149348640Y-87563565D01*
X149230502Y-87386759D01*
X149080141Y-87236398D01*
X148903335Y-87118260D01*
X148706878Y-87036885D01*
X148498321Y-86995400D01*
X148285679Y-86995400D01*
X148077122Y-87036885D01*
X147880665Y-87118260D01*
X147750215Y-87205424D01*
X147764440Y-87184135D01*
X147845815Y-86987678D01*
X147876987Y-86830967D01*
X147922048Y-86852156D01*
X148189135Y-86918423D01*
X148464017Y-86931310D01*
X148736133Y-86890322D01*
X148995023Y-86797036D01*
X149110980Y-86735056D01*
X149177960Y-86494965D01*
X148392000Y-85709005D01*
X148377858Y-85723148D01*
X148198253Y-85543543D01*
X148212395Y-85529400D01*
X147426435Y-84743440D01*
X147186344Y-84810420D01*
X147122515Y-84946160D01*
X147090005Y-84867673D01*
X146937120Y-84638865D01*
X146742535Y-84444280D01*
X146513727Y-84291395D01*
X146436485Y-84259400D01*
X146513727Y-84227405D01*
X146742535Y-84074520D01*
X146937120Y-83879935D01*
X147090005Y-83651127D01*
X147122000Y-83573885D01*
X147153995Y-83651127D01*
X147306880Y-83879935D01*
X147501465Y-84074520D01*
X147730273Y-84227405D01*
X147801943Y-84257092D01*
X147788977Y-84261764D01*
X147673020Y-84323744D01*
X147606040Y-84563835D01*
X148392000Y-85349795D01*
X149177960Y-84563835D01*
X149110980Y-84323744D01*
X148975240Y-84259915D01*
X149053727Y-84227405D01*
X149282535Y-84074520D01*
X149477120Y-83879935D01*
X149630005Y-83651127D01*
X149662000Y-83573885D01*
X149693995Y-83651127D01*
G36*
X164933995Y-83651127D02*
G01*
X165086880Y-83879935D01*
X165281465Y-84074520D01*
X165510273Y-84227405D01*
X165581943Y-84257092D01*
X165568977Y-84261764D01*
X165453020Y-84323744D01*
X165386040Y-84563835D01*
X166172000Y-85349795D01*
X166186143Y-85335653D01*
X166365748Y-85515258D01*
X166351605Y-85529400D01*
X166365748Y-85543543D01*
X166186143Y-85723148D01*
X166172000Y-85709005D01*
X165386040Y-86494965D01*
X165453020Y-86735056D01*
X165493281Y-86753988D01*
X163426770Y-88820500D01*
X160389430Y-88820500D01*
X160439330Y-88770600D01*
X161115377Y-88770600D01*
X161152800Y-88774286D01*
X161190223Y-88770600D01*
X161190226Y-88770600D01*
X161302178Y-88759574D01*
X161445815Y-88716002D01*
X161578192Y-88645245D01*
X161694222Y-88550022D01*
X161718084Y-88520946D01*
X163342789Y-86896241D01*
X163494408Y-86926400D01*
X163769592Y-86926400D01*
X164039490Y-86872714D01*
X164293727Y-86767405D01*
X164522535Y-86614520D01*
X164717120Y-86419935D01*
X164870005Y-86191127D01*
X164899692Y-86119457D01*
X164904364Y-86132423D01*
X164966344Y-86248380D01*
X165206435Y-86315360D01*
X165992395Y-85529400D01*
X165206435Y-84743440D01*
X164966344Y-84810420D01*
X164902515Y-84946160D01*
X164870005Y-84867673D01*
X164717120Y-84638865D01*
X164522535Y-84444280D01*
X164293727Y-84291395D01*
X164216485Y-84259400D01*
X164293727Y-84227405D01*
X164522535Y-84074520D01*
X164717120Y-83879935D01*
X164870005Y-83651127D01*
X164902000Y-83573885D01*
X164933995Y-83651127D01*
G37*
X164933995Y-83651127D02*
X165086880Y-83879935D01*
X165281465Y-84074520D01*
X165510273Y-84227405D01*
X165581943Y-84257092D01*
X165568977Y-84261764D01*
X165453020Y-84323744D01*
X165386040Y-84563835D01*
X166172000Y-85349795D01*
X166186143Y-85335653D01*
X166365748Y-85515258D01*
X166351605Y-85529400D01*
X166365748Y-85543543D01*
X166186143Y-85723148D01*
X166172000Y-85709005D01*
X165386040Y-86494965D01*
X165453020Y-86735056D01*
X165493281Y-86753988D01*
X163426770Y-88820500D01*
X160389430Y-88820500D01*
X160439330Y-88770600D01*
X161115377Y-88770600D01*
X161152800Y-88774286D01*
X161190223Y-88770600D01*
X161190226Y-88770600D01*
X161302178Y-88759574D01*
X161445815Y-88716002D01*
X161578192Y-88645245D01*
X161694222Y-88550022D01*
X161718084Y-88520946D01*
X163342789Y-86896241D01*
X163494408Y-86926400D01*
X163769592Y-86926400D01*
X164039490Y-86872714D01*
X164293727Y-86767405D01*
X164522535Y-86614520D01*
X164717120Y-86419935D01*
X164870005Y-86191127D01*
X164899692Y-86119457D01*
X164904364Y-86132423D01*
X164966344Y-86248380D01*
X165206435Y-86315360D01*
X165992395Y-85529400D01*
X165206435Y-84743440D01*
X164966344Y-84810420D01*
X164902515Y-84946160D01*
X164870005Y-84867673D01*
X164717120Y-84638865D01*
X164522535Y-84444280D01*
X164293727Y-84291395D01*
X164216485Y-84259400D01*
X164293727Y-84227405D01*
X164522535Y-84074520D01*
X164717120Y-83879935D01*
X164870005Y-83651127D01*
X164902000Y-83573885D01*
X164933995Y-83651127D01*
G36*
X129373995Y-83651127D02*
G01*
X129526880Y-83879935D01*
X129721465Y-84074520D01*
X129950273Y-84227405D01*
X130027515Y-84259400D01*
X129950273Y-84291395D01*
X129721465Y-84444280D01*
X129526880Y-84638865D01*
X129373995Y-84867673D01*
X129344308Y-84939343D01*
X129339636Y-84926377D01*
X129277656Y-84810420D01*
X129037565Y-84743440D01*
X128251605Y-85529400D01*
X129037565Y-86315360D01*
X129277656Y-86248380D01*
X129341485Y-86112640D01*
X129373995Y-86191127D01*
X129526880Y-86419935D01*
X129721465Y-86614520D01*
X129950273Y-86767405D01*
X130204510Y-86872714D01*
X130474408Y-86926400D01*
X130749592Y-86926400D01*
X130867931Y-86902861D01*
X131803069Y-87838000D01*
X122155731Y-87838000D01*
X121093510Y-86775779D01*
X121113727Y-86767405D01*
X121342535Y-86614520D01*
X121537120Y-86419935D01*
X121690005Y-86191127D01*
X121722000Y-86113885D01*
X121753995Y-86191127D01*
X121906880Y-86419935D01*
X122101465Y-86614520D01*
X122330273Y-86767405D01*
X122584510Y-86872714D01*
X122854408Y-86926400D01*
X123129592Y-86926400D01*
X123399490Y-86872714D01*
X123653727Y-86767405D01*
X123882535Y-86614520D01*
X124077120Y-86419935D01*
X124230005Y-86191127D01*
X124262000Y-86113885D01*
X124293995Y-86191127D01*
X124446880Y-86419935D01*
X124641465Y-86614520D01*
X124870273Y-86767405D01*
X125124510Y-86872714D01*
X125394408Y-86926400D01*
X125669592Y-86926400D01*
X125939490Y-86872714D01*
X126193727Y-86767405D01*
X126422535Y-86614520D01*
X126542090Y-86494965D01*
X127286040Y-86494965D01*
X127353020Y-86735056D01*
X127602048Y-86852156D01*
X127869135Y-86918423D01*
X128144017Y-86931310D01*
X128416133Y-86890322D01*
X128675023Y-86797036D01*
X128790980Y-86735056D01*
X128857960Y-86494965D01*
X128072000Y-85709005D01*
X127286040Y-86494965D01*
X126542090Y-86494965D01*
X126617120Y-86419935D01*
X126770005Y-86191127D01*
X126799692Y-86119457D01*
X126804364Y-86132423D01*
X126866344Y-86248380D01*
X127106435Y-86315360D01*
X127892395Y-85529400D01*
X127106435Y-84743440D01*
X126866344Y-84810420D01*
X126802515Y-84946160D01*
X126770005Y-84867673D01*
X126617120Y-84638865D01*
X126422535Y-84444280D01*
X126193727Y-84291395D01*
X126116485Y-84259400D01*
X126193727Y-84227405D01*
X126422535Y-84074520D01*
X126617120Y-83879935D01*
X126770005Y-83651127D01*
X126802000Y-83573885D01*
X126833995Y-83651127D01*
X126986880Y-83879935D01*
X127181465Y-84074520D01*
X127410273Y-84227405D01*
X127481943Y-84257092D01*
X127468977Y-84261764D01*
X127353020Y-84323744D01*
X127286040Y-84563835D01*
X128072000Y-85349795D01*
X128857960Y-84563835D01*
X128790980Y-84323744D01*
X128655240Y-84259915D01*
X128733727Y-84227405D01*
X128962535Y-84074520D01*
X129157120Y-83879935D01*
X129310005Y-83651127D01*
X129342000Y-83573885D01*
X129373995Y-83651127D01*
G37*
X129373995Y-83651127D02*
X129526880Y-83879935D01*
X129721465Y-84074520D01*
X129950273Y-84227405D01*
X130027515Y-84259400D01*
X129950273Y-84291395D01*
X129721465Y-84444280D01*
X129526880Y-84638865D01*
X129373995Y-84867673D01*
X129344308Y-84939343D01*
X129339636Y-84926377D01*
X129277656Y-84810420D01*
X129037565Y-84743440D01*
X128251605Y-85529400D01*
X129037565Y-86315360D01*
X129277656Y-86248380D01*
X129341485Y-86112640D01*
X129373995Y-86191127D01*
X129526880Y-86419935D01*
X129721465Y-86614520D01*
X129950273Y-86767405D01*
X130204510Y-86872714D01*
X130474408Y-86926400D01*
X130749592Y-86926400D01*
X130867931Y-86902861D01*
X131803069Y-87838000D01*
X122155731Y-87838000D01*
X121093510Y-86775779D01*
X121113727Y-86767405D01*
X121342535Y-86614520D01*
X121537120Y-86419935D01*
X121690005Y-86191127D01*
X121722000Y-86113885D01*
X121753995Y-86191127D01*
X121906880Y-86419935D01*
X122101465Y-86614520D01*
X122330273Y-86767405D01*
X122584510Y-86872714D01*
X122854408Y-86926400D01*
X123129592Y-86926400D01*
X123399490Y-86872714D01*
X123653727Y-86767405D01*
X123882535Y-86614520D01*
X124077120Y-86419935D01*
X124230005Y-86191127D01*
X124262000Y-86113885D01*
X124293995Y-86191127D01*
X124446880Y-86419935D01*
X124641465Y-86614520D01*
X124870273Y-86767405D01*
X125124510Y-86872714D01*
X125394408Y-86926400D01*
X125669592Y-86926400D01*
X125939490Y-86872714D01*
X126193727Y-86767405D01*
X126422535Y-86614520D01*
X126542090Y-86494965D01*
X127286040Y-86494965D01*
X127353020Y-86735056D01*
X127602048Y-86852156D01*
X127869135Y-86918423D01*
X128144017Y-86931310D01*
X128416133Y-86890322D01*
X128675023Y-86797036D01*
X128790980Y-86735056D01*
X128857960Y-86494965D01*
X128072000Y-85709005D01*
X127286040Y-86494965D01*
X126542090Y-86494965D01*
X126617120Y-86419935D01*
X126770005Y-86191127D01*
X126799692Y-86119457D01*
X126804364Y-86132423D01*
X126866344Y-86248380D01*
X127106435Y-86315360D01*
X127892395Y-85529400D01*
X127106435Y-84743440D01*
X126866344Y-84810420D01*
X126802515Y-84946160D01*
X126770005Y-84867673D01*
X126617120Y-84638865D01*
X126422535Y-84444280D01*
X126193727Y-84291395D01*
X126116485Y-84259400D01*
X126193727Y-84227405D01*
X126422535Y-84074520D01*
X126617120Y-83879935D01*
X126770005Y-83651127D01*
X126802000Y-83573885D01*
X126833995Y-83651127D01*
X126986880Y-83879935D01*
X127181465Y-84074520D01*
X127410273Y-84227405D01*
X127481943Y-84257092D01*
X127468977Y-84261764D01*
X127353020Y-84323744D01*
X127286040Y-84563835D01*
X128072000Y-85349795D01*
X128857960Y-84563835D01*
X128790980Y-84323744D01*
X128655240Y-84259915D01*
X128733727Y-84227405D01*
X128962535Y-84074520D01*
X129157120Y-83879935D01*
X129310005Y-83651127D01*
X129342000Y-83573885D01*
X129373995Y-83651127D01*
G36*
X123185748Y-82975258D02*
G01*
X123171605Y-82989400D01*
X123957565Y-83775360D01*
X124197656Y-83708380D01*
X124261485Y-83572640D01*
X124293995Y-83651127D01*
X124446880Y-83879935D01*
X124641465Y-84074520D01*
X124870273Y-84227405D01*
X124947515Y-84259400D01*
X124870273Y-84291395D01*
X124641465Y-84444280D01*
X124446880Y-84638865D01*
X124293995Y-84867673D01*
X124262000Y-84944915D01*
X124230005Y-84867673D01*
X124077120Y-84638865D01*
X123882535Y-84444280D01*
X123653727Y-84291395D01*
X123582057Y-84261708D01*
X123595023Y-84257036D01*
X123710980Y-84195056D01*
X123777960Y-83954965D01*
X122992000Y-83169005D01*
X122977858Y-83183148D01*
X122798253Y-83003543D01*
X122812395Y-82989400D01*
X122798253Y-82975258D01*
X122977858Y-82795653D01*
X122992000Y-82809795D01*
X123006143Y-82795653D01*
X123185748Y-82975258D01*
G37*
X123185748Y-82975258D02*
X123171605Y-82989400D01*
X123957565Y-83775360D01*
X124197656Y-83708380D01*
X124261485Y-83572640D01*
X124293995Y-83651127D01*
X124446880Y-83879935D01*
X124641465Y-84074520D01*
X124870273Y-84227405D01*
X124947515Y-84259400D01*
X124870273Y-84291395D01*
X124641465Y-84444280D01*
X124446880Y-84638865D01*
X124293995Y-84867673D01*
X124262000Y-84944915D01*
X124230005Y-84867673D01*
X124077120Y-84638865D01*
X123882535Y-84444280D01*
X123653727Y-84291395D01*
X123582057Y-84261708D01*
X123595023Y-84257036D01*
X123710980Y-84195056D01*
X123777960Y-83954965D01*
X122992000Y-83169005D01*
X122977858Y-83183148D01*
X122798253Y-83003543D01*
X122812395Y-82989400D01*
X122798253Y-82975258D01*
X122977858Y-82795653D01*
X122992000Y-82809795D01*
X123006143Y-82795653D01*
X123185748Y-82975258D01*
G36*
X160459117Y-81739447D02*
G01*
X160430273Y-81751395D01*
X160201465Y-81904280D01*
X160006880Y-82098865D01*
X159853995Y-82327673D01*
X159824308Y-82399343D01*
X159819636Y-82386377D01*
X159757656Y-82270420D01*
X159517565Y-82203440D01*
X158731605Y-82989400D01*
X159517565Y-83775360D01*
X159757656Y-83708380D01*
X159821485Y-83572640D01*
X159853995Y-83651127D01*
X160006880Y-83879935D01*
X160201465Y-84074520D01*
X160430273Y-84227405D01*
X160507515Y-84259400D01*
X160430273Y-84291395D01*
X160201465Y-84444280D01*
X160006880Y-84638865D01*
X159853995Y-84867673D01*
X159822000Y-84944915D01*
X159790005Y-84867673D01*
X159637120Y-84638865D01*
X159442535Y-84444280D01*
X159213727Y-84291395D01*
X159142057Y-84261708D01*
X159155023Y-84257036D01*
X159270980Y-84195056D01*
X159337960Y-83954965D01*
X158552000Y-83169005D01*
X158537858Y-83183148D01*
X158358253Y-83003543D01*
X158372395Y-82989400D01*
X158358253Y-82975258D01*
X158537858Y-82795653D01*
X158552000Y-82809795D01*
X159337960Y-82023835D01*
X159270980Y-81783744D01*
X159021952Y-81666644D01*
X158754865Y-81600377D01*
X158479983Y-81587490D01*
X158207867Y-81628478D01*
X158140415Y-81652783D01*
X158330035Y-81574240D01*
X158506841Y-81456102D01*
X158657202Y-81305741D01*
X158775340Y-81128935D01*
X158856715Y-80932478D01*
X158898200Y-80723921D01*
X158898200Y-80511279D01*
X158856715Y-80302722D01*
X158775340Y-80106265D01*
X158710350Y-80009000D01*
X158728670Y-80009000D01*
X160459117Y-81739447D01*
G37*
X160459117Y-81739447D02*
X160430273Y-81751395D01*
X160201465Y-81904280D01*
X160006880Y-82098865D01*
X159853995Y-82327673D01*
X159824308Y-82399343D01*
X159819636Y-82386377D01*
X159757656Y-82270420D01*
X159517565Y-82203440D01*
X158731605Y-82989400D01*
X159517565Y-83775360D01*
X159757656Y-83708380D01*
X159821485Y-83572640D01*
X159853995Y-83651127D01*
X160006880Y-83879935D01*
X160201465Y-84074520D01*
X160430273Y-84227405D01*
X160507515Y-84259400D01*
X160430273Y-84291395D01*
X160201465Y-84444280D01*
X160006880Y-84638865D01*
X159853995Y-84867673D01*
X159822000Y-84944915D01*
X159790005Y-84867673D01*
X159637120Y-84638865D01*
X159442535Y-84444280D01*
X159213727Y-84291395D01*
X159142057Y-84261708D01*
X159155023Y-84257036D01*
X159270980Y-84195056D01*
X159337960Y-83954965D01*
X158552000Y-83169005D01*
X158537858Y-83183148D01*
X158358253Y-83003543D01*
X158372395Y-82989400D01*
X158358253Y-82975258D01*
X158537858Y-82795653D01*
X158552000Y-82809795D01*
X159337960Y-82023835D01*
X159270980Y-81783744D01*
X159021952Y-81666644D01*
X158754865Y-81600377D01*
X158479983Y-81587490D01*
X158207867Y-81628478D01*
X158140415Y-81652783D01*
X158330035Y-81574240D01*
X158506841Y-81456102D01*
X158657202Y-81305741D01*
X158775340Y-81128935D01*
X158856715Y-80932478D01*
X158898200Y-80723921D01*
X158898200Y-80511279D01*
X158856715Y-80302722D01*
X158775340Y-80106265D01*
X158710350Y-80009000D01*
X158728670Y-80009000D01*
X160459117Y-81739447D01*
G36*
X133345748Y-82975258D02*
G01*
X133331605Y-82989400D01*
X134117565Y-83775360D01*
X134357656Y-83708380D01*
X134421485Y-83572640D01*
X134453995Y-83651127D01*
X134606880Y-83879935D01*
X134801465Y-84074520D01*
X135030273Y-84227405D01*
X135107515Y-84259400D01*
X135030273Y-84291395D01*
X134801465Y-84444280D01*
X134606880Y-84638865D01*
X134453995Y-84867673D01*
X134422000Y-84944915D01*
X134390005Y-84867673D01*
X134237120Y-84638865D01*
X134042535Y-84444280D01*
X133813727Y-84291395D01*
X133742057Y-84261708D01*
X133755023Y-84257036D01*
X133870980Y-84195056D01*
X133937960Y-83954965D01*
X133152000Y-83169005D01*
X133137858Y-83183148D01*
X132958253Y-83003543D01*
X132972395Y-82989400D01*
X132958253Y-82975258D01*
X133137858Y-82795653D01*
X133152000Y-82809795D01*
X133166143Y-82795653D01*
X133345748Y-82975258D01*
G37*
X133345748Y-82975258D02*
X133331605Y-82989400D01*
X134117565Y-83775360D01*
X134357656Y-83708380D01*
X134421485Y-83572640D01*
X134453995Y-83651127D01*
X134606880Y-83879935D01*
X134801465Y-84074520D01*
X135030273Y-84227405D01*
X135107515Y-84259400D01*
X135030273Y-84291395D01*
X134801465Y-84444280D01*
X134606880Y-84638865D01*
X134453995Y-84867673D01*
X134422000Y-84944915D01*
X134390005Y-84867673D01*
X134237120Y-84638865D01*
X134042535Y-84444280D01*
X133813727Y-84291395D01*
X133742057Y-84261708D01*
X133755023Y-84257036D01*
X133870980Y-84195056D01*
X133937960Y-83954965D01*
X133152000Y-83169005D01*
X133137858Y-83183148D01*
X132958253Y-83003543D01*
X132972395Y-82989400D01*
X132958253Y-82975258D01*
X133137858Y-82795653D01*
X133152000Y-82809795D01*
X133166143Y-82795653D01*
X133345748Y-82975258D01*
G36*
X153665748Y-82975258D02*
G01*
X153651605Y-82989400D01*
X153665748Y-83003543D01*
X153486143Y-83183148D01*
X153472000Y-83169005D01*
X152686040Y-83954965D01*
X152753020Y-84195056D01*
X152888760Y-84258885D01*
X152810273Y-84291395D01*
X152581465Y-84444280D01*
X152386880Y-84638865D01*
X152233995Y-84867673D01*
X152202000Y-84944915D01*
X152170005Y-84867673D01*
X152017120Y-84638865D01*
X151822535Y-84444280D01*
X151593727Y-84291395D01*
X151516485Y-84259400D01*
X151593727Y-84227405D01*
X151822535Y-84074520D01*
X152017120Y-83879935D01*
X152170005Y-83651127D01*
X152199692Y-83579457D01*
X152204364Y-83592423D01*
X152266344Y-83708380D01*
X152506435Y-83775360D01*
X153292395Y-82989400D01*
X153278253Y-82975258D01*
X153457858Y-82795653D01*
X153472000Y-82809795D01*
X153486143Y-82795653D01*
X153665748Y-82975258D01*
G37*
X153665748Y-82975258D02*
X153651605Y-82989400D01*
X153665748Y-83003543D01*
X153486143Y-83183148D01*
X153472000Y-83169005D01*
X152686040Y-83954965D01*
X152753020Y-84195056D01*
X152888760Y-84258885D01*
X152810273Y-84291395D01*
X152581465Y-84444280D01*
X152386880Y-84638865D01*
X152233995Y-84867673D01*
X152202000Y-84944915D01*
X152170005Y-84867673D01*
X152017120Y-84638865D01*
X151822535Y-84444280D01*
X151593727Y-84291395D01*
X151516485Y-84259400D01*
X151593727Y-84227405D01*
X151822535Y-84074520D01*
X152017120Y-83879935D01*
X152170005Y-83651127D01*
X152199692Y-83579457D01*
X152204364Y-83592423D01*
X152266344Y-83708380D01*
X152506435Y-83775360D01*
X153292395Y-82989400D01*
X153278253Y-82975258D01*
X153457858Y-82795653D01*
X153472000Y-82809795D01*
X153486143Y-82795653D01*
X153665748Y-82975258D01*
G36*
X140965748Y-82975258D02*
G01*
X140951605Y-82989400D01*
X141737565Y-83775360D01*
X141977656Y-83708380D01*
X142041485Y-83572640D01*
X142073995Y-83651127D01*
X142226880Y-83879935D01*
X142421465Y-84074520D01*
X142650273Y-84227405D01*
X142727515Y-84259400D01*
X142650273Y-84291395D01*
X142421465Y-84444280D01*
X142226880Y-84638865D01*
X142073995Y-84867673D01*
X142042000Y-84944915D01*
X142010005Y-84867673D01*
X141857120Y-84638865D01*
X141662535Y-84444280D01*
X141433727Y-84291395D01*
X141362057Y-84261708D01*
X141375023Y-84257036D01*
X141490980Y-84195056D01*
X141557960Y-83954965D01*
X140772000Y-83169005D01*
X139986040Y-83954965D01*
X140053020Y-84195056D01*
X140188760Y-84258885D01*
X140110273Y-84291395D01*
X139881465Y-84444280D01*
X139686880Y-84638865D01*
X139533995Y-84867673D01*
X139502000Y-84944915D01*
X139470005Y-84867673D01*
X139317120Y-84638865D01*
X139122535Y-84444280D01*
X138893727Y-84291395D01*
X138816485Y-84259400D01*
X138893727Y-84227405D01*
X139122535Y-84074520D01*
X139317120Y-83879935D01*
X139470005Y-83651127D01*
X139499692Y-83579457D01*
X139504364Y-83592423D01*
X139566344Y-83708380D01*
X139806435Y-83775360D01*
X140592395Y-82989400D01*
X140578253Y-82975258D01*
X140757858Y-82795653D01*
X140772000Y-82809795D01*
X140786143Y-82795653D01*
X140965748Y-82975258D01*
G37*
X140965748Y-82975258D02*
X140951605Y-82989400D01*
X141737565Y-83775360D01*
X141977656Y-83708380D01*
X142041485Y-83572640D01*
X142073995Y-83651127D01*
X142226880Y-83879935D01*
X142421465Y-84074520D01*
X142650273Y-84227405D01*
X142727515Y-84259400D01*
X142650273Y-84291395D01*
X142421465Y-84444280D01*
X142226880Y-84638865D01*
X142073995Y-84867673D01*
X142042000Y-84944915D01*
X142010005Y-84867673D01*
X141857120Y-84638865D01*
X141662535Y-84444280D01*
X141433727Y-84291395D01*
X141362057Y-84261708D01*
X141375023Y-84257036D01*
X141490980Y-84195056D01*
X141557960Y-83954965D01*
X140772000Y-83169005D01*
X139986040Y-83954965D01*
X140053020Y-84195056D01*
X140188760Y-84258885D01*
X140110273Y-84291395D01*
X139881465Y-84444280D01*
X139686880Y-84638865D01*
X139533995Y-84867673D01*
X139502000Y-84944915D01*
X139470005Y-84867673D01*
X139317120Y-84638865D01*
X139122535Y-84444280D01*
X138893727Y-84291395D01*
X138816485Y-84259400D01*
X138893727Y-84227405D01*
X139122535Y-84074520D01*
X139317120Y-83879935D01*
X139470005Y-83651127D01*
X139499692Y-83579457D01*
X139504364Y-83592423D01*
X139566344Y-83708380D01*
X139806435Y-83775360D01*
X140592395Y-82989400D01*
X140578253Y-82975258D01*
X140757858Y-82795653D01*
X140772000Y-82809795D01*
X140786143Y-82795653D01*
X140965748Y-82975258D01*
G36*
X168939871Y-80648402D02*
G01*
X168907518Y-80651588D01*
X168787820Y-80687898D01*
X168677506Y-80746863D01*
X168580815Y-80826215D01*
X168501463Y-80922906D01*
X168442498Y-81033220D01*
X168406188Y-81152918D01*
X168393928Y-81277400D01*
X168397000Y-81691650D01*
X168555750Y-81850400D01*
X169480000Y-81850400D01*
X169480000Y-81830400D01*
X169734000Y-81830400D01*
X169734000Y-81850400D01*
X169754000Y-81850400D01*
X169754000Y-82104400D01*
X169734000Y-82104400D01*
X169734000Y-82124400D01*
X169480000Y-82124400D01*
X169480000Y-82104400D01*
X168555750Y-82104400D01*
X168397000Y-82263150D01*
X168393928Y-82677400D01*
X168406188Y-82801882D01*
X168410308Y-82815462D01*
X167363249Y-83862521D01*
X167334179Y-83886378D01*
X167310322Y-83915448D01*
X167310321Y-83915449D01*
X167238955Y-84002408D01*
X167168199Y-84134785D01*
X167124627Y-84278422D01*
X167109914Y-84427800D01*
X167113601Y-84465233D01*
X167113601Y-84486655D01*
X167074369Y-84447423D01*
X166957959Y-84563833D01*
X166890980Y-84323744D01*
X166755240Y-84259915D01*
X166833727Y-84227405D01*
X167062535Y-84074520D01*
X167257120Y-83879935D01*
X167410005Y-83651127D01*
X167515314Y-83396890D01*
X167569000Y-83126992D01*
X167569000Y-82851808D01*
X167515314Y-82581910D01*
X167410005Y-82327673D01*
X167257120Y-82098865D01*
X167062535Y-81904280D01*
X166833727Y-81751395D01*
X166579490Y-81646086D01*
X166309592Y-81592400D01*
X166034408Y-81592400D01*
X165882790Y-81622559D01*
X162744330Y-78484100D01*
X166775570Y-78484100D01*
X168939871Y-80648402D01*
G37*
X168939871Y-80648402D02*
X168907518Y-80651588D01*
X168787820Y-80687898D01*
X168677506Y-80746863D01*
X168580815Y-80826215D01*
X168501463Y-80922906D01*
X168442498Y-81033220D01*
X168406188Y-81152918D01*
X168393928Y-81277400D01*
X168397000Y-81691650D01*
X168555750Y-81850400D01*
X169480000Y-81850400D01*
X169480000Y-81830400D01*
X169734000Y-81830400D01*
X169734000Y-81850400D01*
X169754000Y-81850400D01*
X169754000Y-82104400D01*
X169734000Y-82104400D01*
X169734000Y-82124400D01*
X169480000Y-82124400D01*
X169480000Y-82104400D01*
X168555750Y-82104400D01*
X168397000Y-82263150D01*
X168393928Y-82677400D01*
X168406188Y-82801882D01*
X168410308Y-82815462D01*
X167363249Y-83862521D01*
X167334179Y-83886378D01*
X167310322Y-83915448D01*
X167310321Y-83915449D01*
X167238955Y-84002408D01*
X167168199Y-84134785D01*
X167124627Y-84278422D01*
X167109914Y-84427800D01*
X167113601Y-84465233D01*
X167113601Y-84486655D01*
X167074369Y-84447423D01*
X166957959Y-84563833D01*
X166890980Y-84323744D01*
X166755240Y-84259915D01*
X166833727Y-84227405D01*
X167062535Y-84074520D01*
X167257120Y-83879935D01*
X167410005Y-83651127D01*
X167515314Y-83396890D01*
X167569000Y-83126992D01*
X167569000Y-82851808D01*
X167515314Y-82581910D01*
X167410005Y-82327673D01*
X167257120Y-82098865D01*
X167062535Y-81904280D01*
X166833727Y-81751395D01*
X166579490Y-81646086D01*
X166309592Y-81592400D01*
X166034408Y-81592400D01*
X165882790Y-81622559D01*
X162744330Y-78484100D01*
X166775570Y-78484100D01*
X168939871Y-80648402D01*
G36*
X139712820Y-49085151D02*
G01*
X139736678Y-49114222D01*
X139852708Y-49209445D01*
X139985085Y-49280202D01*
X140128722Y-49323774D01*
X140240674Y-49334800D01*
X140240676Y-49334800D01*
X140278099Y-49338486D01*
X140315522Y-49334800D01*
X147348270Y-49334800D01*
X150113735Y-52100265D01*
X149832883Y-52044400D01*
X149491117Y-52044400D01*
X149155919Y-52111075D01*
X148840169Y-52241863D01*
X148556002Y-52431737D01*
X148314337Y-52673402D01*
X148124463Y-52957569D01*
X147993675Y-53273319D01*
X147927000Y-53608517D01*
X147927000Y-53950283D01*
X147993675Y-54285481D01*
X148124463Y-54601231D01*
X148314337Y-54885398D01*
X148501539Y-55072600D01*
X143447123Y-55072600D01*
X143409700Y-55068914D01*
X143372277Y-55072600D01*
X143372274Y-55072600D01*
X143260322Y-55083626D01*
X143116685Y-55127198D01*
X143055064Y-55160135D01*
X142984307Y-55197955D01*
X142941919Y-55232743D01*
X142868278Y-55293178D01*
X142844416Y-55322254D01*
X131394661Y-66772009D01*
X131330980Y-66543744D01*
X131081952Y-66426644D01*
X130814865Y-66360377D01*
X130539983Y-66347490D01*
X130267867Y-66388478D01*
X130008977Y-66481764D01*
X129893020Y-66543744D01*
X129826040Y-66783835D01*
X130612000Y-67569795D01*
X130626143Y-67555653D01*
X130805748Y-67735258D01*
X130791605Y-67749400D01*
X130805748Y-67763543D01*
X130626143Y-67943148D01*
X130612000Y-67929005D01*
X129826040Y-68714965D01*
X129893020Y-68955056D01*
X129943960Y-68979010D01*
X128914970Y-70008000D01*
X128806779Y-70008000D01*
X128598222Y-70049485D01*
X128401765Y-70130860D01*
X128224959Y-70248998D01*
X128074598Y-70399359D01*
X127956460Y-70576165D01*
X127875085Y-70772622D01*
X127833600Y-70981179D01*
X127833600Y-71174800D01*
X127495031Y-71174800D01*
X125466630Y-69146400D01*
X125669592Y-69146400D01*
X125939490Y-69092714D01*
X126193727Y-68987405D01*
X126422535Y-68834520D01*
X126617120Y-68639935D01*
X126770005Y-68411127D01*
X126802000Y-68333885D01*
X126833995Y-68411127D01*
X126986880Y-68639935D01*
X127181465Y-68834520D01*
X127410273Y-68987405D01*
X127664510Y-69092714D01*
X127934408Y-69146400D01*
X128209592Y-69146400D01*
X128479490Y-69092714D01*
X128733727Y-68987405D01*
X128962535Y-68834520D01*
X129157120Y-68639935D01*
X129310005Y-68411127D01*
X129339692Y-68339457D01*
X129344364Y-68352423D01*
X129406344Y-68468380D01*
X129646435Y-68535360D01*
X130432395Y-67749400D01*
X129646435Y-66963440D01*
X129406344Y-67030420D01*
X129342515Y-67166160D01*
X129310005Y-67087673D01*
X129157120Y-66858865D01*
X128962535Y-66664280D01*
X128733727Y-66511395D01*
X128479490Y-66406086D01*
X128209592Y-66352400D01*
X127934408Y-66352400D01*
X127664510Y-66406086D01*
X127410273Y-66511395D01*
X127181465Y-66664280D01*
X126986880Y-66858865D01*
X126833995Y-67087673D01*
X126802000Y-67164915D01*
X126770005Y-67087673D01*
X126617120Y-66858865D01*
X126422535Y-66664280D01*
X126193727Y-66511395D01*
X125939490Y-66406086D01*
X125669592Y-66352400D01*
X125394408Y-66352400D01*
X125124510Y-66406086D01*
X124870273Y-66511395D01*
X124641465Y-66664280D01*
X124446880Y-66858865D01*
X124293995Y-67087673D01*
X124262000Y-67164915D01*
X124230005Y-67087673D01*
X124077120Y-66858865D01*
X123882535Y-66664280D01*
X123675972Y-66526258D01*
X138744347Y-51457883D01*
X138773422Y-51434022D01*
X138842313Y-51350078D01*
X138868645Y-51317993D01*
X138910653Y-51239400D01*
X138939402Y-51185615D01*
X138982974Y-51041978D01*
X138994000Y-50930026D01*
X138994000Y-50930023D01*
X138997686Y-50892600D01*
X138994000Y-50855177D01*
X138994000Y-48600405D01*
X139122535Y-48514520D01*
X139132362Y-48504693D01*
X139712820Y-49085151D01*
G37*
X139712820Y-49085151D02*
X139736678Y-49114222D01*
X139852708Y-49209445D01*
X139985085Y-49280202D01*
X140128722Y-49323774D01*
X140240674Y-49334800D01*
X140240676Y-49334800D01*
X140278099Y-49338486D01*
X140315522Y-49334800D01*
X147348270Y-49334800D01*
X150113735Y-52100265D01*
X149832883Y-52044400D01*
X149491117Y-52044400D01*
X149155919Y-52111075D01*
X148840169Y-52241863D01*
X148556002Y-52431737D01*
X148314337Y-52673402D01*
X148124463Y-52957569D01*
X147993675Y-53273319D01*
X147927000Y-53608517D01*
X147927000Y-53950283D01*
X147993675Y-54285481D01*
X148124463Y-54601231D01*
X148314337Y-54885398D01*
X148501539Y-55072600D01*
X143447123Y-55072600D01*
X143409700Y-55068914D01*
X143372277Y-55072600D01*
X143372274Y-55072600D01*
X143260322Y-55083626D01*
X143116685Y-55127198D01*
X143055064Y-55160135D01*
X142984307Y-55197955D01*
X142941919Y-55232743D01*
X142868278Y-55293178D01*
X142844416Y-55322254D01*
X131394661Y-66772009D01*
X131330980Y-66543744D01*
X131081952Y-66426644D01*
X130814865Y-66360377D01*
X130539983Y-66347490D01*
X130267867Y-66388478D01*
X130008977Y-66481764D01*
X129893020Y-66543744D01*
X129826040Y-66783835D01*
X130612000Y-67569795D01*
X130626143Y-67555653D01*
X130805748Y-67735258D01*
X130791605Y-67749400D01*
X130805748Y-67763543D01*
X130626143Y-67943148D01*
X130612000Y-67929005D01*
X129826040Y-68714965D01*
X129893020Y-68955056D01*
X129943960Y-68979010D01*
X128914970Y-70008000D01*
X128806779Y-70008000D01*
X128598222Y-70049485D01*
X128401765Y-70130860D01*
X128224959Y-70248998D01*
X128074598Y-70399359D01*
X127956460Y-70576165D01*
X127875085Y-70772622D01*
X127833600Y-70981179D01*
X127833600Y-71174800D01*
X127495031Y-71174800D01*
X125466630Y-69146400D01*
X125669592Y-69146400D01*
X125939490Y-69092714D01*
X126193727Y-68987405D01*
X126422535Y-68834520D01*
X126617120Y-68639935D01*
X126770005Y-68411127D01*
X126802000Y-68333885D01*
X126833995Y-68411127D01*
X126986880Y-68639935D01*
X127181465Y-68834520D01*
X127410273Y-68987405D01*
X127664510Y-69092714D01*
X127934408Y-69146400D01*
X128209592Y-69146400D01*
X128479490Y-69092714D01*
X128733727Y-68987405D01*
X128962535Y-68834520D01*
X129157120Y-68639935D01*
X129310005Y-68411127D01*
X129339692Y-68339457D01*
X129344364Y-68352423D01*
X129406344Y-68468380D01*
X129646435Y-68535360D01*
X130432395Y-67749400D01*
X129646435Y-66963440D01*
X129406344Y-67030420D01*
X129342515Y-67166160D01*
X129310005Y-67087673D01*
X129157120Y-66858865D01*
X128962535Y-66664280D01*
X128733727Y-66511395D01*
X128479490Y-66406086D01*
X128209592Y-66352400D01*
X127934408Y-66352400D01*
X127664510Y-66406086D01*
X127410273Y-66511395D01*
X127181465Y-66664280D01*
X126986880Y-66858865D01*
X126833995Y-67087673D01*
X126802000Y-67164915D01*
X126770005Y-67087673D01*
X126617120Y-66858865D01*
X126422535Y-66664280D01*
X126193727Y-66511395D01*
X125939490Y-66406086D01*
X125669592Y-66352400D01*
X125394408Y-66352400D01*
X125124510Y-66406086D01*
X124870273Y-66511395D01*
X124641465Y-66664280D01*
X124446880Y-66858865D01*
X124293995Y-67087673D01*
X124262000Y-67164915D01*
X124230005Y-67087673D01*
X124077120Y-66858865D01*
X123882535Y-66664280D01*
X123675972Y-66526258D01*
X138744347Y-51457883D01*
X138773422Y-51434022D01*
X138842313Y-51350078D01*
X138868645Y-51317993D01*
X138910653Y-51239400D01*
X138939402Y-51185615D01*
X138982974Y-51041978D01*
X138994000Y-50930026D01*
X138994000Y-50930023D01*
X138997686Y-50892600D01*
X138994000Y-50855177D01*
X138994000Y-48600405D01*
X139122535Y-48514520D01*
X139132362Y-48504693D01*
X139712820Y-49085151D01*
G36*
X171379000Y-67622400D02*
G01*
X171399000Y-67622400D01*
X171399000Y-67876400D01*
X171379000Y-67876400D01*
X171379000Y-67896400D01*
X171125000Y-67896400D01*
X171125000Y-67876400D01*
X171105000Y-67876400D01*
X171105000Y-67622400D01*
X171125000Y-67622400D01*
X171125000Y-67602400D01*
X171379000Y-67602400D01*
X171379000Y-67622400D01*
G37*
X171379000Y-67622400D02*
X171399000Y-67622400D01*
X171399000Y-67876400D01*
X171379000Y-67876400D01*
X171379000Y-67896400D01*
X171125000Y-67896400D01*
X171125000Y-67876400D01*
X171105000Y-67876400D01*
X171105000Y-67622400D01*
X171125000Y-67622400D01*
X171125000Y-67602400D01*
X171379000Y-67602400D01*
X171379000Y-67622400D01*
%TD*%
M02*
