%TF.GenerationSoftware,KiCad,Pcbnew,(5.1.6)-1*%
%TF.CreationDate,2020-10-07T23:45:21+02:00*%
%TF.ProjectId,RPI_FEATHER,5250495f-4645-4415-9448-45522e6b6963,rev?*%
%TF.SameCoordinates,Original*%
%TF.FileFunction,Copper,L1,Top*%
%TF.FilePolarity,Positive*%
%FSLAX46Y46*%
G04 Gerber Fmt 4.6, Leading zero omitted, Abs format (unit mm)*
G04 Created by KiCad (PCBNEW (5.1.6)-1) date 2020-10-07 23:45:21*
%MOMM*%
%LPD*%
G01*
G04 APERTURE LIST*
%TA.AperFunction,ComponentPad*%
%ADD10C,1.524000*%
%TD*%
%TA.AperFunction,ComponentPad*%
%ADD11R,1.524000X1.524000*%
%TD*%
%TA.AperFunction,WasherPad*%
%ADD12C,3.556000*%
%TD*%
%TA.AperFunction,ComponentPad*%
%ADD13O,1.700000X1.700000*%
%TD*%
%TA.AperFunction,ComponentPad*%
%ADD14R,1.700000X1.700000*%
%TD*%
%TA.AperFunction,ViaPad*%
%ADD15C,0.889000*%
%TD*%
%TA.AperFunction,Conductor*%
%ADD16C,0.254000*%
%TD*%
G04 APERTURE END LIST*
D10*
%TO.P,PI2,40*%
%TO.N,/GPIO21*%
X117912000Y-93276400D03*
%TO.P,PI2,39*%
%TO.N,GND*%
X117912000Y-90736400D03*
%TO.P,PI2,38*%
%TO.N,/GPIO20*%
X120452000Y-93276400D03*
%TO.P,PI2,37*%
%TO.N,/GPIO26*%
X120452000Y-90736400D03*
%TO.P,PI2,36*%
%TO.N,/GPIO16*%
X122992000Y-93276400D03*
%TO.P,PI2,35*%
%TO.N,/GPIO19*%
X122992000Y-90736400D03*
%TO.P,PI2,34*%
%TO.N,GND*%
X125532000Y-93276400D03*
%TO.P,PI2,33*%
%TO.N,/GPIO13*%
X125532000Y-90736400D03*
%TO.P,PI2,32*%
%TO.N,/GPIO12*%
X128072000Y-93276400D03*
%TO.P,PI2,31*%
%TO.N,/GPIO6*%
X128072000Y-90736400D03*
%TO.P,PI2,30*%
%TO.N,GND*%
X130612000Y-93276400D03*
%TO.P,PI2,29*%
%TO.N,/GPIO5*%
X130612000Y-90736400D03*
%TO.P,PI2,28*%
%TO.N,Net-(PI1-Pad28)*%
X133152000Y-93276400D03*
%TO.P,PI2,27*%
%TO.N,/A0*%
X133152000Y-90736400D03*
%TO.P,PI2,26*%
%TO.N,Net-(PI1-Pad26)*%
X135692000Y-93276400D03*
%TO.P,PI2,25*%
%TO.N,GND*%
X135692000Y-90736400D03*
%TO.P,PI2,24*%
%TO.N,/F13*%
X138232000Y-93276400D03*
%TO.P,PI2,23*%
%TO.N,/SCK*%
X138232000Y-90736400D03*
%TO.P,PI2,22*%
%TO.N,/F12*%
X140772000Y-93276400D03*
%TO.P,PI2,21*%
%TO.N,/MISO*%
X140772000Y-90736400D03*
%TO.P,PI2,20*%
%TO.N,GND*%
X143312000Y-93276400D03*
%TO.P,PI2,19*%
%TO.N,/MOSI*%
X143312000Y-90736400D03*
%TO.P,PI2,18*%
%TO.N,/F11*%
X145852000Y-93276400D03*
%TO.P,PI2,17*%
%TO.N,3.3v*%
X145852000Y-90736400D03*
%TO.P,PI2,16*%
%TO.N,/GPIO23*%
X148392000Y-93276400D03*
%TO.P,PI2,15*%
%TO.N,/F9*%
X148392000Y-90736400D03*
%TO.P,PI2,14*%
%TO.N,GND*%
X150932000Y-93276400D03*
%TO.P,PI2,13*%
%TO.N,/F6*%
X150932000Y-90736400D03*
%TO.P,PI2,12*%
%TO.N,/GPIO18*%
X153472000Y-93276400D03*
%TO.P,PI2,11*%
%TO.N,/F5*%
X153472000Y-90736400D03*
%TO.P,PI2,10*%
%TO.N,/TX*%
X156012000Y-93276400D03*
%TO.P,PI2,9*%
%TO.N,GND*%
X156012000Y-90736400D03*
%TO.P,PI2,8*%
%TO.N,/RX*%
X158552000Y-93276400D03*
%TO.P,PI2,7*%
%TO.N,/GPIO4*%
X158552000Y-90736400D03*
%TO.P,PI2,6*%
%TO.N,GND*%
X161092000Y-93276400D03*
%TO.P,PI2,5*%
%TO.N,SCL*%
X161092000Y-90736400D03*
%TO.P,PI2,4*%
%TO.N,/5v*%
X163632000Y-93276400D03*
%TO.P,PI2,3*%
%TO.N,SDA*%
X163632000Y-90736400D03*
%TO.P,PI2,2*%
%TO.N,/5v*%
X166172000Y-93276400D03*
D11*
%TO.P,PI2,1*%
%TO.N,3.3v*%
X166172000Y-90736400D03*
%TD*%
D12*
%TO.P,U1,*%
%TO.N,*%
X164902000Y-66479400D03*
X119182000Y-66479400D03*
X164902000Y-48699400D03*
X119182000Y-48699400D03*
D10*
%TO.P,U1,1*%
%TO.N,/FSDA*%
X161092000Y-47429400D03*
%TO.P,U1,2*%
%TO.N,/FSCL*%
X158552000Y-47429400D03*
%TO.P,U1,3*%
%TO.N,/F5*%
X156012000Y-47429400D03*
%TO.P,U1,4*%
%TO.N,/F6*%
X153472000Y-47429400D03*
%TO.P,U1,5*%
%TO.N,/F9*%
X150932000Y-47429400D03*
%TO.P,U1,6*%
%TO.N,N/C*%
X148392000Y-47429400D03*
%TO.P,U1,7*%
%TO.N,/F11*%
X145852000Y-47429400D03*
%TO.P,U1,8*%
%TO.N,/F12*%
X143312000Y-47429400D03*
%TO.P,U1,9*%
%TO.N,/F13*%
X140772000Y-47429400D03*
%TO.P,U1,10*%
%TO.N,/5v*%
X138232000Y-47429400D03*
%TO.P,U1,11*%
%TO.N,N/C*%
X135692000Y-47429400D03*
%TO.P,U1,12*%
X133152000Y-47429400D03*
%TO.P,U1,13*%
X161092000Y-67749400D03*
%TO.P,U1,14*%
%TO.N,Net-(R1-Pad2)*%
X158552000Y-67749400D03*
%TO.P,U1,15*%
%TO.N,Net-(R2-Pad2)*%
X156012000Y-67749400D03*
%TO.P,U1,16*%
%TO.N,/MISO*%
X153472000Y-67749400D03*
%TO.P,U1,17*%
%TO.N,/MOSI*%
X150932000Y-67749400D03*
%TO.P,U1,18*%
%TO.N,/SCK*%
X148392000Y-67749400D03*
%TO.P,U1,19*%
%TO.N,/A5*%
X145852000Y-67749400D03*
%TO.P,U1,20*%
%TO.N,/A4*%
X143312000Y-67749400D03*
%TO.P,U1,21*%
%TO.N,/A3*%
X140772000Y-67749400D03*
%TO.P,U1,22*%
%TO.N,/A2*%
X138232000Y-67749400D03*
%TO.P,U1,23*%
%TO.N,/A1*%
X135692000Y-67749400D03*
%TO.P,U1,24*%
%TO.N,/A0*%
X133152000Y-67749400D03*
%TO.P,U1,25*%
%TO.N,GND*%
X130612000Y-67749400D03*
%TO.P,U1,26*%
%TO.N,N/C*%
X128072000Y-67749400D03*
%TO.P,U1,27*%
%TO.N,3.3v*%
X125532000Y-67749400D03*
%TO.P,U1,28*%
%TO.N,/FRST*%
X122992000Y-67749400D03*
%TD*%
D11*
%TO.P,PI1,1*%
%TO.N,3.3v*%
X117912000Y-84513400D03*
D10*
%TO.P,PI1,2*%
%TO.N,/5v*%
X117912000Y-81973400D03*
%TO.P,PI1,3*%
%TO.N,SDA*%
X120452000Y-84513400D03*
%TO.P,PI1,4*%
%TO.N,/5v*%
X120452000Y-81973400D03*
%TO.P,PI1,5*%
%TO.N,SCL*%
X122992000Y-84513400D03*
%TO.P,PI1,6*%
%TO.N,GND*%
X122992000Y-81973400D03*
%TO.P,PI1,7*%
%TO.N,/GPIO4*%
X125532000Y-84513400D03*
%TO.P,PI1,8*%
%TO.N,/RX*%
X125532000Y-81973400D03*
%TO.P,PI1,9*%
%TO.N,GND*%
X128072000Y-84513400D03*
%TO.P,PI1,10*%
%TO.N,/TX*%
X128072000Y-81973400D03*
%TO.P,PI1,11*%
%TO.N,/F5*%
X130612000Y-84513400D03*
%TO.P,PI1,12*%
%TO.N,/GPIO18*%
X130612000Y-81973400D03*
%TO.P,PI1,13*%
%TO.N,/F6*%
X133152000Y-84513400D03*
%TO.P,PI1,14*%
%TO.N,GND*%
X133152000Y-81973400D03*
%TO.P,PI1,15*%
%TO.N,/F9*%
X135692000Y-84513400D03*
%TO.P,PI1,16*%
%TO.N,/GPIO23*%
X135692000Y-81973400D03*
%TO.P,PI1,17*%
%TO.N,3.3v*%
X138232000Y-84513400D03*
%TO.P,PI1,18*%
%TO.N,/F11*%
X138232000Y-81973400D03*
%TO.P,PI1,19*%
%TO.N,/MOSI*%
X140772000Y-84513400D03*
%TO.P,PI1,20*%
%TO.N,GND*%
X140772000Y-81973400D03*
%TO.P,PI1,21*%
%TO.N,/MISO*%
X143312000Y-84513400D03*
%TO.P,PI1,22*%
%TO.N,/F12*%
X143312000Y-81973400D03*
%TO.P,PI1,23*%
%TO.N,/SCK*%
X145852000Y-84513400D03*
%TO.P,PI1,24*%
%TO.N,/F13*%
X145852000Y-81973400D03*
%TO.P,PI1,25*%
%TO.N,GND*%
X148392000Y-84513400D03*
%TO.P,PI1,26*%
%TO.N,Net-(PI1-Pad26)*%
X148392000Y-81973400D03*
%TO.P,PI1,27*%
%TO.N,/A0*%
X150932000Y-84513400D03*
%TO.P,PI1,28*%
%TO.N,Net-(PI1-Pad28)*%
X150932000Y-81973400D03*
%TO.P,PI1,29*%
%TO.N,/GPIO5*%
X153472000Y-84513400D03*
%TO.P,PI1,30*%
%TO.N,GND*%
X153472000Y-81973400D03*
%TO.P,PI1,31*%
%TO.N,/GPIO6*%
X156012000Y-84513400D03*
%TO.P,PI1,32*%
%TO.N,/GPIO12*%
X156012000Y-81973400D03*
%TO.P,PI1,33*%
%TO.N,/GPIO13*%
X158552000Y-84513400D03*
%TO.P,PI1,34*%
%TO.N,GND*%
X158552000Y-81973400D03*
%TO.P,PI1,35*%
%TO.N,/GPIO19*%
X161092000Y-84513400D03*
%TO.P,PI1,36*%
%TO.N,/GPIO16*%
X161092000Y-81973400D03*
%TO.P,PI1,37*%
%TO.N,/GPIO26*%
X163632000Y-84513400D03*
%TO.P,PI1,38*%
%TO.N,/GPIO20*%
X163632000Y-81973400D03*
%TO.P,PI1,39*%
%TO.N,GND*%
X166172000Y-84513400D03*
%TO.P,PI1,40*%
%TO.N,/GPIO21*%
X166172000Y-81973400D03*
%TD*%
%TO.P,D1,1*%
%TO.N,GND*%
%TA.AperFunction,SMDPad,CuDef*%
G36*
G01*
X169032000Y-82427401D02*
X169032000Y-81527399D01*
G75*
G02*
X169281999Y-81277400I249999J0D01*
G01*
X169932001Y-81277400D01*
G75*
G02*
X170182000Y-81527399I0J-249999D01*
G01*
X170182000Y-82427401D01*
G75*
G02*
X169932001Y-82677400I-249999J0D01*
G01*
X169281999Y-82677400D01*
G75*
G02*
X169032000Y-82427401I0J249999D01*
G01*
G37*
%TD.AperFunction*%
%TO.P,D1,2*%
%TO.N,Net-(D1-Pad2)*%
%TA.AperFunction,SMDPad,CuDef*%
G36*
G01*
X171082000Y-82427401D02*
X171082000Y-81527399D01*
G75*
G02*
X171331999Y-81277400I249999J0D01*
G01*
X171982001Y-81277400D01*
G75*
G02*
X172232000Y-81527399I0J-249999D01*
G01*
X172232000Y-82427401D01*
G75*
G02*
X171982001Y-82677400I-249999J0D01*
G01*
X171331999Y-82677400D01*
G75*
G02*
X171082000Y-82427401I0J249999D01*
G01*
G37*
%TD.AperFunction*%
%TD*%
%TO.P,R3,1*%
%TO.N,3.3v*%
%TA.AperFunction,SMDPad,CuDef*%
G36*
G01*
X168890000Y-84963401D02*
X168890000Y-84063399D01*
G75*
G02*
X169139999Y-83813400I249999J0D01*
G01*
X169790001Y-83813400D01*
G75*
G02*
X170040000Y-84063399I0J-249999D01*
G01*
X170040000Y-84963401D01*
G75*
G02*
X169790001Y-85213400I-249999J0D01*
G01*
X169139999Y-85213400D01*
G75*
G02*
X168890000Y-84963401I0J249999D01*
G01*
G37*
%TD.AperFunction*%
%TO.P,R3,2*%
%TO.N,Net-(D1-Pad2)*%
%TA.AperFunction,SMDPad,CuDef*%
G36*
G01*
X170940000Y-84963401D02*
X170940000Y-84063399D01*
G75*
G02*
X171189999Y-83813400I249999J0D01*
G01*
X171840001Y-83813400D01*
G75*
G02*
X172090000Y-84063399I0J-249999D01*
G01*
X172090000Y-84963401D01*
G75*
G02*
X171840001Y-85213400I-249999J0D01*
G01*
X171189999Y-85213400D01*
G75*
G02*
X170940000Y-84963401I0J249999D01*
G01*
G37*
%TD.AperFunction*%
%TD*%
D13*
%TO.P,J1,12*%
%TO.N,/MISO*%
X171252000Y-75369400D03*
%TO.P,J1,11*%
%TO.N,/MOSI*%
X171252000Y-72829400D03*
%TO.P,J1,10*%
%TO.N,/SCK*%
X171252000Y-70289400D03*
%TO.P,J1,9*%
%TO.N,GND*%
X171252000Y-67749400D03*
%TO.P,J1,8*%
%TO.N,3.3v*%
X171252000Y-65209400D03*
%TO.P,J1,7*%
%TO.N,/FRST*%
X171252000Y-62669400D03*
%TO.P,J1,6*%
%TO.N,/A0*%
X171252000Y-60129400D03*
%TO.P,J1,5*%
%TO.N,/A1*%
X171252000Y-57589400D03*
%TO.P,J1,4*%
%TO.N,/A2*%
X171252000Y-55049400D03*
%TO.P,J1,3*%
%TO.N,/A3*%
X171252000Y-52509400D03*
%TO.P,J1,2*%
%TO.N,/A4*%
X171252000Y-49969400D03*
D14*
%TO.P,J1,1*%
%TO.N,/A5*%
X171252000Y-47429400D03*
%TD*%
%TO.P,J2,1*%
%TO.N,/GPIO4*%
X112832000Y-47429400D03*
D13*
%TO.P,J2,2*%
%TO.N,/GPIO5*%
X112832000Y-49969400D03*
%TO.P,J2,3*%
%TO.N,/GPIO6*%
X112832000Y-52509400D03*
%TO.P,J2,4*%
%TO.N,/GPIO12*%
X112832000Y-55049400D03*
%TO.P,J2,5*%
%TO.N,/GPIO13*%
X112832000Y-57589400D03*
%TO.P,J2,6*%
%TO.N,/GPIO16*%
X112832000Y-60129400D03*
%TO.P,J2,7*%
%TO.N,/GPIO18*%
X112832000Y-62669400D03*
%TO.P,J2,8*%
%TO.N,/GPIO19*%
X112832000Y-65209400D03*
%TO.P,J2,9*%
%TO.N,/GPIO20*%
X112832000Y-67749400D03*
%TO.P,J2,10*%
%TO.N,/GPIO21*%
X112832000Y-70289400D03*
%TO.P,J2,11*%
%TO.N,/GPIO23*%
X112832000Y-72829400D03*
%TO.P,J2,12*%
%TO.N,/GPIO26*%
X112832000Y-75369400D03*
%TD*%
D15*
%TO.N,3.3v*%
X138232000Y-88351000D03*
X136931200Y-78288300D03*
X150468200Y-71778200D03*
%TO.N,/5v*%
X131484900Y-48825700D03*
%TO.N,/RX*%
X121870100Y-77838100D03*
X121870100Y-68738900D03*
X147782900Y-65245600D03*
%TO.N,/TX*%
X160681000Y-86362000D03*
X162386900Y-73587000D03*
X133411900Y-72777900D03*
X149831300Y-73587000D03*
%TO.N,/MOSI*%
X147442100Y-80368300D03*
X157500000Y-76409400D03*
%TO.N,/SCK*%
X142313700Y-89176900D03*
X148392000Y-72637500D03*
%TO.N,/A0*%
X132268600Y-72874200D03*
X168200200Y-62844600D03*
%TO.N,/GPIO4*%
X163249600Y-88315300D03*
X171686700Y-77877400D03*
%TO.N,/GPIO6*%
X159782900Y-89894800D03*
%TO.N,/GPIO12*%
X158613700Y-79230100D03*
X151253900Y-59154400D03*
%TO.N,/GPIO16*%
X154331800Y-59863400D03*
%TO.N,/GPIO20*%
X155475200Y-59820600D03*
X114486100Y-60705100D03*
%TO.N,/GPIO21*%
X117343200Y-79703100D03*
X117343200Y-70798600D03*
%TO.N,/GPIO23*%
X134421800Y-87765900D03*
%TO.N,/F5*%
X121007100Y-73585400D03*
%TO.N,/F6*%
X123587500Y-76125400D03*
%TO.N,/F9*%
X136253700Y-87752900D03*
%TO.N,/F11*%
X136962100Y-94143400D03*
X128593100Y-72334500D03*
%TO.N,/F12*%
X138523900Y-72566300D03*
%TO.N,/F13*%
X137001800Y-73392200D03*
%TO.N,SDA*%
X121964000Y-95254700D03*
%TD*%
D16*
%TO.N,GND*%
X143312000Y-93276400D02*
X142042000Y-92006400D01*
X142042000Y-92006400D02*
X136962000Y-92006400D01*
X136962000Y-92006400D02*
X135692000Y-90736400D01*
X150932000Y-93276400D02*
X149788700Y-92133100D01*
X149788700Y-92133100D02*
X144455300Y-92133100D01*
X144455300Y-92133100D02*
X143312000Y-93276400D01*
X159822000Y-83322800D02*
X159822000Y-85656800D01*
X159822000Y-85656800D02*
X156012000Y-89466800D01*
X156012000Y-89466800D02*
X156012000Y-90736400D01*
X158552000Y-81973400D02*
X159822000Y-83243400D01*
X159822000Y-83243400D02*
X159822000Y-83322800D01*
X166172000Y-84513400D02*
X164981400Y-83322800D01*
X164981400Y-83322800D02*
X159822000Y-83322800D01*
X166172000Y-84513400D02*
X167071000Y-84513400D01*
X167071000Y-84513400D02*
X169607000Y-81977400D01*
X154840400Y-93762200D02*
X154172900Y-94429700D01*
X154172900Y-94429700D02*
X152085300Y-94429700D01*
X152085300Y-94429700D02*
X150932000Y-93276400D01*
X140772000Y-81973400D02*
X140772000Y-80916000D01*
X140772000Y-80916000D02*
X135063500Y-75207500D01*
X135063500Y-75207500D02*
X133433800Y-75207500D01*
X133433800Y-75207500D02*
X130612000Y-72385700D01*
X130612000Y-72385700D02*
X130612000Y-67749400D01*
X158552000Y-81973400D02*
X157377200Y-83148200D01*
X157377200Y-83148200D02*
X154646800Y-83148200D01*
X154646800Y-83148200D02*
X153472000Y-81973400D01*
X127206700Y-84571100D02*
X126005600Y-83370000D01*
X126005600Y-83370000D02*
X125150200Y-83370000D01*
X125150200Y-83370000D02*
X123753600Y-81973400D01*
X123753600Y-81973400D02*
X122992000Y-81973400D01*
X127206700Y-84571100D02*
X127264400Y-84513400D01*
X127264400Y-84513400D02*
X128072000Y-84513400D01*
X123489200Y-89574300D02*
X123489200Y-88288600D01*
X123489200Y-88288600D02*
X127206700Y-84571100D01*
X123489200Y-89574300D02*
X124262000Y-90347100D01*
X124262000Y-90347100D02*
X124262000Y-92006400D01*
X124262000Y-92006400D02*
X125532000Y-93276400D01*
X117912000Y-90736400D02*
X119074100Y-89574300D01*
X119074100Y-89574300D02*
X123489200Y-89574300D01*
X135692000Y-90736400D02*
X134422000Y-92006400D01*
X134422000Y-92006400D02*
X131882000Y-92006400D01*
X131882000Y-92006400D02*
X130612000Y-93276400D01*
X154840400Y-93762200D02*
X154840400Y-91908000D01*
X154840400Y-91908000D02*
X156012000Y-90736400D01*
X161092000Y-93276400D02*
X159948000Y-94420400D01*
X159948000Y-94420400D02*
X155498600Y-94420400D01*
X155498600Y-94420400D02*
X154840400Y-93762200D01*
X153472000Y-81973400D02*
X152202000Y-83243400D01*
X152202000Y-83243400D02*
X149662000Y-83243400D01*
X149662000Y-83243400D02*
X148392000Y-84513400D01*
%TO.N,3.3v*%
X145852000Y-90736400D02*
X145133200Y-90736400D01*
X145133200Y-90736400D02*
X142747800Y-88351000D01*
X142747800Y-88351000D02*
X138232000Y-88351000D01*
X136931200Y-78288300D02*
X135781800Y-78288300D01*
X135781800Y-78288300D02*
X125532000Y-68038500D01*
X125532000Y-68038500D02*
X125532000Y-67749400D01*
X136931200Y-78288300D02*
X139422600Y-80779700D01*
X139422600Y-80779700D02*
X139422600Y-83322800D01*
X139422600Y-83322800D02*
X138232000Y-84513400D01*
X166172000Y-90736400D02*
X166172000Y-89593100D01*
X166172000Y-89593100D02*
X169465000Y-86300100D01*
X169465000Y-86300100D02*
X169465000Y-84513400D01*
X170020700Y-65209400D02*
X163451900Y-71778200D01*
X163451900Y-71778200D02*
X150468200Y-71778200D01*
X171252000Y-65209400D02*
X170020700Y-65209400D01*
%TO.N,/5v*%
X138232000Y-47429400D02*
X136835700Y-48825700D01*
X136835700Y-48825700D02*
X131484900Y-48825700D01*
X120452000Y-81973400D02*
X117912000Y-81973400D01*
X166172000Y-93276400D02*
X163632000Y-93276400D01*
%TO.N,/RX*%
X125532000Y-81973400D02*
X121870100Y-78311500D01*
X121870100Y-78311500D02*
X121870100Y-77838100D01*
X147782900Y-65245600D02*
X123874200Y-65245600D01*
X123874200Y-65245600D02*
X121774800Y-67345000D01*
X121774800Y-67345000D02*
X121774800Y-68643600D01*
X121774800Y-68643600D02*
X121870100Y-68738900D01*
%TO.N,/TX*%
X149831300Y-73587000D02*
X149831300Y-72905000D01*
X149831300Y-72905000D02*
X148614200Y-71687900D01*
X148614200Y-71687900D02*
X134501900Y-71687900D01*
X134501900Y-71687900D02*
X133411900Y-72777900D01*
X149831300Y-73587000D02*
X162386900Y-73587000D01*
X160681000Y-86362000D02*
X157282000Y-89761000D01*
X157282000Y-89761000D02*
X157282000Y-92006400D01*
X157282000Y-92006400D02*
X156012000Y-93276400D01*
%TO.N,/MISO*%
X171252000Y-74138100D02*
X171713700Y-74138100D01*
X171713700Y-74138100D02*
X172491900Y-73359900D01*
X172491900Y-73359900D02*
X172491900Y-62159600D01*
X172491900Y-62159600D02*
X171698400Y-61366100D01*
X171698400Y-61366100D02*
X163838400Y-61366100D01*
X163838400Y-61366100D02*
X159202300Y-66002200D01*
X159202300Y-66002200D02*
X155219200Y-66002200D01*
X155219200Y-66002200D02*
X153472000Y-67749400D01*
X143312000Y-84513400D02*
X144031400Y-84513400D01*
X144031400Y-84513400D02*
X145174800Y-85656800D01*
X145174800Y-85656800D02*
X146353100Y-85656800D01*
X146353100Y-85656800D02*
X146995400Y-85014500D01*
X146995400Y-85014500D02*
X146995400Y-84255600D01*
X146995400Y-84255600D02*
X148007600Y-83243400D01*
X148007600Y-83243400D02*
X148749900Y-83243400D01*
X148749900Y-83243400D02*
X149538700Y-82454600D01*
X149538700Y-82454600D02*
X149538700Y-81738600D01*
X149538700Y-81738600D02*
X153299000Y-77978300D01*
X153299000Y-77978300D02*
X167411900Y-77978300D01*
X167411900Y-77978300D02*
X167411900Y-77978200D01*
X167411900Y-77978200D02*
X170020700Y-75369400D01*
X171252000Y-75369400D02*
X171252000Y-74138100D01*
X171252000Y-75369400D02*
X170020700Y-75369400D01*
%TO.N,/MOSI*%
X157500000Y-76409400D02*
X151401000Y-76409400D01*
X151401000Y-76409400D02*
X147442100Y-80368300D01*
X170020700Y-72829400D02*
X166440700Y-76409400D01*
X166440700Y-76409400D02*
X157500000Y-76409400D01*
X171252000Y-72829400D02*
X170020700Y-72829400D01*
%TO.N,/SCK*%
X138232000Y-90736400D02*
X139791500Y-89176900D01*
X139791500Y-89176900D02*
X142313700Y-89176900D01*
X148702500Y-74460600D02*
X148702500Y-72948000D01*
X148702500Y-72948000D02*
X148392000Y-72637500D01*
X145852000Y-84513400D02*
X147021900Y-83343500D01*
X147021900Y-83343500D02*
X147021900Y-81222600D01*
X147021900Y-81222600D02*
X146597300Y-80798000D01*
X146597300Y-80798000D02*
X146597300Y-76565800D01*
X146597300Y-76565800D02*
X148702500Y-74460600D01*
X170020700Y-70289400D02*
X165849500Y-74460600D01*
X165849500Y-74460600D02*
X148702500Y-74460600D01*
X171252000Y-70289400D02*
X170020700Y-70289400D01*
%TO.N,Net-(D1-Pad2)*%
X171657000Y-81977400D02*
X171515000Y-82119400D01*
X171515000Y-82119400D02*
X171515000Y-84513400D01*
%TO.N,/FRST*%
X170020700Y-62669400D02*
X169315300Y-61964000D01*
X169315300Y-61964000D02*
X164232600Y-61964000D01*
X164232600Y-61964000D02*
X159686000Y-66510600D01*
X159686000Y-66510600D02*
X158101200Y-66510600D01*
X158101200Y-66510600D02*
X157282000Y-67329800D01*
X157282000Y-67329800D02*
X157282000Y-68111400D01*
X157282000Y-68111400D02*
X154957800Y-70435600D01*
X154957800Y-70435600D02*
X139421600Y-70435600D01*
X139421600Y-70435600D02*
X139287000Y-70301000D01*
X139287000Y-70301000D02*
X136564400Y-70301000D01*
X136564400Y-70301000D02*
X134422000Y-68158600D01*
X134422000Y-68158600D02*
X134422000Y-67382200D01*
X134422000Y-67382200D02*
X133644600Y-66604800D01*
X133644600Y-66604800D02*
X124136600Y-66604800D01*
X124136600Y-66604800D02*
X122992000Y-67749400D01*
X171252000Y-62669400D02*
X170020700Y-62669400D01*
%TO.N,/A0*%
X168200200Y-62844600D02*
X168200200Y-62844700D01*
X168200200Y-62844700D02*
X164344100Y-62844700D01*
X164344100Y-62844700D02*
X159822000Y-67366800D01*
X159822000Y-67366800D02*
X159822000Y-68117500D01*
X159822000Y-68117500D02*
X156987100Y-70952400D01*
X156987100Y-70952400D02*
X139219600Y-70952400D01*
X139219600Y-70952400D02*
X139076500Y-70809300D01*
X139076500Y-70809300D02*
X134649300Y-70809300D01*
X134649300Y-70809300D02*
X134427000Y-70586900D01*
X133152000Y-67749400D02*
X133152000Y-69312000D01*
X133152000Y-69312000D02*
X134427000Y-70586900D01*
X134427000Y-70586900D02*
X132394900Y-72619000D01*
X132394900Y-72619000D02*
X132394900Y-72874200D01*
X132394900Y-72874200D02*
X132268600Y-72874200D01*
X132394900Y-72874200D02*
X132394900Y-72997000D01*
X132394900Y-72997000D02*
X133001600Y-73603700D01*
X133001600Y-73603700D02*
X134220200Y-73603700D01*
X134220200Y-73603700D02*
X142037300Y-81420800D01*
X142037300Y-81420800D02*
X142037300Y-84859400D01*
X142037300Y-84859400D02*
X142987400Y-85809500D01*
X142987400Y-85809500D02*
X144608700Y-85809500D01*
X144608700Y-85809500D02*
X144989300Y-86190100D01*
X144989300Y-86190100D02*
X149255300Y-86190100D01*
X149255300Y-86190100D02*
X150932000Y-84513400D01*
%TO.N,/A1*%
X170020700Y-57589400D02*
X166896300Y-57589400D01*
X166896300Y-57589400D02*
X158991800Y-65493900D01*
X158991800Y-65493900D02*
X154109800Y-65493900D01*
X154109800Y-65493900D02*
X152202000Y-67401700D01*
X152202000Y-67401700D02*
X152202000Y-68167200D01*
X152202000Y-68167200D02*
X150442000Y-69927200D01*
X150442000Y-69927200D02*
X139632000Y-69927200D01*
X139632000Y-69927200D02*
X139497500Y-69792700D01*
X139497500Y-69792700D02*
X137735300Y-69792700D01*
X137735300Y-69792700D02*
X135692000Y-67749400D01*
X171252000Y-57589400D02*
X170020700Y-57589400D01*
%TO.N,/A2*%
X138232000Y-67749400D02*
X139901400Y-69418800D01*
X139901400Y-69418800D02*
X148403500Y-69418800D01*
X148403500Y-69418800D02*
X149662000Y-68160300D01*
X149662000Y-68160300D02*
X149662000Y-67398500D01*
X149662000Y-67398500D02*
X153470100Y-63590400D01*
X153470100Y-63590400D02*
X160176300Y-63590400D01*
X160176300Y-63590400D02*
X168717200Y-55049500D01*
X168717200Y-55049500D02*
X170020700Y-55049500D01*
X170020700Y-55049500D02*
X170020700Y-55049400D01*
X171252000Y-55049400D02*
X170020700Y-55049400D01*
%TO.N,/A3*%
X140772000Y-67749400D02*
X141933000Y-68910400D01*
X141933000Y-68910400D02*
X146327500Y-68910400D01*
X146327500Y-68910400D02*
X147122000Y-68115900D01*
X147122000Y-68115900D02*
X147122000Y-67338900D01*
X147122000Y-67338900D02*
X147881100Y-66579800D01*
X147881100Y-66579800D02*
X149569000Y-66579800D01*
X149569000Y-66579800D02*
X153102900Y-63045900D01*
X153102900Y-63045900D02*
X159484200Y-63045900D01*
X159484200Y-63045900D02*
X170020700Y-52509400D01*
X171252000Y-52509400D02*
X170020700Y-52509400D01*
%TO.N,/A4*%
X171252000Y-49969400D02*
X170020700Y-49969400D01*
X170020700Y-49969400D02*
X158171300Y-61818800D01*
X158171300Y-61818800D02*
X152994400Y-61818800D01*
X152994400Y-61818800D02*
X148741800Y-66071400D01*
X148741800Y-66071400D02*
X144990000Y-66071400D01*
X144990000Y-66071400D02*
X143312000Y-67749400D01*
%TO.N,/GPIO4*%
X163249600Y-88315300D02*
X160137200Y-88315300D01*
X160137200Y-88315300D02*
X158552000Y-89900500D01*
X158552000Y-89900500D02*
X158552000Y-90736400D01*
X125532000Y-84513400D02*
X124135400Y-83116800D01*
X124135400Y-83116800D02*
X122484600Y-83116800D01*
X122484600Y-83116800D02*
X121595400Y-82227600D01*
X121595400Y-82227600D02*
X121595400Y-81416300D01*
X121595400Y-81416300D02*
X118267800Y-78088700D01*
X118267800Y-78088700D02*
X113739500Y-78088700D01*
X113739500Y-78088700D02*
X111079000Y-75428200D01*
X111079000Y-75428200D02*
X111079000Y-49952000D01*
X111079000Y-49952000D02*
X112370300Y-48660700D01*
X112370300Y-48660700D02*
X112832000Y-48660700D01*
X112832000Y-48045000D02*
X114615400Y-46261600D01*
X114615400Y-46261600D02*
X166141800Y-46261600D01*
X166141800Y-46261600D02*
X168541000Y-48660800D01*
X168541000Y-48660800D02*
X171744200Y-48660800D01*
X171744200Y-48660800D02*
X173060100Y-49976700D01*
X173060100Y-49976700D02*
X173060100Y-76504000D01*
X173060100Y-76504000D02*
X171686700Y-77877400D01*
X112832000Y-48045000D02*
X112832000Y-48660700D01*
X112832000Y-47429400D02*
X112832000Y-48045000D01*
%TO.N,/GPIO6*%
X128072000Y-90736400D02*
X126886300Y-91922100D01*
X126886300Y-91922100D02*
X126886300Y-93736600D01*
X126886300Y-93736600D02*
X128647000Y-95497300D01*
X128647000Y-95497300D02*
X160537400Y-95497300D01*
X160537400Y-95497300D02*
X162265800Y-93768900D01*
X162265800Y-93768900D02*
X162265800Y-92806600D01*
X162265800Y-92806600D02*
X161592200Y-92133000D01*
X161592200Y-92133000D02*
X160820600Y-92133000D01*
X160820600Y-92133000D02*
X159782900Y-91095300D01*
X159782900Y-91095300D02*
X159782900Y-89894800D01*
%TO.N,/GPIO12*%
X112832000Y-55049400D02*
X119660700Y-55049400D01*
X119660700Y-55049400D02*
X123765700Y-59154400D01*
X123765700Y-59154400D02*
X151253900Y-59154400D01*
X158613700Y-79230100D02*
X156012000Y-81831800D01*
X156012000Y-81831800D02*
X156012000Y-81973400D01*
%TO.N,/GPIO13*%
X158552000Y-84513400D02*
X154627100Y-88438300D01*
X154627100Y-88438300D02*
X154627100Y-91219500D01*
X154627100Y-91219500D02*
X153964200Y-91882400D01*
X153964200Y-91882400D02*
X150448800Y-91882400D01*
X150448800Y-91882400D02*
X149610800Y-91044400D01*
X149610800Y-91044400D02*
X149610800Y-90312900D01*
X149610800Y-90312900D02*
X147233900Y-87936000D01*
X147233900Y-87936000D02*
X144160700Y-87936000D01*
X144160700Y-87936000D02*
X143559100Y-87334400D01*
X143559100Y-87334400D02*
X140698600Y-87334400D01*
X140698600Y-87334400D02*
X140253800Y-86889600D01*
X140253800Y-86889600D02*
X129378800Y-86889600D01*
X129378800Y-86889600D02*
X125532000Y-90736400D01*
%TO.N,/GPIO16*%
X112832000Y-58898100D02*
X112370300Y-58898100D01*
X112370300Y-58898100D02*
X111591000Y-58118800D01*
X111591000Y-58118800D02*
X111591000Y-57037600D01*
X111591000Y-57037600D02*
X112309200Y-56319400D01*
X112309200Y-56319400D02*
X114040700Y-56319400D01*
X114040700Y-56319400D02*
X117701500Y-59980200D01*
X117701500Y-59980200D02*
X154215000Y-59980200D01*
X154215000Y-59980200D02*
X154331800Y-59863400D01*
X112832000Y-60129400D02*
X112832000Y-58898100D01*
%TO.N,/GPIO18*%
X130612000Y-81973400D02*
X123938200Y-75299600D01*
X123938200Y-75299600D02*
X115541200Y-75299600D01*
X115541200Y-75299600D02*
X114302400Y-74060800D01*
X114302400Y-74060800D02*
X112320200Y-74060800D01*
X112320200Y-74060800D02*
X111591000Y-73331600D01*
X111591000Y-73331600D02*
X111591000Y-64680000D01*
X111591000Y-64680000D02*
X112370300Y-63900700D01*
X112370300Y-63900700D02*
X112832000Y-63900700D01*
X112832000Y-62669400D02*
X112832000Y-63900700D01*
%TO.N,/GPIO19*%
X122992000Y-90736400D02*
X122992000Y-91455400D01*
X122992000Y-91455400D02*
X124262000Y-92725400D01*
X124262000Y-92725400D02*
X124262000Y-93670600D01*
X124262000Y-93670600D02*
X126597000Y-96005600D01*
X126597000Y-96005600D02*
X165121800Y-96005600D01*
X165121800Y-96005600D02*
X167317900Y-93809500D01*
X167317900Y-93809500D02*
X167317900Y-92805300D01*
X167317900Y-92805300D02*
X166392300Y-91879700D01*
X166392300Y-91879700D02*
X165252100Y-91879700D01*
X165252100Y-91879700D02*
X165028600Y-91656200D01*
X165028600Y-91656200D02*
X165028600Y-88450000D01*
X165028600Y-88450000D02*
X161092000Y-84513400D01*
%TO.N,/GPIO20*%
X155475200Y-59820600D02*
X155475200Y-59932900D01*
X155475200Y-59932900D02*
X154703000Y-60705100D01*
X154703000Y-60705100D02*
X114486100Y-60705100D01*
%TO.N,/GPIO21*%
X117912000Y-93276400D02*
X116233000Y-91597400D01*
X116233000Y-91597400D02*
X116233000Y-80813300D01*
X116233000Y-80813300D02*
X117343200Y-79703100D01*
X114063300Y-70289400D02*
X114572500Y-70798600D01*
X114572500Y-70798600D02*
X117343200Y-70798600D01*
X112832000Y-70289400D02*
X114063300Y-70289400D01*
%TO.N,/GPIO23*%
X134421800Y-87765900D02*
X131960400Y-87765900D01*
X131960400Y-87765900D02*
X129436600Y-90289700D01*
X129436600Y-90289700D02*
X129436600Y-93757800D01*
X129436600Y-93757800D02*
X130667800Y-94989000D01*
X130667800Y-94989000D02*
X146679400Y-94989000D01*
X146679400Y-94989000D02*
X148392000Y-93276400D01*
X135692000Y-81973400D02*
X126472200Y-72753600D01*
X126472200Y-72753600D02*
X114139100Y-72753600D01*
X114139100Y-72753600D02*
X114063300Y-72829400D01*
X112832000Y-72829400D02*
X114063300Y-72829400D01*
%TO.N,/GPIO26*%
X120452000Y-90736400D02*
X121807000Y-92091400D01*
X121807000Y-92091400D02*
X121807000Y-93770600D01*
X121807000Y-93770600D02*
X124550300Y-96513900D01*
X124550300Y-96513900D02*
X165332600Y-96513900D01*
X165332600Y-96513900D02*
X170435000Y-91411500D01*
X170435000Y-91411500D02*
X170435000Y-83815700D01*
X170435000Y-83815700D02*
X170044500Y-83425200D01*
X170044500Y-83425200D02*
X168878300Y-83425200D01*
X168878300Y-83425200D02*
X166628600Y-85674900D01*
X166628600Y-85674900D02*
X164793500Y-85674900D01*
X164793500Y-85674900D02*
X163632000Y-84513400D01*
%TO.N,/F5*%
X153472000Y-90736400D02*
X149655000Y-86919400D01*
X149655000Y-86919400D02*
X144999800Y-86919400D01*
X144999800Y-86919400D02*
X144398200Y-86317800D01*
X144398200Y-86317800D02*
X141119600Y-86317800D01*
X141119600Y-86317800D02*
X140471200Y-85669400D01*
X140471200Y-85669400D02*
X135228500Y-85669400D01*
X135228500Y-85669400D02*
X134422000Y-84862900D01*
X134422000Y-84862900D02*
X134422000Y-84106000D01*
X134422000Y-84106000D02*
X133672900Y-83356900D01*
X133672900Y-83356900D02*
X134312000Y-82717800D01*
X134312000Y-82717800D02*
X134312000Y-81513200D01*
X134312000Y-81513200D02*
X126384200Y-73585400D01*
X126384200Y-73585400D02*
X121007100Y-73585400D01*
X133672900Y-83356900D02*
X131768500Y-83356900D01*
X131768500Y-83356900D02*
X130612000Y-84513400D01*
%TO.N,/F6*%
X150932000Y-90736400D02*
X147623300Y-87427700D01*
X147623300Y-87427700D02*
X144371200Y-87427700D01*
X144371200Y-87427700D02*
X143769600Y-86826100D01*
X143769600Y-86826100D02*
X140909100Y-86826100D01*
X140909100Y-86826100D02*
X140260800Y-86177800D01*
X140260800Y-86177800D02*
X134816400Y-86177800D01*
X134816400Y-86177800D02*
X133152000Y-84513400D01*
X123587500Y-76125400D02*
X123854100Y-76125400D01*
X123854100Y-76125400D02*
X129342000Y-81613300D01*
X129342000Y-81613300D02*
X129342000Y-84907900D01*
X129342000Y-84907900D02*
X130101300Y-85667200D01*
X130101300Y-85667200D02*
X131998200Y-85667200D01*
X131998200Y-85667200D02*
X133152000Y-84513400D01*
%TO.N,/F9*%
X136253700Y-87752900D02*
X136515300Y-87491300D01*
X136515300Y-87491300D02*
X140136500Y-87491300D01*
X140136500Y-87491300D02*
X140487900Y-87842700D01*
X140487900Y-87842700D02*
X143317700Y-87842700D01*
X143317700Y-87842700D02*
X143919400Y-88444400D01*
X143919400Y-88444400D02*
X146100000Y-88444400D01*
X146100000Y-88444400D02*
X148392000Y-90736400D01*
X150932000Y-47429400D02*
X156301700Y-52799100D01*
X156301700Y-52799100D02*
X156301700Y-60162200D01*
X156301700Y-60162200D02*
X155153500Y-61310400D01*
X155153500Y-61310400D02*
X121282600Y-61310400D01*
X121282600Y-61310400D02*
X116977100Y-65615900D01*
X116977100Y-65615900D02*
X116977100Y-67384100D01*
X116977100Y-67384100D02*
X121217500Y-71624500D01*
X121217500Y-71624500D02*
X126600500Y-71624500D01*
X126600500Y-71624500D02*
X132567200Y-77591200D01*
X132567200Y-77591200D02*
X132989900Y-77591200D01*
X132989900Y-77591200D02*
X136837600Y-81438900D01*
X136837600Y-81438900D02*
X136837600Y-83367800D01*
X136837600Y-83367800D02*
X135692000Y-84513400D01*
%TO.N,/F11*%
X145852000Y-93276400D02*
X144647700Y-94480700D01*
X144647700Y-94480700D02*
X137299400Y-94480700D01*
X137299400Y-94480700D02*
X136962100Y-94143400D01*
X128593100Y-72334500D02*
X138232000Y-81973400D01*
%TO.N,/F12*%
X143312000Y-81973400D02*
X136175900Y-74837300D01*
X136175900Y-74837300D02*
X136175900Y-73003000D01*
X136175900Y-73003000D02*
X136612600Y-72566300D01*
X136612600Y-72566300D02*
X138523900Y-72566300D01*
%TO.N,/F13*%
X145852000Y-81973400D02*
X137270800Y-73392200D01*
X137270800Y-73392200D02*
X137001800Y-73392200D01*
%TO.N,SDA*%
X120452000Y-84513400D02*
X116741400Y-88224000D01*
X116741400Y-88224000D02*
X116741400Y-91193700D01*
X116741400Y-91193700D02*
X117554100Y-92006400D01*
X117554100Y-92006400D02*
X118304800Y-92006400D01*
X118304800Y-92006400D02*
X119055400Y-92757000D01*
X119055400Y-92757000D02*
X119055400Y-93559000D01*
X119055400Y-93559000D02*
X120751100Y-95254700D01*
X120751100Y-95254700D02*
X121964000Y-95254700D01*
%TD*%
%TO.N,GND*%
G36*
X170305368Y-76522875D02*
G01*
X170548589Y-76685390D01*
X170818842Y-76797332D01*
X171105740Y-76854400D01*
X171335573Y-76854400D01*
X171175365Y-76920760D01*
X170998559Y-77038898D01*
X170848198Y-77189259D01*
X170730060Y-77366065D01*
X170648685Y-77562522D01*
X170607200Y-77771079D01*
X170607200Y-77983721D01*
X170648685Y-78192278D01*
X170730060Y-78388735D01*
X170848198Y-78565541D01*
X170998559Y-78715902D01*
X171175365Y-78834040D01*
X171371822Y-78915415D01*
X171580379Y-78956900D01*
X171793021Y-78956900D01*
X172001578Y-78915415D01*
X172198035Y-78834040D01*
X172374841Y-78715902D01*
X172525202Y-78565541D01*
X172643340Y-78388735D01*
X172724715Y-78192278D01*
X172766200Y-77983721D01*
X172766200Y-77875530D01*
X173081880Y-77559850D01*
X173081880Y-86764544D01*
X173081881Y-95654690D01*
X173067875Y-95797529D01*
X173036479Y-95901519D01*
X172985481Y-95997433D01*
X172916821Y-96081619D01*
X172833123Y-96150859D01*
X172737569Y-96202525D01*
X172633802Y-96234647D01*
X172493239Y-96249420D01*
X166674710Y-96249420D01*
X168675613Y-94248517D01*
X169517000Y-94248517D01*
X169517000Y-94590283D01*
X169583675Y-94925481D01*
X169714463Y-95241231D01*
X169904337Y-95525398D01*
X170146002Y-95767063D01*
X170430169Y-95956937D01*
X170745919Y-96087725D01*
X171081117Y-96154400D01*
X171422883Y-96154400D01*
X171758081Y-96087725D01*
X172073831Y-95956937D01*
X172357998Y-95767063D01*
X172599663Y-95525398D01*
X172789537Y-95241231D01*
X172920325Y-94925481D01*
X172987000Y-94590283D01*
X172987000Y-94248517D01*
X172920325Y-93913319D01*
X172789537Y-93597569D01*
X172599663Y-93313402D01*
X172357998Y-93071737D01*
X172073831Y-92881863D01*
X171758081Y-92751075D01*
X171422883Y-92684400D01*
X171081117Y-92684400D01*
X170745919Y-92751075D01*
X170430169Y-92881863D01*
X170146002Y-93071737D01*
X169904337Y-93313402D01*
X169714463Y-93597569D01*
X169583675Y-93913319D01*
X169517000Y-94248517D01*
X168675613Y-94248517D01*
X170947353Y-91976778D01*
X170976422Y-91952922D01*
X171071645Y-91836892D01*
X171142402Y-91704515D01*
X171185974Y-91560878D01*
X171197000Y-91448926D01*
X171197000Y-91448924D01*
X171200686Y-91411501D01*
X171197000Y-91374078D01*
X171197000Y-85851472D01*
X171840001Y-85851472D01*
X172013255Y-85834408D01*
X172179851Y-85783872D01*
X172333387Y-85701805D01*
X172467962Y-85591362D01*
X172578405Y-85456787D01*
X172660472Y-85303251D01*
X172711008Y-85136655D01*
X172728072Y-84963401D01*
X172728072Y-84063399D01*
X172711008Y-83890145D01*
X172660472Y-83723549D01*
X172578405Y-83570013D01*
X172467962Y-83435438D01*
X172333387Y-83324995D01*
X172277000Y-83294855D01*
X172277000Y-83261477D01*
X172321851Y-83247872D01*
X172475387Y-83165805D01*
X172609962Y-83055362D01*
X172720405Y-82920787D01*
X172802472Y-82767251D01*
X172853008Y-82600655D01*
X172870072Y-82427401D01*
X172870072Y-81527399D01*
X172853008Y-81354145D01*
X172802472Y-81187549D01*
X172720405Y-81034013D01*
X172609962Y-80899438D01*
X172475387Y-80788995D01*
X172321851Y-80706928D01*
X172155255Y-80656392D01*
X171982001Y-80639328D01*
X171331999Y-80639328D01*
X171158745Y-80656392D01*
X170992149Y-80706928D01*
X170838613Y-80788995D01*
X170704038Y-80899438D01*
X170698658Y-80905994D01*
X170633185Y-80826215D01*
X170536494Y-80746863D01*
X170426180Y-80687898D01*
X170306482Y-80651588D01*
X170182000Y-80639328D01*
X169892750Y-80642400D01*
X169734000Y-80801150D01*
X169734000Y-81850400D01*
X169754000Y-81850400D01*
X169754000Y-82104400D01*
X169734000Y-82104400D01*
X169734000Y-82124400D01*
X169480000Y-82124400D01*
X169480000Y-82104400D01*
X168555750Y-82104400D01*
X168397000Y-82263150D01*
X168393928Y-82677400D01*
X168406188Y-82801882D01*
X168412264Y-82821911D01*
X168336878Y-82883778D01*
X168313021Y-82912848D01*
X167396394Y-83829476D01*
X167377656Y-83794420D01*
X167137565Y-83727440D01*
X166351605Y-84513400D01*
X166365748Y-84527543D01*
X166186143Y-84707148D01*
X166172000Y-84693005D01*
X166157858Y-84707148D01*
X165978253Y-84527543D01*
X165992395Y-84513400D01*
X165206435Y-83727440D01*
X164966344Y-83794420D01*
X164902515Y-83930160D01*
X164870005Y-83851673D01*
X164717120Y-83622865D01*
X164522535Y-83428280D01*
X164293727Y-83275395D01*
X164216485Y-83243400D01*
X164293727Y-83211405D01*
X164522535Y-83058520D01*
X164717120Y-82863935D01*
X164870005Y-82635127D01*
X164902000Y-82557885D01*
X164933995Y-82635127D01*
X165086880Y-82863935D01*
X165281465Y-83058520D01*
X165510273Y-83211405D01*
X165581943Y-83241092D01*
X165568977Y-83245764D01*
X165453020Y-83307744D01*
X165386040Y-83547835D01*
X166172000Y-84333795D01*
X166957960Y-83547835D01*
X166890980Y-83307744D01*
X166755240Y-83243915D01*
X166833727Y-83211405D01*
X167062535Y-83058520D01*
X167257120Y-82863935D01*
X167410005Y-82635127D01*
X167515314Y-82380890D01*
X167569000Y-82110992D01*
X167569000Y-81835808D01*
X167515314Y-81565910D01*
X167410005Y-81311673D01*
X167387105Y-81277400D01*
X168393928Y-81277400D01*
X168397000Y-81691650D01*
X168555750Y-81850400D01*
X169480000Y-81850400D01*
X169480000Y-80801150D01*
X169321250Y-80642400D01*
X169032000Y-80639328D01*
X168907518Y-80651588D01*
X168787820Y-80687898D01*
X168677506Y-80746863D01*
X168580815Y-80826215D01*
X168501463Y-80922906D01*
X168442498Y-81033220D01*
X168406188Y-81152918D01*
X168393928Y-81277400D01*
X167387105Y-81277400D01*
X167257120Y-81082865D01*
X167062535Y-80888280D01*
X166833727Y-80735395D01*
X166579490Y-80630086D01*
X166309592Y-80576400D01*
X166034408Y-80576400D01*
X165764510Y-80630086D01*
X165510273Y-80735395D01*
X165281465Y-80888280D01*
X165086880Y-81082865D01*
X164933995Y-81311673D01*
X164902000Y-81388915D01*
X164870005Y-81311673D01*
X164717120Y-81082865D01*
X164522535Y-80888280D01*
X164293727Y-80735395D01*
X164039490Y-80630086D01*
X163769592Y-80576400D01*
X163494408Y-80576400D01*
X163224510Y-80630086D01*
X162970273Y-80735395D01*
X162741465Y-80888280D01*
X162546880Y-81082865D01*
X162393995Y-81311673D01*
X162362000Y-81388915D01*
X162330005Y-81311673D01*
X162177120Y-81082865D01*
X161982535Y-80888280D01*
X161753727Y-80735395D01*
X161499490Y-80630086D01*
X161229592Y-80576400D01*
X160954408Y-80576400D01*
X160684510Y-80630086D01*
X160430273Y-80735395D01*
X160201465Y-80888280D01*
X160006880Y-81082865D01*
X159853995Y-81311673D01*
X159824308Y-81383343D01*
X159819636Y-81370377D01*
X159757656Y-81254420D01*
X159517565Y-81187440D01*
X158731605Y-81973400D01*
X159517565Y-82759360D01*
X159757656Y-82692380D01*
X159821485Y-82556640D01*
X159853995Y-82635127D01*
X160006880Y-82863935D01*
X160201465Y-83058520D01*
X160430273Y-83211405D01*
X160507515Y-83243400D01*
X160430273Y-83275395D01*
X160201465Y-83428280D01*
X160006880Y-83622865D01*
X159853995Y-83851673D01*
X159822000Y-83928915D01*
X159790005Y-83851673D01*
X159637120Y-83622865D01*
X159442535Y-83428280D01*
X159213727Y-83275395D01*
X159142057Y-83245708D01*
X159155023Y-83241036D01*
X159270980Y-83179056D01*
X159337960Y-82938965D01*
X158552000Y-82153005D01*
X157766040Y-82938965D01*
X157833020Y-83179056D01*
X157968760Y-83242885D01*
X157890273Y-83275395D01*
X157661465Y-83428280D01*
X157466880Y-83622865D01*
X157313995Y-83851673D01*
X157282000Y-83928915D01*
X157250005Y-83851673D01*
X157097120Y-83622865D01*
X156902535Y-83428280D01*
X156673727Y-83275395D01*
X156596485Y-83243400D01*
X156673727Y-83211405D01*
X156902535Y-83058520D01*
X157097120Y-82863935D01*
X157250005Y-82635127D01*
X157279692Y-82563457D01*
X157284364Y-82576423D01*
X157346344Y-82692380D01*
X157586435Y-82759360D01*
X158372395Y-81973400D01*
X158358253Y-81959258D01*
X158537858Y-81779653D01*
X158552000Y-81793795D01*
X159337960Y-81007835D01*
X159270980Y-80767744D01*
X159021952Y-80650644D01*
X158754865Y-80584377D01*
X158479983Y-80571490D01*
X158326879Y-80594552D01*
X158611831Y-80309600D01*
X158720021Y-80309600D01*
X158928578Y-80268115D01*
X159125035Y-80186740D01*
X159301841Y-80068602D01*
X159452202Y-79918241D01*
X159570340Y-79741435D01*
X159651715Y-79544978D01*
X159693200Y-79336421D01*
X159693200Y-79123779D01*
X159651715Y-78915222D01*
X159579260Y-78740300D01*
X167374474Y-78740300D01*
X167411900Y-78743986D01*
X167449325Y-78740300D01*
X167449326Y-78740300D01*
X167561278Y-78729274D01*
X167704915Y-78685702D01*
X167837292Y-78614945D01*
X167953322Y-78519722D01*
X167977641Y-78490089D01*
X170125112Y-76342619D01*
X170305368Y-76522875D01*
G37*
X170305368Y-76522875D02*
X170548589Y-76685390D01*
X170818842Y-76797332D01*
X171105740Y-76854400D01*
X171335573Y-76854400D01*
X171175365Y-76920760D01*
X170998559Y-77038898D01*
X170848198Y-77189259D01*
X170730060Y-77366065D01*
X170648685Y-77562522D01*
X170607200Y-77771079D01*
X170607200Y-77983721D01*
X170648685Y-78192278D01*
X170730060Y-78388735D01*
X170848198Y-78565541D01*
X170998559Y-78715902D01*
X171175365Y-78834040D01*
X171371822Y-78915415D01*
X171580379Y-78956900D01*
X171793021Y-78956900D01*
X172001578Y-78915415D01*
X172198035Y-78834040D01*
X172374841Y-78715902D01*
X172525202Y-78565541D01*
X172643340Y-78388735D01*
X172724715Y-78192278D01*
X172766200Y-77983721D01*
X172766200Y-77875530D01*
X173081880Y-77559850D01*
X173081880Y-86764544D01*
X173081881Y-95654690D01*
X173067875Y-95797529D01*
X173036479Y-95901519D01*
X172985481Y-95997433D01*
X172916821Y-96081619D01*
X172833123Y-96150859D01*
X172737569Y-96202525D01*
X172633802Y-96234647D01*
X172493239Y-96249420D01*
X166674710Y-96249420D01*
X168675613Y-94248517D01*
X169517000Y-94248517D01*
X169517000Y-94590283D01*
X169583675Y-94925481D01*
X169714463Y-95241231D01*
X169904337Y-95525398D01*
X170146002Y-95767063D01*
X170430169Y-95956937D01*
X170745919Y-96087725D01*
X171081117Y-96154400D01*
X171422883Y-96154400D01*
X171758081Y-96087725D01*
X172073831Y-95956937D01*
X172357998Y-95767063D01*
X172599663Y-95525398D01*
X172789537Y-95241231D01*
X172920325Y-94925481D01*
X172987000Y-94590283D01*
X172987000Y-94248517D01*
X172920325Y-93913319D01*
X172789537Y-93597569D01*
X172599663Y-93313402D01*
X172357998Y-93071737D01*
X172073831Y-92881863D01*
X171758081Y-92751075D01*
X171422883Y-92684400D01*
X171081117Y-92684400D01*
X170745919Y-92751075D01*
X170430169Y-92881863D01*
X170146002Y-93071737D01*
X169904337Y-93313402D01*
X169714463Y-93597569D01*
X169583675Y-93913319D01*
X169517000Y-94248517D01*
X168675613Y-94248517D01*
X170947353Y-91976778D01*
X170976422Y-91952922D01*
X171071645Y-91836892D01*
X171142402Y-91704515D01*
X171185974Y-91560878D01*
X171197000Y-91448926D01*
X171197000Y-91448924D01*
X171200686Y-91411501D01*
X171197000Y-91374078D01*
X171197000Y-85851472D01*
X171840001Y-85851472D01*
X172013255Y-85834408D01*
X172179851Y-85783872D01*
X172333387Y-85701805D01*
X172467962Y-85591362D01*
X172578405Y-85456787D01*
X172660472Y-85303251D01*
X172711008Y-85136655D01*
X172728072Y-84963401D01*
X172728072Y-84063399D01*
X172711008Y-83890145D01*
X172660472Y-83723549D01*
X172578405Y-83570013D01*
X172467962Y-83435438D01*
X172333387Y-83324995D01*
X172277000Y-83294855D01*
X172277000Y-83261477D01*
X172321851Y-83247872D01*
X172475387Y-83165805D01*
X172609962Y-83055362D01*
X172720405Y-82920787D01*
X172802472Y-82767251D01*
X172853008Y-82600655D01*
X172870072Y-82427401D01*
X172870072Y-81527399D01*
X172853008Y-81354145D01*
X172802472Y-81187549D01*
X172720405Y-81034013D01*
X172609962Y-80899438D01*
X172475387Y-80788995D01*
X172321851Y-80706928D01*
X172155255Y-80656392D01*
X171982001Y-80639328D01*
X171331999Y-80639328D01*
X171158745Y-80656392D01*
X170992149Y-80706928D01*
X170838613Y-80788995D01*
X170704038Y-80899438D01*
X170698658Y-80905994D01*
X170633185Y-80826215D01*
X170536494Y-80746863D01*
X170426180Y-80687898D01*
X170306482Y-80651588D01*
X170182000Y-80639328D01*
X169892750Y-80642400D01*
X169734000Y-80801150D01*
X169734000Y-81850400D01*
X169754000Y-81850400D01*
X169754000Y-82104400D01*
X169734000Y-82104400D01*
X169734000Y-82124400D01*
X169480000Y-82124400D01*
X169480000Y-82104400D01*
X168555750Y-82104400D01*
X168397000Y-82263150D01*
X168393928Y-82677400D01*
X168406188Y-82801882D01*
X168412264Y-82821911D01*
X168336878Y-82883778D01*
X168313021Y-82912848D01*
X167396394Y-83829476D01*
X167377656Y-83794420D01*
X167137565Y-83727440D01*
X166351605Y-84513400D01*
X166365748Y-84527543D01*
X166186143Y-84707148D01*
X166172000Y-84693005D01*
X166157858Y-84707148D01*
X165978253Y-84527543D01*
X165992395Y-84513400D01*
X165206435Y-83727440D01*
X164966344Y-83794420D01*
X164902515Y-83930160D01*
X164870005Y-83851673D01*
X164717120Y-83622865D01*
X164522535Y-83428280D01*
X164293727Y-83275395D01*
X164216485Y-83243400D01*
X164293727Y-83211405D01*
X164522535Y-83058520D01*
X164717120Y-82863935D01*
X164870005Y-82635127D01*
X164902000Y-82557885D01*
X164933995Y-82635127D01*
X165086880Y-82863935D01*
X165281465Y-83058520D01*
X165510273Y-83211405D01*
X165581943Y-83241092D01*
X165568977Y-83245764D01*
X165453020Y-83307744D01*
X165386040Y-83547835D01*
X166172000Y-84333795D01*
X166957960Y-83547835D01*
X166890980Y-83307744D01*
X166755240Y-83243915D01*
X166833727Y-83211405D01*
X167062535Y-83058520D01*
X167257120Y-82863935D01*
X167410005Y-82635127D01*
X167515314Y-82380890D01*
X167569000Y-82110992D01*
X167569000Y-81835808D01*
X167515314Y-81565910D01*
X167410005Y-81311673D01*
X167387105Y-81277400D01*
X168393928Y-81277400D01*
X168397000Y-81691650D01*
X168555750Y-81850400D01*
X169480000Y-81850400D01*
X169480000Y-80801150D01*
X169321250Y-80642400D01*
X169032000Y-80639328D01*
X168907518Y-80651588D01*
X168787820Y-80687898D01*
X168677506Y-80746863D01*
X168580815Y-80826215D01*
X168501463Y-80922906D01*
X168442498Y-81033220D01*
X168406188Y-81152918D01*
X168393928Y-81277400D01*
X167387105Y-81277400D01*
X167257120Y-81082865D01*
X167062535Y-80888280D01*
X166833727Y-80735395D01*
X166579490Y-80630086D01*
X166309592Y-80576400D01*
X166034408Y-80576400D01*
X165764510Y-80630086D01*
X165510273Y-80735395D01*
X165281465Y-80888280D01*
X165086880Y-81082865D01*
X164933995Y-81311673D01*
X164902000Y-81388915D01*
X164870005Y-81311673D01*
X164717120Y-81082865D01*
X164522535Y-80888280D01*
X164293727Y-80735395D01*
X164039490Y-80630086D01*
X163769592Y-80576400D01*
X163494408Y-80576400D01*
X163224510Y-80630086D01*
X162970273Y-80735395D01*
X162741465Y-80888280D01*
X162546880Y-81082865D01*
X162393995Y-81311673D01*
X162362000Y-81388915D01*
X162330005Y-81311673D01*
X162177120Y-81082865D01*
X161982535Y-80888280D01*
X161753727Y-80735395D01*
X161499490Y-80630086D01*
X161229592Y-80576400D01*
X160954408Y-80576400D01*
X160684510Y-80630086D01*
X160430273Y-80735395D01*
X160201465Y-80888280D01*
X160006880Y-81082865D01*
X159853995Y-81311673D01*
X159824308Y-81383343D01*
X159819636Y-81370377D01*
X159757656Y-81254420D01*
X159517565Y-81187440D01*
X158731605Y-81973400D01*
X159517565Y-82759360D01*
X159757656Y-82692380D01*
X159821485Y-82556640D01*
X159853995Y-82635127D01*
X160006880Y-82863935D01*
X160201465Y-83058520D01*
X160430273Y-83211405D01*
X160507515Y-83243400D01*
X160430273Y-83275395D01*
X160201465Y-83428280D01*
X160006880Y-83622865D01*
X159853995Y-83851673D01*
X159822000Y-83928915D01*
X159790005Y-83851673D01*
X159637120Y-83622865D01*
X159442535Y-83428280D01*
X159213727Y-83275395D01*
X159142057Y-83245708D01*
X159155023Y-83241036D01*
X159270980Y-83179056D01*
X159337960Y-82938965D01*
X158552000Y-82153005D01*
X157766040Y-82938965D01*
X157833020Y-83179056D01*
X157968760Y-83242885D01*
X157890273Y-83275395D01*
X157661465Y-83428280D01*
X157466880Y-83622865D01*
X157313995Y-83851673D01*
X157282000Y-83928915D01*
X157250005Y-83851673D01*
X157097120Y-83622865D01*
X156902535Y-83428280D01*
X156673727Y-83275395D01*
X156596485Y-83243400D01*
X156673727Y-83211405D01*
X156902535Y-83058520D01*
X157097120Y-82863935D01*
X157250005Y-82635127D01*
X157279692Y-82563457D01*
X157284364Y-82576423D01*
X157346344Y-82692380D01*
X157586435Y-82759360D01*
X158372395Y-81973400D01*
X158358253Y-81959258D01*
X158537858Y-81779653D01*
X158552000Y-81793795D01*
X159337960Y-81007835D01*
X159270980Y-80767744D01*
X159021952Y-80650644D01*
X158754865Y-80584377D01*
X158479983Y-80571490D01*
X158326879Y-80594552D01*
X158611831Y-80309600D01*
X158720021Y-80309600D01*
X158928578Y-80268115D01*
X159125035Y-80186740D01*
X159301841Y-80068602D01*
X159452202Y-79918241D01*
X159570340Y-79741435D01*
X159651715Y-79544978D01*
X159693200Y-79336421D01*
X159693200Y-79123779D01*
X159651715Y-78915222D01*
X159579260Y-78740300D01*
X167374474Y-78740300D01*
X167411900Y-78743986D01*
X167449325Y-78740300D01*
X167449326Y-78740300D01*
X167561278Y-78729274D01*
X167704915Y-78685702D01*
X167837292Y-78614945D01*
X167953322Y-78519722D01*
X167977641Y-78490089D01*
X170125112Y-76342619D01*
X170305368Y-76522875D01*
G36*
X161285748Y-93262258D02*
G01*
X161271605Y-93276400D01*
X161285748Y-93290543D01*
X161106143Y-93470148D01*
X161092000Y-93456005D01*
X160306040Y-94241965D01*
X160373020Y-94482056D01*
X160442393Y-94514677D01*
X160221770Y-94735300D01*
X148010730Y-94735300D01*
X148102789Y-94643241D01*
X148254408Y-94673400D01*
X148529592Y-94673400D01*
X148799490Y-94619714D01*
X149053727Y-94514405D01*
X149282535Y-94361520D01*
X149402090Y-94241965D01*
X150146040Y-94241965D01*
X150213020Y-94482056D01*
X150462048Y-94599156D01*
X150729135Y-94665423D01*
X151004017Y-94678310D01*
X151276133Y-94637322D01*
X151535023Y-94544036D01*
X151650980Y-94482056D01*
X151717960Y-94241965D01*
X150932000Y-93456005D01*
X150146040Y-94241965D01*
X149402090Y-94241965D01*
X149477120Y-94166935D01*
X149630005Y-93938127D01*
X149659692Y-93866457D01*
X149664364Y-93879423D01*
X149726344Y-93995380D01*
X149966435Y-94062360D01*
X150752395Y-93276400D01*
X150738253Y-93262258D01*
X150917858Y-93082653D01*
X150932000Y-93096795D01*
X150946143Y-93082653D01*
X151125748Y-93262258D01*
X151111605Y-93276400D01*
X151897565Y-94062360D01*
X152137656Y-93995380D01*
X152201485Y-93859640D01*
X152233995Y-93938127D01*
X152386880Y-94166935D01*
X152581465Y-94361520D01*
X152810273Y-94514405D01*
X153064510Y-94619714D01*
X153334408Y-94673400D01*
X153609592Y-94673400D01*
X153879490Y-94619714D01*
X154133727Y-94514405D01*
X154362535Y-94361520D01*
X154557120Y-94166935D01*
X154710005Y-93938127D01*
X154742000Y-93860885D01*
X154773995Y-93938127D01*
X154926880Y-94166935D01*
X155121465Y-94361520D01*
X155350273Y-94514405D01*
X155604510Y-94619714D01*
X155874408Y-94673400D01*
X156149592Y-94673400D01*
X156419490Y-94619714D01*
X156673727Y-94514405D01*
X156902535Y-94361520D01*
X157097120Y-94166935D01*
X157250005Y-93938127D01*
X157282000Y-93860885D01*
X157313995Y-93938127D01*
X157466880Y-94166935D01*
X157661465Y-94361520D01*
X157890273Y-94514405D01*
X158144510Y-94619714D01*
X158414408Y-94673400D01*
X158689592Y-94673400D01*
X158959490Y-94619714D01*
X159213727Y-94514405D01*
X159442535Y-94361520D01*
X159637120Y-94166935D01*
X159790005Y-93938127D01*
X159819692Y-93866457D01*
X159824364Y-93879423D01*
X159886344Y-93995380D01*
X160126435Y-94062360D01*
X160912395Y-93276400D01*
X160898253Y-93262258D01*
X161077858Y-93082653D01*
X161092000Y-93096795D01*
X161106143Y-93082653D01*
X161285748Y-93262258D01*
G37*
X161285748Y-93262258D02*
X161271605Y-93276400D01*
X161285748Y-93290543D01*
X161106143Y-93470148D01*
X161092000Y-93456005D01*
X160306040Y-94241965D01*
X160373020Y-94482056D01*
X160442393Y-94514677D01*
X160221770Y-94735300D01*
X148010730Y-94735300D01*
X148102789Y-94643241D01*
X148254408Y-94673400D01*
X148529592Y-94673400D01*
X148799490Y-94619714D01*
X149053727Y-94514405D01*
X149282535Y-94361520D01*
X149402090Y-94241965D01*
X150146040Y-94241965D01*
X150213020Y-94482056D01*
X150462048Y-94599156D01*
X150729135Y-94665423D01*
X151004017Y-94678310D01*
X151276133Y-94637322D01*
X151535023Y-94544036D01*
X151650980Y-94482056D01*
X151717960Y-94241965D01*
X150932000Y-93456005D01*
X150146040Y-94241965D01*
X149402090Y-94241965D01*
X149477120Y-94166935D01*
X149630005Y-93938127D01*
X149659692Y-93866457D01*
X149664364Y-93879423D01*
X149726344Y-93995380D01*
X149966435Y-94062360D01*
X150752395Y-93276400D01*
X150738253Y-93262258D01*
X150917858Y-93082653D01*
X150932000Y-93096795D01*
X150946143Y-93082653D01*
X151125748Y-93262258D01*
X151111605Y-93276400D01*
X151897565Y-94062360D01*
X152137656Y-93995380D01*
X152201485Y-93859640D01*
X152233995Y-93938127D01*
X152386880Y-94166935D01*
X152581465Y-94361520D01*
X152810273Y-94514405D01*
X153064510Y-94619714D01*
X153334408Y-94673400D01*
X153609592Y-94673400D01*
X153879490Y-94619714D01*
X154133727Y-94514405D01*
X154362535Y-94361520D01*
X154557120Y-94166935D01*
X154710005Y-93938127D01*
X154742000Y-93860885D01*
X154773995Y-93938127D01*
X154926880Y-94166935D01*
X155121465Y-94361520D01*
X155350273Y-94514405D01*
X155604510Y-94619714D01*
X155874408Y-94673400D01*
X156149592Y-94673400D01*
X156419490Y-94619714D01*
X156673727Y-94514405D01*
X156902535Y-94361520D01*
X157097120Y-94166935D01*
X157250005Y-93938127D01*
X157282000Y-93860885D01*
X157313995Y-93938127D01*
X157466880Y-94166935D01*
X157661465Y-94361520D01*
X157890273Y-94514405D01*
X158144510Y-94619714D01*
X158414408Y-94673400D01*
X158689592Y-94673400D01*
X158959490Y-94619714D01*
X159213727Y-94514405D01*
X159442535Y-94361520D01*
X159637120Y-94166935D01*
X159790005Y-93938127D01*
X159819692Y-93866457D01*
X159824364Y-93879423D01*
X159886344Y-93995380D01*
X160126435Y-94062360D01*
X160912395Y-93276400D01*
X160898253Y-93262258D01*
X161077858Y-93082653D01*
X161092000Y-93096795D01*
X161106143Y-93082653D01*
X161285748Y-93262258D01*
G36*
X125725748Y-93262258D02*
G01*
X125711605Y-93276400D01*
X125725748Y-93290543D01*
X125546143Y-93470148D01*
X125532000Y-93456005D01*
X125517858Y-93470148D01*
X125338253Y-93290543D01*
X125352395Y-93276400D01*
X125338253Y-93262258D01*
X125517858Y-93082653D01*
X125532000Y-93096795D01*
X125546143Y-93082653D01*
X125725748Y-93262258D01*
G37*
X125725748Y-93262258D02*
X125711605Y-93276400D01*
X125725748Y-93290543D01*
X125546143Y-93470148D01*
X125532000Y-93456005D01*
X125517858Y-93470148D01*
X125338253Y-93290543D01*
X125352395Y-93276400D01*
X125338253Y-93262258D01*
X125517858Y-93082653D01*
X125532000Y-93096795D01*
X125546143Y-93082653D01*
X125725748Y-93262258D01*
G36*
X144613995Y-91398127D02*
G01*
X144766880Y-91626935D01*
X144961465Y-91821520D01*
X145190273Y-91974405D01*
X145267515Y-92006400D01*
X145190273Y-92038395D01*
X144961465Y-92191280D01*
X144766880Y-92385865D01*
X144613995Y-92614673D01*
X144584308Y-92686343D01*
X144579636Y-92673377D01*
X144517656Y-92557420D01*
X144277565Y-92490440D01*
X143491605Y-93276400D01*
X143505748Y-93290543D01*
X143326143Y-93470148D01*
X143312000Y-93456005D01*
X143297858Y-93470148D01*
X143118253Y-93290543D01*
X143132395Y-93276400D01*
X142346435Y-92490440D01*
X142106344Y-92557420D01*
X142042515Y-92693160D01*
X142010005Y-92614673D01*
X141857120Y-92385865D01*
X141662535Y-92191280D01*
X141433727Y-92038395D01*
X141356485Y-92006400D01*
X141433727Y-91974405D01*
X141662535Y-91821520D01*
X141857120Y-91626935D01*
X142010005Y-91398127D01*
X142042000Y-91320885D01*
X142073995Y-91398127D01*
X142226880Y-91626935D01*
X142421465Y-91821520D01*
X142650273Y-91974405D01*
X142721943Y-92004092D01*
X142708977Y-92008764D01*
X142593020Y-92070744D01*
X142526040Y-92310835D01*
X143312000Y-93096795D01*
X144097960Y-92310835D01*
X144030980Y-92070744D01*
X143895240Y-92006915D01*
X143973727Y-91974405D01*
X144202535Y-91821520D01*
X144397120Y-91626935D01*
X144550005Y-91398127D01*
X144582000Y-91320885D01*
X144613995Y-91398127D01*
G37*
X144613995Y-91398127D02*
X144766880Y-91626935D01*
X144961465Y-91821520D01*
X145190273Y-91974405D01*
X145267515Y-92006400D01*
X145190273Y-92038395D01*
X144961465Y-92191280D01*
X144766880Y-92385865D01*
X144613995Y-92614673D01*
X144584308Y-92686343D01*
X144579636Y-92673377D01*
X144517656Y-92557420D01*
X144277565Y-92490440D01*
X143491605Y-93276400D01*
X143505748Y-93290543D01*
X143326143Y-93470148D01*
X143312000Y-93456005D01*
X143297858Y-93470148D01*
X143118253Y-93290543D01*
X143132395Y-93276400D01*
X142346435Y-92490440D01*
X142106344Y-92557420D01*
X142042515Y-92693160D01*
X142010005Y-92614673D01*
X141857120Y-92385865D01*
X141662535Y-92191280D01*
X141433727Y-92038395D01*
X141356485Y-92006400D01*
X141433727Y-91974405D01*
X141662535Y-91821520D01*
X141857120Y-91626935D01*
X142010005Y-91398127D01*
X142042000Y-91320885D01*
X142073995Y-91398127D01*
X142226880Y-91626935D01*
X142421465Y-91821520D01*
X142650273Y-91974405D01*
X142721943Y-92004092D01*
X142708977Y-92008764D01*
X142593020Y-92070744D01*
X142526040Y-92310835D01*
X143312000Y-93096795D01*
X144097960Y-92310835D01*
X144030980Y-92070744D01*
X143895240Y-92006915D01*
X143973727Y-91974405D01*
X144202535Y-91821520D01*
X144397120Y-91626935D01*
X144550005Y-91398127D01*
X144582000Y-91320885D01*
X144613995Y-91398127D01*
G36*
X131913995Y-91398127D02*
G01*
X132066880Y-91626935D01*
X132261465Y-91821520D01*
X132490273Y-91974405D01*
X132567515Y-92006400D01*
X132490273Y-92038395D01*
X132261465Y-92191280D01*
X132066880Y-92385865D01*
X131913995Y-92614673D01*
X131884308Y-92686343D01*
X131879636Y-92673377D01*
X131817656Y-92557420D01*
X131577565Y-92490440D01*
X130791605Y-93276400D01*
X130805748Y-93290543D01*
X130626143Y-93470148D01*
X130612000Y-93456005D01*
X130597858Y-93470148D01*
X130418253Y-93290543D01*
X130432395Y-93276400D01*
X130418253Y-93262258D01*
X130597858Y-93082653D01*
X130612000Y-93096795D01*
X131397960Y-92310835D01*
X131330980Y-92070744D01*
X131195240Y-92006915D01*
X131273727Y-91974405D01*
X131502535Y-91821520D01*
X131697120Y-91626935D01*
X131850005Y-91398127D01*
X131882000Y-91320885D01*
X131913995Y-91398127D01*
G37*
X131913995Y-91398127D02*
X132066880Y-91626935D01*
X132261465Y-91821520D01*
X132490273Y-91974405D01*
X132567515Y-92006400D01*
X132490273Y-92038395D01*
X132261465Y-92191280D01*
X132066880Y-92385865D01*
X131913995Y-92614673D01*
X131884308Y-92686343D01*
X131879636Y-92673377D01*
X131817656Y-92557420D01*
X131577565Y-92490440D01*
X130791605Y-93276400D01*
X130805748Y-93290543D01*
X130626143Y-93470148D01*
X130612000Y-93456005D01*
X130597858Y-93470148D01*
X130418253Y-93290543D01*
X130432395Y-93276400D01*
X130418253Y-93262258D01*
X130597858Y-93082653D01*
X130612000Y-93096795D01*
X131397960Y-92310835D01*
X131330980Y-92070744D01*
X131195240Y-92006915D01*
X131273727Y-91974405D01*
X131502535Y-91821520D01*
X131697120Y-91626935D01*
X131850005Y-91398127D01*
X131882000Y-91320885D01*
X131913995Y-91398127D01*
G36*
X149856412Y-92367643D02*
G01*
X149850023Y-92374031D01*
X149966433Y-92490441D01*
X149726344Y-92557420D01*
X149662515Y-92693160D01*
X149630005Y-92614673D01*
X149477120Y-92385865D01*
X149282535Y-92191280D01*
X149053727Y-92038395D01*
X148976485Y-92006400D01*
X149053727Y-91974405D01*
X149282535Y-91821520D01*
X149296412Y-91807643D01*
X149856412Y-92367643D01*
G37*
X149856412Y-92367643D02*
X149850023Y-92374031D01*
X149966433Y-92490441D01*
X149726344Y-92557420D01*
X149662515Y-92693160D01*
X149630005Y-92614673D01*
X149477120Y-92385865D01*
X149282535Y-92191280D01*
X149053727Y-92038395D01*
X148976485Y-92006400D01*
X149053727Y-91974405D01*
X149282535Y-91821520D01*
X149296412Y-91807643D01*
X149856412Y-92367643D01*
G36*
X155293020Y-91942056D02*
G01*
X155428760Y-92005885D01*
X155350273Y-92038395D01*
X155121465Y-92191280D01*
X154926880Y-92385865D01*
X154773995Y-92614673D01*
X154742000Y-92691915D01*
X154710005Y-92614673D01*
X154557120Y-92385865D01*
X154547743Y-92376488D01*
X155107743Y-91816489D01*
X155109631Y-91818377D01*
X155160514Y-91767494D01*
X155168522Y-91760922D01*
X155175094Y-91752914D01*
X155226041Y-91701967D01*
X155293020Y-91942056D01*
G37*
X155293020Y-91942056D02*
X155428760Y-92005885D01*
X155350273Y-92038395D01*
X155121465Y-92191280D01*
X154926880Y-92385865D01*
X154773995Y-92614673D01*
X154742000Y-92691915D01*
X154710005Y-92614673D01*
X154557120Y-92385865D01*
X154547743Y-92376488D01*
X155107743Y-91816489D01*
X155109631Y-91818377D01*
X155160514Y-91767494D01*
X155168522Y-91760922D01*
X155175094Y-91752914D01*
X155226041Y-91701967D01*
X155293020Y-91942056D01*
G36*
X135415198Y-88441041D02*
G01*
X135565559Y-88591402D01*
X135742365Y-88709540D01*
X135938822Y-88790915D01*
X136147379Y-88832400D01*
X136360021Y-88832400D01*
X136568578Y-88790915D01*
X136765035Y-88709540D01*
X136941841Y-88591402D01*
X137092202Y-88441041D01*
X137152500Y-88350799D01*
X137152500Y-88457321D01*
X137193985Y-88665878D01*
X137275360Y-88862335D01*
X137393498Y-89039141D01*
X137543859Y-89189502D01*
X137720665Y-89307640D01*
X137893716Y-89379320D01*
X137824510Y-89393086D01*
X137570273Y-89498395D01*
X137341465Y-89651280D01*
X137146880Y-89845865D01*
X136993995Y-90074673D01*
X136964308Y-90146343D01*
X136959636Y-90133377D01*
X136897656Y-90017420D01*
X136657565Y-89950440D01*
X135871605Y-90736400D01*
X136657565Y-91522360D01*
X136897656Y-91455380D01*
X136961485Y-91319640D01*
X136993995Y-91398127D01*
X137146880Y-91626935D01*
X137341465Y-91821520D01*
X137570273Y-91974405D01*
X137647515Y-92006400D01*
X137570273Y-92038395D01*
X137341465Y-92191280D01*
X137146880Y-92385865D01*
X136993995Y-92614673D01*
X136962000Y-92691915D01*
X136930005Y-92614673D01*
X136777120Y-92385865D01*
X136582535Y-92191280D01*
X136353727Y-92038395D01*
X136282057Y-92008708D01*
X136295023Y-92004036D01*
X136410980Y-91942056D01*
X136477960Y-91701965D01*
X135692000Y-90916005D01*
X134906040Y-91701965D01*
X134973020Y-91942056D01*
X135108760Y-92005885D01*
X135030273Y-92038395D01*
X134801465Y-92191280D01*
X134606880Y-92385865D01*
X134453995Y-92614673D01*
X134422000Y-92691915D01*
X134390005Y-92614673D01*
X134237120Y-92385865D01*
X134042535Y-92191280D01*
X133813727Y-92038395D01*
X133736485Y-92006400D01*
X133813727Y-91974405D01*
X134042535Y-91821520D01*
X134237120Y-91626935D01*
X134390005Y-91398127D01*
X134419692Y-91326457D01*
X134424364Y-91339423D01*
X134486344Y-91455380D01*
X134726435Y-91522360D01*
X135512395Y-90736400D01*
X134726435Y-89950440D01*
X134486344Y-90017420D01*
X134422515Y-90153160D01*
X134390005Y-90074673D01*
X134237120Y-89845865D01*
X134162090Y-89770835D01*
X134906040Y-89770835D01*
X135692000Y-90556795D01*
X136477960Y-89770835D01*
X136410980Y-89530744D01*
X136161952Y-89413644D01*
X135894865Y-89347377D01*
X135619983Y-89334490D01*
X135347867Y-89375478D01*
X135088977Y-89468764D01*
X134973020Y-89530744D01*
X134906040Y-89770835D01*
X134162090Y-89770835D01*
X134042535Y-89651280D01*
X133813727Y-89498395D01*
X133559490Y-89393086D01*
X133289592Y-89339400D01*
X133014408Y-89339400D01*
X132744510Y-89393086D01*
X132490273Y-89498395D01*
X132261465Y-89651280D01*
X132066880Y-89845865D01*
X131913995Y-90074673D01*
X131882000Y-90151915D01*
X131850005Y-90074673D01*
X131697120Y-89845865D01*
X131502535Y-89651280D01*
X131292795Y-89511136D01*
X132276031Y-88527900D01*
X133657157Y-88527900D01*
X133733659Y-88604402D01*
X133910465Y-88722540D01*
X134106922Y-88803915D01*
X134315479Y-88845400D01*
X134528121Y-88845400D01*
X134736678Y-88803915D01*
X134933135Y-88722540D01*
X135109941Y-88604402D01*
X135260302Y-88454041D01*
X135342093Y-88331632D01*
X135415198Y-88441041D01*
G37*
X135415198Y-88441041D02*
X135565559Y-88591402D01*
X135742365Y-88709540D01*
X135938822Y-88790915D01*
X136147379Y-88832400D01*
X136360021Y-88832400D01*
X136568578Y-88790915D01*
X136765035Y-88709540D01*
X136941841Y-88591402D01*
X137092202Y-88441041D01*
X137152500Y-88350799D01*
X137152500Y-88457321D01*
X137193985Y-88665878D01*
X137275360Y-88862335D01*
X137393498Y-89039141D01*
X137543859Y-89189502D01*
X137720665Y-89307640D01*
X137893716Y-89379320D01*
X137824510Y-89393086D01*
X137570273Y-89498395D01*
X137341465Y-89651280D01*
X137146880Y-89845865D01*
X136993995Y-90074673D01*
X136964308Y-90146343D01*
X136959636Y-90133377D01*
X136897656Y-90017420D01*
X136657565Y-89950440D01*
X135871605Y-90736400D01*
X136657565Y-91522360D01*
X136897656Y-91455380D01*
X136961485Y-91319640D01*
X136993995Y-91398127D01*
X137146880Y-91626935D01*
X137341465Y-91821520D01*
X137570273Y-91974405D01*
X137647515Y-92006400D01*
X137570273Y-92038395D01*
X137341465Y-92191280D01*
X137146880Y-92385865D01*
X136993995Y-92614673D01*
X136962000Y-92691915D01*
X136930005Y-92614673D01*
X136777120Y-92385865D01*
X136582535Y-92191280D01*
X136353727Y-92038395D01*
X136282057Y-92008708D01*
X136295023Y-92004036D01*
X136410980Y-91942056D01*
X136477960Y-91701965D01*
X135692000Y-90916005D01*
X134906040Y-91701965D01*
X134973020Y-91942056D01*
X135108760Y-92005885D01*
X135030273Y-92038395D01*
X134801465Y-92191280D01*
X134606880Y-92385865D01*
X134453995Y-92614673D01*
X134422000Y-92691915D01*
X134390005Y-92614673D01*
X134237120Y-92385865D01*
X134042535Y-92191280D01*
X133813727Y-92038395D01*
X133736485Y-92006400D01*
X133813727Y-91974405D01*
X134042535Y-91821520D01*
X134237120Y-91626935D01*
X134390005Y-91398127D01*
X134419692Y-91326457D01*
X134424364Y-91339423D01*
X134486344Y-91455380D01*
X134726435Y-91522360D01*
X135512395Y-90736400D01*
X134726435Y-89950440D01*
X134486344Y-90017420D01*
X134422515Y-90153160D01*
X134390005Y-90074673D01*
X134237120Y-89845865D01*
X134162090Y-89770835D01*
X134906040Y-89770835D01*
X135692000Y-90556795D01*
X136477960Y-89770835D01*
X136410980Y-89530744D01*
X136161952Y-89413644D01*
X135894865Y-89347377D01*
X135619983Y-89334490D01*
X135347867Y-89375478D01*
X135088977Y-89468764D01*
X134973020Y-89530744D01*
X134906040Y-89770835D01*
X134162090Y-89770835D01*
X134042535Y-89651280D01*
X133813727Y-89498395D01*
X133559490Y-89393086D01*
X133289592Y-89339400D01*
X133014408Y-89339400D01*
X132744510Y-89393086D01*
X132490273Y-89498395D01*
X132261465Y-89651280D01*
X132066880Y-89845865D01*
X131913995Y-90074673D01*
X131882000Y-90151915D01*
X131850005Y-90074673D01*
X131697120Y-89845865D01*
X131502535Y-89651280D01*
X131292795Y-89511136D01*
X132276031Y-88527900D01*
X133657157Y-88527900D01*
X133733659Y-88604402D01*
X133910465Y-88722540D01*
X134106922Y-88803915D01*
X134315479Y-88845400D01*
X134528121Y-88845400D01*
X134736678Y-88803915D01*
X134933135Y-88722540D01*
X135109941Y-88604402D01*
X135260302Y-88454041D01*
X135342093Y-88331632D01*
X135415198Y-88441041D01*
G36*
X156205748Y-90722258D02*
G01*
X156191605Y-90736400D01*
X156205748Y-90750543D01*
X156026143Y-90930148D01*
X156012000Y-90916005D01*
X155997858Y-90930148D01*
X155818253Y-90750543D01*
X155832395Y-90736400D01*
X155818253Y-90722258D01*
X155997858Y-90542653D01*
X156012000Y-90556795D01*
X156026143Y-90542653D01*
X156205748Y-90722258D01*
G37*
X156205748Y-90722258D02*
X156191605Y-90736400D01*
X156205748Y-90750543D01*
X156026143Y-90930148D01*
X156012000Y-90916005D01*
X155997858Y-90930148D01*
X155818253Y-90750543D01*
X155832395Y-90736400D01*
X155818253Y-90722258D01*
X155997858Y-90542653D01*
X156012000Y-90556795D01*
X156026143Y-90542653D01*
X156205748Y-90722258D01*
G36*
X126833995Y-82635127D02*
G01*
X126986880Y-82863935D01*
X127181465Y-83058520D01*
X127410273Y-83211405D01*
X127481943Y-83241092D01*
X127468977Y-83245764D01*
X127353020Y-83307744D01*
X127286040Y-83547835D01*
X128072000Y-84333795D01*
X128086143Y-84319653D01*
X128265748Y-84499258D01*
X128251605Y-84513400D01*
X128265748Y-84527543D01*
X128086143Y-84707148D01*
X128072000Y-84693005D01*
X127286040Y-85478965D01*
X127353020Y-85719056D01*
X127602048Y-85836156D01*
X127869135Y-85902423D01*
X128144017Y-85915310D01*
X128416133Y-85874322D01*
X128675023Y-85781036D01*
X128790980Y-85719056D01*
X128853047Y-85496577D01*
X129484069Y-86127600D01*
X129416223Y-86127600D01*
X129378800Y-86123914D01*
X129341377Y-86127600D01*
X129341374Y-86127600D01*
X129229422Y-86138626D01*
X129085785Y-86182198D01*
X129040843Y-86206220D01*
X128953407Y-86252955D01*
X128917096Y-86282755D01*
X128837378Y-86348178D01*
X128813516Y-86377254D01*
X125821211Y-89369559D01*
X125669592Y-89339400D01*
X125394408Y-89339400D01*
X125124510Y-89393086D01*
X124870273Y-89498395D01*
X124641465Y-89651280D01*
X124446880Y-89845865D01*
X124293995Y-90074673D01*
X124262000Y-90151915D01*
X124230005Y-90074673D01*
X124077120Y-89845865D01*
X123882535Y-89651280D01*
X123653727Y-89498395D01*
X123399490Y-89393086D01*
X123129592Y-89339400D01*
X122854408Y-89339400D01*
X122584510Y-89393086D01*
X122330273Y-89498395D01*
X122101465Y-89651280D01*
X121906880Y-89845865D01*
X121753995Y-90074673D01*
X121722000Y-90151915D01*
X121690005Y-90074673D01*
X121537120Y-89845865D01*
X121342535Y-89651280D01*
X121113727Y-89498395D01*
X120859490Y-89393086D01*
X120589592Y-89339400D01*
X120314408Y-89339400D01*
X120044510Y-89393086D01*
X119790273Y-89498395D01*
X119561465Y-89651280D01*
X119366880Y-89845865D01*
X119213995Y-90074673D01*
X119184308Y-90146343D01*
X119179636Y-90133377D01*
X119117656Y-90017420D01*
X118877565Y-89950440D01*
X118091605Y-90736400D01*
X118105748Y-90750543D01*
X117926143Y-90930148D01*
X117912000Y-90916005D01*
X117897858Y-90930148D01*
X117718253Y-90750543D01*
X117732395Y-90736400D01*
X117718253Y-90722258D01*
X117897858Y-90542653D01*
X117912000Y-90556795D01*
X118697960Y-89770835D01*
X118630980Y-89530744D01*
X118381952Y-89413644D01*
X118114865Y-89347377D01*
X117839983Y-89334490D01*
X117567867Y-89375478D01*
X117503400Y-89398707D01*
X117503400Y-88539630D01*
X120162790Y-85880241D01*
X120314408Y-85910400D01*
X120589592Y-85910400D01*
X120859490Y-85856714D01*
X121113727Y-85751405D01*
X121342535Y-85598520D01*
X121537120Y-85403935D01*
X121690005Y-85175127D01*
X121722000Y-85097885D01*
X121753995Y-85175127D01*
X121906880Y-85403935D01*
X122101465Y-85598520D01*
X122330273Y-85751405D01*
X122584510Y-85856714D01*
X122854408Y-85910400D01*
X123129592Y-85910400D01*
X123399490Y-85856714D01*
X123653727Y-85751405D01*
X123882535Y-85598520D01*
X124077120Y-85403935D01*
X124230005Y-85175127D01*
X124262000Y-85097885D01*
X124293995Y-85175127D01*
X124446880Y-85403935D01*
X124641465Y-85598520D01*
X124870273Y-85751405D01*
X125124510Y-85856714D01*
X125394408Y-85910400D01*
X125669592Y-85910400D01*
X125939490Y-85856714D01*
X126193727Y-85751405D01*
X126422535Y-85598520D01*
X126617120Y-85403935D01*
X126770005Y-85175127D01*
X126799692Y-85103457D01*
X126804364Y-85116423D01*
X126866344Y-85232380D01*
X127106435Y-85299360D01*
X127892395Y-84513400D01*
X127106435Y-83727440D01*
X126866344Y-83794420D01*
X126802515Y-83930160D01*
X126770005Y-83851673D01*
X126617120Y-83622865D01*
X126422535Y-83428280D01*
X126193727Y-83275395D01*
X126116485Y-83243400D01*
X126193727Y-83211405D01*
X126422535Y-83058520D01*
X126617120Y-82863935D01*
X126770005Y-82635127D01*
X126802000Y-82557885D01*
X126833995Y-82635127D01*
G37*
X126833995Y-82635127D02*
X126986880Y-82863935D01*
X127181465Y-83058520D01*
X127410273Y-83211405D01*
X127481943Y-83241092D01*
X127468977Y-83245764D01*
X127353020Y-83307744D01*
X127286040Y-83547835D01*
X128072000Y-84333795D01*
X128086143Y-84319653D01*
X128265748Y-84499258D01*
X128251605Y-84513400D01*
X128265748Y-84527543D01*
X128086143Y-84707148D01*
X128072000Y-84693005D01*
X127286040Y-85478965D01*
X127353020Y-85719056D01*
X127602048Y-85836156D01*
X127869135Y-85902423D01*
X128144017Y-85915310D01*
X128416133Y-85874322D01*
X128675023Y-85781036D01*
X128790980Y-85719056D01*
X128853047Y-85496577D01*
X129484069Y-86127600D01*
X129416223Y-86127600D01*
X129378800Y-86123914D01*
X129341377Y-86127600D01*
X129341374Y-86127600D01*
X129229422Y-86138626D01*
X129085785Y-86182198D01*
X129040843Y-86206220D01*
X128953407Y-86252955D01*
X128917096Y-86282755D01*
X128837378Y-86348178D01*
X128813516Y-86377254D01*
X125821211Y-89369559D01*
X125669592Y-89339400D01*
X125394408Y-89339400D01*
X125124510Y-89393086D01*
X124870273Y-89498395D01*
X124641465Y-89651280D01*
X124446880Y-89845865D01*
X124293995Y-90074673D01*
X124262000Y-90151915D01*
X124230005Y-90074673D01*
X124077120Y-89845865D01*
X123882535Y-89651280D01*
X123653727Y-89498395D01*
X123399490Y-89393086D01*
X123129592Y-89339400D01*
X122854408Y-89339400D01*
X122584510Y-89393086D01*
X122330273Y-89498395D01*
X122101465Y-89651280D01*
X121906880Y-89845865D01*
X121753995Y-90074673D01*
X121722000Y-90151915D01*
X121690005Y-90074673D01*
X121537120Y-89845865D01*
X121342535Y-89651280D01*
X121113727Y-89498395D01*
X120859490Y-89393086D01*
X120589592Y-89339400D01*
X120314408Y-89339400D01*
X120044510Y-89393086D01*
X119790273Y-89498395D01*
X119561465Y-89651280D01*
X119366880Y-89845865D01*
X119213995Y-90074673D01*
X119184308Y-90146343D01*
X119179636Y-90133377D01*
X119117656Y-90017420D01*
X118877565Y-89950440D01*
X118091605Y-90736400D01*
X118105748Y-90750543D01*
X117926143Y-90930148D01*
X117912000Y-90916005D01*
X117897858Y-90930148D01*
X117718253Y-90750543D01*
X117732395Y-90736400D01*
X117718253Y-90722258D01*
X117897858Y-90542653D01*
X117912000Y-90556795D01*
X118697960Y-89770835D01*
X118630980Y-89530744D01*
X118381952Y-89413644D01*
X118114865Y-89347377D01*
X117839983Y-89334490D01*
X117567867Y-89375478D01*
X117503400Y-89398707D01*
X117503400Y-88539630D01*
X120162790Y-85880241D01*
X120314408Y-85910400D01*
X120589592Y-85910400D01*
X120859490Y-85856714D01*
X121113727Y-85751405D01*
X121342535Y-85598520D01*
X121537120Y-85403935D01*
X121690005Y-85175127D01*
X121722000Y-85097885D01*
X121753995Y-85175127D01*
X121906880Y-85403935D01*
X122101465Y-85598520D01*
X122330273Y-85751405D01*
X122584510Y-85856714D01*
X122854408Y-85910400D01*
X123129592Y-85910400D01*
X123399490Y-85856714D01*
X123653727Y-85751405D01*
X123882535Y-85598520D01*
X124077120Y-85403935D01*
X124230005Y-85175127D01*
X124262000Y-85097885D01*
X124293995Y-85175127D01*
X124446880Y-85403935D01*
X124641465Y-85598520D01*
X124870273Y-85751405D01*
X125124510Y-85856714D01*
X125394408Y-85910400D01*
X125669592Y-85910400D01*
X125939490Y-85856714D01*
X126193727Y-85751405D01*
X126422535Y-85598520D01*
X126617120Y-85403935D01*
X126770005Y-85175127D01*
X126799692Y-85103457D01*
X126804364Y-85116423D01*
X126866344Y-85232380D01*
X127106435Y-85299360D01*
X127892395Y-84513400D01*
X127106435Y-83727440D01*
X126866344Y-83794420D01*
X126802515Y-83930160D01*
X126770005Y-83851673D01*
X126617120Y-83622865D01*
X126422535Y-83428280D01*
X126193727Y-83275395D01*
X126116485Y-83243400D01*
X126193727Y-83211405D01*
X126422535Y-83058520D01*
X126617120Y-82863935D01*
X126770005Y-82635127D01*
X126802000Y-82557885D01*
X126833995Y-82635127D01*
G36*
X159853995Y-85175127D02*
G01*
X160006880Y-85403935D01*
X160072937Y-85469992D01*
X159992859Y-85523498D01*
X159842498Y-85673859D01*
X159724360Y-85850665D01*
X159642985Y-86047122D01*
X159601500Y-86255679D01*
X159601500Y-86363869D01*
X156769654Y-89195716D01*
X156740578Y-89219578D01*
X156697606Y-89271940D01*
X156645355Y-89335608D01*
X156619775Y-89383465D01*
X156579201Y-89459373D01*
X156481952Y-89413644D01*
X156214865Y-89347377D01*
X155939983Y-89334490D01*
X155667867Y-89375478D01*
X155408977Y-89468764D01*
X155389100Y-89479388D01*
X155389100Y-88753930D01*
X158262790Y-85880241D01*
X158414408Y-85910400D01*
X158689592Y-85910400D01*
X158959490Y-85856714D01*
X159213727Y-85751405D01*
X159442535Y-85598520D01*
X159637120Y-85403935D01*
X159790005Y-85175127D01*
X159822000Y-85097885D01*
X159853995Y-85175127D01*
G37*
X159853995Y-85175127D02*
X160006880Y-85403935D01*
X160072937Y-85469992D01*
X159992859Y-85523498D01*
X159842498Y-85673859D01*
X159724360Y-85850665D01*
X159642985Y-86047122D01*
X159601500Y-86255679D01*
X159601500Y-86363869D01*
X156769654Y-89195716D01*
X156740578Y-89219578D01*
X156697606Y-89271940D01*
X156645355Y-89335608D01*
X156619775Y-89383465D01*
X156579201Y-89459373D01*
X156481952Y-89413644D01*
X156214865Y-89347377D01*
X155939983Y-89334490D01*
X155667867Y-89375478D01*
X155408977Y-89468764D01*
X155389100Y-89479388D01*
X155389100Y-88753930D01*
X158262790Y-85880241D01*
X158414408Y-85910400D01*
X158689592Y-85910400D01*
X158959490Y-85856714D01*
X159213727Y-85751405D01*
X159442535Y-85598520D01*
X159637120Y-85403935D01*
X159790005Y-85175127D01*
X159822000Y-85097885D01*
X159853995Y-85175127D01*
G36*
X148585748Y-84499258D02*
G01*
X148571605Y-84513400D01*
X148585748Y-84527543D01*
X148406143Y-84707148D01*
X148392000Y-84693005D01*
X148377858Y-84707148D01*
X148198253Y-84527543D01*
X148212395Y-84513400D01*
X148198253Y-84499258D01*
X148377858Y-84319653D01*
X148392000Y-84333795D01*
X148406143Y-84319653D01*
X148585748Y-84499258D01*
G37*
X148585748Y-84499258D02*
X148571605Y-84513400D01*
X148585748Y-84527543D01*
X148406143Y-84707148D01*
X148392000Y-84693005D01*
X148377858Y-84707148D01*
X148198253Y-84527543D01*
X148212395Y-84513400D01*
X148198253Y-84499258D01*
X148377858Y-84319653D01*
X148392000Y-84333795D01*
X148406143Y-84319653D01*
X148585748Y-84499258D01*
G36*
X157575685Y-78915222D02*
G01*
X157534200Y-79123779D01*
X157534200Y-79231969D01*
X156183104Y-80583066D01*
X156149592Y-80576400D01*
X155874408Y-80576400D01*
X155604510Y-80630086D01*
X155350273Y-80735395D01*
X155121465Y-80888280D01*
X154926880Y-81082865D01*
X154773995Y-81311673D01*
X154744308Y-81383343D01*
X154739636Y-81370377D01*
X154677656Y-81254420D01*
X154437565Y-81187440D01*
X153651605Y-81973400D01*
X154437565Y-82759360D01*
X154677656Y-82692380D01*
X154741485Y-82556640D01*
X154773995Y-82635127D01*
X154926880Y-82863935D01*
X155121465Y-83058520D01*
X155350273Y-83211405D01*
X155427515Y-83243400D01*
X155350273Y-83275395D01*
X155121465Y-83428280D01*
X154926880Y-83622865D01*
X154773995Y-83851673D01*
X154742000Y-83928915D01*
X154710005Y-83851673D01*
X154557120Y-83622865D01*
X154362535Y-83428280D01*
X154133727Y-83275395D01*
X154062057Y-83245708D01*
X154075023Y-83241036D01*
X154190980Y-83179056D01*
X154257960Y-82938965D01*
X153472000Y-82153005D01*
X152686040Y-82938965D01*
X152753020Y-83179056D01*
X152888760Y-83242885D01*
X152810273Y-83275395D01*
X152581465Y-83428280D01*
X152386880Y-83622865D01*
X152233995Y-83851673D01*
X152202000Y-83928915D01*
X152170005Y-83851673D01*
X152017120Y-83622865D01*
X151822535Y-83428280D01*
X151593727Y-83275395D01*
X151516485Y-83243400D01*
X151593727Y-83211405D01*
X151822535Y-83058520D01*
X152017120Y-82863935D01*
X152170005Y-82635127D01*
X152199692Y-82563457D01*
X152204364Y-82576423D01*
X152266344Y-82692380D01*
X152506435Y-82759360D01*
X153292395Y-81973400D01*
X152506435Y-81187440D01*
X152266344Y-81254420D01*
X152202515Y-81390160D01*
X152170005Y-81311673D01*
X152017120Y-81082865D01*
X151942090Y-81007835D01*
X152686040Y-81007835D01*
X153472000Y-81793795D01*
X154257960Y-81007835D01*
X154190980Y-80767744D01*
X153941952Y-80650644D01*
X153674865Y-80584377D01*
X153399983Y-80571490D01*
X153127867Y-80612478D01*
X152868977Y-80705764D01*
X152753020Y-80767744D01*
X152686040Y-81007835D01*
X151942090Y-81007835D01*
X151822535Y-80888280D01*
X151609198Y-80745732D01*
X153614631Y-78740300D01*
X157648140Y-78740300D01*
X157575685Y-78915222D01*
G37*
X157575685Y-78915222D02*
X157534200Y-79123779D01*
X157534200Y-79231969D01*
X156183104Y-80583066D01*
X156149592Y-80576400D01*
X155874408Y-80576400D01*
X155604510Y-80630086D01*
X155350273Y-80735395D01*
X155121465Y-80888280D01*
X154926880Y-81082865D01*
X154773995Y-81311673D01*
X154744308Y-81383343D01*
X154739636Y-81370377D01*
X154677656Y-81254420D01*
X154437565Y-81187440D01*
X153651605Y-81973400D01*
X154437565Y-82759360D01*
X154677656Y-82692380D01*
X154741485Y-82556640D01*
X154773995Y-82635127D01*
X154926880Y-82863935D01*
X155121465Y-83058520D01*
X155350273Y-83211405D01*
X155427515Y-83243400D01*
X155350273Y-83275395D01*
X155121465Y-83428280D01*
X154926880Y-83622865D01*
X154773995Y-83851673D01*
X154742000Y-83928915D01*
X154710005Y-83851673D01*
X154557120Y-83622865D01*
X154362535Y-83428280D01*
X154133727Y-83275395D01*
X154062057Y-83245708D01*
X154075023Y-83241036D01*
X154190980Y-83179056D01*
X154257960Y-82938965D01*
X153472000Y-82153005D01*
X152686040Y-82938965D01*
X152753020Y-83179056D01*
X152888760Y-83242885D01*
X152810273Y-83275395D01*
X152581465Y-83428280D01*
X152386880Y-83622865D01*
X152233995Y-83851673D01*
X152202000Y-83928915D01*
X152170005Y-83851673D01*
X152017120Y-83622865D01*
X151822535Y-83428280D01*
X151593727Y-83275395D01*
X151516485Y-83243400D01*
X151593727Y-83211405D01*
X151822535Y-83058520D01*
X152017120Y-82863935D01*
X152170005Y-82635127D01*
X152199692Y-82563457D01*
X152204364Y-82576423D01*
X152266344Y-82692380D01*
X152506435Y-82759360D01*
X153292395Y-81973400D01*
X152506435Y-81187440D01*
X152266344Y-81254420D01*
X152202515Y-81390160D01*
X152170005Y-81311673D01*
X152017120Y-81082865D01*
X151942090Y-81007835D01*
X152686040Y-81007835D01*
X153472000Y-81793795D01*
X154257960Y-81007835D01*
X154190980Y-80767744D01*
X153941952Y-80650644D01*
X153674865Y-80584377D01*
X153399983Y-80571490D01*
X153127867Y-80612478D01*
X152868977Y-80705764D01*
X152753020Y-80767744D01*
X152686040Y-81007835D01*
X151942090Y-81007835D01*
X151822535Y-80888280D01*
X151609198Y-80745732D01*
X153614631Y-78740300D01*
X157648140Y-78740300D01*
X157575685Y-78915222D01*
G36*
X150041465Y-83058520D02*
G01*
X150270273Y-83211405D01*
X150347515Y-83243400D01*
X150270273Y-83275395D01*
X150041465Y-83428280D01*
X149846880Y-83622865D01*
X149693995Y-83851673D01*
X149664308Y-83923343D01*
X149659636Y-83910377D01*
X149597656Y-83794420D01*
X149357567Y-83727441D01*
X149473977Y-83611031D01*
X149466938Y-83603992D01*
X150026938Y-83043993D01*
X150041465Y-83058520D01*
G37*
X150041465Y-83058520D02*
X150270273Y-83211405D01*
X150347515Y-83243400D01*
X150270273Y-83275395D01*
X150041465Y-83428280D01*
X149846880Y-83622865D01*
X149693995Y-83851673D01*
X149664308Y-83923343D01*
X149659636Y-83910377D01*
X149597656Y-83794420D01*
X149357567Y-83727441D01*
X149473977Y-83611031D01*
X149466938Y-83603992D01*
X150026938Y-83043993D01*
X150041465Y-83058520D01*
G36*
X123185748Y-81959258D02*
G01*
X123171605Y-81973400D01*
X123185748Y-81987543D01*
X123006143Y-82167148D01*
X122992000Y-82153005D01*
X122977858Y-82167148D01*
X122798253Y-81987543D01*
X122812395Y-81973400D01*
X122798253Y-81959258D01*
X122977858Y-81779653D01*
X122992000Y-81793795D01*
X123006143Y-81779653D01*
X123185748Y-81959258D01*
G37*
X123185748Y-81959258D02*
X123171605Y-81973400D01*
X123185748Y-81987543D01*
X123006143Y-82167148D01*
X122992000Y-82153005D01*
X122977858Y-82167148D01*
X122798253Y-81987543D01*
X122812395Y-81973400D01*
X122798253Y-81959258D01*
X122977858Y-81779653D01*
X122992000Y-81793795D01*
X123006143Y-81779653D01*
X123185748Y-81959258D01*
G36*
X132469444Y-80748275D02*
G01*
X132433020Y-80767744D01*
X132366040Y-81007835D01*
X133152000Y-81793795D01*
X133166143Y-81779653D01*
X133345748Y-81959258D01*
X133331605Y-81973400D01*
X133345748Y-81987543D01*
X133166143Y-82167148D01*
X133152000Y-82153005D01*
X133137858Y-82167148D01*
X132958253Y-81987543D01*
X132972395Y-81973400D01*
X132186435Y-81187440D01*
X131946344Y-81254420D01*
X131882515Y-81390160D01*
X131850005Y-81311673D01*
X131697120Y-81082865D01*
X131502535Y-80888280D01*
X131273727Y-80735395D01*
X131019490Y-80630086D01*
X130749592Y-80576400D01*
X130474408Y-80576400D01*
X130322790Y-80606559D01*
X124503484Y-74787254D01*
X124479622Y-74758178D01*
X124363592Y-74662955D01*
X124231215Y-74592198D01*
X124087578Y-74548626D01*
X123975626Y-74537600D01*
X123975623Y-74537600D01*
X123938200Y-74533914D01*
X123900777Y-74537600D01*
X121525080Y-74537600D01*
X121695241Y-74423902D01*
X121771743Y-74347400D01*
X126068570Y-74347400D01*
X132469444Y-80748275D01*
G37*
X132469444Y-80748275D02*
X132433020Y-80767744D01*
X132366040Y-81007835D01*
X133152000Y-81793795D01*
X133166143Y-81779653D01*
X133345748Y-81959258D01*
X133331605Y-81973400D01*
X133345748Y-81987543D01*
X133166143Y-82167148D01*
X133152000Y-82153005D01*
X133137858Y-82167148D01*
X132958253Y-81987543D01*
X132972395Y-81973400D01*
X132186435Y-81187440D01*
X131946344Y-81254420D01*
X131882515Y-81390160D01*
X131850005Y-81311673D01*
X131697120Y-81082865D01*
X131502535Y-80888280D01*
X131273727Y-80735395D01*
X131019490Y-80630086D01*
X130749592Y-80576400D01*
X130474408Y-80576400D01*
X130322790Y-80606559D01*
X124503484Y-74787254D01*
X124479622Y-74758178D01*
X124363592Y-74662955D01*
X124231215Y-74592198D01*
X124087578Y-74548626D01*
X123975626Y-74537600D01*
X123975623Y-74537600D01*
X123938200Y-74533914D01*
X123900777Y-74537600D01*
X121525080Y-74537600D01*
X121695241Y-74423902D01*
X121771743Y-74347400D01*
X126068570Y-74347400D01*
X132469444Y-80748275D01*
G36*
X140965748Y-81959258D02*
G01*
X140951605Y-81973400D01*
X140965748Y-81987543D01*
X140786143Y-82167148D01*
X140772000Y-82153005D01*
X140757858Y-82167148D01*
X140578253Y-81987543D01*
X140592395Y-81973400D01*
X140578253Y-81959258D01*
X140757858Y-81779653D01*
X140772000Y-81793795D01*
X140786143Y-81779653D01*
X140965748Y-81959258D01*
G37*
X140965748Y-81959258D02*
X140951605Y-81973400D01*
X140965748Y-81987543D01*
X140786143Y-82167148D01*
X140772000Y-82153005D01*
X140757858Y-82167148D01*
X140578253Y-81987543D01*
X140592395Y-81973400D01*
X140578253Y-81959258D01*
X140757858Y-81779653D01*
X140772000Y-81793795D01*
X140786143Y-81779653D01*
X140965748Y-81959258D01*
G36*
X170305368Y-66362875D02*
G01*
X170487534Y-66484595D01*
X170370645Y-66554222D01*
X170154412Y-66749131D01*
X169980359Y-66982480D01*
X169855175Y-67245301D01*
X169810524Y-67392510D01*
X169931845Y-67622400D01*
X171125000Y-67622400D01*
X171125000Y-67602400D01*
X171379000Y-67602400D01*
X171379000Y-67622400D01*
X171399000Y-67622400D01*
X171399000Y-67876400D01*
X171379000Y-67876400D01*
X171379000Y-67896400D01*
X171125000Y-67896400D01*
X171125000Y-67876400D01*
X169931845Y-67876400D01*
X169810524Y-68106290D01*
X169855175Y-68253499D01*
X169980359Y-68516320D01*
X170154412Y-68749669D01*
X170370645Y-68944578D01*
X170487534Y-69014205D01*
X170305368Y-69135925D01*
X170098525Y-69342768D01*
X169974586Y-69528256D01*
X169871322Y-69538426D01*
X169727685Y-69581998D01*
X169684623Y-69605015D01*
X169595307Y-69652755D01*
X169581173Y-69664355D01*
X169479278Y-69747978D01*
X169455416Y-69777054D01*
X165533870Y-73698600D01*
X163465350Y-73698600D01*
X163466400Y-73693321D01*
X163466400Y-73480679D01*
X163424915Y-73272122D01*
X163343540Y-73075665D01*
X163225402Y-72898859D01*
X163075041Y-72748498D01*
X162898235Y-72630360D01*
X162701778Y-72548985D01*
X162657613Y-72540200D01*
X163414477Y-72540200D01*
X163451900Y-72543886D01*
X163489323Y-72540200D01*
X163489326Y-72540200D01*
X163601278Y-72529174D01*
X163744915Y-72485602D01*
X163877292Y-72414845D01*
X163993322Y-72319622D01*
X164017184Y-72290546D01*
X170125112Y-66182619D01*
X170305368Y-66362875D01*
G37*
X170305368Y-66362875D02*
X170487534Y-66484595D01*
X170370645Y-66554222D01*
X170154412Y-66749131D01*
X169980359Y-66982480D01*
X169855175Y-67245301D01*
X169810524Y-67392510D01*
X169931845Y-67622400D01*
X171125000Y-67622400D01*
X171125000Y-67602400D01*
X171379000Y-67602400D01*
X171379000Y-67622400D01*
X171399000Y-67622400D01*
X171399000Y-67876400D01*
X171379000Y-67876400D01*
X171379000Y-67896400D01*
X171125000Y-67896400D01*
X171125000Y-67876400D01*
X169931845Y-67876400D01*
X169810524Y-68106290D01*
X169855175Y-68253499D01*
X169980359Y-68516320D01*
X170154412Y-68749669D01*
X170370645Y-68944578D01*
X170487534Y-69014205D01*
X170305368Y-69135925D01*
X170098525Y-69342768D01*
X169974586Y-69528256D01*
X169871322Y-69538426D01*
X169727685Y-69581998D01*
X169684623Y-69605015D01*
X169595307Y-69652755D01*
X169581173Y-69664355D01*
X169479278Y-69747978D01*
X169455416Y-69777054D01*
X165533870Y-73698600D01*
X163465350Y-73698600D01*
X163466400Y-73693321D01*
X163466400Y-73480679D01*
X163424915Y-73272122D01*
X163343540Y-73075665D01*
X163225402Y-72898859D01*
X163075041Y-72748498D01*
X162898235Y-72630360D01*
X162701778Y-72548985D01*
X162657613Y-72540200D01*
X163414477Y-72540200D01*
X163451900Y-72543886D01*
X163489323Y-72540200D01*
X163489326Y-72540200D01*
X163601278Y-72529174D01*
X163744915Y-72485602D01*
X163877292Y-72414845D01*
X163993322Y-72319622D01*
X164017184Y-72290546D01*
X170125112Y-66182619D01*
X170305368Y-66362875D01*
G36*
X130805748Y-67735258D02*
G01*
X130791605Y-67749400D01*
X131577565Y-68535360D01*
X131817656Y-68468380D01*
X131881485Y-68332640D01*
X131913995Y-68411127D01*
X132066880Y-68639935D01*
X132261465Y-68834520D01*
X132390001Y-68920405D01*
X132390001Y-69274582D01*
X132386314Y-69312030D01*
X132392573Y-69375545D01*
X132401027Y-69461378D01*
X132401032Y-69461393D01*
X132401033Y-69461407D01*
X132423455Y-69535314D01*
X132444599Y-69605015D01*
X132444605Y-69605026D01*
X132444610Y-69605043D01*
X132481258Y-69673600D01*
X132515356Y-69737392D01*
X132515364Y-69737401D01*
X132515372Y-69737417D01*
X132565879Y-69798955D01*
X132610579Y-69853422D01*
X132639661Y-69877289D01*
X133349348Y-70586921D01*
X132136428Y-71799842D01*
X131953722Y-71836185D01*
X131757265Y-71917560D01*
X131580459Y-72035698D01*
X131430098Y-72186059D01*
X131311960Y-72362865D01*
X131230585Y-72559322D01*
X131213972Y-72642841D01*
X127663373Y-69092243D01*
X127664510Y-69092714D01*
X127934408Y-69146400D01*
X128209592Y-69146400D01*
X128479490Y-69092714D01*
X128733727Y-68987405D01*
X128962535Y-68834520D01*
X129082090Y-68714965D01*
X129826040Y-68714965D01*
X129893020Y-68955056D01*
X130142048Y-69072156D01*
X130409135Y-69138423D01*
X130684017Y-69151310D01*
X130956133Y-69110322D01*
X131215023Y-69017036D01*
X131330980Y-68955056D01*
X131397960Y-68714965D01*
X130612000Y-67929005D01*
X129826040Y-68714965D01*
X129082090Y-68714965D01*
X129157120Y-68639935D01*
X129310005Y-68411127D01*
X129339692Y-68339457D01*
X129344364Y-68352423D01*
X129406344Y-68468380D01*
X129646435Y-68535360D01*
X130432395Y-67749400D01*
X130418253Y-67735258D01*
X130597858Y-67555653D01*
X130612000Y-67569795D01*
X130626143Y-67555653D01*
X130805748Y-67735258D01*
G37*
X130805748Y-67735258D02*
X130791605Y-67749400D01*
X131577565Y-68535360D01*
X131817656Y-68468380D01*
X131881485Y-68332640D01*
X131913995Y-68411127D01*
X132066880Y-68639935D01*
X132261465Y-68834520D01*
X132390001Y-68920405D01*
X132390001Y-69274582D01*
X132386314Y-69312030D01*
X132392573Y-69375545D01*
X132401027Y-69461378D01*
X132401032Y-69461393D01*
X132401033Y-69461407D01*
X132423455Y-69535314D01*
X132444599Y-69605015D01*
X132444605Y-69605026D01*
X132444610Y-69605043D01*
X132481258Y-69673600D01*
X132515356Y-69737392D01*
X132515364Y-69737401D01*
X132515372Y-69737417D01*
X132565879Y-69798955D01*
X132610579Y-69853422D01*
X132639661Y-69877289D01*
X133349348Y-70586921D01*
X132136428Y-71799842D01*
X131953722Y-71836185D01*
X131757265Y-71917560D01*
X131580459Y-72035698D01*
X131430098Y-72186059D01*
X131311960Y-72362865D01*
X131230585Y-72559322D01*
X131213972Y-72642841D01*
X127663373Y-69092243D01*
X127664510Y-69092714D01*
X127934408Y-69146400D01*
X128209592Y-69146400D01*
X128479490Y-69092714D01*
X128733727Y-68987405D01*
X128962535Y-68834520D01*
X129082090Y-68714965D01*
X129826040Y-68714965D01*
X129893020Y-68955056D01*
X130142048Y-69072156D01*
X130409135Y-69138423D01*
X130684017Y-69151310D01*
X130956133Y-69110322D01*
X131215023Y-69017036D01*
X131330980Y-68955056D01*
X131397960Y-68714965D01*
X130612000Y-67929005D01*
X129826040Y-68714965D01*
X129082090Y-68714965D01*
X129157120Y-68639935D01*
X129310005Y-68411127D01*
X129339692Y-68339457D01*
X129344364Y-68352423D01*
X129406344Y-68468380D01*
X129646435Y-68535360D01*
X130432395Y-67749400D01*
X130418253Y-67735258D01*
X130597858Y-67555653D01*
X130612000Y-67569795D01*
X130626143Y-67555653D01*
X130805748Y-67735258D01*
%TD*%
M02*
