%TF.GenerationSoftware,KiCad,Pcbnew,(5.1.6)-1*%
%TF.CreationDate,2020-10-07T23:45:21+02:00*%
%TF.ProjectId,RPI_FEATHER,5250495f-4645-4415-9448-45522e6b6963,rev?*%
%TF.SameCoordinates,Original*%
%TF.FileFunction,Copper,L2,Bot*%
%TF.FilePolarity,Positive*%
%FSLAX46Y46*%
G04 Gerber Fmt 4.6, Leading zero omitted, Abs format (unit mm)*
G04 Created by KiCad (PCBNEW (5.1.6)-1) date 2020-10-07 23:45:21*
%MOMM*%
%LPD*%
G01*
G04 APERTURE LIST*
%TA.AperFunction,ComponentPad*%
%ADD10C,1.524000*%
%TD*%
%TA.AperFunction,ComponentPad*%
%ADD11R,1.524000X1.524000*%
%TD*%
%TA.AperFunction,WasherPad*%
%ADD12C,3.556000*%
%TD*%
%TA.AperFunction,ComponentPad*%
%ADD13O,1.700000X1.700000*%
%TD*%
%TA.AperFunction,ComponentPad*%
%ADD14R,1.700000X1.700000*%
%TD*%
%TA.AperFunction,SMDPad,CuDef*%
%ADD15C,1.524000*%
%TD*%
%TA.AperFunction,ViaPad*%
%ADD16C,0.889000*%
%TD*%
%TA.AperFunction,Conductor*%
%ADD17C,0.254000*%
%TD*%
G04 APERTURE END LIST*
D10*
%TO.P,PI2,40*%
%TO.N,/GPIO21*%
X117912000Y-93276400D03*
%TO.P,PI2,39*%
%TO.N,GND*%
X117912000Y-90736400D03*
%TO.P,PI2,38*%
%TO.N,/GPIO20*%
X120452000Y-93276400D03*
%TO.P,PI2,37*%
%TO.N,/GPIO26*%
X120452000Y-90736400D03*
%TO.P,PI2,36*%
%TO.N,/GPIO16*%
X122992000Y-93276400D03*
%TO.P,PI2,35*%
%TO.N,/GPIO19*%
X122992000Y-90736400D03*
%TO.P,PI2,34*%
%TO.N,GND*%
X125532000Y-93276400D03*
%TO.P,PI2,33*%
%TO.N,/GPIO13*%
X125532000Y-90736400D03*
%TO.P,PI2,32*%
%TO.N,/GPIO12*%
X128072000Y-93276400D03*
%TO.P,PI2,31*%
%TO.N,/GPIO6*%
X128072000Y-90736400D03*
%TO.P,PI2,30*%
%TO.N,GND*%
X130612000Y-93276400D03*
%TO.P,PI2,29*%
%TO.N,/GPIO5*%
X130612000Y-90736400D03*
%TO.P,PI2,28*%
%TO.N,Net-(PI1-Pad28)*%
X133152000Y-93276400D03*
%TO.P,PI2,27*%
%TO.N,/A0*%
X133152000Y-90736400D03*
%TO.P,PI2,26*%
%TO.N,Net-(PI1-Pad26)*%
X135692000Y-93276400D03*
%TO.P,PI2,25*%
%TO.N,GND*%
X135692000Y-90736400D03*
%TO.P,PI2,24*%
%TO.N,/F13*%
X138232000Y-93276400D03*
%TO.P,PI2,23*%
%TO.N,/SCK*%
X138232000Y-90736400D03*
%TO.P,PI2,22*%
%TO.N,/F12*%
X140772000Y-93276400D03*
%TO.P,PI2,21*%
%TO.N,/MISO*%
X140772000Y-90736400D03*
%TO.P,PI2,20*%
%TO.N,GND*%
X143312000Y-93276400D03*
%TO.P,PI2,19*%
%TO.N,/MOSI*%
X143312000Y-90736400D03*
%TO.P,PI2,18*%
%TO.N,/F11*%
X145852000Y-93276400D03*
%TO.P,PI2,17*%
%TO.N,3.3v*%
X145852000Y-90736400D03*
%TO.P,PI2,16*%
%TO.N,/GPIO23*%
X148392000Y-93276400D03*
%TO.P,PI2,15*%
%TO.N,/F9*%
X148392000Y-90736400D03*
%TO.P,PI2,14*%
%TO.N,GND*%
X150932000Y-93276400D03*
%TO.P,PI2,13*%
%TO.N,/F6*%
X150932000Y-90736400D03*
%TO.P,PI2,12*%
%TO.N,/GPIO18*%
X153472000Y-93276400D03*
%TO.P,PI2,11*%
%TO.N,/F5*%
X153472000Y-90736400D03*
%TO.P,PI2,10*%
%TO.N,/TX*%
X156012000Y-93276400D03*
%TO.P,PI2,9*%
%TO.N,GND*%
X156012000Y-90736400D03*
%TO.P,PI2,8*%
%TO.N,/RX*%
X158552000Y-93276400D03*
%TO.P,PI2,7*%
%TO.N,/GPIO4*%
X158552000Y-90736400D03*
%TO.P,PI2,6*%
%TO.N,GND*%
X161092000Y-93276400D03*
%TO.P,PI2,5*%
%TO.N,SCL*%
X161092000Y-90736400D03*
%TO.P,PI2,4*%
%TO.N,/5v*%
X163632000Y-93276400D03*
%TO.P,PI2,3*%
%TO.N,SDA*%
X163632000Y-90736400D03*
%TO.P,PI2,2*%
%TO.N,/5v*%
X166172000Y-93276400D03*
D11*
%TO.P,PI2,1*%
%TO.N,3.3v*%
X166172000Y-90736400D03*
%TD*%
D12*
%TO.P,U1,*%
%TO.N,*%
X164902000Y-66479400D03*
X119182000Y-66479400D03*
X164902000Y-48699400D03*
X119182000Y-48699400D03*
D10*
%TO.P,U1,1*%
%TO.N,/FSDA*%
X161092000Y-47429400D03*
%TO.P,U1,2*%
%TO.N,/FSCL*%
X158552000Y-47429400D03*
%TO.P,U1,3*%
%TO.N,/F5*%
X156012000Y-47429400D03*
%TO.P,U1,4*%
%TO.N,/F6*%
X153472000Y-47429400D03*
%TO.P,U1,5*%
%TO.N,/F9*%
X150932000Y-47429400D03*
%TO.P,U1,6*%
%TO.N,N/C*%
X148392000Y-47429400D03*
%TO.P,U1,7*%
%TO.N,/F11*%
X145852000Y-47429400D03*
%TO.P,U1,8*%
%TO.N,/F12*%
X143312000Y-47429400D03*
%TO.P,U1,9*%
%TO.N,/F13*%
X140772000Y-47429400D03*
%TO.P,U1,10*%
%TO.N,/5v*%
X138232000Y-47429400D03*
%TO.P,U1,11*%
%TO.N,N/C*%
X135692000Y-47429400D03*
%TO.P,U1,12*%
X133152000Y-47429400D03*
%TO.P,U1,13*%
X161092000Y-67749400D03*
%TO.P,U1,14*%
%TO.N,Net-(R1-Pad2)*%
X158552000Y-67749400D03*
%TO.P,U1,15*%
%TO.N,Net-(R2-Pad2)*%
X156012000Y-67749400D03*
%TO.P,U1,16*%
%TO.N,/MISO*%
X153472000Y-67749400D03*
%TO.P,U1,17*%
%TO.N,/MOSI*%
X150932000Y-67749400D03*
%TO.P,U1,18*%
%TO.N,/SCK*%
X148392000Y-67749400D03*
%TO.P,U1,19*%
%TO.N,/A5*%
X145852000Y-67749400D03*
%TO.P,U1,20*%
%TO.N,/A4*%
X143312000Y-67749400D03*
%TO.P,U1,21*%
%TO.N,/A3*%
X140772000Y-67749400D03*
%TO.P,U1,22*%
%TO.N,/A2*%
X138232000Y-67749400D03*
%TO.P,U1,23*%
%TO.N,/A1*%
X135692000Y-67749400D03*
%TO.P,U1,24*%
%TO.N,/A0*%
X133152000Y-67749400D03*
%TO.P,U1,25*%
%TO.N,GND*%
X130612000Y-67749400D03*
%TO.P,U1,26*%
%TO.N,N/C*%
X128072000Y-67749400D03*
%TO.P,U1,27*%
%TO.N,3.3v*%
X125532000Y-67749400D03*
%TO.P,U1,28*%
%TO.N,/FRST*%
X122992000Y-67749400D03*
%TD*%
D11*
%TO.P,PI1,1*%
%TO.N,3.3v*%
X117912000Y-84513400D03*
D10*
%TO.P,PI1,2*%
%TO.N,/5v*%
X117912000Y-81973400D03*
%TO.P,PI1,3*%
%TO.N,SDA*%
X120452000Y-84513400D03*
%TO.P,PI1,4*%
%TO.N,/5v*%
X120452000Y-81973400D03*
%TO.P,PI1,5*%
%TO.N,SCL*%
X122992000Y-84513400D03*
%TO.P,PI1,6*%
%TO.N,GND*%
X122992000Y-81973400D03*
%TO.P,PI1,7*%
%TO.N,/GPIO4*%
X125532000Y-84513400D03*
%TO.P,PI1,8*%
%TO.N,/RX*%
X125532000Y-81973400D03*
%TO.P,PI1,9*%
%TO.N,GND*%
X128072000Y-84513400D03*
%TO.P,PI1,10*%
%TO.N,/TX*%
X128072000Y-81973400D03*
%TO.P,PI1,11*%
%TO.N,/F5*%
X130612000Y-84513400D03*
%TO.P,PI1,12*%
%TO.N,/GPIO18*%
X130612000Y-81973400D03*
%TO.P,PI1,13*%
%TO.N,/F6*%
X133152000Y-84513400D03*
%TO.P,PI1,14*%
%TO.N,GND*%
X133152000Y-81973400D03*
%TO.P,PI1,15*%
%TO.N,/F9*%
X135692000Y-84513400D03*
%TO.P,PI1,16*%
%TO.N,/GPIO23*%
X135692000Y-81973400D03*
%TO.P,PI1,17*%
%TO.N,3.3v*%
X138232000Y-84513400D03*
%TO.P,PI1,18*%
%TO.N,/F11*%
X138232000Y-81973400D03*
%TO.P,PI1,19*%
%TO.N,/MOSI*%
X140772000Y-84513400D03*
%TO.P,PI1,20*%
%TO.N,GND*%
X140772000Y-81973400D03*
%TO.P,PI1,21*%
%TO.N,/MISO*%
X143312000Y-84513400D03*
%TO.P,PI1,22*%
%TO.N,/F12*%
X143312000Y-81973400D03*
%TO.P,PI1,23*%
%TO.N,/SCK*%
X145852000Y-84513400D03*
%TO.P,PI1,24*%
%TO.N,/F13*%
X145852000Y-81973400D03*
%TO.P,PI1,25*%
%TO.N,GND*%
X148392000Y-84513400D03*
%TO.P,PI1,26*%
%TO.N,Net-(PI1-Pad26)*%
X148392000Y-81973400D03*
%TO.P,PI1,27*%
%TO.N,/A0*%
X150932000Y-84513400D03*
%TO.P,PI1,28*%
%TO.N,Net-(PI1-Pad28)*%
X150932000Y-81973400D03*
%TO.P,PI1,29*%
%TO.N,/GPIO5*%
X153472000Y-84513400D03*
%TO.P,PI1,30*%
%TO.N,GND*%
X153472000Y-81973400D03*
%TO.P,PI1,31*%
%TO.N,/GPIO6*%
X156012000Y-84513400D03*
%TO.P,PI1,32*%
%TO.N,/GPIO12*%
X156012000Y-81973400D03*
%TO.P,PI1,33*%
%TO.N,/GPIO13*%
X158552000Y-84513400D03*
%TO.P,PI1,34*%
%TO.N,GND*%
X158552000Y-81973400D03*
%TO.P,PI1,35*%
%TO.N,/GPIO19*%
X161092000Y-84513400D03*
%TO.P,PI1,36*%
%TO.N,/GPIO16*%
X161092000Y-81973400D03*
%TO.P,PI1,37*%
%TO.N,/GPIO26*%
X163632000Y-84513400D03*
%TO.P,PI1,38*%
%TO.N,/GPIO20*%
X163632000Y-81973400D03*
%TO.P,PI1,39*%
%TO.N,GND*%
X166172000Y-84513400D03*
%TO.P,PI1,40*%
%TO.N,/GPIO21*%
X166172000Y-81973400D03*
%TD*%
%TO.P,R1,1*%
%TO.N,/TX*%
%TA.AperFunction,SMDPad,CuDef*%
G36*
G01*
X150602000Y-74549401D02*
X150602000Y-73649399D01*
G75*
G02*
X150851999Y-73399400I249999J0D01*
G01*
X151502001Y-73399400D01*
G75*
G02*
X151752000Y-73649399I0J-249999D01*
G01*
X151752000Y-74549401D01*
G75*
G02*
X151502001Y-74799400I-249999J0D01*
G01*
X150851999Y-74799400D01*
G75*
G02*
X150602000Y-74549401I0J249999D01*
G01*
G37*
%TD.AperFunction*%
%TO.P,R1,2*%
%TO.N,Net-(R1-Pad2)*%
%TA.AperFunction,SMDPad,CuDef*%
G36*
G01*
X152652000Y-74549401D02*
X152652000Y-73649399D01*
G75*
G02*
X152901999Y-73399400I249999J0D01*
G01*
X153552001Y-73399400D01*
G75*
G02*
X153802000Y-73649399I0J-249999D01*
G01*
X153802000Y-74549401D01*
G75*
G02*
X153552001Y-74799400I-249999J0D01*
G01*
X152901999Y-74799400D01*
G75*
G02*
X152652000Y-74549401I0J249999D01*
G01*
G37*
%TD.AperFunction*%
%TD*%
%TO.P,R2,2*%
%TO.N,Net-(R2-Pad2)*%
%TA.AperFunction,SMDPad,CuDef*%
G36*
G01*
X152652000Y-77089401D02*
X152652000Y-76189399D01*
G75*
G02*
X152901999Y-75939400I249999J0D01*
G01*
X153552001Y-75939400D01*
G75*
G02*
X153802000Y-76189399I0J-249999D01*
G01*
X153802000Y-77089401D01*
G75*
G02*
X153552001Y-77339400I-249999J0D01*
G01*
X152901999Y-77339400D01*
G75*
G02*
X152652000Y-77089401I0J249999D01*
G01*
G37*
%TD.AperFunction*%
%TO.P,R2,1*%
%TO.N,/RX*%
%TA.AperFunction,SMDPad,CuDef*%
G36*
G01*
X150602000Y-77089401D02*
X150602000Y-76189399D01*
G75*
G02*
X150851999Y-75939400I249999J0D01*
G01*
X151502001Y-75939400D01*
G75*
G02*
X151752000Y-76189399I0J-249999D01*
G01*
X151752000Y-77089401D01*
G75*
G02*
X151502001Y-77339400I-249999J0D01*
G01*
X150851999Y-77339400D01*
G75*
G02*
X150602000Y-77089401I0J249999D01*
G01*
G37*
%TD.AperFunction*%
%TD*%
D13*
%TO.P,J1,12*%
%TO.N,/MISO*%
X171252000Y-75369400D03*
%TO.P,J1,11*%
%TO.N,/MOSI*%
X171252000Y-72829400D03*
%TO.P,J1,10*%
%TO.N,/SCK*%
X171252000Y-70289400D03*
%TO.P,J1,9*%
%TO.N,GND*%
X171252000Y-67749400D03*
%TO.P,J1,8*%
%TO.N,3.3v*%
X171252000Y-65209400D03*
%TO.P,J1,7*%
%TO.N,/FRST*%
X171252000Y-62669400D03*
%TO.P,J1,6*%
%TO.N,/A0*%
X171252000Y-60129400D03*
%TO.P,J1,5*%
%TO.N,/A1*%
X171252000Y-57589400D03*
%TO.P,J1,4*%
%TO.N,/A2*%
X171252000Y-55049400D03*
%TO.P,J1,3*%
%TO.N,/A3*%
X171252000Y-52509400D03*
%TO.P,J1,2*%
%TO.N,/A4*%
X171252000Y-49969400D03*
D14*
%TO.P,J1,1*%
%TO.N,/A5*%
X171252000Y-47429400D03*
%TD*%
%TO.P,J2,1*%
%TO.N,/GPIO4*%
X112832000Y-47429400D03*
D13*
%TO.P,J2,2*%
%TO.N,/GPIO5*%
X112832000Y-49969400D03*
%TO.P,J2,3*%
%TO.N,/GPIO6*%
X112832000Y-52509400D03*
%TO.P,J2,4*%
%TO.N,/GPIO12*%
X112832000Y-55049400D03*
%TO.P,J2,5*%
%TO.N,/GPIO13*%
X112832000Y-57589400D03*
%TO.P,J2,6*%
%TO.N,/GPIO16*%
X112832000Y-60129400D03*
%TO.P,J2,7*%
%TO.N,/GPIO18*%
X112832000Y-62669400D03*
%TO.P,J2,8*%
%TO.N,/GPIO19*%
X112832000Y-65209400D03*
%TO.P,J2,9*%
%TO.N,/GPIO20*%
X112832000Y-67749400D03*
%TO.P,J2,10*%
%TO.N,/GPIO21*%
X112832000Y-70289400D03*
%TO.P,J2,11*%
%TO.N,/GPIO23*%
X112832000Y-72829400D03*
%TO.P,J2,12*%
%TO.N,/GPIO26*%
X112832000Y-75369400D03*
%TD*%
D15*
%TO.P,J3,1*%
%TO.N,/FSDA*%
X138232000Y-75369400D03*
%TO.P,J3,2*%
%TO.N,/FSCL*%
X135692000Y-75369400D03*
%TO.P,J3,3*%
%TO.N,SDA*%
X133152000Y-75369400D03*
%TO.P,J3,4*%
%TO.N,SCL*%
X130612000Y-75369400D03*
%TD*%
%TO.P,R4,2*%
%TO.N,3.3v*%
%TA.AperFunction,SMDPad,CuDef*%
G36*
G01*
X143467000Y-77384401D02*
X143467000Y-76484399D01*
G75*
G02*
X143716999Y-76234400I249999J0D01*
G01*
X144367001Y-76234400D01*
G75*
G02*
X144617000Y-76484399I0J-249999D01*
G01*
X144617000Y-77384401D01*
G75*
G02*
X144367001Y-77634400I-249999J0D01*
G01*
X143716999Y-77634400D01*
G75*
G02*
X143467000Y-77384401I0J249999D01*
G01*
G37*
%TD.AperFunction*%
%TO.P,R4,1*%
%TO.N,/FSCL*%
%TA.AperFunction,SMDPad,CuDef*%
G36*
G01*
X141417000Y-77384401D02*
X141417000Y-76484399D01*
G75*
G02*
X141666999Y-76234400I249999J0D01*
G01*
X142317001Y-76234400D01*
G75*
G02*
X142567000Y-76484399I0J-249999D01*
G01*
X142567000Y-77384401D01*
G75*
G02*
X142317001Y-77634400I-249999J0D01*
G01*
X141666999Y-77634400D01*
G75*
G02*
X141417000Y-77384401I0J249999D01*
G01*
G37*
%TD.AperFunction*%
%TD*%
%TO.P,R5,2*%
%TO.N,3.3v*%
%TA.AperFunction,SMDPad,CuDef*%
G36*
G01*
X147572000Y-77384401D02*
X147572000Y-76484399D01*
G75*
G02*
X147821999Y-76234400I249999J0D01*
G01*
X148472001Y-76234400D01*
G75*
G02*
X148722000Y-76484399I0J-249999D01*
G01*
X148722000Y-77384401D01*
G75*
G02*
X148472001Y-77634400I-249999J0D01*
G01*
X147821999Y-77634400D01*
G75*
G02*
X147572000Y-77384401I0J249999D01*
G01*
G37*
%TD.AperFunction*%
%TO.P,R5,1*%
%TO.N,SCL*%
%TA.AperFunction,SMDPad,CuDef*%
G36*
G01*
X145522000Y-77384401D02*
X145522000Y-76484399D01*
G75*
G02*
X145771999Y-76234400I249999J0D01*
G01*
X146422001Y-76234400D01*
G75*
G02*
X146672000Y-76484399I0J-249999D01*
G01*
X146672000Y-77384401D01*
G75*
G02*
X146422001Y-77634400I-249999J0D01*
G01*
X145771999Y-77634400D01*
G75*
G02*
X145522000Y-77384401I0J249999D01*
G01*
G37*
%TD.AperFunction*%
%TD*%
%TO.P,R6,1*%
%TO.N,/FSDA*%
%TA.AperFunction,SMDPad,CuDef*%
G36*
G01*
X145522000Y-74549401D02*
X145522000Y-73649399D01*
G75*
G02*
X145771999Y-73399400I249999J0D01*
G01*
X146422001Y-73399400D01*
G75*
G02*
X146672000Y-73649399I0J-249999D01*
G01*
X146672000Y-74549401D01*
G75*
G02*
X146422001Y-74799400I-249999J0D01*
G01*
X145771999Y-74799400D01*
G75*
G02*
X145522000Y-74549401I0J249999D01*
G01*
G37*
%TD.AperFunction*%
%TO.P,R6,2*%
%TO.N,3.3v*%
%TA.AperFunction,SMDPad,CuDef*%
G36*
G01*
X147572000Y-74549401D02*
X147572000Y-73649399D01*
G75*
G02*
X147821999Y-73399400I249999J0D01*
G01*
X148472001Y-73399400D01*
G75*
G02*
X148722000Y-73649399I0J-249999D01*
G01*
X148722000Y-74549401D01*
G75*
G02*
X148472001Y-74799400I-249999J0D01*
G01*
X147821999Y-74799400D01*
G75*
G02*
X147572000Y-74549401I0J249999D01*
G01*
G37*
%TD.AperFunction*%
%TD*%
%TO.P,R7,1*%
%TO.N,SDA*%
%TA.AperFunction,SMDPad,CuDef*%
G36*
G01*
X141417000Y-74434401D02*
X141417000Y-73534399D01*
G75*
G02*
X141666999Y-73284400I249999J0D01*
G01*
X142317001Y-73284400D01*
G75*
G02*
X142567000Y-73534399I0J-249999D01*
G01*
X142567000Y-74434401D01*
G75*
G02*
X142317001Y-74684400I-249999J0D01*
G01*
X141666999Y-74684400D01*
G75*
G02*
X141417000Y-74434401I0J249999D01*
G01*
G37*
%TD.AperFunction*%
%TO.P,R7,2*%
%TO.N,3.3v*%
%TA.AperFunction,SMDPad,CuDef*%
G36*
G01*
X143467000Y-74434401D02*
X143467000Y-73534399D01*
G75*
G02*
X143716999Y-73284400I249999J0D01*
G01*
X144367001Y-73284400D01*
G75*
G02*
X144617000Y-73534399I0J-249999D01*
G01*
X144617000Y-74434401D01*
G75*
G02*
X144367001Y-74684400I-249999J0D01*
G01*
X143716999Y-74684400D01*
G75*
G02*
X143467000Y-74434401I0J249999D01*
G01*
G37*
%TD.AperFunction*%
%TD*%
D16*
%TO.N,3.3v*%
X138232000Y-88351000D03*
X136931200Y-78288300D03*
X150468200Y-71778200D03*
%TO.N,/5v*%
X131484900Y-48825700D03*
%TO.N,/RX*%
X121870100Y-77838100D03*
X121870100Y-68738900D03*
X147782900Y-65245600D03*
%TO.N,/TX*%
X160681000Y-86362000D03*
X162386900Y-73587000D03*
X133411900Y-72777900D03*
X149831300Y-73587000D03*
%TO.N,/MOSI*%
X147442100Y-80368300D03*
X157500000Y-76409400D03*
%TO.N,/SCK*%
X142313700Y-89176900D03*
X148392000Y-72637500D03*
%TO.N,/A0*%
X132268600Y-72874200D03*
X168200200Y-62844600D03*
%TO.N,/GPIO4*%
X163249600Y-88315300D03*
X171686700Y-77877400D03*
%TO.N,/GPIO6*%
X159782900Y-89894800D03*
%TO.N,/GPIO12*%
X158613700Y-79230100D03*
X151253900Y-59154400D03*
%TO.N,/GPIO16*%
X154331800Y-59863400D03*
%TO.N,/GPIO20*%
X155475200Y-59820600D03*
X114486100Y-60705100D03*
%TO.N,/GPIO21*%
X117343200Y-79703100D03*
X117343200Y-70798600D03*
%TO.N,/GPIO23*%
X134421800Y-87765900D03*
%TO.N,/F5*%
X121007100Y-73585400D03*
%TO.N,/F6*%
X123587500Y-76125400D03*
%TO.N,/F9*%
X136253700Y-87752900D03*
%TO.N,/F11*%
X136962100Y-94143400D03*
X128593100Y-72334500D03*
%TO.N,/F12*%
X138523900Y-72566300D03*
%TO.N,/F13*%
X137001800Y-73392200D03*
%TO.N,SDA*%
X121964000Y-95254700D03*
%TD*%
D17*
%TO.N,GND*%
X128072000Y-84513400D02*
X129435100Y-83150300D01*
X129435100Y-83150300D02*
X131975100Y-83150300D01*
X131975100Y-83150300D02*
X133152000Y-81973400D01*
X171252000Y-68980700D02*
X170812000Y-68980700D01*
X170812000Y-68980700D02*
X169115000Y-70677700D01*
X169115000Y-70677700D02*
X169115000Y-81570400D01*
X169115000Y-81570400D02*
X166172000Y-84513400D01*
X133152000Y-81973400D02*
X134298300Y-80827100D01*
X134298300Y-80827100D02*
X139625700Y-80827100D01*
X139625700Y-80827100D02*
X140772000Y-81973400D01*
X125532000Y-93276400D02*
X126693500Y-92114900D01*
X126693500Y-92114900D02*
X129450500Y-92114900D01*
X129450500Y-92114900D02*
X130612000Y-93276400D01*
X171252000Y-67749400D02*
X171252000Y-68980700D01*
%TO.N,3.3v*%
X138232000Y-84513400D02*
X138232000Y-88351000D01*
X117912000Y-84513400D02*
X117912000Y-83370100D01*
X125532000Y-67749400D02*
X125532000Y-75133500D01*
X125532000Y-75133500D02*
X124481200Y-76184300D01*
X124481200Y-76184300D02*
X124481200Y-76399600D01*
X124481200Y-76399600D02*
X121522000Y-79358800D01*
X121522000Y-79358800D02*
X121448700Y-79358800D01*
X121448700Y-79358800D02*
X119055300Y-81752200D01*
X119055300Y-81752200D02*
X119055300Y-82512700D01*
X119055300Y-82512700D02*
X118197900Y-83370100D01*
X118197900Y-83370100D02*
X117912000Y-83370100D01*
X144042000Y-75516900D02*
X144042000Y-76934400D01*
X144042000Y-73984400D02*
X144042000Y-75516900D01*
X148147000Y-75516900D02*
X144042000Y-75516900D01*
X148147000Y-75516900D02*
X148147000Y-76934400D01*
X148147000Y-74099400D02*
X148147000Y-75516900D01*
X150468200Y-71778200D02*
X148147000Y-74099400D01*
X144042000Y-76934400D02*
X142959600Y-78016800D01*
X142959600Y-78016800D02*
X137202700Y-78016800D01*
X137202700Y-78016800D02*
X136931200Y-78288300D01*
X166172000Y-90736400D02*
X166172000Y-89593100D01*
X171252000Y-65209400D02*
X171252000Y-66440700D01*
X171252000Y-66440700D02*
X171713700Y-66440700D01*
X171713700Y-66440700D02*
X172523700Y-67250700D01*
X172523700Y-67250700D02*
X172523700Y-83241400D01*
X172523700Y-83241400D02*
X166172000Y-89593100D01*
%TO.N,/5v*%
X120452000Y-81973400D02*
X120452000Y-81147700D01*
X120452000Y-81147700D02*
X124989500Y-76610200D01*
X124989500Y-76610200D02*
X124989500Y-76433700D01*
X124989500Y-76433700D02*
X126802000Y-74621200D01*
X126802000Y-74621200D02*
X126802000Y-58859400D01*
X126802000Y-58859400D02*
X138232000Y-47429400D01*
X166172000Y-93276400D02*
X173075000Y-86373400D01*
X173075000Y-86373400D02*
X173075000Y-46241500D01*
X173075000Y-46241500D02*
X170982900Y-44149400D01*
X170982900Y-44149400D02*
X134035100Y-44149400D01*
X134035100Y-44149400D02*
X131484900Y-46699600D01*
X131484900Y-46699600D02*
X131484900Y-48825700D01*
%TO.N,/RX*%
X121870100Y-68738900D02*
X121870100Y-77838100D01*
X151177000Y-76639400D02*
X152353000Y-77815400D01*
X152353000Y-77815400D02*
X153522400Y-77815400D01*
X153522400Y-77815400D02*
X157282000Y-81575000D01*
X157282000Y-81575000D02*
X157282000Y-82320200D01*
X157282000Y-82320200D02*
X158078600Y-83116800D01*
X158078600Y-83116800D02*
X158772200Y-83116800D01*
X158772200Y-83116800D02*
X159855200Y-84199800D01*
X159855200Y-84199800D02*
X159855200Y-86703900D01*
X159855200Y-86703900D02*
X162249500Y-89098200D01*
X162249500Y-89098200D02*
X162249500Y-91198300D01*
X162249500Y-91198300D02*
X161494500Y-91953300D01*
X161494500Y-91953300D02*
X159875100Y-91953300D01*
X159875100Y-91953300D02*
X158552000Y-93276400D01*
X147782900Y-65245600D02*
X149662000Y-67124700D01*
X149662000Y-67124700D02*
X149662000Y-69629800D01*
X149662000Y-69629800D02*
X152137900Y-72105700D01*
X152137900Y-72105700D02*
X152137900Y-75678500D01*
X152137900Y-75678500D02*
X151177000Y-76639400D01*
%TO.N,/TX*%
X128072000Y-81973400D02*
X128072000Y-76286500D01*
X128072000Y-76286500D02*
X130658500Y-73700000D01*
X130658500Y-73700000D02*
X132610700Y-73700000D01*
X132610700Y-73700000D02*
X133411900Y-72898800D01*
X133411900Y-72898800D02*
X133411900Y-72777900D01*
X160681000Y-86362000D02*
X160925100Y-86362000D01*
X160925100Y-86362000D02*
X162386900Y-84900200D01*
X162386900Y-84900200D02*
X162386900Y-73587000D01*
X151177000Y-74099400D02*
X150343700Y-74099400D01*
X150343700Y-74099400D02*
X149831300Y-73587000D01*
%TO.N,Net-(R1-Pad2)*%
X158552000Y-67749400D02*
X157398800Y-66596200D01*
X157398800Y-66596200D02*
X155524700Y-66596200D01*
X155524700Y-66596200D02*
X154742000Y-67378900D01*
X154742000Y-67378900D02*
X154742000Y-72584400D01*
X154742000Y-72584400D02*
X153227000Y-74099400D01*
%TO.N,Net-(R2-Pad2)*%
X153227000Y-76639400D02*
X156012000Y-73854400D01*
X156012000Y-73854400D02*
X156012000Y-67749400D01*
%TO.N,/MISO*%
X140772000Y-90736400D02*
X140772000Y-87053400D01*
X140772000Y-87053400D02*
X143312000Y-84513400D01*
%TO.N,/MOSI*%
X146997600Y-80792600D02*
X146997600Y-87050800D01*
X146997600Y-87050800D02*
X143312000Y-90736400D01*
X147442100Y-80368300D02*
X147421900Y-80368300D01*
X147421900Y-80368300D02*
X146997600Y-80792600D01*
X146997600Y-80792600D02*
X142875900Y-80792600D01*
X142875900Y-80792600D02*
X142168600Y-81499900D01*
X142168600Y-81499900D02*
X142168600Y-83116800D01*
X142168600Y-83116800D02*
X140772000Y-84513400D01*
X150932000Y-67749400D02*
X152593600Y-66087800D01*
X152593600Y-66087800D02*
X158588400Y-66087800D01*
X158588400Y-66087800D02*
X159732600Y-67232000D01*
X159732600Y-67232000D02*
X159732600Y-70295700D01*
X159732600Y-70295700D02*
X157500000Y-72528300D01*
X157500000Y-72528300D02*
X157500000Y-76409400D01*
%TO.N,/SCK*%
X145852000Y-84513400D02*
X142313700Y-88051700D01*
X142313700Y-88051700D02*
X142313700Y-89176900D01*
X148392000Y-67749400D02*
X148392000Y-72637500D01*
%TO.N,/A0*%
X133152000Y-90736400D02*
X132633000Y-90736400D01*
X132633000Y-90736400D02*
X126888800Y-84992200D01*
X126888800Y-84992200D02*
X126888800Y-76714300D01*
X126888800Y-76714300D02*
X130728900Y-72874200D01*
X130728900Y-72874200D02*
X132268600Y-72874200D01*
X171252000Y-60129400D02*
X170020700Y-60129400D01*
X170020700Y-60129400D02*
X170020700Y-61024100D01*
X170020700Y-61024100D02*
X168200200Y-62844600D01*
%TO.N,/A5*%
X145852000Y-67749400D02*
X146360300Y-67241100D01*
X146360300Y-67241100D02*
X146360300Y-61442100D01*
X146360300Y-61442100D02*
X159948600Y-47853800D01*
X159948600Y-47853800D02*
X159948600Y-46955900D01*
X159948600Y-46955900D02*
X160633600Y-46270900D01*
X160633600Y-46270900D02*
X168862200Y-46270900D01*
X168862200Y-46270900D02*
X170020700Y-47429400D01*
X171252000Y-47429400D02*
X170020700Y-47429400D01*
%TO.N,/GPIO4*%
X163249600Y-88315300D02*
X163249600Y-88315200D01*
X163249600Y-88315200D02*
X163989600Y-88315200D01*
X163989600Y-88315200D02*
X171686700Y-80618100D01*
X171686700Y-80618100D02*
X171686700Y-77877400D01*
%TO.N,/GPIO5*%
X130612000Y-90736400D02*
X131882000Y-92006400D01*
X131882000Y-92006400D02*
X131882000Y-93688100D01*
X131882000Y-93688100D02*
X134187400Y-95993500D01*
X134187400Y-95993500D02*
X147343300Y-95993500D01*
X147343300Y-95993500D02*
X149662000Y-93674800D01*
X149662000Y-93674800D02*
X149662000Y-92929600D01*
X149662000Y-92929600D02*
X150458600Y-92133000D01*
X150458600Y-92133000D02*
X151152200Y-92133000D01*
X151152200Y-92133000D02*
X152075400Y-91209800D01*
X152075400Y-91209800D02*
X152075400Y-85910000D01*
X152075400Y-85910000D02*
X153472000Y-84513400D01*
X112832000Y-51200700D02*
X113293700Y-51200700D01*
X113293700Y-51200700D02*
X116511800Y-54418800D01*
X116511800Y-54418800D02*
X116511800Y-85191100D01*
X116511800Y-85191100D02*
X116977500Y-85656800D01*
X116977500Y-85656800D02*
X125532400Y-85656800D01*
X125532400Y-85656800D02*
X130612000Y-90736400D01*
X112832000Y-49969400D02*
X112832000Y-51200700D01*
%TO.N,/GPIO6*%
X156012000Y-84513400D02*
X156012000Y-86123900D01*
X156012000Y-86123900D02*
X159782900Y-89894800D01*
X112832000Y-52509400D02*
X112832000Y-53740700D01*
X112832000Y-53740700D02*
X113293700Y-53740700D01*
X113293700Y-53740700D02*
X115996400Y-56443400D01*
X115996400Y-56443400D02*
X115996400Y-85426800D01*
X115996400Y-85426800D02*
X116989200Y-86419600D01*
X116989200Y-86419600D02*
X123755200Y-86419600D01*
X123755200Y-86419600D02*
X128072000Y-90736400D01*
%TO.N,/GPIO12*%
X112832000Y-55049400D02*
X112832000Y-56280700D01*
X112832000Y-56280700D02*
X112370300Y-56280700D01*
X112370300Y-56280700D02*
X111091200Y-57559800D01*
X111091200Y-57559800D02*
X111091200Y-88130000D01*
X111091200Y-88130000D02*
X117388700Y-94427500D01*
X117388700Y-94427500D02*
X126920900Y-94427500D01*
X126920900Y-94427500D02*
X128072000Y-93276400D01*
X158613700Y-79230100D02*
X158613700Y-72133600D01*
X158613700Y-72133600D02*
X162257300Y-68490000D01*
X162257300Y-68490000D02*
X162257300Y-67227600D01*
X162257300Y-67227600D02*
X160432400Y-65402700D01*
X160432400Y-65402700D02*
X157502200Y-65402700D01*
X157502200Y-65402700D02*
X151253900Y-59154400D01*
%TO.N,/GPIO13*%
X112832000Y-57589400D02*
X115450600Y-60208000D01*
X115450600Y-60208000D02*
X115450600Y-85609300D01*
X115450600Y-85609300D02*
X116769300Y-86928000D01*
X116769300Y-86928000D02*
X121723600Y-86928000D01*
X121723600Y-86928000D02*
X125532000Y-90736400D01*
%TO.N,/GPIO16*%
X161092000Y-81973400D02*
X161092000Y-73689600D01*
X161092000Y-73689600D02*
X167081100Y-67700500D01*
X167081100Y-67700500D02*
X167081100Y-65536400D01*
X167081100Y-65536400D02*
X162662900Y-61118200D01*
X162662900Y-61118200D02*
X155586600Y-61118200D01*
X155586600Y-61118200D02*
X154331800Y-59863400D01*
X112832000Y-61360700D02*
X113293700Y-61360700D01*
X113293700Y-61360700D02*
X114942200Y-63009200D01*
X114942200Y-63009200D02*
X114942200Y-85819900D01*
X114942200Y-85819900D02*
X116812600Y-87690300D01*
X116812600Y-87690300D02*
X121572500Y-87690300D01*
X121572500Y-87690300D02*
X124167700Y-90285500D01*
X124167700Y-90285500D02*
X124167700Y-92100700D01*
X124167700Y-92100700D02*
X122992000Y-93276400D01*
X112832000Y-60129400D02*
X112832000Y-61360700D01*
%TO.N,/GPIO18*%
X153472000Y-93276400D02*
X154649100Y-92099300D01*
X154649100Y-92099300D02*
X154649100Y-84020500D01*
X154649100Y-84020500D02*
X153998600Y-83370000D01*
X153998600Y-83370000D02*
X153239900Y-83370000D01*
X153239900Y-83370000D02*
X152202000Y-82332100D01*
X152202000Y-82332100D02*
X152202000Y-81600300D01*
X152202000Y-81600300D02*
X150100200Y-79498500D01*
X150100200Y-79498500D02*
X141833200Y-79498500D01*
X141833200Y-79498500D02*
X141706100Y-79625600D01*
X141706100Y-79625600D02*
X132959800Y-79625600D01*
X132959800Y-79625600D02*
X130612000Y-81973400D01*
%TO.N,/GPIO19*%
X112832000Y-66440700D02*
X113293800Y-66440700D01*
X113293800Y-66440700D02*
X114063300Y-67210200D01*
X114063300Y-67210200D02*
X114063300Y-85661200D01*
X114063300Y-85661200D02*
X117109000Y-88706900D01*
X117109000Y-88706900D02*
X120962500Y-88706900D01*
X120962500Y-88706900D02*
X122992000Y-90736400D01*
X112832000Y-65209400D02*
X112832000Y-66440700D01*
%TO.N,/GPIO20*%
X120452000Y-93276400D02*
X119182000Y-92006400D01*
X119182000Y-92006400D02*
X117554100Y-92006400D01*
X117554100Y-92006400D02*
X111599500Y-86051800D01*
X111599500Y-86051800D02*
X111599500Y-69751500D01*
X111599500Y-69751500D02*
X112370300Y-68980700D01*
X112370300Y-68980700D02*
X112832000Y-68980700D01*
X163632000Y-81973400D02*
X163632000Y-72313900D01*
X163632000Y-72313900D02*
X167592800Y-68353100D01*
X167592800Y-68353100D02*
X167592800Y-65251400D01*
X167592800Y-65251400D02*
X162162000Y-59820600D01*
X162162000Y-59820600D02*
X155475200Y-59820600D01*
X112832000Y-67170300D02*
X111600600Y-65938900D01*
X111600600Y-65938900D02*
X111600600Y-59619100D01*
X111600600Y-59619100D02*
X112321700Y-58898000D01*
X112321700Y-58898000D02*
X113402100Y-58898000D01*
X113402100Y-58898000D02*
X114486100Y-59982000D01*
X114486100Y-59982000D02*
X114486100Y-60705100D01*
X112832000Y-67749400D02*
X112832000Y-68980700D01*
X112832000Y-67459800D02*
X112832000Y-67749400D01*
X112832000Y-67459800D02*
X112832000Y-67170300D01*
%TO.N,/GPIO21*%
X117343200Y-70798600D02*
X117343200Y-79703100D01*
X166172000Y-81973400D02*
X166172000Y-71940700D01*
X166172000Y-71940700D02*
X169764300Y-68348400D01*
X169764300Y-68348400D02*
X169764300Y-62415700D01*
X169764300Y-62415700D02*
X170819200Y-61360800D01*
X170819200Y-61360800D02*
X171768300Y-61360800D01*
X171768300Y-61360800D02*
X172487500Y-60641600D01*
X172487500Y-60641600D02*
X172487500Y-46380000D01*
X172487500Y-46380000D02*
X170765300Y-44657800D01*
X170765300Y-44657800D02*
X134261200Y-44657800D01*
X134261200Y-44657800D02*
X131993200Y-46925800D01*
X131993200Y-46925800D02*
X131993200Y-48005100D01*
X131993200Y-48005100D02*
X132352100Y-48364000D01*
X132352100Y-48364000D02*
X132352100Y-50246700D01*
X132352100Y-50246700D02*
X117021500Y-65577300D01*
X117021500Y-65577300D02*
X117021500Y-70476900D01*
X117021500Y-70476900D02*
X117343200Y-70798600D01*
%TO.N,/GPIO23*%
X135692000Y-81973400D02*
X134421800Y-83243600D01*
X134421800Y-83243600D02*
X134421800Y-87765900D01*
%TO.N,/GPIO26*%
X112832000Y-76600700D02*
X112832000Y-85231800D01*
X112832000Y-85231800D02*
X116926800Y-89326600D01*
X116926800Y-89326600D02*
X119042200Y-89326600D01*
X119042200Y-89326600D02*
X120452000Y-90736400D01*
X112832000Y-75369400D02*
X112832000Y-76600700D01*
%TO.N,/F5*%
X156012000Y-47429400D02*
X153754000Y-45171400D01*
X153754000Y-45171400D02*
X136314200Y-45171400D01*
X136314200Y-45171400D02*
X134422000Y-47063600D01*
X134422000Y-47063600D02*
X134422000Y-49762000D01*
X134422000Y-49762000D02*
X122428800Y-61755200D01*
X122428800Y-61755200D02*
X122428800Y-66695700D01*
X122428800Y-66695700D02*
X121007100Y-68117400D01*
X121007100Y-68117400D02*
X121007100Y-73585400D01*
%TO.N,/F6*%
X153472000Y-47429400D02*
X151722400Y-45679800D01*
X151722400Y-45679800D02*
X138320400Y-45679800D01*
X138320400Y-45679800D02*
X136962000Y-47038200D01*
X136962000Y-47038200D02*
X136962000Y-47980400D01*
X136962000Y-47980400D02*
X124168600Y-60773800D01*
X124168600Y-60773800D02*
X124168600Y-75544300D01*
X124168600Y-75544300D02*
X123587500Y-76125400D01*
%TO.N,/F9*%
X135692000Y-84513400D02*
X136253700Y-85075100D01*
X136253700Y-85075100D02*
X136253700Y-87752900D01*
%TO.N,/F11*%
X136962100Y-94143400D02*
X137079500Y-94026000D01*
X137079500Y-94026000D02*
X137079500Y-83125900D01*
X137079500Y-83125900D02*
X138232000Y-81973400D01*
X145852000Y-47429400D02*
X144661700Y-46239100D01*
X144661700Y-46239100D02*
X140266300Y-46239100D01*
X140266300Y-46239100D02*
X139502000Y-47003400D01*
X139502000Y-47003400D02*
X139502000Y-54017200D01*
X139502000Y-54017200D02*
X131882000Y-61637200D01*
X131882000Y-61637200D02*
X131882000Y-69045600D01*
X131882000Y-69045600D02*
X128593100Y-72334500D01*
%TO.N,/F12*%
X143312000Y-81973400D02*
X143312000Y-82858900D01*
X143312000Y-82858900D02*
X141915400Y-84255500D01*
X141915400Y-84255500D02*
X141915400Y-85012300D01*
X141915400Y-85012300D02*
X139571000Y-87356700D01*
X139571000Y-87356700D02*
X139571000Y-92075400D01*
X139571000Y-92075400D02*
X140772000Y-93276400D01*
X143312000Y-47429400D02*
X141915400Y-48826000D01*
X141915400Y-48826000D02*
X141915400Y-69174800D01*
X141915400Y-69174800D02*
X138523900Y-72566300D01*
%TO.N,/F13*%
X145852000Y-81973400D02*
X144708600Y-83116800D01*
X144708600Y-83116800D02*
X144708600Y-84799900D01*
X144708600Y-84799900D02*
X141481600Y-88026900D01*
X141481600Y-88026900D02*
X141481600Y-89512500D01*
X141481600Y-89512500D02*
X141971900Y-90002800D01*
X141971900Y-90002800D02*
X141971900Y-93738900D01*
X141971900Y-93738900D02*
X141242300Y-94468500D01*
X141242300Y-94468500D02*
X139424100Y-94468500D01*
X139424100Y-94468500D02*
X138232000Y-93276400D01*
X140772000Y-47429400D02*
X140772000Y-55185500D01*
X140772000Y-55185500D02*
X137001800Y-58955700D01*
X137001800Y-58955700D02*
X137001800Y-73392200D01*
%TO.N,/FSDA*%
X144391300Y-72393700D02*
X141117900Y-72393700D01*
X141117900Y-72393700D02*
X138232000Y-75279600D01*
X138232000Y-75279600D02*
X138232000Y-75369400D01*
X144391300Y-72393700D02*
X147024500Y-69760500D01*
X147024500Y-69760500D02*
X147024500Y-66225700D01*
X147024500Y-66225700D02*
X146927000Y-66128200D01*
X146927000Y-66128200D02*
X146927000Y-61594400D01*
X146927000Y-61594400D02*
X161092000Y-47429400D01*
X146097000Y-74099400D02*
X144391300Y-72393700D01*
%TO.N,/FSCL*%
X136641900Y-75416700D02*
X136774200Y-75284400D01*
X136774200Y-75284400D02*
X136774200Y-75193400D01*
X136774200Y-75193400D02*
X137741600Y-74226000D01*
X137741600Y-74226000D02*
X138301100Y-74226000D01*
X138301100Y-74226000D02*
X140641800Y-71885300D01*
X140641800Y-71885300D02*
X140793100Y-71885300D01*
X140793100Y-71885300D02*
X144582000Y-68096400D01*
X144582000Y-68096400D02*
X144582000Y-65368700D01*
X144582000Y-65368700D02*
X145597900Y-64352800D01*
X145597900Y-64352800D02*
X145597900Y-61286200D01*
X145597900Y-61286200D02*
X158552000Y-48332100D01*
X158552000Y-48332100D02*
X158552000Y-47429400D01*
X135692000Y-75369400D02*
X135717400Y-75394800D01*
X135717400Y-75394800D02*
X136418000Y-75394800D01*
X136418000Y-75394800D02*
X136440000Y-75416800D01*
X136440000Y-75416800D02*
X136641800Y-75416800D01*
X136641800Y-75416800D02*
X136641900Y-75416700D01*
X141992000Y-76934400D02*
X142953400Y-75973000D01*
X142953400Y-75973000D02*
X142953400Y-73217300D01*
X142953400Y-73217300D02*
X142638100Y-72902000D01*
X142638100Y-72902000D02*
X141328300Y-72902000D01*
X141328300Y-72902000D02*
X140836800Y-73393500D01*
X140836800Y-73393500D02*
X140836800Y-74406700D01*
X140836800Y-74406700D02*
X138725300Y-76518200D01*
X138725300Y-76518200D02*
X137743300Y-76518200D01*
X137743300Y-76518200D02*
X136641900Y-75416700D01*
%TO.N,SDA*%
X133972700Y-75282100D02*
X135717100Y-77026500D01*
X135717100Y-77026500D02*
X138949900Y-77026500D01*
X138949900Y-77026500D02*
X141992000Y-73984400D01*
X121964000Y-95254700D02*
X123211100Y-96501800D01*
X123211100Y-96501800D02*
X159483600Y-96501800D01*
X159483600Y-96501800D02*
X162235400Y-93750000D01*
X162235400Y-93750000D02*
X162235400Y-92133000D01*
X162235400Y-92133000D02*
X163632000Y-90736400D01*
X120452000Y-84513400D02*
X121722000Y-83243400D01*
X121722000Y-83243400D02*
X121722000Y-80596500D01*
X121722000Y-80596500D02*
X125684000Y-76634500D01*
X125684000Y-76634500D02*
X125684000Y-76458200D01*
X125684000Y-76458200D02*
X130738500Y-71403700D01*
X130738500Y-71403700D02*
X133924500Y-71403700D01*
X133924500Y-71403700D02*
X134746100Y-72225300D01*
X134746100Y-72225300D02*
X134746100Y-74508700D01*
X134746100Y-74508700D02*
X133972700Y-75282100D01*
X133972700Y-75282100D02*
X133239300Y-75282100D01*
X133239300Y-75282100D02*
X133152000Y-75369400D01*
%TO.N,SCL*%
X122992000Y-84513400D02*
X124262000Y-83243400D01*
X124262000Y-83243400D02*
X124262000Y-79494000D01*
X124262000Y-79494000D02*
X126192300Y-77563700D01*
X126192300Y-77563700D02*
X126192300Y-76691800D01*
X126192300Y-76691800D02*
X130932000Y-71952100D01*
X130932000Y-71952100D02*
X133754100Y-71952100D01*
X133754100Y-71952100D02*
X134237800Y-72435800D01*
X134237800Y-72435800D02*
X134237800Y-73120000D01*
X134237800Y-73120000D02*
X133149500Y-74208300D01*
X133149500Y-74208300D02*
X132696200Y-74208300D01*
X132696200Y-74208300D02*
X131520300Y-75384200D01*
X161092000Y-90736400D02*
X161092000Y-89104900D01*
X161092000Y-89104900D02*
X157155400Y-85168300D01*
X157155400Y-85168300D02*
X157155400Y-84040000D01*
X157155400Y-84040000D02*
X156353700Y-83238300D01*
X156353700Y-83238300D02*
X155574300Y-83238300D01*
X155574300Y-83238300D02*
X154742000Y-82406000D01*
X154742000Y-82406000D02*
X154742000Y-81617900D01*
X154742000Y-81617900D02*
X151447900Y-78323800D01*
X151447900Y-78323800D02*
X147486400Y-78323800D01*
X147486400Y-78323800D02*
X146097000Y-76934400D01*
X131520300Y-75384200D02*
X135250200Y-79114100D01*
X135250200Y-79114100D02*
X141498800Y-79114100D01*
X141498800Y-79114100D02*
X142003900Y-78609000D01*
X142003900Y-78609000D02*
X144422400Y-78609000D01*
X144422400Y-78609000D02*
X146097000Y-76934400D01*
X131520300Y-75384200D02*
X131505500Y-75369400D01*
X131505500Y-75369400D02*
X130612000Y-75369400D01*
%TO.N,Net-(PI1-Pad28)*%
X133152000Y-93276400D02*
X135360800Y-95485200D01*
X135360800Y-95485200D02*
X145261700Y-95485200D01*
X145261700Y-95485200D02*
X147122000Y-93624900D01*
X147122000Y-93624900D02*
X147122000Y-90011100D01*
X147122000Y-90011100D02*
X152081900Y-85051200D01*
X152081900Y-85051200D02*
X152081900Y-83123300D01*
X152081900Y-83123300D02*
X150932000Y-81973400D01*
%TO.N,Net-(PI1-Pad26)*%
X148392000Y-81973400D02*
X149537600Y-83119000D01*
X149537600Y-83119000D02*
X149537600Y-85229800D01*
X149537600Y-85229800D02*
X144582000Y-90185400D01*
X144582000Y-90185400D02*
X144582000Y-93670400D01*
X144582000Y-93670400D02*
X143275500Y-94976900D01*
X143275500Y-94976900D02*
X136626800Y-94976900D01*
X136626800Y-94976900D02*
X135692000Y-94042100D01*
X135692000Y-94042100D02*
X135692000Y-93276400D01*
%TD*%
%TO.N,GND*%
G36*
X161285748Y-93262258D02*
G01*
X161271605Y-93276400D01*
X161285748Y-93290543D01*
X161106143Y-93470148D01*
X161092000Y-93456005D01*
X160306040Y-94241965D01*
X160373020Y-94482056D01*
X160408860Y-94498909D01*
X159167970Y-95739800D01*
X148674630Y-95739800D01*
X150151804Y-94262627D01*
X150213020Y-94482056D01*
X150462048Y-94599156D01*
X150729135Y-94665423D01*
X151004017Y-94678310D01*
X151276133Y-94637322D01*
X151535023Y-94544036D01*
X151650980Y-94482056D01*
X151717960Y-94241965D01*
X150932000Y-93456005D01*
X150917858Y-93470148D01*
X150738253Y-93290543D01*
X150752395Y-93276400D01*
X150738253Y-93262258D01*
X150917858Y-93082653D01*
X150932000Y-93096795D01*
X150946143Y-93082653D01*
X151125748Y-93262258D01*
X151111605Y-93276400D01*
X151897565Y-94062360D01*
X152137656Y-93995380D01*
X152201485Y-93859640D01*
X152233995Y-93938127D01*
X152386880Y-94166935D01*
X152581465Y-94361520D01*
X152810273Y-94514405D01*
X153064510Y-94619714D01*
X153334408Y-94673400D01*
X153609592Y-94673400D01*
X153879490Y-94619714D01*
X154133727Y-94514405D01*
X154362535Y-94361520D01*
X154557120Y-94166935D01*
X154710005Y-93938127D01*
X154742000Y-93860885D01*
X154773995Y-93938127D01*
X154926880Y-94166935D01*
X155121465Y-94361520D01*
X155350273Y-94514405D01*
X155604510Y-94619714D01*
X155874408Y-94673400D01*
X156149592Y-94673400D01*
X156419490Y-94619714D01*
X156673727Y-94514405D01*
X156902535Y-94361520D01*
X157097120Y-94166935D01*
X157250005Y-93938127D01*
X157282000Y-93860885D01*
X157313995Y-93938127D01*
X157466880Y-94166935D01*
X157661465Y-94361520D01*
X157890273Y-94514405D01*
X158144510Y-94619714D01*
X158414408Y-94673400D01*
X158689592Y-94673400D01*
X158959490Y-94619714D01*
X159213727Y-94514405D01*
X159442535Y-94361520D01*
X159637120Y-94166935D01*
X159790005Y-93938127D01*
X159819692Y-93866457D01*
X159824364Y-93879423D01*
X159886344Y-93995380D01*
X160126435Y-94062360D01*
X160912395Y-93276400D01*
X160898253Y-93262258D01*
X161077858Y-93082653D01*
X161092000Y-93096795D01*
X161106143Y-93082653D01*
X161285748Y-93262258D01*
G37*
X161285748Y-93262258D02*
X161271605Y-93276400D01*
X161285748Y-93290543D01*
X161106143Y-93470148D01*
X161092000Y-93456005D01*
X160306040Y-94241965D01*
X160373020Y-94482056D01*
X160408860Y-94498909D01*
X159167970Y-95739800D01*
X148674630Y-95739800D01*
X150151804Y-94262627D01*
X150213020Y-94482056D01*
X150462048Y-94599156D01*
X150729135Y-94665423D01*
X151004017Y-94678310D01*
X151276133Y-94637322D01*
X151535023Y-94544036D01*
X151650980Y-94482056D01*
X151717960Y-94241965D01*
X150932000Y-93456005D01*
X150917858Y-93470148D01*
X150738253Y-93290543D01*
X150752395Y-93276400D01*
X150738253Y-93262258D01*
X150917858Y-93082653D01*
X150932000Y-93096795D01*
X150946143Y-93082653D01*
X151125748Y-93262258D01*
X151111605Y-93276400D01*
X151897565Y-94062360D01*
X152137656Y-93995380D01*
X152201485Y-93859640D01*
X152233995Y-93938127D01*
X152386880Y-94166935D01*
X152581465Y-94361520D01*
X152810273Y-94514405D01*
X153064510Y-94619714D01*
X153334408Y-94673400D01*
X153609592Y-94673400D01*
X153879490Y-94619714D01*
X154133727Y-94514405D01*
X154362535Y-94361520D01*
X154557120Y-94166935D01*
X154710005Y-93938127D01*
X154742000Y-93860885D01*
X154773995Y-93938127D01*
X154926880Y-94166935D01*
X155121465Y-94361520D01*
X155350273Y-94514405D01*
X155604510Y-94619714D01*
X155874408Y-94673400D01*
X156149592Y-94673400D01*
X156419490Y-94619714D01*
X156673727Y-94514405D01*
X156902535Y-94361520D01*
X157097120Y-94166935D01*
X157250005Y-93938127D01*
X157282000Y-93860885D01*
X157313995Y-93938127D01*
X157466880Y-94166935D01*
X157661465Y-94361520D01*
X157890273Y-94514405D01*
X158144510Y-94619714D01*
X158414408Y-94673400D01*
X158689592Y-94673400D01*
X158959490Y-94619714D01*
X159213727Y-94514405D01*
X159442535Y-94361520D01*
X159637120Y-94166935D01*
X159790005Y-93938127D01*
X159819692Y-93866457D01*
X159824364Y-93879423D01*
X159886344Y-93995380D01*
X160126435Y-94062360D01*
X160912395Y-93276400D01*
X160898253Y-93262258D01*
X161077858Y-93082653D01*
X161092000Y-93096795D01*
X161106143Y-93082653D01*
X161285748Y-93262258D01*
G36*
X129373995Y-91398127D02*
G01*
X129526880Y-91626935D01*
X129721465Y-91821520D01*
X129950273Y-91974405D01*
X130021943Y-92004092D01*
X130008977Y-92008764D01*
X129893020Y-92070744D01*
X129826040Y-92310835D01*
X130612000Y-93096795D01*
X130626143Y-93082653D01*
X130805748Y-93262258D01*
X130791605Y-93276400D01*
X130805748Y-93290543D01*
X130626143Y-93470148D01*
X130612000Y-93456005D01*
X129826040Y-94241965D01*
X129893020Y-94482056D01*
X130142048Y-94599156D01*
X130409135Y-94665423D01*
X130684017Y-94678310D01*
X130956133Y-94637322D01*
X131215023Y-94544036D01*
X131330980Y-94482056D01*
X131389295Y-94273025D01*
X132856069Y-95739800D01*
X123526731Y-95739800D01*
X123043500Y-95256570D01*
X123043500Y-95189500D01*
X126883477Y-95189500D01*
X126920900Y-95193186D01*
X126958323Y-95189500D01*
X126958326Y-95189500D01*
X127070278Y-95178474D01*
X127213915Y-95134902D01*
X127346292Y-95064145D01*
X127462322Y-94968922D01*
X127486184Y-94939846D01*
X127782789Y-94643241D01*
X127934408Y-94673400D01*
X128209592Y-94673400D01*
X128479490Y-94619714D01*
X128733727Y-94514405D01*
X128962535Y-94361520D01*
X129157120Y-94166935D01*
X129310005Y-93938127D01*
X129339692Y-93866457D01*
X129344364Y-93879423D01*
X129406344Y-93995380D01*
X129646435Y-94062360D01*
X130432395Y-93276400D01*
X129646435Y-92490440D01*
X129406344Y-92557420D01*
X129342515Y-92693160D01*
X129310005Y-92614673D01*
X129157120Y-92385865D01*
X128962535Y-92191280D01*
X128733727Y-92038395D01*
X128656485Y-92006400D01*
X128733727Y-91974405D01*
X128962535Y-91821520D01*
X129157120Y-91626935D01*
X129310005Y-91398127D01*
X129342000Y-91320885D01*
X129373995Y-91398127D01*
G37*
X129373995Y-91398127D02*
X129526880Y-91626935D01*
X129721465Y-91821520D01*
X129950273Y-91974405D01*
X130021943Y-92004092D01*
X130008977Y-92008764D01*
X129893020Y-92070744D01*
X129826040Y-92310835D01*
X130612000Y-93096795D01*
X130626143Y-93082653D01*
X130805748Y-93262258D01*
X130791605Y-93276400D01*
X130805748Y-93290543D01*
X130626143Y-93470148D01*
X130612000Y-93456005D01*
X129826040Y-94241965D01*
X129893020Y-94482056D01*
X130142048Y-94599156D01*
X130409135Y-94665423D01*
X130684017Y-94678310D01*
X130956133Y-94637322D01*
X131215023Y-94544036D01*
X131330980Y-94482056D01*
X131389295Y-94273025D01*
X132856069Y-95739800D01*
X123526731Y-95739800D01*
X123043500Y-95256570D01*
X123043500Y-95189500D01*
X126883477Y-95189500D01*
X126920900Y-95193186D01*
X126958323Y-95189500D01*
X126958326Y-95189500D01*
X127070278Y-95178474D01*
X127213915Y-95134902D01*
X127346292Y-95064145D01*
X127462322Y-94968922D01*
X127486184Y-94939846D01*
X127782789Y-94643241D01*
X127934408Y-94673400D01*
X128209592Y-94673400D01*
X128479490Y-94619714D01*
X128733727Y-94514405D01*
X128962535Y-94361520D01*
X129157120Y-94166935D01*
X129310005Y-93938127D01*
X129339692Y-93866457D01*
X129344364Y-93879423D01*
X129406344Y-93995380D01*
X129646435Y-94062360D01*
X130432395Y-93276400D01*
X129646435Y-92490440D01*
X129406344Y-92557420D01*
X129342515Y-92693160D01*
X129310005Y-92614673D01*
X129157120Y-92385865D01*
X128962535Y-92191280D01*
X128733727Y-92038395D01*
X128656485Y-92006400D01*
X128733727Y-91974405D01*
X128962535Y-91821520D01*
X129157120Y-91626935D01*
X129310005Y-91398127D01*
X129342000Y-91320885D01*
X129373995Y-91398127D01*
G36*
X143505748Y-93262258D02*
G01*
X143491605Y-93276400D01*
X143505748Y-93290543D01*
X143326143Y-93470148D01*
X143312000Y-93456005D01*
X143297858Y-93470148D01*
X143118253Y-93290543D01*
X143132395Y-93276400D01*
X143118253Y-93262258D01*
X143297858Y-93082653D01*
X143312000Y-93096795D01*
X143326143Y-93082653D01*
X143505748Y-93262258D01*
G37*
X143505748Y-93262258D02*
X143491605Y-93276400D01*
X143505748Y-93290543D01*
X143326143Y-93470148D01*
X143312000Y-93456005D01*
X143297858Y-93470148D01*
X143118253Y-93290543D01*
X143132395Y-93276400D01*
X143118253Y-93262258D01*
X143297858Y-93082653D01*
X143312000Y-93096795D01*
X143326143Y-93082653D01*
X143505748Y-93262258D01*
G36*
X126833995Y-91398127D02*
G01*
X126986880Y-91626935D01*
X127181465Y-91821520D01*
X127410273Y-91974405D01*
X127487515Y-92006400D01*
X127410273Y-92038395D01*
X127181465Y-92191280D01*
X126986880Y-92385865D01*
X126833995Y-92614673D01*
X126804308Y-92686343D01*
X126799636Y-92673377D01*
X126737656Y-92557420D01*
X126497565Y-92490440D01*
X125711605Y-93276400D01*
X125725748Y-93290543D01*
X125546143Y-93470148D01*
X125532000Y-93456005D01*
X125517858Y-93470148D01*
X125338253Y-93290543D01*
X125352395Y-93276400D01*
X125338253Y-93262258D01*
X125517858Y-93082653D01*
X125532000Y-93096795D01*
X126317960Y-92310835D01*
X126250980Y-92070744D01*
X126115240Y-92006915D01*
X126193727Y-91974405D01*
X126422535Y-91821520D01*
X126617120Y-91626935D01*
X126770005Y-91398127D01*
X126802000Y-91320885D01*
X126833995Y-91398127D01*
G37*
X126833995Y-91398127D02*
X126986880Y-91626935D01*
X127181465Y-91821520D01*
X127410273Y-91974405D01*
X127487515Y-92006400D01*
X127410273Y-92038395D01*
X127181465Y-92191280D01*
X126986880Y-92385865D01*
X126833995Y-92614673D01*
X126804308Y-92686343D01*
X126799636Y-92673377D01*
X126737656Y-92557420D01*
X126497565Y-92490440D01*
X125711605Y-93276400D01*
X125725748Y-93290543D01*
X125546143Y-93470148D01*
X125532000Y-93456005D01*
X125517858Y-93470148D01*
X125338253Y-93290543D01*
X125352395Y-93276400D01*
X125338253Y-93262258D01*
X125517858Y-93082653D01*
X125532000Y-93096795D01*
X126317960Y-92310835D01*
X126250980Y-92070744D01*
X126115240Y-92006915D01*
X126193727Y-91974405D01*
X126422535Y-91821520D01*
X126617120Y-91626935D01*
X126770005Y-91398127D01*
X126802000Y-91320885D01*
X126833995Y-91398127D01*
G36*
X155445682Y-86634985D02*
G01*
X155470579Y-86665322D01*
X155499649Y-86689179D01*
X158193759Y-89383290D01*
X158144510Y-89393086D01*
X157890273Y-89498395D01*
X157661465Y-89651280D01*
X157466880Y-89845865D01*
X157313995Y-90074673D01*
X157284308Y-90146343D01*
X157279636Y-90133377D01*
X157217656Y-90017420D01*
X156977565Y-89950440D01*
X156191605Y-90736400D01*
X156977565Y-91522360D01*
X157217656Y-91455380D01*
X157281485Y-91319640D01*
X157313995Y-91398127D01*
X157466880Y-91626935D01*
X157661465Y-91821520D01*
X157890273Y-91974405D01*
X157967515Y-92006400D01*
X157890273Y-92038395D01*
X157661465Y-92191280D01*
X157466880Y-92385865D01*
X157313995Y-92614673D01*
X157282000Y-92691915D01*
X157250005Y-92614673D01*
X157097120Y-92385865D01*
X156902535Y-92191280D01*
X156673727Y-92038395D01*
X156602057Y-92008708D01*
X156615023Y-92004036D01*
X156730980Y-91942056D01*
X156797960Y-91701965D01*
X156012000Y-90916005D01*
X155997858Y-90930148D01*
X155818253Y-90750543D01*
X155832395Y-90736400D01*
X155818253Y-90722258D01*
X155997858Y-90542653D01*
X156012000Y-90556795D01*
X156797960Y-89770835D01*
X156730980Y-89530744D01*
X156481952Y-89413644D01*
X156214865Y-89347377D01*
X155939983Y-89334490D01*
X155667867Y-89375478D01*
X155411100Y-89467999D01*
X155411100Y-86592847D01*
X155445682Y-86634985D01*
G37*
X155445682Y-86634985D02*
X155470579Y-86665322D01*
X155499649Y-86689179D01*
X158193759Y-89383290D01*
X158144510Y-89393086D01*
X157890273Y-89498395D01*
X157661465Y-89651280D01*
X157466880Y-89845865D01*
X157313995Y-90074673D01*
X157284308Y-90146343D01*
X157279636Y-90133377D01*
X157217656Y-90017420D01*
X156977565Y-89950440D01*
X156191605Y-90736400D01*
X156977565Y-91522360D01*
X157217656Y-91455380D01*
X157281485Y-91319640D01*
X157313995Y-91398127D01*
X157466880Y-91626935D01*
X157661465Y-91821520D01*
X157890273Y-91974405D01*
X157967515Y-92006400D01*
X157890273Y-92038395D01*
X157661465Y-92191280D01*
X157466880Y-92385865D01*
X157313995Y-92614673D01*
X157282000Y-92691915D01*
X157250005Y-92614673D01*
X157097120Y-92385865D01*
X156902535Y-92191280D01*
X156673727Y-92038395D01*
X156602057Y-92008708D01*
X156615023Y-92004036D01*
X156730980Y-91942056D01*
X156797960Y-91701965D01*
X156012000Y-90916005D01*
X155997858Y-90930148D01*
X155818253Y-90750543D01*
X155832395Y-90736400D01*
X155818253Y-90722258D01*
X155997858Y-90542653D01*
X156012000Y-90556795D01*
X156797960Y-89770835D01*
X156730980Y-89530744D01*
X156481952Y-89413644D01*
X156214865Y-89347377D01*
X155939983Y-89334490D01*
X155667867Y-89375478D01*
X155411100Y-89467999D01*
X155411100Y-86592847D01*
X155445682Y-86634985D01*
G36*
X129373995Y-82635127D02*
G01*
X129526880Y-82863935D01*
X129721465Y-83058520D01*
X129950273Y-83211405D01*
X130027515Y-83243400D01*
X129950273Y-83275395D01*
X129721465Y-83428280D01*
X129526880Y-83622865D01*
X129373995Y-83851673D01*
X129344308Y-83923343D01*
X129339636Y-83910377D01*
X129277656Y-83794420D01*
X129037565Y-83727440D01*
X128251605Y-84513400D01*
X129037565Y-85299360D01*
X129277656Y-85232380D01*
X129341485Y-85096640D01*
X129373995Y-85175127D01*
X129526880Y-85403935D01*
X129721465Y-85598520D01*
X129950273Y-85751405D01*
X130204510Y-85856714D01*
X130474408Y-85910400D01*
X130749592Y-85910400D01*
X131019490Y-85856714D01*
X131273727Y-85751405D01*
X131502535Y-85598520D01*
X131697120Y-85403935D01*
X131850005Y-85175127D01*
X131882000Y-85097885D01*
X131913995Y-85175127D01*
X132066880Y-85403935D01*
X132261465Y-85598520D01*
X132490273Y-85751405D01*
X132744510Y-85856714D01*
X133014408Y-85910400D01*
X133289592Y-85910400D01*
X133559490Y-85856714D01*
X133659801Y-85815164D01*
X133659801Y-87001256D01*
X133583298Y-87077759D01*
X133465160Y-87254565D01*
X133383785Y-87451022D01*
X133342300Y-87659579D01*
X133342300Y-87872221D01*
X133383785Y-88080778D01*
X133465160Y-88277235D01*
X133583298Y-88454041D01*
X133733659Y-88604402D01*
X133910465Y-88722540D01*
X134106922Y-88803915D01*
X134315479Y-88845400D01*
X134528121Y-88845400D01*
X134736678Y-88803915D01*
X134933135Y-88722540D01*
X135109941Y-88604402D01*
X135260302Y-88454041D01*
X135342093Y-88331632D01*
X135415198Y-88441041D01*
X135565559Y-88591402D01*
X135742365Y-88709540D01*
X135938822Y-88790915D01*
X136147379Y-88832400D01*
X136317500Y-88832400D01*
X136317500Y-89486787D01*
X136161952Y-89413644D01*
X135894865Y-89347377D01*
X135619983Y-89334490D01*
X135347867Y-89375478D01*
X135088977Y-89468764D01*
X134973020Y-89530744D01*
X134906040Y-89770835D01*
X135692000Y-90556795D01*
X135706143Y-90542653D01*
X135885748Y-90722258D01*
X135871605Y-90736400D01*
X135885748Y-90750543D01*
X135706143Y-90930148D01*
X135692000Y-90916005D01*
X134906040Y-91701965D01*
X134973020Y-91942056D01*
X135108760Y-92005885D01*
X135030273Y-92038395D01*
X134801465Y-92191280D01*
X134606880Y-92385865D01*
X134453995Y-92614673D01*
X134422000Y-92691915D01*
X134390005Y-92614673D01*
X134237120Y-92385865D01*
X134042535Y-92191280D01*
X133813727Y-92038395D01*
X133736485Y-92006400D01*
X133813727Y-91974405D01*
X134042535Y-91821520D01*
X134237120Y-91626935D01*
X134390005Y-91398127D01*
X134419692Y-91326457D01*
X134424364Y-91339423D01*
X134486344Y-91455380D01*
X134726435Y-91522360D01*
X135512395Y-90736400D01*
X134726435Y-89950440D01*
X134486344Y-90017420D01*
X134422515Y-90153160D01*
X134390005Y-90074673D01*
X134237120Y-89845865D01*
X134042535Y-89651280D01*
X133813727Y-89498395D01*
X133559490Y-89393086D01*
X133289592Y-89339400D01*
X133014408Y-89339400D01*
X132744510Y-89393086D01*
X132490273Y-89498395D01*
X132479694Y-89505464D01*
X128727315Y-85753085D01*
X128790980Y-85719056D01*
X128857960Y-85478965D01*
X128072000Y-84693005D01*
X128057858Y-84707148D01*
X127878253Y-84527543D01*
X127892395Y-84513400D01*
X127878253Y-84499258D01*
X128057858Y-84319653D01*
X128072000Y-84333795D01*
X128857960Y-83547835D01*
X128790980Y-83307744D01*
X128655240Y-83243915D01*
X128733727Y-83211405D01*
X128962535Y-83058520D01*
X129157120Y-82863935D01*
X129310005Y-82635127D01*
X129342000Y-82557885D01*
X129373995Y-82635127D01*
G37*
X129373995Y-82635127D02*
X129526880Y-82863935D01*
X129721465Y-83058520D01*
X129950273Y-83211405D01*
X130027515Y-83243400D01*
X129950273Y-83275395D01*
X129721465Y-83428280D01*
X129526880Y-83622865D01*
X129373995Y-83851673D01*
X129344308Y-83923343D01*
X129339636Y-83910377D01*
X129277656Y-83794420D01*
X129037565Y-83727440D01*
X128251605Y-84513400D01*
X129037565Y-85299360D01*
X129277656Y-85232380D01*
X129341485Y-85096640D01*
X129373995Y-85175127D01*
X129526880Y-85403935D01*
X129721465Y-85598520D01*
X129950273Y-85751405D01*
X130204510Y-85856714D01*
X130474408Y-85910400D01*
X130749592Y-85910400D01*
X131019490Y-85856714D01*
X131273727Y-85751405D01*
X131502535Y-85598520D01*
X131697120Y-85403935D01*
X131850005Y-85175127D01*
X131882000Y-85097885D01*
X131913995Y-85175127D01*
X132066880Y-85403935D01*
X132261465Y-85598520D01*
X132490273Y-85751405D01*
X132744510Y-85856714D01*
X133014408Y-85910400D01*
X133289592Y-85910400D01*
X133559490Y-85856714D01*
X133659801Y-85815164D01*
X133659801Y-87001256D01*
X133583298Y-87077759D01*
X133465160Y-87254565D01*
X133383785Y-87451022D01*
X133342300Y-87659579D01*
X133342300Y-87872221D01*
X133383785Y-88080778D01*
X133465160Y-88277235D01*
X133583298Y-88454041D01*
X133733659Y-88604402D01*
X133910465Y-88722540D01*
X134106922Y-88803915D01*
X134315479Y-88845400D01*
X134528121Y-88845400D01*
X134736678Y-88803915D01*
X134933135Y-88722540D01*
X135109941Y-88604402D01*
X135260302Y-88454041D01*
X135342093Y-88331632D01*
X135415198Y-88441041D01*
X135565559Y-88591402D01*
X135742365Y-88709540D01*
X135938822Y-88790915D01*
X136147379Y-88832400D01*
X136317500Y-88832400D01*
X136317500Y-89486787D01*
X136161952Y-89413644D01*
X135894865Y-89347377D01*
X135619983Y-89334490D01*
X135347867Y-89375478D01*
X135088977Y-89468764D01*
X134973020Y-89530744D01*
X134906040Y-89770835D01*
X135692000Y-90556795D01*
X135706143Y-90542653D01*
X135885748Y-90722258D01*
X135871605Y-90736400D01*
X135885748Y-90750543D01*
X135706143Y-90930148D01*
X135692000Y-90916005D01*
X134906040Y-91701965D01*
X134973020Y-91942056D01*
X135108760Y-92005885D01*
X135030273Y-92038395D01*
X134801465Y-92191280D01*
X134606880Y-92385865D01*
X134453995Y-92614673D01*
X134422000Y-92691915D01*
X134390005Y-92614673D01*
X134237120Y-92385865D01*
X134042535Y-92191280D01*
X133813727Y-92038395D01*
X133736485Y-92006400D01*
X133813727Y-91974405D01*
X134042535Y-91821520D01*
X134237120Y-91626935D01*
X134390005Y-91398127D01*
X134419692Y-91326457D01*
X134424364Y-91339423D01*
X134486344Y-91455380D01*
X134726435Y-91522360D01*
X135512395Y-90736400D01*
X134726435Y-89950440D01*
X134486344Y-90017420D01*
X134422515Y-90153160D01*
X134390005Y-90074673D01*
X134237120Y-89845865D01*
X134042535Y-89651280D01*
X133813727Y-89498395D01*
X133559490Y-89393086D01*
X133289592Y-89339400D01*
X133014408Y-89339400D01*
X132744510Y-89393086D01*
X132490273Y-89498395D01*
X132479694Y-89505464D01*
X128727315Y-85753085D01*
X128790980Y-85719056D01*
X128857960Y-85478965D01*
X128072000Y-84693005D01*
X128057858Y-84707148D01*
X127878253Y-84527543D01*
X127892395Y-84513400D01*
X127878253Y-84499258D01*
X128057858Y-84319653D01*
X128072000Y-84333795D01*
X128857960Y-83547835D01*
X128790980Y-83307744D01*
X128655240Y-83243915D01*
X128733727Y-83211405D01*
X128962535Y-83058520D01*
X129157120Y-82863935D01*
X129310005Y-82635127D01*
X129342000Y-82557885D01*
X129373995Y-82635127D01*
G36*
X118105748Y-90722258D02*
G01*
X118091605Y-90736400D01*
X118105748Y-90750543D01*
X117926143Y-90930148D01*
X117912000Y-90916005D01*
X117897858Y-90930148D01*
X117718253Y-90750543D01*
X117732395Y-90736400D01*
X117718253Y-90722258D01*
X117897858Y-90542653D01*
X117912000Y-90556795D01*
X117926143Y-90542653D01*
X118105748Y-90722258D01*
G37*
X118105748Y-90722258D02*
X118091605Y-90736400D01*
X118105748Y-90750543D01*
X117926143Y-90930148D01*
X117912000Y-90916005D01*
X117897858Y-90930148D01*
X117718253Y-90750543D01*
X117732395Y-90736400D01*
X117718253Y-90722258D01*
X117897858Y-90542653D01*
X117912000Y-90556795D01*
X117926143Y-90542653D01*
X118105748Y-90722258D01*
G36*
X170370645Y-68944578D02*
G01*
X170487534Y-69014205D01*
X170305368Y-69135925D01*
X170098525Y-69342768D01*
X169936010Y-69585989D01*
X169824068Y-69856242D01*
X169767000Y-70143140D01*
X169767000Y-70435660D01*
X169824068Y-70722558D01*
X169936010Y-70992811D01*
X170098525Y-71236032D01*
X170305368Y-71442875D01*
X170479760Y-71559400D01*
X170305368Y-71675925D01*
X170098525Y-71882768D01*
X169936010Y-72125989D01*
X169824068Y-72396242D01*
X169767000Y-72683140D01*
X169767000Y-72975660D01*
X169824068Y-73262558D01*
X169936010Y-73532811D01*
X170098525Y-73776032D01*
X170305368Y-73982875D01*
X170479760Y-74099400D01*
X170305368Y-74215925D01*
X170098525Y-74422768D01*
X169936010Y-74665989D01*
X169824068Y-74936242D01*
X169767000Y-75223140D01*
X169767000Y-75515660D01*
X169824068Y-75802558D01*
X169936010Y-76072811D01*
X170098525Y-76316032D01*
X170305368Y-76522875D01*
X170548589Y-76685390D01*
X170818842Y-76797332D01*
X171105740Y-76854400D01*
X171335573Y-76854400D01*
X171175365Y-76920760D01*
X170998559Y-77038898D01*
X170848198Y-77189259D01*
X170730060Y-77366065D01*
X170648685Y-77562522D01*
X170607200Y-77771079D01*
X170607200Y-77983721D01*
X170648685Y-78192278D01*
X170730060Y-78388735D01*
X170848198Y-78565541D01*
X170924701Y-78642044D01*
X170924700Y-80302469D01*
X167396846Y-83830323D01*
X167377656Y-83794420D01*
X167137565Y-83727440D01*
X166351605Y-84513400D01*
X166365748Y-84527543D01*
X166186143Y-84707148D01*
X166172000Y-84693005D01*
X165386040Y-85478965D01*
X165453020Y-85719056D01*
X165490493Y-85736677D01*
X163825421Y-87401748D01*
X163760935Y-87358660D01*
X163564478Y-87277285D01*
X163355921Y-87235800D01*
X163143279Y-87235800D01*
X162934722Y-87277285D01*
X162738265Y-87358660D01*
X162561459Y-87476798D01*
X162411098Y-87627159D01*
X162292960Y-87803965D01*
X162216789Y-87987859D01*
X161399287Y-87170357D01*
X161519502Y-87050141D01*
X161637640Y-86873335D01*
X161719015Y-86676878D01*
X161726753Y-86637977D01*
X162756299Y-85608432D01*
X162970273Y-85751405D01*
X163224510Y-85856714D01*
X163494408Y-85910400D01*
X163769592Y-85910400D01*
X164039490Y-85856714D01*
X164293727Y-85751405D01*
X164522535Y-85598520D01*
X164717120Y-85403935D01*
X164870005Y-85175127D01*
X164899692Y-85103457D01*
X164904364Y-85116423D01*
X164966344Y-85232380D01*
X165206435Y-85299360D01*
X165992395Y-84513400D01*
X165206435Y-83727440D01*
X164966344Y-83794420D01*
X164902515Y-83930160D01*
X164870005Y-83851673D01*
X164717120Y-83622865D01*
X164522535Y-83428280D01*
X164293727Y-83275395D01*
X164216485Y-83243400D01*
X164293727Y-83211405D01*
X164522535Y-83058520D01*
X164717120Y-82863935D01*
X164870005Y-82635127D01*
X164902000Y-82557885D01*
X164933995Y-82635127D01*
X165086880Y-82863935D01*
X165281465Y-83058520D01*
X165510273Y-83211405D01*
X165581943Y-83241092D01*
X165568977Y-83245764D01*
X165453020Y-83307744D01*
X165386040Y-83547835D01*
X166172000Y-84333795D01*
X166957960Y-83547835D01*
X166890980Y-83307744D01*
X166755240Y-83243915D01*
X166833727Y-83211405D01*
X167062535Y-83058520D01*
X167257120Y-82863935D01*
X167410005Y-82635127D01*
X167515314Y-82380890D01*
X167569000Y-82110992D01*
X167569000Y-81835808D01*
X167515314Y-81565910D01*
X167410005Y-81311673D01*
X167257120Y-81082865D01*
X167062535Y-80888280D01*
X166934000Y-80802395D01*
X166934000Y-72256330D01*
X170276653Y-68913678D01*
X170305722Y-68889822D01*
X170307498Y-68887658D01*
X170370645Y-68944578D01*
G37*
X170370645Y-68944578D02*
X170487534Y-69014205D01*
X170305368Y-69135925D01*
X170098525Y-69342768D01*
X169936010Y-69585989D01*
X169824068Y-69856242D01*
X169767000Y-70143140D01*
X169767000Y-70435660D01*
X169824068Y-70722558D01*
X169936010Y-70992811D01*
X170098525Y-71236032D01*
X170305368Y-71442875D01*
X170479760Y-71559400D01*
X170305368Y-71675925D01*
X170098525Y-71882768D01*
X169936010Y-72125989D01*
X169824068Y-72396242D01*
X169767000Y-72683140D01*
X169767000Y-72975660D01*
X169824068Y-73262558D01*
X169936010Y-73532811D01*
X170098525Y-73776032D01*
X170305368Y-73982875D01*
X170479760Y-74099400D01*
X170305368Y-74215925D01*
X170098525Y-74422768D01*
X169936010Y-74665989D01*
X169824068Y-74936242D01*
X169767000Y-75223140D01*
X169767000Y-75515660D01*
X169824068Y-75802558D01*
X169936010Y-76072811D01*
X170098525Y-76316032D01*
X170305368Y-76522875D01*
X170548589Y-76685390D01*
X170818842Y-76797332D01*
X171105740Y-76854400D01*
X171335573Y-76854400D01*
X171175365Y-76920760D01*
X170998559Y-77038898D01*
X170848198Y-77189259D01*
X170730060Y-77366065D01*
X170648685Y-77562522D01*
X170607200Y-77771079D01*
X170607200Y-77983721D01*
X170648685Y-78192278D01*
X170730060Y-78388735D01*
X170848198Y-78565541D01*
X170924701Y-78642044D01*
X170924700Y-80302469D01*
X167396846Y-83830323D01*
X167377656Y-83794420D01*
X167137565Y-83727440D01*
X166351605Y-84513400D01*
X166365748Y-84527543D01*
X166186143Y-84707148D01*
X166172000Y-84693005D01*
X165386040Y-85478965D01*
X165453020Y-85719056D01*
X165490493Y-85736677D01*
X163825421Y-87401748D01*
X163760935Y-87358660D01*
X163564478Y-87277285D01*
X163355921Y-87235800D01*
X163143279Y-87235800D01*
X162934722Y-87277285D01*
X162738265Y-87358660D01*
X162561459Y-87476798D01*
X162411098Y-87627159D01*
X162292960Y-87803965D01*
X162216789Y-87987859D01*
X161399287Y-87170357D01*
X161519502Y-87050141D01*
X161637640Y-86873335D01*
X161719015Y-86676878D01*
X161726753Y-86637977D01*
X162756299Y-85608432D01*
X162970273Y-85751405D01*
X163224510Y-85856714D01*
X163494408Y-85910400D01*
X163769592Y-85910400D01*
X164039490Y-85856714D01*
X164293727Y-85751405D01*
X164522535Y-85598520D01*
X164717120Y-85403935D01*
X164870005Y-85175127D01*
X164899692Y-85103457D01*
X164904364Y-85116423D01*
X164966344Y-85232380D01*
X165206435Y-85299360D01*
X165992395Y-84513400D01*
X165206435Y-83727440D01*
X164966344Y-83794420D01*
X164902515Y-83930160D01*
X164870005Y-83851673D01*
X164717120Y-83622865D01*
X164522535Y-83428280D01*
X164293727Y-83275395D01*
X164216485Y-83243400D01*
X164293727Y-83211405D01*
X164522535Y-83058520D01*
X164717120Y-82863935D01*
X164870005Y-82635127D01*
X164902000Y-82557885D01*
X164933995Y-82635127D01*
X165086880Y-82863935D01*
X165281465Y-83058520D01*
X165510273Y-83211405D01*
X165581943Y-83241092D01*
X165568977Y-83245764D01*
X165453020Y-83307744D01*
X165386040Y-83547835D01*
X166172000Y-84333795D01*
X166957960Y-83547835D01*
X166890980Y-83307744D01*
X166755240Y-83243915D01*
X166833727Y-83211405D01*
X167062535Y-83058520D01*
X167257120Y-82863935D01*
X167410005Y-82635127D01*
X167515314Y-82380890D01*
X167569000Y-82110992D01*
X167569000Y-81835808D01*
X167515314Y-81565910D01*
X167410005Y-81311673D01*
X167257120Y-81082865D01*
X167062535Y-80888280D01*
X166934000Y-80802395D01*
X166934000Y-72256330D01*
X170276653Y-68913678D01*
X170305722Y-68889822D01*
X170307498Y-68887658D01*
X170370645Y-68944578D01*
G36*
X148585748Y-84499258D02*
G01*
X148571605Y-84513400D01*
X148585748Y-84527543D01*
X148406143Y-84707148D01*
X148392000Y-84693005D01*
X148377858Y-84707148D01*
X148198253Y-84527543D01*
X148212395Y-84513400D01*
X148198253Y-84499258D01*
X148377858Y-84319653D01*
X148392000Y-84333795D01*
X148406143Y-84319653D01*
X148585748Y-84499258D01*
G37*
X148585748Y-84499258D02*
X148571605Y-84513400D01*
X148585748Y-84527543D01*
X148406143Y-84707148D01*
X148392000Y-84693005D01*
X148377858Y-84707148D01*
X148198253Y-84527543D01*
X148212395Y-84513400D01*
X148198253Y-84499258D01*
X148377858Y-84319653D01*
X148392000Y-84333795D01*
X148406143Y-84319653D01*
X148585748Y-84499258D01*
G36*
X142310620Y-80280249D02*
G01*
X141686908Y-80903962D01*
X141674369Y-80891423D01*
X141557959Y-81007833D01*
X141490980Y-80767744D01*
X141241952Y-80650644D01*
X140974865Y-80584377D01*
X140699983Y-80571490D01*
X140427867Y-80612478D01*
X140168977Y-80705764D01*
X140053020Y-80767744D01*
X139986040Y-81007835D01*
X140772000Y-81793795D01*
X140786143Y-81779653D01*
X140965748Y-81959258D01*
X140951605Y-81973400D01*
X140965748Y-81987543D01*
X140786143Y-82167148D01*
X140772000Y-82153005D01*
X139986040Y-82938965D01*
X140053020Y-83179056D01*
X140188760Y-83242885D01*
X140110273Y-83275395D01*
X139881465Y-83428280D01*
X139686880Y-83622865D01*
X139533995Y-83851673D01*
X139502000Y-83928915D01*
X139470005Y-83851673D01*
X139317120Y-83622865D01*
X139122535Y-83428280D01*
X138893727Y-83275395D01*
X138816485Y-83243400D01*
X138893727Y-83211405D01*
X139122535Y-83058520D01*
X139317120Y-82863935D01*
X139470005Y-82635127D01*
X139499692Y-82563457D01*
X139504364Y-82576423D01*
X139566344Y-82692380D01*
X139806435Y-82759360D01*
X140592395Y-81973400D01*
X139806435Y-81187440D01*
X139566344Y-81254420D01*
X139502515Y-81390160D01*
X139470005Y-81311673D01*
X139317120Y-81082865D01*
X139122535Y-80888280D01*
X138893727Y-80735395D01*
X138639490Y-80630086D01*
X138369592Y-80576400D01*
X138094408Y-80576400D01*
X137824510Y-80630086D01*
X137570273Y-80735395D01*
X137341465Y-80888280D01*
X137146880Y-81082865D01*
X136993995Y-81311673D01*
X136962000Y-81388915D01*
X136930005Y-81311673D01*
X136777120Y-81082865D01*
X136582535Y-80888280D01*
X136353727Y-80735395D01*
X136099490Y-80630086D01*
X135829592Y-80576400D01*
X135554408Y-80576400D01*
X135284510Y-80630086D01*
X135030273Y-80735395D01*
X134801465Y-80888280D01*
X134606880Y-81082865D01*
X134453995Y-81311673D01*
X134424308Y-81383343D01*
X134419636Y-81370377D01*
X134357656Y-81254420D01*
X134117565Y-81187440D01*
X133331605Y-81973400D01*
X133345748Y-81987543D01*
X133166143Y-82167148D01*
X133152000Y-82153005D01*
X132366040Y-82938965D01*
X132433020Y-83179056D01*
X132568760Y-83242885D01*
X132490273Y-83275395D01*
X132261465Y-83428280D01*
X132066880Y-83622865D01*
X131913995Y-83851673D01*
X131882000Y-83928915D01*
X131850005Y-83851673D01*
X131697120Y-83622865D01*
X131502535Y-83428280D01*
X131273727Y-83275395D01*
X131196485Y-83243400D01*
X131273727Y-83211405D01*
X131502535Y-83058520D01*
X131697120Y-82863935D01*
X131850005Y-82635127D01*
X131879692Y-82563457D01*
X131884364Y-82576423D01*
X131946344Y-82692380D01*
X132186435Y-82759360D01*
X132972395Y-81973400D01*
X132958253Y-81959258D01*
X133137858Y-81779653D01*
X133152000Y-81793795D01*
X133937960Y-81007835D01*
X133870980Y-80767744D01*
X133621952Y-80650644D01*
X133354865Y-80584377D01*
X133091022Y-80572008D01*
X133275430Y-80387600D01*
X141668677Y-80387600D01*
X141706100Y-80391286D01*
X141743523Y-80387600D01*
X141743526Y-80387600D01*
X141855478Y-80376574D01*
X141999115Y-80333002D01*
X142131492Y-80262245D01*
X142133618Y-80260500D01*
X142326828Y-80260500D01*
X142310620Y-80280249D01*
G37*
X142310620Y-80280249D02*
X141686908Y-80903962D01*
X141674369Y-80891423D01*
X141557959Y-81007833D01*
X141490980Y-80767744D01*
X141241952Y-80650644D01*
X140974865Y-80584377D01*
X140699983Y-80571490D01*
X140427867Y-80612478D01*
X140168977Y-80705764D01*
X140053020Y-80767744D01*
X139986040Y-81007835D01*
X140772000Y-81793795D01*
X140786143Y-81779653D01*
X140965748Y-81959258D01*
X140951605Y-81973400D01*
X140965748Y-81987543D01*
X140786143Y-82167148D01*
X140772000Y-82153005D01*
X139986040Y-82938965D01*
X140053020Y-83179056D01*
X140188760Y-83242885D01*
X140110273Y-83275395D01*
X139881465Y-83428280D01*
X139686880Y-83622865D01*
X139533995Y-83851673D01*
X139502000Y-83928915D01*
X139470005Y-83851673D01*
X139317120Y-83622865D01*
X139122535Y-83428280D01*
X138893727Y-83275395D01*
X138816485Y-83243400D01*
X138893727Y-83211405D01*
X139122535Y-83058520D01*
X139317120Y-82863935D01*
X139470005Y-82635127D01*
X139499692Y-82563457D01*
X139504364Y-82576423D01*
X139566344Y-82692380D01*
X139806435Y-82759360D01*
X140592395Y-81973400D01*
X139806435Y-81187440D01*
X139566344Y-81254420D01*
X139502515Y-81390160D01*
X139470005Y-81311673D01*
X139317120Y-81082865D01*
X139122535Y-80888280D01*
X138893727Y-80735395D01*
X138639490Y-80630086D01*
X138369592Y-80576400D01*
X138094408Y-80576400D01*
X137824510Y-80630086D01*
X137570273Y-80735395D01*
X137341465Y-80888280D01*
X137146880Y-81082865D01*
X136993995Y-81311673D01*
X136962000Y-81388915D01*
X136930005Y-81311673D01*
X136777120Y-81082865D01*
X136582535Y-80888280D01*
X136353727Y-80735395D01*
X136099490Y-80630086D01*
X135829592Y-80576400D01*
X135554408Y-80576400D01*
X135284510Y-80630086D01*
X135030273Y-80735395D01*
X134801465Y-80888280D01*
X134606880Y-81082865D01*
X134453995Y-81311673D01*
X134424308Y-81383343D01*
X134419636Y-81370377D01*
X134357656Y-81254420D01*
X134117565Y-81187440D01*
X133331605Y-81973400D01*
X133345748Y-81987543D01*
X133166143Y-82167148D01*
X133152000Y-82153005D01*
X132366040Y-82938965D01*
X132433020Y-83179056D01*
X132568760Y-83242885D01*
X132490273Y-83275395D01*
X132261465Y-83428280D01*
X132066880Y-83622865D01*
X131913995Y-83851673D01*
X131882000Y-83928915D01*
X131850005Y-83851673D01*
X131697120Y-83622865D01*
X131502535Y-83428280D01*
X131273727Y-83275395D01*
X131196485Y-83243400D01*
X131273727Y-83211405D01*
X131502535Y-83058520D01*
X131697120Y-82863935D01*
X131850005Y-82635127D01*
X131879692Y-82563457D01*
X131884364Y-82576423D01*
X131946344Y-82692380D01*
X132186435Y-82759360D01*
X132972395Y-81973400D01*
X132958253Y-81959258D01*
X133137858Y-81779653D01*
X133152000Y-81793795D01*
X133937960Y-81007835D01*
X133870980Y-80767744D01*
X133621952Y-80650644D01*
X133354865Y-80584377D01*
X133091022Y-80572008D01*
X133275430Y-80387600D01*
X141668677Y-80387600D01*
X141706100Y-80391286D01*
X141743523Y-80387600D01*
X141743526Y-80387600D01*
X141855478Y-80376574D01*
X141999115Y-80333002D01*
X142131492Y-80262245D01*
X142133618Y-80260500D01*
X142326828Y-80260500D01*
X142310620Y-80280249D01*
G36*
X153665748Y-81959258D02*
G01*
X153651605Y-81973400D01*
X153665748Y-81987543D01*
X153486143Y-82167148D01*
X153472000Y-82153005D01*
X153457858Y-82167148D01*
X153278253Y-81987543D01*
X153292395Y-81973400D01*
X153278253Y-81959258D01*
X153457858Y-81779653D01*
X153472000Y-81793795D01*
X153486143Y-81779653D01*
X153665748Y-81959258D01*
G37*
X153665748Y-81959258D02*
X153651605Y-81973400D01*
X153665748Y-81987543D01*
X153486143Y-82167148D01*
X153472000Y-82153005D01*
X153457858Y-82167148D01*
X153278253Y-81987543D01*
X153292395Y-81973400D01*
X153278253Y-81959258D01*
X153457858Y-81779653D01*
X153472000Y-81793795D01*
X153486143Y-81779653D01*
X153665748Y-81959258D01*
G36*
X123185748Y-81959258D02*
G01*
X123171605Y-81973400D01*
X123185748Y-81987543D01*
X123006143Y-82167148D01*
X122992000Y-82153005D01*
X122977858Y-82167148D01*
X122798253Y-81987543D01*
X122812395Y-81973400D01*
X122798253Y-81959258D01*
X122977858Y-81779653D01*
X122992000Y-81793795D01*
X123006143Y-81779653D01*
X123185748Y-81959258D01*
G37*
X123185748Y-81959258D02*
X123171605Y-81973400D01*
X123185748Y-81987543D01*
X123006143Y-82167148D01*
X122992000Y-82153005D01*
X122977858Y-82167148D01*
X122798253Y-81987543D01*
X122812395Y-81973400D01*
X122798253Y-81959258D01*
X122977858Y-81779653D01*
X122992000Y-81793795D01*
X123006143Y-81779653D01*
X123185748Y-81959258D01*
G36*
X163027701Y-68017598D02*
G01*
X163363802Y-68353699D01*
X163759016Y-68617772D01*
X164198154Y-68799669D01*
X164664340Y-68892400D01*
X164811569Y-68892400D01*
X160579649Y-73124321D01*
X160550579Y-73148178D01*
X160526722Y-73177248D01*
X160526721Y-73177249D01*
X160455355Y-73264208D01*
X160384599Y-73396585D01*
X160341027Y-73540222D01*
X160326314Y-73689600D01*
X160330001Y-73727033D01*
X160330000Y-80802395D01*
X160201465Y-80888280D01*
X160006880Y-81082865D01*
X159853995Y-81311673D01*
X159824308Y-81383343D01*
X159819636Y-81370377D01*
X159757656Y-81254420D01*
X159517565Y-81187440D01*
X158731605Y-81973400D01*
X158745748Y-81987543D01*
X158566143Y-82167148D01*
X158552000Y-82153005D01*
X158537858Y-82167148D01*
X158358253Y-81987543D01*
X158372395Y-81973400D01*
X158358253Y-81959258D01*
X158537858Y-81779653D01*
X158552000Y-81793795D01*
X159337960Y-81007835D01*
X159270980Y-80767744D01*
X159021952Y-80650644D01*
X158754865Y-80584377D01*
X158479983Y-80571490D01*
X158207867Y-80612478D01*
X157948977Y-80705764D01*
X157833020Y-80767744D01*
X157771804Y-80987173D01*
X154317230Y-77532600D01*
X154372472Y-77429251D01*
X154423008Y-77262655D01*
X154440072Y-77089401D01*
X154440072Y-76503958D01*
X156524353Y-74419678D01*
X156553422Y-74395822D01*
X156608930Y-74328185D01*
X156648645Y-74279793D01*
X156719401Y-74147416D01*
X156719402Y-74147415D01*
X156738000Y-74086105D01*
X156738001Y-75644756D01*
X156661498Y-75721259D01*
X156543360Y-75898065D01*
X156461985Y-76094522D01*
X156420500Y-76303079D01*
X156420500Y-76515721D01*
X156461985Y-76724278D01*
X156543360Y-76920735D01*
X156661498Y-77097541D01*
X156811859Y-77247902D01*
X156988665Y-77366040D01*
X157185122Y-77447415D01*
X157393679Y-77488900D01*
X157606321Y-77488900D01*
X157814878Y-77447415D01*
X157851700Y-77432163D01*
X157851700Y-78465457D01*
X157775198Y-78541959D01*
X157657060Y-78718765D01*
X157575685Y-78915222D01*
X157534200Y-79123779D01*
X157534200Y-79336421D01*
X157575685Y-79544978D01*
X157657060Y-79741435D01*
X157775198Y-79918241D01*
X157925559Y-80068602D01*
X158102365Y-80186740D01*
X158298822Y-80268115D01*
X158507379Y-80309600D01*
X158720021Y-80309600D01*
X158928578Y-80268115D01*
X159125035Y-80186740D01*
X159301841Y-80068602D01*
X159452202Y-79918241D01*
X159570340Y-79741435D01*
X159651715Y-79544978D01*
X159693200Y-79336421D01*
X159693200Y-79123779D01*
X159651715Y-78915222D01*
X159570340Y-78718765D01*
X159452202Y-78541959D01*
X159375700Y-78465457D01*
X159375700Y-72449230D01*
X162769647Y-69055283D01*
X162798722Y-69031422D01*
X162888195Y-68922399D01*
X162893945Y-68915393D01*
X162964701Y-68783016D01*
X162964702Y-68783015D01*
X163008274Y-68639378D01*
X163019300Y-68527426D01*
X163019300Y-68527423D01*
X163022986Y-68490000D01*
X163019300Y-68452577D01*
X163019300Y-68005025D01*
X163027701Y-68017598D01*
G37*
X163027701Y-68017598D02*
X163363802Y-68353699D01*
X163759016Y-68617772D01*
X164198154Y-68799669D01*
X164664340Y-68892400D01*
X164811569Y-68892400D01*
X160579649Y-73124321D01*
X160550579Y-73148178D01*
X160526722Y-73177248D01*
X160526721Y-73177249D01*
X160455355Y-73264208D01*
X160384599Y-73396585D01*
X160341027Y-73540222D01*
X160326314Y-73689600D01*
X160330001Y-73727033D01*
X160330000Y-80802395D01*
X160201465Y-80888280D01*
X160006880Y-81082865D01*
X159853995Y-81311673D01*
X159824308Y-81383343D01*
X159819636Y-81370377D01*
X159757656Y-81254420D01*
X159517565Y-81187440D01*
X158731605Y-81973400D01*
X158745748Y-81987543D01*
X158566143Y-82167148D01*
X158552000Y-82153005D01*
X158537858Y-82167148D01*
X158358253Y-81987543D01*
X158372395Y-81973400D01*
X158358253Y-81959258D01*
X158537858Y-81779653D01*
X158552000Y-81793795D01*
X159337960Y-81007835D01*
X159270980Y-80767744D01*
X159021952Y-80650644D01*
X158754865Y-80584377D01*
X158479983Y-80571490D01*
X158207867Y-80612478D01*
X157948977Y-80705764D01*
X157833020Y-80767744D01*
X157771804Y-80987173D01*
X154317230Y-77532600D01*
X154372472Y-77429251D01*
X154423008Y-77262655D01*
X154440072Y-77089401D01*
X154440072Y-76503958D01*
X156524353Y-74419678D01*
X156553422Y-74395822D01*
X156608930Y-74328185D01*
X156648645Y-74279793D01*
X156719401Y-74147416D01*
X156719402Y-74147415D01*
X156738000Y-74086105D01*
X156738001Y-75644756D01*
X156661498Y-75721259D01*
X156543360Y-75898065D01*
X156461985Y-76094522D01*
X156420500Y-76303079D01*
X156420500Y-76515721D01*
X156461985Y-76724278D01*
X156543360Y-76920735D01*
X156661498Y-77097541D01*
X156811859Y-77247902D01*
X156988665Y-77366040D01*
X157185122Y-77447415D01*
X157393679Y-77488900D01*
X157606321Y-77488900D01*
X157814878Y-77447415D01*
X157851700Y-77432163D01*
X157851700Y-78465457D01*
X157775198Y-78541959D01*
X157657060Y-78718765D01*
X157575685Y-78915222D01*
X157534200Y-79123779D01*
X157534200Y-79336421D01*
X157575685Y-79544978D01*
X157657060Y-79741435D01*
X157775198Y-79918241D01*
X157925559Y-80068602D01*
X158102365Y-80186740D01*
X158298822Y-80268115D01*
X158507379Y-80309600D01*
X158720021Y-80309600D01*
X158928578Y-80268115D01*
X159125035Y-80186740D01*
X159301841Y-80068602D01*
X159452202Y-79918241D01*
X159570340Y-79741435D01*
X159651715Y-79544978D01*
X159693200Y-79336421D01*
X159693200Y-79123779D01*
X159651715Y-78915222D01*
X159570340Y-78718765D01*
X159452202Y-78541959D01*
X159375700Y-78465457D01*
X159375700Y-72449230D01*
X162769647Y-69055283D01*
X162798722Y-69031422D01*
X162888195Y-68922399D01*
X162893945Y-68915393D01*
X162964701Y-68783016D01*
X162964702Y-68783015D01*
X163008274Y-68639378D01*
X163019300Y-68527426D01*
X163019300Y-68527423D01*
X163022986Y-68490000D01*
X163019300Y-68452577D01*
X163019300Y-68005025D01*
X163027701Y-68017598D01*
G36*
X138740001Y-53701568D02*
G01*
X131369654Y-61071916D01*
X131340578Y-61095778D01*
X131284983Y-61163522D01*
X131245355Y-61211808D01*
X131225597Y-61248774D01*
X131174598Y-61344186D01*
X131131026Y-61487823D01*
X131120000Y-61599774D01*
X131116314Y-61637200D01*
X131120000Y-61674623D01*
X131120001Y-66444536D01*
X131081952Y-66426644D01*
X130814865Y-66360377D01*
X130539983Y-66347490D01*
X130267867Y-66388478D01*
X130008977Y-66481764D01*
X129893020Y-66543744D01*
X129826040Y-66783835D01*
X130612000Y-67569795D01*
X130626143Y-67555653D01*
X130805748Y-67735258D01*
X130791605Y-67749400D01*
X130805748Y-67763543D01*
X130626143Y-67943148D01*
X130612000Y-67929005D01*
X129826040Y-68714965D01*
X129893020Y-68955056D01*
X130142048Y-69072156D01*
X130409135Y-69138423D01*
X130684017Y-69151310D01*
X130701256Y-69148713D01*
X128594970Y-71255000D01*
X128486779Y-71255000D01*
X128278222Y-71296485D01*
X128081765Y-71377860D01*
X127904959Y-71495998D01*
X127754598Y-71646359D01*
X127636460Y-71823165D01*
X127564000Y-71998099D01*
X127564000Y-69051081D01*
X127664510Y-69092714D01*
X127934408Y-69146400D01*
X128209592Y-69146400D01*
X128479490Y-69092714D01*
X128733727Y-68987405D01*
X128962535Y-68834520D01*
X129157120Y-68639935D01*
X129310005Y-68411127D01*
X129339692Y-68339457D01*
X129344364Y-68352423D01*
X129406344Y-68468380D01*
X129646435Y-68535360D01*
X130432395Y-67749400D01*
X129646435Y-66963440D01*
X129406344Y-67030420D01*
X129342515Y-67166160D01*
X129310005Y-67087673D01*
X129157120Y-66858865D01*
X128962535Y-66664280D01*
X128733727Y-66511395D01*
X128479490Y-66406086D01*
X128209592Y-66352400D01*
X127934408Y-66352400D01*
X127664510Y-66406086D01*
X127564000Y-66447719D01*
X127564000Y-59175030D01*
X130163881Y-56575149D01*
X130213675Y-56825481D01*
X130344463Y-57141231D01*
X130534337Y-57425398D01*
X130776002Y-57667063D01*
X131060169Y-57856937D01*
X131375919Y-57987725D01*
X131711117Y-58054400D01*
X132052883Y-58054400D01*
X132388081Y-57987725D01*
X132703831Y-57856937D01*
X132987998Y-57667063D01*
X133229663Y-57425398D01*
X133419537Y-57141231D01*
X133550325Y-56825481D01*
X133617000Y-56490283D01*
X133617000Y-56148517D01*
X133550325Y-55813319D01*
X133419537Y-55497569D01*
X133229663Y-55213402D01*
X132987998Y-54971737D01*
X132703831Y-54781863D01*
X132388081Y-54651075D01*
X132137749Y-54601281D01*
X137942790Y-48796241D01*
X138094408Y-48826400D01*
X138369592Y-48826400D01*
X138639490Y-48772714D01*
X138740000Y-48731081D01*
X138740001Y-53701568D01*
G37*
X138740001Y-53701568D02*
X131369654Y-61071916D01*
X131340578Y-61095778D01*
X131284983Y-61163522D01*
X131245355Y-61211808D01*
X131225597Y-61248774D01*
X131174598Y-61344186D01*
X131131026Y-61487823D01*
X131120000Y-61599774D01*
X131116314Y-61637200D01*
X131120000Y-61674623D01*
X131120001Y-66444536D01*
X131081952Y-66426644D01*
X130814865Y-66360377D01*
X130539983Y-66347490D01*
X130267867Y-66388478D01*
X130008977Y-66481764D01*
X129893020Y-66543744D01*
X129826040Y-66783835D01*
X130612000Y-67569795D01*
X130626143Y-67555653D01*
X130805748Y-67735258D01*
X130791605Y-67749400D01*
X130805748Y-67763543D01*
X130626143Y-67943148D01*
X130612000Y-67929005D01*
X129826040Y-68714965D01*
X129893020Y-68955056D01*
X130142048Y-69072156D01*
X130409135Y-69138423D01*
X130684017Y-69151310D01*
X130701256Y-69148713D01*
X128594970Y-71255000D01*
X128486779Y-71255000D01*
X128278222Y-71296485D01*
X128081765Y-71377860D01*
X127904959Y-71495998D01*
X127754598Y-71646359D01*
X127636460Y-71823165D01*
X127564000Y-71998099D01*
X127564000Y-69051081D01*
X127664510Y-69092714D01*
X127934408Y-69146400D01*
X128209592Y-69146400D01*
X128479490Y-69092714D01*
X128733727Y-68987405D01*
X128962535Y-68834520D01*
X129157120Y-68639935D01*
X129310005Y-68411127D01*
X129339692Y-68339457D01*
X129344364Y-68352423D01*
X129406344Y-68468380D01*
X129646435Y-68535360D01*
X130432395Y-67749400D01*
X129646435Y-66963440D01*
X129406344Y-67030420D01*
X129342515Y-67166160D01*
X129310005Y-67087673D01*
X129157120Y-66858865D01*
X128962535Y-66664280D01*
X128733727Y-66511395D01*
X128479490Y-66406086D01*
X128209592Y-66352400D01*
X127934408Y-66352400D01*
X127664510Y-66406086D01*
X127564000Y-66447719D01*
X127564000Y-59175030D01*
X130163881Y-56575149D01*
X130213675Y-56825481D01*
X130344463Y-57141231D01*
X130534337Y-57425398D01*
X130776002Y-57667063D01*
X131060169Y-57856937D01*
X131375919Y-57987725D01*
X131711117Y-58054400D01*
X132052883Y-58054400D01*
X132388081Y-57987725D01*
X132703831Y-57856937D01*
X132987998Y-57667063D01*
X133229663Y-57425398D01*
X133419537Y-57141231D01*
X133550325Y-56825481D01*
X133617000Y-56490283D01*
X133617000Y-56148517D01*
X133550325Y-55813319D01*
X133419537Y-55497569D01*
X133229663Y-55213402D01*
X132987998Y-54971737D01*
X132703831Y-54781863D01*
X132388081Y-54651075D01*
X132137749Y-54601281D01*
X137942790Y-48796241D01*
X138094408Y-48826400D01*
X138369592Y-48826400D01*
X138639490Y-48772714D01*
X138740000Y-48731081D01*
X138740001Y-53701568D01*
G36*
X171379000Y-67622400D02*
G01*
X171399000Y-67622400D01*
X171399000Y-67876400D01*
X171379000Y-67876400D01*
X171379000Y-67896400D01*
X171125000Y-67896400D01*
X171125000Y-67876400D01*
X171105000Y-67876400D01*
X171105000Y-67622400D01*
X171125000Y-67622400D01*
X171125000Y-67602400D01*
X171379000Y-67602400D01*
X171379000Y-67622400D01*
G37*
X171379000Y-67622400D02*
X171399000Y-67622400D01*
X171399000Y-67876400D01*
X171379000Y-67876400D01*
X171379000Y-67896400D01*
X171125000Y-67896400D01*
X171125000Y-67876400D01*
X171105000Y-67876400D01*
X171105000Y-67622400D01*
X171125000Y-67622400D01*
X171125000Y-67602400D01*
X171379000Y-67602400D01*
X171379000Y-67622400D01*
%TD*%
M02*
