M48
; DRILL file {KiCad (5.1.6)-1} date 10/07/20 00:16:56
; FORMAT={-:-/ absolute / metric / decimal}
; #@! TF.CreationDate,2020-10-07T00:16:56+02:00
; #@! TF.GenerationSoftware,Kicad,Pcbnew,(5.1.6)-1
; #@! TF.FileFunction,Plated,1,2,PTH
FMAT,2
METRIC
T1C0.635
T2C0.762
T3C1.000
%
G90
G05
T1
X115.397Y-87.386
X118.195Y-75.011
X119.415Y-68.958
X120.982Y-77.908
X121.753Y-79.392
X122.081Y-95.977
X123.865Y-78.546
X126.102Y-77.184
X126.228Y-80.368
X128.913Y-71.087
X129.263Y-80.888
X131.86Y-81.392
X132.27Y-75.011
X133.34Y-87.13
X136.56Y-75.659
X138.213Y-88.6
X142.758Y-76.763
X142.968Y-71.111
X143.54Y-89.772
X146.808Y-86.673
X148.392Y-88.075
X151.451Y-73.897
X152.641Y-53.549
X153.439Y-56.66
X157.819Y-80.618
X160.53Y-79.565
T2
X122.992Y-67.749
X125.532Y-67.749
X128.072Y-67.749
X130.612Y-67.749
X133.152Y-47.429
X133.152Y-67.749
X135.692Y-47.429
X135.692Y-67.749
X138.232Y-47.429
X138.232Y-67.749
X140.772Y-47.429
X140.772Y-67.749
X143.312Y-47.429
X143.312Y-67.749
X145.852Y-47.429
X145.852Y-67.749
X148.392Y-47.429
X148.392Y-67.749
X150.932Y-47.429
X150.932Y-67.749
X153.472Y-47.429
X153.472Y-67.749
X156.012Y-47.429
X156.012Y-67.749
X158.552Y-47.429
X158.552Y-67.749
X161.092Y-47.429
X161.092Y-67.749
X117.912Y-82.989
X117.912Y-85.529
X120.452Y-82.989
X120.452Y-85.529
X122.992Y-82.989
X122.992Y-85.529
X125.532Y-82.989
X125.532Y-85.529
X128.072Y-82.989
X128.072Y-85.529
X130.612Y-82.989
X130.612Y-85.529
X133.152Y-82.989
X133.152Y-85.529
X135.692Y-82.989
X135.692Y-85.529
X138.232Y-82.989
X138.232Y-85.529
X140.772Y-82.989
X140.772Y-85.529
X143.312Y-82.989
X143.312Y-85.529
X145.852Y-82.989
X145.852Y-85.529
X148.392Y-82.989
X148.392Y-85.529
X150.932Y-82.989
X150.932Y-85.529
X153.472Y-82.989
X153.472Y-85.529
X156.012Y-82.989
X156.012Y-85.529
X158.552Y-82.989
X158.552Y-85.529
X161.092Y-82.989
X161.092Y-85.529
X163.632Y-82.989
X163.632Y-85.529
X166.172Y-82.989
X166.172Y-85.529
X117.912Y-91.244
X117.912Y-93.784
X120.452Y-91.244
X120.452Y-93.784
X122.992Y-91.244
X122.992Y-93.784
X125.532Y-91.244
X125.532Y-93.784
X128.072Y-91.244
X128.072Y-93.784
X130.612Y-91.244
X130.612Y-93.784
X133.152Y-91.244
X133.152Y-93.784
X135.692Y-91.244
X135.692Y-93.784
X138.232Y-91.244
X138.232Y-93.784
X140.772Y-91.244
X140.772Y-93.784
X143.312Y-91.244
X143.312Y-93.784
X145.852Y-91.244
X145.852Y-93.784
X148.392Y-91.244
X148.392Y-93.784
X150.932Y-91.244
X150.932Y-93.784
X153.472Y-91.244
X153.472Y-93.784
X156.012Y-91.244
X156.012Y-93.784
X158.552Y-91.244
X158.552Y-93.784
X161.092Y-91.244
X161.092Y-93.784
X163.632Y-91.244
X163.632Y-93.784
X166.172Y-91.244
X166.172Y-93.784
T3
X171.252Y-47.429
X171.252Y-49.969
X171.252Y-52.509
X171.252Y-55.049
X171.252Y-57.589
X171.252Y-60.129
X171.252Y-62.669
X171.252Y-65.209
X171.252Y-67.749
X171.252Y-70.289
X171.252Y-72.829
X171.252Y-75.369
X112.832Y-47.429
X112.832Y-49.969
X112.832Y-52.509
X112.832Y-55.049
X112.832Y-57.589
X112.832Y-60.129
X112.832Y-62.669
X112.832Y-65.209
X112.832Y-67.749
X112.832Y-70.289
X112.832Y-72.829
X112.832Y-75.369
T0
M30
