%TF.GenerationSoftware,KiCad,Pcbnew,(5.1.6)-1*%
%TF.CreationDate,2020-10-07T00:16:53+02:00*%
%TF.ProjectId,RPI_FEATHER,5250495f-4645-4415-9448-45522e6b6963,rev?*%
%TF.SameCoordinates,Original*%
%TF.FileFunction,Copper,L2,Bot*%
%TF.FilePolarity,Positive*%
%FSLAX46Y46*%
G04 Gerber Fmt 4.6, Leading zero omitted, Abs format (unit mm)*
G04 Created by KiCad (PCBNEW (5.1.6)-1) date 2020-10-07 00:16:53*
%MOMM*%
%LPD*%
G01*
G04 APERTURE LIST*
%TA.AperFunction,ComponentPad*%
%ADD10C,1.524000*%
%TD*%
%TA.AperFunction,ComponentPad*%
%ADD11R,1.524000X1.524000*%
%TD*%
%TA.AperFunction,WasherPad*%
%ADD12C,3.556000*%
%TD*%
%TA.AperFunction,ComponentPad*%
%ADD13O,1.700000X1.700000*%
%TD*%
%TA.AperFunction,ComponentPad*%
%ADD14R,1.700000X1.700000*%
%TD*%
%TA.AperFunction,ViaPad*%
%ADD15C,0.889000*%
%TD*%
%TA.AperFunction,Conductor*%
%ADD16C,0.254000*%
%TD*%
G04 APERTURE END LIST*
D10*
%TO.P,PI2,40*%
%TO.N,/GPIO21*%
X117912000Y-93784400D03*
%TO.P,PI2,39*%
%TO.N,GND*%
X117912000Y-91244400D03*
%TO.P,PI2,38*%
%TO.N,/GPIO20*%
X120452000Y-93784400D03*
%TO.P,PI2,37*%
%TO.N,/GPIO26*%
X120452000Y-91244400D03*
%TO.P,PI2,36*%
%TO.N,/GPIO16*%
X122992000Y-93784400D03*
%TO.P,PI2,35*%
%TO.N,/GPIO19*%
X122992000Y-91244400D03*
%TO.P,PI2,34*%
%TO.N,GND*%
X125532000Y-93784400D03*
%TO.P,PI2,33*%
%TO.N,/GPIO13*%
X125532000Y-91244400D03*
%TO.P,PI2,32*%
%TO.N,/GPIO12*%
X128072000Y-93784400D03*
%TO.P,PI2,31*%
%TO.N,/GPIO6*%
X128072000Y-91244400D03*
%TO.P,PI2,30*%
%TO.N,GND*%
X130612000Y-93784400D03*
%TO.P,PI2,29*%
%TO.N,/GPIO5*%
X130612000Y-91244400D03*
%TO.P,PI2,28*%
%TO.N,N/C*%
X133152000Y-93784400D03*
%TO.P,PI2,27*%
X133152000Y-91244400D03*
%TO.P,PI2,26*%
X135692000Y-93784400D03*
%TO.P,PI2,25*%
%TO.N,GND*%
X135692000Y-91244400D03*
%TO.P,PI2,24*%
%TO.N,/F13*%
X138232000Y-93784400D03*
%TO.P,PI2,23*%
%TO.N,/SCK*%
X138232000Y-91244400D03*
%TO.P,PI2,22*%
%TO.N,/F12*%
X140772000Y-93784400D03*
%TO.P,PI2,21*%
%TO.N,/MISO*%
X140772000Y-91244400D03*
%TO.P,PI2,20*%
%TO.N,GND*%
X143312000Y-93784400D03*
%TO.P,PI2,19*%
%TO.N,/MOSI*%
X143312000Y-91244400D03*
%TO.P,PI2,18*%
%TO.N,/F11*%
X145852000Y-93784400D03*
%TO.P,PI2,17*%
%TO.N,3.3v*%
X145852000Y-91244400D03*
%TO.P,PI2,16*%
%TO.N,/GPIO23*%
X148392000Y-93784400D03*
%TO.P,PI2,15*%
%TO.N,/F9*%
X148392000Y-91244400D03*
%TO.P,PI2,14*%
%TO.N,GND*%
X150932000Y-93784400D03*
%TO.P,PI2,13*%
%TO.N,/F6*%
X150932000Y-91244400D03*
%TO.P,PI2,12*%
%TO.N,/GPIO18*%
X153472000Y-93784400D03*
%TO.P,PI2,11*%
%TO.N,/F5*%
X153472000Y-91244400D03*
%TO.P,PI2,10*%
%TO.N,/TX*%
X156012000Y-93784400D03*
%TO.P,PI2,9*%
%TO.N,GND*%
X156012000Y-91244400D03*
%TO.P,PI2,8*%
%TO.N,/RX*%
X158552000Y-93784400D03*
%TO.P,PI2,7*%
%TO.N,/GPIO4*%
X158552000Y-91244400D03*
%TO.P,PI2,6*%
%TO.N,GND*%
X161092000Y-93784400D03*
%TO.P,PI2,5*%
%TO.N,N/C*%
X161092000Y-91244400D03*
%TO.P,PI2,4*%
%TO.N,/5v*%
X163632000Y-93784400D03*
%TO.P,PI2,3*%
%TO.N,N/C*%
X163632000Y-91244400D03*
%TO.P,PI2,2*%
%TO.N,/5v*%
X166172000Y-93784400D03*
D11*
%TO.P,PI2,1*%
%TO.N,3.3v*%
X166172000Y-91244400D03*
%TD*%
D12*
%TO.P,U1,*%
%TO.N,*%
X164902000Y-66479400D03*
X119182000Y-66479400D03*
X164902000Y-48699400D03*
X119182000Y-48699400D03*
D10*
%TO.P,U1,1*%
%TO.N,N/C*%
X161092000Y-47429400D03*
%TO.P,U1,2*%
X158552000Y-47429400D03*
%TO.P,U1,3*%
%TO.N,/F5*%
X156012000Y-47429400D03*
%TO.P,U1,4*%
%TO.N,/F6*%
X153472000Y-47429400D03*
%TO.P,U1,5*%
%TO.N,/F9*%
X150932000Y-47429400D03*
%TO.P,U1,6*%
%TO.N,N/C*%
X148392000Y-47429400D03*
%TO.P,U1,7*%
%TO.N,/F11*%
X145852000Y-47429400D03*
%TO.P,U1,8*%
%TO.N,/F12*%
X143312000Y-47429400D03*
%TO.P,U1,9*%
%TO.N,/F13*%
X140772000Y-47429400D03*
%TO.P,U1,10*%
%TO.N,/5v*%
X138232000Y-47429400D03*
%TO.P,U1,11*%
%TO.N,N/C*%
X135692000Y-47429400D03*
%TO.P,U1,12*%
X133152000Y-47429400D03*
%TO.P,U1,13*%
X161092000Y-67749400D03*
%TO.P,U1,14*%
%TO.N,Net-(R1-Pad2)*%
X158552000Y-67749400D03*
%TO.P,U1,15*%
%TO.N,Net-(R2-Pad2)*%
X156012000Y-67749400D03*
%TO.P,U1,16*%
%TO.N,/MISO*%
X153472000Y-67749400D03*
%TO.P,U1,17*%
%TO.N,/MOSI*%
X150932000Y-67749400D03*
%TO.P,U1,18*%
%TO.N,/SCK*%
X148392000Y-67749400D03*
%TO.P,U1,19*%
%TO.N,/A5*%
X145852000Y-67749400D03*
%TO.P,U1,20*%
%TO.N,/A4*%
X143312000Y-67749400D03*
%TO.P,U1,21*%
%TO.N,/A3*%
X140772000Y-67749400D03*
%TO.P,U1,22*%
%TO.N,/A2*%
X138232000Y-67749400D03*
%TO.P,U1,23*%
%TO.N,/A1*%
X135692000Y-67749400D03*
%TO.P,U1,24*%
%TO.N,/A0*%
X133152000Y-67749400D03*
%TO.P,U1,25*%
%TO.N,GND*%
X130612000Y-67749400D03*
%TO.P,U1,26*%
%TO.N,N/C*%
X128072000Y-67749400D03*
%TO.P,U1,27*%
%TO.N,3.3v*%
X125532000Y-67749400D03*
%TO.P,U1,28*%
%TO.N,/FRST*%
X122992000Y-67749400D03*
%TD*%
D11*
%TO.P,PI1,1*%
%TO.N,3.3v*%
X117912000Y-85529400D03*
D10*
%TO.P,PI1,2*%
%TO.N,/5v*%
X117912000Y-82989400D03*
%TO.P,PI1,3*%
%TO.N,N/C*%
X120452000Y-85529400D03*
%TO.P,PI1,4*%
%TO.N,/5v*%
X120452000Y-82989400D03*
%TO.P,PI1,5*%
%TO.N,N/C*%
X122992000Y-85529400D03*
%TO.P,PI1,6*%
%TO.N,GND*%
X122992000Y-82989400D03*
%TO.P,PI1,7*%
%TO.N,/GPIO4*%
X125532000Y-85529400D03*
%TO.P,PI1,8*%
%TO.N,/RX*%
X125532000Y-82989400D03*
%TO.P,PI1,9*%
%TO.N,GND*%
X128072000Y-85529400D03*
%TO.P,PI1,10*%
%TO.N,/TX*%
X128072000Y-82989400D03*
%TO.P,PI1,11*%
%TO.N,/F5*%
X130612000Y-85529400D03*
%TO.P,PI1,12*%
%TO.N,/GPIO18*%
X130612000Y-82989400D03*
%TO.P,PI1,13*%
%TO.N,/F6*%
X133152000Y-85529400D03*
%TO.P,PI1,14*%
%TO.N,GND*%
X133152000Y-82989400D03*
%TO.P,PI1,15*%
%TO.N,/F9*%
X135692000Y-85529400D03*
%TO.P,PI1,16*%
%TO.N,/GPIO23*%
X135692000Y-82989400D03*
%TO.P,PI1,17*%
%TO.N,3.3v*%
X138232000Y-85529400D03*
%TO.P,PI1,18*%
%TO.N,/F11*%
X138232000Y-82989400D03*
%TO.P,PI1,19*%
%TO.N,/MOSI*%
X140772000Y-85529400D03*
%TO.P,PI1,20*%
%TO.N,GND*%
X140772000Y-82989400D03*
%TO.P,PI1,21*%
%TO.N,/MISO*%
X143312000Y-85529400D03*
%TO.P,PI1,22*%
%TO.N,/F12*%
X143312000Y-82989400D03*
%TO.P,PI1,23*%
%TO.N,/SCK*%
X145852000Y-85529400D03*
%TO.P,PI1,24*%
%TO.N,/F13*%
X145852000Y-82989400D03*
%TO.P,PI1,25*%
%TO.N,GND*%
X148392000Y-85529400D03*
%TO.P,PI1,26*%
%TO.N,N/C*%
X148392000Y-82989400D03*
%TO.P,PI1,27*%
X150932000Y-85529400D03*
%TO.P,PI1,28*%
X150932000Y-82989400D03*
%TO.P,PI1,29*%
%TO.N,/GPIO5*%
X153472000Y-85529400D03*
%TO.P,PI1,30*%
%TO.N,GND*%
X153472000Y-82989400D03*
%TO.P,PI1,31*%
%TO.N,/GPIO6*%
X156012000Y-85529400D03*
%TO.P,PI1,32*%
%TO.N,/GPIO12*%
X156012000Y-82989400D03*
%TO.P,PI1,33*%
%TO.N,/GPIO13*%
X158552000Y-85529400D03*
%TO.P,PI1,34*%
%TO.N,GND*%
X158552000Y-82989400D03*
%TO.P,PI1,35*%
%TO.N,/GPIO19*%
X161092000Y-85529400D03*
%TO.P,PI1,36*%
%TO.N,/GPIO16*%
X161092000Y-82989400D03*
%TO.P,PI1,37*%
%TO.N,/GPIO26*%
X163632000Y-85529400D03*
%TO.P,PI1,38*%
%TO.N,/GPIO20*%
X163632000Y-82989400D03*
%TO.P,PI1,39*%
%TO.N,GND*%
X166172000Y-85529400D03*
%TO.P,PI1,40*%
%TO.N,/GPIO21*%
X166172000Y-82989400D03*
%TD*%
D13*
%TO.P,J1,12*%
%TO.N,/MISO*%
X171252000Y-75369400D03*
%TO.P,J1,11*%
%TO.N,/MOSI*%
X171252000Y-72829400D03*
%TO.P,J1,10*%
%TO.N,/SCK*%
X171252000Y-70289400D03*
%TO.P,J1,9*%
%TO.N,GND*%
X171252000Y-67749400D03*
%TO.P,J1,8*%
%TO.N,3.3v*%
X171252000Y-65209400D03*
%TO.P,J1,7*%
%TO.N,/FRST*%
X171252000Y-62669400D03*
%TO.P,J1,6*%
%TO.N,/A0*%
X171252000Y-60129400D03*
%TO.P,J1,5*%
%TO.N,/A1*%
X171252000Y-57589400D03*
%TO.P,J1,4*%
%TO.N,/A2*%
X171252000Y-55049400D03*
%TO.P,J1,3*%
%TO.N,/A3*%
X171252000Y-52509400D03*
%TO.P,J1,2*%
%TO.N,/A4*%
X171252000Y-49969400D03*
D14*
%TO.P,J1,1*%
%TO.N,/A5*%
X171252000Y-47429400D03*
%TD*%
%TO.P,J2,1*%
%TO.N,/GPIO4*%
X112832000Y-47429400D03*
D13*
%TO.P,J2,2*%
%TO.N,/GPIO5*%
X112832000Y-49969400D03*
%TO.P,J2,3*%
%TO.N,/GPIO6*%
X112832000Y-52509400D03*
%TO.P,J2,4*%
%TO.N,/GPIO12*%
X112832000Y-55049400D03*
%TO.P,J2,5*%
%TO.N,/GPIO13*%
X112832000Y-57589400D03*
%TO.P,J2,6*%
%TO.N,/GPIO16*%
X112832000Y-60129400D03*
%TO.P,J2,7*%
%TO.N,/GPIO18*%
X112832000Y-62669400D03*
%TO.P,J2,8*%
%TO.N,/GPIO19*%
X112832000Y-65209400D03*
%TO.P,J2,9*%
%TO.N,/GPIO20*%
X112832000Y-67749400D03*
%TO.P,J2,10*%
%TO.N,/GPIO21*%
X112832000Y-70289400D03*
%TO.P,J2,11*%
%TO.N,/GPIO23*%
X112832000Y-72829400D03*
%TO.P,J2,12*%
%TO.N,/GPIO26*%
X112832000Y-75369400D03*
%TD*%
D15*
%TO.N,3.3v*%
X138212500Y-88600000D03*
X136559800Y-75659000D03*
%TO.N,/TX*%
X157818700Y-80617600D03*
%TO.N,/MISO*%
X142968300Y-71111000D03*
%TO.N,/MOSI*%
X142757800Y-76762900D03*
X146807800Y-86672800D03*
X151451200Y-73896700D03*
%TO.N,/SCK*%
X143539900Y-89771600D03*
%TO.N,/A0*%
X153438600Y-56660500D03*
%TO.N,/GPIO4*%
X126102400Y-77183900D03*
%TO.N,/GPIO5*%
X131859900Y-81392300D03*
%TO.N,/GPIO6*%
X122080700Y-95977500D03*
%TO.N,/GPIO12*%
X129262600Y-80888100D03*
%TO.N,/GPIO13*%
X126228400Y-80367700D03*
%TO.N,/GPIO16*%
X152640600Y-53549500D03*
%TO.N,/GPIO18*%
X119415100Y-68957600D03*
X133340500Y-87130000D03*
%TO.N,/GPIO19*%
X115397500Y-87385800D03*
X160529700Y-79564600D03*
X123864700Y-78546400D03*
%TO.N,/GPIO20*%
X121753400Y-79392500D03*
%TO.N,/GPIO21*%
X120981700Y-77908000D03*
%TO.N,/GPIO23*%
X132270300Y-75011100D03*
X118195300Y-75011100D03*
%TO.N,/F9*%
X128913100Y-71087500D03*
X148392000Y-88074900D03*
%TD*%
D16*
%TO.N,GND*%
X154742000Y-92593800D02*
X154742000Y-94142800D01*
X154742000Y-94142800D02*
X155529900Y-94930700D01*
X155529900Y-94930700D02*
X159945700Y-94930700D01*
X159945700Y-94930700D02*
X161092000Y-93784400D01*
X156012000Y-91244400D02*
X154742000Y-92514400D01*
X154742000Y-92514400D02*
X154742000Y-92593800D01*
X154742000Y-92593800D02*
X152122600Y-92593800D01*
X152122600Y-92593800D02*
X150932000Y-93784400D01*
X140772000Y-82989400D02*
X140772000Y-77909400D01*
X140772000Y-77909400D02*
X130612000Y-67749400D01*
X130612000Y-93784400D02*
X129432700Y-94963700D01*
X129432700Y-94963700D02*
X126711300Y-94963700D01*
X126711300Y-94963700D02*
X125532000Y-93784400D01*
X171252000Y-68980700D02*
X170790200Y-68980700D01*
X170790200Y-68980700D02*
X169512400Y-70258500D01*
X169512400Y-70258500D02*
X169512400Y-82189000D01*
X169512400Y-82189000D02*
X166172000Y-85529400D01*
X157155400Y-84180000D02*
X157155400Y-90101000D01*
X157155400Y-90101000D02*
X156012000Y-91244400D01*
X157155400Y-84180000D02*
X157361400Y-84180000D01*
X157361400Y-84180000D02*
X158552000Y-82989400D01*
X153472000Y-82989400D02*
X154662600Y-84180000D01*
X154662600Y-84180000D02*
X157155400Y-84180000D01*
X171252000Y-67749400D02*
X171252000Y-68980700D01*
%TO.N,3.3v*%
X136559800Y-75659000D02*
X134652400Y-75659000D01*
X134652400Y-75659000D02*
X128750000Y-69756600D01*
X128750000Y-69756600D02*
X127539200Y-69756600D01*
X127539200Y-69756600D02*
X125532000Y-67749400D01*
X138232000Y-85529400D02*
X136964200Y-84261600D01*
X136964200Y-84261600D02*
X136964200Y-76063400D01*
X136964200Y-76063400D02*
X136559800Y-75659000D01*
X166172000Y-91244400D02*
X166172000Y-90101100D01*
X171252000Y-65209400D02*
X171252000Y-66440700D01*
X171252000Y-66440700D02*
X170790300Y-66440700D01*
X170790300Y-66440700D02*
X165028700Y-72202300D01*
X165028700Y-72202300D02*
X165028700Y-88957800D01*
X165028700Y-88957800D02*
X166172000Y-90101100D01*
X138232000Y-85529400D02*
X138232000Y-88580500D01*
X138232000Y-88580500D02*
X138212500Y-88600000D01*
%TO.N,/5v*%
X138232000Y-47429400D02*
X139903200Y-45758200D01*
X139903200Y-45758200D02*
X143268700Y-45758200D01*
X143268700Y-45758200D02*
X144582200Y-47071700D01*
X144582200Y-47071700D02*
X144582200Y-47816500D01*
X144582200Y-47816500D02*
X145351400Y-48585700D01*
X145351400Y-48585700D02*
X151403600Y-48585700D01*
X151403600Y-48585700D02*
X152202100Y-47787200D01*
X152202100Y-47787200D02*
X152202100Y-46992500D01*
X152202100Y-46992500D02*
X152933000Y-46261600D01*
X152933000Y-46261600D02*
X156493100Y-46261600D01*
X156493100Y-46261600D02*
X157282000Y-47050500D01*
X157282000Y-47050500D02*
X157282000Y-47811600D01*
X157282000Y-47811600D02*
X168329800Y-58859400D01*
X168329800Y-58859400D02*
X171724900Y-58859400D01*
X171724900Y-58859400D02*
X172489900Y-59624400D01*
X172489900Y-59624400D02*
X172489900Y-87466500D01*
X172489900Y-87466500D02*
X166172000Y-93784400D01*
X163632000Y-93784400D02*
X166172000Y-93784400D01*
%TO.N,/TX*%
X156012000Y-93784400D02*
X157282000Y-92514400D01*
X157282000Y-92514400D02*
X158900600Y-92514400D01*
X158900600Y-92514400D02*
X159717900Y-91697100D01*
X159717900Y-91697100D02*
X159717900Y-82516800D01*
X159717900Y-82516800D02*
X157818700Y-80617600D01*
%TO.N,/MISO*%
X142968300Y-71111000D02*
X144503200Y-72645900D01*
X144503200Y-72645900D02*
X144503200Y-83415100D01*
X144503200Y-83415100D02*
X143312000Y-84606300D01*
X143312000Y-84606300D02*
X143312000Y-85529400D01*
X140772000Y-91244400D02*
X140772000Y-88069400D01*
X140772000Y-88069400D02*
X143312000Y-85529400D01*
%TO.N,/MOSI*%
X140772000Y-85529400D02*
X140772000Y-84708400D01*
X140772000Y-84708400D02*
X142168600Y-83311800D01*
X142168600Y-83311800D02*
X142168600Y-77352100D01*
X142168600Y-77352100D02*
X142757800Y-76762900D01*
X143312000Y-91244400D02*
X146807800Y-87748600D01*
X146807800Y-87748600D02*
X146807800Y-86672800D01*
X151451200Y-73896700D02*
X151451200Y-68268600D01*
X151451200Y-68268600D02*
X150932000Y-67749400D01*
%TO.N,/SCK*%
X145852000Y-85529400D02*
X145852000Y-87459500D01*
X145852000Y-87459500D02*
X143539900Y-89771600D01*
X148392000Y-67749400D02*
X146997600Y-69143800D01*
X146997600Y-69143800D02*
X146997600Y-84383800D01*
X146997600Y-84383800D02*
X145852000Y-85529400D01*
%TO.N,/A0*%
X171252000Y-60129400D02*
X156907500Y-60129400D01*
X156907500Y-60129400D02*
X153438600Y-56660500D01*
%TO.N,/GPIO4*%
X125532000Y-85529400D02*
X126717900Y-84343500D01*
X126717900Y-84343500D02*
X126717900Y-81046100D01*
X126717900Y-81046100D02*
X127054200Y-80709800D01*
X127054200Y-80709800D02*
X127054200Y-78135700D01*
X127054200Y-78135700D02*
X126102400Y-77183900D01*
X126102400Y-77183900D02*
X125754600Y-77183900D01*
X125754600Y-77183900D02*
X115807400Y-67236700D01*
X115807400Y-67236700D02*
X115807400Y-58743700D01*
X115807400Y-58743700D02*
X113383100Y-56319400D01*
X113383100Y-56319400D02*
X112352300Y-56319400D01*
X112352300Y-56319400D02*
X111592100Y-55559200D01*
X111592100Y-55559200D02*
X111592100Y-49438900D01*
X111592100Y-49438900D02*
X112370300Y-48660700D01*
X112370300Y-48660700D02*
X112832000Y-48660700D01*
X112832000Y-47429400D02*
X112832000Y-48660700D01*
%TO.N,/GPIO5*%
X131804700Y-81392300D02*
X131859900Y-81392300D01*
X131804700Y-81392300D02*
X131804700Y-90051700D01*
X131804700Y-90051700D02*
X130612000Y-91244400D01*
X112832000Y-51200700D02*
X113293700Y-51200700D01*
X113293700Y-51200700D02*
X124180700Y-62087700D01*
X124180700Y-62087700D02*
X124180700Y-69024500D01*
X124180700Y-69024500D02*
X131804700Y-76648500D01*
X131804700Y-76648500D02*
X131804700Y-81392300D01*
X112832000Y-49969400D02*
X112832000Y-51200700D01*
%TO.N,/GPIO6*%
X122080700Y-95977500D02*
X122465900Y-95977500D01*
X122465900Y-95977500D02*
X124341600Y-94101800D01*
X124341600Y-94101800D02*
X124341600Y-93309400D01*
X124341600Y-93309400D02*
X125136600Y-92514400D01*
X125136600Y-92514400D02*
X126802000Y-92514400D01*
X126802000Y-92514400D02*
X128072000Y-91244400D01*
%TO.N,/GPIO12*%
X129262600Y-80888100D02*
X129262500Y-80888100D01*
X129262500Y-80888100D02*
X129262500Y-79176100D01*
X129262500Y-79176100D02*
X120109000Y-70022600D01*
X120109000Y-70022600D02*
X119312100Y-70022600D01*
X119312100Y-70022600D02*
X116476500Y-67187000D01*
X116476500Y-67187000D02*
X116476500Y-58693900D01*
X116476500Y-58693900D02*
X112832000Y-55049400D01*
X129262600Y-80888100D02*
X129262600Y-92593800D01*
X129262600Y-92593800D02*
X128072000Y-93784400D01*
%TO.N,/GPIO13*%
X124699800Y-80367700D02*
X124699800Y-76847900D01*
X124699800Y-76847900D02*
X114063300Y-66211400D01*
X114063300Y-66211400D02*
X114063300Y-59590200D01*
X114063300Y-59590200D02*
X113293800Y-58820700D01*
X113293800Y-58820700D02*
X112832000Y-58820700D01*
X125532000Y-91244400D02*
X124371400Y-90083800D01*
X124371400Y-90083800D02*
X124371400Y-80696100D01*
X124371400Y-80696100D02*
X124699800Y-80367700D01*
X124699800Y-80367700D02*
X126228400Y-80367700D01*
X112832000Y-57589400D02*
X112832000Y-58820700D01*
%TO.N,/GPIO16*%
X112832000Y-60129400D02*
X112832000Y-61360700D01*
X112832000Y-61360700D02*
X112370300Y-61360700D01*
X112370300Y-61360700D02*
X111580100Y-62150900D01*
X111580100Y-62150900D02*
X111580100Y-89102400D01*
X111580100Y-89102400D02*
X117936400Y-95458700D01*
X117936400Y-95458700D02*
X121317700Y-95458700D01*
X121317700Y-95458700D02*
X122992000Y-93784400D01*
X152640600Y-53549500D02*
X152569400Y-53620700D01*
X152569400Y-53620700D02*
X152569400Y-56983400D01*
X152569400Y-56983400D02*
X159695400Y-64109400D01*
X159695400Y-64109400D02*
X159695400Y-81592800D01*
X159695400Y-81592800D02*
X161092000Y-82989400D01*
%TO.N,/GPIO18*%
X119415100Y-68957600D02*
X119765900Y-68957600D01*
X119765900Y-68957600D02*
X130612000Y-79803700D01*
X130612000Y-79803700D02*
X130612000Y-82989400D01*
X153472000Y-93784400D02*
X150688400Y-96568000D01*
X150688400Y-96568000D02*
X134255400Y-96568000D01*
X134255400Y-96568000D02*
X131973200Y-94285800D01*
X131973200Y-94285800D02*
X131973200Y-90806300D01*
X131973200Y-90806300D02*
X133340500Y-89439000D01*
X133340500Y-89439000D02*
X133340500Y-87130000D01*
%TO.N,/GPIO19*%
X112832000Y-66440700D02*
X113282500Y-66440700D01*
X113282500Y-66440700D02*
X123864700Y-77022900D01*
X123864700Y-77022900D02*
X123864700Y-78546400D01*
X115397500Y-87385800D02*
X115717400Y-87385800D01*
X115717400Y-87385800D02*
X119182000Y-90850400D01*
X119182000Y-90850400D02*
X119182000Y-94187300D01*
X119182000Y-94187300D02*
X119939500Y-94944800D01*
X119939500Y-94944800D02*
X120908600Y-94944800D01*
X120908600Y-94944800D02*
X121595400Y-94258000D01*
X121595400Y-94258000D02*
X121595400Y-93462000D01*
X121595400Y-93462000D02*
X122992000Y-92065400D01*
X122992000Y-92065400D02*
X122992000Y-91244400D01*
X161092000Y-85529400D02*
X162282600Y-84338800D01*
X162282600Y-84338800D02*
X162282600Y-81317500D01*
X162282600Y-81317500D02*
X160529700Y-79564600D01*
X112832000Y-65209400D02*
X112832000Y-66440700D01*
%TO.N,/GPIO20*%
X121753400Y-79392500D02*
X121807500Y-79338400D01*
X121807500Y-79338400D02*
X121807500Y-76724900D01*
X121807500Y-76724900D02*
X114063300Y-68980700D01*
X114063300Y-68980700D02*
X112832000Y-68980700D01*
X121753400Y-79392500D02*
X121753400Y-92483000D01*
X121753400Y-92483000D02*
X120452000Y-93784400D01*
X112832000Y-67749400D02*
X112832000Y-68980700D01*
%TO.N,/GPIO21*%
X120981700Y-77908000D02*
X120981700Y-76629500D01*
X120981700Y-76629500D02*
X114641600Y-70289400D01*
X114641600Y-70289400D02*
X112832000Y-70289400D01*
%TO.N,/GPIO23*%
X112832000Y-72829400D02*
X114063300Y-72829400D01*
X135692000Y-82989400D02*
X135692000Y-78432800D01*
X135692000Y-78432800D02*
X132270300Y-75011100D01*
X114063300Y-72829400D02*
X116245000Y-75011100D01*
X116245000Y-75011100D02*
X118195300Y-75011100D01*
X135692000Y-82989400D02*
X135692000Y-83708400D01*
X135692000Y-83708400D02*
X136838300Y-84854700D01*
X136838300Y-84854700D02*
X136838300Y-87204100D01*
X136838300Y-87204100D02*
X134506300Y-89536100D01*
X134506300Y-89536100D02*
X134506300Y-94244600D01*
X134506300Y-94244600D02*
X136265600Y-96003900D01*
X136265600Y-96003900D02*
X146172500Y-96003900D01*
X146172500Y-96003900D02*
X148392000Y-93784400D01*
%TO.N,/GPIO26*%
X112832000Y-75369400D02*
X112832000Y-76600700D01*
X112832000Y-76600700D02*
X112832000Y-83624400D01*
X112832000Y-83624400D02*
X120452000Y-91244400D01*
%TO.N,/F5*%
X153472000Y-91244400D02*
X154615300Y-90101100D01*
X154615300Y-90101100D02*
X154615300Y-85055800D01*
X154615300Y-85055800D02*
X153741700Y-84182200D01*
X153741700Y-84182200D02*
X153035100Y-84182200D01*
X153035100Y-84182200D02*
X152328600Y-83475700D01*
X152328600Y-83475700D02*
X152328600Y-62475600D01*
X152328600Y-62475600D02*
X151814700Y-61961700D01*
X151814700Y-61961700D02*
X151814700Y-51626700D01*
X151814700Y-51626700D02*
X156012000Y-47429400D01*
%TO.N,/F6*%
X150932000Y-91244400D02*
X149788600Y-90101000D01*
X149788600Y-90101000D02*
X149788600Y-55747800D01*
X149788600Y-55747800D02*
X151216500Y-54319900D01*
X151216500Y-54319900D02*
X151216500Y-49684900D01*
X151216500Y-49684900D02*
X153472000Y-47429400D01*
%TO.N,/F9*%
X135692000Y-85529400D02*
X134422000Y-84259400D01*
X134422000Y-84259400D02*
X134422000Y-78546800D01*
X134422000Y-78546800D02*
X128913100Y-73037900D01*
X128913100Y-73037900D02*
X128913100Y-71087500D01*
X148392000Y-91244400D02*
X148392000Y-88074900D01*
%TO.N,/F11*%
X138232000Y-82989400D02*
X138232000Y-76163300D01*
X138232000Y-76163300D02*
X131391600Y-69322900D01*
X131391600Y-69322900D02*
X130496000Y-69322900D01*
X130496000Y-69322900D02*
X129418000Y-68244900D01*
X129418000Y-68244900D02*
X129418000Y-57853700D01*
X129418000Y-57853700D02*
X136962000Y-50309700D01*
X136962000Y-50309700D02*
X136962000Y-47053600D01*
X136962000Y-47053600D02*
X138766000Y-45249600D01*
X138766000Y-45249600D02*
X143672200Y-45249600D01*
X143672200Y-45249600D02*
X145852000Y-47429400D01*
X145852000Y-93784400D02*
X144150100Y-95486300D01*
X144150100Y-95486300D02*
X138291700Y-95486300D01*
X138291700Y-95486300D02*
X137045100Y-94239700D01*
X137045100Y-94239700D02*
X137045100Y-90775300D01*
X137045100Y-90775300D02*
X137918000Y-89902400D01*
X137918000Y-89902400D02*
X138082000Y-89902400D01*
X138082000Y-89902400D02*
X139081200Y-88903200D01*
X139081200Y-88903200D02*
X139081200Y-88156000D01*
X139081200Y-88156000D02*
X139385300Y-87851900D01*
X139385300Y-87851900D02*
X139385300Y-84142700D01*
X139385300Y-84142700D02*
X138232000Y-82989400D01*
%TO.N,/F12*%
X143312000Y-82989400D02*
X143583600Y-82717800D01*
X143583600Y-82717800D02*
X143583600Y-74335600D01*
X143583600Y-74335600D02*
X139612000Y-70364000D01*
X139612000Y-70364000D02*
X139612000Y-46961400D01*
X139612000Y-46961400D02*
X140306800Y-46266600D01*
X140306800Y-46266600D02*
X142149200Y-46266600D01*
X142149200Y-46266600D02*
X143312000Y-47429400D01*
X140772000Y-93784400D02*
X139628600Y-92641000D01*
X139628600Y-92641000D02*
X139628600Y-88327600D01*
X139628600Y-88327600D02*
X142042000Y-85914200D01*
X142042000Y-85914200D02*
X142042000Y-84259400D01*
X142042000Y-84259400D02*
X143312000Y-82989400D01*
%TO.N,/F13*%
X145852000Y-82989400D02*
X145852000Y-72826900D01*
X145852000Y-72826900D02*
X142042000Y-69016900D01*
X142042000Y-69016900D02*
X142042000Y-48699400D01*
X142042000Y-48699400D02*
X140772000Y-47429400D01*
X145852000Y-82989400D02*
X144582000Y-84259400D01*
X144582000Y-84259400D02*
X144582000Y-86548600D01*
X144582000Y-86548600D02*
X141965400Y-89165200D01*
X141965400Y-89165200D02*
X141965400Y-94254200D01*
X141965400Y-94254200D02*
X141241700Y-94977900D01*
X141241700Y-94977900D02*
X139425500Y-94977900D01*
X139425500Y-94977900D02*
X138232000Y-93784400D01*
%TD*%
%TO.N,GND*%
G36*
X173081881Y-95654690D02*
G01*
X173067875Y-95797529D01*
X173036479Y-95901519D01*
X172985481Y-95997433D01*
X172916821Y-96081619D01*
X172833123Y-96150859D01*
X172737569Y-96202525D01*
X172633802Y-96234647D01*
X172493239Y-96249420D01*
X152084610Y-96249420D01*
X153182789Y-95151241D01*
X153334408Y-95181400D01*
X153609592Y-95181400D01*
X153879490Y-95127714D01*
X154133727Y-95022405D01*
X154362535Y-94869520D01*
X154557120Y-94674935D01*
X154710005Y-94446127D01*
X154742000Y-94368885D01*
X154773995Y-94446127D01*
X154926880Y-94674935D01*
X155121465Y-94869520D01*
X155350273Y-95022405D01*
X155604510Y-95127714D01*
X155874408Y-95181400D01*
X156149592Y-95181400D01*
X156419490Y-95127714D01*
X156673727Y-95022405D01*
X156902535Y-94869520D01*
X157097120Y-94674935D01*
X157250005Y-94446127D01*
X157282000Y-94368885D01*
X157313995Y-94446127D01*
X157466880Y-94674935D01*
X157661465Y-94869520D01*
X157890273Y-95022405D01*
X158144510Y-95127714D01*
X158414408Y-95181400D01*
X158689592Y-95181400D01*
X158959490Y-95127714D01*
X159213727Y-95022405D01*
X159442535Y-94869520D01*
X159562090Y-94749965D01*
X160306040Y-94749965D01*
X160373020Y-94990056D01*
X160622048Y-95107156D01*
X160889135Y-95173423D01*
X161164017Y-95186310D01*
X161436133Y-95145322D01*
X161695023Y-95052036D01*
X161810980Y-94990056D01*
X161877960Y-94749965D01*
X161092000Y-93964005D01*
X160306040Y-94749965D01*
X159562090Y-94749965D01*
X159637120Y-94674935D01*
X159790005Y-94446127D01*
X159819692Y-94374457D01*
X159824364Y-94387423D01*
X159886344Y-94503380D01*
X160126435Y-94570360D01*
X160912395Y-93784400D01*
X160126435Y-92998440D01*
X159886344Y-93065420D01*
X159822515Y-93201160D01*
X159790005Y-93122673D01*
X159637120Y-92893865D01*
X159617943Y-92874688D01*
X160182288Y-92310343D01*
X160201465Y-92329520D01*
X160430273Y-92482405D01*
X160501943Y-92512092D01*
X160488977Y-92516764D01*
X160373020Y-92578744D01*
X160306040Y-92818835D01*
X161092000Y-93604795D01*
X161877960Y-92818835D01*
X161810980Y-92578744D01*
X161675240Y-92514915D01*
X161753727Y-92482405D01*
X161982535Y-92329520D01*
X162177120Y-92134935D01*
X162330005Y-91906127D01*
X162362000Y-91828885D01*
X162393995Y-91906127D01*
X162546880Y-92134935D01*
X162741465Y-92329520D01*
X162970273Y-92482405D01*
X163047515Y-92514400D01*
X162970273Y-92546395D01*
X162741465Y-92699280D01*
X162546880Y-92893865D01*
X162393995Y-93122673D01*
X162364308Y-93194343D01*
X162359636Y-93181377D01*
X162297656Y-93065420D01*
X162057565Y-92998440D01*
X161271605Y-93784400D01*
X162057565Y-94570360D01*
X162297656Y-94503380D01*
X162361485Y-94367640D01*
X162393995Y-94446127D01*
X162546880Y-94674935D01*
X162741465Y-94869520D01*
X162970273Y-95022405D01*
X163224510Y-95127714D01*
X163494408Y-95181400D01*
X163769592Y-95181400D01*
X164039490Y-95127714D01*
X164293727Y-95022405D01*
X164522535Y-94869520D01*
X164717120Y-94674935D01*
X164803005Y-94546400D01*
X165000995Y-94546400D01*
X165086880Y-94674935D01*
X165281465Y-94869520D01*
X165510273Y-95022405D01*
X165764510Y-95127714D01*
X166034408Y-95181400D01*
X166309592Y-95181400D01*
X166579490Y-95127714D01*
X166833727Y-95022405D01*
X167062535Y-94869520D01*
X167257120Y-94674935D01*
X167410005Y-94446127D01*
X167491858Y-94248517D01*
X169517000Y-94248517D01*
X169517000Y-94590283D01*
X169583675Y-94925481D01*
X169714463Y-95241231D01*
X169904337Y-95525398D01*
X170146002Y-95767063D01*
X170430169Y-95956937D01*
X170745919Y-96087725D01*
X171081117Y-96154400D01*
X171422883Y-96154400D01*
X171758081Y-96087725D01*
X172073831Y-95956937D01*
X172357998Y-95767063D01*
X172599663Y-95525398D01*
X172789537Y-95241231D01*
X172920325Y-94925481D01*
X172987000Y-94590283D01*
X172987000Y-94248517D01*
X172920325Y-93913319D01*
X172789537Y-93597569D01*
X172599663Y-93313402D01*
X172357998Y-93071737D01*
X172073831Y-92881863D01*
X171758081Y-92751075D01*
X171422883Y-92684400D01*
X171081117Y-92684400D01*
X170745919Y-92751075D01*
X170430169Y-92881863D01*
X170146002Y-93071737D01*
X169904337Y-93313402D01*
X169714463Y-93597569D01*
X169583675Y-93913319D01*
X169517000Y-94248517D01*
X167491858Y-94248517D01*
X167515314Y-94191890D01*
X167569000Y-93921992D01*
X167569000Y-93646808D01*
X167538841Y-93495189D01*
X173002252Y-88031779D01*
X173031322Y-88007922D01*
X173074693Y-87955074D01*
X173081880Y-87946317D01*
X173081881Y-95654690D01*
G37*
X173081881Y-95654690D02*
X173067875Y-95797529D01*
X173036479Y-95901519D01*
X172985481Y-95997433D01*
X172916821Y-96081619D01*
X172833123Y-96150859D01*
X172737569Y-96202525D01*
X172633802Y-96234647D01*
X172493239Y-96249420D01*
X152084610Y-96249420D01*
X153182789Y-95151241D01*
X153334408Y-95181400D01*
X153609592Y-95181400D01*
X153879490Y-95127714D01*
X154133727Y-95022405D01*
X154362535Y-94869520D01*
X154557120Y-94674935D01*
X154710005Y-94446127D01*
X154742000Y-94368885D01*
X154773995Y-94446127D01*
X154926880Y-94674935D01*
X155121465Y-94869520D01*
X155350273Y-95022405D01*
X155604510Y-95127714D01*
X155874408Y-95181400D01*
X156149592Y-95181400D01*
X156419490Y-95127714D01*
X156673727Y-95022405D01*
X156902535Y-94869520D01*
X157097120Y-94674935D01*
X157250005Y-94446127D01*
X157282000Y-94368885D01*
X157313995Y-94446127D01*
X157466880Y-94674935D01*
X157661465Y-94869520D01*
X157890273Y-95022405D01*
X158144510Y-95127714D01*
X158414408Y-95181400D01*
X158689592Y-95181400D01*
X158959490Y-95127714D01*
X159213727Y-95022405D01*
X159442535Y-94869520D01*
X159562090Y-94749965D01*
X160306040Y-94749965D01*
X160373020Y-94990056D01*
X160622048Y-95107156D01*
X160889135Y-95173423D01*
X161164017Y-95186310D01*
X161436133Y-95145322D01*
X161695023Y-95052036D01*
X161810980Y-94990056D01*
X161877960Y-94749965D01*
X161092000Y-93964005D01*
X160306040Y-94749965D01*
X159562090Y-94749965D01*
X159637120Y-94674935D01*
X159790005Y-94446127D01*
X159819692Y-94374457D01*
X159824364Y-94387423D01*
X159886344Y-94503380D01*
X160126435Y-94570360D01*
X160912395Y-93784400D01*
X160126435Y-92998440D01*
X159886344Y-93065420D01*
X159822515Y-93201160D01*
X159790005Y-93122673D01*
X159637120Y-92893865D01*
X159617943Y-92874688D01*
X160182288Y-92310343D01*
X160201465Y-92329520D01*
X160430273Y-92482405D01*
X160501943Y-92512092D01*
X160488977Y-92516764D01*
X160373020Y-92578744D01*
X160306040Y-92818835D01*
X161092000Y-93604795D01*
X161877960Y-92818835D01*
X161810980Y-92578744D01*
X161675240Y-92514915D01*
X161753727Y-92482405D01*
X161982535Y-92329520D01*
X162177120Y-92134935D01*
X162330005Y-91906127D01*
X162362000Y-91828885D01*
X162393995Y-91906127D01*
X162546880Y-92134935D01*
X162741465Y-92329520D01*
X162970273Y-92482405D01*
X163047515Y-92514400D01*
X162970273Y-92546395D01*
X162741465Y-92699280D01*
X162546880Y-92893865D01*
X162393995Y-93122673D01*
X162364308Y-93194343D01*
X162359636Y-93181377D01*
X162297656Y-93065420D01*
X162057565Y-92998440D01*
X161271605Y-93784400D01*
X162057565Y-94570360D01*
X162297656Y-94503380D01*
X162361485Y-94367640D01*
X162393995Y-94446127D01*
X162546880Y-94674935D01*
X162741465Y-94869520D01*
X162970273Y-95022405D01*
X163224510Y-95127714D01*
X163494408Y-95181400D01*
X163769592Y-95181400D01*
X164039490Y-95127714D01*
X164293727Y-95022405D01*
X164522535Y-94869520D01*
X164717120Y-94674935D01*
X164803005Y-94546400D01*
X165000995Y-94546400D01*
X165086880Y-94674935D01*
X165281465Y-94869520D01*
X165510273Y-95022405D01*
X165764510Y-95127714D01*
X166034408Y-95181400D01*
X166309592Y-95181400D01*
X166579490Y-95127714D01*
X166833727Y-95022405D01*
X167062535Y-94869520D01*
X167257120Y-94674935D01*
X167410005Y-94446127D01*
X167491858Y-94248517D01*
X169517000Y-94248517D01*
X169517000Y-94590283D01*
X169583675Y-94925481D01*
X169714463Y-95241231D01*
X169904337Y-95525398D01*
X170146002Y-95767063D01*
X170430169Y-95956937D01*
X170745919Y-96087725D01*
X171081117Y-96154400D01*
X171422883Y-96154400D01*
X171758081Y-96087725D01*
X172073831Y-95956937D01*
X172357998Y-95767063D01*
X172599663Y-95525398D01*
X172789537Y-95241231D01*
X172920325Y-94925481D01*
X172987000Y-94590283D01*
X172987000Y-94248517D01*
X172920325Y-93913319D01*
X172789537Y-93597569D01*
X172599663Y-93313402D01*
X172357998Y-93071737D01*
X172073831Y-92881863D01*
X171758081Y-92751075D01*
X171422883Y-92684400D01*
X171081117Y-92684400D01*
X170745919Y-92751075D01*
X170430169Y-92881863D01*
X170146002Y-93071737D01*
X169904337Y-93313402D01*
X169714463Y-93597569D01*
X169583675Y-93913319D01*
X169517000Y-94248517D01*
X167491858Y-94248517D01*
X167515314Y-94191890D01*
X167569000Y-93921992D01*
X167569000Y-93646808D01*
X167538841Y-93495189D01*
X173002252Y-88031779D01*
X173031322Y-88007922D01*
X173074693Y-87955074D01*
X173081880Y-87946317D01*
X173081881Y-95654690D01*
G36*
X130805748Y-93770258D02*
G01*
X130791605Y-93784400D01*
X130805748Y-93798543D01*
X130626143Y-93978148D01*
X130612000Y-93964005D01*
X129826040Y-94749965D01*
X129893020Y-94990056D01*
X130142048Y-95107156D01*
X130409135Y-95173423D01*
X130684017Y-95186310D01*
X130956133Y-95145322D01*
X131215023Y-95052036D01*
X131330980Y-94990056D01*
X131390455Y-94776869D01*
X131431778Y-94827222D01*
X131460854Y-94851084D01*
X132859189Y-96249420D01*
X123271610Y-96249420D01*
X124751499Y-94769532D01*
X124813020Y-94990056D01*
X125062048Y-95107156D01*
X125329135Y-95173423D01*
X125604017Y-95186310D01*
X125876133Y-95145322D01*
X126135023Y-95052036D01*
X126250980Y-94990056D01*
X126317960Y-94749965D01*
X125532000Y-93964005D01*
X125517858Y-93978148D01*
X125338253Y-93798543D01*
X125352395Y-93784400D01*
X125338253Y-93770258D01*
X125517858Y-93590653D01*
X125532000Y-93604795D01*
X125546143Y-93590653D01*
X125725748Y-93770258D01*
X125711605Y-93784400D01*
X126497565Y-94570360D01*
X126737656Y-94503380D01*
X126801485Y-94367640D01*
X126833995Y-94446127D01*
X126986880Y-94674935D01*
X127181465Y-94869520D01*
X127410273Y-95022405D01*
X127664510Y-95127714D01*
X127934408Y-95181400D01*
X128209592Y-95181400D01*
X128479490Y-95127714D01*
X128733727Y-95022405D01*
X128962535Y-94869520D01*
X129157120Y-94674935D01*
X129310005Y-94446127D01*
X129339692Y-94374457D01*
X129344364Y-94387423D01*
X129406344Y-94503380D01*
X129646435Y-94570360D01*
X130432395Y-93784400D01*
X130418253Y-93770258D01*
X130597858Y-93590653D01*
X130612000Y-93604795D01*
X130626143Y-93590653D01*
X130805748Y-93770258D01*
G37*
X130805748Y-93770258D02*
X130791605Y-93784400D01*
X130805748Y-93798543D01*
X130626143Y-93978148D01*
X130612000Y-93964005D01*
X129826040Y-94749965D01*
X129893020Y-94990056D01*
X130142048Y-95107156D01*
X130409135Y-95173423D01*
X130684017Y-95186310D01*
X130956133Y-95145322D01*
X131215023Y-95052036D01*
X131330980Y-94990056D01*
X131390455Y-94776869D01*
X131431778Y-94827222D01*
X131460854Y-94851084D01*
X132859189Y-96249420D01*
X123271610Y-96249420D01*
X124751499Y-94769532D01*
X124813020Y-94990056D01*
X125062048Y-95107156D01*
X125329135Y-95173423D01*
X125604017Y-95186310D01*
X125876133Y-95145322D01*
X126135023Y-95052036D01*
X126250980Y-94990056D01*
X126317960Y-94749965D01*
X125532000Y-93964005D01*
X125517858Y-93978148D01*
X125338253Y-93798543D01*
X125352395Y-93784400D01*
X125338253Y-93770258D01*
X125517858Y-93590653D01*
X125532000Y-93604795D01*
X125546143Y-93590653D01*
X125725748Y-93770258D01*
X125711605Y-93784400D01*
X126497565Y-94570360D01*
X126737656Y-94503380D01*
X126801485Y-94367640D01*
X126833995Y-94446127D01*
X126986880Y-94674935D01*
X127181465Y-94869520D01*
X127410273Y-95022405D01*
X127664510Y-95127714D01*
X127934408Y-95181400D01*
X128209592Y-95181400D01*
X128479490Y-95127714D01*
X128733727Y-95022405D01*
X128962535Y-94869520D01*
X129157120Y-94674935D01*
X129310005Y-94446127D01*
X129339692Y-94374457D01*
X129344364Y-94387423D01*
X129406344Y-94503380D01*
X129646435Y-94570360D01*
X130432395Y-93784400D01*
X130418253Y-93770258D01*
X130597858Y-93590653D01*
X130612000Y-93604795D01*
X130626143Y-93590653D01*
X130805748Y-93770258D01*
G36*
X152233995Y-91906127D02*
G01*
X152386880Y-92134935D01*
X152581465Y-92329520D01*
X152810273Y-92482405D01*
X152887515Y-92514400D01*
X152810273Y-92546395D01*
X152581465Y-92699280D01*
X152386880Y-92893865D01*
X152233995Y-93122673D01*
X152204308Y-93194343D01*
X152199636Y-93181377D01*
X152137656Y-93065420D01*
X151897565Y-92998440D01*
X151111605Y-93784400D01*
X151125748Y-93798543D01*
X150946143Y-93978148D01*
X150932000Y-93964005D01*
X150146040Y-94749965D01*
X150213020Y-94990056D01*
X150462048Y-95107156D01*
X150729135Y-95173423D01*
X150992977Y-95185792D01*
X150372770Y-95806000D01*
X147448030Y-95806000D01*
X148102789Y-95151241D01*
X148254408Y-95181400D01*
X148529592Y-95181400D01*
X148799490Y-95127714D01*
X149053727Y-95022405D01*
X149282535Y-94869520D01*
X149477120Y-94674935D01*
X149630005Y-94446127D01*
X149659692Y-94374457D01*
X149664364Y-94387423D01*
X149726344Y-94503380D01*
X149966435Y-94570360D01*
X150752395Y-93784400D01*
X149966435Y-92998440D01*
X149726344Y-93065420D01*
X149662515Y-93201160D01*
X149630005Y-93122673D01*
X149477120Y-92893865D01*
X149282535Y-92699280D01*
X149053727Y-92546395D01*
X148976485Y-92514400D01*
X149053727Y-92482405D01*
X149282535Y-92329520D01*
X149477120Y-92134935D01*
X149630005Y-91906127D01*
X149662000Y-91828885D01*
X149693995Y-91906127D01*
X149846880Y-92134935D01*
X150041465Y-92329520D01*
X150270273Y-92482405D01*
X150341943Y-92512092D01*
X150328977Y-92516764D01*
X150213020Y-92578744D01*
X150146040Y-92818835D01*
X150932000Y-93604795D01*
X151717960Y-92818835D01*
X151650980Y-92578744D01*
X151515240Y-92514915D01*
X151593727Y-92482405D01*
X151822535Y-92329520D01*
X152017120Y-92134935D01*
X152170005Y-91906127D01*
X152202000Y-91828885D01*
X152233995Y-91906127D01*
G37*
X152233995Y-91906127D02*
X152386880Y-92134935D01*
X152581465Y-92329520D01*
X152810273Y-92482405D01*
X152887515Y-92514400D01*
X152810273Y-92546395D01*
X152581465Y-92699280D01*
X152386880Y-92893865D01*
X152233995Y-93122673D01*
X152204308Y-93194343D01*
X152199636Y-93181377D01*
X152137656Y-93065420D01*
X151897565Y-92998440D01*
X151111605Y-93784400D01*
X151125748Y-93798543D01*
X150946143Y-93978148D01*
X150932000Y-93964005D01*
X150146040Y-94749965D01*
X150213020Y-94990056D01*
X150462048Y-95107156D01*
X150729135Y-95173423D01*
X150992977Y-95185792D01*
X150372770Y-95806000D01*
X147448030Y-95806000D01*
X148102789Y-95151241D01*
X148254408Y-95181400D01*
X148529592Y-95181400D01*
X148799490Y-95127714D01*
X149053727Y-95022405D01*
X149282535Y-94869520D01*
X149477120Y-94674935D01*
X149630005Y-94446127D01*
X149659692Y-94374457D01*
X149664364Y-94387423D01*
X149726344Y-94503380D01*
X149966435Y-94570360D01*
X150752395Y-93784400D01*
X149966435Y-92998440D01*
X149726344Y-93065420D01*
X149662515Y-93201160D01*
X149630005Y-93122673D01*
X149477120Y-92893865D01*
X149282535Y-92699280D01*
X149053727Y-92546395D01*
X148976485Y-92514400D01*
X149053727Y-92482405D01*
X149282535Y-92329520D01*
X149477120Y-92134935D01*
X149630005Y-91906127D01*
X149662000Y-91828885D01*
X149693995Y-91906127D01*
X149846880Y-92134935D01*
X150041465Y-92329520D01*
X150270273Y-92482405D01*
X150341943Y-92512092D01*
X150328977Y-92516764D01*
X150213020Y-92578744D01*
X150146040Y-92818835D01*
X150932000Y-93604795D01*
X151717960Y-92818835D01*
X151650980Y-92578744D01*
X151515240Y-92514915D01*
X151593727Y-92482405D01*
X151822535Y-92329520D01*
X152017120Y-92134935D01*
X152170005Y-91906127D01*
X152202000Y-91828885D01*
X152233995Y-91906127D01*
G36*
X144613995Y-91906127D02*
G01*
X144766880Y-92134935D01*
X144961465Y-92329520D01*
X145190273Y-92482405D01*
X145267515Y-92514400D01*
X145190273Y-92546395D01*
X144961465Y-92699280D01*
X144766880Y-92893865D01*
X144613995Y-93122673D01*
X144584308Y-93194343D01*
X144579636Y-93181377D01*
X144517656Y-93065420D01*
X144277565Y-92998440D01*
X143491605Y-93784400D01*
X143505748Y-93798543D01*
X143326143Y-93978148D01*
X143312000Y-93964005D01*
X143297858Y-93978148D01*
X143118253Y-93798543D01*
X143132395Y-93784400D01*
X143118253Y-93770258D01*
X143297858Y-93590653D01*
X143312000Y-93604795D01*
X144097960Y-92818835D01*
X144030980Y-92578744D01*
X143895240Y-92514915D01*
X143973727Y-92482405D01*
X144202535Y-92329520D01*
X144397120Y-92134935D01*
X144550005Y-91906127D01*
X144582000Y-91828885D01*
X144613995Y-91906127D01*
G37*
X144613995Y-91906127D02*
X144766880Y-92134935D01*
X144961465Y-92329520D01*
X145190273Y-92482405D01*
X145267515Y-92514400D01*
X145190273Y-92546395D01*
X144961465Y-92699280D01*
X144766880Y-92893865D01*
X144613995Y-93122673D01*
X144584308Y-93194343D01*
X144579636Y-93181377D01*
X144517656Y-93065420D01*
X144277565Y-92998440D01*
X143491605Y-93784400D01*
X143505748Y-93798543D01*
X143326143Y-93978148D01*
X143312000Y-93964005D01*
X143297858Y-93978148D01*
X143118253Y-93798543D01*
X143132395Y-93784400D01*
X143118253Y-93770258D01*
X143297858Y-93590653D01*
X143312000Y-93604795D01*
X144097960Y-92818835D01*
X144030980Y-92578744D01*
X143895240Y-92514915D01*
X143973727Y-92482405D01*
X144202535Y-92329520D01*
X144397120Y-92134935D01*
X144550005Y-91906127D01*
X144582000Y-91828885D01*
X144613995Y-91906127D01*
G36*
X157313995Y-86191127D02*
G01*
X157466880Y-86419935D01*
X157661465Y-86614520D01*
X157890273Y-86767405D01*
X158144510Y-86872714D01*
X158414408Y-86926400D01*
X158689592Y-86926400D01*
X158955901Y-86873428D01*
X158955900Y-89900372D01*
X158689592Y-89847400D01*
X158414408Y-89847400D01*
X158144510Y-89901086D01*
X157890273Y-90006395D01*
X157661465Y-90159280D01*
X157466880Y-90353865D01*
X157313995Y-90582673D01*
X157284308Y-90654343D01*
X157279636Y-90641377D01*
X157217656Y-90525420D01*
X156977565Y-90458440D01*
X156191605Y-91244400D01*
X156205748Y-91258543D01*
X156026143Y-91438148D01*
X156012000Y-91424005D01*
X155226040Y-92209965D01*
X155293020Y-92450056D01*
X155428760Y-92513885D01*
X155350273Y-92546395D01*
X155121465Y-92699280D01*
X154926880Y-92893865D01*
X154773995Y-93122673D01*
X154742000Y-93199915D01*
X154710005Y-93122673D01*
X154557120Y-92893865D01*
X154362535Y-92699280D01*
X154133727Y-92546395D01*
X154056485Y-92514400D01*
X154133727Y-92482405D01*
X154362535Y-92329520D01*
X154557120Y-92134935D01*
X154710005Y-91906127D01*
X154739692Y-91834457D01*
X154744364Y-91847423D01*
X154806344Y-91963380D01*
X155046435Y-92030360D01*
X155832395Y-91244400D01*
X155818253Y-91230258D01*
X155997858Y-91050653D01*
X156012000Y-91064795D01*
X156797960Y-90278835D01*
X156730980Y-90038744D01*
X156481952Y-89921644D01*
X156214865Y-89855377D01*
X155939983Y-89842490D01*
X155667867Y-89883478D01*
X155408977Y-89976764D01*
X155377300Y-89993696D01*
X155377300Y-86778600D01*
X155604510Y-86872714D01*
X155874408Y-86926400D01*
X156149592Y-86926400D01*
X156419490Y-86872714D01*
X156673727Y-86767405D01*
X156902535Y-86614520D01*
X157097120Y-86419935D01*
X157250005Y-86191127D01*
X157282000Y-86113885D01*
X157313995Y-86191127D01*
G37*
X157313995Y-86191127D02*
X157466880Y-86419935D01*
X157661465Y-86614520D01*
X157890273Y-86767405D01*
X158144510Y-86872714D01*
X158414408Y-86926400D01*
X158689592Y-86926400D01*
X158955901Y-86873428D01*
X158955900Y-89900372D01*
X158689592Y-89847400D01*
X158414408Y-89847400D01*
X158144510Y-89901086D01*
X157890273Y-90006395D01*
X157661465Y-90159280D01*
X157466880Y-90353865D01*
X157313995Y-90582673D01*
X157284308Y-90654343D01*
X157279636Y-90641377D01*
X157217656Y-90525420D01*
X156977565Y-90458440D01*
X156191605Y-91244400D01*
X156205748Y-91258543D01*
X156026143Y-91438148D01*
X156012000Y-91424005D01*
X155226040Y-92209965D01*
X155293020Y-92450056D01*
X155428760Y-92513885D01*
X155350273Y-92546395D01*
X155121465Y-92699280D01*
X154926880Y-92893865D01*
X154773995Y-93122673D01*
X154742000Y-93199915D01*
X154710005Y-93122673D01*
X154557120Y-92893865D01*
X154362535Y-92699280D01*
X154133727Y-92546395D01*
X154056485Y-92514400D01*
X154133727Y-92482405D01*
X154362535Y-92329520D01*
X154557120Y-92134935D01*
X154710005Y-91906127D01*
X154739692Y-91834457D01*
X154744364Y-91847423D01*
X154806344Y-91963380D01*
X155046435Y-92030360D01*
X155832395Y-91244400D01*
X155818253Y-91230258D01*
X155997858Y-91050653D01*
X156012000Y-91064795D01*
X156797960Y-90278835D01*
X156730980Y-90038744D01*
X156481952Y-89921644D01*
X156214865Y-89855377D01*
X155939983Y-89842490D01*
X155667867Y-89883478D01*
X155408977Y-89976764D01*
X155377300Y-89993696D01*
X155377300Y-86778600D01*
X155604510Y-86872714D01*
X155874408Y-86926400D01*
X156149592Y-86926400D01*
X156419490Y-86872714D01*
X156673727Y-86767405D01*
X156902535Y-86614520D01*
X157097120Y-86419935D01*
X157250005Y-86191127D01*
X157282000Y-86113885D01*
X157313995Y-86191127D01*
G36*
X114693313Y-86563344D02*
G01*
X114558998Y-86697659D01*
X114440860Y-86874465D01*
X114359485Y-87070922D01*
X114318000Y-87279479D01*
X114318000Y-87492121D01*
X114359485Y-87700678D01*
X114440860Y-87897135D01*
X114558998Y-88073941D01*
X114709359Y-88224302D01*
X114886165Y-88342440D01*
X115082622Y-88423815D01*
X115291179Y-88465300D01*
X115503821Y-88465300D01*
X115683524Y-88429554D01*
X117257988Y-90004018D01*
X117193020Y-90038744D01*
X117126040Y-90278835D01*
X117912000Y-91064795D01*
X117926143Y-91050653D01*
X118105748Y-91230258D01*
X118091605Y-91244400D01*
X118105748Y-91258543D01*
X117926143Y-91438148D01*
X117912000Y-91424005D01*
X117126040Y-92209965D01*
X117193020Y-92450056D01*
X117328760Y-92513885D01*
X117250273Y-92546395D01*
X117021465Y-92699280D01*
X116826880Y-92893865D01*
X116675600Y-93120270D01*
X114871747Y-91316417D01*
X116510090Y-91316417D01*
X116551078Y-91588533D01*
X116644364Y-91847423D01*
X116706344Y-91963380D01*
X116946435Y-92030360D01*
X117732395Y-91244400D01*
X116946435Y-90458440D01*
X116706344Y-90525420D01*
X116589244Y-90774448D01*
X116522977Y-91041535D01*
X116510090Y-91316417D01*
X114871747Y-91316417D01*
X112342100Y-88786770D01*
X112342100Y-84212130D01*
X114693313Y-86563344D01*
G37*
X114693313Y-86563344D02*
X114558998Y-86697659D01*
X114440860Y-86874465D01*
X114359485Y-87070922D01*
X114318000Y-87279479D01*
X114318000Y-87492121D01*
X114359485Y-87700678D01*
X114440860Y-87897135D01*
X114558998Y-88073941D01*
X114709359Y-88224302D01*
X114886165Y-88342440D01*
X115082622Y-88423815D01*
X115291179Y-88465300D01*
X115503821Y-88465300D01*
X115683524Y-88429554D01*
X117257988Y-90004018D01*
X117193020Y-90038744D01*
X117126040Y-90278835D01*
X117912000Y-91064795D01*
X117926143Y-91050653D01*
X118105748Y-91230258D01*
X118091605Y-91244400D01*
X118105748Y-91258543D01*
X117926143Y-91438148D01*
X117912000Y-91424005D01*
X117126040Y-92209965D01*
X117193020Y-92450056D01*
X117328760Y-92513885D01*
X117250273Y-92546395D01*
X117021465Y-92699280D01*
X116826880Y-92893865D01*
X116675600Y-93120270D01*
X114871747Y-91316417D01*
X116510090Y-91316417D01*
X116551078Y-91588533D01*
X116644364Y-91847423D01*
X116706344Y-91963380D01*
X116946435Y-92030360D01*
X117732395Y-91244400D01*
X116946435Y-90458440D01*
X116706344Y-90525420D01*
X116589244Y-90774448D01*
X116522977Y-91041535D01*
X116510090Y-91316417D01*
X114871747Y-91316417D01*
X112342100Y-88786770D01*
X112342100Y-84212130D01*
X114693313Y-86563344D01*
G36*
X135885748Y-91230258D02*
G01*
X135871605Y-91244400D01*
X135885748Y-91258543D01*
X135706143Y-91438148D01*
X135692000Y-91424005D01*
X135677858Y-91438148D01*
X135498253Y-91258543D01*
X135512395Y-91244400D01*
X135498253Y-91230258D01*
X135677858Y-91050653D01*
X135692000Y-91064795D01*
X135706143Y-91050653D01*
X135885748Y-91230258D01*
G37*
X135885748Y-91230258D02*
X135871605Y-91244400D01*
X135885748Y-91258543D01*
X135706143Y-91438148D01*
X135692000Y-91424005D01*
X135677858Y-91438148D01*
X135498253Y-91258543D01*
X135512395Y-91244400D01*
X135498253Y-91230258D01*
X135677858Y-91050653D01*
X135692000Y-91064795D01*
X135706143Y-91050653D01*
X135885748Y-91230258D01*
G36*
X169980359Y-68516320D02*
G01*
X170154412Y-68749669D01*
X170370645Y-68944578D01*
X170487534Y-69014205D01*
X170305368Y-69135925D01*
X170098525Y-69342768D01*
X169936010Y-69585989D01*
X169824068Y-69856242D01*
X169767000Y-70143140D01*
X169767000Y-70435660D01*
X169824068Y-70722558D01*
X169936010Y-70992811D01*
X170098525Y-71236032D01*
X170305368Y-71442875D01*
X170479760Y-71559400D01*
X170305368Y-71675925D01*
X170098525Y-71882768D01*
X169936010Y-72125989D01*
X169824068Y-72396242D01*
X169767000Y-72683140D01*
X169767000Y-72975660D01*
X169824068Y-73262558D01*
X169936010Y-73532811D01*
X170098525Y-73776032D01*
X170305368Y-73982875D01*
X170479760Y-74099400D01*
X170305368Y-74215925D01*
X170098525Y-74422768D01*
X169936010Y-74665989D01*
X169824068Y-74936242D01*
X169767000Y-75223140D01*
X169767000Y-75515660D01*
X169824068Y-75802558D01*
X169936010Y-76072811D01*
X170098525Y-76316032D01*
X170305368Y-76522875D01*
X170548589Y-76685390D01*
X170818842Y-76797332D01*
X171105740Y-76854400D01*
X171398260Y-76854400D01*
X171685158Y-76797332D01*
X171727901Y-76779628D01*
X171727901Y-87150868D01*
X167572072Y-91306698D01*
X167572072Y-90482400D01*
X167559812Y-90357918D01*
X167523502Y-90238220D01*
X167464537Y-90127906D01*
X167385185Y-90031215D01*
X167288494Y-89951863D01*
X167178180Y-89892898D01*
X167058482Y-89856588D01*
X166934000Y-89844328D01*
X166890396Y-89844328D01*
X166879402Y-89808085D01*
X166808645Y-89675708D01*
X166713422Y-89559678D01*
X166684352Y-89535821D01*
X165790700Y-88642170D01*
X165790700Y-86874151D01*
X165969135Y-86918423D01*
X166244017Y-86931310D01*
X166516133Y-86890322D01*
X166775023Y-86797036D01*
X166890980Y-86735056D01*
X166957960Y-86494965D01*
X166172000Y-85709005D01*
X166157858Y-85723148D01*
X165978253Y-85543543D01*
X165992395Y-85529400D01*
X166351605Y-85529400D01*
X167137565Y-86315360D01*
X167377656Y-86248380D01*
X167494756Y-85999352D01*
X167561023Y-85732265D01*
X167573910Y-85457383D01*
X167532922Y-85185267D01*
X167439636Y-84926377D01*
X167377656Y-84810420D01*
X167137565Y-84743440D01*
X166351605Y-85529400D01*
X165992395Y-85529400D01*
X165978253Y-85515258D01*
X166157858Y-85335653D01*
X166172000Y-85349795D01*
X166957960Y-84563835D01*
X166890980Y-84323744D01*
X166755240Y-84259915D01*
X166833727Y-84227405D01*
X167062535Y-84074520D01*
X167257120Y-83879935D01*
X167410005Y-83651127D01*
X167515314Y-83396890D01*
X167569000Y-83126992D01*
X167569000Y-82851808D01*
X167515314Y-82581910D01*
X167410005Y-82327673D01*
X167257120Y-82098865D01*
X167062535Y-81904280D01*
X166833727Y-81751395D01*
X166579490Y-81646086D01*
X166309592Y-81592400D01*
X166034408Y-81592400D01*
X165790700Y-81640876D01*
X165790700Y-72517930D01*
X169919688Y-68388943D01*
X169980359Y-68516320D01*
G37*
X169980359Y-68516320D02*
X170154412Y-68749669D01*
X170370645Y-68944578D01*
X170487534Y-69014205D01*
X170305368Y-69135925D01*
X170098525Y-69342768D01*
X169936010Y-69585989D01*
X169824068Y-69856242D01*
X169767000Y-70143140D01*
X169767000Y-70435660D01*
X169824068Y-70722558D01*
X169936010Y-70992811D01*
X170098525Y-71236032D01*
X170305368Y-71442875D01*
X170479760Y-71559400D01*
X170305368Y-71675925D01*
X170098525Y-71882768D01*
X169936010Y-72125989D01*
X169824068Y-72396242D01*
X169767000Y-72683140D01*
X169767000Y-72975660D01*
X169824068Y-73262558D01*
X169936010Y-73532811D01*
X170098525Y-73776032D01*
X170305368Y-73982875D01*
X170479760Y-74099400D01*
X170305368Y-74215925D01*
X170098525Y-74422768D01*
X169936010Y-74665989D01*
X169824068Y-74936242D01*
X169767000Y-75223140D01*
X169767000Y-75515660D01*
X169824068Y-75802558D01*
X169936010Y-76072811D01*
X170098525Y-76316032D01*
X170305368Y-76522875D01*
X170548589Y-76685390D01*
X170818842Y-76797332D01*
X171105740Y-76854400D01*
X171398260Y-76854400D01*
X171685158Y-76797332D01*
X171727901Y-76779628D01*
X171727901Y-87150868D01*
X167572072Y-91306698D01*
X167572072Y-90482400D01*
X167559812Y-90357918D01*
X167523502Y-90238220D01*
X167464537Y-90127906D01*
X167385185Y-90031215D01*
X167288494Y-89951863D01*
X167178180Y-89892898D01*
X167058482Y-89856588D01*
X166934000Y-89844328D01*
X166890396Y-89844328D01*
X166879402Y-89808085D01*
X166808645Y-89675708D01*
X166713422Y-89559678D01*
X166684352Y-89535821D01*
X165790700Y-88642170D01*
X165790700Y-86874151D01*
X165969135Y-86918423D01*
X166244017Y-86931310D01*
X166516133Y-86890322D01*
X166775023Y-86797036D01*
X166890980Y-86735056D01*
X166957960Y-86494965D01*
X166172000Y-85709005D01*
X166157858Y-85723148D01*
X165978253Y-85543543D01*
X165992395Y-85529400D01*
X166351605Y-85529400D01*
X167137565Y-86315360D01*
X167377656Y-86248380D01*
X167494756Y-85999352D01*
X167561023Y-85732265D01*
X167573910Y-85457383D01*
X167532922Y-85185267D01*
X167439636Y-84926377D01*
X167377656Y-84810420D01*
X167137565Y-84743440D01*
X166351605Y-85529400D01*
X165992395Y-85529400D01*
X165978253Y-85515258D01*
X166157858Y-85335653D01*
X166172000Y-85349795D01*
X166957960Y-84563835D01*
X166890980Y-84323744D01*
X166755240Y-84259915D01*
X166833727Y-84227405D01*
X167062535Y-84074520D01*
X167257120Y-83879935D01*
X167410005Y-83651127D01*
X167515314Y-83396890D01*
X167569000Y-83126992D01*
X167569000Y-82851808D01*
X167515314Y-82581910D01*
X167410005Y-82327673D01*
X167257120Y-82098865D01*
X167062535Y-81904280D01*
X166833727Y-81751395D01*
X166579490Y-81646086D01*
X166309592Y-81592400D01*
X166034408Y-81592400D01*
X165790700Y-81640876D01*
X165790700Y-72517930D01*
X169919688Y-68388943D01*
X169980359Y-68516320D01*
G36*
X128265748Y-85515258D02*
G01*
X128251605Y-85529400D01*
X128265748Y-85543543D01*
X128086143Y-85723148D01*
X128072000Y-85709005D01*
X127286040Y-86494965D01*
X127353020Y-86735056D01*
X127602048Y-86852156D01*
X127869135Y-86918423D01*
X128144017Y-86931310D01*
X128416133Y-86890322D01*
X128500601Y-86859886D01*
X128500601Y-89909830D01*
X128479490Y-89901086D01*
X128209592Y-89847400D01*
X127934408Y-89847400D01*
X127664510Y-89901086D01*
X127410273Y-90006395D01*
X127181465Y-90159280D01*
X126986880Y-90353865D01*
X126833995Y-90582673D01*
X126802000Y-90659915D01*
X126770005Y-90582673D01*
X126617120Y-90353865D01*
X126422535Y-90159280D01*
X126193727Y-90006395D01*
X125939490Y-89901086D01*
X125669592Y-89847400D01*
X125394408Y-89847400D01*
X125242789Y-89877559D01*
X125133400Y-89768170D01*
X125133400Y-86874482D01*
X125394408Y-86926400D01*
X125669592Y-86926400D01*
X125939490Y-86872714D01*
X126193727Y-86767405D01*
X126422535Y-86614520D01*
X126617120Y-86419935D01*
X126770005Y-86191127D01*
X126799692Y-86119457D01*
X126804364Y-86132423D01*
X126866344Y-86248380D01*
X127106435Y-86315360D01*
X127892395Y-85529400D01*
X127878253Y-85515258D01*
X128057858Y-85335653D01*
X128072000Y-85349795D01*
X128086143Y-85335653D01*
X128265748Y-85515258D01*
G37*
X128265748Y-85515258D02*
X128251605Y-85529400D01*
X128265748Y-85543543D01*
X128086143Y-85723148D01*
X128072000Y-85709005D01*
X127286040Y-86494965D01*
X127353020Y-86735056D01*
X127602048Y-86852156D01*
X127869135Y-86918423D01*
X128144017Y-86931310D01*
X128416133Y-86890322D01*
X128500601Y-86859886D01*
X128500601Y-89909830D01*
X128479490Y-89901086D01*
X128209592Y-89847400D01*
X127934408Y-89847400D01*
X127664510Y-89901086D01*
X127410273Y-90006395D01*
X127181465Y-90159280D01*
X126986880Y-90353865D01*
X126833995Y-90582673D01*
X126802000Y-90659915D01*
X126770005Y-90582673D01*
X126617120Y-90353865D01*
X126422535Y-90159280D01*
X126193727Y-90006395D01*
X125939490Y-89901086D01*
X125669592Y-89847400D01*
X125394408Y-89847400D01*
X125242789Y-89877559D01*
X125133400Y-89768170D01*
X125133400Y-86874482D01*
X125394408Y-86926400D01*
X125669592Y-86926400D01*
X125939490Y-86872714D01*
X126193727Y-86767405D01*
X126422535Y-86614520D01*
X126617120Y-86419935D01*
X126770005Y-86191127D01*
X126799692Y-86119457D01*
X126804364Y-86132423D01*
X126866344Y-86248380D01*
X127106435Y-86315360D01*
X127892395Y-85529400D01*
X127878253Y-85515258D01*
X128057858Y-85335653D01*
X128072000Y-85349795D01*
X128086143Y-85335653D01*
X128265748Y-85515258D01*
G36*
X148585748Y-85515258D02*
G01*
X148571605Y-85529400D01*
X148585748Y-85543543D01*
X148406143Y-85723148D01*
X148392000Y-85709005D01*
X148377858Y-85723148D01*
X148198253Y-85543543D01*
X148212395Y-85529400D01*
X148198253Y-85515258D01*
X148377858Y-85335653D01*
X148392000Y-85349795D01*
X148406143Y-85335653D01*
X148585748Y-85515258D01*
G37*
X148585748Y-85515258D02*
X148571605Y-85529400D01*
X148585748Y-85543543D01*
X148406143Y-85723148D01*
X148392000Y-85709005D01*
X148377858Y-85723148D01*
X148198253Y-85543543D01*
X148212395Y-85529400D01*
X148198253Y-85515258D01*
X148377858Y-85335653D01*
X148392000Y-85349795D01*
X148406143Y-85335653D01*
X148585748Y-85515258D01*
G36*
X157313995Y-68411127D02*
G01*
X157466880Y-68639935D01*
X157661465Y-68834520D01*
X157890273Y-68987405D01*
X158144510Y-69092714D01*
X158414408Y-69146400D01*
X158689592Y-69146400D01*
X158933400Y-69097904D01*
X158933401Y-80654671D01*
X158898200Y-80619470D01*
X158898200Y-80511279D01*
X158856715Y-80302722D01*
X158775340Y-80106265D01*
X158657202Y-79929459D01*
X158506841Y-79779098D01*
X158330035Y-79660960D01*
X158133578Y-79579585D01*
X157925021Y-79538100D01*
X157712379Y-79538100D01*
X157503822Y-79579585D01*
X157307365Y-79660960D01*
X157130559Y-79779098D01*
X156980198Y-79929459D01*
X156862060Y-80106265D01*
X156780685Y-80302722D01*
X156739200Y-80511279D01*
X156739200Y-80723921D01*
X156780685Y-80932478D01*
X156862060Y-81128935D01*
X156980198Y-81305741D01*
X157130559Y-81456102D01*
X157307365Y-81574240D01*
X157503822Y-81655615D01*
X157712379Y-81697100D01*
X157820570Y-81697100D01*
X157881370Y-81757900D01*
X157833020Y-81783744D01*
X157766040Y-82023835D01*
X158552000Y-82809795D01*
X158566143Y-82795653D01*
X158745748Y-82975258D01*
X158731605Y-82989400D01*
X158745748Y-83003543D01*
X158566143Y-83183148D01*
X158552000Y-83169005D01*
X157766040Y-83954965D01*
X157833020Y-84195056D01*
X157968760Y-84258885D01*
X157890273Y-84291395D01*
X157661465Y-84444280D01*
X157466880Y-84638865D01*
X157313995Y-84867673D01*
X157282000Y-84944915D01*
X157250005Y-84867673D01*
X157097120Y-84638865D01*
X156902535Y-84444280D01*
X156673727Y-84291395D01*
X156596485Y-84259400D01*
X156673727Y-84227405D01*
X156902535Y-84074520D01*
X157097120Y-83879935D01*
X157250005Y-83651127D01*
X157279692Y-83579457D01*
X157284364Y-83592423D01*
X157346344Y-83708380D01*
X157586435Y-83775360D01*
X158372395Y-82989400D01*
X157586435Y-82203440D01*
X157346344Y-82270420D01*
X157282515Y-82406160D01*
X157250005Y-82327673D01*
X157097120Y-82098865D01*
X156902535Y-81904280D01*
X156673727Y-81751395D01*
X156419490Y-81646086D01*
X156149592Y-81592400D01*
X155874408Y-81592400D01*
X155604510Y-81646086D01*
X155350273Y-81751395D01*
X155121465Y-81904280D01*
X154926880Y-82098865D01*
X154773995Y-82327673D01*
X154744308Y-82399343D01*
X154739636Y-82386377D01*
X154677656Y-82270420D01*
X154437565Y-82203440D01*
X153651605Y-82989400D01*
X153665748Y-83003543D01*
X153486143Y-83183148D01*
X153472000Y-83169005D01*
X153457858Y-83183148D01*
X153278253Y-83003543D01*
X153292395Y-82989400D01*
X153278253Y-82975258D01*
X153457858Y-82795653D01*
X153472000Y-82809795D01*
X154257960Y-82023835D01*
X154190980Y-81783744D01*
X153941952Y-81666644D01*
X153674865Y-81600377D01*
X153399983Y-81587490D01*
X153127867Y-81628478D01*
X153090600Y-81641906D01*
X153090600Y-69097904D01*
X153334408Y-69146400D01*
X153609592Y-69146400D01*
X153879490Y-69092714D01*
X154133727Y-68987405D01*
X154362535Y-68834520D01*
X154557120Y-68639935D01*
X154710005Y-68411127D01*
X154742000Y-68333885D01*
X154773995Y-68411127D01*
X154926880Y-68639935D01*
X155121465Y-68834520D01*
X155350273Y-68987405D01*
X155604510Y-69092714D01*
X155874408Y-69146400D01*
X156149592Y-69146400D01*
X156419490Y-69092714D01*
X156673727Y-68987405D01*
X156902535Y-68834520D01*
X157097120Y-68639935D01*
X157250005Y-68411127D01*
X157282000Y-68333885D01*
X157313995Y-68411127D01*
G37*
X157313995Y-68411127D02*
X157466880Y-68639935D01*
X157661465Y-68834520D01*
X157890273Y-68987405D01*
X158144510Y-69092714D01*
X158414408Y-69146400D01*
X158689592Y-69146400D01*
X158933400Y-69097904D01*
X158933401Y-80654671D01*
X158898200Y-80619470D01*
X158898200Y-80511279D01*
X158856715Y-80302722D01*
X158775340Y-80106265D01*
X158657202Y-79929459D01*
X158506841Y-79779098D01*
X158330035Y-79660960D01*
X158133578Y-79579585D01*
X157925021Y-79538100D01*
X157712379Y-79538100D01*
X157503822Y-79579585D01*
X157307365Y-79660960D01*
X157130559Y-79779098D01*
X156980198Y-79929459D01*
X156862060Y-80106265D01*
X156780685Y-80302722D01*
X156739200Y-80511279D01*
X156739200Y-80723921D01*
X156780685Y-80932478D01*
X156862060Y-81128935D01*
X156980198Y-81305741D01*
X157130559Y-81456102D01*
X157307365Y-81574240D01*
X157503822Y-81655615D01*
X157712379Y-81697100D01*
X157820570Y-81697100D01*
X157881370Y-81757900D01*
X157833020Y-81783744D01*
X157766040Y-82023835D01*
X158552000Y-82809795D01*
X158566143Y-82795653D01*
X158745748Y-82975258D01*
X158731605Y-82989400D01*
X158745748Y-83003543D01*
X158566143Y-83183148D01*
X158552000Y-83169005D01*
X157766040Y-83954965D01*
X157833020Y-84195056D01*
X157968760Y-84258885D01*
X157890273Y-84291395D01*
X157661465Y-84444280D01*
X157466880Y-84638865D01*
X157313995Y-84867673D01*
X157282000Y-84944915D01*
X157250005Y-84867673D01*
X157097120Y-84638865D01*
X156902535Y-84444280D01*
X156673727Y-84291395D01*
X156596485Y-84259400D01*
X156673727Y-84227405D01*
X156902535Y-84074520D01*
X157097120Y-83879935D01*
X157250005Y-83651127D01*
X157279692Y-83579457D01*
X157284364Y-83592423D01*
X157346344Y-83708380D01*
X157586435Y-83775360D01*
X158372395Y-82989400D01*
X157586435Y-82203440D01*
X157346344Y-82270420D01*
X157282515Y-82406160D01*
X157250005Y-82327673D01*
X157097120Y-82098865D01*
X156902535Y-81904280D01*
X156673727Y-81751395D01*
X156419490Y-81646086D01*
X156149592Y-81592400D01*
X155874408Y-81592400D01*
X155604510Y-81646086D01*
X155350273Y-81751395D01*
X155121465Y-81904280D01*
X154926880Y-82098865D01*
X154773995Y-82327673D01*
X154744308Y-82399343D01*
X154739636Y-82386377D01*
X154677656Y-82270420D01*
X154437565Y-82203440D01*
X153651605Y-82989400D01*
X153665748Y-83003543D01*
X153486143Y-83183148D01*
X153472000Y-83169005D01*
X153457858Y-83183148D01*
X153278253Y-83003543D01*
X153292395Y-82989400D01*
X153278253Y-82975258D01*
X153457858Y-82795653D01*
X153472000Y-82809795D01*
X154257960Y-82023835D01*
X154190980Y-81783744D01*
X153941952Y-81666644D01*
X153674865Y-81600377D01*
X153399983Y-81587490D01*
X153127867Y-81628478D01*
X153090600Y-81641906D01*
X153090600Y-69097904D01*
X153334408Y-69146400D01*
X153609592Y-69146400D01*
X153879490Y-69092714D01*
X154133727Y-68987405D01*
X154362535Y-68834520D01*
X154557120Y-68639935D01*
X154710005Y-68411127D01*
X154742000Y-68333885D01*
X154773995Y-68411127D01*
X154926880Y-68639935D01*
X155121465Y-68834520D01*
X155350273Y-68987405D01*
X155604510Y-69092714D01*
X155874408Y-69146400D01*
X156149592Y-69146400D01*
X156419490Y-69092714D01*
X156673727Y-68987405D01*
X156902535Y-68834520D01*
X157097120Y-68639935D01*
X157250005Y-68411127D01*
X157282000Y-68333885D01*
X157313995Y-68411127D01*
G36*
X154773995Y-83651127D02*
G01*
X154926880Y-83879935D01*
X155121465Y-84074520D01*
X155350273Y-84227405D01*
X155427515Y-84259400D01*
X155350273Y-84291395D01*
X155121465Y-84444280D01*
X155101438Y-84464307D01*
X154541439Y-83904308D01*
X154553977Y-83891769D01*
X154437567Y-83775359D01*
X154677656Y-83708380D01*
X154741485Y-83572640D01*
X154773995Y-83651127D01*
G37*
X154773995Y-83651127D02*
X154926880Y-83879935D01*
X155121465Y-84074520D01*
X155350273Y-84227405D01*
X155427515Y-84259400D01*
X155350273Y-84291395D01*
X155121465Y-84444280D01*
X155101438Y-84464307D01*
X154541439Y-83904308D01*
X154553977Y-83891769D01*
X154437567Y-83775359D01*
X154677656Y-83708380D01*
X154741485Y-83572640D01*
X154773995Y-83651127D01*
G36*
X131913995Y-68411127D02*
G01*
X132066880Y-68639935D01*
X132261465Y-68834520D01*
X132490273Y-68987405D01*
X132744510Y-69092714D01*
X133014408Y-69146400D01*
X133289592Y-69146400D01*
X133559490Y-69092714D01*
X133813727Y-68987405D01*
X134042535Y-68834520D01*
X134237120Y-68639935D01*
X134390005Y-68411127D01*
X134422000Y-68333885D01*
X134453995Y-68411127D01*
X134606880Y-68639935D01*
X134801465Y-68834520D01*
X135030273Y-68987405D01*
X135284510Y-69092714D01*
X135554408Y-69146400D01*
X135829592Y-69146400D01*
X136099490Y-69092714D01*
X136353727Y-68987405D01*
X136582535Y-68834520D01*
X136777120Y-68639935D01*
X136930005Y-68411127D01*
X136962000Y-68333885D01*
X136993995Y-68411127D01*
X137146880Y-68639935D01*
X137341465Y-68834520D01*
X137570273Y-68987405D01*
X137824510Y-69092714D01*
X138094408Y-69146400D01*
X138369592Y-69146400D01*
X138639490Y-69092714D01*
X138850000Y-69005517D01*
X138850000Y-70326577D01*
X138846314Y-70364000D01*
X138850000Y-70401423D01*
X138850000Y-70401425D01*
X138861026Y-70513377D01*
X138904598Y-70657014D01*
X138907321Y-70662108D01*
X138975355Y-70789392D01*
X138985498Y-70801751D01*
X139070578Y-70905422D01*
X139099654Y-70929284D01*
X142821601Y-74651231D01*
X142821601Y-75683400D01*
X142651479Y-75683400D01*
X142442922Y-75724885D01*
X142246465Y-75806260D01*
X142069659Y-75924398D01*
X141919298Y-76074759D01*
X141801160Y-76251565D01*
X141719785Y-76448022D01*
X141678300Y-76656579D01*
X141678300Y-76764770D01*
X141656249Y-76786821D01*
X141627179Y-76810678D01*
X141603322Y-76839748D01*
X141603321Y-76839749D01*
X141531955Y-76926708D01*
X141461199Y-77059085D01*
X141417627Y-77202722D01*
X141402914Y-77352100D01*
X141406601Y-77389533D01*
X141406600Y-81744066D01*
X141241952Y-81666644D01*
X140974865Y-81600377D01*
X140699983Y-81587490D01*
X140427867Y-81628478D01*
X140168977Y-81721764D01*
X140053020Y-81783744D01*
X139986040Y-82023835D01*
X140772000Y-82809795D01*
X140786143Y-82795653D01*
X140965748Y-82975258D01*
X140951605Y-82989400D01*
X140965748Y-83003543D01*
X140786143Y-83183148D01*
X140772000Y-83169005D01*
X140757858Y-83183148D01*
X140578253Y-83003543D01*
X140592395Y-82989400D01*
X139806435Y-82203440D01*
X139566344Y-82270420D01*
X139502515Y-82406160D01*
X139470005Y-82327673D01*
X139317120Y-82098865D01*
X139122535Y-81904280D01*
X138994000Y-81818395D01*
X138994000Y-76200722D01*
X138997686Y-76163299D01*
X138994000Y-76125874D01*
X138982974Y-76013922D01*
X138939402Y-75870285D01*
X138868645Y-75737908D01*
X138773422Y-75621878D01*
X138744352Y-75598021D01*
X131956884Y-68810554D01*
X131933022Y-68781478D01*
X131816992Y-68686255D01*
X131684615Y-68615498D01*
X131645989Y-68603781D01*
X131577567Y-68535359D01*
X131817656Y-68468380D01*
X131881485Y-68332640D01*
X131913995Y-68411127D01*
G37*
X131913995Y-68411127D02*
X132066880Y-68639935D01*
X132261465Y-68834520D01*
X132490273Y-68987405D01*
X132744510Y-69092714D01*
X133014408Y-69146400D01*
X133289592Y-69146400D01*
X133559490Y-69092714D01*
X133813727Y-68987405D01*
X134042535Y-68834520D01*
X134237120Y-68639935D01*
X134390005Y-68411127D01*
X134422000Y-68333885D01*
X134453995Y-68411127D01*
X134606880Y-68639935D01*
X134801465Y-68834520D01*
X135030273Y-68987405D01*
X135284510Y-69092714D01*
X135554408Y-69146400D01*
X135829592Y-69146400D01*
X136099490Y-69092714D01*
X136353727Y-68987405D01*
X136582535Y-68834520D01*
X136777120Y-68639935D01*
X136930005Y-68411127D01*
X136962000Y-68333885D01*
X136993995Y-68411127D01*
X137146880Y-68639935D01*
X137341465Y-68834520D01*
X137570273Y-68987405D01*
X137824510Y-69092714D01*
X138094408Y-69146400D01*
X138369592Y-69146400D01*
X138639490Y-69092714D01*
X138850000Y-69005517D01*
X138850000Y-70326577D01*
X138846314Y-70364000D01*
X138850000Y-70401423D01*
X138850000Y-70401425D01*
X138861026Y-70513377D01*
X138904598Y-70657014D01*
X138907321Y-70662108D01*
X138975355Y-70789392D01*
X138985498Y-70801751D01*
X139070578Y-70905422D01*
X139099654Y-70929284D01*
X142821601Y-74651231D01*
X142821601Y-75683400D01*
X142651479Y-75683400D01*
X142442922Y-75724885D01*
X142246465Y-75806260D01*
X142069659Y-75924398D01*
X141919298Y-76074759D01*
X141801160Y-76251565D01*
X141719785Y-76448022D01*
X141678300Y-76656579D01*
X141678300Y-76764770D01*
X141656249Y-76786821D01*
X141627179Y-76810678D01*
X141603322Y-76839748D01*
X141603321Y-76839749D01*
X141531955Y-76926708D01*
X141461199Y-77059085D01*
X141417627Y-77202722D01*
X141402914Y-77352100D01*
X141406601Y-77389533D01*
X141406600Y-81744066D01*
X141241952Y-81666644D01*
X140974865Y-81600377D01*
X140699983Y-81587490D01*
X140427867Y-81628478D01*
X140168977Y-81721764D01*
X140053020Y-81783744D01*
X139986040Y-82023835D01*
X140772000Y-82809795D01*
X140786143Y-82795653D01*
X140965748Y-82975258D01*
X140951605Y-82989400D01*
X140965748Y-83003543D01*
X140786143Y-83183148D01*
X140772000Y-83169005D01*
X140757858Y-83183148D01*
X140578253Y-83003543D01*
X140592395Y-82989400D01*
X139806435Y-82203440D01*
X139566344Y-82270420D01*
X139502515Y-82406160D01*
X139470005Y-82327673D01*
X139317120Y-82098865D01*
X139122535Y-81904280D01*
X138994000Y-81818395D01*
X138994000Y-76200722D01*
X138997686Y-76163299D01*
X138994000Y-76125874D01*
X138982974Y-76013922D01*
X138939402Y-75870285D01*
X138868645Y-75737908D01*
X138773422Y-75621878D01*
X138744352Y-75598021D01*
X131956884Y-68810554D01*
X131933022Y-68781478D01*
X131816992Y-68686255D01*
X131684615Y-68615498D01*
X131645989Y-68603781D01*
X131577567Y-68535359D01*
X131817656Y-68468380D01*
X131881485Y-68332640D01*
X131913995Y-68411127D01*
G36*
X123185748Y-82975258D02*
G01*
X123171605Y-82989400D01*
X123185748Y-83003543D01*
X123006143Y-83183148D01*
X122992000Y-83169005D01*
X122977858Y-83183148D01*
X122798253Y-83003543D01*
X122812395Y-82989400D01*
X122798253Y-82975258D01*
X122977858Y-82795653D01*
X122992000Y-82809795D01*
X123006143Y-82795653D01*
X123185748Y-82975258D01*
G37*
X123185748Y-82975258D02*
X123171605Y-82989400D01*
X123185748Y-83003543D01*
X123006143Y-83183148D01*
X122992000Y-83169005D01*
X122977858Y-83183148D01*
X122798253Y-83003543D01*
X122812395Y-82989400D01*
X122798253Y-82975258D01*
X122977858Y-82795653D01*
X122992000Y-82809795D01*
X123006143Y-82795653D01*
X123185748Y-82975258D01*
G36*
X133345748Y-82975258D02*
G01*
X133331605Y-82989400D01*
X133345748Y-83003543D01*
X133166143Y-83183148D01*
X133152000Y-83169005D01*
X133137858Y-83183148D01*
X132958253Y-83003543D01*
X132972395Y-82989400D01*
X132958253Y-82975258D01*
X133137858Y-82795653D01*
X133152000Y-82809795D01*
X133166143Y-82795653D01*
X133345748Y-82975258D01*
G37*
X133345748Y-82975258D02*
X133331605Y-82989400D01*
X133345748Y-83003543D01*
X133166143Y-83183148D01*
X133152000Y-83169005D01*
X133137858Y-83183148D01*
X132958253Y-83003543D01*
X132972395Y-82989400D01*
X132958253Y-82975258D01*
X133137858Y-82795653D01*
X133152000Y-82809795D01*
X133166143Y-82795653D01*
X133345748Y-82975258D01*
G36*
X138850000Y-66493283D02*
G01*
X138639490Y-66406086D01*
X138369592Y-66352400D01*
X138094408Y-66352400D01*
X137824510Y-66406086D01*
X137570273Y-66511395D01*
X137341465Y-66664280D01*
X137146880Y-66858865D01*
X136993995Y-67087673D01*
X136962000Y-67164915D01*
X136930005Y-67087673D01*
X136777120Y-66858865D01*
X136582535Y-66664280D01*
X136353727Y-66511395D01*
X136099490Y-66406086D01*
X135829592Y-66352400D01*
X135554408Y-66352400D01*
X135284510Y-66406086D01*
X135030273Y-66511395D01*
X134801465Y-66664280D01*
X134606880Y-66858865D01*
X134453995Y-67087673D01*
X134422000Y-67164915D01*
X134390005Y-67087673D01*
X134237120Y-66858865D01*
X134042535Y-66664280D01*
X133813727Y-66511395D01*
X133559490Y-66406086D01*
X133289592Y-66352400D01*
X133014408Y-66352400D01*
X132744510Y-66406086D01*
X132490273Y-66511395D01*
X132261465Y-66664280D01*
X132066880Y-66858865D01*
X131913995Y-67087673D01*
X131884308Y-67159343D01*
X131879636Y-67146377D01*
X131817656Y-67030420D01*
X131577565Y-66963440D01*
X130791605Y-67749400D01*
X130805748Y-67763543D01*
X130626143Y-67943148D01*
X130612000Y-67929005D01*
X130597858Y-67943148D01*
X130418253Y-67763543D01*
X130432395Y-67749400D01*
X130418253Y-67735258D01*
X130597858Y-67555653D01*
X130612000Y-67569795D01*
X131397960Y-66783835D01*
X131330980Y-66543744D01*
X131081952Y-66426644D01*
X130814865Y-66360377D01*
X130539983Y-66347490D01*
X130267867Y-66388478D01*
X130180000Y-66420139D01*
X130180000Y-58169330D01*
X137474353Y-50874978D01*
X137503422Y-50851122D01*
X137598645Y-50735092D01*
X137669402Y-50602715D01*
X137712974Y-50459078D01*
X137724000Y-50347126D01*
X137724000Y-50347124D01*
X137727686Y-50309701D01*
X137724000Y-50272278D01*
X137724000Y-48731081D01*
X137824510Y-48772714D01*
X138094408Y-48826400D01*
X138369592Y-48826400D01*
X138639490Y-48772714D01*
X138850001Y-48685517D01*
X138850000Y-66493283D01*
G37*
X138850000Y-66493283D02*
X138639490Y-66406086D01*
X138369592Y-66352400D01*
X138094408Y-66352400D01*
X137824510Y-66406086D01*
X137570273Y-66511395D01*
X137341465Y-66664280D01*
X137146880Y-66858865D01*
X136993995Y-67087673D01*
X136962000Y-67164915D01*
X136930005Y-67087673D01*
X136777120Y-66858865D01*
X136582535Y-66664280D01*
X136353727Y-66511395D01*
X136099490Y-66406086D01*
X135829592Y-66352400D01*
X135554408Y-66352400D01*
X135284510Y-66406086D01*
X135030273Y-66511395D01*
X134801465Y-66664280D01*
X134606880Y-66858865D01*
X134453995Y-67087673D01*
X134422000Y-67164915D01*
X134390005Y-67087673D01*
X134237120Y-66858865D01*
X134042535Y-66664280D01*
X133813727Y-66511395D01*
X133559490Y-66406086D01*
X133289592Y-66352400D01*
X133014408Y-66352400D01*
X132744510Y-66406086D01*
X132490273Y-66511395D01*
X132261465Y-66664280D01*
X132066880Y-66858865D01*
X131913995Y-67087673D01*
X131884308Y-67159343D01*
X131879636Y-67146377D01*
X131817656Y-67030420D01*
X131577565Y-66963440D01*
X130791605Y-67749400D01*
X130805748Y-67763543D01*
X130626143Y-67943148D01*
X130612000Y-67929005D01*
X130597858Y-67943148D01*
X130418253Y-67763543D01*
X130432395Y-67749400D01*
X130418253Y-67735258D01*
X130597858Y-67555653D01*
X130612000Y-67569795D01*
X131397960Y-66783835D01*
X131330980Y-66543744D01*
X131081952Y-66426644D01*
X130814865Y-66360377D01*
X130539983Y-66347490D01*
X130267867Y-66388478D01*
X130180000Y-66420139D01*
X130180000Y-58169330D01*
X137474353Y-50874978D01*
X137503422Y-50851122D01*
X137598645Y-50735092D01*
X137669402Y-50602715D01*
X137712974Y-50459078D01*
X137724000Y-50347126D01*
X137724000Y-50347124D01*
X137727686Y-50309701D01*
X137724000Y-50272278D01*
X137724000Y-48731081D01*
X137824510Y-48772714D01*
X138094408Y-48826400D01*
X138369592Y-48826400D01*
X138639490Y-48772714D01*
X138850001Y-48685517D01*
X138850000Y-66493283D01*
G36*
X171379000Y-67622400D02*
G01*
X171399000Y-67622400D01*
X171399000Y-67876400D01*
X171379000Y-67876400D01*
X171379000Y-67896400D01*
X171125000Y-67896400D01*
X171125000Y-67876400D01*
X171105000Y-67876400D01*
X171105000Y-67622400D01*
X171125000Y-67622400D01*
X171125000Y-67602400D01*
X171379000Y-67602400D01*
X171379000Y-67622400D01*
G37*
X171379000Y-67622400D02*
X171399000Y-67622400D01*
X171399000Y-67876400D01*
X171379000Y-67876400D01*
X171379000Y-67896400D01*
X171125000Y-67896400D01*
X171125000Y-67876400D01*
X171105000Y-67876400D01*
X171105000Y-67622400D01*
X171125000Y-67622400D01*
X171125000Y-67602400D01*
X171379000Y-67602400D01*
X171379000Y-67622400D01*
%TD*%
M02*
