%TF.GenerationSoftware,KiCad,Pcbnew,(5.1.6)-1*%
%TF.CreationDate,2020-10-07T23:45:21+02:00*%
%TF.ProjectId,RPI_FEATHER,5250495f-4645-4415-9448-45522e6b6963,rev?*%
%TF.SameCoordinates,Original*%
%TF.FileFunction,Legend,Top*%
%TF.FilePolarity,Positive*%
%FSLAX46Y46*%
G04 Gerber Fmt 4.6, Leading zero omitted, Abs format (unit mm)*
G04 Created by KiCad (PCBNEW (5.1.6)-1) date 2020-10-07 23:45:21*
%MOMM*%
%LPD*%
G01*
G04 APERTURE LIST*
%ADD10C,0.150000*%
%ADD11C,0.100000*%
%ADD12C,0.120000*%
G04 APERTURE END LIST*
D10*
X113609880Y-82425800D02*
X113409880Y-81949610D01*
X113267022Y-82425800D02*
X113267022Y-81425800D01*
X113495594Y-81425800D01*
X113552737Y-81473420D01*
X113581308Y-81521039D01*
X113609880Y-81616277D01*
X113609880Y-81759134D01*
X113581308Y-81854372D01*
X113552737Y-81901991D01*
X113495594Y-81949610D01*
X113267022Y-81949610D01*
X113867022Y-82425800D02*
X113867022Y-81425800D01*
X114095594Y-81425800D01*
X114152737Y-81473420D01*
X114181308Y-81521039D01*
X114209880Y-81616277D01*
X114209880Y-81759134D01*
X114181308Y-81854372D01*
X114152737Y-81901991D01*
X114095594Y-81949610D01*
X113867022Y-81949610D01*
X114467022Y-82425800D02*
X114467022Y-81759134D01*
X114467022Y-81425800D02*
X114438451Y-81473420D01*
X114467022Y-81521039D01*
X114495594Y-81473420D01*
X114467022Y-81425800D01*
X114467022Y-81521039D01*
X115324165Y-81425800D02*
X115381308Y-81425800D01*
X115438451Y-81473420D01*
X115467022Y-81521039D01*
X115495594Y-81616277D01*
X115524165Y-81806753D01*
X115524165Y-82044848D01*
X115495594Y-82235324D01*
X115467022Y-82330562D01*
X115438451Y-82378181D01*
X115381308Y-82425800D01*
X115324165Y-82425800D01*
X115267022Y-82378181D01*
X115238451Y-82330562D01*
X115209880Y-82235324D01*
X115181308Y-82044848D01*
X115181308Y-81806753D01*
X115209880Y-81616277D01*
X115238451Y-81521039D01*
X115267022Y-81473420D01*
X115324165Y-81425800D01*
X115867022Y-81425800D02*
X115809880Y-81473420D01*
X115781308Y-81568658D01*
X115809880Y-81663896D01*
X115867022Y-81711515D01*
X115924165Y-81663896D01*
X115952737Y-81568658D01*
X115924165Y-81473420D01*
X115867022Y-81425800D01*
X116387880Y-87307420D02*
X167695880Y-87307420D01*
X158237594Y-88283800D02*
X158294737Y-88283800D01*
X158351880Y-88331420D01*
X158380451Y-88379039D01*
X158409022Y-88474277D01*
X158437594Y-88664753D01*
X158437594Y-88902848D01*
X158409022Y-89093324D01*
X158380451Y-89188562D01*
X158351880Y-89236181D01*
X158294737Y-89283800D01*
X158237594Y-89283800D01*
X158180451Y-89236181D01*
X158151880Y-89188562D01*
X158123308Y-89093324D01*
X158094737Y-88902848D01*
X158094737Y-88664753D01*
X158123308Y-88474277D01*
X158151880Y-88379039D01*
X158180451Y-88331420D01*
X158237594Y-88283800D01*
X158951880Y-88617134D02*
X158951880Y-89283800D01*
X158809022Y-88236181D02*
X158666165Y-88950467D01*
X159037594Y-88950467D01*
X153271880Y-88759991D02*
X153071880Y-88759991D01*
X153071880Y-89283800D02*
X153071880Y-88283800D01*
X153357594Y-88283800D01*
X153871880Y-88283800D02*
X153586165Y-88283800D01*
X153557594Y-88759991D01*
X153586165Y-88712372D01*
X153643308Y-88664753D01*
X153786165Y-88664753D01*
X153843308Y-88712372D01*
X153871880Y-88759991D01*
X153900451Y-88855229D01*
X153900451Y-89093324D01*
X153871880Y-89188562D01*
X153843308Y-89236181D01*
X153786165Y-89283800D01*
X153643308Y-89283800D01*
X153586165Y-89236181D01*
X153557594Y-89188562D01*
X150731880Y-88759991D02*
X150531880Y-88759991D01*
X150531880Y-89283800D02*
X150531880Y-88283800D01*
X150817594Y-88283800D01*
X151303308Y-88283800D02*
X151189022Y-88283800D01*
X151131880Y-88331420D01*
X151103308Y-88379039D01*
X151046165Y-88521896D01*
X151017594Y-88712372D01*
X151017594Y-89093324D01*
X151046165Y-89188562D01*
X151074737Y-89236181D01*
X151131880Y-89283800D01*
X151246165Y-89283800D01*
X151303308Y-89236181D01*
X151331880Y-89188562D01*
X151360451Y-89093324D01*
X151360451Y-88855229D01*
X151331880Y-88759991D01*
X151303308Y-88712372D01*
X151246165Y-88664753D01*
X151131880Y-88664753D01*
X151074737Y-88712372D01*
X151046165Y-88759991D01*
X151017594Y-88855229D01*
X148191880Y-88759991D02*
X147991880Y-88759991D01*
X147991880Y-89283800D02*
X147991880Y-88283800D01*
X148277594Y-88283800D01*
X148534737Y-89283800D02*
X148649022Y-89283800D01*
X148706165Y-89236181D01*
X148734737Y-89188562D01*
X148791880Y-89045705D01*
X148820451Y-88855229D01*
X148820451Y-88474277D01*
X148791880Y-88379039D01*
X148763308Y-88331420D01*
X148706165Y-88283800D01*
X148591880Y-88283800D01*
X148534737Y-88331420D01*
X148506165Y-88379039D01*
X148477594Y-88474277D01*
X148477594Y-88712372D01*
X148506165Y-88807610D01*
X148534737Y-88855229D01*
X148591880Y-88902848D01*
X148706165Y-88902848D01*
X148763308Y-88855229D01*
X148791880Y-88807610D01*
X148820451Y-88712372D01*
X145223308Y-88283800D02*
X145594737Y-88283800D01*
X145394737Y-88664753D01*
X145480451Y-88664753D01*
X145537594Y-88712372D01*
X145566165Y-88759991D01*
X145594737Y-88855229D01*
X145594737Y-89093324D01*
X145566165Y-89188562D01*
X145537594Y-89236181D01*
X145480451Y-89283800D01*
X145309022Y-89283800D01*
X145251880Y-89236181D01*
X145223308Y-89188562D01*
X145851880Y-89188562D02*
X145880451Y-89236181D01*
X145851880Y-89283800D01*
X145823308Y-89236181D01*
X145851880Y-89188562D01*
X145851880Y-89283800D01*
X146080451Y-88283800D02*
X146451880Y-88283800D01*
X146251880Y-88664753D01*
X146337594Y-88664753D01*
X146394737Y-88712372D01*
X146423308Y-88759991D01*
X146451880Y-88855229D01*
X146451880Y-89093324D01*
X146423308Y-89188562D01*
X146394737Y-89236181D01*
X146337594Y-89283800D01*
X146166165Y-89283800D01*
X146109022Y-89236181D01*
X146080451Y-89188562D01*
X142369022Y-89283800D02*
X142369022Y-88283800D01*
X142569022Y-88998086D01*
X142769022Y-88283800D01*
X142769022Y-89283800D01*
X143169022Y-88283800D02*
X143283308Y-88283800D01*
X143340451Y-88331420D01*
X143397594Y-88426658D01*
X143426165Y-88617134D01*
X143426165Y-88950467D01*
X143397594Y-89140943D01*
X143340451Y-89236181D01*
X143283308Y-89283800D01*
X143169022Y-89283800D01*
X143111880Y-89236181D01*
X143054737Y-89140943D01*
X143026165Y-88950467D01*
X143026165Y-88617134D01*
X143054737Y-88426658D01*
X143111880Y-88331420D01*
X143169022Y-88283800D01*
X143654737Y-89236181D02*
X143740451Y-89283800D01*
X143883308Y-89283800D01*
X143940451Y-89236181D01*
X143969022Y-89188562D01*
X143997594Y-89093324D01*
X143997594Y-88998086D01*
X143969022Y-88902848D01*
X143940451Y-88855229D01*
X143883308Y-88807610D01*
X143769022Y-88759991D01*
X143711880Y-88712372D01*
X143683308Y-88664753D01*
X143654737Y-88569515D01*
X143654737Y-88474277D01*
X143683308Y-88379039D01*
X143711880Y-88331420D01*
X143769022Y-88283800D01*
X143911880Y-88283800D01*
X143997594Y-88331420D01*
X144254737Y-89283800D02*
X144254737Y-88283800D01*
X139829022Y-89283800D02*
X139829022Y-88283800D01*
X140029022Y-88998086D01*
X140229022Y-88283800D01*
X140229022Y-89283800D01*
X140514737Y-89283800D02*
X140514737Y-88283800D01*
X140771880Y-89236181D02*
X140857594Y-89283800D01*
X141000451Y-89283800D01*
X141057594Y-89236181D01*
X141086165Y-89188562D01*
X141114737Y-89093324D01*
X141114737Y-88998086D01*
X141086165Y-88902848D01*
X141057594Y-88855229D01*
X141000451Y-88807610D01*
X140886165Y-88759991D01*
X140829022Y-88712372D01*
X140800451Y-88664753D01*
X140771880Y-88569515D01*
X140771880Y-88474277D01*
X140800451Y-88379039D01*
X140829022Y-88331420D01*
X140886165Y-88283800D01*
X141029022Y-88283800D01*
X141114737Y-88331420D01*
X141486165Y-88283800D02*
X141600451Y-88283800D01*
X141657594Y-88331420D01*
X141714737Y-88426658D01*
X141743308Y-88617134D01*
X141743308Y-88950467D01*
X141714737Y-89140943D01*
X141657594Y-89236181D01*
X141600451Y-89283800D01*
X141486165Y-89283800D01*
X141429022Y-89236181D01*
X141371880Y-89140943D01*
X141343308Y-88950467D01*
X141343308Y-88617134D01*
X141371880Y-88426658D01*
X141429022Y-88331420D01*
X141486165Y-88283800D01*
X137460451Y-89236181D02*
X137546165Y-89283800D01*
X137689022Y-89283800D01*
X137746165Y-89236181D01*
X137774737Y-89188562D01*
X137803308Y-89093324D01*
X137803308Y-88998086D01*
X137774737Y-88902848D01*
X137746165Y-88855229D01*
X137689022Y-88807610D01*
X137574737Y-88759991D01*
X137517594Y-88712372D01*
X137489022Y-88664753D01*
X137460451Y-88569515D01*
X137460451Y-88474277D01*
X137489022Y-88379039D01*
X137517594Y-88331420D01*
X137574737Y-88283800D01*
X137717594Y-88283800D01*
X137803308Y-88331420D01*
X138403308Y-89188562D02*
X138374737Y-89236181D01*
X138289022Y-89283800D01*
X138231880Y-89283800D01*
X138146165Y-89236181D01*
X138089022Y-89140943D01*
X138060451Y-89045705D01*
X138031880Y-88855229D01*
X138031880Y-88712372D01*
X138060451Y-88521896D01*
X138089022Y-88426658D01*
X138146165Y-88331420D01*
X138231880Y-88283800D01*
X138289022Y-88283800D01*
X138374737Y-88331420D01*
X138403308Y-88379039D01*
X138660451Y-89283800D02*
X138660451Y-88283800D01*
X139003308Y-89283800D02*
X138746165Y-88712372D01*
X139003308Y-88283800D02*
X138660451Y-88855229D01*
X130297594Y-88283800D02*
X130354737Y-88283800D01*
X130411880Y-88331420D01*
X130440451Y-88379039D01*
X130469022Y-88474277D01*
X130497594Y-88664753D01*
X130497594Y-88902848D01*
X130469022Y-89093324D01*
X130440451Y-89188562D01*
X130411880Y-89236181D01*
X130354737Y-89283800D01*
X130297594Y-89283800D01*
X130240451Y-89236181D01*
X130211880Y-89188562D01*
X130183308Y-89093324D01*
X130154737Y-88902848D01*
X130154737Y-88664753D01*
X130183308Y-88474277D01*
X130211880Y-88379039D01*
X130240451Y-88331420D01*
X130297594Y-88283800D01*
X131040451Y-88283800D02*
X130754737Y-88283800D01*
X130726165Y-88759991D01*
X130754737Y-88712372D01*
X130811880Y-88664753D01*
X130954737Y-88664753D01*
X131011880Y-88712372D01*
X131040451Y-88759991D01*
X131069022Y-88855229D01*
X131069022Y-89093324D01*
X131040451Y-89188562D01*
X131011880Y-89236181D01*
X130954737Y-89283800D01*
X130811880Y-89283800D01*
X130754737Y-89236181D01*
X130726165Y-89188562D01*
X127757594Y-88283800D02*
X127814737Y-88283800D01*
X127871880Y-88331420D01*
X127900451Y-88379039D01*
X127929022Y-88474277D01*
X127957594Y-88664753D01*
X127957594Y-88902848D01*
X127929022Y-89093324D01*
X127900451Y-89188562D01*
X127871880Y-89236181D01*
X127814737Y-89283800D01*
X127757594Y-89283800D01*
X127700451Y-89236181D01*
X127671880Y-89188562D01*
X127643308Y-89093324D01*
X127614737Y-88902848D01*
X127614737Y-88664753D01*
X127643308Y-88474277D01*
X127671880Y-88379039D01*
X127700451Y-88331420D01*
X127757594Y-88283800D01*
X128471880Y-88283800D02*
X128357594Y-88283800D01*
X128300451Y-88331420D01*
X128271880Y-88379039D01*
X128214737Y-88521896D01*
X128186165Y-88712372D01*
X128186165Y-89093324D01*
X128214737Y-89188562D01*
X128243308Y-89236181D01*
X128300451Y-89283800D01*
X128414737Y-89283800D01*
X128471880Y-89236181D01*
X128500451Y-89188562D01*
X128529022Y-89093324D01*
X128529022Y-88855229D01*
X128500451Y-88759991D01*
X128471880Y-88712372D01*
X128414737Y-88664753D01*
X128300451Y-88664753D01*
X128243308Y-88712372D01*
X128214737Y-88759991D01*
X128186165Y-88855229D01*
X125417594Y-89283800D02*
X125074737Y-89283800D01*
X125246165Y-89283800D02*
X125246165Y-88283800D01*
X125189022Y-88426658D01*
X125131880Y-88521896D01*
X125074737Y-88569515D01*
X125617594Y-88283800D02*
X125989022Y-88283800D01*
X125789022Y-88664753D01*
X125874737Y-88664753D01*
X125931880Y-88712372D01*
X125960451Y-88759991D01*
X125989022Y-88855229D01*
X125989022Y-89093324D01*
X125960451Y-89188562D01*
X125931880Y-89236181D01*
X125874737Y-89283800D01*
X125703308Y-89283800D01*
X125646165Y-89236181D01*
X125617594Y-89188562D01*
X122877594Y-89283800D02*
X122534737Y-89283800D01*
X122706165Y-89283800D02*
X122706165Y-88283800D01*
X122649022Y-88426658D01*
X122591880Y-88521896D01*
X122534737Y-88569515D01*
X123163308Y-89283800D02*
X123277594Y-89283800D01*
X123334737Y-89236181D01*
X123363308Y-89188562D01*
X123420451Y-89045705D01*
X123449022Y-88855229D01*
X123449022Y-88474277D01*
X123420451Y-88379039D01*
X123391880Y-88331420D01*
X123334737Y-88283800D01*
X123220451Y-88283800D01*
X123163308Y-88331420D01*
X123134737Y-88379039D01*
X123106165Y-88474277D01*
X123106165Y-88712372D01*
X123134737Y-88807610D01*
X123163308Y-88855229D01*
X123220451Y-88902848D01*
X123334737Y-88902848D01*
X123391880Y-88855229D01*
X123420451Y-88807610D01*
X123449022Y-88712372D01*
X119994737Y-88379039D02*
X120023308Y-88331420D01*
X120080451Y-88283800D01*
X120223308Y-88283800D01*
X120280451Y-88331420D01*
X120309022Y-88379039D01*
X120337594Y-88474277D01*
X120337594Y-88569515D01*
X120309022Y-88712372D01*
X119966165Y-89283800D01*
X120337594Y-89283800D01*
X120851880Y-88283800D02*
X120737594Y-88283800D01*
X120680451Y-88331420D01*
X120651880Y-88379039D01*
X120594737Y-88521896D01*
X120566165Y-88712372D01*
X120566165Y-89093324D01*
X120594737Y-89188562D01*
X120623308Y-89236181D01*
X120680451Y-89283800D01*
X120794737Y-89283800D01*
X120851880Y-89236181D01*
X120880451Y-89188562D01*
X120909022Y-89093324D01*
X120909022Y-88855229D01*
X120880451Y-88759991D01*
X120851880Y-88712372D01*
X120794737Y-88664753D01*
X120680451Y-88664753D01*
X120623308Y-88712372D01*
X120594737Y-88759991D01*
X120566165Y-88855229D01*
X117454737Y-94729039D02*
X117483308Y-94681420D01*
X117540451Y-94633800D01*
X117683308Y-94633800D01*
X117740451Y-94681420D01*
X117769022Y-94729039D01*
X117797594Y-94824277D01*
X117797594Y-94919515D01*
X117769022Y-95062372D01*
X117426165Y-95633800D01*
X117797594Y-95633800D01*
X118369022Y-95633800D02*
X118026165Y-95633800D01*
X118197594Y-95633800D02*
X118197594Y-94633800D01*
X118140451Y-94776658D01*
X118083308Y-94871896D01*
X118026165Y-94919515D01*
X119994737Y-94729039D02*
X120023308Y-94681420D01*
X120080451Y-94633800D01*
X120223308Y-94633800D01*
X120280451Y-94681420D01*
X120309022Y-94729039D01*
X120337594Y-94824277D01*
X120337594Y-94919515D01*
X120309022Y-95062372D01*
X119966165Y-95633800D01*
X120337594Y-95633800D01*
X120709022Y-94633800D02*
X120766165Y-94633800D01*
X120823308Y-94681420D01*
X120851880Y-94729039D01*
X120880451Y-94824277D01*
X120909022Y-95014753D01*
X120909022Y-95252848D01*
X120880451Y-95443324D01*
X120851880Y-95538562D01*
X120823308Y-95586181D01*
X120766165Y-95633800D01*
X120709022Y-95633800D01*
X120651880Y-95586181D01*
X120623308Y-95538562D01*
X120594737Y-95443324D01*
X120566165Y-95252848D01*
X120566165Y-95014753D01*
X120594737Y-94824277D01*
X120623308Y-94729039D01*
X120651880Y-94681420D01*
X120709022Y-94633800D01*
X122877594Y-95633800D02*
X122534737Y-95633800D01*
X122706165Y-95633800D02*
X122706165Y-94633800D01*
X122649022Y-94776658D01*
X122591880Y-94871896D01*
X122534737Y-94919515D01*
X123391880Y-94633800D02*
X123277594Y-94633800D01*
X123220451Y-94681420D01*
X123191880Y-94729039D01*
X123134737Y-94871896D01*
X123106165Y-95062372D01*
X123106165Y-95443324D01*
X123134737Y-95538562D01*
X123163308Y-95586181D01*
X123220451Y-95633800D01*
X123334737Y-95633800D01*
X123391880Y-95586181D01*
X123420451Y-95538562D01*
X123449022Y-95443324D01*
X123449022Y-95205229D01*
X123420451Y-95109991D01*
X123391880Y-95062372D01*
X123334737Y-95014753D01*
X123220451Y-95014753D01*
X123163308Y-95062372D01*
X123134737Y-95109991D01*
X123106165Y-95205229D01*
X127957594Y-95633800D02*
X127614737Y-95633800D01*
X127786165Y-95633800D02*
X127786165Y-94633800D01*
X127729022Y-94776658D01*
X127671880Y-94871896D01*
X127614737Y-94919515D01*
X128186165Y-94729039D02*
X128214737Y-94681420D01*
X128271880Y-94633800D01*
X128414737Y-94633800D01*
X128471880Y-94681420D01*
X128500451Y-94729039D01*
X128529022Y-94824277D01*
X128529022Y-94919515D01*
X128500451Y-95062372D01*
X128157594Y-95633800D01*
X128529022Y-95633800D01*
X137746165Y-95109991D02*
X137546165Y-95109991D01*
X137546165Y-95633800D02*
X137546165Y-94633800D01*
X137831880Y-94633800D01*
X138374737Y-95633800D02*
X138031880Y-95633800D01*
X138203308Y-95633800D02*
X138203308Y-94633800D01*
X138146165Y-94776658D01*
X138089022Y-94871896D01*
X138031880Y-94919515D01*
X138574737Y-94633800D02*
X138946165Y-94633800D01*
X138746165Y-95014753D01*
X138831880Y-95014753D01*
X138889022Y-95062372D01*
X138917594Y-95109991D01*
X138946165Y-95205229D01*
X138946165Y-95443324D01*
X138917594Y-95538562D01*
X138889022Y-95586181D01*
X138831880Y-95633800D01*
X138660451Y-95633800D01*
X138603308Y-95586181D01*
X138574737Y-95538562D01*
X140286165Y-95109991D02*
X140086165Y-95109991D01*
X140086165Y-95633800D02*
X140086165Y-94633800D01*
X140371880Y-94633800D01*
X140914737Y-95633800D02*
X140571880Y-95633800D01*
X140743308Y-95633800D02*
X140743308Y-94633800D01*
X140686165Y-94776658D01*
X140629022Y-94871896D01*
X140571880Y-94919515D01*
X141143308Y-94729039D02*
X141171880Y-94681420D01*
X141229022Y-94633800D01*
X141371880Y-94633800D01*
X141429022Y-94681420D01*
X141457594Y-94729039D01*
X141486165Y-94824277D01*
X141486165Y-94919515D01*
X141457594Y-95062372D01*
X141114737Y-95633800D01*
X141486165Y-95633800D01*
X142854737Y-94681420D02*
X142797594Y-94633800D01*
X142711880Y-94633800D01*
X142626165Y-94681420D01*
X142569022Y-94776658D01*
X142540451Y-94871896D01*
X142511880Y-95062372D01*
X142511880Y-95205229D01*
X142540451Y-95395705D01*
X142569022Y-95490943D01*
X142626165Y-95586181D01*
X142711880Y-95633800D01*
X142769022Y-95633800D01*
X142854737Y-95586181D01*
X142883308Y-95538562D01*
X142883308Y-95205229D01*
X142769022Y-95205229D01*
X143140451Y-95633800D02*
X143140451Y-94633800D01*
X143483308Y-95633800D01*
X143483308Y-94633800D01*
X143769022Y-95633800D02*
X143769022Y-94633800D01*
X143911880Y-94633800D01*
X143997594Y-94681420D01*
X144054737Y-94776658D01*
X144083308Y-94871896D01*
X144111880Y-95062372D01*
X144111880Y-95205229D01*
X144083308Y-95395705D01*
X144054737Y-95490943D01*
X143997594Y-95586181D01*
X143911880Y-95633800D01*
X143769022Y-95633800D01*
X145366165Y-95109991D02*
X145166165Y-95109991D01*
X145166165Y-95633800D02*
X145166165Y-94633800D01*
X145451880Y-94633800D01*
X145994737Y-95633800D02*
X145651880Y-95633800D01*
X145823308Y-95633800D02*
X145823308Y-94633800D01*
X145766165Y-94776658D01*
X145709022Y-94871896D01*
X145651880Y-94919515D01*
X146566165Y-95633800D02*
X146223308Y-95633800D01*
X146394737Y-95633800D02*
X146394737Y-94633800D01*
X146337594Y-94776658D01*
X146280451Y-94871896D01*
X146223308Y-94919515D01*
X147934737Y-94729039D02*
X147963308Y-94681420D01*
X148020451Y-94633800D01*
X148163308Y-94633800D01*
X148220451Y-94681420D01*
X148249022Y-94729039D01*
X148277594Y-94824277D01*
X148277594Y-94919515D01*
X148249022Y-95062372D01*
X147906165Y-95633800D01*
X148277594Y-95633800D01*
X148477594Y-94633800D02*
X148849022Y-94633800D01*
X148649022Y-95014753D01*
X148734737Y-95014753D01*
X148791880Y-95062372D01*
X148820451Y-95109991D01*
X148849022Y-95205229D01*
X148849022Y-95443324D01*
X148820451Y-95538562D01*
X148791880Y-95586181D01*
X148734737Y-95633800D01*
X148563308Y-95633800D01*
X148506165Y-95586181D01*
X148477594Y-95538562D01*
X153357594Y-95633800D02*
X153014737Y-95633800D01*
X153186165Y-95633800D02*
X153186165Y-94633800D01*
X153129022Y-94776658D01*
X153071880Y-94871896D01*
X153014737Y-94919515D01*
X153700451Y-95062372D02*
X153643308Y-95014753D01*
X153614737Y-94967134D01*
X153586165Y-94871896D01*
X153586165Y-94824277D01*
X153614737Y-94729039D01*
X153643308Y-94681420D01*
X153700451Y-94633800D01*
X153814737Y-94633800D01*
X153871880Y-94681420D01*
X153900451Y-94729039D01*
X153929022Y-94824277D01*
X153929022Y-94871896D01*
X153900451Y-94967134D01*
X153871880Y-95014753D01*
X153814737Y-95062372D01*
X153700451Y-95062372D01*
X153643308Y-95109991D01*
X153614737Y-95157610D01*
X153586165Y-95252848D01*
X153586165Y-95443324D01*
X153614737Y-95538562D01*
X153643308Y-95586181D01*
X153700451Y-95633800D01*
X153814737Y-95633800D01*
X153871880Y-95586181D01*
X153900451Y-95538562D01*
X153929022Y-95443324D01*
X153929022Y-95252848D01*
X153900451Y-95157610D01*
X153871880Y-95109991D01*
X153814737Y-95062372D01*
X155554737Y-94633800D02*
X155897594Y-94633800D01*
X155726165Y-95633800D02*
X155726165Y-94633800D01*
X156040451Y-94633800D02*
X156440451Y-95633800D01*
X156440451Y-94633800D02*
X156040451Y-95633800D01*
X158451880Y-95633800D02*
X158251880Y-95157610D01*
X158109022Y-95633800D02*
X158109022Y-94633800D01*
X158337594Y-94633800D01*
X158394737Y-94681420D01*
X158423308Y-94729039D01*
X158451880Y-94824277D01*
X158451880Y-94967134D01*
X158423308Y-95062372D01*
X158394737Y-95109991D01*
X158337594Y-95157610D01*
X158109022Y-95157610D01*
X158651880Y-94633800D02*
X159051880Y-95633800D01*
X159051880Y-94633800D02*
X158651880Y-95633800D01*
X165543308Y-88283800D02*
X165914737Y-88283800D01*
X165714737Y-88664753D01*
X165800451Y-88664753D01*
X165857594Y-88712372D01*
X165886165Y-88759991D01*
X165914737Y-88855229D01*
X165914737Y-89093324D01*
X165886165Y-89188562D01*
X165857594Y-89236181D01*
X165800451Y-89283800D01*
X165629022Y-89283800D01*
X165571880Y-89236181D01*
X165543308Y-89188562D01*
X166171880Y-89188562D02*
X166200451Y-89236181D01*
X166171880Y-89283800D01*
X166143308Y-89236181D01*
X166171880Y-89188562D01*
X166171880Y-89283800D01*
X166400451Y-88283800D02*
X166771880Y-88283800D01*
X166571880Y-88664753D01*
X166657594Y-88664753D01*
X166714737Y-88712372D01*
X166743308Y-88759991D01*
X166771880Y-88855229D01*
X166771880Y-89093324D01*
X166743308Y-89188562D01*
X166714737Y-89236181D01*
X166657594Y-89283800D01*
X166486165Y-89283800D01*
X166429022Y-89236181D01*
X166400451Y-89188562D01*
X166086165Y-94633800D02*
X165800451Y-94633800D01*
X165771880Y-95109991D01*
X165800451Y-95062372D01*
X165857594Y-95014753D01*
X166000451Y-95014753D01*
X166057594Y-95062372D01*
X166086165Y-95109991D01*
X166114737Y-95205229D01*
X166114737Y-95443324D01*
X166086165Y-95538562D01*
X166057594Y-95586181D01*
X166000451Y-95633800D01*
X165857594Y-95633800D01*
X165800451Y-95586181D01*
X165771880Y-95538562D01*
X166314737Y-94967134D02*
X166457594Y-95633800D01*
X166600451Y-94967134D01*
X163546165Y-94633800D02*
X163260451Y-94633800D01*
X163231880Y-95109991D01*
X163260451Y-95062372D01*
X163317594Y-95014753D01*
X163460451Y-95014753D01*
X163517594Y-95062372D01*
X163546165Y-95109991D01*
X163574737Y-95205229D01*
X163574737Y-95443324D01*
X163546165Y-95538562D01*
X163517594Y-95586181D01*
X163460451Y-95633800D01*
X163317594Y-95633800D01*
X163260451Y-95586181D01*
X163231880Y-95538562D01*
X163774737Y-94967134D02*
X163917594Y-95633800D01*
X164060451Y-94967134D01*
X135234737Y-88331420D02*
X135177594Y-88283800D01*
X135091880Y-88283800D01*
X135006165Y-88331420D01*
X134949022Y-88426658D01*
X134920451Y-88521896D01*
X134891880Y-88712372D01*
X134891880Y-88855229D01*
X134920451Y-89045705D01*
X134949022Y-89140943D01*
X135006165Y-89236181D01*
X135091880Y-89283800D01*
X135149022Y-89283800D01*
X135234737Y-89236181D01*
X135263308Y-89188562D01*
X135263308Y-88855229D01*
X135149022Y-88855229D01*
X135520451Y-89283800D02*
X135520451Y-88283800D01*
X135863308Y-89283800D01*
X135863308Y-88283800D01*
X136149022Y-89283800D02*
X136149022Y-88283800D01*
X136291880Y-88283800D01*
X136377594Y-88331420D01*
X136434737Y-88426658D01*
X136463308Y-88521896D01*
X136491880Y-88712372D01*
X136491880Y-88855229D01*
X136463308Y-89045705D01*
X136434737Y-89140943D01*
X136377594Y-89236181D01*
X136291880Y-89283800D01*
X136149022Y-89283800D01*
X155554737Y-88331420D02*
X155497594Y-88283800D01*
X155411880Y-88283800D01*
X155326165Y-88331420D01*
X155269022Y-88426658D01*
X155240451Y-88521896D01*
X155211880Y-88712372D01*
X155211880Y-88855229D01*
X155240451Y-89045705D01*
X155269022Y-89140943D01*
X155326165Y-89236181D01*
X155411880Y-89283800D01*
X155469022Y-89283800D01*
X155554737Y-89236181D01*
X155583308Y-89188562D01*
X155583308Y-88855229D01*
X155469022Y-88855229D01*
X155840451Y-89283800D02*
X155840451Y-88283800D01*
X156183308Y-89283800D01*
X156183308Y-88283800D01*
X156469022Y-89283800D02*
X156469022Y-88283800D01*
X156611880Y-88283800D01*
X156697594Y-88331420D01*
X156754737Y-88426658D01*
X156783308Y-88521896D01*
X156811880Y-88712372D01*
X156811880Y-88855229D01*
X156783308Y-89045705D01*
X156754737Y-89140943D01*
X156697594Y-89236181D01*
X156611880Y-89283800D01*
X156469022Y-89283800D01*
X160634737Y-94681420D02*
X160577594Y-94633800D01*
X160491880Y-94633800D01*
X160406165Y-94681420D01*
X160349022Y-94776658D01*
X160320451Y-94871896D01*
X160291880Y-95062372D01*
X160291880Y-95205229D01*
X160320451Y-95395705D01*
X160349022Y-95490943D01*
X160406165Y-95586181D01*
X160491880Y-95633800D01*
X160549022Y-95633800D01*
X160634737Y-95586181D01*
X160663308Y-95538562D01*
X160663308Y-95205229D01*
X160549022Y-95205229D01*
X160920451Y-95633800D02*
X160920451Y-94633800D01*
X161263308Y-95633800D01*
X161263308Y-94633800D01*
X161549022Y-95633800D02*
X161549022Y-94633800D01*
X161691880Y-94633800D01*
X161777594Y-94681420D01*
X161834737Y-94776658D01*
X161863308Y-94871896D01*
X161891880Y-95062372D01*
X161891880Y-95205229D01*
X161863308Y-95395705D01*
X161834737Y-95490943D01*
X161777594Y-95586181D01*
X161691880Y-95633800D01*
X161549022Y-95633800D01*
X150474737Y-94681420D02*
X150417594Y-94633800D01*
X150331880Y-94633800D01*
X150246165Y-94681420D01*
X150189022Y-94776658D01*
X150160451Y-94871896D01*
X150131880Y-95062372D01*
X150131880Y-95205229D01*
X150160451Y-95395705D01*
X150189022Y-95490943D01*
X150246165Y-95586181D01*
X150331880Y-95633800D01*
X150389022Y-95633800D01*
X150474737Y-95586181D01*
X150503308Y-95538562D01*
X150503308Y-95205229D01*
X150389022Y-95205229D01*
X150760451Y-95633800D02*
X150760451Y-94633800D01*
X151103308Y-95633800D01*
X151103308Y-94633800D01*
X151389022Y-95633800D02*
X151389022Y-94633800D01*
X151531880Y-94633800D01*
X151617594Y-94681420D01*
X151674737Y-94776658D01*
X151703308Y-94871896D01*
X151731880Y-95062372D01*
X151731880Y-95205229D01*
X151703308Y-95395705D01*
X151674737Y-95490943D01*
X151617594Y-95586181D01*
X151531880Y-95633800D01*
X151389022Y-95633800D01*
X130154737Y-94681420D02*
X130097594Y-94633800D01*
X130011880Y-94633800D01*
X129926165Y-94681420D01*
X129869022Y-94776658D01*
X129840451Y-94871896D01*
X129811880Y-95062372D01*
X129811880Y-95205229D01*
X129840451Y-95395705D01*
X129869022Y-95490943D01*
X129926165Y-95586181D01*
X130011880Y-95633800D01*
X130069022Y-95633800D01*
X130154737Y-95586181D01*
X130183308Y-95538562D01*
X130183308Y-95205229D01*
X130069022Y-95205229D01*
X130440451Y-95633800D02*
X130440451Y-94633800D01*
X130783308Y-95633800D01*
X130783308Y-94633800D01*
X131069022Y-95633800D02*
X131069022Y-94633800D01*
X131211880Y-94633800D01*
X131297594Y-94681420D01*
X131354737Y-94776658D01*
X131383308Y-94871896D01*
X131411880Y-95062372D01*
X131411880Y-95205229D01*
X131383308Y-95395705D01*
X131354737Y-95490943D01*
X131297594Y-95586181D01*
X131211880Y-95633800D01*
X131069022Y-95633800D01*
X125074737Y-94681420D02*
X125017594Y-94633800D01*
X124931880Y-94633800D01*
X124846165Y-94681420D01*
X124789022Y-94776658D01*
X124760451Y-94871896D01*
X124731880Y-95062372D01*
X124731880Y-95205229D01*
X124760451Y-95395705D01*
X124789022Y-95490943D01*
X124846165Y-95586181D01*
X124931880Y-95633800D01*
X124989022Y-95633800D01*
X125074737Y-95586181D01*
X125103308Y-95538562D01*
X125103308Y-95205229D01*
X124989022Y-95205229D01*
X125360451Y-95633800D02*
X125360451Y-94633800D01*
X125703308Y-95633800D01*
X125703308Y-94633800D01*
X125989022Y-95633800D02*
X125989022Y-94633800D01*
X126131880Y-94633800D01*
X126217594Y-94681420D01*
X126274737Y-94776658D01*
X126303308Y-94871896D01*
X126331880Y-95062372D01*
X126331880Y-95205229D01*
X126303308Y-95395705D01*
X126274737Y-95490943D01*
X126217594Y-95586181D01*
X126131880Y-95633800D01*
X125989022Y-95633800D01*
X117454737Y-88331420D02*
X117397594Y-88283800D01*
X117311880Y-88283800D01*
X117226165Y-88331420D01*
X117169022Y-88426658D01*
X117140451Y-88521896D01*
X117111880Y-88712372D01*
X117111880Y-88855229D01*
X117140451Y-89045705D01*
X117169022Y-89140943D01*
X117226165Y-89236181D01*
X117311880Y-89283800D01*
X117369022Y-89283800D01*
X117454737Y-89236181D01*
X117483308Y-89188562D01*
X117483308Y-88855229D01*
X117369022Y-88855229D01*
X117740451Y-89283800D02*
X117740451Y-88283800D01*
X118083308Y-89283800D01*
X118083308Y-88283800D01*
X118369022Y-89283800D02*
X118369022Y-88283800D01*
X118511880Y-88283800D01*
X118597594Y-88331420D01*
X118654737Y-88426658D01*
X118683308Y-88521896D01*
X118711880Y-88712372D01*
X118711880Y-88855229D01*
X118683308Y-89045705D01*
X118654737Y-89140943D01*
X118597594Y-89236181D01*
X118511880Y-89283800D01*
X118369022Y-89283800D01*
X113267022Y-91061800D02*
X113067022Y-90585610D01*
X112924165Y-91061800D02*
X112924165Y-90061800D01*
X113152737Y-90061800D01*
X113209880Y-90109420D01*
X113238451Y-90157039D01*
X113267022Y-90252277D01*
X113267022Y-90395134D01*
X113238451Y-90490372D01*
X113209880Y-90537991D01*
X113152737Y-90585610D01*
X112924165Y-90585610D01*
X113524165Y-91061800D02*
X113524165Y-90061800D01*
X113752737Y-90061800D01*
X113809880Y-90109420D01*
X113838451Y-90157039D01*
X113867022Y-90252277D01*
X113867022Y-90395134D01*
X113838451Y-90490372D01*
X113809880Y-90537991D01*
X113752737Y-90585610D01*
X113524165Y-90585610D01*
X114124165Y-91061800D02*
X114124165Y-90395134D01*
X114124165Y-90061800D02*
X114095594Y-90109420D01*
X114124165Y-90157039D01*
X114152737Y-90109420D01*
X114124165Y-90061800D01*
X114124165Y-90157039D01*
X114724165Y-91061800D02*
X114381308Y-91061800D01*
X114552737Y-91061800D02*
X114552737Y-90061800D01*
X114495594Y-90204658D01*
X114438451Y-90299896D01*
X114381308Y-90347515D01*
X115067022Y-90490372D02*
X115009880Y-90442753D01*
X114981308Y-90395134D01*
X114952737Y-90299896D01*
X114952737Y-90252277D01*
X114981308Y-90157039D01*
X115009880Y-90109420D01*
X115067022Y-90061800D01*
X115181308Y-90061800D01*
X115238451Y-90109420D01*
X115267022Y-90157039D01*
X115295594Y-90252277D01*
X115295594Y-90299896D01*
X115267022Y-90395134D01*
X115238451Y-90442753D01*
X115181308Y-90490372D01*
X115067022Y-90490372D01*
X115009880Y-90537991D01*
X114981308Y-90585610D01*
X114952737Y-90680848D01*
X114952737Y-90871324D01*
X114981308Y-90966562D01*
X115009880Y-91014181D01*
X115067022Y-91061800D01*
X115181308Y-91061800D01*
X115238451Y-91014181D01*
X115267022Y-90966562D01*
X115295594Y-90871324D01*
X115295594Y-90680848D01*
X115267022Y-90585610D01*
X115238451Y-90537991D01*
X115181308Y-90490372D01*
X115667022Y-90061800D02*
X115724165Y-90061800D01*
X115781308Y-90109420D01*
X115809880Y-90157039D01*
X115838451Y-90252277D01*
X115867022Y-90442753D01*
X115867022Y-90680848D01*
X115838451Y-90871324D01*
X115809880Y-90966562D01*
X115781308Y-91014181D01*
X115724165Y-91061800D01*
X115667022Y-91061800D01*
X115609880Y-91014181D01*
X115581308Y-90966562D01*
X115552737Y-90871324D01*
X115524165Y-90680848D01*
X115524165Y-90442753D01*
X115552737Y-90252277D01*
X115581308Y-90157039D01*
X115609880Y-90109420D01*
X115667022Y-90061800D01*
X116209880Y-90061800D02*
X116152737Y-90109420D01*
X116124165Y-90204658D01*
X116152737Y-90299896D01*
X116209880Y-90347515D01*
X116267022Y-90299896D01*
X116295594Y-90204658D01*
X116267022Y-90109420D01*
X116209880Y-90061800D01*
X116586260Y-94589134D02*
X115586260Y-94589134D01*
X115586260Y-94360562D01*
X115633880Y-94303420D01*
X115681499Y-94274848D01*
X115776737Y-94246277D01*
X115919594Y-94246277D01*
X116014832Y-94274848D01*
X116062451Y-94303420D01*
X116110070Y-94360562D01*
X116110070Y-94589134D01*
X116586260Y-93989134D02*
X115586260Y-93989134D01*
X116586260Y-93703420D02*
X115586260Y-93703420D01*
X116586260Y-93360562D01*
X115586260Y-93360562D01*
X115919594Y-92817705D02*
X116586260Y-92817705D01*
X115538641Y-92960562D02*
X116252927Y-93103420D01*
X116252927Y-92731991D01*
X115586260Y-92389134D02*
X115586260Y-92331991D01*
X115633880Y-92274848D01*
X115681499Y-92246277D01*
X115776737Y-92217705D01*
X115967213Y-92189134D01*
X116205308Y-92189134D01*
X116395784Y-92217705D01*
X116491022Y-92246277D01*
X116538641Y-92274848D01*
X116586260Y-92331991D01*
X116586260Y-92389134D01*
X116538641Y-92446277D01*
X116491022Y-92474848D01*
X116395784Y-92503420D01*
X116205308Y-92531991D01*
X115967213Y-92531991D01*
X115776737Y-92503420D01*
X115681499Y-92474848D01*
X115633880Y-92446277D01*
X115586260Y-92389134D01*
X168656260Y-91509420D02*
X167656260Y-91509420D01*
X167656260Y-91280848D01*
X167703880Y-91223705D01*
X167751499Y-91195134D01*
X167846737Y-91166562D01*
X167989594Y-91166562D01*
X168084832Y-91195134D01*
X168132451Y-91223705D01*
X168180070Y-91280848D01*
X168180070Y-91509420D01*
X168656260Y-90909420D02*
X167656260Y-90909420D01*
X168656260Y-90623705D02*
X167656260Y-90623705D01*
X168656260Y-90280848D01*
X167656260Y-90280848D01*
X168656260Y-89680848D02*
X168656260Y-90023705D01*
X168656260Y-89852277D02*
X167656260Y-89852277D01*
X167799118Y-89909420D01*
X167894356Y-89966562D01*
X167941975Y-90023705D01*
D11*
X154694737Y-76186324D02*
X154694737Y-76833943D01*
X154718546Y-76910134D01*
X154742356Y-76948229D01*
X154789975Y-76986324D01*
X154885213Y-76986324D01*
X154932832Y-76948229D01*
X154956641Y-76910134D01*
X154980451Y-76833943D01*
X154980451Y-76186324D01*
X155194737Y-76948229D02*
X155242356Y-76986324D01*
X155337594Y-76986324D01*
X155385213Y-76948229D01*
X155409022Y-76872039D01*
X155409022Y-76833943D01*
X155385213Y-76757753D01*
X155337594Y-76719658D01*
X155266165Y-76719658D01*
X155218546Y-76681562D01*
X155194737Y-76605372D01*
X155194737Y-76567277D01*
X155218546Y-76491086D01*
X155266165Y-76452991D01*
X155337594Y-76452991D01*
X155385213Y-76491086D01*
X155813784Y-76948229D02*
X155766165Y-76986324D01*
X155670927Y-76986324D01*
X155623308Y-76948229D01*
X155599499Y-76872039D01*
X155599499Y-76567277D01*
X155623308Y-76491086D01*
X155670927Y-76452991D01*
X155766165Y-76452991D01*
X155813784Y-76491086D01*
X155837594Y-76567277D01*
X155837594Y-76643467D01*
X155599499Y-76719658D01*
X156718546Y-76986324D02*
X156551880Y-76605372D01*
X156432832Y-76986324D02*
X156432832Y-76186324D01*
X156623308Y-76186324D01*
X156670927Y-76224420D01*
X156694737Y-76262515D01*
X156718546Y-76338705D01*
X156718546Y-76452991D01*
X156694737Y-76529181D01*
X156670927Y-76567277D01*
X156623308Y-76605372D01*
X156432832Y-76605372D01*
X156932832Y-76986324D02*
X156932832Y-76186324D01*
X157123308Y-76186324D01*
X157170927Y-76224420D01*
X157194737Y-76262515D01*
X157218546Y-76338705D01*
X157218546Y-76452991D01*
X157194737Y-76529181D01*
X157170927Y-76567277D01*
X157123308Y-76605372D01*
X156932832Y-76605372D01*
X157432832Y-76986324D02*
X157432832Y-76186324D01*
X158028070Y-76948229D02*
X158099499Y-76986324D01*
X158218546Y-76986324D01*
X158266165Y-76948229D01*
X158289975Y-76910134D01*
X158313784Y-76833943D01*
X158313784Y-76757753D01*
X158289975Y-76681562D01*
X158266165Y-76643467D01*
X158218546Y-76605372D01*
X158123308Y-76567277D01*
X158075689Y-76529181D01*
X158051880Y-76491086D01*
X158028070Y-76414896D01*
X158028070Y-76338705D01*
X158051880Y-76262515D01*
X158075689Y-76224420D01*
X158123308Y-76186324D01*
X158242356Y-76186324D01*
X158313784Y-76224420D01*
X158528070Y-76986324D02*
X158528070Y-76186324D01*
X158742356Y-76986324D02*
X158742356Y-76567277D01*
X158718546Y-76491086D01*
X158670927Y-76452991D01*
X158599499Y-76452991D01*
X158551880Y-76491086D01*
X158528070Y-76529181D01*
X158980451Y-76986324D02*
X158980451Y-76452991D01*
X158980451Y-76186324D02*
X158956641Y-76224420D01*
X158980451Y-76262515D01*
X159004260Y-76224420D01*
X158980451Y-76186324D01*
X158980451Y-76262515D01*
X159409022Y-76948229D02*
X159361403Y-76986324D01*
X159266165Y-76986324D01*
X159218546Y-76948229D01*
X159194737Y-76872039D01*
X159194737Y-76567277D01*
X159218546Y-76491086D01*
X159266165Y-76452991D01*
X159361403Y-76452991D01*
X159409022Y-76491086D01*
X159432832Y-76567277D01*
X159432832Y-76643467D01*
X159194737Y-76719658D01*
X159718546Y-76986324D02*
X159670927Y-76948229D01*
X159647118Y-76872039D01*
X159647118Y-76186324D01*
X160123308Y-76986324D02*
X160123308Y-76186324D01*
X160123308Y-76948229D02*
X160075689Y-76986324D01*
X159980451Y-76986324D01*
X159932832Y-76948229D01*
X159909022Y-76910134D01*
X159885213Y-76833943D01*
X159885213Y-76605372D01*
X159909022Y-76529181D01*
X159932832Y-76491086D01*
X159980451Y-76452991D01*
X160075689Y-76452991D01*
X160123308Y-76491086D01*
X160337594Y-76948229D02*
X160385213Y-76986324D01*
X160480451Y-76986324D01*
X160528070Y-76948229D01*
X160551880Y-76872039D01*
X160551880Y-76833943D01*
X160528070Y-76757753D01*
X160480451Y-76719658D01*
X160409022Y-76719658D01*
X160361403Y-76681562D01*
X160337594Y-76605372D01*
X160337594Y-76567277D01*
X160361403Y-76491086D01*
X160409022Y-76452991D01*
X160480451Y-76452991D01*
X160528070Y-76491086D01*
X161099499Y-76452991D02*
X161194737Y-76986324D01*
X161289975Y-76605372D01*
X161385213Y-76986324D01*
X161480451Y-76452991D01*
X161670927Y-76986324D02*
X161670927Y-76452991D01*
X161670927Y-76186324D02*
X161647118Y-76224420D01*
X161670927Y-76262515D01*
X161694737Y-76224420D01*
X161670927Y-76186324D01*
X161670927Y-76262515D01*
X161837594Y-76452991D02*
X162028070Y-76452991D01*
X161909022Y-76186324D02*
X161909022Y-76872039D01*
X161932832Y-76948229D01*
X161980451Y-76986324D01*
X162028070Y-76986324D01*
X162194737Y-76986324D02*
X162194737Y-76186324D01*
X162409022Y-76986324D02*
X162409022Y-76567277D01*
X162385213Y-76491086D01*
X162337594Y-76452991D01*
X162266165Y-76452991D01*
X162218546Y-76491086D01*
X162194737Y-76529181D01*
X155825689Y-77752991D02*
X156016165Y-77752991D01*
X155897118Y-78286324D02*
X155897118Y-77600610D01*
X155920927Y-77524420D01*
X155968546Y-77486324D01*
X156016165Y-77486324D01*
X156373308Y-78248229D02*
X156325689Y-78286324D01*
X156230451Y-78286324D01*
X156182832Y-78248229D01*
X156159022Y-78172039D01*
X156159022Y-77867277D01*
X156182832Y-77791086D01*
X156230451Y-77752991D01*
X156325689Y-77752991D01*
X156373308Y-77791086D01*
X156397118Y-77867277D01*
X156397118Y-77943467D01*
X156159022Y-78019658D01*
X156825689Y-78286324D02*
X156825689Y-77867277D01*
X156801880Y-77791086D01*
X156754260Y-77752991D01*
X156659022Y-77752991D01*
X156611403Y-77791086D01*
X156825689Y-78248229D02*
X156778070Y-78286324D01*
X156659022Y-78286324D01*
X156611403Y-78248229D01*
X156587594Y-78172039D01*
X156587594Y-78095848D01*
X156611403Y-78019658D01*
X156659022Y-77981562D01*
X156778070Y-77981562D01*
X156825689Y-77943467D01*
X156992356Y-77752991D02*
X157182832Y-77752991D01*
X157063784Y-77486324D02*
X157063784Y-78172039D01*
X157087594Y-78248229D01*
X157135213Y-78286324D01*
X157182832Y-78286324D01*
X157349499Y-78286324D02*
X157349499Y-77486324D01*
X157563784Y-78286324D02*
X157563784Y-77867277D01*
X157539975Y-77791086D01*
X157492356Y-77752991D01*
X157420927Y-77752991D01*
X157373308Y-77791086D01*
X157349499Y-77829181D01*
X157992356Y-78248229D02*
X157944737Y-78286324D01*
X157849499Y-78286324D01*
X157801880Y-78248229D01*
X157778070Y-78172039D01*
X157778070Y-77867277D01*
X157801880Y-77791086D01*
X157849499Y-77752991D01*
X157944737Y-77752991D01*
X157992356Y-77791086D01*
X158016165Y-77867277D01*
X158016165Y-77943467D01*
X157778070Y-78019658D01*
X158230451Y-78286324D02*
X158230451Y-77752991D01*
X158230451Y-77905372D02*
X158254260Y-77829181D01*
X158278070Y-77791086D01*
X158325689Y-77752991D01*
X158373308Y-77752991D01*
X158920927Y-78286324D02*
X158920927Y-77486324D01*
X158920927Y-77791086D02*
X158968546Y-77752991D01*
X159063784Y-77752991D01*
X159111403Y-77791086D01*
X159135213Y-77829181D01*
X159159022Y-77905372D01*
X159159022Y-78133943D01*
X159135213Y-78210134D01*
X159111403Y-78248229D01*
X159063784Y-78286324D01*
X158968546Y-78286324D01*
X158920927Y-78248229D01*
X159444737Y-78286324D02*
X159397118Y-78248229D01*
X159373308Y-78210134D01*
X159349499Y-78133943D01*
X159349499Y-77905372D01*
X159373308Y-77829181D01*
X159397118Y-77791086D01*
X159444737Y-77752991D01*
X159516165Y-77752991D01*
X159563784Y-77791086D01*
X159587594Y-77829181D01*
X159611403Y-77905372D01*
X159611403Y-78133943D01*
X159587594Y-78210134D01*
X159563784Y-78248229D01*
X159516165Y-78286324D01*
X159444737Y-78286324D01*
X160039975Y-78286324D02*
X160039975Y-77867277D01*
X160016165Y-77791086D01*
X159968546Y-77752991D01*
X159873308Y-77752991D01*
X159825689Y-77791086D01*
X160039975Y-78248229D02*
X159992356Y-78286324D01*
X159873308Y-78286324D01*
X159825689Y-78248229D01*
X159801880Y-78172039D01*
X159801880Y-78095848D01*
X159825689Y-78019658D01*
X159873308Y-77981562D01*
X159992356Y-77981562D01*
X160039975Y-77943467D01*
X160278070Y-78286324D02*
X160278070Y-77752991D01*
X160278070Y-77905372D02*
X160301880Y-77829181D01*
X160325689Y-77791086D01*
X160373308Y-77752991D01*
X160420927Y-77752991D01*
X160801880Y-78286324D02*
X160801880Y-77486324D01*
X160801880Y-78248229D02*
X160754260Y-78286324D01*
X160659022Y-78286324D01*
X160611403Y-78248229D01*
X160587594Y-78210134D01*
X160563784Y-78133943D01*
X160563784Y-77905372D01*
X160587594Y-77829181D01*
X160611403Y-77791086D01*
X160659022Y-77752991D01*
X160754260Y-77752991D01*
X160801880Y-77791086D01*
X161016165Y-78248229D02*
X161063784Y-78286324D01*
X161159022Y-78286324D01*
X161206641Y-78248229D01*
X161230451Y-78172039D01*
X161230451Y-78133943D01*
X161206641Y-78057753D01*
X161159022Y-78019658D01*
X161087594Y-78019658D01*
X161039975Y-77981562D01*
X161016165Y-77905372D01*
X161016165Y-77867277D01*
X161039975Y-77791086D01*
X161087594Y-77752991D01*
X161159022Y-77752991D01*
X161206641Y-77791086D01*
D10*
X155409022Y-74648705D02*
X155142356Y-74648705D01*
X155142356Y-75277277D02*
X155142356Y-74077277D01*
X155523308Y-74077277D01*
X156132832Y-75220134D02*
X156056641Y-75277277D01*
X155904260Y-75277277D01*
X155828070Y-75220134D01*
X155789975Y-75105848D01*
X155789975Y-74648705D01*
X155828070Y-74534420D01*
X155904260Y-74477277D01*
X156056641Y-74477277D01*
X156132832Y-74534420D01*
X156170927Y-74648705D01*
X156170927Y-74762991D01*
X155789975Y-74877277D01*
X156856641Y-75277277D02*
X156856641Y-74648705D01*
X156818546Y-74534420D01*
X156742356Y-74477277D01*
X156589975Y-74477277D01*
X156513784Y-74534420D01*
X156856641Y-75220134D02*
X156780451Y-75277277D01*
X156589975Y-75277277D01*
X156513784Y-75220134D01*
X156475689Y-75105848D01*
X156475689Y-74991562D01*
X156513784Y-74877277D01*
X156589975Y-74820134D01*
X156780451Y-74820134D01*
X156856641Y-74762991D01*
X157123308Y-74477277D02*
X157428070Y-74477277D01*
X157237594Y-74077277D02*
X157237594Y-75105848D01*
X157275689Y-75220134D01*
X157351880Y-75277277D01*
X157428070Y-75277277D01*
X157694737Y-75277277D02*
X157694737Y-74077277D01*
X158037594Y-75277277D02*
X158037594Y-74648705D01*
X157999499Y-74534420D01*
X157923308Y-74477277D01*
X157809022Y-74477277D01*
X157732832Y-74534420D01*
X157694737Y-74591562D01*
X158723308Y-75220134D02*
X158647118Y-75277277D01*
X158494737Y-75277277D01*
X158418546Y-75220134D01*
X158380451Y-75105848D01*
X158380451Y-74648705D01*
X158418546Y-74534420D01*
X158494737Y-74477277D01*
X158647118Y-74477277D01*
X158723308Y-74534420D01*
X158761403Y-74648705D01*
X158761403Y-74762991D01*
X158380451Y-74877277D01*
X159104260Y-75277277D02*
X159104260Y-74477277D01*
X159104260Y-74705848D02*
X159142356Y-74591562D01*
X159180451Y-74534420D01*
X159256641Y-74477277D01*
X159332832Y-74477277D01*
X159561403Y-74191562D02*
X159599499Y-74134420D01*
X159675689Y-74077277D01*
X159866165Y-74077277D01*
X159942356Y-74134420D01*
X159980451Y-74191562D01*
X160018546Y-74305848D01*
X160018546Y-74420134D01*
X159980451Y-74591562D01*
X159523308Y-75277277D01*
X160018546Y-75277277D01*
X160818546Y-75277277D02*
X160551880Y-74705848D01*
X160361403Y-75277277D02*
X160361403Y-74077277D01*
X160666165Y-74077277D01*
X160742356Y-74134420D01*
X160780451Y-74191562D01*
X160818546Y-74305848D01*
X160818546Y-74477277D01*
X160780451Y-74591562D01*
X160742356Y-74648705D01*
X160666165Y-74705848D01*
X160361403Y-74705848D01*
X161161403Y-75277277D02*
X161161403Y-74077277D01*
X161466165Y-74077277D01*
X161542356Y-74134420D01*
X161580451Y-74191562D01*
X161618546Y-74305848D01*
X161618546Y-74477277D01*
X161580451Y-74591562D01*
X161542356Y-74648705D01*
X161466165Y-74705848D01*
X161161403Y-74705848D01*
X161961403Y-75277277D02*
X161961403Y-74077277D01*
X168424737Y-44817991D02*
X168224737Y-44817991D01*
X168224737Y-45341800D02*
X168224737Y-44341800D01*
X168510451Y-44341800D01*
X168739022Y-44817991D02*
X168939022Y-44817991D01*
X169024737Y-45341800D02*
X168739022Y-45341800D01*
X168739022Y-44341800D01*
X169024737Y-44341800D01*
X169253308Y-45056086D02*
X169539022Y-45056086D01*
X169196165Y-45341800D02*
X169396165Y-44341800D01*
X169596165Y-45341800D01*
X169710451Y-44341800D02*
X170053308Y-44341800D01*
X169881880Y-45341800D02*
X169881880Y-44341800D01*
X170253308Y-45341800D02*
X170253308Y-44341800D01*
X170253308Y-44817991D02*
X170596165Y-44817991D01*
X170596165Y-45341800D02*
X170596165Y-44341800D01*
X170881880Y-44817991D02*
X171081880Y-44817991D01*
X171167594Y-45341800D02*
X170881880Y-45341800D01*
X170881880Y-44341800D01*
X171167594Y-44341800D01*
X171767594Y-45341800D02*
X171567594Y-44865610D01*
X171424737Y-45341800D02*
X171424737Y-44341800D01*
X171653308Y-44341800D01*
X171710451Y-44389420D01*
X171739022Y-44437039D01*
X171767594Y-44532277D01*
X171767594Y-44675134D01*
X171739022Y-44770372D01*
X171710451Y-44817991D01*
X171653308Y-44865610D01*
X171424737Y-44865610D01*
X112574737Y-45341800D02*
X112374737Y-44865610D01*
X112231880Y-45341800D02*
X112231880Y-44341800D01*
X112460451Y-44341800D01*
X112517594Y-44389420D01*
X112546165Y-44437039D01*
X112574737Y-44532277D01*
X112574737Y-44675134D01*
X112546165Y-44770372D01*
X112517594Y-44817991D01*
X112460451Y-44865610D01*
X112231880Y-44865610D01*
X112831880Y-45341800D02*
X112831880Y-44341800D01*
X113060451Y-44341800D01*
X113117594Y-44389420D01*
X113146165Y-44437039D01*
X113174737Y-44532277D01*
X113174737Y-44675134D01*
X113146165Y-44770372D01*
X113117594Y-44817991D01*
X113060451Y-44865610D01*
X112831880Y-44865610D01*
X113431880Y-45341800D02*
X113431880Y-44341800D01*
X113201880Y-86235800D02*
X113201880Y-85235800D01*
X113430451Y-85235800D01*
X113487594Y-85283420D01*
X113516165Y-85331039D01*
X113544737Y-85426277D01*
X113544737Y-85569134D01*
X113516165Y-85664372D01*
X113487594Y-85711991D01*
X113430451Y-85759610D01*
X113201880Y-85759610D01*
X113801880Y-86235800D02*
X113801880Y-85235800D01*
X114087594Y-86235800D02*
X114087594Y-85235800D01*
X114430451Y-86235800D01*
X114430451Y-85235800D01*
X115030451Y-86235800D02*
X114687594Y-86235800D01*
X114859022Y-86235800D02*
X114859022Y-85235800D01*
X114801880Y-85378658D01*
X114744737Y-85473896D01*
X114687594Y-85521515D01*
X167769022Y-75821800D02*
X167769022Y-74821800D01*
X167969022Y-75536086D01*
X168169022Y-74821800D01*
X168169022Y-75821800D01*
X168454737Y-75821800D02*
X168454737Y-74821800D01*
X168711880Y-75774181D02*
X168797594Y-75821800D01*
X168940451Y-75821800D01*
X168997594Y-75774181D01*
X169026165Y-75726562D01*
X169054737Y-75631324D01*
X169054737Y-75536086D01*
X169026165Y-75440848D01*
X168997594Y-75393229D01*
X168940451Y-75345610D01*
X168826165Y-75297991D01*
X168769022Y-75250372D01*
X168740451Y-75202753D01*
X168711880Y-75107515D01*
X168711880Y-75012277D01*
X168740451Y-74917039D01*
X168769022Y-74869420D01*
X168826165Y-74821800D01*
X168969022Y-74821800D01*
X169054737Y-74869420D01*
X169426165Y-74821800D02*
X169540451Y-74821800D01*
X169597594Y-74869420D01*
X169654737Y-74964658D01*
X169683308Y-75155134D01*
X169683308Y-75488467D01*
X169654737Y-75678943D01*
X169597594Y-75774181D01*
X169540451Y-75821800D01*
X169426165Y-75821800D01*
X169369022Y-75774181D01*
X169311880Y-75678943D01*
X169283308Y-75488467D01*
X169283308Y-75155134D01*
X169311880Y-74964658D01*
X169369022Y-74869420D01*
X169426165Y-74821800D01*
X167769022Y-73281800D02*
X167769022Y-72281800D01*
X167969022Y-72996086D01*
X168169022Y-72281800D01*
X168169022Y-73281800D01*
X168569022Y-72281800D02*
X168683308Y-72281800D01*
X168740451Y-72329420D01*
X168797594Y-72424658D01*
X168826165Y-72615134D01*
X168826165Y-72948467D01*
X168797594Y-73138943D01*
X168740451Y-73234181D01*
X168683308Y-73281800D01*
X168569022Y-73281800D01*
X168511880Y-73234181D01*
X168454737Y-73138943D01*
X168426165Y-72948467D01*
X168426165Y-72615134D01*
X168454737Y-72424658D01*
X168511880Y-72329420D01*
X168569022Y-72281800D01*
X169054737Y-73234181D02*
X169140451Y-73281800D01*
X169283308Y-73281800D01*
X169340451Y-73234181D01*
X169369022Y-73186562D01*
X169397594Y-73091324D01*
X169397594Y-72996086D01*
X169369022Y-72900848D01*
X169340451Y-72853229D01*
X169283308Y-72805610D01*
X169169022Y-72757991D01*
X169111880Y-72710372D01*
X169083308Y-72662753D01*
X169054737Y-72567515D01*
X169054737Y-72472277D01*
X169083308Y-72377039D01*
X169111880Y-72329420D01*
X169169022Y-72281800D01*
X169311880Y-72281800D01*
X169397594Y-72329420D01*
X169654737Y-73281800D02*
X169654737Y-72281800D01*
X167940451Y-70694181D02*
X168026165Y-70741800D01*
X168169022Y-70741800D01*
X168226165Y-70694181D01*
X168254737Y-70646562D01*
X168283308Y-70551324D01*
X168283308Y-70456086D01*
X168254737Y-70360848D01*
X168226165Y-70313229D01*
X168169022Y-70265610D01*
X168054737Y-70217991D01*
X167997594Y-70170372D01*
X167969022Y-70122753D01*
X167940451Y-70027515D01*
X167940451Y-69932277D01*
X167969022Y-69837039D01*
X167997594Y-69789420D01*
X168054737Y-69741800D01*
X168197594Y-69741800D01*
X168283308Y-69789420D01*
X168883308Y-70646562D02*
X168854737Y-70694181D01*
X168769022Y-70741800D01*
X168711880Y-70741800D01*
X168626165Y-70694181D01*
X168569022Y-70598943D01*
X168540451Y-70503705D01*
X168511880Y-70313229D01*
X168511880Y-70170372D01*
X168540451Y-69979896D01*
X168569022Y-69884658D01*
X168626165Y-69789420D01*
X168711880Y-69741800D01*
X168769022Y-69741800D01*
X168854737Y-69789420D01*
X168883308Y-69837039D01*
X169140451Y-70741800D02*
X169140451Y-69741800D01*
X169483308Y-70741800D02*
X169226165Y-70170372D01*
X169483308Y-69741800D02*
X169140451Y-70313229D01*
X168254737Y-67249420D02*
X168197594Y-67201800D01*
X168111880Y-67201800D01*
X168026165Y-67249420D01*
X167969022Y-67344658D01*
X167940451Y-67439896D01*
X167911880Y-67630372D01*
X167911880Y-67773229D01*
X167940451Y-67963705D01*
X167969022Y-68058943D01*
X168026165Y-68154181D01*
X168111880Y-68201800D01*
X168169022Y-68201800D01*
X168254737Y-68154181D01*
X168283308Y-68106562D01*
X168283308Y-67773229D01*
X168169022Y-67773229D01*
X168540451Y-68201800D02*
X168540451Y-67201800D01*
X168883308Y-68201800D01*
X168883308Y-67201800D01*
X169169022Y-68201800D02*
X169169022Y-67201800D01*
X169311880Y-67201800D01*
X169397594Y-67249420D01*
X169454737Y-67344658D01*
X169483308Y-67439896D01*
X169511880Y-67630372D01*
X169511880Y-67773229D01*
X169483308Y-67963705D01*
X169454737Y-68058943D01*
X169397594Y-68154181D01*
X169311880Y-68201800D01*
X169169022Y-68201800D01*
X168083308Y-64661800D02*
X168454737Y-64661800D01*
X168254737Y-65042753D01*
X168340451Y-65042753D01*
X168397594Y-65090372D01*
X168426165Y-65137991D01*
X168454737Y-65233229D01*
X168454737Y-65471324D01*
X168426165Y-65566562D01*
X168397594Y-65614181D01*
X168340451Y-65661800D01*
X168169022Y-65661800D01*
X168111880Y-65614181D01*
X168083308Y-65566562D01*
X168711880Y-65566562D02*
X168740451Y-65614181D01*
X168711880Y-65661800D01*
X168683308Y-65614181D01*
X168711880Y-65566562D01*
X168711880Y-65661800D01*
X168940451Y-64661800D02*
X169311880Y-64661800D01*
X169111880Y-65042753D01*
X169197594Y-65042753D01*
X169254737Y-65090372D01*
X169283308Y-65137991D01*
X169311880Y-65233229D01*
X169311880Y-65471324D01*
X169283308Y-65566562D01*
X169254737Y-65614181D01*
X169197594Y-65661800D01*
X169026165Y-65661800D01*
X168969022Y-65614181D01*
X168940451Y-65566562D01*
X167983308Y-62597991D02*
X167783308Y-62597991D01*
X167783308Y-63121800D02*
X167783308Y-62121800D01*
X168069022Y-62121800D01*
X168640451Y-63121800D02*
X168440451Y-62645610D01*
X168297594Y-63121800D02*
X168297594Y-62121800D01*
X168526165Y-62121800D01*
X168583308Y-62169420D01*
X168611880Y-62217039D01*
X168640451Y-62312277D01*
X168640451Y-62455134D01*
X168611880Y-62550372D01*
X168583308Y-62597991D01*
X168526165Y-62645610D01*
X168297594Y-62645610D01*
X168869022Y-63074181D02*
X168954737Y-63121800D01*
X169097594Y-63121800D01*
X169154737Y-63074181D01*
X169183308Y-63026562D01*
X169211880Y-62931324D01*
X169211880Y-62836086D01*
X169183308Y-62740848D01*
X169154737Y-62693229D01*
X169097594Y-62645610D01*
X168983308Y-62597991D01*
X168926165Y-62550372D01*
X168897594Y-62502753D01*
X168869022Y-62407515D01*
X168869022Y-62312277D01*
X168897594Y-62217039D01*
X168926165Y-62169420D01*
X168983308Y-62121800D01*
X169126165Y-62121800D01*
X169211880Y-62169420D01*
X169383308Y-62121800D02*
X169726165Y-62121800D01*
X169554737Y-63121800D02*
X169554737Y-62121800D01*
X168283308Y-60296086D02*
X168569022Y-60296086D01*
X168226165Y-60581800D02*
X168426165Y-59581800D01*
X168626165Y-60581800D01*
X168940451Y-59581800D02*
X168997594Y-59581800D01*
X169054737Y-59629420D01*
X169083308Y-59677039D01*
X169111880Y-59772277D01*
X169140451Y-59962753D01*
X169140451Y-60200848D01*
X169111880Y-60391324D01*
X169083308Y-60486562D01*
X169054737Y-60534181D01*
X168997594Y-60581800D01*
X168940451Y-60581800D01*
X168883308Y-60534181D01*
X168854737Y-60486562D01*
X168826165Y-60391324D01*
X168797594Y-60200848D01*
X168797594Y-59962753D01*
X168826165Y-59772277D01*
X168854737Y-59677039D01*
X168883308Y-59629420D01*
X168940451Y-59581800D01*
X168283308Y-57756086D02*
X168569022Y-57756086D01*
X168226165Y-58041800D02*
X168426165Y-57041800D01*
X168626165Y-58041800D01*
X169140451Y-58041800D02*
X168797594Y-58041800D01*
X168969022Y-58041800D02*
X168969022Y-57041800D01*
X168911880Y-57184658D01*
X168854737Y-57279896D01*
X168797594Y-57327515D01*
X168283308Y-55216086D02*
X168569022Y-55216086D01*
X168226165Y-55501800D02*
X168426165Y-54501800D01*
X168626165Y-55501800D01*
X168797594Y-54597039D02*
X168826165Y-54549420D01*
X168883308Y-54501800D01*
X169026165Y-54501800D01*
X169083308Y-54549420D01*
X169111880Y-54597039D01*
X169140451Y-54692277D01*
X169140451Y-54787515D01*
X169111880Y-54930372D01*
X168769022Y-55501800D01*
X169140451Y-55501800D01*
X168283308Y-52676086D02*
X168569022Y-52676086D01*
X168226165Y-52961800D02*
X168426165Y-51961800D01*
X168626165Y-52961800D01*
X168769022Y-51961800D02*
X169140451Y-51961800D01*
X168940451Y-52342753D01*
X169026165Y-52342753D01*
X169083308Y-52390372D01*
X169111880Y-52437991D01*
X169140451Y-52533229D01*
X169140451Y-52771324D01*
X169111880Y-52866562D01*
X169083308Y-52914181D01*
X169026165Y-52961800D01*
X168854737Y-52961800D01*
X168797594Y-52914181D01*
X168769022Y-52866562D01*
X168283308Y-50136086D02*
X168569022Y-50136086D01*
X168226165Y-50421800D02*
X168426165Y-49421800D01*
X168626165Y-50421800D01*
X169083308Y-49755134D02*
X169083308Y-50421800D01*
X168940451Y-49374181D02*
X168797594Y-50088467D01*
X169169022Y-50088467D01*
X168283308Y-47596086D02*
X168569022Y-47596086D01*
X168226165Y-47881800D02*
X168426165Y-46881800D01*
X168626165Y-47881800D01*
X169111880Y-46881800D02*
X168826165Y-46881800D01*
X168797594Y-47357991D01*
X168826165Y-47310372D01*
X168883308Y-47262753D01*
X169026165Y-47262753D01*
X169083308Y-47310372D01*
X169111880Y-47357991D01*
X169140451Y-47453229D01*
X169140451Y-47691324D01*
X169111880Y-47786562D01*
X169083308Y-47834181D01*
X169026165Y-47881800D01*
X168883308Y-47881800D01*
X168826165Y-47834181D01*
X168797594Y-47786562D01*
X115057594Y-46881800D02*
X115114737Y-46881800D01*
X115171880Y-46929420D01*
X115200451Y-46977039D01*
X115229022Y-47072277D01*
X115257594Y-47262753D01*
X115257594Y-47500848D01*
X115229022Y-47691324D01*
X115200451Y-47786562D01*
X115171880Y-47834181D01*
X115114737Y-47881800D01*
X115057594Y-47881800D01*
X115000451Y-47834181D01*
X114971880Y-47786562D01*
X114943308Y-47691324D01*
X114914737Y-47500848D01*
X114914737Y-47262753D01*
X114943308Y-47072277D01*
X114971880Y-46977039D01*
X115000451Y-46929420D01*
X115057594Y-46881800D01*
X115771880Y-47215134D02*
X115771880Y-47881800D01*
X115629022Y-46834181D02*
X115486165Y-47548467D01*
X115857594Y-47548467D01*
X114914737Y-74917039D02*
X114943308Y-74869420D01*
X115000451Y-74821800D01*
X115143308Y-74821800D01*
X115200451Y-74869420D01*
X115229022Y-74917039D01*
X115257594Y-75012277D01*
X115257594Y-75107515D01*
X115229022Y-75250372D01*
X114886165Y-75821800D01*
X115257594Y-75821800D01*
X115771880Y-74821800D02*
X115657594Y-74821800D01*
X115600451Y-74869420D01*
X115571880Y-74917039D01*
X115514737Y-75059896D01*
X115486165Y-75250372D01*
X115486165Y-75631324D01*
X115514737Y-75726562D01*
X115543308Y-75774181D01*
X115600451Y-75821800D01*
X115714737Y-75821800D01*
X115771880Y-75774181D01*
X115800451Y-75726562D01*
X115829022Y-75631324D01*
X115829022Y-75393229D01*
X115800451Y-75297991D01*
X115771880Y-75250372D01*
X115714737Y-75202753D01*
X115600451Y-75202753D01*
X115543308Y-75250372D01*
X115514737Y-75297991D01*
X115486165Y-75393229D01*
X114914737Y-72377039D02*
X114943308Y-72329420D01*
X115000451Y-72281800D01*
X115143308Y-72281800D01*
X115200451Y-72329420D01*
X115229022Y-72377039D01*
X115257594Y-72472277D01*
X115257594Y-72567515D01*
X115229022Y-72710372D01*
X114886165Y-73281800D01*
X115257594Y-73281800D01*
X115457594Y-72281800D02*
X115829022Y-72281800D01*
X115629022Y-72662753D01*
X115714737Y-72662753D01*
X115771880Y-72710372D01*
X115800451Y-72757991D01*
X115829022Y-72853229D01*
X115829022Y-73091324D01*
X115800451Y-73186562D01*
X115771880Y-73234181D01*
X115714737Y-73281800D01*
X115543308Y-73281800D01*
X115486165Y-73234181D01*
X115457594Y-73186562D01*
X114914737Y-69837039D02*
X114943308Y-69789420D01*
X115000451Y-69741800D01*
X115143308Y-69741800D01*
X115200451Y-69789420D01*
X115229022Y-69837039D01*
X115257594Y-69932277D01*
X115257594Y-70027515D01*
X115229022Y-70170372D01*
X114886165Y-70741800D01*
X115257594Y-70741800D01*
X115829022Y-70741800D02*
X115486165Y-70741800D01*
X115657594Y-70741800D02*
X115657594Y-69741800D01*
X115600451Y-69884658D01*
X115543308Y-69979896D01*
X115486165Y-70027515D01*
X114914737Y-67297039D02*
X114943308Y-67249420D01*
X115000451Y-67201800D01*
X115143308Y-67201800D01*
X115200451Y-67249420D01*
X115229022Y-67297039D01*
X115257594Y-67392277D01*
X115257594Y-67487515D01*
X115229022Y-67630372D01*
X114886165Y-68201800D01*
X115257594Y-68201800D01*
X115629022Y-67201800D02*
X115686165Y-67201800D01*
X115743308Y-67249420D01*
X115771880Y-67297039D01*
X115800451Y-67392277D01*
X115829022Y-67582753D01*
X115829022Y-67820848D01*
X115800451Y-68011324D01*
X115771880Y-68106562D01*
X115743308Y-68154181D01*
X115686165Y-68201800D01*
X115629022Y-68201800D01*
X115571880Y-68154181D01*
X115543308Y-68106562D01*
X115514737Y-68011324D01*
X115486165Y-67820848D01*
X115486165Y-67582753D01*
X115514737Y-67392277D01*
X115543308Y-67297039D01*
X115571880Y-67249420D01*
X115629022Y-67201800D01*
X115257594Y-65661800D02*
X114914737Y-65661800D01*
X115086165Y-65661800D02*
X115086165Y-64661800D01*
X115029022Y-64804658D01*
X114971880Y-64899896D01*
X114914737Y-64947515D01*
X115543308Y-65661800D02*
X115657594Y-65661800D01*
X115714737Y-65614181D01*
X115743308Y-65566562D01*
X115800451Y-65423705D01*
X115829022Y-65233229D01*
X115829022Y-64852277D01*
X115800451Y-64757039D01*
X115771880Y-64709420D01*
X115714737Y-64661800D01*
X115600451Y-64661800D01*
X115543308Y-64709420D01*
X115514737Y-64757039D01*
X115486165Y-64852277D01*
X115486165Y-65090372D01*
X115514737Y-65185610D01*
X115543308Y-65233229D01*
X115600451Y-65280848D01*
X115714737Y-65280848D01*
X115771880Y-65233229D01*
X115800451Y-65185610D01*
X115829022Y-65090372D01*
X115257594Y-63121800D02*
X114914737Y-63121800D01*
X115086165Y-63121800D02*
X115086165Y-62121800D01*
X115029022Y-62264658D01*
X114971880Y-62359896D01*
X114914737Y-62407515D01*
X115600451Y-62550372D02*
X115543308Y-62502753D01*
X115514737Y-62455134D01*
X115486165Y-62359896D01*
X115486165Y-62312277D01*
X115514737Y-62217039D01*
X115543308Y-62169420D01*
X115600451Y-62121800D01*
X115714737Y-62121800D01*
X115771880Y-62169420D01*
X115800451Y-62217039D01*
X115829022Y-62312277D01*
X115829022Y-62359896D01*
X115800451Y-62455134D01*
X115771880Y-62502753D01*
X115714737Y-62550372D01*
X115600451Y-62550372D01*
X115543308Y-62597991D01*
X115514737Y-62645610D01*
X115486165Y-62740848D01*
X115486165Y-62931324D01*
X115514737Y-63026562D01*
X115543308Y-63074181D01*
X115600451Y-63121800D01*
X115714737Y-63121800D01*
X115771880Y-63074181D01*
X115800451Y-63026562D01*
X115829022Y-62931324D01*
X115829022Y-62740848D01*
X115800451Y-62645610D01*
X115771880Y-62597991D01*
X115714737Y-62550372D01*
X115257594Y-60581800D02*
X114914737Y-60581800D01*
X115086165Y-60581800D02*
X115086165Y-59581800D01*
X115029022Y-59724658D01*
X114971880Y-59819896D01*
X114914737Y-59867515D01*
X115771880Y-59581800D02*
X115657594Y-59581800D01*
X115600451Y-59629420D01*
X115571880Y-59677039D01*
X115514737Y-59819896D01*
X115486165Y-60010372D01*
X115486165Y-60391324D01*
X115514737Y-60486562D01*
X115543308Y-60534181D01*
X115600451Y-60581800D01*
X115714737Y-60581800D01*
X115771880Y-60534181D01*
X115800451Y-60486562D01*
X115829022Y-60391324D01*
X115829022Y-60153229D01*
X115800451Y-60057991D01*
X115771880Y-60010372D01*
X115714737Y-59962753D01*
X115600451Y-59962753D01*
X115543308Y-60010372D01*
X115514737Y-60057991D01*
X115486165Y-60153229D01*
X115257594Y-58041800D02*
X114914737Y-58041800D01*
X115086165Y-58041800D02*
X115086165Y-57041800D01*
X115029022Y-57184658D01*
X114971880Y-57279896D01*
X114914737Y-57327515D01*
X115457594Y-57041800D02*
X115829022Y-57041800D01*
X115629022Y-57422753D01*
X115714737Y-57422753D01*
X115771880Y-57470372D01*
X115800451Y-57517991D01*
X115829022Y-57613229D01*
X115829022Y-57851324D01*
X115800451Y-57946562D01*
X115771880Y-57994181D01*
X115714737Y-58041800D01*
X115543308Y-58041800D01*
X115486165Y-57994181D01*
X115457594Y-57946562D01*
X115257594Y-55501800D02*
X114914737Y-55501800D01*
X115086165Y-55501800D02*
X115086165Y-54501800D01*
X115029022Y-54644658D01*
X114971880Y-54739896D01*
X114914737Y-54787515D01*
X115486165Y-54597039D02*
X115514737Y-54549420D01*
X115571880Y-54501800D01*
X115714737Y-54501800D01*
X115771880Y-54549420D01*
X115800451Y-54597039D01*
X115829022Y-54692277D01*
X115829022Y-54787515D01*
X115800451Y-54930372D01*
X115457594Y-55501800D01*
X115829022Y-55501800D01*
X115057594Y-51961800D02*
X115114737Y-51961800D01*
X115171880Y-52009420D01*
X115200451Y-52057039D01*
X115229022Y-52152277D01*
X115257594Y-52342753D01*
X115257594Y-52580848D01*
X115229022Y-52771324D01*
X115200451Y-52866562D01*
X115171880Y-52914181D01*
X115114737Y-52961800D01*
X115057594Y-52961800D01*
X115000451Y-52914181D01*
X114971880Y-52866562D01*
X114943308Y-52771324D01*
X114914737Y-52580848D01*
X114914737Y-52342753D01*
X114943308Y-52152277D01*
X114971880Y-52057039D01*
X115000451Y-52009420D01*
X115057594Y-51961800D01*
X115771880Y-51961800D02*
X115657594Y-51961800D01*
X115600451Y-52009420D01*
X115571880Y-52057039D01*
X115514737Y-52199896D01*
X115486165Y-52390372D01*
X115486165Y-52771324D01*
X115514737Y-52866562D01*
X115543308Y-52914181D01*
X115600451Y-52961800D01*
X115714737Y-52961800D01*
X115771880Y-52914181D01*
X115800451Y-52866562D01*
X115829022Y-52771324D01*
X115829022Y-52533229D01*
X115800451Y-52437991D01*
X115771880Y-52390372D01*
X115714737Y-52342753D01*
X115600451Y-52342753D01*
X115543308Y-52390372D01*
X115514737Y-52437991D01*
X115486165Y-52533229D01*
X115057594Y-49421800D02*
X115114737Y-49421800D01*
X115171880Y-49469420D01*
X115200451Y-49517039D01*
X115229022Y-49612277D01*
X115257594Y-49802753D01*
X115257594Y-50040848D01*
X115229022Y-50231324D01*
X115200451Y-50326562D01*
X115171880Y-50374181D01*
X115114737Y-50421800D01*
X115057594Y-50421800D01*
X115000451Y-50374181D01*
X114971880Y-50326562D01*
X114943308Y-50231324D01*
X114914737Y-50040848D01*
X114914737Y-49802753D01*
X114943308Y-49612277D01*
X114971880Y-49517039D01*
X115000451Y-49469420D01*
X115057594Y-49421800D01*
X115800451Y-49421800D02*
X115514737Y-49421800D01*
X115486165Y-49897991D01*
X115514737Y-49850372D01*
X115571880Y-49802753D01*
X115714737Y-49802753D01*
X115771880Y-49850372D01*
X115800451Y-49897991D01*
X115829022Y-49993229D01*
X115829022Y-50231324D01*
X115800451Y-50326562D01*
X115771880Y-50374181D01*
X115714737Y-50421800D01*
X115571880Y-50421800D01*
X115514737Y-50374181D01*
X115486165Y-50326562D01*
X125217594Y-85870800D02*
X125274737Y-85870800D01*
X125331880Y-85918420D01*
X125360451Y-85966039D01*
X125389022Y-86061277D01*
X125417594Y-86251753D01*
X125417594Y-86489848D01*
X125389022Y-86680324D01*
X125360451Y-86775562D01*
X125331880Y-86823181D01*
X125274737Y-86870800D01*
X125217594Y-86870800D01*
X125160451Y-86823181D01*
X125131880Y-86775562D01*
X125103308Y-86680324D01*
X125074737Y-86489848D01*
X125074737Y-86251753D01*
X125103308Y-86061277D01*
X125131880Y-85966039D01*
X125160451Y-85918420D01*
X125217594Y-85870800D01*
X125931880Y-86204134D02*
X125931880Y-86870800D01*
X125789022Y-85823181D02*
X125646165Y-86537467D01*
X126017594Y-86537467D01*
X130411880Y-86346991D02*
X130211880Y-86346991D01*
X130211880Y-86870800D02*
X130211880Y-85870800D01*
X130497594Y-85870800D01*
X131011880Y-85870800D02*
X130726165Y-85870800D01*
X130697594Y-86346991D01*
X130726165Y-86299372D01*
X130783308Y-86251753D01*
X130926165Y-86251753D01*
X130983308Y-86299372D01*
X131011880Y-86346991D01*
X131040451Y-86442229D01*
X131040451Y-86680324D01*
X131011880Y-86775562D01*
X130983308Y-86823181D01*
X130926165Y-86870800D01*
X130783308Y-86870800D01*
X130726165Y-86823181D01*
X130697594Y-86775562D01*
X132951880Y-86346991D02*
X132751880Y-86346991D01*
X132751880Y-86870800D02*
X132751880Y-85870800D01*
X133037594Y-85870800D01*
X133523308Y-85870800D02*
X133409022Y-85870800D01*
X133351880Y-85918420D01*
X133323308Y-85966039D01*
X133266165Y-86108896D01*
X133237594Y-86299372D01*
X133237594Y-86680324D01*
X133266165Y-86775562D01*
X133294737Y-86823181D01*
X133351880Y-86870800D01*
X133466165Y-86870800D01*
X133523308Y-86823181D01*
X133551880Y-86775562D01*
X133580451Y-86680324D01*
X133580451Y-86442229D01*
X133551880Y-86346991D01*
X133523308Y-86299372D01*
X133466165Y-86251753D01*
X133351880Y-86251753D01*
X133294737Y-86299372D01*
X133266165Y-86346991D01*
X133237594Y-86442229D01*
X135491880Y-86346991D02*
X135291880Y-86346991D01*
X135291880Y-86870800D02*
X135291880Y-85870800D01*
X135577594Y-85870800D01*
X135834737Y-86870800D02*
X135949022Y-86870800D01*
X136006165Y-86823181D01*
X136034737Y-86775562D01*
X136091880Y-86632705D01*
X136120451Y-86442229D01*
X136120451Y-86061277D01*
X136091880Y-85966039D01*
X136063308Y-85918420D01*
X136006165Y-85870800D01*
X135891880Y-85870800D01*
X135834737Y-85918420D01*
X135806165Y-85966039D01*
X135777594Y-86061277D01*
X135777594Y-86299372D01*
X135806165Y-86394610D01*
X135834737Y-86442229D01*
X135891880Y-86489848D01*
X136006165Y-86489848D01*
X136063308Y-86442229D01*
X136091880Y-86394610D01*
X136120451Y-86299372D01*
X140257594Y-86870800D02*
X140257594Y-85870800D01*
X140457594Y-86585086D01*
X140657594Y-85870800D01*
X140657594Y-86870800D01*
X141057594Y-85870800D02*
X141171880Y-85870800D01*
X141229022Y-85918420D01*
X141286165Y-86013658D01*
X141314737Y-86204134D01*
X141314737Y-86537467D01*
X141286165Y-86727943D01*
X141229022Y-86823181D01*
X141171880Y-86870800D01*
X141057594Y-86870800D01*
X141000451Y-86823181D01*
X140943308Y-86727943D01*
X140914737Y-86537467D01*
X140914737Y-86204134D01*
X140943308Y-86013658D01*
X141000451Y-85918420D01*
X141057594Y-85870800D01*
X142969022Y-86870800D02*
X142969022Y-85870800D01*
X143169022Y-86585086D01*
X143369022Y-85870800D01*
X143369022Y-86870800D01*
X143654737Y-86870800D02*
X143654737Y-85870800D01*
X145080451Y-86823181D02*
X145166165Y-86870800D01*
X145309022Y-86870800D01*
X145366165Y-86823181D01*
X145394737Y-86775562D01*
X145423308Y-86680324D01*
X145423308Y-86585086D01*
X145394737Y-86489848D01*
X145366165Y-86442229D01*
X145309022Y-86394610D01*
X145194737Y-86346991D01*
X145137594Y-86299372D01*
X145109022Y-86251753D01*
X145080451Y-86156515D01*
X145080451Y-86061277D01*
X145109022Y-85966039D01*
X145137594Y-85918420D01*
X145194737Y-85870800D01*
X145337594Y-85870800D01*
X145423308Y-85918420D01*
X146023308Y-86775562D02*
X145994737Y-86823181D01*
X145909022Y-86870800D01*
X145851880Y-86870800D01*
X145766165Y-86823181D01*
X145709022Y-86727943D01*
X145680451Y-86632705D01*
X145651880Y-86442229D01*
X145651880Y-86299372D01*
X145680451Y-86108896D01*
X145709022Y-86013658D01*
X145766165Y-85918420D01*
X145851880Y-85870800D01*
X145909022Y-85870800D01*
X145994737Y-85918420D01*
X146023308Y-85966039D01*
X146280451Y-86870800D02*
X146280451Y-85870800D01*
X146623308Y-86870800D02*
X146366165Y-86299372D01*
X146623308Y-85870800D02*
X146280451Y-86442229D01*
X153157594Y-85870800D02*
X153214737Y-85870800D01*
X153271880Y-85918420D01*
X153300451Y-85966039D01*
X153329022Y-86061277D01*
X153357594Y-86251753D01*
X153357594Y-86489848D01*
X153329022Y-86680324D01*
X153300451Y-86775562D01*
X153271880Y-86823181D01*
X153214737Y-86870800D01*
X153157594Y-86870800D01*
X153100451Y-86823181D01*
X153071880Y-86775562D01*
X153043308Y-86680324D01*
X153014737Y-86489848D01*
X153014737Y-86251753D01*
X153043308Y-86061277D01*
X153071880Y-85966039D01*
X153100451Y-85918420D01*
X153157594Y-85870800D01*
X153900451Y-85870800D02*
X153614737Y-85870800D01*
X153586165Y-86346991D01*
X153614737Y-86299372D01*
X153671880Y-86251753D01*
X153814737Y-86251753D01*
X153871880Y-86299372D01*
X153900451Y-86346991D01*
X153929022Y-86442229D01*
X153929022Y-86680324D01*
X153900451Y-86775562D01*
X153871880Y-86823181D01*
X153814737Y-86870800D01*
X153671880Y-86870800D01*
X153614737Y-86823181D01*
X153586165Y-86775562D01*
X155697594Y-85870800D02*
X155754737Y-85870800D01*
X155811880Y-85918420D01*
X155840451Y-85966039D01*
X155869022Y-86061277D01*
X155897594Y-86251753D01*
X155897594Y-86489848D01*
X155869022Y-86680324D01*
X155840451Y-86775562D01*
X155811880Y-86823181D01*
X155754737Y-86870800D01*
X155697594Y-86870800D01*
X155640451Y-86823181D01*
X155611880Y-86775562D01*
X155583308Y-86680324D01*
X155554737Y-86489848D01*
X155554737Y-86251753D01*
X155583308Y-86061277D01*
X155611880Y-85966039D01*
X155640451Y-85918420D01*
X155697594Y-85870800D01*
X156411880Y-85870800D02*
X156297594Y-85870800D01*
X156240451Y-85918420D01*
X156211880Y-85966039D01*
X156154737Y-86108896D01*
X156126165Y-86299372D01*
X156126165Y-86680324D01*
X156154737Y-86775562D01*
X156183308Y-86823181D01*
X156240451Y-86870800D01*
X156354737Y-86870800D01*
X156411880Y-86823181D01*
X156440451Y-86775562D01*
X156469022Y-86680324D01*
X156469022Y-86442229D01*
X156440451Y-86346991D01*
X156411880Y-86299372D01*
X156354737Y-86251753D01*
X156240451Y-86251753D01*
X156183308Y-86299372D01*
X156154737Y-86346991D01*
X156126165Y-86442229D01*
X158437594Y-86870800D02*
X158094737Y-86870800D01*
X158266165Y-86870800D02*
X158266165Y-85870800D01*
X158209022Y-86013658D01*
X158151880Y-86108896D01*
X158094737Y-86156515D01*
X158637594Y-85870800D02*
X159009022Y-85870800D01*
X158809022Y-86251753D01*
X158894737Y-86251753D01*
X158951880Y-86299372D01*
X158980451Y-86346991D01*
X159009022Y-86442229D01*
X159009022Y-86680324D01*
X158980451Y-86775562D01*
X158951880Y-86823181D01*
X158894737Y-86870800D01*
X158723308Y-86870800D01*
X158666165Y-86823181D01*
X158637594Y-86775562D01*
X160977594Y-86870800D02*
X160634737Y-86870800D01*
X160806165Y-86870800D02*
X160806165Y-85870800D01*
X160749022Y-86013658D01*
X160691880Y-86108896D01*
X160634737Y-86156515D01*
X161263308Y-86870800D02*
X161377594Y-86870800D01*
X161434737Y-86823181D01*
X161463308Y-86775562D01*
X161520451Y-86632705D01*
X161549022Y-86442229D01*
X161549022Y-86061277D01*
X161520451Y-85966039D01*
X161491880Y-85918420D01*
X161434737Y-85870800D01*
X161320451Y-85870800D01*
X161263308Y-85918420D01*
X161234737Y-85966039D01*
X161206165Y-86061277D01*
X161206165Y-86299372D01*
X161234737Y-86394610D01*
X161263308Y-86442229D01*
X161320451Y-86489848D01*
X161434737Y-86489848D01*
X161491880Y-86442229D01*
X161520451Y-86394610D01*
X161549022Y-86299372D01*
X163174737Y-85966039D02*
X163203308Y-85918420D01*
X163260451Y-85870800D01*
X163403308Y-85870800D01*
X163460451Y-85918420D01*
X163489022Y-85966039D01*
X163517594Y-86061277D01*
X163517594Y-86156515D01*
X163489022Y-86299372D01*
X163146165Y-86870800D01*
X163517594Y-86870800D01*
X164031880Y-85870800D02*
X163917594Y-85870800D01*
X163860451Y-85918420D01*
X163831880Y-85966039D01*
X163774737Y-86108896D01*
X163746165Y-86299372D01*
X163746165Y-86680324D01*
X163774737Y-86775562D01*
X163803308Y-86823181D01*
X163860451Y-86870800D01*
X163974737Y-86870800D01*
X164031880Y-86823181D01*
X164060451Y-86775562D01*
X164089022Y-86680324D01*
X164089022Y-86442229D01*
X164060451Y-86346991D01*
X164031880Y-86299372D01*
X163974737Y-86251753D01*
X163860451Y-86251753D01*
X163803308Y-86299372D01*
X163774737Y-86346991D01*
X163746165Y-86442229D01*
X167526165Y-78615800D02*
X167526165Y-77615800D01*
X167754737Y-77615800D01*
X167811880Y-77663420D01*
X167840451Y-77711039D01*
X167869022Y-77806277D01*
X167869022Y-77949134D01*
X167840451Y-78044372D01*
X167811880Y-78091991D01*
X167754737Y-78139610D01*
X167526165Y-78139610D01*
X168126165Y-78615800D02*
X168126165Y-77615800D01*
X168411880Y-78615800D02*
X168411880Y-77615800D01*
X168754737Y-78615800D01*
X168754737Y-77615800D01*
X169297594Y-77949134D02*
X169297594Y-78615800D01*
X169154737Y-77568181D02*
X169011880Y-78282467D01*
X169383308Y-78282467D01*
X169726165Y-77615800D02*
X169783308Y-77615800D01*
X169840451Y-77663420D01*
X169869022Y-77711039D01*
X169897594Y-77806277D01*
X169926165Y-77996753D01*
X169926165Y-78234848D01*
X169897594Y-78425324D01*
X169869022Y-78520562D01*
X169840451Y-78568181D01*
X169783308Y-78615800D01*
X169726165Y-78615800D01*
X169669022Y-78568181D01*
X169640451Y-78520562D01*
X169611880Y-78425324D01*
X169583308Y-78234848D01*
X169583308Y-77996753D01*
X169611880Y-77806277D01*
X169640451Y-77711039D01*
X169669022Y-77663420D01*
X169726165Y-77615800D01*
X165714737Y-79616039D02*
X165743308Y-79568420D01*
X165800451Y-79520800D01*
X165943308Y-79520800D01*
X166000451Y-79568420D01*
X166029022Y-79616039D01*
X166057594Y-79711277D01*
X166057594Y-79806515D01*
X166029022Y-79949372D01*
X165686165Y-80520800D01*
X166057594Y-80520800D01*
X166629022Y-80520800D02*
X166286165Y-80520800D01*
X166457594Y-80520800D02*
X166457594Y-79520800D01*
X166400451Y-79663658D01*
X166343308Y-79758896D01*
X166286165Y-79806515D01*
X163174737Y-79616039D02*
X163203308Y-79568420D01*
X163260451Y-79520800D01*
X163403308Y-79520800D01*
X163460451Y-79568420D01*
X163489022Y-79616039D01*
X163517594Y-79711277D01*
X163517594Y-79806515D01*
X163489022Y-79949372D01*
X163146165Y-80520800D01*
X163517594Y-80520800D01*
X163889022Y-79520800D02*
X163946165Y-79520800D01*
X164003308Y-79568420D01*
X164031880Y-79616039D01*
X164060451Y-79711277D01*
X164089022Y-79901753D01*
X164089022Y-80139848D01*
X164060451Y-80330324D01*
X164031880Y-80425562D01*
X164003308Y-80473181D01*
X163946165Y-80520800D01*
X163889022Y-80520800D01*
X163831880Y-80473181D01*
X163803308Y-80425562D01*
X163774737Y-80330324D01*
X163746165Y-80139848D01*
X163746165Y-79901753D01*
X163774737Y-79711277D01*
X163803308Y-79616039D01*
X163831880Y-79568420D01*
X163889022Y-79520800D01*
X160977594Y-80520800D02*
X160634737Y-80520800D01*
X160806165Y-80520800D02*
X160806165Y-79520800D01*
X160749022Y-79663658D01*
X160691880Y-79758896D01*
X160634737Y-79806515D01*
X161491880Y-79520800D02*
X161377594Y-79520800D01*
X161320451Y-79568420D01*
X161291880Y-79616039D01*
X161234737Y-79758896D01*
X161206165Y-79949372D01*
X161206165Y-80330324D01*
X161234737Y-80425562D01*
X161263308Y-80473181D01*
X161320451Y-80520800D01*
X161434737Y-80520800D01*
X161491880Y-80473181D01*
X161520451Y-80425562D01*
X161549022Y-80330324D01*
X161549022Y-80092229D01*
X161520451Y-79996991D01*
X161491880Y-79949372D01*
X161434737Y-79901753D01*
X161320451Y-79901753D01*
X161263308Y-79949372D01*
X161234737Y-79996991D01*
X161206165Y-80092229D01*
X155897594Y-80520800D02*
X155554737Y-80520800D01*
X155726165Y-80520800D02*
X155726165Y-79520800D01*
X155669022Y-79663658D01*
X155611880Y-79758896D01*
X155554737Y-79806515D01*
X156126165Y-79616039D02*
X156154737Y-79568420D01*
X156211880Y-79520800D01*
X156354737Y-79520800D01*
X156411880Y-79568420D01*
X156440451Y-79616039D01*
X156469022Y-79711277D01*
X156469022Y-79806515D01*
X156440451Y-79949372D01*
X156097594Y-80520800D01*
X156469022Y-80520800D01*
X145366165Y-79996991D02*
X145166165Y-79996991D01*
X145166165Y-80520800D02*
X145166165Y-79520800D01*
X145451880Y-79520800D01*
X145994737Y-80520800D02*
X145651880Y-80520800D01*
X145823308Y-80520800D02*
X145823308Y-79520800D01*
X145766165Y-79663658D01*
X145709022Y-79758896D01*
X145651880Y-79806515D01*
X146194737Y-79520800D02*
X146566165Y-79520800D01*
X146366165Y-79901753D01*
X146451880Y-79901753D01*
X146509022Y-79949372D01*
X146537594Y-79996991D01*
X146566165Y-80092229D01*
X146566165Y-80330324D01*
X146537594Y-80425562D01*
X146509022Y-80473181D01*
X146451880Y-80520800D01*
X146280451Y-80520800D01*
X146223308Y-80473181D01*
X146194737Y-80425562D01*
X142826165Y-79996991D02*
X142626165Y-79996991D01*
X142626165Y-80520800D02*
X142626165Y-79520800D01*
X142911880Y-79520800D01*
X143454737Y-80520800D02*
X143111880Y-80520800D01*
X143283308Y-80520800D02*
X143283308Y-79520800D01*
X143226165Y-79663658D01*
X143169022Y-79758896D01*
X143111880Y-79806515D01*
X143683308Y-79616039D02*
X143711880Y-79568420D01*
X143769022Y-79520800D01*
X143911880Y-79520800D01*
X143969022Y-79568420D01*
X143997594Y-79616039D01*
X144026165Y-79711277D01*
X144026165Y-79806515D01*
X143997594Y-79949372D01*
X143654737Y-80520800D01*
X144026165Y-80520800D01*
X137746165Y-79996991D02*
X137546165Y-79996991D01*
X137546165Y-80520800D02*
X137546165Y-79520800D01*
X137831880Y-79520800D01*
X138374737Y-80520800D02*
X138031880Y-80520800D01*
X138203308Y-80520800D02*
X138203308Y-79520800D01*
X138146165Y-79663658D01*
X138089022Y-79758896D01*
X138031880Y-79806515D01*
X138946165Y-80520800D02*
X138603308Y-80520800D01*
X138774737Y-80520800D02*
X138774737Y-79520800D01*
X138717594Y-79663658D01*
X138660451Y-79758896D01*
X138603308Y-79806515D01*
X135234737Y-79616039D02*
X135263308Y-79568420D01*
X135320451Y-79520800D01*
X135463308Y-79520800D01*
X135520451Y-79568420D01*
X135549022Y-79616039D01*
X135577594Y-79711277D01*
X135577594Y-79806515D01*
X135549022Y-79949372D01*
X135206165Y-80520800D01*
X135577594Y-80520800D01*
X135777594Y-79520800D02*
X136149022Y-79520800D01*
X135949022Y-79901753D01*
X136034737Y-79901753D01*
X136091880Y-79949372D01*
X136120451Y-79996991D01*
X136149022Y-80092229D01*
X136149022Y-80330324D01*
X136120451Y-80425562D01*
X136091880Y-80473181D01*
X136034737Y-80520800D01*
X135863308Y-80520800D01*
X135806165Y-80473181D01*
X135777594Y-80425562D01*
X130497594Y-80520800D02*
X130154737Y-80520800D01*
X130326165Y-80520800D02*
X130326165Y-79520800D01*
X130269022Y-79663658D01*
X130211880Y-79758896D01*
X130154737Y-79806515D01*
X130840451Y-79949372D02*
X130783308Y-79901753D01*
X130754737Y-79854134D01*
X130726165Y-79758896D01*
X130726165Y-79711277D01*
X130754737Y-79616039D01*
X130783308Y-79568420D01*
X130840451Y-79520800D01*
X130954737Y-79520800D01*
X131011880Y-79568420D01*
X131040451Y-79616039D01*
X131069022Y-79711277D01*
X131069022Y-79758896D01*
X131040451Y-79854134D01*
X131011880Y-79901753D01*
X130954737Y-79949372D01*
X130840451Y-79949372D01*
X130783308Y-79996991D01*
X130754737Y-80044610D01*
X130726165Y-80139848D01*
X130726165Y-80330324D01*
X130754737Y-80425562D01*
X130783308Y-80473181D01*
X130840451Y-80520800D01*
X130954737Y-80520800D01*
X131011880Y-80473181D01*
X131040451Y-80425562D01*
X131069022Y-80330324D01*
X131069022Y-80139848D01*
X131040451Y-80044610D01*
X131011880Y-79996991D01*
X130954737Y-79949372D01*
X127614737Y-79520800D02*
X127957594Y-79520800D01*
X127786165Y-80520800D02*
X127786165Y-79520800D01*
X128100451Y-79520800D02*
X128500451Y-80520800D01*
X128500451Y-79520800D02*
X128100451Y-80520800D01*
X125431880Y-80520800D02*
X125231880Y-80044610D01*
X125089022Y-80520800D02*
X125089022Y-79520800D01*
X125317594Y-79520800D01*
X125374737Y-79568420D01*
X125403308Y-79616039D01*
X125431880Y-79711277D01*
X125431880Y-79854134D01*
X125403308Y-79949372D01*
X125374737Y-79996991D01*
X125317594Y-80044610D01*
X125089022Y-80044610D01*
X125631880Y-79520800D02*
X126031880Y-80520800D01*
X126031880Y-79520800D02*
X125631880Y-80520800D01*
X120366165Y-79520800D02*
X120080451Y-79520800D01*
X120051880Y-79996991D01*
X120080451Y-79949372D01*
X120137594Y-79901753D01*
X120280451Y-79901753D01*
X120337594Y-79949372D01*
X120366165Y-79996991D01*
X120394737Y-80092229D01*
X120394737Y-80330324D01*
X120366165Y-80425562D01*
X120337594Y-80473181D01*
X120280451Y-80520800D01*
X120137594Y-80520800D01*
X120080451Y-80473181D01*
X120051880Y-80425562D01*
X120594737Y-79854134D02*
X120737594Y-80520800D01*
X120880451Y-79854134D01*
X117826165Y-79520800D02*
X117540451Y-79520800D01*
X117511880Y-79996991D01*
X117540451Y-79949372D01*
X117597594Y-79901753D01*
X117740451Y-79901753D01*
X117797594Y-79949372D01*
X117826165Y-79996991D01*
X117854737Y-80092229D01*
X117854737Y-80330324D01*
X117826165Y-80425562D01*
X117797594Y-80473181D01*
X117740451Y-80520800D01*
X117597594Y-80520800D01*
X117540451Y-80473181D01*
X117511880Y-80425562D01*
X118054737Y-79854134D02*
X118197594Y-80520800D01*
X118340451Y-79854134D01*
X117283308Y-85870800D02*
X117654737Y-85870800D01*
X117454737Y-86251753D01*
X117540451Y-86251753D01*
X117597594Y-86299372D01*
X117626165Y-86346991D01*
X117654737Y-86442229D01*
X117654737Y-86680324D01*
X117626165Y-86775562D01*
X117597594Y-86823181D01*
X117540451Y-86870800D01*
X117369022Y-86870800D01*
X117311880Y-86823181D01*
X117283308Y-86775562D01*
X117911880Y-86775562D02*
X117940451Y-86823181D01*
X117911880Y-86870800D01*
X117883308Y-86823181D01*
X117911880Y-86775562D01*
X117911880Y-86870800D01*
X118140451Y-85870800D02*
X118511880Y-85870800D01*
X118311880Y-86251753D01*
X118397594Y-86251753D01*
X118454737Y-86299372D01*
X118483308Y-86346991D01*
X118511880Y-86442229D01*
X118511880Y-86680324D01*
X118483308Y-86775562D01*
X118454737Y-86823181D01*
X118397594Y-86870800D01*
X118226165Y-86870800D01*
X118169022Y-86823181D01*
X118140451Y-86775562D01*
X137603308Y-85870800D02*
X137974737Y-85870800D01*
X137774737Y-86251753D01*
X137860451Y-86251753D01*
X137917594Y-86299372D01*
X137946165Y-86346991D01*
X137974737Y-86442229D01*
X137974737Y-86680324D01*
X137946165Y-86775562D01*
X137917594Y-86823181D01*
X137860451Y-86870800D01*
X137689022Y-86870800D01*
X137631880Y-86823181D01*
X137603308Y-86775562D01*
X138231880Y-86775562D02*
X138260451Y-86823181D01*
X138231880Y-86870800D01*
X138203308Y-86823181D01*
X138231880Y-86775562D01*
X138231880Y-86870800D01*
X138460451Y-85870800D02*
X138831880Y-85870800D01*
X138631880Y-86251753D01*
X138717594Y-86251753D01*
X138774737Y-86299372D01*
X138803308Y-86346991D01*
X138831880Y-86442229D01*
X138831880Y-86680324D01*
X138803308Y-86775562D01*
X138774737Y-86823181D01*
X138717594Y-86870800D01*
X138546165Y-86870800D01*
X138489022Y-86823181D01*
X138460451Y-86775562D01*
X147934737Y-85918420D02*
X147877594Y-85870800D01*
X147791880Y-85870800D01*
X147706165Y-85918420D01*
X147649022Y-86013658D01*
X147620451Y-86108896D01*
X147591880Y-86299372D01*
X147591880Y-86442229D01*
X147620451Y-86632705D01*
X147649022Y-86727943D01*
X147706165Y-86823181D01*
X147791880Y-86870800D01*
X147849022Y-86870800D01*
X147934737Y-86823181D01*
X147963308Y-86775562D01*
X147963308Y-86442229D01*
X147849022Y-86442229D01*
X148220451Y-86870800D02*
X148220451Y-85870800D01*
X148563308Y-86870800D01*
X148563308Y-85870800D01*
X148849022Y-86870800D02*
X148849022Y-85870800D01*
X148991880Y-85870800D01*
X149077594Y-85918420D01*
X149134737Y-86013658D01*
X149163308Y-86108896D01*
X149191880Y-86299372D01*
X149191880Y-86442229D01*
X149163308Y-86632705D01*
X149134737Y-86727943D01*
X149077594Y-86823181D01*
X148991880Y-86870800D01*
X148849022Y-86870800D01*
X165714737Y-85918420D02*
X165657594Y-85870800D01*
X165571880Y-85870800D01*
X165486165Y-85918420D01*
X165429022Y-86013658D01*
X165400451Y-86108896D01*
X165371880Y-86299372D01*
X165371880Y-86442229D01*
X165400451Y-86632705D01*
X165429022Y-86727943D01*
X165486165Y-86823181D01*
X165571880Y-86870800D01*
X165629022Y-86870800D01*
X165714737Y-86823181D01*
X165743308Y-86775562D01*
X165743308Y-86442229D01*
X165629022Y-86442229D01*
X166000451Y-86870800D02*
X166000451Y-85870800D01*
X166343308Y-86870800D01*
X166343308Y-85870800D01*
X166629022Y-86870800D02*
X166629022Y-85870800D01*
X166771880Y-85870800D01*
X166857594Y-85918420D01*
X166914737Y-86013658D01*
X166943308Y-86108896D01*
X166971880Y-86299372D01*
X166971880Y-86442229D01*
X166943308Y-86632705D01*
X166914737Y-86727943D01*
X166857594Y-86823181D01*
X166771880Y-86870800D01*
X166629022Y-86870800D01*
X127614737Y-85918420D02*
X127557594Y-85870800D01*
X127471880Y-85870800D01*
X127386165Y-85918420D01*
X127329022Y-86013658D01*
X127300451Y-86108896D01*
X127271880Y-86299372D01*
X127271880Y-86442229D01*
X127300451Y-86632705D01*
X127329022Y-86727943D01*
X127386165Y-86823181D01*
X127471880Y-86870800D01*
X127529022Y-86870800D01*
X127614737Y-86823181D01*
X127643308Y-86775562D01*
X127643308Y-86442229D01*
X127529022Y-86442229D01*
X127900451Y-86870800D02*
X127900451Y-85870800D01*
X128243308Y-86870800D01*
X128243308Y-85870800D01*
X128529022Y-86870800D02*
X128529022Y-85870800D01*
X128671880Y-85870800D01*
X128757594Y-85918420D01*
X128814737Y-86013658D01*
X128843308Y-86108896D01*
X128871880Y-86299372D01*
X128871880Y-86442229D01*
X128843308Y-86632705D01*
X128814737Y-86727943D01*
X128757594Y-86823181D01*
X128671880Y-86870800D01*
X128529022Y-86870800D01*
X158094737Y-79568420D02*
X158037594Y-79520800D01*
X157951880Y-79520800D01*
X157866165Y-79568420D01*
X157809022Y-79663658D01*
X157780451Y-79758896D01*
X157751880Y-79949372D01*
X157751880Y-80092229D01*
X157780451Y-80282705D01*
X157809022Y-80377943D01*
X157866165Y-80473181D01*
X157951880Y-80520800D01*
X158009022Y-80520800D01*
X158094737Y-80473181D01*
X158123308Y-80425562D01*
X158123308Y-80092229D01*
X158009022Y-80092229D01*
X158380451Y-80520800D02*
X158380451Y-79520800D01*
X158723308Y-80520800D01*
X158723308Y-79520800D01*
X159009022Y-80520800D02*
X159009022Y-79520800D01*
X159151880Y-79520800D01*
X159237594Y-79568420D01*
X159294737Y-79663658D01*
X159323308Y-79758896D01*
X159351880Y-79949372D01*
X159351880Y-80092229D01*
X159323308Y-80282705D01*
X159294737Y-80377943D01*
X159237594Y-80473181D01*
X159151880Y-80520800D01*
X159009022Y-80520800D01*
X153014737Y-79568420D02*
X152957594Y-79520800D01*
X152871880Y-79520800D01*
X152786165Y-79568420D01*
X152729022Y-79663658D01*
X152700451Y-79758896D01*
X152671880Y-79949372D01*
X152671880Y-80092229D01*
X152700451Y-80282705D01*
X152729022Y-80377943D01*
X152786165Y-80473181D01*
X152871880Y-80520800D01*
X152929022Y-80520800D01*
X153014737Y-80473181D01*
X153043308Y-80425562D01*
X153043308Y-80092229D01*
X152929022Y-80092229D01*
X153300451Y-80520800D02*
X153300451Y-79520800D01*
X153643308Y-80520800D01*
X153643308Y-79520800D01*
X153929022Y-80520800D02*
X153929022Y-79520800D01*
X154071880Y-79520800D01*
X154157594Y-79568420D01*
X154214737Y-79663658D01*
X154243308Y-79758896D01*
X154271880Y-79949372D01*
X154271880Y-80092229D01*
X154243308Y-80282705D01*
X154214737Y-80377943D01*
X154157594Y-80473181D01*
X154071880Y-80520800D01*
X153929022Y-80520800D01*
X140314737Y-79568420D02*
X140257594Y-79520800D01*
X140171880Y-79520800D01*
X140086165Y-79568420D01*
X140029022Y-79663658D01*
X140000451Y-79758896D01*
X139971880Y-79949372D01*
X139971880Y-80092229D01*
X140000451Y-80282705D01*
X140029022Y-80377943D01*
X140086165Y-80473181D01*
X140171880Y-80520800D01*
X140229022Y-80520800D01*
X140314737Y-80473181D01*
X140343308Y-80425562D01*
X140343308Y-80092229D01*
X140229022Y-80092229D01*
X140600451Y-80520800D02*
X140600451Y-79520800D01*
X140943308Y-80520800D01*
X140943308Y-79520800D01*
X141229022Y-80520800D02*
X141229022Y-79520800D01*
X141371880Y-79520800D01*
X141457594Y-79568420D01*
X141514737Y-79663658D01*
X141543308Y-79758896D01*
X141571880Y-79949372D01*
X141571880Y-80092229D01*
X141543308Y-80282705D01*
X141514737Y-80377943D01*
X141457594Y-80473181D01*
X141371880Y-80520800D01*
X141229022Y-80520800D01*
X132694737Y-79568420D02*
X132637594Y-79520800D01*
X132551880Y-79520800D01*
X132466165Y-79568420D01*
X132409022Y-79663658D01*
X132380451Y-79758896D01*
X132351880Y-79949372D01*
X132351880Y-80092229D01*
X132380451Y-80282705D01*
X132409022Y-80377943D01*
X132466165Y-80473181D01*
X132551880Y-80520800D01*
X132609022Y-80520800D01*
X132694737Y-80473181D01*
X132723308Y-80425562D01*
X132723308Y-80092229D01*
X132609022Y-80092229D01*
X132980451Y-80520800D02*
X132980451Y-79520800D01*
X133323308Y-80520800D01*
X133323308Y-79520800D01*
X133609022Y-80520800D02*
X133609022Y-79520800D01*
X133751880Y-79520800D01*
X133837594Y-79568420D01*
X133894737Y-79663658D01*
X133923308Y-79758896D01*
X133951880Y-79949372D01*
X133951880Y-80092229D01*
X133923308Y-80282705D01*
X133894737Y-80377943D01*
X133837594Y-80473181D01*
X133751880Y-80520800D01*
X133609022Y-80520800D01*
X122534737Y-79568420D02*
X122477594Y-79520800D01*
X122391880Y-79520800D01*
X122306165Y-79568420D01*
X122249022Y-79663658D01*
X122220451Y-79758896D01*
X122191880Y-79949372D01*
X122191880Y-80092229D01*
X122220451Y-80282705D01*
X122249022Y-80377943D01*
X122306165Y-80473181D01*
X122391880Y-80520800D01*
X122449022Y-80520800D01*
X122534737Y-80473181D01*
X122563308Y-80425562D01*
X122563308Y-80092229D01*
X122449022Y-80092229D01*
X122820451Y-80520800D02*
X122820451Y-79520800D01*
X123163308Y-80520800D01*
X123163308Y-79520800D01*
X123449022Y-80520800D02*
X123449022Y-79520800D01*
X123591880Y-79520800D01*
X123677594Y-79568420D01*
X123734737Y-79663658D01*
X123763308Y-79758896D01*
X123791880Y-79949372D01*
X123791880Y-80092229D01*
X123763308Y-80282705D01*
X123734737Y-80377943D01*
X123677594Y-80473181D01*
X123591880Y-80520800D01*
X123449022Y-80520800D01*
X146018546Y-71638705D02*
X146018546Y-71162515D01*
X146304260Y-71733943D02*
X145304260Y-71400610D01*
X146304260Y-71067277D01*
X145304260Y-70257753D02*
X145304260Y-70733943D01*
X145780451Y-70781562D01*
X145732832Y-70733943D01*
X145685213Y-70638705D01*
X145685213Y-70400610D01*
X145732832Y-70305372D01*
X145780451Y-70257753D01*
X145875689Y-70210134D01*
X146113784Y-70210134D01*
X146209022Y-70257753D01*
X146256641Y-70305372D01*
X146304260Y-70400610D01*
X146304260Y-70638705D01*
X146256641Y-70733943D01*
X146209022Y-70781562D01*
X143478546Y-71638705D02*
X143478546Y-71162515D01*
X143764260Y-71733943D02*
X142764260Y-71400610D01*
X143764260Y-71067277D01*
X143097594Y-70305372D02*
X143764260Y-70305372D01*
X142716641Y-70543467D02*
X143430927Y-70781562D01*
X143430927Y-70162515D01*
X140938546Y-71638705D02*
X140938546Y-71162515D01*
X141224260Y-71733943D02*
X140224260Y-71400610D01*
X141224260Y-71067277D01*
X140224260Y-70829181D02*
X140224260Y-70210134D01*
X140605213Y-70543467D01*
X140605213Y-70400610D01*
X140652832Y-70305372D01*
X140700451Y-70257753D01*
X140795689Y-70210134D01*
X141033784Y-70210134D01*
X141129022Y-70257753D01*
X141176641Y-70305372D01*
X141224260Y-70400610D01*
X141224260Y-70686324D01*
X141176641Y-70781562D01*
X141129022Y-70829181D01*
X138398546Y-71638705D02*
X138398546Y-71162515D01*
X138684260Y-71733943D02*
X137684260Y-71400610D01*
X138684260Y-71067277D01*
X137779499Y-70781562D02*
X137731880Y-70733943D01*
X137684260Y-70638705D01*
X137684260Y-70400610D01*
X137731880Y-70305372D01*
X137779499Y-70257753D01*
X137874737Y-70210134D01*
X137969975Y-70210134D01*
X138112832Y-70257753D01*
X138684260Y-70829181D01*
X138684260Y-70210134D01*
X135858546Y-71638705D02*
X135858546Y-71162515D01*
X136144260Y-71733943D02*
X135144260Y-71400610D01*
X136144260Y-71067277D01*
X136144260Y-70210134D02*
X136144260Y-70781562D01*
X136144260Y-70495848D02*
X135144260Y-70495848D01*
X135287118Y-70591086D01*
X135382356Y-70686324D01*
X135429975Y-70781562D01*
X133318546Y-71638705D02*
X133318546Y-71162515D01*
X133604260Y-71733943D02*
X132604260Y-71400610D01*
X133604260Y-71067277D01*
X132604260Y-70543467D02*
X132604260Y-70448229D01*
X132651880Y-70352991D01*
X132699499Y-70305372D01*
X132794737Y-70257753D01*
X132985213Y-70210134D01*
X133223308Y-70210134D01*
X133413784Y-70257753D01*
X133509022Y-70305372D01*
X133556641Y-70352991D01*
X133604260Y-70448229D01*
X133604260Y-70543467D01*
X133556641Y-70638705D01*
X133509022Y-70686324D01*
X133413784Y-70733943D01*
X133223308Y-70781562D01*
X132985213Y-70781562D01*
X132794737Y-70733943D01*
X132699499Y-70686324D01*
X132651880Y-70638705D01*
X132604260Y-70543467D01*
X124984260Y-71638705D02*
X124984260Y-71019658D01*
X125365213Y-71352991D01*
X125365213Y-71210134D01*
X125412832Y-71114896D01*
X125460451Y-71067277D01*
X125555689Y-71019658D01*
X125793784Y-71019658D01*
X125889022Y-71067277D01*
X125936641Y-71114896D01*
X125984260Y-71210134D01*
X125984260Y-71495848D01*
X125936641Y-71591086D01*
X125889022Y-71638705D01*
X125317594Y-70686324D02*
X125984260Y-70448229D01*
X125317594Y-70210134D01*
X130111880Y-71686324D02*
X130064260Y-71781562D01*
X130064260Y-71924420D01*
X130111880Y-72067277D01*
X130207118Y-72162515D01*
X130302356Y-72210134D01*
X130492832Y-72257753D01*
X130635689Y-72257753D01*
X130826165Y-72210134D01*
X130921403Y-72162515D01*
X131016641Y-72067277D01*
X131064260Y-71924420D01*
X131064260Y-71829181D01*
X131016641Y-71686324D01*
X130969022Y-71638705D01*
X130635689Y-71638705D01*
X130635689Y-71829181D01*
X131064260Y-71210134D02*
X130064260Y-71210134D01*
X131064260Y-70638705D01*
X130064260Y-70638705D01*
X131064260Y-70162515D02*
X130064260Y-70162515D01*
X130064260Y-69924420D01*
X130111880Y-69781562D01*
X130207118Y-69686324D01*
X130302356Y-69638705D01*
X130492832Y-69591086D01*
X130635689Y-69591086D01*
X130826165Y-69638705D01*
X130921403Y-69686324D01*
X131016641Y-69781562D01*
X131064260Y-69924420D01*
X131064260Y-70162515D01*
X148796641Y-71829134D02*
X148844260Y-71686277D01*
X148844260Y-71448181D01*
X148796641Y-71352943D01*
X148749022Y-71305324D01*
X148653784Y-71257705D01*
X148558546Y-71257705D01*
X148463308Y-71305324D01*
X148415689Y-71352943D01*
X148368070Y-71448181D01*
X148320451Y-71638658D01*
X148272832Y-71733896D01*
X148225213Y-71781515D01*
X148129975Y-71829134D01*
X148034737Y-71829134D01*
X147939499Y-71781515D01*
X147891880Y-71733896D01*
X147844260Y-71638658D01*
X147844260Y-71400562D01*
X147891880Y-71257705D01*
X148749022Y-70257705D02*
X148796641Y-70305324D01*
X148844260Y-70448181D01*
X148844260Y-70543420D01*
X148796641Y-70686277D01*
X148701403Y-70781515D01*
X148606165Y-70829134D01*
X148415689Y-70876753D01*
X148272832Y-70876753D01*
X148082356Y-70829134D01*
X147987118Y-70781515D01*
X147891880Y-70686277D01*
X147844260Y-70543420D01*
X147844260Y-70448181D01*
X147891880Y-70305324D01*
X147939499Y-70257705D01*
X148844260Y-69829134D02*
X147844260Y-69829134D01*
X148844260Y-69257705D02*
X148272832Y-69686277D01*
X147844260Y-69257705D02*
X148415689Y-69829134D01*
X150074737Y-70487800D02*
X150074737Y-69487800D01*
X150408070Y-70202086D01*
X150741403Y-69487800D01*
X150741403Y-70487800D01*
X151408070Y-69487800D02*
X151598546Y-69487800D01*
X151693784Y-69535420D01*
X151789022Y-69630658D01*
X151836641Y-69821134D01*
X151836641Y-70154467D01*
X151789022Y-70344943D01*
X151693784Y-70440181D01*
X151598546Y-70487800D01*
X151408070Y-70487800D01*
X151312832Y-70440181D01*
X151217594Y-70344943D01*
X151169975Y-70154467D01*
X151169975Y-69821134D01*
X151217594Y-69630658D01*
X151312832Y-69535420D01*
X151408070Y-69487800D01*
X152900451Y-70487800D02*
X152900451Y-69487800D01*
X153233784Y-70202086D01*
X153567118Y-69487800D01*
X153567118Y-70487800D01*
X154043308Y-70487800D02*
X154043308Y-69487800D01*
X155845213Y-70487800D02*
X155511880Y-70011610D01*
X155273784Y-70487800D02*
X155273784Y-69487800D01*
X155654737Y-69487800D01*
X155749975Y-69535420D01*
X155797594Y-69583039D01*
X155845213Y-69678277D01*
X155845213Y-69821134D01*
X155797594Y-69916372D01*
X155749975Y-69963991D01*
X155654737Y-70011610D01*
X155273784Y-70011610D01*
X156178546Y-69487800D02*
X156845213Y-70487800D01*
X156845213Y-69487800D02*
X156178546Y-70487800D01*
X157789975Y-69487800D02*
X158361403Y-69487800D01*
X158075689Y-70487800D02*
X158075689Y-69487800D01*
X158599499Y-69487800D02*
X159266165Y-70487800D01*
X159266165Y-69487800D02*
X158599499Y-70487800D01*
X136969975Y-44595800D02*
X136969975Y-45405324D01*
X137017594Y-45500562D01*
X137065213Y-45548181D01*
X137160451Y-45595800D01*
X137350927Y-45595800D01*
X137446165Y-45548181D01*
X137493784Y-45500562D01*
X137541403Y-45405324D01*
X137541403Y-44595800D01*
X137969975Y-45548181D02*
X138112832Y-45595800D01*
X138350927Y-45595800D01*
X138446165Y-45548181D01*
X138493784Y-45500562D01*
X138541403Y-45405324D01*
X138541403Y-45310086D01*
X138493784Y-45214848D01*
X138446165Y-45167229D01*
X138350927Y-45119610D01*
X138160451Y-45071991D01*
X138065213Y-45024372D01*
X138017594Y-44976753D01*
X137969975Y-44881515D01*
X137969975Y-44786277D01*
X138017594Y-44691039D01*
X138065213Y-44643420D01*
X138160451Y-44595800D01*
X138398546Y-44595800D01*
X138541403Y-44643420D01*
X139303308Y-45071991D02*
X139446165Y-45119610D01*
X139493784Y-45167229D01*
X139541403Y-45262467D01*
X139541403Y-45405324D01*
X139493784Y-45500562D01*
X139446165Y-45548181D01*
X139350927Y-45595800D01*
X138969975Y-45595800D01*
X138969975Y-44595800D01*
X139303308Y-44595800D01*
X139398546Y-44643420D01*
X139446165Y-44691039D01*
X139493784Y-44786277D01*
X139493784Y-44881515D01*
X139446165Y-44976753D01*
X139398546Y-45024372D01*
X139303308Y-45071991D01*
X138969975Y-45071991D01*
X157361403Y-45548181D02*
X157504260Y-45595800D01*
X157742356Y-45595800D01*
X157837594Y-45548181D01*
X157885213Y-45500562D01*
X157932832Y-45405324D01*
X157932832Y-45310086D01*
X157885213Y-45214848D01*
X157837594Y-45167229D01*
X157742356Y-45119610D01*
X157551880Y-45071991D01*
X157456641Y-45024372D01*
X157409022Y-44976753D01*
X157361403Y-44881515D01*
X157361403Y-44786277D01*
X157409022Y-44691039D01*
X157456641Y-44643420D01*
X157551880Y-44595800D01*
X157789975Y-44595800D01*
X157932832Y-44643420D01*
X158932832Y-45500562D02*
X158885213Y-45548181D01*
X158742356Y-45595800D01*
X158647118Y-45595800D01*
X158504260Y-45548181D01*
X158409022Y-45452943D01*
X158361403Y-45357705D01*
X158313784Y-45167229D01*
X158313784Y-45024372D01*
X158361403Y-44833896D01*
X158409022Y-44738658D01*
X158504260Y-44643420D01*
X158647118Y-44595800D01*
X158742356Y-44595800D01*
X158885213Y-44643420D01*
X158932832Y-44691039D01*
X159837594Y-45595800D02*
X159361403Y-45595800D01*
X159361403Y-44595800D01*
X160893594Y-45548181D02*
X161036451Y-45595800D01*
X161274546Y-45595800D01*
X161369784Y-45548181D01*
X161417403Y-45500562D01*
X161465022Y-45405324D01*
X161465022Y-45310086D01*
X161417403Y-45214848D01*
X161369784Y-45167229D01*
X161274546Y-45119610D01*
X161084070Y-45071991D01*
X160988832Y-45024372D01*
X160941213Y-44976753D01*
X160893594Y-44881515D01*
X160893594Y-44786277D01*
X160941213Y-44691039D01*
X160988832Y-44643420D01*
X161084070Y-44595800D01*
X161322165Y-44595800D01*
X161465022Y-44643420D01*
X161893594Y-45595800D02*
X161893594Y-44595800D01*
X162131689Y-44595800D01*
X162274546Y-44643420D01*
X162369784Y-44738658D01*
X162417403Y-44833896D01*
X162465022Y-45024372D01*
X162465022Y-45167229D01*
X162417403Y-45357705D01*
X162369784Y-45452943D01*
X162274546Y-45548181D01*
X162131689Y-45595800D01*
X161893594Y-45595800D01*
X162845975Y-45310086D02*
X163322165Y-45310086D01*
X162750737Y-45595800D02*
X163084070Y-44595800D01*
X163417403Y-45595800D01*
X123444260Y-71472039D02*
X122968070Y-71805372D01*
X123444260Y-72043467D02*
X122444260Y-72043467D01*
X122444260Y-71662515D01*
X122491880Y-71567277D01*
X122539499Y-71519658D01*
X122634737Y-71472039D01*
X122777594Y-71472039D01*
X122872832Y-71519658D01*
X122920451Y-71567277D01*
X122968070Y-71662515D01*
X122968070Y-72043467D01*
X123396641Y-71091086D02*
X123444260Y-70948229D01*
X123444260Y-70710134D01*
X123396641Y-70614896D01*
X123349022Y-70567277D01*
X123253784Y-70519658D01*
X123158546Y-70519658D01*
X123063308Y-70567277D01*
X123015689Y-70614896D01*
X122968070Y-70710134D01*
X122920451Y-70900610D01*
X122872832Y-70995848D01*
X122825213Y-71043467D01*
X122729975Y-71091086D01*
X122634737Y-71091086D01*
X122539499Y-71043467D01*
X122491880Y-70995848D01*
X122444260Y-70900610D01*
X122444260Y-70662515D01*
X122491880Y-70519658D01*
X122444260Y-70233943D02*
X122444260Y-69662515D01*
X123444260Y-69948229D02*
X122444260Y-69948229D01*
X131977213Y-45071991D02*
X132120070Y-45119610D01*
X132167689Y-45167229D01*
X132215308Y-45262467D01*
X132215308Y-45405324D01*
X132167689Y-45500562D01*
X132120070Y-45548181D01*
X132024832Y-45595800D01*
X131643880Y-45595800D01*
X131643880Y-44595800D01*
X131977213Y-44595800D01*
X132072451Y-44643420D01*
X132120070Y-44691039D01*
X132167689Y-44786277D01*
X132167689Y-44881515D01*
X132120070Y-44976753D01*
X132072451Y-45024372D01*
X131977213Y-45071991D01*
X131643880Y-45071991D01*
X133072451Y-45595800D02*
X133072451Y-45071991D01*
X133024832Y-44976753D01*
X132929594Y-44929134D01*
X132739118Y-44929134D01*
X132643880Y-44976753D01*
X133072451Y-45548181D02*
X132977213Y-45595800D01*
X132739118Y-45595800D01*
X132643880Y-45548181D01*
X132596260Y-45452943D01*
X132596260Y-45357705D01*
X132643880Y-45262467D01*
X132739118Y-45214848D01*
X132977213Y-45214848D01*
X133072451Y-45167229D01*
X133405784Y-44929134D02*
X133786737Y-44929134D01*
X133548641Y-44595800D02*
X133548641Y-45452943D01*
X133596260Y-45548181D01*
X133691499Y-45595800D01*
X133786737Y-45595800D01*
D12*
%TO.C,D1*%
X171632000Y-81017400D02*
X168772000Y-81017400D01*
X168772000Y-81017400D02*
X168772000Y-82937400D01*
X168772000Y-82937400D02*
X171632000Y-82937400D01*
%TO.C,R3*%
X170228748Y-83803400D02*
X170751252Y-83803400D01*
X170228748Y-85223400D02*
X170751252Y-85223400D01*
%TO.C,J1*%
X169922000Y-76699400D02*
X172582000Y-76699400D01*
X169922000Y-48699400D02*
X169922000Y-76699400D01*
X172582000Y-48699400D02*
X172582000Y-76699400D01*
X169922000Y-48699400D02*
X172582000Y-48699400D01*
X169922000Y-47429400D02*
X169922000Y-46099400D01*
X169922000Y-46099400D02*
X171252000Y-46099400D01*
%TO.C,J2*%
X111502000Y-46099400D02*
X112832000Y-46099400D01*
X111502000Y-47429400D02*
X111502000Y-46099400D01*
X111502000Y-48699400D02*
X114162000Y-48699400D01*
X114162000Y-48699400D02*
X114162000Y-76699400D01*
X111502000Y-48699400D02*
X111502000Y-76699400D01*
X111502000Y-76699400D02*
X114162000Y-76699400D01*
%TO.C,D1*%
D10*
X173736379Y-82711494D02*
X172736379Y-82711494D01*
X172736379Y-82473399D01*
X172783999Y-82330541D01*
X172879237Y-82235303D01*
X172974475Y-82187684D01*
X173164951Y-82140065D01*
X173307808Y-82140065D01*
X173498284Y-82187684D01*
X173593522Y-82235303D01*
X173688760Y-82330541D01*
X173736379Y-82473399D01*
X173736379Y-82711494D01*
X173736379Y-81187684D02*
X173736379Y-81759113D01*
X173736379Y-81473399D02*
X172736379Y-81473399D01*
X172879237Y-81568637D01*
X172974475Y-81663875D01*
X173022094Y-81759113D01*
%TO.C,R3*%
X173736380Y-84680066D02*
X173260190Y-85013400D01*
X173736380Y-85251495D02*
X172736380Y-85251495D01*
X172736380Y-84870542D01*
X172784000Y-84775304D01*
X172831619Y-84727685D01*
X172926857Y-84680066D01*
X173069714Y-84680066D01*
X173164952Y-84727685D01*
X173212571Y-84775304D01*
X173260190Y-84870542D01*
X173260190Y-85251495D01*
X172736380Y-84346733D02*
X172736380Y-83727685D01*
X173117333Y-84061019D01*
X173117333Y-83918161D01*
X173164952Y-83822923D01*
X173212571Y-83775304D01*
X173307809Y-83727685D01*
X173545904Y-83727685D01*
X173641142Y-83775304D01*
X173688761Y-83822923D01*
X173736380Y-83918161D01*
X173736380Y-84203876D01*
X173688761Y-84299114D01*
X173641142Y-84346733D01*
%TD*%
M02*
