%TF.GenerationSoftware,KiCad,Pcbnew,(5.1.6)-1*%
%TF.CreationDate,2020-10-07T00:16:53+02:00*%
%TF.ProjectId,RPI_FEATHER,5250495f-4645-4415-9448-45522e6b6963,rev?*%
%TF.SameCoordinates,Original*%
%TF.FileFunction,Paste,Top*%
%TF.FilePolarity,Positive*%
%FSLAX46Y46*%
G04 Gerber Fmt 4.6, Leading zero omitted, Abs format (unit mm)*
G04 Created by KiCad (PCBNEW (5.1.6)-1) date 2020-10-07 00:16:53*
%MOMM*%
%LPD*%
G01*
G04 APERTURE LIST*
G04 APERTURE END LIST*
%TO.C,R1*%
G36*
G01*
X119026999Y-75704400D02*
X119927001Y-75704400D01*
G75*
G02*
X120177000Y-75954399I0J-249999D01*
G01*
X120177000Y-76604401D01*
G75*
G02*
X119927001Y-76854400I-249999J0D01*
G01*
X119026999Y-76854400D01*
G75*
G02*
X118777000Y-76604401I0J249999D01*
G01*
X118777000Y-75954399D01*
G75*
G02*
X119026999Y-75704400I249999J0D01*
G01*
G37*
G36*
G01*
X119026999Y-77754400D02*
X119927001Y-77754400D01*
G75*
G02*
X120177000Y-78004399I0J-249999D01*
G01*
X120177000Y-78654401D01*
G75*
G02*
X119927001Y-78904400I-249999J0D01*
G01*
X119026999Y-78904400D01*
G75*
G02*
X118777000Y-78654401I0J249999D01*
G01*
X118777000Y-78004399D01*
G75*
G02*
X119026999Y-77754400I249999J0D01*
G01*
G37*
%TD*%
%TO.C,R2*%
G36*
G01*
X119026999Y-73004400D02*
X119927001Y-73004400D01*
G75*
G02*
X120177000Y-73254399I0J-249999D01*
G01*
X120177000Y-73904401D01*
G75*
G02*
X119927001Y-74154400I-249999J0D01*
G01*
X119026999Y-74154400D01*
G75*
G02*
X118777000Y-73904401I0J249999D01*
G01*
X118777000Y-73254399D01*
G75*
G02*
X119026999Y-73004400I249999J0D01*
G01*
G37*
G36*
G01*
X119026999Y-70954400D02*
X119927001Y-70954400D01*
G75*
G02*
X120177000Y-71204399I0J-249999D01*
G01*
X120177000Y-71854401D01*
G75*
G02*
X119927001Y-72104400I-249999J0D01*
G01*
X119026999Y-72104400D01*
G75*
G02*
X118777000Y-71854401I0J249999D01*
G01*
X118777000Y-71204399D01*
G75*
G02*
X119026999Y-70954400I249999J0D01*
G01*
G37*
%TD*%
%TO.C,D1*%
G36*
G01*
X169032000Y-82427401D02*
X169032000Y-81527399D01*
G75*
G02*
X169281999Y-81277400I249999J0D01*
G01*
X169932001Y-81277400D01*
G75*
G02*
X170182000Y-81527399I0J-249999D01*
G01*
X170182000Y-82427401D01*
G75*
G02*
X169932001Y-82677400I-249999J0D01*
G01*
X169281999Y-82677400D01*
G75*
G02*
X169032000Y-82427401I0J249999D01*
G01*
G37*
G36*
G01*
X171082000Y-82427401D02*
X171082000Y-81527399D01*
G75*
G02*
X171331999Y-81277400I249999J0D01*
G01*
X171982001Y-81277400D01*
G75*
G02*
X172232000Y-81527399I0J-249999D01*
G01*
X172232000Y-82427401D01*
G75*
G02*
X171982001Y-82677400I-249999J0D01*
G01*
X171331999Y-82677400D01*
G75*
G02*
X171082000Y-82427401I0J249999D01*
G01*
G37*
%TD*%
%TO.C,R3*%
G36*
G01*
X168890000Y-84963401D02*
X168890000Y-84063399D01*
G75*
G02*
X169139999Y-83813400I249999J0D01*
G01*
X169790001Y-83813400D01*
G75*
G02*
X170040000Y-84063399I0J-249999D01*
G01*
X170040000Y-84963401D01*
G75*
G02*
X169790001Y-85213400I-249999J0D01*
G01*
X169139999Y-85213400D01*
G75*
G02*
X168890000Y-84963401I0J249999D01*
G01*
G37*
G36*
G01*
X170940000Y-84963401D02*
X170940000Y-84063399D01*
G75*
G02*
X171189999Y-83813400I249999J0D01*
G01*
X171840001Y-83813400D01*
G75*
G02*
X172090000Y-84063399I0J-249999D01*
G01*
X172090000Y-84963401D01*
G75*
G02*
X171840001Y-85213400I-249999J0D01*
G01*
X171189999Y-85213400D01*
G75*
G02*
X170940000Y-84963401I0J249999D01*
G01*
G37*
%TD*%
M02*
