%TF.GenerationSoftware,KiCad,Pcbnew,(5.1.6)-1*%
%TF.CreationDate,2020-10-07T23:45:21+02:00*%
%TF.ProjectId,RPI_FEATHER,5250495f-4645-4415-9448-45522e6b6963,rev?*%
%TF.SameCoordinates,Original*%
%TF.FileFunction,Paste,Bot*%
%TF.FilePolarity,Positive*%
%FSLAX46Y46*%
G04 Gerber Fmt 4.6, Leading zero omitted, Abs format (unit mm)*
G04 Created by KiCad (PCBNEW (5.1.6)-1) date 2020-10-07 23:45:21*
%MOMM*%
%LPD*%
G01*
G04 APERTURE LIST*
%ADD10C,1.524000*%
G04 APERTURE END LIST*
%TO.C,R1*%
G36*
G01*
X150602000Y-74549401D02*
X150602000Y-73649399D01*
G75*
G02*
X150851999Y-73399400I249999J0D01*
G01*
X151502001Y-73399400D01*
G75*
G02*
X151752000Y-73649399I0J-249999D01*
G01*
X151752000Y-74549401D01*
G75*
G02*
X151502001Y-74799400I-249999J0D01*
G01*
X150851999Y-74799400D01*
G75*
G02*
X150602000Y-74549401I0J249999D01*
G01*
G37*
G36*
G01*
X152652000Y-74549401D02*
X152652000Y-73649399D01*
G75*
G02*
X152901999Y-73399400I249999J0D01*
G01*
X153552001Y-73399400D01*
G75*
G02*
X153802000Y-73649399I0J-249999D01*
G01*
X153802000Y-74549401D01*
G75*
G02*
X153552001Y-74799400I-249999J0D01*
G01*
X152901999Y-74799400D01*
G75*
G02*
X152652000Y-74549401I0J249999D01*
G01*
G37*
%TD*%
%TO.C,R2*%
G36*
G01*
X152652000Y-77089401D02*
X152652000Y-76189399D01*
G75*
G02*
X152901999Y-75939400I249999J0D01*
G01*
X153552001Y-75939400D01*
G75*
G02*
X153802000Y-76189399I0J-249999D01*
G01*
X153802000Y-77089401D01*
G75*
G02*
X153552001Y-77339400I-249999J0D01*
G01*
X152901999Y-77339400D01*
G75*
G02*
X152652000Y-77089401I0J249999D01*
G01*
G37*
G36*
G01*
X150602000Y-77089401D02*
X150602000Y-76189399D01*
G75*
G02*
X150851999Y-75939400I249999J0D01*
G01*
X151502001Y-75939400D01*
G75*
G02*
X151752000Y-76189399I0J-249999D01*
G01*
X151752000Y-77089401D01*
G75*
G02*
X151502001Y-77339400I-249999J0D01*
G01*
X150851999Y-77339400D01*
G75*
G02*
X150602000Y-77089401I0J249999D01*
G01*
G37*
%TD*%
D10*
%TO.C,J3*%
X138232000Y-75369400D03*
X135692000Y-75369400D03*
X133152000Y-75369400D03*
X130612000Y-75369400D03*
%TD*%
%TO.C,R4*%
G36*
G01*
X143467000Y-77384401D02*
X143467000Y-76484399D01*
G75*
G02*
X143716999Y-76234400I249999J0D01*
G01*
X144367001Y-76234400D01*
G75*
G02*
X144617000Y-76484399I0J-249999D01*
G01*
X144617000Y-77384401D01*
G75*
G02*
X144367001Y-77634400I-249999J0D01*
G01*
X143716999Y-77634400D01*
G75*
G02*
X143467000Y-77384401I0J249999D01*
G01*
G37*
G36*
G01*
X141417000Y-77384401D02*
X141417000Y-76484399D01*
G75*
G02*
X141666999Y-76234400I249999J0D01*
G01*
X142317001Y-76234400D01*
G75*
G02*
X142567000Y-76484399I0J-249999D01*
G01*
X142567000Y-77384401D01*
G75*
G02*
X142317001Y-77634400I-249999J0D01*
G01*
X141666999Y-77634400D01*
G75*
G02*
X141417000Y-77384401I0J249999D01*
G01*
G37*
%TD*%
%TO.C,R5*%
G36*
G01*
X147572000Y-77384401D02*
X147572000Y-76484399D01*
G75*
G02*
X147821999Y-76234400I249999J0D01*
G01*
X148472001Y-76234400D01*
G75*
G02*
X148722000Y-76484399I0J-249999D01*
G01*
X148722000Y-77384401D01*
G75*
G02*
X148472001Y-77634400I-249999J0D01*
G01*
X147821999Y-77634400D01*
G75*
G02*
X147572000Y-77384401I0J249999D01*
G01*
G37*
G36*
G01*
X145522000Y-77384401D02*
X145522000Y-76484399D01*
G75*
G02*
X145771999Y-76234400I249999J0D01*
G01*
X146422001Y-76234400D01*
G75*
G02*
X146672000Y-76484399I0J-249999D01*
G01*
X146672000Y-77384401D01*
G75*
G02*
X146422001Y-77634400I-249999J0D01*
G01*
X145771999Y-77634400D01*
G75*
G02*
X145522000Y-77384401I0J249999D01*
G01*
G37*
%TD*%
%TO.C,R6*%
G36*
G01*
X145522000Y-74549401D02*
X145522000Y-73649399D01*
G75*
G02*
X145771999Y-73399400I249999J0D01*
G01*
X146422001Y-73399400D01*
G75*
G02*
X146672000Y-73649399I0J-249999D01*
G01*
X146672000Y-74549401D01*
G75*
G02*
X146422001Y-74799400I-249999J0D01*
G01*
X145771999Y-74799400D01*
G75*
G02*
X145522000Y-74549401I0J249999D01*
G01*
G37*
G36*
G01*
X147572000Y-74549401D02*
X147572000Y-73649399D01*
G75*
G02*
X147821999Y-73399400I249999J0D01*
G01*
X148472001Y-73399400D01*
G75*
G02*
X148722000Y-73649399I0J-249999D01*
G01*
X148722000Y-74549401D01*
G75*
G02*
X148472001Y-74799400I-249999J0D01*
G01*
X147821999Y-74799400D01*
G75*
G02*
X147572000Y-74549401I0J249999D01*
G01*
G37*
%TD*%
%TO.C,R7*%
G36*
G01*
X141417000Y-74434401D02*
X141417000Y-73534399D01*
G75*
G02*
X141666999Y-73284400I249999J0D01*
G01*
X142317001Y-73284400D01*
G75*
G02*
X142567000Y-73534399I0J-249999D01*
G01*
X142567000Y-74434401D01*
G75*
G02*
X142317001Y-74684400I-249999J0D01*
G01*
X141666999Y-74684400D01*
G75*
G02*
X141417000Y-74434401I0J249999D01*
G01*
G37*
G36*
G01*
X143467000Y-74434401D02*
X143467000Y-73534399D01*
G75*
G02*
X143716999Y-73284400I249999J0D01*
G01*
X144367001Y-73284400D01*
G75*
G02*
X144617000Y-73534399I0J-249999D01*
G01*
X144617000Y-74434401D01*
G75*
G02*
X144367001Y-74684400I-249999J0D01*
G01*
X143716999Y-74684400D01*
G75*
G02*
X143467000Y-74434401I0J249999D01*
G01*
G37*
%TD*%
M02*
