%TF.GenerationSoftware,KiCad,Pcbnew,(5.1.6)-1*%
%TF.CreationDate,2020-10-07T00:16:53+02:00*%
%TF.ProjectId,RPI_FEATHER,5250495f-4645-4415-9448-45522e6b6963,rev?*%
%TF.SameCoordinates,Original*%
%TF.FileFunction,Soldermask,Top*%
%TF.FilePolarity,Negative*%
%FSLAX46Y46*%
G04 Gerber Fmt 4.6, Leading zero omitted, Abs format (unit mm)*
G04 Created by KiCad (PCBNEW (5.1.6)-1) date 2020-10-07 00:16:53*
%MOMM*%
%LPD*%
G01*
G04 APERTURE LIST*
%ADD10C,2.200000*%
%ADD11C,1.524000*%
%ADD12R,1.524000X1.524000*%
%ADD13C,3.556000*%
%ADD14O,1.700000X1.700000*%
%ADD15R,1.700000X1.700000*%
G04 APERTURE END LIST*
D10*
%TO.C,REF34*%
X149662000Y-53779400D03*
%TD*%
%TO.C,REF33*%
X126802000Y-48699400D03*
%TD*%
%TO.C,REF11*%
X171252000Y-94419400D03*
%TD*%
%TO.C,REF22*%
X112832000Y-94419400D03*
%TD*%
D11*
%TO.C,PI2*%
X117912000Y-93784400D03*
X117912000Y-91244400D03*
X120452000Y-93784400D03*
X120452000Y-91244400D03*
X122992000Y-93784400D03*
X122992000Y-91244400D03*
X125532000Y-93784400D03*
X125532000Y-91244400D03*
X128072000Y-93784400D03*
X128072000Y-91244400D03*
X130612000Y-93784400D03*
X130612000Y-91244400D03*
X133152000Y-93784400D03*
X133152000Y-91244400D03*
X135692000Y-93784400D03*
X135692000Y-91244400D03*
X138232000Y-93784400D03*
X138232000Y-91244400D03*
X140772000Y-93784400D03*
X140772000Y-91244400D03*
X143312000Y-93784400D03*
X143312000Y-91244400D03*
X145852000Y-93784400D03*
X145852000Y-91244400D03*
X148392000Y-93784400D03*
X148392000Y-91244400D03*
X150932000Y-93784400D03*
X150932000Y-91244400D03*
X153472000Y-93784400D03*
X153472000Y-91244400D03*
X156012000Y-93784400D03*
X156012000Y-91244400D03*
X158552000Y-93784400D03*
X158552000Y-91244400D03*
X161092000Y-93784400D03*
X161092000Y-91244400D03*
X163632000Y-93784400D03*
X163632000Y-91244400D03*
X166172000Y-93784400D03*
D12*
X166172000Y-91244400D03*
%TD*%
D13*
%TO.C,U1*%
X164902000Y-66479400D03*
X119182000Y-66479400D03*
X164902000Y-48699400D03*
X119182000Y-48699400D03*
D11*
X161092000Y-47429400D03*
X158552000Y-47429400D03*
X156012000Y-47429400D03*
X153472000Y-47429400D03*
X150932000Y-47429400D03*
X148392000Y-47429400D03*
X145852000Y-47429400D03*
X143312000Y-47429400D03*
X140772000Y-47429400D03*
X138232000Y-47429400D03*
X135692000Y-47429400D03*
X133152000Y-47429400D03*
X161092000Y-67749400D03*
X158552000Y-67749400D03*
X156012000Y-67749400D03*
X153472000Y-67749400D03*
X150932000Y-67749400D03*
X148392000Y-67749400D03*
X145852000Y-67749400D03*
X143312000Y-67749400D03*
X140772000Y-67749400D03*
X138232000Y-67749400D03*
X135692000Y-67749400D03*
X133152000Y-67749400D03*
X130612000Y-67749400D03*
X128072000Y-67749400D03*
X125532000Y-67749400D03*
X122992000Y-67749400D03*
%TD*%
D12*
%TO.C,PI1*%
X117912000Y-85529400D03*
D11*
X117912000Y-82989400D03*
X120452000Y-85529400D03*
X120452000Y-82989400D03*
X122992000Y-85529400D03*
X122992000Y-82989400D03*
X125532000Y-85529400D03*
X125532000Y-82989400D03*
X128072000Y-85529400D03*
X128072000Y-82989400D03*
X130612000Y-85529400D03*
X130612000Y-82989400D03*
X133152000Y-85529400D03*
X133152000Y-82989400D03*
X135692000Y-85529400D03*
X135692000Y-82989400D03*
X138232000Y-85529400D03*
X138232000Y-82989400D03*
X140772000Y-85529400D03*
X140772000Y-82989400D03*
X143312000Y-85529400D03*
X143312000Y-82989400D03*
X145852000Y-85529400D03*
X145852000Y-82989400D03*
X148392000Y-85529400D03*
X148392000Y-82989400D03*
X150932000Y-85529400D03*
X150932000Y-82989400D03*
X153472000Y-85529400D03*
X153472000Y-82989400D03*
X156012000Y-85529400D03*
X156012000Y-82989400D03*
X158552000Y-85529400D03*
X158552000Y-82989400D03*
X161092000Y-85529400D03*
X161092000Y-82989400D03*
X163632000Y-85529400D03*
X163632000Y-82989400D03*
X166172000Y-85529400D03*
X166172000Y-82989400D03*
%TD*%
%TO.C,R1*%
G36*
G01*
X119026999Y-75704400D02*
X119927001Y-75704400D01*
G75*
G02*
X120177000Y-75954399I0J-249999D01*
G01*
X120177000Y-76604401D01*
G75*
G02*
X119927001Y-76854400I-249999J0D01*
G01*
X119026999Y-76854400D01*
G75*
G02*
X118777000Y-76604401I0J249999D01*
G01*
X118777000Y-75954399D01*
G75*
G02*
X119026999Y-75704400I249999J0D01*
G01*
G37*
G36*
G01*
X119026999Y-77754400D02*
X119927001Y-77754400D01*
G75*
G02*
X120177000Y-78004399I0J-249999D01*
G01*
X120177000Y-78654401D01*
G75*
G02*
X119927001Y-78904400I-249999J0D01*
G01*
X119026999Y-78904400D01*
G75*
G02*
X118777000Y-78654401I0J249999D01*
G01*
X118777000Y-78004399D01*
G75*
G02*
X119026999Y-77754400I249999J0D01*
G01*
G37*
%TD*%
%TO.C,R2*%
G36*
G01*
X119026999Y-73004400D02*
X119927001Y-73004400D01*
G75*
G02*
X120177000Y-73254399I0J-249999D01*
G01*
X120177000Y-73904401D01*
G75*
G02*
X119927001Y-74154400I-249999J0D01*
G01*
X119026999Y-74154400D01*
G75*
G02*
X118777000Y-73904401I0J249999D01*
G01*
X118777000Y-73254399D01*
G75*
G02*
X119026999Y-73004400I249999J0D01*
G01*
G37*
G36*
G01*
X119026999Y-70954400D02*
X119927001Y-70954400D01*
G75*
G02*
X120177000Y-71204399I0J-249999D01*
G01*
X120177000Y-71854401D01*
G75*
G02*
X119927001Y-72104400I-249999J0D01*
G01*
X119026999Y-72104400D01*
G75*
G02*
X118777000Y-71854401I0J249999D01*
G01*
X118777000Y-71204399D01*
G75*
G02*
X119026999Y-70954400I249999J0D01*
G01*
G37*
%TD*%
%TO.C,D1*%
G36*
G01*
X169032000Y-82427401D02*
X169032000Y-81527399D01*
G75*
G02*
X169281999Y-81277400I249999J0D01*
G01*
X169932001Y-81277400D01*
G75*
G02*
X170182000Y-81527399I0J-249999D01*
G01*
X170182000Y-82427401D01*
G75*
G02*
X169932001Y-82677400I-249999J0D01*
G01*
X169281999Y-82677400D01*
G75*
G02*
X169032000Y-82427401I0J249999D01*
G01*
G37*
G36*
G01*
X171082000Y-82427401D02*
X171082000Y-81527399D01*
G75*
G02*
X171331999Y-81277400I249999J0D01*
G01*
X171982001Y-81277400D01*
G75*
G02*
X172232000Y-81527399I0J-249999D01*
G01*
X172232000Y-82427401D01*
G75*
G02*
X171982001Y-82677400I-249999J0D01*
G01*
X171331999Y-82677400D01*
G75*
G02*
X171082000Y-82427401I0J249999D01*
G01*
G37*
%TD*%
%TO.C,R3*%
G36*
G01*
X168890000Y-84963401D02*
X168890000Y-84063399D01*
G75*
G02*
X169139999Y-83813400I249999J0D01*
G01*
X169790001Y-83813400D01*
G75*
G02*
X170040000Y-84063399I0J-249999D01*
G01*
X170040000Y-84963401D01*
G75*
G02*
X169790001Y-85213400I-249999J0D01*
G01*
X169139999Y-85213400D01*
G75*
G02*
X168890000Y-84963401I0J249999D01*
G01*
G37*
G36*
G01*
X170940000Y-84963401D02*
X170940000Y-84063399D01*
G75*
G02*
X171189999Y-83813400I249999J0D01*
G01*
X171840001Y-83813400D01*
G75*
G02*
X172090000Y-84063399I0J-249999D01*
G01*
X172090000Y-84963401D01*
G75*
G02*
X171840001Y-85213400I-249999J0D01*
G01*
X171189999Y-85213400D01*
G75*
G02*
X170940000Y-84963401I0J249999D01*
G01*
G37*
%TD*%
D14*
%TO.C,J1*%
X171252000Y-75369400D03*
X171252000Y-72829400D03*
X171252000Y-70289400D03*
X171252000Y-67749400D03*
X171252000Y-65209400D03*
X171252000Y-62669400D03*
X171252000Y-60129400D03*
X171252000Y-57589400D03*
X171252000Y-55049400D03*
X171252000Y-52509400D03*
X171252000Y-49969400D03*
D15*
X171252000Y-47429400D03*
%TD*%
%TO.C,J2*%
X112832000Y-47429400D03*
D14*
X112832000Y-49969400D03*
X112832000Y-52509400D03*
X112832000Y-55049400D03*
X112832000Y-57589400D03*
X112832000Y-60129400D03*
X112832000Y-62669400D03*
X112832000Y-65209400D03*
X112832000Y-67749400D03*
X112832000Y-70289400D03*
X112832000Y-72829400D03*
X112832000Y-75369400D03*
%TD*%
M02*
