%TF.GenerationSoftware,KiCad,Pcbnew,(5.1.6)-1*%
%TF.CreationDate,2020-10-07T00:16:53+02:00*%
%TF.ProjectId,RPI_FEATHER,5250495f-4645-4415-9448-45522e6b6963,rev?*%
%TF.SameCoordinates,Original*%
%TF.FileFunction,Legend,Top*%
%TF.FilePolarity,Positive*%
%FSLAX46Y46*%
G04 Gerber Fmt 4.6, Leading zero omitted, Abs format (unit mm)*
G04 Created by KiCad (PCBNEW (5.1.6)-1) date 2020-10-07 00:16:53*
%MOMM*%
%LPD*%
G01*
G04 APERTURE LIST*
%ADD10C,0.150000*%
%ADD11C,0.100000*%
%ADD12C,0.200000*%
%ADD13C,0.120000*%
G04 APERTURE END LIST*
D10*
X113609880Y-83441800D02*
X113409880Y-82965610D01*
X113267022Y-83441800D02*
X113267022Y-82441800D01*
X113495594Y-82441800D01*
X113552737Y-82489420D01*
X113581308Y-82537039D01*
X113609880Y-82632277D01*
X113609880Y-82775134D01*
X113581308Y-82870372D01*
X113552737Y-82917991D01*
X113495594Y-82965610D01*
X113267022Y-82965610D01*
X113867022Y-83441800D02*
X113867022Y-82441800D01*
X114095594Y-82441800D01*
X114152737Y-82489420D01*
X114181308Y-82537039D01*
X114209880Y-82632277D01*
X114209880Y-82775134D01*
X114181308Y-82870372D01*
X114152737Y-82917991D01*
X114095594Y-82965610D01*
X113867022Y-82965610D01*
X114467022Y-83441800D02*
X114467022Y-82775134D01*
X114467022Y-82441800D02*
X114438451Y-82489420D01*
X114467022Y-82537039D01*
X114495594Y-82489420D01*
X114467022Y-82441800D01*
X114467022Y-82537039D01*
X115324165Y-82441800D02*
X115381308Y-82441800D01*
X115438451Y-82489420D01*
X115467022Y-82537039D01*
X115495594Y-82632277D01*
X115524165Y-82822753D01*
X115524165Y-83060848D01*
X115495594Y-83251324D01*
X115467022Y-83346562D01*
X115438451Y-83394181D01*
X115381308Y-83441800D01*
X115324165Y-83441800D01*
X115267022Y-83394181D01*
X115238451Y-83346562D01*
X115209880Y-83251324D01*
X115181308Y-83060848D01*
X115181308Y-82822753D01*
X115209880Y-82632277D01*
X115238451Y-82537039D01*
X115267022Y-82489420D01*
X115324165Y-82441800D01*
X115867022Y-82441800D02*
X115809880Y-82489420D01*
X115781308Y-82584658D01*
X115809880Y-82679896D01*
X115867022Y-82727515D01*
X115924165Y-82679896D01*
X115952737Y-82584658D01*
X115924165Y-82489420D01*
X115867022Y-82441800D01*
X116387880Y-88323420D02*
X167695880Y-88323420D01*
X158237594Y-88791800D02*
X158294737Y-88791800D01*
X158351880Y-88839420D01*
X158380451Y-88887039D01*
X158409022Y-88982277D01*
X158437594Y-89172753D01*
X158437594Y-89410848D01*
X158409022Y-89601324D01*
X158380451Y-89696562D01*
X158351880Y-89744181D01*
X158294737Y-89791800D01*
X158237594Y-89791800D01*
X158180451Y-89744181D01*
X158151880Y-89696562D01*
X158123308Y-89601324D01*
X158094737Y-89410848D01*
X158094737Y-89172753D01*
X158123308Y-88982277D01*
X158151880Y-88887039D01*
X158180451Y-88839420D01*
X158237594Y-88791800D01*
X158951880Y-89125134D02*
X158951880Y-89791800D01*
X158809022Y-88744181D02*
X158666165Y-89458467D01*
X159037594Y-89458467D01*
X153271880Y-89267991D02*
X153071880Y-89267991D01*
X153071880Y-89791800D02*
X153071880Y-88791800D01*
X153357594Y-88791800D01*
X153871880Y-88791800D02*
X153586165Y-88791800D01*
X153557594Y-89267991D01*
X153586165Y-89220372D01*
X153643308Y-89172753D01*
X153786165Y-89172753D01*
X153843308Y-89220372D01*
X153871880Y-89267991D01*
X153900451Y-89363229D01*
X153900451Y-89601324D01*
X153871880Y-89696562D01*
X153843308Y-89744181D01*
X153786165Y-89791800D01*
X153643308Y-89791800D01*
X153586165Y-89744181D01*
X153557594Y-89696562D01*
X150731880Y-89267991D02*
X150531880Y-89267991D01*
X150531880Y-89791800D02*
X150531880Y-88791800D01*
X150817594Y-88791800D01*
X151303308Y-88791800D02*
X151189022Y-88791800D01*
X151131880Y-88839420D01*
X151103308Y-88887039D01*
X151046165Y-89029896D01*
X151017594Y-89220372D01*
X151017594Y-89601324D01*
X151046165Y-89696562D01*
X151074737Y-89744181D01*
X151131880Y-89791800D01*
X151246165Y-89791800D01*
X151303308Y-89744181D01*
X151331880Y-89696562D01*
X151360451Y-89601324D01*
X151360451Y-89363229D01*
X151331880Y-89267991D01*
X151303308Y-89220372D01*
X151246165Y-89172753D01*
X151131880Y-89172753D01*
X151074737Y-89220372D01*
X151046165Y-89267991D01*
X151017594Y-89363229D01*
X148191880Y-89267991D02*
X147991880Y-89267991D01*
X147991880Y-89791800D02*
X147991880Y-88791800D01*
X148277594Y-88791800D01*
X148534737Y-89791800D02*
X148649022Y-89791800D01*
X148706165Y-89744181D01*
X148734737Y-89696562D01*
X148791880Y-89553705D01*
X148820451Y-89363229D01*
X148820451Y-88982277D01*
X148791880Y-88887039D01*
X148763308Y-88839420D01*
X148706165Y-88791800D01*
X148591880Y-88791800D01*
X148534737Y-88839420D01*
X148506165Y-88887039D01*
X148477594Y-88982277D01*
X148477594Y-89220372D01*
X148506165Y-89315610D01*
X148534737Y-89363229D01*
X148591880Y-89410848D01*
X148706165Y-89410848D01*
X148763308Y-89363229D01*
X148791880Y-89315610D01*
X148820451Y-89220372D01*
X145223308Y-88791800D02*
X145594737Y-88791800D01*
X145394737Y-89172753D01*
X145480451Y-89172753D01*
X145537594Y-89220372D01*
X145566165Y-89267991D01*
X145594737Y-89363229D01*
X145594737Y-89601324D01*
X145566165Y-89696562D01*
X145537594Y-89744181D01*
X145480451Y-89791800D01*
X145309022Y-89791800D01*
X145251880Y-89744181D01*
X145223308Y-89696562D01*
X145851880Y-89696562D02*
X145880451Y-89744181D01*
X145851880Y-89791800D01*
X145823308Y-89744181D01*
X145851880Y-89696562D01*
X145851880Y-89791800D01*
X146080451Y-88791800D02*
X146451880Y-88791800D01*
X146251880Y-89172753D01*
X146337594Y-89172753D01*
X146394737Y-89220372D01*
X146423308Y-89267991D01*
X146451880Y-89363229D01*
X146451880Y-89601324D01*
X146423308Y-89696562D01*
X146394737Y-89744181D01*
X146337594Y-89791800D01*
X146166165Y-89791800D01*
X146109022Y-89744181D01*
X146080451Y-89696562D01*
X142369022Y-89791800D02*
X142369022Y-88791800D01*
X142569022Y-89506086D01*
X142769022Y-88791800D01*
X142769022Y-89791800D01*
X143169022Y-88791800D02*
X143283308Y-88791800D01*
X143340451Y-88839420D01*
X143397594Y-88934658D01*
X143426165Y-89125134D01*
X143426165Y-89458467D01*
X143397594Y-89648943D01*
X143340451Y-89744181D01*
X143283308Y-89791800D01*
X143169022Y-89791800D01*
X143111880Y-89744181D01*
X143054737Y-89648943D01*
X143026165Y-89458467D01*
X143026165Y-89125134D01*
X143054737Y-88934658D01*
X143111880Y-88839420D01*
X143169022Y-88791800D01*
X143654737Y-89744181D02*
X143740451Y-89791800D01*
X143883308Y-89791800D01*
X143940451Y-89744181D01*
X143969022Y-89696562D01*
X143997594Y-89601324D01*
X143997594Y-89506086D01*
X143969022Y-89410848D01*
X143940451Y-89363229D01*
X143883308Y-89315610D01*
X143769022Y-89267991D01*
X143711880Y-89220372D01*
X143683308Y-89172753D01*
X143654737Y-89077515D01*
X143654737Y-88982277D01*
X143683308Y-88887039D01*
X143711880Y-88839420D01*
X143769022Y-88791800D01*
X143911880Y-88791800D01*
X143997594Y-88839420D01*
X144254737Y-89791800D02*
X144254737Y-88791800D01*
X139829022Y-89791800D02*
X139829022Y-88791800D01*
X140029022Y-89506086D01*
X140229022Y-88791800D01*
X140229022Y-89791800D01*
X140514737Y-89791800D02*
X140514737Y-88791800D01*
X140771880Y-89744181D02*
X140857594Y-89791800D01*
X141000451Y-89791800D01*
X141057594Y-89744181D01*
X141086165Y-89696562D01*
X141114737Y-89601324D01*
X141114737Y-89506086D01*
X141086165Y-89410848D01*
X141057594Y-89363229D01*
X141000451Y-89315610D01*
X140886165Y-89267991D01*
X140829022Y-89220372D01*
X140800451Y-89172753D01*
X140771880Y-89077515D01*
X140771880Y-88982277D01*
X140800451Y-88887039D01*
X140829022Y-88839420D01*
X140886165Y-88791800D01*
X141029022Y-88791800D01*
X141114737Y-88839420D01*
X141486165Y-88791800D02*
X141600451Y-88791800D01*
X141657594Y-88839420D01*
X141714737Y-88934658D01*
X141743308Y-89125134D01*
X141743308Y-89458467D01*
X141714737Y-89648943D01*
X141657594Y-89744181D01*
X141600451Y-89791800D01*
X141486165Y-89791800D01*
X141429022Y-89744181D01*
X141371880Y-89648943D01*
X141343308Y-89458467D01*
X141343308Y-89125134D01*
X141371880Y-88934658D01*
X141429022Y-88839420D01*
X141486165Y-88791800D01*
X137460451Y-89744181D02*
X137546165Y-89791800D01*
X137689022Y-89791800D01*
X137746165Y-89744181D01*
X137774737Y-89696562D01*
X137803308Y-89601324D01*
X137803308Y-89506086D01*
X137774737Y-89410848D01*
X137746165Y-89363229D01*
X137689022Y-89315610D01*
X137574737Y-89267991D01*
X137517594Y-89220372D01*
X137489022Y-89172753D01*
X137460451Y-89077515D01*
X137460451Y-88982277D01*
X137489022Y-88887039D01*
X137517594Y-88839420D01*
X137574737Y-88791800D01*
X137717594Y-88791800D01*
X137803308Y-88839420D01*
X138403308Y-89696562D02*
X138374737Y-89744181D01*
X138289022Y-89791800D01*
X138231880Y-89791800D01*
X138146165Y-89744181D01*
X138089022Y-89648943D01*
X138060451Y-89553705D01*
X138031880Y-89363229D01*
X138031880Y-89220372D01*
X138060451Y-89029896D01*
X138089022Y-88934658D01*
X138146165Y-88839420D01*
X138231880Y-88791800D01*
X138289022Y-88791800D01*
X138374737Y-88839420D01*
X138403308Y-88887039D01*
X138660451Y-89791800D02*
X138660451Y-88791800D01*
X139003308Y-89791800D02*
X138746165Y-89220372D01*
X139003308Y-88791800D02*
X138660451Y-89363229D01*
X130297594Y-88791800D02*
X130354737Y-88791800D01*
X130411880Y-88839420D01*
X130440451Y-88887039D01*
X130469022Y-88982277D01*
X130497594Y-89172753D01*
X130497594Y-89410848D01*
X130469022Y-89601324D01*
X130440451Y-89696562D01*
X130411880Y-89744181D01*
X130354737Y-89791800D01*
X130297594Y-89791800D01*
X130240451Y-89744181D01*
X130211880Y-89696562D01*
X130183308Y-89601324D01*
X130154737Y-89410848D01*
X130154737Y-89172753D01*
X130183308Y-88982277D01*
X130211880Y-88887039D01*
X130240451Y-88839420D01*
X130297594Y-88791800D01*
X131040451Y-88791800D02*
X130754737Y-88791800D01*
X130726165Y-89267991D01*
X130754737Y-89220372D01*
X130811880Y-89172753D01*
X130954737Y-89172753D01*
X131011880Y-89220372D01*
X131040451Y-89267991D01*
X131069022Y-89363229D01*
X131069022Y-89601324D01*
X131040451Y-89696562D01*
X131011880Y-89744181D01*
X130954737Y-89791800D01*
X130811880Y-89791800D01*
X130754737Y-89744181D01*
X130726165Y-89696562D01*
X127757594Y-88791800D02*
X127814737Y-88791800D01*
X127871880Y-88839420D01*
X127900451Y-88887039D01*
X127929022Y-88982277D01*
X127957594Y-89172753D01*
X127957594Y-89410848D01*
X127929022Y-89601324D01*
X127900451Y-89696562D01*
X127871880Y-89744181D01*
X127814737Y-89791800D01*
X127757594Y-89791800D01*
X127700451Y-89744181D01*
X127671880Y-89696562D01*
X127643308Y-89601324D01*
X127614737Y-89410848D01*
X127614737Y-89172753D01*
X127643308Y-88982277D01*
X127671880Y-88887039D01*
X127700451Y-88839420D01*
X127757594Y-88791800D01*
X128471880Y-88791800D02*
X128357594Y-88791800D01*
X128300451Y-88839420D01*
X128271880Y-88887039D01*
X128214737Y-89029896D01*
X128186165Y-89220372D01*
X128186165Y-89601324D01*
X128214737Y-89696562D01*
X128243308Y-89744181D01*
X128300451Y-89791800D01*
X128414737Y-89791800D01*
X128471880Y-89744181D01*
X128500451Y-89696562D01*
X128529022Y-89601324D01*
X128529022Y-89363229D01*
X128500451Y-89267991D01*
X128471880Y-89220372D01*
X128414737Y-89172753D01*
X128300451Y-89172753D01*
X128243308Y-89220372D01*
X128214737Y-89267991D01*
X128186165Y-89363229D01*
X125417594Y-89791800D02*
X125074737Y-89791800D01*
X125246165Y-89791800D02*
X125246165Y-88791800D01*
X125189022Y-88934658D01*
X125131880Y-89029896D01*
X125074737Y-89077515D01*
X125617594Y-88791800D02*
X125989022Y-88791800D01*
X125789022Y-89172753D01*
X125874737Y-89172753D01*
X125931880Y-89220372D01*
X125960451Y-89267991D01*
X125989022Y-89363229D01*
X125989022Y-89601324D01*
X125960451Y-89696562D01*
X125931880Y-89744181D01*
X125874737Y-89791800D01*
X125703308Y-89791800D01*
X125646165Y-89744181D01*
X125617594Y-89696562D01*
X122877594Y-89791800D02*
X122534737Y-89791800D01*
X122706165Y-89791800D02*
X122706165Y-88791800D01*
X122649022Y-88934658D01*
X122591880Y-89029896D01*
X122534737Y-89077515D01*
X123163308Y-89791800D02*
X123277594Y-89791800D01*
X123334737Y-89744181D01*
X123363308Y-89696562D01*
X123420451Y-89553705D01*
X123449022Y-89363229D01*
X123449022Y-88982277D01*
X123420451Y-88887039D01*
X123391880Y-88839420D01*
X123334737Y-88791800D01*
X123220451Y-88791800D01*
X123163308Y-88839420D01*
X123134737Y-88887039D01*
X123106165Y-88982277D01*
X123106165Y-89220372D01*
X123134737Y-89315610D01*
X123163308Y-89363229D01*
X123220451Y-89410848D01*
X123334737Y-89410848D01*
X123391880Y-89363229D01*
X123420451Y-89315610D01*
X123449022Y-89220372D01*
X119994737Y-88887039D02*
X120023308Y-88839420D01*
X120080451Y-88791800D01*
X120223308Y-88791800D01*
X120280451Y-88839420D01*
X120309022Y-88887039D01*
X120337594Y-88982277D01*
X120337594Y-89077515D01*
X120309022Y-89220372D01*
X119966165Y-89791800D01*
X120337594Y-89791800D01*
X120851880Y-88791800D02*
X120737594Y-88791800D01*
X120680451Y-88839420D01*
X120651880Y-88887039D01*
X120594737Y-89029896D01*
X120566165Y-89220372D01*
X120566165Y-89601324D01*
X120594737Y-89696562D01*
X120623308Y-89744181D01*
X120680451Y-89791800D01*
X120794737Y-89791800D01*
X120851880Y-89744181D01*
X120880451Y-89696562D01*
X120909022Y-89601324D01*
X120909022Y-89363229D01*
X120880451Y-89267991D01*
X120851880Y-89220372D01*
X120794737Y-89172753D01*
X120680451Y-89172753D01*
X120623308Y-89220372D01*
X120594737Y-89267991D01*
X120566165Y-89363229D01*
X117454737Y-95237039D02*
X117483308Y-95189420D01*
X117540451Y-95141800D01*
X117683308Y-95141800D01*
X117740451Y-95189420D01*
X117769022Y-95237039D01*
X117797594Y-95332277D01*
X117797594Y-95427515D01*
X117769022Y-95570372D01*
X117426165Y-96141800D01*
X117797594Y-96141800D01*
X118369022Y-96141800D02*
X118026165Y-96141800D01*
X118197594Y-96141800D02*
X118197594Y-95141800D01*
X118140451Y-95284658D01*
X118083308Y-95379896D01*
X118026165Y-95427515D01*
X119994737Y-95237039D02*
X120023308Y-95189420D01*
X120080451Y-95141800D01*
X120223308Y-95141800D01*
X120280451Y-95189420D01*
X120309022Y-95237039D01*
X120337594Y-95332277D01*
X120337594Y-95427515D01*
X120309022Y-95570372D01*
X119966165Y-96141800D01*
X120337594Y-96141800D01*
X120709022Y-95141800D02*
X120766165Y-95141800D01*
X120823308Y-95189420D01*
X120851880Y-95237039D01*
X120880451Y-95332277D01*
X120909022Y-95522753D01*
X120909022Y-95760848D01*
X120880451Y-95951324D01*
X120851880Y-96046562D01*
X120823308Y-96094181D01*
X120766165Y-96141800D01*
X120709022Y-96141800D01*
X120651880Y-96094181D01*
X120623308Y-96046562D01*
X120594737Y-95951324D01*
X120566165Y-95760848D01*
X120566165Y-95522753D01*
X120594737Y-95332277D01*
X120623308Y-95237039D01*
X120651880Y-95189420D01*
X120709022Y-95141800D01*
X122877594Y-96141800D02*
X122534737Y-96141800D01*
X122706165Y-96141800D02*
X122706165Y-95141800D01*
X122649022Y-95284658D01*
X122591880Y-95379896D01*
X122534737Y-95427515D01*
X123391880Y-95141800D02*
X123277594Y-95141800D01*
X123220451Y-95189420D01*
X123191880Y-95237039D01*
X123134737Y-95379896D01*
X123106165Y-95570372D01*
X123106165Y-95951324D01*
X123134737Y-96046562D01*
X123163308Y-96094181D01*
X123220451Y-96141800D01*
X123334737Y-96141800D01*
X123391880Y-96094181D01*
X123420451Y-96046562D01*
X123449022Y-95951324D01*
X123449022Y-95713229D01*
X123420451Y-95617991D01*
X123391880Y-95570372D01*
X123334737Y-95522753D01*
X123220451Y-95522753D01*
X123163308Y-95570372D01*
X123134737Y-95617991D01*
X123106165Y-95713229D01*
X127957594Y-96141800D02*
X127614737Y-96141800D01*
X127786165Y-96141800D02*
X127786165Y-95141800D01*
X127729022Y-95284658D01*
X127671880Y-95379896D01*
X127614737Y-95427515D01*
X128186165Y-95237039D02*
X128214737Y-95189420D01*
X128271880Y-95141800D01*
X128414737Y-95141800D01*
X128471880Y-95189420D01*
X128500451Y-95237039D01*
X128529022Y-95332277D01*
X128529022Y-95427515D01*
X128500451Y-95570372D01*
X128157594Y-96141800D01*
X128529022Y-96141800D01*
X137746165Y-95617991D02*
X137546165Y-95617991D01*
X137546165Y-96141800D02*
X137546165Y-95141800D01*
X137831880Y-95141800D01*
X138374737Y-96141800D02*
X138031880Y-96141800D01*
X138203308Y-96141800D02*
X138203308Y-95141800D01*
X138146165Y-95284658D01*
X138089022Y-95379896D01*
X138031880Y-95427515D01*
X138574737Y-95141800D02*
X138946165Y-95141800D01*
X138746165Y-95522753D01*
X138831880Y-95522753D01*
X138889022Y-95570372D01*
X138917594Y-95617991D01*
X138946165Y-95713229D01*
X138946165Y-95951324D01*
X138917594Y-96046562D01*
X138889022Y-96094181D01*
X138831880Y-96141800D01*
X138660451Y-96141800D01*
X138603308Y-96094181D01*
X138574737Y-96046562D01*
X140286165Y-95617991D02*
X140086165Y-95617991D01*
X140086165Y-96141800D02*
X140086165Y-95141800D01*
X140371880Y-95141800D01*
X140914737Y-96141800D02*
X140571880Y-96141800D01*
X140743308Y-96141800D02*
X140743308Y-95141800D01*
X140686165Y-95284658D01*
X140629022Y-95379896D01*
X140571880Y-95427515D01*
X141143308Y-95237039D02*
X141171880Y-95189420D01*
X141229022Y-95141800D01*
X141371880Y-95141800D01*
X141429022Y-95189420D01*
X141457594Y-95237039D01*
X141486165Y-95332277D01*
X141486165Y-95427515D01*
X141457594Y-95570372D01*
X141114737Y-96141800D01*
X141486165Y-96141800D01*
X142854737Y-95189420D02*
X142797594Y-95141800D01*
X142711880Y-95141800D01*
X142626165Y-95189420D01*
X142569022Y-95284658D01*
X142540451Y-95379896D01*
X142511880Y-95570372D01*
X142511880Y-95713229D01*
X142540451Y-95903705D01*
X142569022Y-95998943D01*
X142626165Y-96094181D01*
X142711880Y-96141800D01*
X142769022Y-96141800D01*
X142854737Y-96094181D01*
X142883308Y-96046562D01*
X142883308Y-95713229D01*
X142769022Y-95713229D01*
X143140451Y-96141800D02*
X143140451Y-95141800D01*
X143483308Y-96141800D01*
X143483308Y-95141800D01*
X143769022Y-96141800D02*
X143769022Y-95141800D01*
X143911880Y-95141800D01*
X143997594Y-95189420D01*
X144054737Y-95284658D01*
X144083308Y-95379896D01*
X144111880Y-95570372D01*
X144111880Y-95713229D01*
X144083308Y-95903705D01*
X144054737Y-95998943D01*
X143997594Y-96094181D01*
X143911880Y-96141800D01*
X143769022Y-96141800D01*
X145366165Y-95617991D02*
X145166165Y-95617991D01*
X145166165Y-96141800D02*
X145166165Y-95141800D01*
X145451880Y-95141800D01*
X145994737Y-96141800D02*
X145651880Y-96141800D01*
X145823308Y-96141800D02*
X145823308Y-95141800D01*
X145766165Y-95284658D01*
X145709022Y-95379896D01*
X145651880Y-95427515D01*
X146566165Y-96141800D02*
X146223308Y-96141800D01*
X146394737Y-96141800D02*
X146394737Y-95141800D01*
X146337594Y-95284658D01*
X146280451Y-95379896D01*
X146223308Y-95427515D01*
X147934737Y-95237039D02*
X147963308Y-95189420D01*
X148020451Y-95141800D01*
X148163308Y-95141800D01*
X148220451Y-95189420D01*
X148249022Y-95237039D01*
X148277594Y-95332277D01*
X148277594Y-95427515D01*
X148249022Y-95570372D01*
X147906165Y-96141800D01*
X148277594Y-96141800D01*
X148477594Y-95141800D02*
X148849022Y-95141800D01*
X148649022Y-95522753D01*
X148734737Y-95522753D01*
X148791880Y-95570372D01*
X148820451Y-95617991D01*
X148849022Y-95713229D01*
X148849022Y-95951324D01*
X148820451Y-96046562D01*
X148791880Y-96094181D01*
X148734737Y-96141800D01*
X148563308Y-96141800D01*
X148506165Y-96094181D01*
X148477594Y-96046562D01*
X153357594Y-96141800D02*
X153014737Y-96141800D01*
X153186165Y-96141800D02*
X153186165Y-95141800D01*
X153129022Y-95284658D01*
X153071880Y-95379896D01*
X153014737Y-95427515D01*
X153700451Y-95570372D02*
X153643308Y-95522753D01*
X153614737Y-95475134D01*
X153586165Y-95379896D01*
X153586165Y-95332277D01*
X153614737Y-95237039D01*
X153643308Y-95189420D01*
X153700451Y-95141800D01*
X153814737Y-95141800D01*
X153871880Y-95189420D01*
X153900451Y-95237039D01*
X153929022Y-95332277D01*
X153929022Y-95379896D01*
X153900451Y-95475134D01*
X153871880Y-95522753D01*
X153814737Y-95570372D01*
X153700451Y-95570372D01*
X153643308Y-95617991D01*
X153614737Y-95665610D01*
X153586165Y-95760848D01*
X153586165Y-95951324D01*
X153614737Y-96046562D01*
X153643308Y-96094181D01*
X153700451Y-96141800D01*
X153814737Y-96141800D01*
X153871880Y-96094181D01*
X153900451Y-96046562D01*
X153929022Y-95951324D01*
X153929022Y-95760848D01*
X153900451Y-95665610D01*
X153871880Y-95617991D01*
X153814737Y-95570372D01*
X155554737Y-95141800D02*
X155897594Y-95141800D01*
X155726165Y-96141800D02*
X155726165Y-95141800D01*
X156040451Y-95141800D02*
X156440451Y-96141800D01*
X156440451Y-95141800D02*
X156040451Y-96141800D01*
X158451880Y-96141800D02*
X158251880Y-95665610D01*
X158109022Y-96141800D02*
X158109022Y-95141800D01*
X158337594Y-95141800D01*
X158394737Y-95189420D01*
X158423308Y-95237039D01*
X158451880Y-95332277D01*
X158451880Y-95475134D01*
X158423308Y-95570372D01*
X158394737Y-95617991D01*
X158337594Y-95665610D01*
X158109022Y-95665610D01*
X158651880Y-95141800D02*
X159051880Y-96141800D01*
X159051880Y-95141800D02*
X158651880Y-96141800D01*
X165543308Y-88791800D02*
X165914737Y-88791800D01*
X165714737Y-89172753D01*
X165800451Y-89172753D01*
X165857594Y-89220372D01*
X165886165Y-89267991D01*
X165914737Y-89363229D01*
X165914737Y-89601324D01*
X165886165Y-89696562D01*
X165857594Y-89744181D01*
X165800451Y-89791800D01*
X165629022Y-89791800D01*
X165571880Y-89744181D01*
X165543308Y-89696562D01*
X166171880Y-89696562D02*
X166200451Y-89744181D01*
X166171880Y-89791800D01*
X166143308Y-89744181D01*
X166171880Y-89696562D01*
X166171880Y-89791800D01*
X166400451Y-88791800D02*
X166771880Y-88791800D01*
X166571880Y-89172753D01*
X166657594Y-89172753D01*
X166714737Y-89220372D01*
X166743308Y-89267991D01*
X166771880Y-89363229D01*
X166771880Y-89601324D01*
X166743308Y-89696562D01*
X166714737Y-89744181D01*
X166657594Y-89791800D01*
X166486165Y-89791800D01*
X166429022Y-89744181D01*
X166400451Y-89696562D01*
X166086165Y-95141800D02*
X165800451Y-95141800D01*
X165771880Y-95617991D01*
X165800451Y-95570372D01*
X165857594Y-95522753D01*
X166000451Y-95522753D01*
X166057594Y-95570372D01*
X166086165Y-95617991D01*
X166114737Y-95713229D01*
X166114737Y-95951324D01*
X166086165Y-96046562D01*
X166057594Y-96094181D01*
X166000451Y-96141800D01*
X165857594Y-96141800D01*
X165800451Y-96094181D01*
X165771880Y-96046562D01*
X166314737Y-95475134D02*
X166457594Y-96141800D01*
X166600451Y-95475134D01*
X163546165Y-95141800D02*
X163260451Y-95141800D01*
X163231880Y-95617991D01*
X163260451Y-95570372D01*
X163317594Y-95522753D01*
X163460451Y-95522753D01*
X163517594Y-95570372D01*
X163546165Y-95617991D01*
X163574737Y-95713229D01*
X163574737Y-95951324D01*
X163546165Y-96046562D01*
X163517594Y-96094181D01*
X163460451Y-96141800D01*
X163317594Y-96141800D01*
X163260451Y-96094181D01*
X163231880Y-96046562D01*
X163774737Y-95475134D02*
X163917594Y-96141800D01*
X164060451Y-95475134D01*
X135234737Y-88839420D02*
X135177594Y-88791800D01*
X135091880Y-88791800D01*
X135006165Y-88839420D01*
X134949022Y-88934658D01*
X134920451Y-89029896D01*
X134891880Y-89220372D01*
X134891880Y-89363229D01*
X134920451Y-89553705D01*
X134949022Y-89648943D01*
X135006165Y-89744181D01*
X135091880Y-89791800D01*
X135149022Y-89791800D01*
X135234737Y-89744181D01*
X135263308Y-89696562D01*
X135263308Y-89363229D01*
X135149022Y-89363229D01*
X135520451Y-89791800D02*
X135520451Y-88791800D01*
X135863308Y-89791800D01*
X135863308Y-88791800D01*
X136149022Y-89791800D02*
X136149022Y-88791800D01*
X136291880Y-88791800D01*
X136377594Y-88839420D01*
X136434737Y-88934658D01*
X136463308Y-89029896D01*
X136491880Y-89220372D01*
X136491880Y-89363229D01*
X136463308Y-89553705D01*
X136434737Y-89648943D01*
X136377594Y-89744181D01*
X136291880Y-89791800D01*
X136149022Y-89791800D01*
X155554737Y-88839420D02*
X155497594Y-88791800D01*
X155411880Y-88791800D01*
X155326165Y-88839420D01*
X155269022Y-88934658D01*
X155240451Y-89029896D01*
X155211880Y-89220372D01*
X155211880Y-89363229D01*
X155240451Y-89553705D01*
X155269022Y-89648943D01*
X155326165Y-89744181D01*
X155411880Y-89791800D01*
X155469022Y-89791800D01*
X155554737Y-89744181D01*
X155583308Y-89696562D01*
X155583308Y-89363229D01*
X155469022Y-89363229D01*
X155840451Y-89791800D02*
X155840451Y-88791800D01*
X156183308Y-89791800D01*
X156183308Y-88791800D01*
X156469022Y-89791800D02*
X156469022Y-88791800D01*
X156611880Y-88791800D01*
X156697594Y-88839420D01*
X156754737Y-88934658D01*
X156783308Y-89029896D01*
X156811880Y-89220372D01*
X156811880Y-89363229D01*
X156783308Y-89553705D01*
X156754737Y-89648943D01*
X156697594Y-89744181D01*
X156611880Y-89791800D01*
X156469022Y-89791800D01*
X160634737Y-95189420D02*
X160577594Y-95141800D01*
X160491880Y-95141800D01*
X160406165Y-95189420D01*
X160349022Y-95284658D01*
X160320451Y-95379896D01*
X160291880Y-95570372D01*
X160291880Y-95713229D01*
X160320451Y-95903705D01*
X160349022Y-95998943D01*
X160406165Y-96094181D01*
X160491880Y-96141800D01*
X160549022Y-96141800D01*
X160634737Y-96094181D01*
X160663308Y-96046562D01*
X160663308Y-95713229D01*
X160549022Y-95713229D01*
X160920451Y-96141800D02*
X160920451Y-95141800D01*
X161263308Y-96141800D01*
X161263308Y-95141800D01*
X161549022Y-96141800D02*
X161549022Y-95141800D01*
X161691880Y-95141800D01*
X161777594Y-95189420D01*
X161834737Y-95284658D01*
X161863308Y-95379896D01*
X161891880Y-95570372D01*
X161891880Y-95713229D01*
X161863308Y-95903705D01*
X161834737Y-95998943D01*
X161777594Y-96094181D01*
X161691880Y-96141800D01*
X161549022Y-96141800D01*
X150474737Y-95189420D02*
X150417594Y-95141800D01*
X150331880Y-95141800D01*
X150246165Y-95189420D01*
X150189022Y-95284658D01*
X150160451Y-95379896D01*
X150131880Y-95570372D01*
X150131880Y-95713229D01*
X150160451Y-95903705D01*
X150189022Y-95998943D01*
X150246165Y-96094181D01*
X150331880Y-96141800D01*
X150389022Y-96141800D01*
X150474737Y-96094181D01*
X150503308Y-96046562D01*
X150503308Y-95713229D01*
X150389022Y-95713229D01*
X150760451Y-96141800D02*
X150760451Y-95141800D01*
X151103308Y-96141800D01*
X151103308Y-95141800D01*
X151389022Y-96141800D02*
X151389022Y-95141800D01*
X151531880Y-95141800D01*
X151617594Y-95189420D01*
X151674737Y-95284658D01*
X151703308Y-95379896D01*
X151731880Y-95570372D01*
X151731880Y-95713229D01*
X151703308Y-95903705D01*
X151674737Y-95998943D01*
X151617594Y-96094181D01*
X151531880Y-96141800D01*
X151389022Y-96141800D01*
X130154737Y-95189420D02*
X130097594Y-95141800D01*
X130011880Y-95141800D01*
X129926165Y-95189420D01*
X129869022Y-95284658D01*
X129840451Y-95379896D01*
X129811880Y-95570372D01*
X129811880Y-95713229D01*
X129840451Y-95903705D01*
X129869022Y-95998943D01*
X129926165Y-96094181D01*
X130011880Y-96141800D01*
X130069022Y-96141800D01*
X130154737Y-96094181D01*
X130183308Y-96046562D01*
X130183308Y-95713229D01*
X130069022Y-95713229D01*
X130440451Y-96141800D02*
X130440451Y-95141800D01*
X130783308Y-96141800D01*
X130783308Y-95141800D01*
X131069022Y-96141800D02*
X131069022Y-95141800D01*
X131211880Y-95141800D01*
X131297594Y-95189420D01*
X131354737Y-95284658D01*
X131383308Y-95379896D01*
X131411880Y-95570372D01*
X131411880Y-95713229D01*
X131383308Y-95903705D01*
X131354737Y-95998943D01*
X131297594Y-96094181D01*
X131211880Y-96141800D01*
X131069022Y-96141800D01*
X125074737Y-95189420D02*
X125017594Y-95141800D01*
X124931880Y-95141800D01*
X124846165Y-95189420D01*
X124789022Y-95284658D01*
X124760451Y-95379896D01*
X124731880Y-95570372D01*
X124731880Y-95713229D01*
X124760451Y-95903705D01*
X124789022Y-95998943D01*
X124846165Y-96094181D01*
X124931880Y-96141800D01*
X124989022Y-96141800D01*
X125074737Y-96094181D01*
X125103308Y-96046562D01*
X125103308Y-95713229D01*
X124989022Y-95713229D01*
X125360451Y-96141800D02*
X125360451Y-95141800D01*
X125703308Y-96141800D01*
X125703308Y-95141800D01*
X125989022Y-96141800D02*
X125989022Y-95141800D01*
X126131880Y-95141800D01*
X126217594Y-95189420D01*
X126274737Y-95284658D01*
X126303308Y-95379896D01*
X126331880Y-95570372D01*
X126331880Y-95713229D01*
X126303308Y-95903705D01*
X126274737Y-95998943D01*
X126217594Y-96094181D01*
X126131880Y-96141800D01*
X125989022Y-96141800D01*
X117454737Y-88839420D02*
X117397594Y-88791800D01*
X117311880Y-88791800D01*
X117226165Y-88839420D01*
X117169022Y-88934658D01*
X117140451Y-89029896D01*
X117111880Y-89220372D01*
X117111880Y-89363229D01*
X117140451Y-89553705D01*
X117169022Y-89648943D01*
X117226165Y-89744181D01*
X117311880Y-89791800D01*
X117369022Y-89791800D01*
X117454737Y-89744181D01*
X117483308Y-89696562D01*
X117483308Y-89363229D01*
X117369022Y-89363229D01*
X117740451Y-89791800D02*
X117740451Y-88791800D01*
X118083308Y-89791800D01*
X118083308Y-88791800D01*
X118369022Y-89791800D02*
X118369022Y-88791800D01*
X118511880Y-88791800D01*
X118597594Y-88839420D01*
X118654737Y-88934658D01*
X118683308Y-89029896D01*
X118711880Y-89220372D01*
X118711880Y-89363229D01*
X118683308Y-89553705D01*
X118654737Y-89648943D01*
X118597594Y-89744181D01*
X118511880Y-89791800D01*
X118369022Y-89791800D01*
X113267022Y-91569800D02*
X113067022Y-91093610D01*
X112924165Y-91569800D02*
X112924165Y-90569800D01*
X113152737Y-90569800D01*
X113209880Y-90617420D01*
X113238451Y-90665039D01*
X113267022Y-90760277D01*
X113267022Y-90903134D01*
X113238451Y-90998372D01*
X113209880Y-91045991D01*
X113152737Y-91093610D01*
X112924165Y-91093610D01*
X113524165Y-91569800D02*
X113524165Y-90569800D01*
X113752737Y-90569800D01*
X113809880Y-90617420D01*
X113838451Y-90665039D01*
X113867022Y-90760277D01*
X113867022Y-90903134D01*
X113838451Y-90998372D01*
X113809880Y-91045991D01*
X113752737Y-91093610D01*
X113524165Y-91093610D01*
X114124165Y-91569800D02*
X114124165Y-90903134D01*
X114124165Y-90569800D02*
X114095594Y-90617420D01*
X114124165Y-90665039D01*
X114152737Y-90617420D01*
X114124165Y-90569800D01*
X114124165Y-90665039D01*
X114724165Y-91569800D02*
X114381308Y-91569800D01*
X114552737Y-91569800D02*
X114552737Y-90569800D01*
X114495594Y-90712658D01*
X114438451Y-90807896D01*
X114381308Y-90855515D01*
X115067022Y-90998372D02*
X115009880Y-90950753D01*
X114981308Y-90903134D01*
X114952737Y-90807896D01*
X114952737Y-90760277D01*
X114981308Y-90665039D01*
X115009880Y-90617420D01*
X115067022Y-90569800D01*
X115181308Y-90569800D01*
X115238451Y-90617420D01*
X115267022Y-90665039D01*
X115295594Y-90760277D01*
X115295594Y-90807896D01*
X115267022Y-90903134D01*
X115238451Y-90950753D01*
X115181308Y-90998372D01*
X115067022Y-90998372D01*
X115009880Y-91045991D01*
X114981308Y-91093610D01*
X114952737Y-91188848D01*
X114952737Y-91379324D01*
X114981308Y-91474562D01*
X115009880Y-91522181D01*
X115067022Y-91569800D01*
X115181308Y-91569800D01*
X115238451Y-91522181D01*
X115267022Y-91474562D01*
X115295594Y-91379324D01*
X115295594Y-91188848D01*
X115267022Y-91093610D01*
X115238451Y-91045991D01*
X115181308Y-90998372D01*
X115667022Y-90569800D02*
X115724165Y-90569800D01*
X115781308Y-90617420D01*
X115809880Y-90665039D01*
X115838451Y-90760277D01*
X115867022Y-90950753D01*
X115867022Y-91188848D01*
X115838451Y-91379324D01*
X115809880Y-91474562D01*
X115781308Y-91522181D01*
X115724165Y-91569800D01*
X115667022Y-91569800D01*
X115609880Y-91522181D01*
X115581308Y-91474562D01*
X115552737Y-91379324D01*
X115524165Y-91188848D01*
X115524165Y-90950753D01*
X115552737Y-90760277D01*
X115581308Y-90665039D01*
X115609880Y-90617420D01*
X115667022Y-90569800D01*
X116209880Y-90569800D02*
X116152737Y-90617420D01*
X116124165Y-90712658D01*
X116152737Y-90807896D01*
X116209880Y-90855515D01*
X116267022Y-90807896D01*
X116295594Y-90712658D01*
X116267022Y-90617420D01*
X116209880Y-90569800D01*
X116586260Y-95097134D02*
X115586260Y-95097134D01*
X115586260Y-94868562D01*
X115633880Y-94811420D01*
X115681499Y-94782848D01*
X115776737Y-94754277D01*
X115919594Y-94754277D01*
X116014832Y-94782848D01*
X116062451Y-94811420D01*
X116110070Y-94868562D01*
X116110070Y-95097134D01*
X116586260Y-94497134D02*
X115586260Y-94497134D01*
X116586260Y-94211420D02*
X115586260Y-94211420D01*
X116586260Y-93868562D01*
X115586260Y-93868562D01*
X115919594Y-93325705D02*
X116586260Y-93325705D01*
X115538641Y-93468562D02*
X116252927Y-93611420D01*
X116252927Y-93239991D01*
X115586260Y-92897134D02*
X115586260Y-92839991D01*
X115633880Y-92782848D01*
X115681499Y-92754277D01*
X115776737Y-92725705D01*
X115967213Y-92697134D01*
X116205308Y-92697134D01*
X116395784Y-92725705D01*
X116491022Y-92754277D01*
X116538641Y-92782848D01*
X116586260Y-92839991D01*
X116586260Y-92897134D01*
X116538641Y-92954277D01*
X116491022Y-92982848D01*
X116395784Y-93011420D01*
X116205308Y-93039991D01*
X115967213Y-93039991D01*
X115776737Y-93011420D01*
X115681499Y-92982848D01*
X115633880Y-92954277D01*
X115586260Y-92897134D01*
X168656260Y-92017420D02*
X167656260Y-92017420D01*
X167656260Y-91788848D01*
X167703880Y-91731705D01*
X167751499Y-91703134D01*
X167846737Y-91674562D01*
X167989594Y-91674562D01*
X168084832Y-91703134D01*
X168132451Y-91731705D01*
X168180070Y-91788848D01*
X168180070Y-92017420D01*
X168656260Y-91417420D02*
X167656260Y-91417420D01*
X168656260Y-91131705D02*
X167656260Y-91131705D01*
X168656260Y-90788848D01*
X167656260Y-90788848D01*
X168656260Y-90188848D02*
X168656260Y-90531705D01*
X168656260Y-90360277D02*
X167656260Y-90360277D01*
X167799118Y-90417420D01*
X167894356Y-90474562D01*
X167941975Y-90531705D01*
D11*
X154897118Y-76186324D02*
X154897118Y-76833943D01*
X154920927Y-76910134D01*
X154944737Y-76948229D01*
X154992356Y-76986324D01*
X155087594Y-76986324D01*
X155135213Y-76948229D01*
X155159022Y-76910134D01*
X155182832Y-76833943D01*
X155182832Y-76186324D01*
X155397118Y-76948229D02*
X155444737Y-76986324D01*
X155539975Y-76986324D01*
X155587594Y-76948229D01*
X155611403Y-76872039D01*
X155611403Y-76833943D01*
X155587594Y-76757753D01*
X155539975Y-76719658D01*
X155468546Y-76719658D01*
X155420927Y-76681562D01*
X155397118Y-76605372D01*
X155397118Y-76567277D01*
X155420927Y-76491086D01*
X155468546Y-76452991D01*
X155539975Y-76452991D01*
X155587594Y-76491086D01*
X156016165Y-76948229D02*
X155968546Y-76986324D01*
X155873308Y-76986324D01*
X155825689Y-76948229D01*
X155801880Y-76872039D01*
X155801880Y-76567277D01*
X155825689Y-76491086D01*
X155873308Y-76452991D01*
X155968546Y-76452991D01*
X156016165Y-76491086D01*
X156039975Y-76567277D01*
X156039975Y-76643467D01*
X155801880Y-76719658D01*
X156920927Y-76986324D02*
X156754260Y-76605372D01*
X156635213Y-76986324D02*
X156635213Y-76186324D01*
X156825689Y-76186324D01*
X156873308Y-76224420D01*
X156897118Y-76262515D01*
X156920927Y-76338705D01*
X156920927Y-76452991D01*
X156897118Y-76529181D01*
X156873308Y-76567277D01*
X156825689Y-76605372D01*
X156635213Y-76605372D01*
X157135213Y-76986324D02*
X157135213Y-76186324D01*
X157325689Y-76186324D01*
X157373308Y-76224420D01*
X157397118Y-76262515D01*
X157420927Y-76338705D01*
X157420927Y-76452991D01*
X157397118Y-76529181D01*
X157373308Y-76567277D01*
X157325689Y-76605372D01*
X157135213Y-76605372D01*
X157635213Y-76986324D02*
X157635213Y-76186324D01*
X158230451Y-76948229D02*
X158301880Y-76986324D01*
X158420927Y-76986324D01*
X158468546Y-76948229D01*
X158492356Y-76910134D01*
X158516165Y-76833943D01*
X158516165Y-76757753D01*
X158492356Y-76681562D01*
X158468546Y-76643467D01*
X158420927Y-76605372D01*
X158325689Y-76567277D01*
X158278070Y-76529181D01*
X158254260Y-76491086D01*
X158230451Y-76414896D01*
X158230451Y-76338705D01*
X158254260Y-76262515D01*
X158278070Y-76224420D01*
X158325689Y-76186324D01*
X158444737Y-76186324D01*
X158516165Y-76224420D01*
X158730451Y-76986324D02*
X158730451Y-76186324D01*
X158944737Y-76986324D02*
X158944737Y-76567277D01*
X158920927Y-76491086D01*
X158873308Y-76452991D01*
X158801880Y-76452991D01*
X158754260Y-76491086D01*
X158730451Y-76529181D01*
X159182832Y-76986324D02*
X159182832Y-76452991D01*
X159182832Y-76186324D02*
X159159022Y-76224420D01*
X159182832Y-76262515D01*
X159206641Y-76224420D01*
X159182832Y-76186324D01*
X159182832Y-76262515D01*
X159611403Y-76948229D02*
X159563784Y-76986324D01*
X159468546Y-76986324D01*
X159420927Y-76948229D01*
X159397118Y-76872039D01*
X159397118Y-76567277D01*
X159420927Y-76491086D01*
X159468546Y-76452991D01*
X159563784Y-76452991D01*
X159611403Y-76491086D01*
X159635213Y-76567277D01*
X159635213Y-76643467D01*
X159397118Y-76719658D01*
X159920927Y-76986324D02*
X159873308Y-76948229D01*
X159849499Y-76872039D01*
X159849499Y-76186324D01*
X160325689Y-76986324D02*
X160325689Y-76186324D01*
X160325689Y-76948229D02*
X160278070Y-76986324D01*
X160182832Y-76986324D01*
X160135213Y-76948229D01*
X160111403Y-76910134D01*
X160087594Y-76833943D01*
X160087594Y-76605372D01*
X160111403Y-76529181D01*
X160135213Y-76491086D01*
X160182832Y-76452991D01*
X160278070Y-76452991D01*
X160325689Y-76491086D01*
X160897118Y-76452991D02*
X160992356Y-76986324D01*
X161087594Y-76605372D01*
X161182832Y-76986324D01*
X161278070Y-76452991D01*
X161468546Y-76986324D02*
X161468546Y-76452991D01*
X161468546Y-76186324D02*
X161444737Y-76224420D01*
X161468546Y-76262515D01*
X161492356Y-76224420D01*
X161468546Y-76186324D01*
X161468546Y-76262515D01*
X161635213Y-76452991D02*
X161825689Y-76452991D01*
X161706641Y-76186324D02*
X161706641Y-76872039D01*
X161730451Y-76948229D01*
X161778070Y-76986324D01*
X161825689Y-76986324D01*
X161992356Y-76986324D02*
X161992356Y-76186324D01*
X162206641Y-76986324D02*
X162206641Y-76567277D01*
X162182832Y-76491086D01*
X162135213Y-76452991D01*
X162063784Y-76452991D01*
X162016165Y-76491086D01*
X161992356Y-76529181D01*
X155825689Y-77752991D02*
X156016165Y-77752991D01*
X155897118Y-78286324D02*
X155897118Y-77600610D01*
X155920927Y-77524420D01*
X155968546Y-77486324D01*
X156016165Y-77486324D01*
X156373308Y-78248229D02*
X156325689Y-78286324D01*
X156230451Y-78286324D01*
X156182832Y-78248229D01*
X156159022Y-78172039D01*
X156159022Y-77867277D01*
X156182832Y-77791086D01*
X156230451Y-77752991D01*
X156325689Y-77752991D01*
X156373308Y-77791086D01*
X156397118Y-77867277D01*
X156397118Y-77943467D01*
X156159022Y-78019658D01*
X156825689Y-78286324D02*
X156825689Y-77867277D01*
X156801880Y-77791086D01*
X156754260Y-77752991D01*
X156659022Y-77752991D01*
X156611403Y-77791086D01*
X156825689Y-78248229D02*
X156778070Y-78286324D01*
X156659022Y-78286324D01*
X156611403Y-78248229D01*
X156587594Y-78172039D01*
X156587594Y-78095848D01*
X156611403Y-78019658D01*
X156659022Y-77981562D01*
X156778070Y-77981562D01*
X156825689Y-77943467D01*
X156992356Y-77752991D02*
X157182832Y-77752991D01*
X157063784Y-77486324D02*
X157063784Y-78172039D01*
X157087594Y-78248229D01*
X157135213Y-78286324D01*
X157182832Y-78286324D01*
X157349499Y-78286324D02*
X157349499Y-77486324D01*
X157563784Y-78286324D02*
X157563784Y-77867277D01*
X157539975Y-77791086D01*
X157492356Y-77752991D01*
X157420927Y-77752991D01*
X157373308Y-77791086D01*
X157349499Y-77829181D01*
X157992356Y-78248229D02*
X157944737Y-78286324D01*
X157849499Y-78286324D01*
X157801880Y-78248229D01*
X157778070Y-78172039D01*
X157778070Y-77867277D01*
X157801880Y-77791086D01*
X157849499Y-77752991D01*
X157944737Y-77752991D01*
X157992356Y-77791086D01*
X158016165Y-77867277D01*
X158016165Y-77943467D01*
X157778070Y-78019658D01*
X158230451Y-78286324D02*
X158230451Y-77752991D01*
X158230451Y-77905372D02*
X158254260Y-77829181D01*
X158278070Y-77791086D01*
X158325689Y-77752991D01*
X158373308Y-77752991D01*
X158920927Y-78286324D02*
X158920927Y-77486324D01*
X158920927Y-77791086D02*
X158968546Y-77752991D01*
X159063784Y-77752991D01*
X159111403Y-77791086D01*
X159135213Y-77829181D01*
X159159022Y-77905372D01*
X159159022Y-78133943D01*
X159135213Y-78210134D01*
X159111403Y-78248229D01*
X159063784Y-78286324D01*
X158968546Y-78286324D01*
X158920927Y-78248229D01*
X159444737Y-78286324D02*
X159397118Y-78248229D01*
X159373308Y-78210134D01*
X159349499Y-78133943D01*
X159349499Y-77905372D01*
X159373308Y-77829181D01*
X159397118Y-77791086D01*
X159444737Y-77752991D01*
X159516165Y-77752991D01*
X159563784Y-77791086D01*
X159587594Y-77829181D01*
X159611403Y-77905372D01*
X159611403Y-78133943D01*
X159587594Y-78210134D01*
X159563784Y-78248229D01*
X159516165Y-78286324D01*
X159444737Y-78286324D01*
X160039975Y-78286324D02*
X160039975Y-77867277D01*
X160016165Y-77791086D01*
X159968546Y-77752991D01*
X159873308Y-77752991D01*
X159825689Y-77791086D01*
X160039975Y-78248229D02*
X159992356Y-78286324D01*
X159873308Y-78286324D01*
X159825689Y-78248229D01*
X159801880Y-78172039D01*
X159801880Y-78095848D01*
X159825689Y-78019658D01*
X159873308Y-77981562D01*
X159992356Y-77981562D01*
X160039975Y-77943467D01*
X160278070Y-78286324D02*
X160278070Y-77752991D01*
X160278070Y-77905372D02*
X160301880Y-77829181D01*
X160325689Y-77791086D01*
X160373308Y-77752991D01*
X160420927Y-77752991D01*
X160801880Y-78286324D02*
X160801880Y-77486324D01*
X160801880Y-78248229D02*
X160754260Y-78286324D01*
X160659022Y-78286324D01*
X160611403Y-78248229D01*
X160587594Y-78210134D01*
X160563784Y-78133943D01*
X160563784Y-77905372D01*
X160587594Y-77829181D01*
X160611403Y-77791086D01*
X160659022Y-77752991D01*
X160754260Y-77752991D01*
X160801880Y-77791086D01*
X161016165Y-78248229D02*
X161063784Y-78286324D01*
X161159022Y-78286324D01*
X161206641Y-78248229D01*
X161230451Y-78172039D01*
X161230451Y-78133943D01*
X161206641Y-78057753D01*
X161159022Y-78019658D01*
X161087594Y-78019658D01*
X161039975Y-77981562D01*
X161016165Y-77905372D01*
X161016165Y-77867277D01*
X161039975Y-77791086D01*
X161087594Y-77752991D01*
X161159022Y-77752991D01*
X161206641Y-77791086D01*
D10*
X155409022Y-74648705D02*
X155142356Y-74648705D01*
X155142356Y-75277277D02*
X155142356Y-74077277D01*
X155523308Y-74077277D01*
X156132832Y-75220134D02*
X156056641Y-75277277D01*
X155904260Y-75277277D01*
X155828070Y-75220134D01*
X155789975Y-75105848D01*
X155789975Y-74648705D01*
X155828070Y-74534420D01*
X155904260Y-74477277D01*
X156056641Y-74477277D01*
X156132832Y-74534420D01*
X156170927Y-74648705D01*
X156170927Y-74762991D01*
X155789975Y-74877277D01*
X156856641Y-75277277D02*
X156856641Y-74648705D01*
X156818546Y-74534420D01*
X156742356Y-74477277D01*
X156589975Y-74477277D01*
X156513784Y-74534420D01*
X156856641Y-75220134D02*
X156780451Y-75277277D01*
X156589975Y-75277277D01*
X156513784Y-75220134D01*
X156475689Y-75105848D01*
X156475689Y-74991562D01*
X156513784Y-74877277D01*
X156589975Y-74820134D01*
X156780451Y-74820134D01*
X156856641Y-74762991D01*
X157123308Y-74477277D02*
X157428070Y-74477277D01*
X157237594Y-74077277D02*
X157237594Y-75105848D01*
X157275689Y-75220134D01*
X157351880Y-75277277D01*
X157428070Y-75277277D01*
X157694737Y-75277277D02*
X157694737Y-74077277D01*
X158037594Y-75277277D02*
X158037594Y-74648705D01*
X157999499Y-74534420D01*
X157923308Y-74477277D01*
X157809022Y-74477277D01*
X157732832Y-74534420D01*
X157694737Y-74591562D01*
X158723308Y-75220134D02*
X158647118Y-75277277D01*
X158494737Y-75277277D01*
X158418546Y-75220134D01*
X158380451Y-75105848D01*
X158380451Y-74648705D01*
X158418546Y-74534420D01*
X158494737Y-74477277D01*
X158647118Y-74477277D01*
X158723308Y-74534420D01*
X158761403Y-74648705D01*
X158761403Y-74762991D01*
X158380451Y-74877277D01*
X159104260Y-75277277D02*
X159104260Y-74477277D01*
X159104260Y-74705848D02*
X159142356Y-74591562D01*
X159180451Y-74534420D01*
X159256641Y-74477277D01*
X159332832Y-74477277D01*
X159561403Y-74191562D02*
X159599499Y-74134420D01*
X159675689Y-74077277D01*
X159866165Y-74077277D01*
X159942356Y-74134420D01*
X159980451Y-74191562D01*
X160018546Y-74305848D01*
X160018546Y-74420134D01*
X159980451Y-74591562D01*
X159523308Y-75277277D01*
X160018546Y-75277277D01*
X160818546Y-75277277D02*
X160551880Y-74705848D01*
X160361403Y-75277277D02*
X160361403Y-74077277D01*
X160666165Y-74077277D01*
X160742356Y-74134420D01*
X160780451Y-74191562D01*
X160818546Y-74305848D01*
X160818546Y-74477277D01*
X160780451Y-74591562D01*
X160742356Y-74648705D01*
X160666165Y-74705848D01*
X160361403Y-74705848D01*
X161161403Y-75277277D02*
X161161403Y-74077277D01*
X161466165Y-74077277D01*
X161542356Y-74134420D01*
X161580451Y-74191562D01*
X161618546Y-74305848D01*
X161618546Y-74477277D01*
X161580451Y-74591562D01*
X161542356Y-74648705D01*
X161466165Y-74705848D01*
X161161403Y-74705848D01*
X161961403Y-75277277D02*
X161961403Y-74077277D01*
X168424737Y-44817991D02*
X168224737Y-44817991D01*
X168224737Y-45341800D02*
X168224737Y-44341800D01*
X168510451Y-44341800D01*
X168739022Y-44817991D02*
X168939022Y-44817991D01*
X169024737Y-45341800D02*
X168739022Y-45341800D01*
X168739022Y-44341800D01*
X169024737Y-44341800D01*
X169253308Y-45056086D02*
X169539022Y-45056086D01*
X169196165Y-45341800D02*
X169396165Y-44341800D01*
X169596165Y-45341800D01*
X169710451Y-44341800D02*
X170053308Y-44341800D01*
X169881880Y-45341800D02*
X169881880Y-44341800D01*
X170253308Y-45341800D02*
X170253308Y-44341800D01*
X170253308Y-44817991D02*
X170596165Y-44817991D01*
X170596165Y-45341800D02*
X170596165Y-44341800D01*
X170881880Y-44817991D02*
X171081880Y-44817991D01*
X171167594Y-45341800D02*
X170881880Y-45341800D01*
X170881880Y-44341800D01*
X171167594Y-44341800D01*
X171767594Y-45341800D02*
X171567594Y-44865610D01*
X171424737Y-45341800D02*
X171424737Y-44341800D01*
X171653308Y-44341800D01*
X171710451Y-44389420D01*
X171739022Y-44437039D01*
X171767594Y-44532277D01*
X171767594Y-44675134D01*
X171739022Y-44770372D01*
X171710451Y-44817991D01*
X171653308Y-44865610D01*
X171424737Y-44865610D01*
X112574737Y-45341800D02*
X112374737Y-44865610D01*
X112231880Y-45341800D02*
X112231880Y-44341800D01*
X112460451Y-44341800D01*
X112517594Y-44389420D01*
X112546165Y-44437039D01*
X112574737Y-44532277D01*
X112574737Y-44675134D01*
X112546165Y-44770372D01*
X112517594Y-44817991D01*
X112460451Y-44865610D01*
X112231880Y-44865610D01*
X112831880Y-45341800D02*
X112831880Y-44341800D01*
X113060451Y-44341800D01*
X113117594Y-44389420D01*
X113146165Y-44437039D01*
X113174737Y-44532277D01*
X113174737Y-44675134D01*
X113146165Y-44770372D01*
X113117594Y-44817991D01*
X113060451Y-44865610D01*
X112831880Y-44865610D01*
X113431880Y-45341800D02*
X113431880Y-44341800D01*
X113201880Y-87251800D02*
X113201880Y-86251800D01*
X113430451Y-86251800D01*
X113487594Y-86299420D01*
X113516165Y-86347039D01*
X113544737Y-86442277D01*
X113544737Y-86585134D01*
X113516165Y-86680372D01*
X113487594Y-86727991D01*
X113430451Y-86775610D01*
X113201880Y-86775610D01*
X113801880Y-87251800D02*
X113801880Y-86251800D01*
X114087594Y-87251800D02*
X114087594Y-86251800D01*
X114430451Y-87251800D01*
X114430451Y-86251800D01*
X115030451Y-87251800D02*
X114687594Y-87251800D01*
X114859022Y-87251800D02*
X114859022Y-86251800D01*
X114801880Y-86394658D01*
X114744737Y-86489896D01*
X114687594Y-86537515D01*
X167769022Y-75821800D02*
X167769022Y-74821800D01*
X167969022Y-75536086D01*
X168169022Y-74821800D01*
X168169022Y-75821800D01*
X168454737Y-75821800D02*
X168454737Y-74821800D01*
X168711880Y-75774181D02*
X168797594Y-75821800D01*
X168940451Y-75821800D01*
X168997594Y-75774181D01*
X169026165Y-75726562D01*
X169054737Y-75631324D01*
X169054737Y-75536086D01*
X169026165Y-75440848D01*
X168997594Y-75393229D01*
X168940451Y-75345610D01*
X168826165Y-75297991D01*
X168769022Y-75250372D01*
X168740451Y-75202753D01*
X168711880Y-75107515D01*
X168711880Y-75012277D01*
X168740451Y-74917039D01*
X168769022Y-74869420D01*
X168826165Y-74821800D01*
X168969022Y-74821800D01*
X169054737Y-74869420D01*
X169426165Y-74821800D02*
X169540451Y-74821800D01*
X169597594Y-74869420D01*
X169654737Y-74964658D01*
X169683308Y-75155134D01*
X169683308Y-75488467D01*
X169654737Y-75678943D01*
X169597594Y-75774181D01*
X169540451Y-75821800D01*
X169426165Y-75821800D01*
X169369022Y-75774181D01*
X169311880Y-75678943D01*
X169283308Y-75488467D01*
X169283308Y-75155134D01*
X169311880Y-74964658D01*
X169369022Y-74869420D01*
X169426165Y-74821800D01*
X167769022Y-73281800D02*
X167769022Y-72281800D01*
X167969022Y-72996086D01*
X168169022Y-72281800D01*
X168169022Y-73281800D01*
X168569022Y-72281800D02*
X168683308Y-72281800D01*
X168740451Y-72329420D01*
X168797594Y-72424658D01*
X168826165Y-72615134D01*
X168826165Y-72948467D01*
X168797594Y-73138943D01*
X168740451Y-73234181D01*
X168683308Y-73281800D01*
X168569022Y-73281800D01*
X168511880Y-73234181D01*
X168454737Y-73138943D01*
X168426165Y-72948467D01*
X168426165Y-72615134D01*
X168454737Y-72424658D01*
X168511880Y-72329420D01*
X168569022Y-72281800D01*
X169054737Y-73234181D02*
X169140451Y-73281800D01*
X169283308Y-73281800D01*
X169340451Y-73234181D01*
X169369022Y-73186562D01*
X169397594Y-73091324D01*
X169397594Y-72996086D01*
X169369022Y-72900848D01*
X169340451Y-72853229D01*
X169283308Y-72805610D01*
X169169022Y-72757991D01*
X169111880Y-72710372D01*
X169083308Y-72662753D01*
X169054737Y-72567515D01*
X169054737Y-72472277D01*
X169083308Y-72377039D01*
X169111880Y-72329420D01*
X169169022Y-72281800D01*
X169311880Y-72281800D01*
X169397594Y-72329420D01*
X169654737Y-73281800D02*
X169654737Y-72281800D01*
X167940451Y-70694181D02*
X168026165Y-70741800D01*
X168169022Y-70741800D01*
X168226165Y-70694181D01*
X168254737Y-70646562D01*
X168283308Y-70551324D01*
X168283308Y-70456086D01*
X168254737Y-70360848D01*
X168226165Y-70313229D01*
X168169022Y-70265610D01*
X168054737Y-70217991D01*
X167997594Y-70170372D01*
X167969022Y-70122753D01*
X167940451Y-70027515D01*
X167940451Y-69932277D01*
X167969022Y-69837039D01*
X167997594Y-69789420D01*
X168054737Y-69741800D01*
X168197594Y-69741800D01*
X168283308Y-69789420D01*
X168883308Y-70646562D02*
X168854737Y-70694181D01*
X168769022Y-70741800D01*
X168711880Y-70741800D01*
X168626165Y-70694181D01*
X168569022Y-70598943D01*
X168540451Y-70503705D01*
X168511880Y-70313229D01*
X168511880Y-70170372D01*
X168540451Y-69979896D01*
X168569022Y-69884658D01*
X168626165Y-69789420D01*
X168711880Y-69741800D01*
X168769022Y-69741800D01*
X168854737Y-69789420D01*
X168883308Y-69837039D01*
X169140451Y-70741800D02*
X169140451Y-69741800D01*
X169483308Y-70741800D02*
X169226165Y-70170372D01*
X169483308Y-69741800D02*
X169140451Y-70313229D01*
X168254737Y-67249420D02*
X168197594Y-67201800D01*
X168111880Y-67201800D01*
X168026165Y-67249420D01*
X167969022Y-67344658D01*
X167940451Y-67439896D01*
X167911880Y-67630372D01*
X167911880Y-67773229D01*
X167940451Y-67963705D01*
X167969022Y-68058943D01*
X168026165Y-68154181D01*
X168111880Y-68201800D01*
X168169022Y-68201800D01*
X168254737Y-68154181D01*
X168283308Y-68106562D01*
X168283308Y-67773229D01*
X168169022Y-67773229D01*
X168540451Y-68201800D02*
X168540451Y-67201800D01*
X168883308Y-68201800D01*
X168883308Y-67201800D01*
X169169022Y-68201800D02*
X169169022Y-67201800D01*
X169311880Y-67201800D01*
X169397594Y-67249420D01*
X169454737Y-67344658D01*
X169483308Y-67439896D01*
X169511880Y-67630372D01*
X169511880Y-67773229D01*
X169483308Y-67963705D01*
X169454737Y-68058943D01*
X169397594Y-68154181D01*
X169311880Y-68201800D01*
X169169022Y-68201800D01*
X168083308Y-64661800D02*
X168454737Y-64661800D01*
X168254737Y-65042753D01*
X168340451Y-65042753D01*
X168397594Y-65090372D01*
X168426165Y-65137991D01*
X168454737Y-65233229D01*
X168454737Y-65471324D01*
X168426165Y-65566562D01*
X168397594Y-65614181D01*
X168340451Y-65661800D01*
X168169022Y-65661800D01*
X168111880Y-65614181D01*
X168083308Y-65566562D01*
X168711880Y-65566562D02*
X168740451Y-65614181D01*
X168711880Y-65661800D01*
X168683308Y-65614181D01*
X168711880Y-65566562D01*
X168711880Y-65661800D01*
X168940451Y-64661800D02*
X169311880Y-64661800D01*
X169111880Y-65042753D01*
X169197594Y-65042753D01*
X169254737Y-65090372D01*
X169283308Y-65137991D01*
X169311880Y-65233229D01*
X169311880Y-65471324D01*
X169283308Y-65566562D01*
X169254737Y-65614181D01*
X169197594Y-65661800D01*
X169026165Y-65661800D01*
X168969022Y-65614181D01*
X168940451Y-65566562D01*
X167983308Y-62597991D02*
X167783308Y-62597991D01*
X167783308Y-63121800D02*
X167783308Y-62121800D01*
X168069022Y-62121800D01*
X168640451Y-63121800D02*
X168440451Y-62645610D01*
X168297594Y-63121800D02*
X168297594Y-62121800D01*
X168526165Y-62121800D01*
X168583308Y-62169420D01*
X168611880Y-62217039D01*
X168640451Y-62312277D01*
X168640451Y-62455134D01*
X168611880Y-62550372D01*
X168583308Y-62597991D01*
X168526165Y-62645610D01*
X168297594Y-62645610D01*
X168869022Y-63074181D02*
X168954737Y-63121800D01*
X169097594Y-63121800D01*
X169154737Y-63074181D01*
X169183308Y-63026562D01*
X169211880Y-62931324D01*
X169211880Y-62836086D01*
X169183308Y-62740848D01*
X169154737Y-62693229D01*
X169097594Y-62645610D01*
X168983308Y-62597991D01*
X168926165Y-62550372D01*
X168897594Y-62502753D01*
X168869022Y-62407515D01*
X168869022Y-62312277D01*
X168897594Y-62217039D01*
X168926165Y-62169420D01*
X168983308Y-62121800D01*
X169126165Y-62121800D01*
X169211880Y-62169420D01*
X169383308Y-62121800D02*
X169726165Y-62121800D01*
X169554737Y-63121800D02*
X169554737Y-62121800D01*
X168283308Y-60296086D02*
X168569022Y-60296086D01*
X168226165Y-60581800D02*
X168426165Y-59581800D01*
X168626165Y-60581800D01*
X168940451Y-59581800D02*
X168997594Y-59581800D01*
X169054737Y-59629420D01*
X169083308Y-59677039D01*
X169111880Y-59772277D01*
X169140451Y-59962753D01*
X169140451Y-60200848D01*
X169111880Y-60391324D01*
X169083308Y-60486562D01*
X169054737Y-60534181D01*
X168997594Y-60581800D01*
X168940451Y-60581800D01*
X168883308Y-60534181D01*
X168854737Y-60486562D01*
X168826165Y-60391324D01*
X168797594Y-60200848D01*
X168797594Y-59962753D01*
X168826165Y-59772277D01*
X168854737Y-59677039D01*
X168883308Y-59629420D01*
X168940451Y-59581800D01*
X168283308Y-57756086D02*
X168569022Y-57756086D01*
X168226165Y-58041800D02*
X168426165Y-57041800D01*
X168626165Y-58041800D01*
X169140451Y-58041800D02*
X168797594Y-58041800D01*
X168969022Y-58041800D02*
X168969022Y-57041800D01*
X168911880Y-57184658D01*
X168854737Y-57279896D01*
X168797594Y-57327515D01*
X168283308Y-55216086D02*
X168569022Y-55216086D01*
X168226165Y-55501800D02*
X168426165Y-54501800D01*
X168626165Y-55501800D01*
X168797594Y-54597039D02*
X168826165Y-54549420D01*
X168883308Y-54501800D01*
X169026165Y-54501800D01*
X169083308Y-54549420D01*
X169111880Y-54597039D01*
X169140451Y-54692277D01*
X169140451Y-54787515D01*
X169111880Y-54930372D01*
X168769022Y-55501800D01*
X169140451Y-55501800D01*
X168283308Y-52676086D02*
X168569022Y-52676086D01*
X168226165Y-52961800D02*
X168426165Y-51961800D01*
X168626165Y-52961800D01*
X168769022Y-51961800D02*
X169140451Y-51961800D01*
X168940451Y-52342753D01*
X169026165Y-52342753D01*
X169083308Y-52390372D01*
X169111880Y-52437991D01*
X169140451Y-52533229D01*
X169140451Y-52771324D01*
X169111880Y-52866562D01*
X169083308Y-52914181D01*
X169026165Y-52961800D01*
X168854737Y-52961800D01*
X168797594Y-52914181D01*
X168769022Y-52866562D01*
X168283308Y-50136086D02*
X168569022Y-50136086D01*
X168226165Y-50421800D02*
X168426165Y-49421800D01*
X168626165Y-50421800D01*
X169083308Y-49755134D02*
X169083308Y-50421800D01*
X168940451Y-49374181D02*
X168797594Y-50088467D01*
X169169022Y-50088467D01*
X168283308Y-47596086D02*
X168569022Y-47596086D01*
X168226165Y-47881800D02*
X168426165Y-46881800D01*
X168626165Y-47881800D01*
X169111880Y-46881800D02*
X168826165Y-46881800D01*
X168797594Y-47357991D01*
X168826165Y-47310372D01*
X168883308Y-47262753D01*
X169026165Y-47262753D01*
X169083308Y-47310372D01*
X169111880Y-47357991D01*
X169140451Y-47453229D01*
X169140451Y-47691324D01*
X169111880Y-47786562D01*
X169083308Y-47834181D01*
X169026165Y-47881800D01*
X168883308Y-47881800D01*
X168826165Y-47834181D01*
X168797594Y-47786562D01*
X115057594Y-46881800D02*
X115114737Y-46881800D01*
X115171880Y-46929420D01*
X115200451Y-46977039D01*
X115229022Y-47072277D01*
X115257594Y-47262753D01*
X115257594Y-47500848D01*
X115229022Y-47691324D01*
X115200451Y-47786562D01*
X115171880Y-47834181D01*
X115114737Y-47881800D01*
X115057594Y-47881800D01*
X115000451Y-47834181D01*
X114971880Y-47786562D01*
X114943308Y-47691324D01*
X114914737Y-47500848D01*
X114914737Y-47262753D01*
X114943308Y-47072277D01*
X114971880Y-46977039D01*
X115000451Y-46929420D01*
X115057594Y-46881800D01*
X115771880Y-47215134D02*
X115771880Y-47881800D01*
X115629022Y-46834181D02*
X115486165Y-47548467D01*
X115857594Y-47548467D01*
X114914737Y-74917039D02*
X114943308Y-74869420D01*
X115000451Y-74821800D01*
X115143308Y-74821800D01*
X115200451Y-74869420D01*
X115229022Y-74917039D01*
X115257594Y-75012277D01*
X115257594Y-75107515D01*
X115229022Y-75250372D01*
X114886165Y-75821800D01*
X115257594Y-75821800D01*
X115771880Y-74821800D02*
X115657594Y-74821800D01*
X115600451Y-74869420D01*
X115571880Y-74917039D01*
X115514737Y-75059896D01*
X115486165Y-75250372D01*
X115486165Y-75631324D01*
X115514737Y-75726562D01*
X115543308Y-75774181D01*
X115600451Y-75821800D01*
X115714737Y-75821800D01*
X115771880Y-75774181D01*
X115800451Y-75726562D01*
X115829022Y-75631324D01*
X115829022Y-75393229D01*
X115800451Y-75297991D01*
X115771880Y-75250372D01*
X115714737Y-75202753D01*
X115600451Y-75202753D01*
X115543308Y-75250372D01*
X115514737Y-75297991D01*
X115486165Y-75393229D01*
X114914737Y-72377039D02*
X114943308Y-72329420D01*
X115000451Y-72281800D01*
X115143308Y-72281800D01*
X115200451Y-72329420D01*
X115229022Y-72377039D01*
X115257594Y-72472277D01*
X115257594Y-72567515D01*
X115229022Y-72710372D01*
X114886165Y-73281800D01*
X115257594Y-73281800D01*
X115457594Y-72281800D02*
X115829022Y-72281800D01*
X115629022Y-72662753D01*
X115714737Y-72662753D01*
X115771880Y-72710372D01*
X115800451Y-72757991D01*
X115829022Y-72853229D01*
X115829022Y-73091324D01*
X115800451Y-73186562D01*
X115771880Y-73234181D01*
X115714737Y-73281800D01*
X115543308Y-73281800D01*
X115486165Y-73234181D01*
X115457594Y-73186562D01*
X114914737Y-69837039D02*
X114943308Y-69789420D01*
X115000451Y-69741800D01*
X115143308Y-69741800D01*
X115200451Y-69789420D01*
X115229022Y-69837039D01*
X115257594Y-69932277D01*
X115257594Y-70027515D01*
X115229022Y-70170372D01*
X114886165Y-70741800D01*
X115257594Y-70741800D01*
X115829022Y-70741800D02*
X115486165Y-70741800D01*
X115657594Y-70741800D02*
X115657594Y-69741800D01*
X115600451Y-69884658D01*
X115543308Y-69979896D01*
X115486165Y-70027515D01*
X114914737Y-67297039D02*
X114943308Y-67249420D01*
X115000451Y-67201800D01*
X115143308Y-67201800D01*
X115200451Y-67249420D01*
X115229022Y-67297039D01*
X115257594Y-67392277D01*
X115257594Y-67487515D01*
X115229022Y-67630372D01*
X114886165Y-68201800D01*
X115257594Y-68201800D01*
X115629022Y-67201800D02*
X115686165Y-67201800D01*
X115743308Y-67249420D01*
X115771880Y-67297039D01*
X115800451Y-67392277D01*
X115829022Y-67582753D01*
X115829022Y-67820848D01*
X115800451Y-68011324D01*
X115771880Y-68106562D01*
X115743308Y-68154181D01*
X115686165Y-68201800D01*
X115629022Y-68201800D01*
X115571880Y-68154181D01*
X115543308Y-68106562D01*
X115514737Y-68011324D01*
X115486165Y-67820848D01*
X115486165Y-67582753D01*
X115514737Y-67392277D01*
X115543308Y-67297039D01*
X115571880Y-67249420D01*
X115629022Y-67201800D01*
X115257594Y-65661800D02*
X114914737Y-65661800D01*
X115086165Y-65661800D02*
X115086165Y-64661800D01*
X115029022Y-64804658D01*
X114971880Y-64899896D01*
X114914737Y-64947515D01*
X115543308Y-65661800D02*
X115657594Y-65661800D01*
X115714737Y-65614181D01*
X115743308Y-65566562D01*
X115800451Y-65423705D01*
X115829022Y-65233229D01*
X115829022Y-64852277D01*
X115800451Y-64757039D01*
X115771880Y-64709420D01*
X115714737Y-64661800D01*
X115600451Y-64661800D01*
X115543308Y-64709420D01*
X115514737Y-64757039D01*
X115486165Y-64852277D01*
X115486165Y-65090372D01*
X115514737Y-65185610D01*
X115543308Y-65233229D01*
X115600451Y-65280848D01*
X115714737Y-65280848D01*
X115771880Y-65233229D01*
X115800451Y-65185610D01*
X115829022Y-65090372D01*
X115257594Y-63121800D02*
X114914737Y-63121800D01*
X115086165Y-63121800D02*
X115086165Y-62121800D01*
X115029022Y-62264658D01*
X114971880Y-62359896D01*
X114914737Y-62407515D01*
X115600451Y-62550372D02*
X115543308Y-62502753D01*
X115514737Y-62455134D01*
X115486165Y-62359896D01*
X115486165Y-62312277D01*
X115514737Y-62217039D01*
X115543308Y-62169420D01*
X115600451Y-62121800D01*
X115714737Y-62121800D01*
X115771880Y-62169420D01*
X115800451Y-62217039D01*
X115829022Y-62312277D01*
X115829022Y-62359896D01*
X115800451Y-62455134D01*
X115771880Y-62502753D01*
X115714737Y-62550372D01*
X115600451Y-62550372D01*
X115543308Y-62597991D01*
X115514737Y-62645610D01*
X115486165Y-62740848D01*
X115486165Y-62931324D01*
X115514737Y-63026562D01*
X115543308Y-63074181D01*
X115600451Y-63121800D01*
X115714737Y-63121800D01*
X115771880Y-63074181D01*
X115800451Y-63026562D01*
X115829022Y-62931324D01*
X115829022Y-62740848D01*
X115800451Y-62645610D01*
X115771880Y-62597991D01*
X115714737Y-62550372D01*
X115257594Y-60581800D02*
X114914737Y-60581800D01*
X115086165Y-60581800D02*
X115086165Y-59581800D01*
X115029022Y-59724658D01*
X114971880Y-59819896D01*
X114914737Y-59867515D01*
X115771880Y-59581800D02*
X115657594Y-59581800D01*
X115600451Y-59629420D01*
X115571880Y-59677039D01*
X115514737Y-59819896D01*
X115486165Y-60010372D01*
X115486165Y-60391324D01*
X115514737Y-60486562D01*
X115543308Y-60534181D01*
X115600451Y-60581800D01*
X115714737Y-60581800D01*
X115771880Y-60534181D01*
X115800451Y-60486562D01*
X115829022Y-60391324D01*
X115829022Y-60153229D01*
X115800451Y-60057991D01*
X115771880Y-60010372D01*
X115714737Y-59962753D01*
X115600451Y-59962753D01*
X115543308Y-60010372D01*
X115514737Y-60057991D01*
X115486165Y-60153229D01*
X115257594Y-58041800D02*
X114914737Y-58041800D01*
X115086165Y-58041800D02*
X115086165Y-57041800D01*
X115029022Y-57184658D01*
X114971880Y-57279896D01*
X114914737Y-57327515D01*
X115457594Y-57041800D02*
X115829022Y-57041800D01*
X115629022Y-57422753D01*
X115714737Y-57422753D01*
X115771880Y-57470372D01*
X115800451Y-57517991D01*
X115829022Y-57613229D01*
X115829022Y-57851324D01*
X115800451Y-57946562D01*
X115771880Y-57994181D01*
X115714737Y-58041800D01*
X115543308Y-58041800D01*
X115486165Y-57994181D01*
X115457594Y-57946562D01*
X115257594Y-55501800D02*
X114914737Y-55501800D01*
X115086165Y-55501800D02*
X115086165Y-54501800D01*
X115029022Y-54644658D01*
X114971880Y-54739896D01*
X114914737Y-54787515D01*
X115486165Y-54597039D02*
X115514737Y-54549420D01*
X115571880Y-54501800D01*
X115714737Y-54501800D01*
X115771880Y-54549420D01*
X115800451Y-54597039D01*
X115829022Y-54692277D01*
X115829022Y-54787515D01*
X115800451Y-54930372D01*
X115457594Y-55501800D01*
X115829022Y-55501800D01*
X115057594Y-51961800D02*
X115114737Y-51961800D01*
X115171880Y-52009420D01*
X115200451Y-52057039D01*
X115229022Y-52152277D01*
X115257594Y-52342753D01*
X115257594Y-52580848D01*
X115229022Y-52771324D01*
X115200451Y-52866562D01*
X115171880Y-52914181D01*
X115114737Y-52961800D01*
X115057594Y-52961800D01*
X115000451Y-52914181D01*
X114971880Y-52866562D01*
X114943308Y-52771324D01*
X114914737Y-52580848D01*
X114914737Y-52342753D01*
X114943308Y-52152277D01*
X114971880Y-52057039D01*
X115000451Y-52009420D01*
X115057594Y-51961800D01*
X115771880Y-51961800D02*
X115657594Y-51961800D01*
X115600451Y-52009420D01*
X115571880Y-52057039D01*
X115514737Y-52199896D01*
X115486165Y-52390372D01*
X115486165Y-52771324D01*
X115514737Y-52866562D01*
X115543308Y-52914181D01*
X115600451Y-52961800D01*
X115714737Y-52961800D01*
X115771880Y-52914181D01*
X115800451Y-52866562D01*
X115829022Y-52771324D01*
X115829022Y-52533229D01*
X115800451Y-52437991D01*
X115771880Y-52390372D01*
X115714737Y-52342753D01*
X115600451Y-52342753D01*
X115543308Y-52390372D01*
X115514737Y-52437991D01*
X115486165Y-52533229D01*
X115057594Y-49421800D02*
X115114737Y-49421800D01*
X115171880Y-49469420D01*
X115200451Y-49517039D01*
X115229022Y-49612277D01*
X115257594Y-49802753D01*
X115257594Y-50040848D01*
X115229022Y-50231324D01*
X115200451Y-50326562D01*
X115171880Y-50374181D01*
X115114737Y-50421800D01*
X115057594Y-50421800D01*
X115000451Y-50374181D01*
X114971880Y-50326562D01*
X114943308Y-50231324D01*
X114914737Y-50040848D01*
X114914737Y-49802753D01*
X114943308Y-49612277D01*
X114971880Y-49517039D01*
X115000451Y-49469420D01*
X115057594Y-49421800D01*
X115800451Y-49421800D02*
X115514737Y-49421800D01*
X115486165Y-49897991D01*
X115514737Y-49850372D01*
X115571880Y-49802753D01*
X115714737Y-49802753D01*
X115771880Y-49850372D01*
X115800451Y-49897991D01*
X115829022Y-49993229D01*
X115829022Y-50231324D01*
X115800451Y-50326562D01*
X115771880Y-50374181D01*
X115714737Y-50421800D01*
X115571880Y-50421800D01*
X115514737Y-50374181D01*
X115486165Y-50326562D01*
X125217594Y-86886800D02*
X125274737Y-86886800D01*
X125331880Y-86934420D01*
X125360451Y-86982039D01*
X125389022Y-87077277D01*
X125417594Y-87267753D01*
X125417594Y-87505848D01*
X125389022Y-87696324D01*
X125360451Y-87791562D01*
X125331880Y-87839181D01*
X125274737Y-87886800D01*
X125217594Y-87886800D01*
X125160451Y-87839181D01*
X125131880Y-87791562D01*
X125103308Y-87696324D01*
X125074737Y-87505848D01*
X125074737Y-87267753D01*
X125103308Y-87077277D01*
X125131880Y-86982039D01*
X125160451Y-86934420D01*
X125217594Y-86886800D01*
X125931880Y-87220134D02*
X125931880Y-87886800D01*
X125789022Y-86839181D02*
X125646165Y-87553467D01*
X126017594Y-87553467D01*
X130411880Y-87362991D02*
X130211880Y-87362991D01*
X130211880Y-87886800D02*
X130211880Y-86886800D01*
X130497594Y-86886800D01*
X131011880Y-86886800D02*
X130726165Y-86886800D01*
X130697594Y-87362991D01*
X130726165Y-87315372D01*
X130783308Y-87267753D01*
X130926165Y-87267753D01*
X130983308Y-87315372D01*
X131011880Y-87362991D01*
X131040451Y-87458229D01*
X131040451Y-87696324D01*
X131011880Y-87791562D01*
X130983308Y-87839181D01*
X130926165Y-87886800D01*
X130783308Y-87886800D01*
X130726165Y-87839181D01*
X130697594Y-87791562D01*
X132951880Y-87362991D02*
X132751880Y-87362991D01*
X132751880Y-87886800D02*
X132751880Y-86886800D01*
X133037594Y-86886800D01*
X133523308Y-86886800D02*
X133409022Y-86886800D01*
X133351880Y-86934420D01*
X133323308Y-86982039D01*
X133266165Y-87124896D01*
X133237594Y-87315372D01*
X133237594Y-87696324D01*
X133266165Y-87791562D01*
X133294737Y-87839181D01*
X133351880Y-87886800D01*
X133466165Y-87886800D01*
X133523308Y-87839181D01*
X133551880Y-87791562D01*
X133580451Y-87696324D01*
X133580451Y-87458229D01*
X133551880Y-87362991D01*
X133523308Y-87315372D01*
X133466165Y-87267753D01*
X133351880Y-87267753D01*
X133294737Y-87315372D01*
X133266165Y-87362991D01*
X133237594Y-87458229D01*
X135491880Y-87362991D02*
X135291880Y-87362991D01*
X135291880Y-87886800D02*
X135291880Y-86886800D01*
X135577594Y-86886800D01*
X135834737Y-87886800D02*
X135949022Y-87886800D01*
X136006165Y-87839181D01*
X136034737Y-87791562D01*
X136091880Y-87648705D01*
X136120451Y-87458229D01*
X136120451Y-87077277D01*
X136091880Y-86982039D01*
X136063308Y-86934420D01*
X136006165Y-86886800D01*
X135891880Y-86886800D01*
X135834737Y-86934420D01*
X135806165Y-86982039D01*
X135777594Y-87077277D01*
X135777594Y-87315372D01*
X135806165Y-87410610D01*
X135834737Y-87458229D01*
X135891880Y-87505848D01*
X136006165Y-87505848D01*
X136063308Y-87458229D01*
X136091880Y-87410610D01*
X136120451Y-87315372D01*
X140257594Y-87886800D02*
X140257594Y-86886800D01*
X140457594Y-87601086D01*
X140657594Y-86886800D01*
X140657594Y-87886800D01*
X141057594Y-86886800D02*
X141171880Y-86886800D01*
X141229022Y-86934420D01*
X141286165Y-87029658D01*
X141314737Y-87220134D01*
X141314737Y-87553467D01*
X141286165Y-87743943D01*
X141229022Y-87839181D01*
X141171880Y-87886800D01*
X141057594Y-87886800D01*
X141000451Y-87839181D01*
X140943308Y-87743943D01*
X140914737Y-87553467D01*
X140914737Y-87220134D01*
X140943308Y-87029658D01*
X141000451Y-86934420D01*
X141057594Y-86886800D01*
X142969022Y-87886800D02*
X142969022Y-86886800D01*
X143169022Y-87601086D01*
X143369022Y-86886800D01*
X143369022Y-87886800D01*
X143654737Y-87886800D02*
X143654737Y-86886800D01*
X145080451Y-87839181D02*
X145166165Y-87886800D01*
X145309022Y-87886800D01*
X145366165Y-87839181D01*
X145394737Y-87791562D01*
X145423308Y-87696324D01*
X145423308Y-87601086D01*
X145394737Y-87505848D01*
X145366165Y-87458229D01*
X145309022Y-87410610D01*
X145194737Y-87362991D01*
X145137594Y-87315372D01*
X145109022Y-87267753D01*
X145080451Y-87172515D01*
X145080451Y-87077277D01*
X145109022Y-86982039D01*
X145137594Y-86934420D01*
X145194737Y-86886800D01*
X145337594Y-86886800D01*
X145423308Y-86934420D01*
X146023308Y-87791562D02*
X145994737Y-87839181D01*
X145909022Y-87886800D01*
X145851880Y-87886800D01*
X145766165Y-87839181D01*
X145709022Y-87743943D01*
X145680451Y-87648705D01*
X145651880Y-87458229D01*
X145651880Y-87315372D01*
X145680451Y-87124896D01*
X145709022Y-87029658D01*
X145766165Y-86934420D01*
X145851880Y-86886800D01*
X145909022Y-86886800D01*
X145994737Y-86934420D01*
X146023308Y-86982039D01*
X146280451Y-87886800D02*
X146280451Y-86886800D01*
X146623308Y-87886800D02*
X146366165Y-87315372D01*
X146623308Y-86886800D02*
X146280451Y-87458229D01*
X153157594Y-86886800D02*
X153214737Y-86886800D01*
X153271880Y-86934420D01*
X153300451Y-86982039D01*
X153329022Y-87077277D01*
X153357594Y-87267753D01*
X153357594Y-87505848D01*
X153329022Y-87696324D01*
X153300451Y-87791562D01*
X153271880Y-87839181D01*
X153214737Y-87886800D01*
X153157594Y-87886800D01*
X153100451Y-87839181D01*
X153071880Y-87791562D01*
X153043308Y-87696324D01*
X153014737Y-87505848D01*
X153014737Y-87267753D01*
X153043308Y-87077277D01*
X153071880Y-86982039D01*
X153100451Y-86934420D01*
X153157594Y-86886800D01*
X153900451Y-86886800D02*
X153614737Y-86886800D01*
X153586165Y-87362991D01*
X153614737Y-87315372D01*
X153671880Y-87267753D01*
X153814737Y-87267753D01*
X153871880Y-87315372D01*
X153900451Y-87362991D01*
X153929022Y-87458229D01*
X153929022Y-87696324D01*
X153900451Y-87791562D01*
X153871880Y-87839181D01*
X153814737Y-87886800D01*
X153671880Y-87886800D01*
X153614737Y-87839181D01*
X153586165Y-87791562D01*
X155697594Y-86886800D02*
X155754737Y-86886800D01*
X155811880Y-86934420D01*
X155840451Y-86982039D01*
X155869022Y-87077277D01*
X155897594Y-87267753D01*
X155897594Y-87505848D01*
X155869022Y-87696324D01*
X155840451Y-87791562D01*
X155811880Y-87839181D01*
X155754737Y-87886800D01*
X155697594Y-87886800D01*
X155640451Y-87839181D01*
X155611880Y-87791562D01*
X155583308Y-87696324D01*
X155554737Y-87505848D01*
X155554737Y-87267753D01*
X155583308Y-87077277D01*
X155611880Y-86982039D01*
X155640451Y-86934420D01*
X155697594Y-86886800D01*
X156411880Y-86886800D02*
X156297594Y-86886800D01*
X156240451Y-86934420D01*
X156211880Y-86982039D01*
X156154737Y-87124896D01*
X156126165Y-87315372D01*
X156126165Y-87696324D01*
X156154737Y-87791562D01*
X156183308Y-87839181D01*
X156240451Y-87886800D01*
X156354737Y-87886800D01*
X156411880Y-87839181D01*
X156440451Y-87791562D01*
X156469022Y-87696324D01*
X156469022Y-87458229D01*
X156440451Y-87362991D01*
X156411880Y-87315372D01*
X156354737Y-87267753D01*
X156240451Y-87267753D01*
X156183308Y-87315372D01*
X156154737Y-87362991D01*
X156126165Y-87458229D01*
X158437594Y-87886800D02*
X158094737Y-87886800D01*
X158266165Y-87886800D02*
X158266165Y-86886800D01*
X158209022Y-87029658D01*
X158151880Y-87124896D01*
X158094737Y-87172515D01*
X158637594Y-86886800D02*
X159009022Y-86886800D01*
X158809022Y-87267753D01*
X158894737Y-87267753D01*
X158951880Y-87315372D01*
X158980451Y-87362991D01*
X159009022Y-87458229D01*
X159009022Y-87696324D01*
X158980451Y-87791562D01*
X158951880Y-87839181D01*
X158894737Y-87886800D01*
X158723308Y-87886800D01*
X158666165Y-87839181D01*
X158637594Y-87791562D01*
X160977594Y-87886800D02*
X160634737Y-87886800D01*
X160806165Y-87886800D02*
X160806165Y-86886800D01*
X160749022Y-87029658D01*
X160691880Y-87124896D01*
X160634737Y-87172515D01*
X161263308Y-87886800D02*
X161377594Y-87886800D01*
X161434737Y-87839181D01*
X161463308Y-87791562D01*
X161520451Y-87648705D01*
X161549022Y-87458229D01*
X161549022Y-87077277D01*
X161520451Y-86982039D01*
X161491880Y-86934420D01*
X161434737Y-86886800D01*
X161320451Y-86886800D01*
X161263308Y-86934420D01*
X161234737Y-86982039D01*
X161206165Y-87077277D01*
X161206165Y-87315372D01*
X161234737Y-87410610D01*
X161263308Y-87458229D01*
X161320451Y-87505848D01*
X161434737Y-87505848D01*
X161491880Y-87458229D01*
X161520451Y-87410610D01*
X161549022Y-87315372D01*
X163174737Y-86982039D02*
X163203308Y-86934420D01*
X163260451Y-86886800D01*
X163403308Y-86886800D01*
X163460451Y-86934420D01*
X163489022Y-86982039D01*
X163517594Y-87077277D01*
X163517594Y-87172515D01*
X163489022Y-87315372D01*
X163146165Y-87886800D01*
X163517594Y-87886800D01*
X164031880Y-86886800D02*
X163917594Y-86886800D01*
X163860451Y-86934420D01*
X163831880Y-86982039D01*
X163774737Y-87124896D01*
X163746165Y-87315372D01*
X163746165Y-87696324D01*
X163774737Y-87791562D01*
X163803308Y-87839181D01*
X163860451Y-87886800D01*
X163974737Y-87886800D01*
X164031880Y-87839181D01*
X164060451Y-87791562D01*
X164089022Y-87696324D01*
X164089022Y-87458229D01*
X164060451Y-87362991D01*
X164031880Y-87315372D01*
X163974737Y-87267753D01*
X163860451Y-87267753D01*
X163803308Y-87315372D01*
X163774737Y-87362991D01*
X163746165Y-87458229D01*
X167526165Y-79631800D02*
X167526165Y-78631800D01*
X167754737Y-78631800D01*
X167811880Y-78679420D01*
X167840451Y-78727039D01*
X167869022Y-78822277D01*
X167869022Y-78965134D01*
X167840451Y-79060372D01*
X167811880Y-79107991D01*
X167754737Y-79155610D01*
X167526165Y-79155610D01*
X168126165Y-79631800D02*
X168126165Y-78631800D01*
X168411880Y-79631800D02*
X168411880Y-78631800D01*
X168754737Y-79631800D01*
X168754737Y-78631800D01*
X169297594Y-78965134D02*
X169297594Y-79631800D01*
X169154737Y-78584181D02*
X169011880Y-79298467D01*
X169383308Y-79298467D01*
X169726165Y-78631800D02*
X169783308Y-78631800D01*
X169840451Y-78679420D01*
X169869022Y-78727039D01*
X169897594Y-78822277D01*
X169926165Y-79012753D01*
X169926165Y-79250848D01*
X169897594Y-79441324D01*
X169869022Y-79536562D01*
X169840451Y-79584181D01*
X169783308Y-79631800D01*
X169726165Y-79631800D01*
X169669022Y-79584181D01*
X169640451Y-79536562D01*
X169611880Y-79441324D01*
X169583308Y-79250848D01*
X169583308Y-79012753D01*
X169611880Y-78822277D01*
X169640451Y-78727039D01*
X169669022Y-78679420D01*
X169726165Y-78631800D01*
X165714737Y-80632039D02*
X165743308Y-80584420D01*
X165800451Y-80536800D01*
X165943308Y-80536800D01*
X166000451Y-80584420D01*
X166029022Y-80632039D01*
X166057594Y-80727277D01*
X166057594Y-80822515D01*
X166029022Y-80965372D01*
X165686165Y-81536800D01*
X166057594Y-81536800D01*
X166629022Y-81536800D02*
X166286165Y-81536800D01*
X166457594Y-81536800D02*
X166457594Y-80536800D01*
X166400451Y-80679658D01*
X166343308Y-80774896D01*
X166286165Y-80822515D01*
X163174737Y-80632039D02*
X163203308Y-80584420D01*
X163260451Y-80536800D01*
X163403308Y-80536800D01*
X163460451Y-80584420D01*
X163489022Y-80632039D01*
X163517594Y-80727277D01*
X163517594Y-80822515D01*
X163489022Y-80965372D01*
X163146165Y-81536800D01*
X163517594Y-81536800D01*
X163889022Y-80536800D02*
X163946165Y-80536800D01*
X164003308Y-80584420D01*
X164031880Y-80632039D01*
X164060451Y-80727277D01*
X164089022Y-80917753D01*
X164089022Y-81155848D01*
X164060451Y-81346324D01*
X164031880Y-81441562D01*
X164003308Y-81489181D01*
X163946165Y-81536800D01*
X163889022Y-81536800D01*
X163831880Y-81489181D01*
X163803308Y-81441562D01*
X163774737Y-81346324D01*
X163746165Y-81155848D01*
X163746165Y-80917753D01*
X163774737Y-80727277D01*
X163803308Y-80632039D01*
X163831880Y-80584420D01*
X163889022Y-80536800D01*
X160977594Y-81536800D02*
X160634737Y-81536800D01*
X160806165Y-81536800D02*
X160806165Y-80536800D01*
X160749022Y-80679658D01*
X160691880Y-80774896D01*
X160634737Y-80822515D01*
X161491880Y-80536800D02*
X161377594Y-80536800D01*
X161320451Y-80584420D01*
X161291880Y-80632039D01*
X161234737Y-80774896D01*
X161206165Y-80965372D01*
X161206165Y-81346324D01*
X161234737Y-81441562D01*
X161263308Y-81489181D01*
X161320451Y-81536800D01*
X161434737Y-81536800D01*
X161491880Y-81489181D01*
X161520451Y-81441562D01*
X161549022Y-81346324D01*
X161549022Y-81108229D01*
X161520451Y-81012991D01*
X161491880Y-80965372D01*
X161434737Y-80917753D01*
X161320451Y-80917753D01*
X161263308Y-80965372D01*
X161234737Y-81012991D01*
X161206165Y-81108229D01*
X155897594Y-81536800D02*
X155554737Y-81536800D01*
X155726165Y-81536800D02*
X155726165Y-80536800D01*
X155669022Y-80679658D01*
X155611880Y-80774896D01*
X155554737Y-80822515D01*
X156126165Y-80632039D02*
X156154737Y-80584420D01*
X156211880Y-80536800D01*
X156354737Y-80536800D01*
X156411880Y-80584420D01*
X156440451Y-80632039D01*
X156469022Y-80727277D01*
X156469022Y-80822515D01*
X156440451Y-80965372D01*
X156097594Y-81536800D01*
X156469022Y-81536800D01*
X145366165Y-81012991D02*
X145166165Y-81012991D01*
X145166165Y-81536800D02*
X145166165Y-80536800D01*
X145451880Y-80536800D01*
X145994737Y-81536800D02*
X145651880Y-81536800D01*
X145823308Y-81536800D02*
X145823308Y-80536800D01*
X145766165Y-80679658D01*
X145709022Y-80774896D01*
X145651880Y-80822515D01*
X146194737Y-80536800D02*
X146566165Y-80536800D01*
X146366165Y-80917753D01*
X146451880Y-80917753D01*
X146509022Y-80965372D01*
X146537594Y-81012991D01*
X146566165Y-81108229D01*
X146566165Y-81346324D01*
X146537594Y-81441562D01*
X146509022Y-81489181D01*
X146451880Y-81536800D01*
X146280451Y-81536800D01*
X146223308Y-81489181D01*
X146194737Y-81441562D01*
X142826165Y-81012991D02*
X142626165Y-81012991D01*
X142626165Y-81536800D02*
X142626165Y-80536800D01*
X142911880Y-80536800D01*
X143454737Y-81536800D02*
X143111880Y-81536800D01*
X143283308Y-81536800D02*
X143283308Y-80536800D01*
X143226165Y-80679658D01*
X143169022Y-80774896D01*
X143111880Y-80822515D01*
X143683308Y-80632039D02*
X143711880Y-80584420D01*
X143769022Y-80536800D01*
X143911880Y-80536800D01*
X143969022Y-80584420D01*
X143997594Y-80632039D01*
X144026165Y-80727277D01*
X144026165Y-80822515D01*
X143997594Y-80965372D01*
X143654737Y-81536800D01*
X144026165Y-81536800D01*
X137746165Y-81012991D02*
X137546165Y-81012991D01*
X137546165Y-81536800D02*
X137546165Y-80536800D01*
X137831880Y-80536800D01*
X138374737Y-81536800D02*
X138031880Y-81536800D01*
X138203308Y-81536800D02*
X138203308Y-80536800D01*
X138146165Y-80679658D01*
X138089022Y-80774896D01*
X138031880Y-80822515D01*
X138946165Y-81536800D02*
X138603308Y-81536800D01*
X138774737Y-81536800D02*
X138774737Y-80536800D01*
X138717594Y-80679658D01*
X138660451Y-80774896D01*
X138603308Y-80822515D01*
X135234737Y-80632039D02*
X135263308Y-80584420D01*
X135320451Y-80536800D01*
X135463308Y-80536800D01*
X135520451Y-80584420D01*
X135549022Y-80632039D01*
X135577594Y-80727277D01*
X135577594Y-80822515D01*
X135549022Y-80965372D01*
X135206165Y-81536800D01*
X135577594Y-81536800D01*
X135777594Y-80536800D02*
X136149022Y-80536800D01*
X135949022Y-80917753D01*
X136034737Y-80917753D01*
X136091880Y-80965372D01*
X136120451Y-81012991D01*
X136149022Y-81108229D01*
X136149022Y-81346324D01*
X136120451Y-81441562D01*
X136091880Y-81489181D01*
X136034737Y-81536800D01*
X135863308Y-81536800D01*
X135806165Y-81489181D01*
X135777594Y-81441562D01*
X130497594Y-81536800D02*
X130154737Y-81536800D01*
X130326165Y-81536800D02*
X130326165Y-80536800D01*
X130269022Y-80679658D01*
X130211880Y-80774896D01*
X130154737Y-80822515D01*
X130840451Y-80965372D02*
X130783308Y-80917753D01*
X130754737Y-80870134D01*
X130726165Y-80774896D01*
X130726165Y-80727277D01*
X130754737Y-80632039D01*
X130783308Y-80584420D01*
X130840451Y-80536800D01*
X130954737Y-80536800D01*
X131011880Y-80584420D01*
X131040451Y-80632039D01*
X131069022Y-80727277D01*
X131069022Y-80774896D01*
X131040451Y-80870134D01*
X131011880Y-80917753D01*
X130954737Y-80965372D01*
X130840451Y-80965372D01*
X130783308Y-81012991D01*
X130754737Y-81060610D01*
X130726165Y-81155848D01*
X130726165Y-81346324D01*
X130754737Y-81441562D01*
X130783308Y-81489181D01*
X130840451Y-81536800D01*
X130954737Y-81536800D01*
X131011880Y-81489181D01*
X131040451Y-81441562D01*
X131069022Y-81346324D01*
X131069022Y-81155848D01*
X131040451Y-81060610D01*
X131011880Y-81012991D01*
X130954737Y-80965372D01*
X127614737Y-80536800D02*
X127957594Y-80536800D01*
X127786165Y-81536800D02*
X127786165Y-80536800D01*
X128100451Y-80536800D02*
X128500451Y-81536800D01*
X128500451Y-80536800D02*
X128100451Y-81536800D01*
X125431880Y-81536800D02*
X125231880Y-81060610D01*
X125089022Y-81536800D02*
X125089022Y-80536800D01*
X125317594Y-80536800D01*
X125374737Y-80584420D01*
X125403308Y-80632039D01*
X125431880Y-80727277D01*
X125431880Y-80870134D01*
X125403308Y-80965372D01*
X125374737Y-81012991D01*
X125317594Y-81060610D01*
X125089022Y-81060610D01*
X125631880Y-80536800D02*
X126031880Y-81536800D01*
X126031880Y-80536800D02*
X125631880Y-81536800D01*
X120366165Y-80536800D02*
X120080451Y-80536800D01*
X120051880Y-81012991D01*
X120080451Y-80965372D01*
X120137594Y-80917753D01*
X120280451Y-80917753D01*
X120337594Y-80965372D01*
X120366165Y-81012991D01*
X120394737Y-81108229D01*
X120394737Y-81346324D01*
X120366165Y-81441562D01*
X120337594Y-81489181D01*
X120280451Y-81536800D01*
X120137594Y-81536800D01*
X120080451Y-81489181D01*
X120051880Y-81441562D01*
X120594737Y-80870134D02*
X120737594Y-81536800D01*
X120880451Y-80870134D01*
X117826165Y-80536800D02*
X117540451Y-80536800D01*
X117511880Y-81012991D01*
X117540451Y-80965372D01*
X117597594Y-80917753D01*
X117740451Y-80917753D01*
X117797594Y-80965372D01*
X117826165Y-81012991D01*
X117854737Y-81108229D01*
X117854737Y-81346324D01*
X117826165Y-81441562D01*
X117797594Y-81489181D01*
X117740451Y-81536800D01*
X117597594Y-81536800D01*
X117540451Y-81489181D01*
X117511880Y-81441562D01*
X118054737Y-80870134D02*
X118197594Y-81536800D01*
X118340451Y-80870134D01*
X117283308Y-86886800D02*
X117654737Y-86886800D01*
X117454737Y-87267753D01*
X117540451Y-87267753D01*
X117597594Y-87315372D01*
X117626165Y-87362991D01*
X117654737Y-87458229D01*
X117654737Y-87696324D01*
X117626165Y-87791562D01*
X117597594Y-87839181D01*
X117540451Y-87886800D01*
X117369022Y-87886800D01*
X117311880Y-87839181D01*
X117283308Y-87791562D01*
X117911880Y-87791562D02*
X117940451Y-87839181D01*
X117911880Y-87886800D01*
X117883308Y-87839181D01*
X117911880Y-87791562D01*
X117911880Y-87886800D01*
X118140451Y-86886800D02*
X118511880Y-86886800D01*
X118311880Y-87267753D01*
X118397594Y-87267753D01*
X118454737Y-87315372D01*
X118483308Y-87362991D01*
X118511880Y-87458229D01*
X118511880Y-87696324D01*
X118483308Y-87791562D01*
X118454737Y-87839181D01*
X118397594Y-87886800D01*
X118226165Y-87886800D01*
X118169022Y-87839181D01*
X118140451Y-87791562D01*
X137603308Y-86886800D02*
X137974737Y-86886800D01*
X137774737Y-87267753D01*
X137860451Y-87267753D01*
X137917594Y-87315372D01*
X137946165Y-87362991D01*
X137974737Y-87458229D01*
X137974737Y-87696324D01*
X137946165Y-87791562D01*
X137917594Y-87839181D01*
X137860451Y-87886800D01*
X137689022Y-87886800D01*
X137631880Y-87839181D01*
X137603308Y-87791562D01*
X138231880Y-87791562D02*
X138260451Y-87839181D01*
X138231880Y-87886800D01*
X138203308Y-87839181D01*
X138231880Y-87791562D01*
X138231880Y-87886800D01*
X138460451Y-86886800D02*
X138831880Y-86886800D01*
X138631880Y-87267753D01*
X138717594Y-87267753D01*
X138774737Y-87315372D01*
X138803308Y-87362991D01*
X138831880Y-87458229D01*
X138831880Y-87696324D01*
X138803308Y-87791562D01*
X138774737Y-87839181D01*
X138717594Y-87886800D01*
X138546165Y-87886800D01*
X138489022Y-87839181D01*
X138460451Y-87791562D01*
X147934737Y-86934420D02*
X147877594Y-86886800D01*
X147791880Y-86886800D01*
X147706165Y-86934420D01*
X147649022Y-87029658D01*
X147620451Y-87124896D01*
X147591880Y-87315372D01*
X147591880Y-87458229D01*
X147620451Y-87648705D01*
X147649022Y-87743943D01*
X147706165Y-87839181D01*
X147791880Y-87886800D01*
X147849022Y-87886800D01*
X147934737Y-87839181D01*
X147963308Y-87791562D01*
X147963308Y-87458229D01*
X147849022Y-87458229D01*
X148220451Y-87886800D02*
X148220451Y-86886800D01*
X148563308Y-87886800D01*
X148563308Y-86886800D01*
X148849022Y-87886800D02*
X148849022Y-86886800D01*
X148991880Y-86886800D01*
X149077594Y-86934420D01*
X149134737Y-87029658D01*
X149163308Y-87124896D01*
X149191880Y-87315372D01*
X149191880Y-87458229D01*
X149163308Y-87648705D01*
X149134737Y-87743943D01*
X149077594Y-87839181D01*
X148991880Y-87886800D01*
X148849022Y-87886800D01*
X165714737Y-86934420D02*
X165657594Y-86886800D01*
X165571880Y-86886800D01*
X165486165Y-86934420D01*
X165429022Y-87029658D01*
X165400451Y-87124896D01*
X165371880Y-87315372D01*
X165371880Y-87458229D01*
X165400451Y-87648705D01*
X165429022Y-87743943D01*
X165486165Y-87839181D01*
X165571880Y-87886800D01*
X165629022Y-87886800D01*
X165714737Y-87839181D01*
X165743308Y-87791562D01*
X165743308Y-87458229D01*
X165629022Y-87458229D01*
X166000451Y-87886800D02*
X166000451Y-86886800D01*
X166343308Y-87886800D01*
X166343308Y-86886800D01*
X166629022Y-87886800D02*
X166629022Y-86886800D01*
X166771880Y-86886800D01*
X166857594Y-86934420D01*
X166914737Y-87029658D01*
X166943308Y-87124896D01*
X166971880Y-87315372D01*
X166971880Y-87458229D01*
X166943308Y-87648705D01*
X166914737Y-87743943D01*
X166857594Y-87839181D01*
X166771880Y-87886800D01*
X166629022Y-87886800D01*
X127614737Y-86934420D02*
X127557594Y-86886800D01*
X127471880Y-86886800D01*
X127386165Y-86934420D01*
X127329022Y-87029658D01*
X127300451Y-87124896D01*
X127271880Y-87315372D01*
X127271880Y-87458229D01*
X127300451Y-87648705D01*
X127329022Y-87743943D01*
X127386165Y-87839181D01*
X127471880Y-87886800D01*
X127529022Y-87886800D01*
X127614737Y-87839181D01*
X127643308Y-87791562D01*
X127643308Y-87458229D01*
X127529022Y-87458229D01*
X127900451Y-87886800D02*
X127900451Y-86886800D01*
X128243308Y-87886800D01*
X128243308Y-86886800D01*
X128529022Y-87886800D02*
X128529022Y-86886800D01*
X128671880Y-86886800D01*
X128757594Y-86934420D01*
X128814737Y-87029658D01*
X128843308Y-87124896D01*
X128871880Y-87315372D01*
X128871880Y-87458229D01*
X128843308Y-87648705D01*
X128814737Y-87743943D01*
X128757594Y-87839181D01*
X128671880Y-87886800D01*
X128529022Y-87886800D01*
X158094737Y-80584420D02*
X158037594Y-80536800D01*
X157951880Y-80536800D01*
X157866165Y-80584420D01*
X157809022Y-80679658D01*
X157780451Y-80774896D01*
X157751880Y-80965372D01*
X157751880Y-81108229D01*
X157780451Y-81298705D01*
X157809022Y-81393943D01*
X157866165Y-81489181D01*
X157951880Y-81536800D01*
X158009022Y-81536800D01*
X158094737Y-81489181D01*
X158123308Y-81441562D01*
X158123308Y-81108229D01*
X158009022Y-81108229D01*
X158380451Y-81536800D02*
X158380451Y-80536800D01*
X158723308Y-81536800D01*
X158723308Y-80536800D01*
X159009022Y-81536800D02*
X159009022Y-80536800D01*
X159151880Y-80536800D01*
X159237594Y-80584420D01*
X159294737Y-80679658D01*
X159323308Y-80774896D01*
X159351880Y-80965372D01*
X159351880Y-81108229D01*
X159323308Y-81298705D01*
X159294737Y-81393943D01*
X159237594Y-81489181D01*
X159151880Y-81536800D01*
X159009022Y-81536800D01*
X153014737Y-80584420D02*
X152957594Y-80536800D01*
X152871880Y-80536800D01*
X152786165Y-80584420D01*
X152729022Y-80679658D01*
X152700451Y-80774896D01*
X152671880Y-80965372D01*
X152671880Y-81108229D01*
X152700451Y-81298705D01*
X152729022Y-81393943D01*
X152786165Y-81489181D01*
X152871880Y-81536800D01*
X152929022Y-81536800D01*
X153014737Y-81489181D01*
X153043308Y-81441562D01*
X153043308Y-81108229D01*
X152929022Y-81108229D01*
X153300451Y-81536800D02*
X153300451Y-80536800D01*
X153643308Y-81536800D01*
X153643308Y-80536800D01*
X153929022Y-81536800D02*
X153929022Y-80536800D01*
X154071880Y-80536800D01*
X154157594Y-80584420D01*
X154214737Y-80679658D01*
X154243308Y-80774896D01*
X154271880Y-80965372D01*
X154271880Y-81108229D01*
X154243308Y-81298705D01*
X154214737Y-81393943D01*
X154157594Y-81489181D01*
X154071880Y-81536800D01*
X153929022Y-81536800D01*
X140314737Y-80584420D02*
X140257594Y-80536800D01*
X140171880Y-80536800D01*
X140086165Y-80584420D01*
X140029022Y-80679658D01*
X140000451Y-80774896D01*
X139971880Y-80965372D01*
X139971880Y-81108229D01*
X140000451Y-81298705D01*
X140029022Y-81393943D01*
X140086165Y-81489181D01*
X140171880Y-81536800D01*
X140229022Y-81536800D01*
X140314737Y-81489181D01*
X140343308Y-81441562D01*
X140343308Y-81108229D01*
X140229022Y-81108229D01*
X140600451Y-81536800D02*
X140600451Y-80536800D01*
X140943308Y-81536800D01*
X140943308Y-80536800D01*
X141229022Y-81536800D02*
X141229022Y-80536800D01*
X141371880Y-80536800D01*
X141457594Y-80584420D01*
X141514737Y-80679658D01*
X141543308Y-80774896D01*
X141571880Y-80965372D01*
X141571880Y-81108229D01*
X141543308Y-81298705D01*
X141514737Y-81393943D01*
X141457594Y-81489181D01*
X141371880Y-81536800D01*
X141229022Y-81536800D01*
X132694737Y-80584420D02*
X132637594Y-80536800D01*
X132551880Y-80536800D01*
X132466165Y-80584420D01*
X132409022Y-80679658D01*
X132380451Y-80774896D01*
X132351880Y-80965372D01*
X132351880Y-81108229D01*
X132380451Y-81298705D01*
X132409022Y-81393943D01*
X132466165Y-81489181D01*
X132551880Y-81536800D01*
X132609022Y-81536800D01*
X132694737Y-81489181D01*
X132723308Y-81441562D01*
X132723308Y-81108229D01*
X132609022Y-81108229D01*
X132980451Y-81536800D02*
X132980451Y-80536800D01*
X133323308Y-81536800D01*
X133323308Y-80536800D01*
X133609022Y-81536800D02*
X133609022Y-80536800D01*
X133751880Y-80536800D01*
X133837594Y-80584420D01*
X133894737Y-80679658D01*
X133923308Y-80774896D01*
X133951880Y-80965372D01*
X133951880Y-81108229D01*
X133923308Y-81298705D01*
X133894737Y-81393943D01*
X133837594Y-81489181D01*
X133751880Y-81536800D01*
X133609022Y-81536800D01*
X122534737Y-80584420D02*
X122477594Y-80536800D01*
X122391880Y-80536800D01*
X122306165Y-80584420D01*
X122249022Y-80679658D01*
X122220451Y-80774896D01*
X122191880Y-80965372D01*
X122191880Y-81108229D01*
X122220451Y-81298705D01*
X122249022Y-81393943D01*
X122306165Y-81489181D01*
X122391880Y-81536800D01*
X122449022Y-81536800D01*
X122534737Y-81489181D01*
X122563308Y-81441562D01*
X122563308Y-81108229D01*
X122449022Y-81108229D01*
X122820451Y-81536800D02*
X122820451Y-80536800D01*
X123163308Y-81536800D01*
X123163308Y-80536800D01*
X123449022Y-81536800D02*
X123449022Y-80536800D01*
X123591880Y-80536800D01*
X123677594Y-80584420D01*
X123734737Y-80679658D01*
X123763308Y-80774896D01*
X123791880Y-80965372D01*
X123791880Y-81108229D01*
X123763308Y-81298705D01*
X123734737Y-81393943D01*
X123677594Y-81489181D01*
X123591880Y-81536800D01*
X123449022Y-81536800D01*
X146018546Y-71638705D02*
X146018546Y-71162515D01*
X146304260Y-71733943D02*
X145304260Y-71400610D01*
X146304260Y-71067277D01*
X145304260Y-70257753D02*
X145304260Y-70733943D01*
X145780451Y-70781562D01*
X145732832Y-70733943D01*
X145685213Y-70638705D01*
X145685213Y-70400610D01*
X145732832Y-70305372D01*
X145780451Y-70257753D01*
X145875689Y-70210134D01*
X146113784Y-70210134D01*
X146209022Y-70257753D01*
X146256641Y-70305372D01*
X146304260Y-70400610D01*
X146304260Y-70638705D01*
X146256641Y-70733943D01*
X146209022Y-70781562D01*
X143478546Y-71638705D02*
X143478546Y-71162515D01*
X143764260Y-71733943D02*
X142764260Y-71400610D01*
X143764260Y-71067277D01*
X143097594Y-70305372D02*
X143764260Y-70305372D01*
X142716641Y-70543467D02*
X143430927Y-70781562D01*
X143430927Y-70162515D01*
X140938546Y-71638705D02*
X140938546Y-71162515D01*
X141224260Y-71733943D02*
X140224260Y-71400610D01*
X141224260Y-71067277D01*
X140224260Y-70829181D02*
X140224260Y-70210134D01*
X140605213Y-70543467D01*
X140605213Y-70400610D01*
X140652832Y-70305372D01*
X140700451Y-70257753D01*
X140795689Y-70210134D01*
X141033784Y-70210134D01*
X141129022Y-70257753D01*
X141176641Y-70305372D01*
X141224260Y-70400610D01*
X141224260Y-70686324D01*
X141176641Y-70781562D01*
X141129022Y-70829181D01*
X138398546Y-71638705D02*
X138398546Y-71162515D01*
X138684260Y-71733943D02*
X137684260Y-71400610D01*
X138684260Y-71067277D01*
X137779499Y-70781562D02*
X137731880Y-70733943D01*
X137684260Y-70638705D01*
X137684260Y-70400610D01*
X137731880Y-70305372D01*
X137779499Y-70257753D01*
X137874737Y-70210134D01*
X137969975Y-70210134D01*
X138112832Y-70257753D01*
X138684260Y-70829181D01*
X138684260Y-70210134D01*
X135858546Y-71638705D02*
X135858546Y-71162515D01*
X136144260Y-71733943D02*
X135144260Y-71400610D01*
X136144260Y-71067277D01*
X136144260Y-70210134D02*
X136144260Y-70781562D01*
X136144260Y-70495848D02*
X135144260Y-70495848D01*
X135287118Y-70591086D01*
X135382356Y-70686324D01*
X135429975Y-70781562D01*
X133318546Y-71638705D02*
X133318546Y-71162515D01*
X133604260Y-71733943D02*
X132604260Y-71400610D01*
X133604260Y-71067277D01*
X132604260Y-70543467D02*
X132604260Y-70448229D01*
X132651880Y-70352991D01*
X132699499Y-70305372D01*
X132794737Y-70257753D01*
X132985213Y-70210134D01*
X133223308Y-70210134D01*
X133413784Y-70257753D01*
X133509022Y-70305372D01*
X133556641Y-70352991D01*
X133604260Y-70448229D01*
X133604260Y-70543467D01*
X133556641Y-70638705D01*
X133509022Y-70686324D01*
X133413784Y-70733943D01*
X133223308Y-70781562D01*
X132985213Y-70781562D01*
X132794737Y-70733943D01*
X132699499Y-70686324D01*
X132651880Y-70638705D01*
X132604260Y-70543467D01*
X124984260Y-71638705D02*
X124984260Y-71019658D01*
X125365213Y-71352991D01*
X125365213Y-71210134D01*
X125412832Y-71114896D01*
X125460451Y-71067277D01*
X125555689Y-71019658D01*
X125793784Y-71019658D01*
X125889022Y-71067277D01*
X125936641Y-71114896D01*
X125984260Y-71210134D01*
X125984260Y-71495848D01*
X125936641Y-71591086D01*
X125889022Y-71638705D01*
X125317594Y-70686324D02*
X125984260Y-70448229D01*
X125317594Y-70210134D01*
X130111880Y-71686324D02*
X130064260Y-71781562D01*
X130064260Y-71924420D01*
X130111880Y-72067277D01*
X130207118Y-72162515D01*
X130302356Y-72210134D01*
X130492832Y-72257753D01*
X130635689Y-72257753D01*
X130826165Y-72210134D01*
X130921403Y-72162515D01*
X131016641Y-72067277D01*
X131064260Y-71924420D01*
X131064260Y-71829181D01*
X131016641Y-71686324D01*
X130969022Y-71638705D01*
X130635689Y-71638705D01*
X130635689Y-71829181D01*
X131064260Y-71210134D02*
X130064260Y-71210134D01*
X131064260Y-70638705D01*
X130064260Y-70638705D01*
X131064260Y-70162515D02*
X130064260Y-70162515D01*
X130064260Y-69924420D01*
X130111880Y-69781562D01*
X130207118Y-69686324D01*
X130302356Y-69638705D01*
X130492832Y-69591086D01*
X130635689Y-69591086D01*
X130826165Y-69638705D01*
X130921403Y-69686324D01*
X131016641Y-69781562D01*
X131064260Y-69924420D01*
X131064260Y-70162515D01*
X148796641Y-71829134D02*
X148844260Y-71686277D01*
X148844260Y-71448181D01*
X148796641Y-71352943D01*
X148749022Y-71305324D01*
X148653784Y-71257705D01*
X148558546Y-71257705D01*
X148463308Y-71305324D01*
X148415689Y-71352943D01*
X148368070Y-71448181D01*
X148320451Y-71638658D01*
X148272832Y-71733896D01*
X148225213Y-71781515D01*
X148129975Y-71829134D01*
X148034737Y-71829134D01*
X147939499Y-71781515D01*
X147891880Y-71733896D01*
X147844260Y-71638658D01*
X147844260Y-71400562D01*
X147891880Y-71257705D01*
X148749022Y-70257705D02*
X148796641Y-70305324D01*
X148844260Y-70448181D01*
X148844260Y-70543420D01*
X148796641Y-70686277D01*
X148701403Y-70781515D01*
X148606165Y-70829134D01*
X148415689Y-70876753D01*
X148272832Y-70876753D01*
X148082356Y-70829134D01*
X147987118Y-70781515D01*
X147891880Y-70686277D01*
X147844260Y-70543420D01*
X147844260Y-70448181D01*
X147891880Y-70305324D01*
X147939499Y-70257705D01*
X148844260Y-69829134D02*
X147844260Y-69829134D01*
X148844260Y-69257705D02*
X148272832Y-69686277D01*
X147844260Y-69257705D02*
X148415689Y-69829134D01*
X150074737Y-70487800D02*
X150074737Y-69487800D01*
X150408070Y-70202086D01*
X150741403Y-69487800D01*
X150741403Y-70487800D01*
X151408070Y-69487800D02*
X151598546Y-69487800D01*
X151693784Y-69535420D01*
X151789022Y-69630658D01*
X151836641Y-69821134D01*
X151836641Y-70154467D01*
X151789022Y-70344943D01*
X151693784Y-70440181D01*
X151598546Y-70487800D01*
X151408070Y-70487800D01*
X151312832Y-70440181D01*
X151217594Y-70344943D01*
X151169975Y-70154467D01*
X151169975Y-69821134D01*
X151217594Y-69630658D01*
X151312832Y-69535420D01*
X151408070Y-69487800D01*
X152900451Y-70487800D02*
X152900451Y-69487800D01*
X153233784Y-70202086D01*
X153567118Y-69487800D01*
X153567118Y-70487800D01*
X154043308Y-70487800D02*
X154043308Y-69487800D01*
X155845213Y-70487800D02*
X155511880Y-70011610D01*
X155273784Y-70487800D02*
X155273784Y-69487800D01*
X155654737Y-69487800D01*
X155749975Y-69535420D01*
X155797594Y-69583039D01*
X155845213Y-69678277D01*
X155845213Y-69821134D01*
X155797594Y-69916372D01*
X155749975Y-69963991D01*
X155654737Y-70011610D01*
X155273784Y-70011610D01*
X156178546Y-69487800D02*
X156845213Y-70487800D01*
X156845213Y-69487800D02*
X156178546Y-70487800D01*
X157789975Y-69487800D02*
X158361403Y-69487800D01*
X158075689Y-70487800D02*
X158075689Y-69487800D01*
X158599499Y-69487800D02*
X159266165Y-70487800D01*
X159266165Y-69487800D02*
X158599499Y-70487800D01*
X136969975Y-44595800D02*
X136969975Y-45405324D01*
X137017594Y-45500562D01*
X137065213Y-45548181D01*
X137160451Y-45595800D01*
X137350927Y-45595800D01*
X137446165Y-45548181D01*
X137493784Y-45500562D01*
X137541403Y-45405324D01*
X137541403Y-44595800D01*
X137969975Y-45548181D02*
X138112832Y-45595800D01*
X138350927Y-45595800D01*
X138446165Y-45548181D01*
X138493784Y-45500562D01*
X138541403Y-45405324D01*
X138541403Y-45310086D01*
X138493784Y-45214848D01*
X138446165Y-45167229D01*
X138350927Y-45119610D01*
X138160451Y-45071991D01*
X138065213Y-45024372D01*
X138017594Y-44976753D01*
X137969975Y-44881515D01*
X137969975Y-44786277D01*
X138017594Y-44691039D01*
X138065213Y-44643420D01*
X138160451Y-44595800D01*
X138398546Y-44595800D01*
X138541403Y-44643420D01*
X139303308Y-45071991D02*
X139446165Y-45119610D01*
X139493784Y-45167229D01*
X139541403Y-45262467D01*
X139541403Y-45405324D01*
X139493784Y-45500562D01*
X139446165Y-45548181D01*
X139350927Y-45595800D01*
X138969975Y-45595800D01*
X138969975Y-44595800D01*
X139303308Y-44595800D01*
X139398546Y-44643420D01*
X139446165Y-44691039D01*
X139493784Y-44786277D01*
X139493784Y-44881515D01*
X139446165Y-44976753D01*
X139398546Y-45024372D01*
X139303308Y-45071991D01*
X138969975Y-45071991D01*
X157361403Y-45548181D02*
X157504260Y-45595800D01*
X157742356Y-45595800D01*
X157837594Y-45548181D01*
X157885213Y-45500562D01*
X157932832Y-45405324D01*
X157932832Y-45310086D01*
X157885213Y-45214848D01*
X157837594Y-45167229D01*
X157742356Y-45119610D01*
X157551880Y-45071991D01*
X157456641Y-45024372D01*
X157409022Y-44976753D01*
X157361403Y-44881515D01*
X157361403Y-44786277D01*
X157409022Y-44691039D01*
X157456641Y-44643420D01*
X157551880Y-44595800D01*
X157789975Y-44595800D01*
X157932832Y-44643420D01*
X158932832Y-45500562D02*
X158885213Y-45548181D01*
X158742356Y-45595800D01*
X158647118Y-45595800D01*
X158504260Y-45548181D01*
X158409022Y-45452943D01*
X158361403Y-45357705D01*
X158313784Y-45167229D01*
X158313784Y-45024372D01*
X158361403Y-44833896D01*
X158409022Y-44738658D01*
X158504260Y-44643420D01*
X158647118Y-44595800D01*
X158742356Y-44595800D01*
X158885213Y-44643420D01*
X158932832Y-44691039D01*
X159837594Y-45595800D02*
X159361403Y-45595800D01*
X159361403Y-44595800D01*
X160893594Y-45548181D02*
X161036451Y-45595800D01*
X161274546Y-45595800D01*
X161369784Y-45548181D01*
X161417403Y-45500562D01*
X161465022Y-45405324D01*
X161465022Y-45310086D01*
X161417403Y-45214848D01*
X161369784Y-45167229D01*
X161274546Y-45119610D01*
X161084070Y-45071991D01*
X160988832Y-45024372D01*
X160941213Y-44976753D01*
X160893594Y-44881515D01*
X160893594Y-44786277D01*
X160941213Y-44691039D01*
X160988832Y-44643420D01*
X161084070Y-44595800D01*
X161322165Y-44595800D01*
X161465022Y-44643420D01*
X161893594Y-45595800D02*
X161893594Y-44595800D01*
X162131689Y-44595800D01*
X162274546Y-44643420D01*
X162369784Y-44738658D01*
X162417403Y-44833896D01*
X162465022Y-45024372D01*
X162465022Y-45167229D01*
X162417403Y-45357705D01*
X162369784Y-45452943D01*
X162274546Y-45548181D01*
X162131689Y-45595800D01*
X161893594Y-45595800D01*
X162845975Y-45310086D02*
X163322165Y-45310086D01*
X162750737Y-45595800D02*
X163084070Y-44595800D01*
X163417403Y-45595800D01*
X123444260Y-71472039D02*
X122968070Y-71805372D01*
X123444260Y-72043467D02*
X122444260Y-72043467D01*
X122444260Y-71662515D01*
X122491880Y-71567277D01*
X122539499Y-71519658D01*
X122634737Y-71472039D01*
X122777594Y-71472039D01*
X122872832Y-71519658D01*
X122920451Y-71567277D01*
X122968070Y-71662515D01*
X122968070Y-72043467D01*
X123396641Y-71091086D02*
X123444260Y-70948229D01*
X123444260Y-70710134D01*
X123396641Y-70614896D01*
X123349022Y-70567277D01*
X123253784Y-70519658D01*
X123158546Y-70519658D01*
X123063308Y-70567277D01*
X123015689Y-70614896D01*
X122968070Y-70710134D01*
X122920451Y-70900610D01*
X122872832Y-70995848D01*
X122825213Y-71043467D01*
X122729975Y-71091086D01*
X122634737Y-71091086D01*
X122539499Y-71043467D01*
X122491880Y-70995848D01*
X122444260Y-70900610D01*
X122444260Y-70662515D01*
X122491880Y-70519658D01*
X122444260Y-70233943D02*
X122444260Y-69662515D01*
X123444260Y-69948229D02*
X122444260Y-69948229D01*
X131977213Y-45071991D02*
X132120070Y-45119610D01*
X132167689Y-45167229D01*
X132215308Y-45262467D01*
X132215308Y-45405324D01*
X132167689Y-45500562D01*
X132120070Y-45548181D01*
X132024832Y-45595800D01*
X131643880Y-45595800D01*
X131643880Y-44595800D01*
X131977213Y-44595800D01*
X132072451Y-44643420D01*
X132120070Y-44691039D01*
X132167689Y-44786277D01*
X132167689Y-44881515D01*
X132120070Y-44976753D01*
X132072451Y-45024372D01*
X131977213Y-45071991D01*
X131643880Y-45071991D01*
X133072451Y-45595800D02*
X133072451Y-45071991D01*
X133024832Y-44976753D01*
X132929594Y-44929134D01*
X132739118Y-44929134D01*
X132643880Y-44976753D01*
X133072451Y-45548181D02*
X132977213Y-45595800D01*
X132739118Y-45595800D01*
X132643880Y-45548181D01*
X132596260Y-45452943D01*
X132596260Y-45357705D01*
X132643880Y-45262467D01*
X132739118Y-45214848D01*
X132977213Y-45214848D01*
X133072451Y-45167229D01*
X133405784Y-44929134D02*
X133786737Y-44929134D01*
X133548641Y-44595800D02*
X133548641Y-45452943D01*
X133596260Y-45548181D01*
X133691499Y-45595800D01*
X133786737Y-45595800D01*
D12*
%TO.C,REF\u002A\u002A*%
X128071880Y-57589420D02*
X128070974Y-57365072D01*
X128070974Y-57365072D02*
X128068378Y-57154694D01*
X128068378Y-57154694D02*
X128063033Y-56918497D01*
X128063033Y-56918497D02*
X128054009Y-56686403D01*
X128054009Y-56686403D02*
X128036415Y-56476198D01*
X128036415Y-56476198D02*
X128027501Y-56447951D01*
X128027501Y-56447951D02*
X127822204Y-56501316D01*
X127822204Y-56501316D02*
X127634223Y-56607985D01*
X127634223Y-56607985D02*
X127460008Y-56737674D01*
X127460008Y-56737674D02*
X127408485Y-56786631D01*
X142797965Y-54080074D02*
X142931871Y-54234409D01*
X142931871Y-54234409D02*
X143039852Y-54424663D01*
X143039852Y-54424663D02*
X143103555Y-54639389D01*
X143103555Y-54639389D02*
X143126074Y-54855288D01*
X143126074Y-54855288D02*
X143127207Y-54922782D01*
X127062836Y-57563323D02*
X127107297Y-57769527D01*
X127107297Y-57769527D02*
X127142209Y-57893296D01*
X128651742Y-59927037D02*
X128743524Y-59719984D01*
X128743524Y-59719984D02*
X128767268Y-59477027D01*
X128767268Y-59477027D02*
X128784106Y-59241653D01*
X128784106Y-59241653D02*
X128798152Y-59020478D01*
X128798152Y-59020478D02*
X128808485Y-58849756D01*
X128808485Y-58849756D02*
X128822368Y-58621409D01*
X128822368Y-58621409D02*
X128837162Y-58385293D01*
X128837162Y-58385293D02*
X128852409Y-58148226D01*
X128852409Y-58148226D02*
X128867655Y-57917027D01*
X128867655Y-57917027D02*
X128882445Y-57698515D01*
X128882445Y-57698515D02*
X128899595Y-57453603D01*
X128899595Y-57453603D02*
X128914431Y-57252486D01*
X128914431Y-57252486D02*
X128919519Y-57187286D01*
X139055012Y-61487937D02*
X138942497Y-61317198D01*
X138942497Y-61317198D02*
X138895080Y-61257028D01*
X128919519Y-57187286D02*
X128934940Y-56981936D01*
X128934940Y-56981936D02*
X128948771Y-56782014D01*
X128948771Y-56782014D02*
X128962793Y-56566935D01*
X128962793Y-56566935D02*
X128976351Y-56347034D01*
X128976351Y-56347034D02*
X128988790Y-56132647D01*
X128988790Y-56132647D02*
X129001316Y-55897210D01*
X129001316Y-55897210D02*
X129036452Y-55192322D01*
X129036452Y-55192322D02*
X128850224Y-55192322D01*
X143127207Y-54922782D02*
X143127207Y-55225422D01*
X141202715Y-61216569D02*
X141080816Y-61378904D01*
X141080816Y-61378904D02*
X141076122Y-61388673D01*
X141076122Y-61388673D02*
X140968309Y-61558057D01*
X140968309Y-61558057D02*
X140816112Y-61719154D01*
X140816112Y-61719154D02*
X140635697Y-61858604D01*
X140635697Y-61858604D02*
X140443232Y-61963046D01*
X140443232Y-61963046D02*
X140334063Y-62001870D01*
X138610200Y-61397578D02*
X138339295Y-61538128D01*
X143990482Y-58115750D02*
X144122700Y-58296407D01*
X144122700Y-58296407D02*
X144212942Y-58481651D01*
X144212942Y-58481651D02*
X144265894Y-58706904D01*
X144265894Y-58706904D02*
X144267047Y-58910668D01*
X144267047Y-58910668D02*
X144227939Y-59126941D01*
X144227939Y-59126941D02*
X144217545Y-59164379D01*
X133364038Y-60542980D02*
X133175979Y-60445493D01*
X133175979Y-60445493D02*
X132981445Y-60377402D01*
X132981445Y-60377402D02*
X132756593Y-60322094D01*
X132756593Y-60322094D02*
X132557442Y-60287571D01*
X132557442Y-60287571D02*
X132343275Y-60262122D01*
X132343275Y-60262122D02*
X132116042Y-60246146D01*
X132116042Y-60246146D02*
X131877694Y-60240039D01*
X127704059Y-58599395D02*
X127902108Y-58693018D01*
X127902108Y-58693018D02*
X128051342Y-58545504D01*
X128051342Y-58545504D02*
X128068105Y-58299140D01*
X128068105Y-58299140D02*
X128071343Y-58082627D01*
X128071343Y-58082627D02*
X128071944Y-57807792D01*
X128071944Y-57807792D02*
X128071880Y-57589420D01*
X140334063Y-62001870D02*
X140106727Y-62040291D01*
X140106727Y-62040291D02*
X139880157Y-62030959D01*
X139880157Y-62030959D02*
X139660772Y-61976451D01*
X139660772Y-61976451D02*
X139454990Y-61879348D01*
X139454990Y-61879348D02*
X139269227Y-61742226D01*
X139269227Y-61742226D02*
X139109901Y-61567666D01*
X139109901Y-61567666D02*
X139055012Y-61487937D01*
X130652247Y-59992555D02*
X130516953Y-59857261D01*
X128071879Y-59318314D02*
X128062665Y-59102529D01*
X128062665Y-59102529D02*
X127979977Y-58916713D01*
X127979977Y-58916713D02*
X127802657Y-58845321D01*
X140783326Y-62685148D02*
X140969537Y-62605082D01*
X140969537Y-62605082D02*
X141013886Y-62482551D01*
X127408485Y-56786631D02*
X127286294Y-56966750D01*
X127286294Y-56966750D02*
X127189039Y-57162930D01*
X127189039Y-57162930D02*
X127109631Y-57363722D01*
X127109631Y-57363722D02*
X127062836Y-57563323D01*
X127142209Y-57893296D02*
X127142209Y-57893296D01*
X138339295Y-62273663D02*
X138339295Y-62691978D01*
X135817929Y-62683154D02*
X135599611Y-62570358D01*
X135599611Y-62570358D02*
X135400866Y-62460289D01*
X135400866Y-62460289D02*
X135218099Y-62350053D01*
X135218099Y-62350053D02*
X135047717Y-62236755D01*
X135047717Y-62236755D02*
X134886125Y-62117502D01*
X134886125Y-62117502D02*
X134729728Y-61989399D01*
X134729728Y-61989399D02*
X134574933Y-61849552D01*
X134574933Y-61849552D02*
X134418143Y-61695067D01*
X134418143Y-61695067D02*
X134255767Y-61523050D01*
X134255767Y-61523050D02*
X134084207Y-61330605D01*
X134084207Y-61330605D02*
X133962959Y-61189532D01*
X141514441Y-63485003D02*
X141340960Y-63366007D01*
X141340960Y-63366007D02*
X141194006Y-63226485D01*
X141194006Y-63226485D02*
X141070792Y-63060779D01*
X141070792Y-63060779D02*
X141052446Y-63000490D01*
X128309308Y-59710437D02*
X128438746Y-59869676D01*
X128438746Y-59869676D02*
X128636580Y-59926852D01*
X128636580Y-59926852D02*
X128651742Y-59927037D01*
X130380863Y-59985256D02*
X130207675Y-60085412D01*
X130207675Y-60085412D02*
X129992907Y-60111369D01*
X129992907Y-60111369D02*
X129771691Y-60120268D01*
X129771691Y-60120268D02*
X129530199Y-60125677D01*
X129530199Y-60125677D02*
X129384423Y-60128318D01*
X143172317Y-60370742D02*
X143156315Y-60574604D01*
X143156315Y-60574604D02*
X143112525Y-60777505D01*
X143112525Y-60777505D02*
X143017304Y-60965474D01*
X143017304Y-60965474D02*
X143006453Y-60982077D01*
X138895080Y-61257028D02*
X138703949Y-61349381D01*
X138703949Y-61349381D02*
X138610200Y-61397578D01*
X131877694Y-60240039D02*
X131617268Y-60236106D01*
X131617268Y-60236106D02*
X131395856Y-60226149D01*
X131395856Y-60226149D02*
X131167576Y-60203943D01*
X131167576Y-60203943D02*
X130953960Y-60160801D01*
X130953960Y-60160801D02*
X130748302Y-60070607D01*
X130748302Y-60070607D02*
X130652247Y-59992555D01*
X130516953Y-59857261D02*
X130380863Y-59985256D01*
X138339295Y-61538128D02*
X138339335Y-61809870D01*
X141013886Y-62482551D02*
X141097248Y-62267812D01*
X141097248Y-62267812D02*
X141222122Y-62089537D01*
X141222122Y-62089537D02*
X141379800Y-61951042D01*
X141379800Y-61951042D02*
X141561576Y-61855646D01*
X141561576Y-61855646D02*
X141758744Y-61806665D01*
X141758744Y-61806665D02*
X141962597Y-61807417D01*
X141962597Y-61807417D02*
X142164431Y-61861220D01*
X142164431Y-61861220D02*
X142355539Y-61971391D01*
X138618601Y-62208401D02*
X138811942Y-62290007D01*
X138811942Y-62290007D02*
X139020573Y-62366906D01*
X139020573Y-62366906D02*
X139239890Y-62438084D01*
X139239890Y-62438084D02*
X139465286Y-62502527D01*
X139465286Y-62502527D02*
X139692158Y-62559220D01*
X139692158Y-62559220D02*
X139915899Y-62607150D01*
X139915899Y-62607150D02*
X140131904Y-62645302D01*
X140131904Y-62645302D02*
X140335570Y-62672662D01*
X140335570Y-62672662D02*
X140579968Y-62690601D01*
X140579968Y-62690601D02*
X140783326Y-62685148D01*
X142277140Y-63464211D02*
X142078738Y-63523869D01*
X142078738Y-63523869D02*
X141861879Y-63542361D01*
X141861879Y-63542361D02*
X141653833Y-63527067D01*
X141653833Y-63527067D02*
X141514441Y-63485003D01*
X143386638Y-57499828D02*
X143180885Y-57511236D01*
X143180885Y-57511236D02*
X142945940Y-57517045D01*
X142945940Y-57517045D02*
X142721900Y-57520958D01*
X142721900Y-57520958D02*
X142461872Y-57524427D01*
X142461872Y-57524427D02*
X142170367Y-57527394D01*
X142170367Y-57527394D02*
X141960772Y-57529065D01*
X141960772Y-57529065D02*
X141740528Y-57530471D01*
X141740528Y-57530471D02*
X141510973Y-57531593D01*
X141510973Y-57531593D02*
X141273442Y-57532417D01*
X141273442Y-57532417D02*
X141029272Y-57532923D01*
X141029272Y-57532923D02*
X140779801Y-57533096D01*
X144217545Y-59164379D02*
X144137494Y-59362184D01*
X144137494Y-59362184D02*
X144020949Y-59545181D01*
X144020949Y-59545181D02*
X143876580Y-59705705D01*
X143876580Y-59705705D02*
X143713057Y-59836097D01*
X143713057Y-59836097D02*
X143503751Y-59942005D01*
X143503751Y-59942005D02*
X143294329Y-59980250D01*
X143294329Y-59980250D02*
X143186054Y-60165039D01*
X143186054Y-60165039D02*
X143172317Y-60370742D01*
X142144795Y-61511787D02*
X141930660Y-61509455D01*
X141930660Y-61509455D02*
X141733024Y-61462543D01*
X141733024Y-61462543D02*
X141522222Y-61376772D01*
X141522222Y-61376772D02*
X141334657Y-61285139D01*
X141334657Y-61285139D02*
X141202715Y-61216569D01*
X140779801Y-57533096D02*
X140400741Y-57533225D01*
X140400741Y-57533225D02*
X140062280Y-57533662D01*
X140062280Y-57533662D02*
X139762191Y-57534479D01*
X139762191Y-57534479D02*
X139498244Y-57535750D01*
X139498244Y-57535750D02*
X139268214Y-57537547D01*
X139268214Y-57537547D02*
X138981889Y-57541389D01*
X138981889Y-57541389D02*
X138759346Y-57546825D01*
X138759346Y-57546825D02*
X138548845Y-57556977D01*
X138548845Y-57556977D02*
X138348633Y-57594802D01*
X138348633Y-57594802D02*
X138339296Y-57612895D01*
X138339335Y-61809870D02*
X138339375Y-62081613D01*
X141052446Y-63000490D02*
X140899949Y-62870551D01*
X140899949Y-62870551D02*
X140684266Y-62848991D01*
X140684266Y-62848991D02*
X140445149Y-62833973D01*
X140445149Y-62833973D02*
X140387458Y-62830660D01*
X138339295Y-62691978D02*
X138337320Y-62918273D01*
X138337320Y-62918273D02*
X138319510Y-63124899D01*
X138319510Y-63124899D02*
X138167445Y-63272497D01*
X138167445Y-63272497D02*
X138027709Y-63278189D01*
X133962959Y-61189532D02*
X133813626Y-61016333D01*
X133813626Y-61016333D02*
X133672175Y-60857175D01*
X133672175Y-60857175D02*
X133528170Y-60701180D01*
X133528170Y-60701180D02*
X133378014Y-60553456D01*
X133378014Y-60553456D02*
X133364038Y-60542980D01*
X128349847Y-60035195D02*
X128188918Y-59894873D01*
X128188918Y-59894873D02*
X128102433Y-59696800D01*
X128102433Y-59696800D02*
X128074894Y-59465944D01*
X128074894Y-59465944D02*
X128071879Y-59318314D01*
X142355539Y-61971391D02*
X142515172Y-62118783D01*
X142515172Y-62118783D02*
X142632400Y-62304614D01*
X142632400Y-62304614D02*
X142687242Y-62500452D01*
X142687242Y-62500452D02*
X142701616Y-62705012D01*
X127802657Y-58845321D02*
X127586789Y-58758890D01*
X127586789Y-58758890D02*
X127392100Y-58614126D01*
X127392100Y-58614126D02*
X127224165Y-58422461D01*
X127224165Y-58422461D02*
X127088562Y-58195324D01*
X127088562Y-58195324D02*
X127011430Y-58008571D01*
X127011430Y-58008571D02*
X126957972Y-57813118D01*
X126957972Y-57813118D02*
X126930542Y-57613788D01*
X126930542Y-57613788D02*
X126938519Y-57350320D01*
X126938519Y-57350320D02*
X126980966Y-57160699D01*
X144118662Y-56848649D02*
X144011222Y-57021392D01*
X144011222Y-57021392D02*
X143873329Y-57175806D01*
X143873329Y-57175806D02*
X143713757Y-57317754D01*
X143713757Y-57317754D02*
X143526228Y-57444444D01*
X143526228Y-57444444D02*
X143386638Y-57499828D01*
X138339296Y-57612895D02*
X138554982Y-57668912D01*
X138554982Y-57668912D02*
X138771732Y-57679165D01*
X138771732Y-57679165D02*
X139000916Y-57684707D01*
X139000916Y-57684707D02*
X139295816Y-57688685D01*
X139295816Y-57688685D02*
X139532752Y-57690592D01*
X139532752Y-57690592D02*
X139804637Y-57691989D01*
X139804637Y-57691989D02*
X140113767Y-57692950D01*
X140113767Y-57692950D02*
X140462439Y-57693549D01*
X140462439Y-57693549D02*
X140852950Y-57693860D01*
X140387458Y-62830660D02*
X140170601Y-62812653D01*
X140170601Y-62812653D02*
X139947771Y-62783389D01*
X139947771Y-62783389D02*
X139721823Y-62743557D01*
X139721823Y-62743557D02*
X139495611Y-62693847D01*
X139495611Y-62693847D02*
X139271987Y-62634947D01*
X139271987Y-62634947D02*
X139053806Y-62567547D01*
X139053806Y-62567547D02*
X138843922Y-62492335D01*
X138843922Y-62492335D02*
X138645189Y-62410001D01*
X141461006Y-53851361D02*
X141684710Y-53759751D01*
X141684710Y-53759751D02*
X141903553Y-53715413D01*
X141903553Y-53715413D02*
X142117111Y-53718275D01*
X142117111Y-53718275D02*
X142324960Y-53768263D01*
X142324960Y-53768263D02*
X142526675Y-53865305D01*
X142526675Y-53865305D02*
X142721833Y-54009327D01*
X142721833Y-54009327D02*
X142797965Y-54080074D01*
X126980966Y-57160699D02*
X126980968Y-57160686D01*
X138339375Y-62081613D02*
X138618601Y-62208401D01*
X129384423Y-60128318D02*
X129180731Y-60131566D01*
X129180731Y-60131566D02*
X128959977Y-60133528D01*
X128959977Y-60133528D02*
X128753011Y-60131025D01*
X128753011Y-60131025D02*
X128539611Y-60111818D01*
X128539611Y-60111818D02*
X128349847Y-60035195D01*
X143127207Y-55225422D02*
X143384118Y-55291266D01*
X144126350Y-55937125D02*
X144182989Y-56146467D01*
X144182989Y-56146467D02*
X144200355Y-56359641D01*
X144200355Y-56359641D02*
X144187877Y-56576825D01*
X144187877Y-56576825D02*
X144145746Y-56775121D01*
X144145746Y-56775121D02*
X144118662Y-56848649D01*
X142701616Y-62705012D02*
X142678439Y-62914281D01*
X142678439Y-62914281D02*
X142612119Y-63106739D01*
X142612119Y-63106739D02*
X142489668Y-63295064D01*
X142489668Y-63295064D02*
X142324332Y-63437342D01*
X142324332Y-63437342D02*
X142277140Y-63464211D01*
X138027709Y-63278189D02*
X137781602Y-63267246D01*
X137781602Y-63267246D02*
X137518526Y-63235925D01*
X137518526Y-63235925D02*
X137312599Y-63199739D01*
X137312599Y-63199739D02*
X137101244Y-63153199D01*
X137101244Y-63153199D02*
X136886225Y-63096781D01*
X136886225Y-63096781D02*
X136669306Y-63030959D01*
X136669306Y-63030959D02*
X136452253Y-62956211D01*
X136452253Y-62956211D02*
X136236829Y-62873010D01*
X136236829Y-62873010D02*
X136024800Y-62781832D01*
X136024800Y-62781832D02*
X135817929Y-62683154D01*
X127142209Y-57893296D02*
X127219241Y-58095593D01*
X127219241Y-58095593D02*
X127322201Y-58271402D01*
X127322201Y-58271402D02*
X127471260Y-58439442D01*
X127471260Y-58439442D02*
X127653403Y-58571901D01*
X127653403Y-58571901D02*
X127704059Y-58599395D01*
X140852950Y-57693860D02*
X141111048Y-57693955D01*
X141111048Y-57693955D02*
X141352669Y-57694068D01*
X141352669Y-57694068D02*
X141578427Y-57694281D01*
X141578427Y-57694281D02*
X141788938Y-57694678D01*
X141788938Y-57694678D02*
X142166677Y-57696351D01*
X142166677Y-57696351D02*
X142490809Y-57699748D01*
X142490809Y-57699748D02*
X142766255Y-57705530D01*
X142766255Y-57705530D02*
X142997936Y-57714360D01*
X142997936Y-57714360D02*
X143274166Y-57734764D01*
X143274166Y-57734764D02*
X143479610Y-57765745D01*
X143479610Y-57765745D02*
X143672136Y-57827362D01*
X143672136Y-57827362D02*
X143837340Y-57944466D01*
X143837340Y-57944466D02*
X143990482Y-58115750D01*
X138645189Y-62410001D02*
X138339295Y-62273663D01*
X143006453Y-60982077D02*
X142880104Y-61144295D01*
X142880104Y-61144295D02*
X142708956Y-61298828D01*
X142708956Y-61298828D02*
X142515868Y-61413737D01*
X142515868Y-61413737D02*
X142304652Y-61486678D01*
X142304652Y-61486678D02*
X142144795Y-61511787D01*
X143384118Y-55291266D02*
X143579988Y-55368586D01*
X143579988Y-55368586D02*
X143769569Y-55492580D01*
X143769569Y-55492580D02*
X143938308Y-55650582D01*
X143938308Y-55650582D02*
X144071648Y-55829930D01*
X144071648Y-55829930D02*
X144126350Y-55937125D01*
X129859308Y-59980236D02*
X130073988Y-59936077D01*
X130073988Y-59936077D02*
X130264690Y-59843920D01*
X130264690Y-59843920D02*
X130384139Y-59726609D01*
X129859310Y-59980236D02*
X129859308Y-59980236D01*
X129248955Y-59957402D02*
X129495046Y-59976491D01*
X131716015Y-55200179D02*
X131485357Y-55203467D01*
X131485357Y-55203467D02*
X131245954Y-55217313D01*
X131245954Y-55217313D02*
X131023179Y-55250031D01*
X131023179Y-55250031D02*
X130820057Y-55324904D01*
X130820057Y-55324904D02*
X130694104Y-55458313D01*
X136982149Y-53591258D02*
X137158960Y-53705598D01*
X137158960Y-53705598D02*
X137082953Y-53901632D01*
X137082953Y-53901632D02*
X136849342Y-53906938D01*
X136849342Y-53906938D02*
X136663327Y-53903934D01*
X136409317Y-53366306D02*
X136589621Y-53216765D01*
X136589621Y-53216765D02*
X136750049Y-53096455D01*
X136750049Y-53096455D02*
X136809823Y-53065791D01*
X138121455Y-63088581D02*
X138132735Y-62815829D01*
X138132735Y-62815829D02*
X138139862Y-62375811D01*
X138139862Y-62375811D02*
X138143272Y-62089885D01*
X138143272Y-62089885D02*
X138146563Y-61765143D01*
X138146563Y-61765143D02*
X138149723Y-61405433D01*
X138149723Y-61405433D02*
X138152740Y-61014599D01*
X138152740Y-61014599D02*
X138155603Y-60596489D01*
X138155603Y-60596489D02*
X138158299Y-60154949D01*
X138158299Y-60154949D02*
X138160816Y-59693826D01*
X138160816Y-59693826D02*
X138163143Y-59216965D01*
X138163143Y-59216965D02*
X138165267Y-58728213D01*
X138165267Y-58728213D02*
X138167176Y-58231417D01*
X138167176Y-58231417D02*
X138168859Y-57730423D01*
X138168859Y-57730423D02*
X138170302Y-57229077D01*
X138170302Y-57229077D02*
X138171496Y-56731226D01*
X138171496Y-56731226D02*
X138172426Y-56240716D01*
X138172426Y-56240716D02*
X138173082Y-55761394D01*
X138173082Y-55761394D02*
X138173451Y-55297106D01*
X138173451Y-55297106D02*
X138173522Y-54851698D01*
X138173522Y-54851698D02*
X138173282Y-54429017D01*
X138173282Y-54429017D02*
X138172719Y-54032909D01*
X138172719Y-54032909D02*
X138171822Y-53667220D01*
X138171822Y-53667220D02*
X138170578Y-53335798D01*
X138170578Y-53335798D02*
X138168975Y-53042488D01*
X138168975Y-53042488D02*
X138167001Y-52791137D01*
X138167001Y-52791137D02*
X138164645Y-52585591D01*
X138164645Y-52585591D02*
X138158737Y-52327300D01*
X138158737Y-52327300D02*
X138155162Y-52282248D01*
X128309309Y-59710437D02*
X128309308Y-59710437D01*
X136809823Y-53065791D02*
X136849723Y-53013399D01*
X136849723Y-53013399D02*
X136652860Y-52962346D01*
X136652860Y-52962346D02*
X136441700Y-52946899D01*
X129527005Y-59725674D02*
X129548040Y-59510837D01*
X129548040Y-59510837D02*
X129565049Y-59289214D01*
X129565049Y-59289214D02*
X129579281Y-59074510D01*
X129579281Y-59074510D02*
X129589896Y-58889664D01*
X130679851Y-59769715D02*
X130679853Y-59769717D01*
X136483279Y-53755949D02*
X136916029Y-53729350D01*
X128962964Y-59932681D02*
X129174182Y-59951491D01*
X129174182Y-59951491D02*
X129248955Y-59957402D01*
X129694945Y-57346892D02*
X129710491Y-57142262D01*
X129710491Y-57142262D02*
X129726265Y-56927639D01*
X129726265Y-56927639D02*
X129741832Y-56709416D01*
X129741832Y-56709416D02*
X129756756Y-56493986D01*
X129756756Y-56493986D02*
X129770599Y-56287744D01*
X129770599Y-56287744D02*
X129785719Y-56052601D01*
X129785719Y-56052601D02*
X129799538Y-55820146D01*
X129799538Y-55820146D02*
X129801287Y-55788076D01*
X136916029Y-53729350D02*
X136662673Y-53547828D01*
X136662673Y-53547828D02*
X136409317Y-53366306D01*
X129214589Y-55298735D02*
X129200650Y-55510770D01*
X129200650Y-55510770D02*
X129189037Y-55729236D01*
X129189037Y-55729236D02*
X129177841Y-55955007D01*
X129177841Y-55955007D02*
X129168148Y-56160745D01*
X129168148Y-56160745D02*
X129166207Y-56203117D01*
X136441700Y-52946899D02*
X136226357Y-52932139D01*
X136226357Y-52932139D02*
X136028174Y-52884163D01*
X136028174Y-52884163D02*
X136011674Y-52864864D01*
X134070973Y-61046207D02*
X134259193Y-61262463D01*
X134259193Y-61262463D02*
X134450803Y-61465856D01*
X134450803Y-61465856D02*
X134646122Y-61656567D01*
X134646122Y-61656567D02*
X134845474Y-61834776D01*
X134845474Y-61834776D02*
X135049178Y-62000663D01*
X135049178Y-62000663D02*
X135257558Y-62154410D01*
X135257558Y-62154410D02*
X135470935Y-62296195D01*
X135470935Y-62296195D02*
X135689631Y-62426200D01*
X135689631Y-62426200D02*
X135913966Y-62544604D01*
X135913966Y-62544604D02*
X136144264Y-62651589D01*
X136144264Y-62651589D02*
X136380845Y-62747335D01*
X136380845Y-62747335D02*
X136624031Y-62832021D01*
X136624031Y-62832021D02*
X136874144Y-62905829D01*
X136874144Y-62905829D02*
X137131506Y-62968939D01*
X137131506Y-62968939D02*
X137396438Y-63021530D01*
X137396438Y-63021530D02*
X137669262Y-63063785D01*
X129801287Y-55788076D02*
X129833512Y-55186839D01*
X137669262Y-63063785D02*
X137873127Y-63086789D01*
X137873127Y-63086789D02*
X138075983Y-63096408D01*
X138075983Y-63096408D02*
X138121455Y-63088581D01*
X136636394Y-52798364D02*
X136883016Y-52800429D01*
X136883016Y-52800429D02*
X137102191Y-52811628D01*
X137102191Y-52811628D02*
X137153361Y-53008685D01*
X137153361Y-53008685D02*
X136986205Y-53129279D01*
X136663327Y-53903934D02*
X136424141Y-53894179D01*
X136424141Y-53894179D02*
X136207428Y-53874536D01*
X136207428Y-53874536D02*
X136425057Y-53759809D01*
X136425057Y-53759809D02*
X136483279Y-53755949D01*
X136011674Y-52864864D02*
X136217365Y-52806022D01*
X136217365Y-52806022D02*
X136429631Y-52799591D01*
X136429631Y-52799591D02*
X136636394Y-52798365D01*
X130384139Y-59726609D02*
X130397790Y-59514962D01*
X130397790Y-59514962D02*
X130402981Y-59298819D01*
X130402981Y-59298819D02*
X130407104Y-59024610D01*
X130407104Y-59024610D02*
X130410172Y-58703948D01*
X130410172Y-58703948D02*
X130412200Y-58348443D01*
X130412200Y-58348443D02*
X130413205Y-57969707D01*
X130413205Y-57969707D02*
X130413199Y-57579350D01*
X130413199Y-57579350D02*
X130412200Y-57188985D01*
X130412200Y-57188985D02*
X130410220Y-56810223D01*
X130410220Y-56810223D02*
X130407276Y-56454674D01*
X130407276Y-56454674D02*
X130403382Y-56133951D01*
X130403382Y-56133951D02*
X130398553Y-55859664D01*
X130398553Y-55859664D02*
X130392805Y-55643425D01*
X130392805Y-55643425D02*
X130378609Y-55431536D01*
X128932359Y-59780755D02*
X128962964Y-59932695D01*
X129495046Y-59976491D02*
X129527005Y-59725674D01*
X136636394Y-52798365D02*
X136636394Y-52798364D01*
X136119082Y-54390794D02*
X136257525Y-54238957D01*
X136257525Y-54238957D02*
X136459041Y-54127599D01*
X136459041Y-54127599D02*
X136678062Y-54094220D01*
X136678062Y-54094220D02*
X136892251Y-54139554D01*
X136892251Y-54139554D02*
X137079273Y-54264333D01*
X137079273Y-54264333D02*
X137155617Y-54356744D01*
X137155617Y-54356744D02*
X137248061Y-54561165D01*
X137248061Y-54561165D02*
X137265882Y-54771372D01*
X137265882Y-54771372D02*
X137217197Y-54970984D01*
X137217197Y-54970984D02*
X137110127Y-55143617D01*
X137110127Y-55143617D02*
X136952789Y-55272890D01*
X136952789Y-55272890D02*
X136753303Y-55342421D01*
X136753303Y-55342421D02*
X136663526Y-55349836D01*
X136986205Y-53129279D02*
X136815497Y-53255638D01*
X136815497Y-53255638D02*
X136706339Y-53361514D01*
X136663526Y-55349836D02*
X136466934Y-55311178D01*
X136466934Y-55311178D02*
X136278812Y-55204821D01*
X136278812Y-55204821D02*
X136129775Y-55051419D01*
X136129775Y-55051419D02*
X136075135Y-54953470D01*
X131822413Y-60039455D02*
X132051973Y-60050607D01*
X132051973Y-60050607D02*
X132259691Y-60064197D01*
X132259691Y-60064197D02*
X132534987Y-60091245D01*
X132534987Y-60091245D02*
X132773157Y-60129159D01*
X132773157Y-60129159D02*
X132981413Y-60181169D01*
X132981413Y-60181169D02*
X133225023Y-60278023D01*
X133225023Y-60278023D02*
X133445373Y-60413333D01*
X133445373Y-60413333D02*
X133605655Y-60544655D01*
X133605655Y-60544655D02*
X133769682Y-60705143D01*
X133769682Y-60705143D02*
X133944667Y-60898026D01*
X133944667Y-60898026D02*
X134070973Y-61046207D01*
X136119082Y-54390794D02*
X136119082Y-54390794D01*
X136299068Y-55041494D02*
X136482031Y-55147401D01*
X136482031Y-55147401D02*
X136693755Y-55177879D01*
X136693755Y-55177879D02*
X136839973Y-55144341D01*
X136839973Y-55144341D02*
X137005373Y-55026488D01*
X137005373Y-55026488D02*
X137104646Y-54835393D01*
X137104646Y-54835393D02*
X137115718Y-54709731D01*
X137115718Y-54709731D02*
X137075222Y-54508865D01*
X137075222Y-54508865D02*
X136940827Y-54335460D01*
X136940827Y-54335460D02*
X136748415Y-54246137D01*
X136748415Y-54246137D02*
X136535664Y-54251803D01*
X136535664Y-54251803D02*
X136340250Y-54363363D01*
X136340250Y-54363363D02*
X136260819Y-54462262D01*
X129109179Y-57240499D02*
X129092823Y-57444839D01*
X129092823Y-57444839D02*
X129075528Y-57677483D01*
X129075528Y-57677483D02*
X129058367Y-57915237D01*
X129058367Y-57915237D02*
X129043246Y-58129151D01*
X129043246Y-58129151D02*
X129031062Y-58304479D01*
X129833512Y-55186839D02*
X129529445Y-55202891D01*
X130679853Y-59769717D02*
X130835858Y-59920248D01*
X130835858Y-59920248D02*
X131030494Y-59976534D01*
X131030494Y-59976534D02*
X131241352Y-60004164D01*
X131241352Y-60004164D02*
X131464168Y-60021328D01*
X131464168Y-60021328D02*
X131667681Y-60032458D01*
X131667681Y-60032458D02*
X131822413Y-60039455D01*
X136260819Y-54462262D02*
X136187958Y-54649921D01*
X136187958Y-54649921D02*
X136197427Y-54857857D01*
X136197427Y-54857857D02*
X136299068Y-55041494D01*
X129589896Y-58889664D02*
X129602413Y-58672904D01*
X129602413Y-58672904D02*
X129616672Y-58447674D01*
X129616672Y-58447674D02*
X129629978Y-58247198D01*
X129629978Y-58247198D02*
X129644505Y-58035538D01*
X129644505Y-58035538D02*
X129659823Y-57819024D01*
X129659823Y-57819024D02*
X129675499Y-57603982D01*
X129675499Y-57603982D02*
X129691105Y-57396741D01*
X129691105Y-57396741D02*
X129694945Y-57346892D01*
X129529445Y-55202891D02*
X129322883Y-55225419D01*
X129322883Y-55225419D02*
X129214589Y-55298735D01*
X136299068Y-55041494D02*
X136299068Y-55041494D01*
X136706339Y-53361514D02*
X136857059Y-53509249D01*
X136857059Y-53509249D02*
X136982149Y-53591258D01*
X136075135Y-54953470D02*
X136010594Y-54753914D01*
X136010594Y-54753914D02*
X136031452Y-54547477D01*
X136031452Y-54547477D02*
X136119082Y-54390794D01*
X136065261Y-55535772D02*
X136280177Y-55520339D01*
X136280177Y-55520339D02*
X136498927Y-55519325D01*
X136498927Y-55519325D02*
X136693722Y-55522850D01*
X129031062Y-58304479D02*
X129017123Y-58506859D01*
X129017123Y-58506859D02*
X129001175Y-58739231D01*
X129001175Y-58739231D02*
X128984607Y-58982496D01*
X128984607Y-58982496D02*
X128970650Y-59190198D01*
X128970650Y-59190198D02*
X128955646Y-59417956D01*
X128955646Y-59417956D02*
X128940574Y-59651792D01*
X128940574Y-59651792D02*
X128932359Y-59780755D01*
X130020691Y-55420049D02*
X129991432Y-55699279D01*
X129991432Y-55699279D02*
X129972580Y-55914875D01*
X129972580Y-55914875D02*
X129951622Y-56170945D01*
X129951622Y-56170945D02*
X129929087Y-56459852D01*
X129929087Y-56459852D02*
X129905505Y-56773960D01*
X129905505Y-56773960D02*
X129881408Y-57105633D01*
X129881408Y-57105633D02*
X129857326Y-57447234D01*
X129857326Y-57447234D02*
X129833788Y-57791128D01*
X129833788Y-57791128D02*
X129811327Y-58129678D01*
X129811327Y-58129678D02*
X129790471Y-58455248D01*
X129790471Y-58455248D02*
X129771752Y-58760203D01*
X129771752Y-58760203D02*
X129755699Y-59036906D01*
X129755699Y-59036906D02*
X129742845Y-59277721D01*
X129742845Y-59277721D02*
X129730718Y-59554949D01*
X129730718Y-59554949D02*
X129728850Y-59621143D01*
X128962964Y-59932695D02*
X128962964Y-59932681D01*
X129728850Y-59621143D02*
X129726874Y-59826262D01*
X129726874Y-59826262D02*
X129859310Y-59980236D01*
X135540814Y-52893638D02*
X135323522Y-53027630D01*
X135323522Y-53027630D02*
X135120106Y-53167403D01*
X135120106Y-53167403D02*
X134925270Y-53317794D01*
X134925270Y-53317794D02*
X134733721Y-53483642D01*
X134733721Y-53483642D02*
X134540166Y-53669784D01*
X134540166Y-53669784D02*
X134390498Y-53825620D01*
X134390498Y-53825620D02*
X134234492Y-53997635D01*
X134234492Y-53997635D02*
X134069912Y-54187869D01*
X134069912Y-54187869D02*
X133894528Y-54398365D01*
X130199192Y-55271782D02*
X130051838Y-55195585D01*
X129166207Y-56203117D02*
X129156225Y-56415295D01*
X129156225Y-56415295D02*
X129145971Y-56621110D01*
X129145971Y-56621110D02*
X129133947Y-56847990D01*
X129133947Y-56847990D02*
X129121307Y-57066820D01*
X129121307Y-57066820D02*
X129109179Y-57240499D01*
X130378609Y-55431536D02*
X130229447Y-55288794D01*
X130229447Y-55288794D02*
X130199192Y-55271782D01*
X130051838Y-55195585D02*
X130020691Y-55420049D01*
X137816783Y-52159975D02*
X137582179Y-52174594D01*
X137582179Y-52174594D02*
X137316537Y-52216648D01*
X137316537Y-52216648D02*
X137101985Y-52264566D01*
X137101985Y-52264566D02*
X136878235Y-52325254D01*
X136878235Y-52325254D02*
X136648826Y-52397570D01*
X136648826Y-52397570D02*
X136417299Y-52480374D01*
X136417299Y-52480374D02*
X136187194Y-52572523D01*
X136187194Y-52572523D02*
X135962051Y-52672878D01*
X135962051Y-52672878D02*
X135745411Y-52780296D01*
X135745411Y-52780296D02*
X135540814Y-52893638D01*
X128316389Y-55442568D02*
X128277359Y-55679185D01*
X128277359Y-55679185D02*
X128261817Y-55897869D01*
X128261817Y-55897869D02*
X128248948Y-56169403D01*
X128248948Y-56169403D02*
X128238768Y-56483239D01*
X128238768Y-56483239D02*
X128231295Y-56828829D01*
X128231295Y-56828829D02*
X128226547Y-57195624D01*
X128226547Y-57195624D02*
X128224541Y-57573075D01*
X128224541Y-57573075D02*
X128225295Y-57950632D01*
X128225295Y-57950632D02*
X128228825Y-58317748D01*
X128228825Y-58317748D02*
X128235151Y-58663874D01*
X128235151Y-58663874D02*
X128244288Y-58978460D01*
X128244288Y-58978460D02*
X128256255Y-59250958D01*
X128256255Y-59250958D02*
X128271069Y-59470819D01*
X128271069Y-59470819D02*
X128298667Y-59678842D01*
X128298667Y-59678842D02*
X128309309Y-59710437D01*
X133894528Y-54398365D02*
X133755554Y-54554623D01*
X133755554Y-54554623D02*
X133609674Y-54691677D01*
X133609674Y-54691677D02*
X133400478Y-54845994D01*
X133400478Y-54845994D02*
X133169532Y-54969655D01*
X133169532Y-54969655D02*
X132978795Y-55043482D01*
X132978795Y-55043482D02*
X132770495Y-55102025D01*
X132770495Y-55102025D02*
X132542351Y-55146126D01*
X132542351Y-55146126D02*
X132292078Y-55176625D01*
X132292078Y-55176625D02*
X132017394Y-55194363D01*
X132017394Y-55194363D02*
X131716015Y-55200179D01*
X130694104Y-55458313D02*
X130665367Y-55685925D01*
X130665367Y-55685925D02*
X130653647Y-55905804D01*
X130653647Y-55905804D02*
X130643740Y-56181481D01*
X130643740Y-56181481D02*
X130635686Y-56501769D01*
X130635686Y-56501769D02*
X130629519Y-56855482D01*
X130629519Y-56855482D02*
X130625278Y-57231431D01*
X130625278Y-57231431D02*
X130622999Y-57618429D01*
X130622999Y-57618429D02*
X130622720Y-58005289D01*
X130622720Y-58005289D02*
X130624477Y-58380824D01*
X130624477Y-58380824D02*
X130628307Y-58733847D01*
X130628307Y-58733847D02*
X130634247Y-59053169D01*
X130634247Y-59053169D02*
X130642335Y-59327605D01*
X130642335Y-59327605D02*
X130652606Y-59545966D01*
X130652606Y-59545966D02*
X130679851Y-59769715D01*
X128850224Y-55192322D02*
X128645430Y-55211664D01*
X128645430Y-55211664D02*
X128454580Y-55288907D01*
X128454580Y-55288907D02*
X128316389Y-55442568D01*
X138155162Y-52282248D02*
X137982482Y-52163620D01*
X137982482Y-52163620D02*
X137816783Y-52159975D01*
X136065038Y-60405867D02*
X136174685Y-60228971D01*
X136174685Y-60228971D02*
X136211335Y-60213425D01*
X136211335Y-60213425D02*
X136388384Y-60114748D01*
X136388384Y-60114748D02*
X136424098Y-59914570D01*
X136424098Y-59914570D02*
X136424132Y-59894230D01*
X137036572Y-57296832D02*
X136837566Y-57342390D01*
X136837566Y-57342390D02*
X136634838Y-57279968D01*
X136634838Y-57279968D02*
X136509384Y-57094633D01*
X136509384Y-57094633D02*
X136477331Y-56874641D01*
X136693722Y-55522850D02*
X137248716Y-55538116D01*
X136650226Y-57065348D02*
X136650226Y-57065348D01*
X136211335Y-59575036D02*
X135998539Y-59489893D01*
X137275315Y-58543862D02*
X137275315Y-58916255D01*
X135998539Y-59489893D02*
X135998539Y-59052343D01*
X136400190Y-57526859D02*
X136400191Y-57526854D01*
X136557127Y-57666070D02*
X136317732Y-57649425D01*
X136319714Y-58235093D02*
X136589089Y-58218914D01*
X136748358Y-56478702D02*
X137248716Y-56495691D01*
X136400191Y-57526854D02*
X136604641Y-57523986D01*
X136604641Y-57523986D02*
X136822175Y-57521730D01*
X136822175Y-57521730D02*
X137047557Y-57522729D01*
X137047557Y-57522729D02*
X137249631Y-57554370D01*
X137249631Y-57554370D02*
X137263936Y-57578743D01*
X137248716Y-56495691D02*
X137265517Y-56730819D01*
X136034005Y-58579328D02*
X136236160Y-58554280D01*
X136236160Y-58554280D02*
X136463478Y-58546023D01*
X136463478Y-58546023D02*
X136672393Y-58543862D01*
X137013753Y-57639479D02*
X136743325Y-57639479D01*
X137265517Y-56730819D02*
X137270639Y-56933827D01*
X137270639Y-56933827D02*
X137230537Y-57131565D01*
X137230537Y-57131565D02*
X137073167Y-57280304D01*
X137073167Y-57280304D02*
X137036572Y-57296832D01*
X136255369Y-56671647D02*
X136051113Y-56620406D01*
X136051113Y-56620406D02*
X136119491Y-56493960D01*
X136743325Y-57639479D02*
X136743325Y-57932073D01*
X137009320Y-58224667D02*
X137210600Y-58239769D01*
X137210600Y-58239769D02*
X137275315Y-58306155D01*
X137275315Y-58306155D02*
X137081994Y-58375525D01*
X137081994Y-58375525D02*
X136868923Y-58376840D01*
X136868923Y-58376840D02*
X136650226Y-58372654D01*
X136119490Y-56493969D02*
X136336165Y-56476739D01*
X136336165Y-56476739D02*
X136543938Y-56474651D01*
X136543938Y-56474651D02*
X136748358Y-56478702D01*
X136605489Y-56229714D02*
X136448555Y-56101106D01*
X136448555Y-56101106D02*
X136435011Y-56096962D01*
X137115718Y-58703458D02*
X136932302Y-58703458D01*
X136144399Y-59104844D02*
X136122652Y-59373233D01*
X136636925Y-55887417D02*
X136688876Y-56089483D01*
X136688876Y-56089483D02*
X136855489Y-56202711D01*
X136855489Y-56202711D02*
X136867552Y-56203114D01*
X136119491Y-56493960D02*
X136119490Y-56493969D01*
X137115716Y-55873279D02*
X137115716Y-55671123D01*
X136650226Y-58372654D02*
X136421158Y-58364266D01*
X136421158Y-58364266D02*
X136218256Y-58349503D01*
X136218256Y-58349503D02*
X136037739Y-58304466D01*
X136672393Y-58543862D02*
X137275315Y-58543862D01*
X137195517Y-59288648D02*
X137117168Y-59090208D01*
X137117168Y-59090208D02*
X137115718Y-58996054D01*
X136477331Y-56874641D02*
X136391965Y-56686836D01*
X136391965Y-56686836D02*
X136255369Y-56671647D01*
X136227679Y-56256409D02*
X136058281Y-56370646D01*
X136058281Y-56370646D02*
X136022217Y-56357987D01*
X137263936Y-57578743D02*
X137061607Y-57638938D01*
X137061607Y-57638938D02*
X137013753Y-57639479D01*
X136743325Y-58224667D02*
X137009320Y-58224667D01*
X137162654Y-56236370D02*
X136980411Y-56348782D01*
X136980411Y-56348782D02*
X136778969Y-56340918D01*
X136778969Y-56340918D02*
X136605489Y-56229714D01*
X137115716Y-55671123D02*
X136586865Y-55671123D01*
X137248716Y-55538116D02*
X137265025Y-55824079D01*
X137265025Y-55824079D02*
X137264414Y-56030843D01*
X137264414Y-56030843D02*
X137180112Y-56217133D01*
X137180112Y-56217133D02*
X137162654Y-56236370D01*
X136435011Y-56096962D02*
X136271183Y-56216737D01*
X136271183Y-56216737D02*
X136227679Y-56256409D01*
X136594640Y-55777522D02*
X136636925Y-55887417D01*
X136650226Y-57065348D02*
X136822297Y-57186194D01*
X136822297Y-57186194D02*
X137018229Y-57132680D01*
X137018229Y-57132680D02*
X137108724Y-56949339D01*
X137108724Y-56949339D02*
X137115718Y-56864292D01*
X136619194Y-56717363D02*
X136591285Y-56917788D01*
X136591285Y-56917788D02*
X136650226Y-57065348D01*
X136743325Y-57932073D02*
X136743325Y-58224667D01*
X136573108Y-57942493D02*
X136557127Y-57666070D01*
X136732805Y-58978572D02*
X136701530Y-59195443D01*
X136701530Y-59195443D02*
X136573329Y-59012821D01*
X136383865Y-58713362D02*
X136191739Y-58777349D01*
X136191739Y-58777349D02*
X136155746Y-58975131D01*
X136155746Y-58975131D02*
X136144399Y-59104844D01*
X136424132Y-59894230D02*
X136398824Y-59689372D01*
X136398824Y-59689372D02*
X136211335Y-59575036D01*
X136037739Y-58304466D02*
X136239270Y-58242291D01*
X136239270Y-58242291D02*
X136319714Y-58235093D01*
X136589089Y-58218914D02*
X136573108Y-57942493D01*
X136698984Y-59601769D02*
X136896541Y-59683895D01*
X136896541Y-59683895D02*
X137085643Y-59771292D01*
X137085643Y-59771292D02*
X137262538Y-59874918D01*
X137262538Y-59874918D02*
X137274046Y-59891971D01*
X137274046Y-59891971D02*
X137063878Y-60016813D01*
X137063878Y-60016813D02*
X136877490Y-60102899D01*
X136877490Y-60102899D02*
X136667117Y-60193691D01*
X136667117Y-60193691D02*
X136456216Y-60279218D01*
X136456216Y-60279218D02*
X136268246Y-60349509D01*
X136268246Y-60349509D02*
X136065038Y-60405867D01*
X136022217Y-56357987D02*
X136143030Y-56174958D01*
X136143030Y-56174958D02*
X136288329Y-56021330D01*
X136288329Y-56021330D02*
X136440038Y-55880065D01*
X136440038Y-55880065D02*
X136594640Y-55777522D01*
X136586865Y-55671123D02*
X136380280Y-55666840D01*
X136380280Y-55666840D02*
X136159506Y-55647916D01*
X136159506Y-55647916D02*
X136065260Y-55535781D01*
X136065260Y-55535781D02*
X136065261Y-55535772D01*
X137115718Y-56864292D02*
X137017009Y-56685128D01*
X137017009Y-56685128D02*
X136885189Y-56681895D01*
X136317732Y-57649425D02*
X136106301Y-57623246D01*
X136106301Y-57623246D02*
X136283729Y-57530713D01*
X136283729Y-57530713D02*
X136400190Y-57526859D01*
X137115718Y-58996054D02*
X137115718Y-58703458D01*
X136867552Y-56203114D02*
X137056711Y-56124691D01*
X137056711Y-56124691D02*
X137114835Y-55914993D01*
X137114835Y-55914993D02*
X137115716Y-55873279D01*
X136885189Y-56681895D02*
X136678497Y-56697566D01*
X136678497Y-56697566D02*
X136619194Y-56717363D01*
X137275315Y-58916255D02*
X137270731Y-59116881D01*
X137270731Y-59116881D02*
X137195517Y-59288648D01*
X136932302Y-58703458D02*
X136749264Y-58792875D01*
X136749264Y-58792875D02*
X136732805Y-58978572D01*
X136573329Y-59012821D02*
X136553921Y-58812042D01*
X136553921Y-58812042D02*
X136383865Y-58713362D01*
X136122652Y-59373233D02*
X136698984Y-59601769D01*
X140999248Y-54151512D02*
X140940731Y-53960157D01*
X140940731Y-53960157D02*
X140827537Y-53783690D01*
X140827537Y-53783690D02*
X140678294Y-53619036D01*
X140678294Y-53619036D02*
X140555455Y-53521399D01*
X138568739Y-55724299D02*
X138576280Y-55519880D01*
X138576280Y-55519880D02*
X138655629Y-55434445D01*
X138776363Y-54255560D02*
X138639022Y-54101644D01*
X138639022Y-54101644D02*
X138472338Y-53990754D01*
X138472338Y-53990754D02*
X138395684Y-53968730D01*
X138395684Y-53968730D02*
X138356061Y-54174738D01*
X138356061Y-54174738D02*
X138341178Y-54414533D01*
X138341178Y-54414533D02*
X138332428Y-54644537D01*
X138332428Y-54644537D02*
X138325893Y-54911996D01*
X138325893Y-54911996D02*
X138321702Y-55211928D01*
X138321702Y-55211928D02*
X138320277Y-55427464D01*
X138320277Y-55427464D02*
X138319992Y-55653740D01*
X138319992Y-55653740D02*
X138320886Y-55889283D01*
X138320886Y-55889283D02*
X138322999Y-56132614D01*
X138322999Y-56132614D02*
X138326368Y-56382258D01*
X138326368Y-56382258D02*
X138328537Y-56508986D01*
X138328537Y-56508986D02*
X138344377Y-57373470D01*
X138344377Y-57373470D02*
X139673482Y-57373483D01*
X137115718Y-62058584D02*
X137078799Y-61860575D01*
X137078799Y-61860575D02*
X137006767Y-61814792D01*
X138439181Y-59767441D02*
X138605291Y-59687642D01*
X136849723Y-60721651D02*
X136644383Y-60679066D01*
X136644383Y-60679066D02*
X136424131Y-60671828D01*
X137262128Y-61376716D02*
X137047132Y-61429994D01*
X137047132Y-61429994D02*
X136814476Y-61452091D01*
X136814476Y-61452091D02*
X136607071Y-61463821D01*
X136607071Y-61463821D02*
X136404468Y-61468922D01*
X136404468Y-61468922D02*
X136191319Y-61464091D01*
X136191319Y-61464091D02*
X136062642Y-61444551D01*
X136425929Y-61270317D02*
X136631866Y-61304420D01*
X136631866Y-61304420D02*
X136832115Y-61310164D01*
X136832115Y-61310164D02*
X136854156Y-61310217D01*
X137003587Y-62450449D02*
X137068211Y-62267795D01*
X136956121Y-59874224D02*
X136772068Y-59782819D01*
X136772068Y-59782819D02*
X136570683Y-59750266D01*
X136570683Y-59750266D02*
X136560103Y-59755599D01*
X136722616Y-62109951D02*
X136658960Y-62306205D01*
X136658960Y-62306205D02*
X136539207Y-62469399D01*
X136539207Y-62469399D02*
X136400497Y-62533792D01*
X136607824Y-60033435D02*
X136607824Y-60033435D01*
X136290351Y-61629406D02*
X136297979Y-61805616D01*
X136023016Y-62134797D02*
X136040103Y-61930347D01*
X136040103Y-61930347D02*
X136102090Y-61802304D01*
X137235416Y-60560216D02*
X137133044Y-60745503D01*
X137133044Y-60745503D02*
X136952218Y-60877381D01*
X136952218Y-60877381D02*
X136851522Y-60945974D01*
X136038437Y-60550032D02*
X136258427Y-60541101D01*
X136258427Y-60541101D02*
X136491597Y-60540735D01*
X136491597Y-60540735D02*
X136698422Y-60542493D01*
X136698422Y-60542493D02*
X136899673Y-60545874D01*
X136899673Y-60545874D02*
X137110203Y-60552102D01*
X137110203Y-60552102D02*
X137235416Y-60560216D01*
X137068211Y-62267795D02*
X137115655Y-62069307D01*
X137115655Y-62069307D02*
X137115718Y-62058584D01*
X136851522Y-60945974D02*
X136686828Y-61059566D01*
X136686828Y-61059566D02*
X136524158Y-61179811D01*
X136524158Y-61179811D02*
X136425929Y-61270317D01*
X136102090Y-61802304D02*
X136102090Y-61802304D01*
X140184547Y-56547572D02*
X139999260Y-56470773D01*
X139999260Y-56470773D02*
X140198217Y-56398489D01*
X140198217Y-56398489D02*
X140280931Y-56398561D01*
X142149664Y-56200178D02*
X142082829Y-56391709D01*
X142082829Y-56391709D02*
X142028770Y-56415888D01*
X142649448Y-55326276D02*
X142836601Y-55235514D01*
X142836601Y-55235514D02*
X142930408Y-55041195D01*
X142930408Y-55041195D02*
X142937711Y-55005004D01*
X136607824Y-60033435D02*
X136805634Y-59977403D01*
X136805634Y-59977403D02*
X136956121Y-59874224D01*
X142234457Y-57369436D02*
X142450754Y-57367803D01*
X142450754Y-57367803D02*
X142733032Y-57361954D01*
X142733032Y-57361954D02*
X142969702Y-57350430D01*
X142969702Y-57350430D02*
X143224024Y-57323132D01*
X143224024Y-57323132D02*
X143420566Y-57278292D01*
X143420566Y-57278292D02*
X143605277Y-57191089D01*
X143605277Y-57191089D02*
X143771843Y-57029779D01*
X143771843Y-57029779D02*
X143895257Y-56838373D01*
X143949767Y-56003845D02*
X143852968Y-55812531D01*
X143852968Y-55812531D02*
X143721473Y-55657590D01*
X143721473Y-55657590D02*
X143540620Y-55538042D01*
X143540620Y-55538042D02*
X143473004Y-55505172D01*
X136583728Y-62005298D02*
X136644362Y-61801020D01*
X136644362Y-61801020D02*
X136794319Y-61660829D01*
X136794319Y-61660829D02*
X136920249Y-61629406D01*
X137006767Y-61814792D02*
X136805395Y-61871248D01*
X136805395Y-61871248D02*
X136730667Y-62065226D01*
X136730667Y-62065226D02*
X136722616Y-62109951D01*
X136854156Y-61310217D02*
X137055344Y-61313642D01*
X137055344Y-61313642D02*
X137254606Y-61348722D01*
X137254606Y-61348722D02*
X137262128Y-61376716D01*
X140973520Y-54950029D02*
X140941913Y-55157431D01*
X140941913Y-55157431D02*
X140795018Y-55134123D01*
X141234995Y-57280384D02*
X141439793Y-57360121D01*
X141439793Y-57360121D02*
X141661221Y-57368276D01*
X141661221Y-57368276D02*
X141875868Y-57370039D01*
X141875868Y-57370039D02*
X142078058Y-57369969D01*
X142078058Y-57369969D02*
X142234457Y-57369436D01*
X142646821Y-55524801D02*
X142459021Y-55646909D01*
X142459021Y-55646909D02*
X142312436Y-55801705D01*
X142312436Y-55801705D02*
X142208753Y-55986893D01*
X142208753Y-55986893D02*
X142149664Y-56200178D01*
X142649115Y-54176277D02*
X142460700Y-54032599D01*
X142460700Y-54032599D02*
X142259854Y-53942389D01*
X142259854Y-53942389D02*
X142053123Y-53902624D01*
X142053123Y-53902624D02*
X141847054Y-53910282D01*
X141847054Y-53910282D02*
X141648194Y-53962338D01*
X141648194Y-53962338D02*
X141463090Y-54055770D01*
X141463090Y-54055770D02*
X141298288Y-54187553D01*
X141298288Y-54187553D02*
X141160337Y-54354666D01*
X141160337Y-54354666D02*
X141055782Y-54554085D01*
X141055782Y-54554085D02*
X140991170Y-54782786D01*
X140991170Y-54782786D02*
X140973520Y-54950029D01*
X140795018Y-55134123D02*
X140778542Y-54920255D01*
X140778542Y-54920255D02*
X140809004Y-54715750D01*
X140809004Y-54715750D02*
X140868471Y-54510445D01*
X140868471Y-54510445D02*
X140917707Y-54397693D01*
X136236733Y-62246828D02*
X136400400Y-62366050D01*
X136400400Y-62366050D02*
X136551310Y-62221645D01*
X136551310Y-62221645D02*
X136583728Y-62005298D01*
X136297979Y-61805616D02*
X136187231Y-61989850D01*
X136187231Y-61989850D02*
X136213734Y-62203985D01*
X136213734Y-62203985D02*
X136236733Y-62246828D01*
X137160861Y-62370283D02*
X137003587Y-62450449D01*
X140911446Y-56983751D02*
X140770647Y-56820229D01*
X140770647Y-56820229D02*
X140602662Y-56693083D01*
X140602662Y-56693083D02*
X140407344Y-56602227D01*
X140407344Y-56602227D02*
X140184547Y-56547572D01*
X139673482Y-57373483D02*
X139939417Y-57373389D01*
X139939417Y-57373389D02*
X140171743Y-57372726D01*
X140171743Y-57372726D02*
X140372273Y-57370924D01*
X140372273Y-57370924D02*
X140617422Y-57364832D01*
X140617422Y-57364832D02*
X140849941Y-57347387D01*
X140849941Y-57347387D02*
X141038147Y-57278385D01*
X141038147Y-57278385D02*
X140980001Y-57083435D01*
X140980001Y-57083435D02*
X140911446Y-56983751D01*
X140280931Y-56398561D02*
X140509451Y-56442769D01*
X140509451Y-56442769D02*
X140690884Y-56530172D01*
X140690884Y-56530172D02*
X140858249Y-56658099D01*
X140858249Y-56658099D02*
X141006026Y-56821450D01*
X141006026Y-56821450D02*
X141128698Y-57015126D01*
X141128698Y-57015126D02*
X141220745Y-57234026D01*
X141220745Y-57234026D02*
X141234995Y-57280384D01*
X142028770Y-56415888D02*
X141969801Y-56217097D01*
X141969801Y-56217097D02*
X141974331Y-56182698D01*
X136400497Y-62533792D02*
X136217529Y-62439334D01*
X136217529Y-62439334D02*
X136086915Y-62285253D01*
X136086915Y-62285253D02*
X136023016Y-62134797D01*
X141974331Y-56182698D02*
X142027509Y-55963931D01*
X142027509Y-55963931D02*
X142121244Y-55763551D01*
X142121244Y-55763551D02*
X142249526Y-55589179D01*
X142249526Y-55589179D02*
X142406347Y-55448439D01*
X142406347Y-55448439D02*
X142585696Y-55348952D01*
X142585696Y-55348952D02*
X142649448Y-55326276D01*
X142937711Y-55005004D02*
X142947201Y-54786045D01*
X142947201Y-54786045D02*
X142898944Y-54565402D01*
X142898944Y-54565402D02*
X142813265Y-54382202D01*
X142813265Y-54382202D02*
X142690524Y-54218245D01*
X142690524Y-54218245D02*
X142649115Y-54176277D01*
X140008075Y-53395114D02*
X139801892Y-53421974D01*
X139801892Y-53421974D02*
X139594414Y-53489561D01*
X139594414Y-53489561D02*
X139419176Y-53598195D01*
X139419176Y-53598195D02*
X139272636Y-53749986D01*
X139272636Y-53749986D02*
X139183572Y-53885999D01*
X139074592Y-54566302D02*
X139074164Y-54787764D01*
X139074164Y-54787764D02*
X139059870Y-54989974D01*
X139059870Y-54989974D02*
X139016900Y-55192912D01*
X139016900Y-55192912D02*
X139001716Y-55233311D01*
X139001716Y-55233311D02*
X138895070Y-55426079D01*
X138895070Y-55426079D02*
X138757859Y-55597289D01*
X138757859Y-55597289D02*
X138589782Y-55721257D01*
X138589782Y-55721257D02*
X138568739Y-55724299D01*
X138655629Y-55434445D02*
X138778351Y-55265521D01*
X138778351Y-55265521D02*
X138857321Y-55048715D01*
X138857321Y-55048715D02*
X138888123Y-54846938D01*
X138888123Y-54846938D02*
X138885744Y-54639212D01*
X138885744Y-54639212D02*
X138848914Y-54437949D01*
X138848914Y-54437949D02*
X138776363Y-54255560D01*
X136560103Y-59755599D02*
X136543210Y-59962293D01*
X136543210Y-59962293D02*
X136607824Y-60033435D01*
X136034006Y-58579328D02*
X136034005Y-58579328D01*
X140917707Y-54397693D02*
X140991175Y-54205402D01*
X140991175Y-54205402D02*
X140999248Y-54151512D01*
X140555455Y-53521399D02*
X140372500Y-53421267D01*
X140372500Y-53421267D02*
X140167442Y-53389646D01*
X140167442Y-53389646D02*
X140008075Y-53395114D01*
X135998539Y-59052343D02*
X136002835Y-58839927D01*
X136002835Y-58839927D02*
X136018664Y-58637986D01*
X136018664Y-58637986D02*
X136034006Y-58579328D01*
X136038437Y-60550035D02*
X136038437Y-60550032D01*
X143473004Y-55505172D02*
X143263892Y-55432720D01*
X143263892Y-55432720D02*
X143060261Y-55411752D01*
X143060261Y-55411752D02*
X142856456Y-55442401D01*
X142856456Y-55442401D02*
X142646821Y-55524801D01*
X136424131Y-60671828D02*
X136213743Y-60665161D01*
X136213743Y-60665161D02*
X136010839Y-60625680D01*
X136010839Y-60625680D02*
X136038437Y-60550035D01*
X143895257Y-56838373D02*
X143986157Y-56633268D01*
X143986157Y-56633268D02*
X144025530Y-56425995D01*
X144025530Y-56425995D02*
X144013394Y-56216279D01*
X144013394Y-56216279D02*
X143949767Y-56003845D01*
X136478772Y-61020358D02*
X136655213Y-60895941D01*
X136655213Y-60895941D02*
X136812998Y-60767841D01*
X136812998Y-60767841D02*
X136849723Y-60721651D01*
X136102090Y-61802304D02*
X136238977Y-61650353D01*
X136238977Y-61650353D02*
X136290351Y-61629406D01*
X139183572Y-53885999D02*
X139102427Y-54075312D01*
X139102427Y-54075312D02*
X139074660Y-54292267D01*
X139074660Y-54292267D02*
X139073305Y-54495026D01*
X139073305Y-54495026D02*
X139074592Y-54566302D01*
X136062642Y-61444551D02*
X136144086Y-61257701D01*
X136144086Y-61257701D02*
X136329997Y-61121675D01*
X136329997Y-61121675D02*
X136478772Y-61020358D01*
X136920249Y-61629406D02*
X137123500Y-61713720D01*
X137123500Y-61713720D02*
X137237433Y-61886850D01*
X137237433Y-61886850D02*
X137274389Y-62099357D01*
X137274389Y-62099357D02*
X137217828Y-62300314D01*
X137217828Y-62300314D02*
X137160861Y-62370283D01*
X138775013Y-61057405D02*
X138955189Y-60954545D01*
X138955189Y-60954545D02*
X139094826Y-61112514D01*
X139094826Y-61112514D02*
X139127511Y-61208034D01*
X140880680Y-60214165D02*
X140853519Y-60007156D01*
X140853519Y-60007156D02*
X140948847Y-59819069D01*
X140948847Y-59819069D02*
X140992345Y-59796231D01*
X138801202Y-59802509D02*
X138632312Y-59921911D01*
X138632312Y-59921911D02*
X138605291Y-60035272D01*
X143090256Y-59676148D02*
X142900015Y-59755679D01*
X142900015Y-59755679D02*
X142711300Y-59664989D01*
X142711300Y-59664989D02*
X142667994Y-59572188D01*
X138475311Y-57852249D02*
X138339297Y-57852249D01*
X138385982Y-60725023D02*
X138530704Y-60573125D01*
X138530704Y-60573125D02*
X138560295Y-60459027D01*
X138339297Y-57852249D02*
X138339297Y-58809831D01*
X138439182Y-59767413D02*
X138439181Y-59767441D01*
X138555535Y-58401941D02*
X138451353Y-58227402D01*
X138451353Y-58227402D02*
X138499593Y-58016746D01*
X138499593Y-58016746D02*
X138528510Y-57970482D01*
X141231617Y-59817958D02*
X141368025Y-59985646D01*
X141368025Y-59985646D02*
X141337605Y-60197336D01*
X141337605Y-60197336D02*
X141197643Y-60344485D01*
X141197643Y-60344485D02*
X141153242Y-60363354D01*
X139583456Y-60161380D02*
X139381834Y-60118511D01*
X139381834Y-60118511D02*
X139249210Y-59963502D01*
X139249210Y-59963502D02*
X139243680Y-59926824D01*
X142967613Y-57885925D02*
X143110695Y-58037657D01*
X143110695Y-58037657D02*
X143303184Y-58118261D01*
X143818798Y-58834606D02*
X143797934Y-59036318D01*
X143797934Y-59036318D02*
X143722870Y-59228589D01*
X143722870Y-59228589D02*
X143572854Y-59396513D01*
X143572854Y-59396513D02*
X143380983Y-59503144D01*
X143104229Y-59312717D02*
X143305575Y-59355108D01*
X143305575Y-59355108D02*
X143471202Y-59239131D01*
X143471202Y-59239131D02*
X143548677Y-59148803D01*
X142957068Y-59953950D02*
X143120457Y-59827893D01*
X143120457Y-59827893D02*
X143192399Y-59818651D01*
X143062733Y-58354247D02*
X142877532Y-58432821D01*
X142877532Y-58432821D02*
X142693879Y-58350646D01*
X139243680Y-59926824D02*
X139093690Y-59786559D01*
X139093690Y-59786559D02*
X138886742Y-59783443D01*
X138886742Y-59783443D02*
X138801202Y-59802509D01*
X138458994Y-60236632D02*
X138340750Y-60405604D01*
X138340750Y-60405604D02*
X138339297Y-60489328D01*
X143303184Y-58118261D02*
X143481821Y-58213284D01*
X143481821Y-58213284D02*
X143614239Y-58333298D01*
X142693879Y-58350646D02*
X142498437Y-58274283D01*
X142498437Y-58274283D02*
X142317297Y-58257547D01*
X139547699Y-58277841D02*
X139341899Y-58279992D01*
X139341899Y-58279992D02*
X139140129Y-58290310D01*
X139140129Y-58290310D02*
X138945199Y-58337438D01*
X138945199Y-58337438D02*
X138929258Y-58351891D01*
X143192399Y-59818651D02*
X143396692Y-59768778D01*
X143396692Y-59768778D02*
X143597473Y-59672907D01*
X143597473Y-59672907D02*
X143778814Y-59541658D01*
X143778814Y-59541658D02*
X143924786Y-59385648D01*
X143924786Y-59385648D02*
X143986190Y-59289469D01*
X143614239Y-58333298D02*
X143752429Y-58496465D01*
X143752429Y-58496465D02*
X143814496Y-58691114D01*
X143814496Y-58691114D02*
X143818798Y-58834606D01*
X141296213Y-60986500D02*
X141446190Y-61127690D01*
X141446190Y-61127690D02*
X141621200Y-61230873D01*
X141621200Y-61230873D02*
X141812997Y-61295766D01*
X141812997Y-61295766D02*
X142013340Y-61322086D01*
X142013340Y-61322086D02*
X142213984Y-61309549D01*
X142213984Y-61309549D02*
X142452655Y-61238803D01*
X142452655Y-61238803D02*
X142662818Y-61106348D01*
X142662818Y-61106348D02*
X142735294Y-61035963D01*
X140236167Y-58381265D02*
X140044998Y-58299677D01*
X140044998Y-58299677D02*
X139838376Y-58281699D01*
X139838376Y-58281699D02*
X139631842Y-58278041D01*
X139631842Y-58278041D02*
X139547699Y-58277841D01*
X138339297Y-60489328D02*
X138361822Y-60690775D01*
X138361822Y-60690775D02*
X138385982Y-60725023D01*
X139127511Y-61208034D02*
X139218082Y-61411861D01*
X139218082Y-61411861D02*
X139351895Y-61580644D01*
X139351895Y-61580644D02*
X139523569Y-61710649D01*
X139523569Y-61710649D02*
X139727721Y-61798139D01*
X139727721Y-61798139D02*
X139958969Y-61839379D01*
X139958969Y-61839379D02*
X140041144Y-61842203D01*
X139340713Y-59642781D02*
X139545784Y-59683027D01*
X139545784Y-59683027D02*
X139703587Y-59798349D01*
X138369393Y-61310213D02*
X138561075Y-61221861D01*
X138561075Y-61221861D02*
X138735434Y-61092689D01*
X138735434Y-61092689D02*
X138775013Y-61057405D01*
X141153242Y-60363354D02*
X141124285Y-60574914D01*
X141124285Y-60574914D02*
X141179463Y-60772522D01*
X141179463Y-60772522D02*
X141269752Y-60951595D01*
X141269752Y-60951595D02*
X141296213Y-60986500D01*
X138339297Y-61127601D02*
X138369393Y-61310213D01*
X138605291Y-60035272D02*
X138517523Y-60219476D01*
X138517523Y-60219476D02*
X138458994Y-60236632D01*
X140992345Y-59796231D02*
X141193591Y-59805692D01*
X141193591Y-59805692D02*
X141231617Y-59817958D01*
X143523867Y-58497578D02*
X143370520Y-58352109D01*
X143370520Y-58352109D02*
X143173775Y-58303404D01*
X143173775Y-58303404D02*
X143062733Y-58354247D01*
X140613557Y-58369475D02*
X140431439Y-58453076D01*
X140431439Y-58453076D02*
X140236167Y-58381265D01*
X143986190Y-59289469D02*
X144063154Y-59061826D01*
X144063154Y-59061826D02*
X144078514Y-58852198D01*
X144078514Y-58852198D02*
X144052601Y-58638669D01*
X144052601Y-58638669D02*
X143988293Y-58434561D01*
X143988293Y-58434561D02*
X143888469Y-58253199D01*
X143888469Y-58253199D02*
X143725851Y-58084347D01*
X142667994Y-59572188D02*
X142687253Y-59356005D01*
X142687253Y-59356005D02*
X142856034Y-59245378D01*
X142856034Y-59245378D02*
X143056692Y-59285157D01*
X143056692Y-59285157D02*
X143104229Y-59312717D01*
X138339297Y-58809831D02*
X138339519Y-59041690D01*
X138339519Y-59041690D02*
X138341000Y-59288258D01*
X138341000Y-59288258D02*
X138346112Y-59508895D01*
X138346112Y-59508895D02*
X138370134Y-59715423D01*
X138370134Y-59715423D02*
X138439182Y-59767413D01*
X139017584Y-58933061D02*
X139185233Y-58817599D01*
X139185233Y-58817599D02*
X139314261Y-58719039D01*
X142036630Y-58171452D02*
X142220602Y-58083521D01*
X142220602Y-58083521D02*
X142327612Y-58075167D01*
X139314261Y-58719039D02*
X139508012Y-58619260D01*
X139508012Y-58619260D02*
X139712299Y-58607340D01*
X139712299Y-58607340D02*
X139904726Y-58673914D01*
X139904726Y-58673914D02*
X140062897Y-58809613D01*
X140062897Y-58809613D02*
X140164417Y-59005071D01*
X140164417Y-59005071D02*
X140181798Y-59081885D01*
X143725851Y-58084347D02*
X143537024Y-57977107D01*
X143537024Y-57977107D02*
X143349290Y-57904188D01*
X143349290Y-57904188D02*
X143144426Y-57852890D01*
X143144426Y-57852890D02*
X142967613Y-57885925D01*
X140181798Y-59081885D02*
X140235418Y-59280646D01*
X140235418Y-59280646D02*
X140261450Y-59319568D01*
X141637637Y-57852259D02*
X141373954Y-57853152D01*
X141373954Y-57853152D02*
X141147822Y-57855920D01*
X141147822Y-57855920D02*
X140902860Y-57862753D01*
X140902860Y-57862753D02*
X140683941Y-57876778D01*
X140683941Y-57876778D02*
X140600256Y-57977894D01*
X140261450Y-59319568D02*
X140289987Y-59518076D01*
X140289987Y-59518076D02*
X140201263Y-59661043D01*
X138560295Y-60459027D02*
X138754865Y-60419670D01*
X140201263Y-59661043D02*
X140111343Y-59850899D01*
X140111343Y-59850899D02*
X140096244Y-60077330D01*
X140096244Y-60077330D02*
X140094865Y-60246232D01*
X140094865Y-60246232D02*
X140092372Y-60461203D01*
X140092372Y-60461203D02*
X140071812Y-60666856D01*
X140071812Y-60666856D02*
X140015066Y-60725023D01*
X139703587Y-59798349D02*
X139738961Y-59996445D01*
X139738961Y-59996445D02*
X139597670Y-60155502D01*
X139597670Y-60155502D02*
X139583456Y-60161380D01*
X142735294Y-61035963D02*
X142866773Y-60874443D01*
X142866773Y-60874443D02*
X142961619Y-60691673D01*
X142961619Y-60691673D02*
X143000337Y-60481232D01*
X143000337Y-60481232D02*
X142994362Y-60251949D01*
X142994362Y-60251949D02*
X142965264Y-60009336D01*
X142965264Y-60009336D02*
X142957068Y-59953950D01*
X138605291Y-59687642D02*
X138809096Y-59614252D01*
X138809096Y-59614252D02*
X139014684Y-59613186D01*
X139014684Y-59613186D02*
X139220160Y-59629337D01*
X139220160Y-59629337D02*
X139340713Y-59642781D01*
X138754865Y-60419670D02*
X138701010Y-60619741D01*
X138701010Y-60619741D02*
X138591462Y-60788417D01*
X138591462Y-60788417D02*
X138443053Y-60912059D01*
X142327612Y-58075167D02*
X142531724Y-58051241D01*
X142531724Y-58051241D02*
X142720086Y-57973543D01*
X142720086Y-57973543D02*
X142754818Y-57898943D01*
X142754818Y-57898943D02*
X142532123Y-57871056D01*
X142532123Y-57871056D02*
X142304967Y-57861564D01*
X142304967Y-57861564D02*
X142071417Y-57855942D01*
X142071417Y-57855942D02*
X141862054Y-57853211D01*
X141862054Y-57853211D02*
X141637637Y-57852259D01*
X140870042Y-61388342D02*
X140965172Y-61199593D01*
X140965172Y-61199593D02*
X140991431Y-60992475D01*
X140991431Y-60992475D02*
X140976525Y-60775100D01*
X140976525Y-60775100D02*
X140973316Y-60740473D01*
X140041144Y-61842203D02*
X140241265Y-61826135D01*
X140241265Y-61826135D02*
X140449039Y-61766916D01*
X140449039Y-61766916D02*
X140628709Y-61664342D01*
X140628709Y-61664342D02*
X140779828Y-61518659D01*
X140779828Y-61518659D02*
X140870042Y-61388342D01*
X140973316Y-60740473D02*
X140948584Y-60532563D01*
X140948584Y-60532563D02*
X140914438Y-60335188D01*
X140914438Y-60335188D02*
X140880680Y-60214165D01*
X143380983Y-59503144D02*
X143194675Y-59600153D01*
X143194675Y-59600153D02*
X143090256Y-59676148D01*
X142317297Y-58257547D02*
X142115424Y-58239960D01*
X142115424Y-58239960D02*
X142036630Y-58171452D01*
X138929258Y-58351891D02*
X138752452Y-58451512D01*
X138752452Y-58451512D02*
X138555535Y-58401941D01*
X143548677Y-59148803D02*
X143643966Y-58952059D01*
X143643966Y-58952059D02*
X143645227Y-58739879D01*
X143645227Y-58739879D02*
X143566698Y-58554908D01*
X143566698Y-58554908D02*
X143523867Y-58497578D01*
X140600256Y-57977894D02*
X140678626Y-58176381D01*
X140678626Y-58176381D02*
X140613557Y-58369475D01*
X138528510Y-57970482D02*
X138475311Y-57852249D01*
X138443053Y-60912059D02*
X138340037Y-61091821D01*
X138340037Y-61091821D02*
X138339297Y-61127601D01*
X139935267Y-60254476D02*
X139932439Y-60032807D01*
X139932439Y-60032807D02*
X139909986Y-59822278D01*
X139909986Y-59822278D02*
X139828869Y-59687642D01*
X140015066Y-60725023D02*
X139940699Y-60533234D01*
X139940699Y-60533234D02*
X139935449Y-60322843D01*
X139935449Y-60322843D02*
X139935267Y-60254476D01*
X139017584Y-58933061D02*
X139017584Y-58933061D01*
X139110682Y-59235450D02*
X139190481Y-59155652D01*
X139190481Y-59155652D02*
X139066350Y-59111318D01*
X140015066Y-59554644D02*
X140094865Y-59477984D01*
X139970381Y-59011033D02*
X139843416Y-58843569D01*
X139843416Y-58843569D02*
X139646309Y-58774980D01*
X139646309Y-58774980D02*
X139479923Y-58801615D01*
X139066350Y-59111318D02*
X139110682Y-59235450D01*
X139110682Y-59235450D02*
X139110682Y-59235450D01*
X139137282Y-59448245D02*
X138940967Y-59358869D01*
X138940967Y-59358869D02*
X138879213Y-59161769D01*
X138879213Y-59161769D02*
X138976775Y-58963484D01*
X138976775Y-58963484D02*
X139017584Y-58933061D01*
X139863306Y-59248131D02*
X139980498Y-59081450D01*
X139980498Y-59081450D02*
X139970381Y-59011033D01*
X139479923Y-58801615D02*
X139369622Y-58978765D01*
X139369622Y-58978765D02*
X139381260Y-59065919D01*
X139828869Y-59687642D02*
X139728154Y-59507387D01*
X139728154Y-59507387D02*
X139795724Y-59309593D01*
X139795724Y-59309593D02*
X139863306Y-59248131D01*
X139381260Y-59065919D02*
X139372510Y-59270608D01*
X139372510Y-59270608D02*
X139243375Y-59426671D01*
X139243375Y-59426671D02*
X139137282Y-59448245D01*
X140839651Y-59391907D02*
X140892850Y-59448245D01*
X141070488Y-58643902D02*
X141305823Y-58643525D01*
X141305823Y-58643525D02*
X141534943Y-58638094D01*
X141534943Y-58638094D02*
X141739831Y-58623970D01*
X141739831Y-58623970D02*
X141942286Y-58587042D01*
X141942286Y-58587042D02*
X142001471Y-58566091D01*
X140892850Y-59448245D02*
X140892850Y-59448245D01*
X142356423Y-60031552D02*
X142518134Y-59897787D01*
X142518134Y-59897787D02*
X142718580Y-59919763D01*
X142718580Y-59919763D02*
X142728909Y-59927615D01*
X142728909Y-59927615D02*
X142805203Y-60113427D01*
X142805203Y-60113427D02*
X142728221Y-60299435D01*
X142728221Y-60299435D02*
X142648422Y-60444034D01*
X139533674Y-60982825D02*
X139675012Y-61137604D01*
X139675012Y-61137604D02*
X139873869Y-61236227D01*
X139873869Y-61236227D02*
X140041662Y-61205676D01*
X142648422Y-60444034D02*
X142570864Y-60630953D01*
X142570864Y-60630953D02*
X142418734Y-60788500D01*
X142418734Y-60788500D02*
X142247750Y-60894623D01*
X142247750Y-60894623D02*
X142228041Y-60902931D01*
X142228041Y-60902931D02*
X142046939Y-60992197D01*
X142046939Y-60992197D02*
X141984820Y-61041979D01*
X141984820Y-61041979D02*
X141789814Y-61092505D01*
X141789814Y-61092505D02*
X141648281Y-61033570D01*
X141648281Y-61033570D02*
X141592153Y-60838645D01*
X141592153Y-60838645D02*
X141668040Y-60702216D01*
X140148061Y-61097406D02*
X140357735Y-61090682D01*
X140357735Y-61090682D02*
X140491721Y-61260811D01*
X140491721Y-61260811D02*
X140443059Y-61462856D01*
X140443059Y-61462856D02*
X140426194Y-61481305D01*
X139574350Y-60542756D02*
X139590988Y-60748758D01*
X139590988Y-60748758D02*
X139570677Y-60785480D01*
X140254462Y-61363412D02*
X140254462Y-61363412D01*
X139981733Y-61468184D02*
X139792886Y-61390146D01*
X139792886Y-61390146D02*
X139606560Y-61281000D01*
X139606560Y-61281000D02*
X139495971Y-61183635D01*
X140201263Y-61310213D02*
X140254462Y-61363412D01*
X142653785Y-59063084D02*
X142477153Y-58950964D01*
X142477153Y-58950964D02*
X142414531Y-58796607D01*
X139570677Y-60785480D02*
X139533674Y-60982825D01*
X140267693Y-58716795D02*
X140289929Y-58645156D01*
X142001471Y-58566091D02*
X142206015Y-58513086D01*
X142206015Y-58513086D02*
X142382424Y-58521560D01*
X142011902Y-58806397D02*
X141959574Y-59006756D01*
X141959574Y-59006756D02*
X142002945Y-59204796D01*
X142002945Y-59204796D02*
X142016035Y-59220210D01*
X139495971Y-61183635D02*
X139362914Y-61033462D01*
X139362914Y-61033462D02*
X139223664Y-60876967D01*
X139223664Y-60876967D02*
X139216676Y-60869140D01*
X140254462Y-61363412D02*
X140307661Y-61310213D01*
X142016035Y-59220210D02*
X141933399Y-59362338D01*
X140289929Y-58645156D02*
X140289928Y-58645119D01*
X142934092Y-58886914D02*
X142809035Y-59048820D01*
X142809035Y-59048820D02*
X142653785Y-59063084D01*
X141933399Y-59362338D02*
X141802954Y-59191145D01*
X141802954Y-59191145D02*
X141752973Y-58988052D01*
X141752973Y-58988052D02*
X141758980Y-58918087D01*
X140289928Y-58645119D02*
X140511543Y-58642678D01*
X140511543Y-58642678D02*
X140714932Y-58642645D01*
X140714932Y-58642645D02*
X140921690Y-58643210D01*
X140921690Y-58643210D02*
X141070488Y-58643902D01*
X140041662Y-61205676D02*
X140148061Y-61097406D01*
X142717376Y-58868577D02*
X142651090Y-58781607D01*
X142651090Y-58781607D02*
X142626958Y-58871366D01*
X142717377Y-58868594D02*
X142717376Y-58868577D01*
X140254462Y-61257014D02*
X140201263Y-61310213D01*
X141763469Y-59508118D02*
X141915397Y-59646520D01*
X141915397Y-59646520D02*
X142014911Y-59714242D01*
X142090693Y-60030715D02*
X141941407Y-60167066D01*
X141941407Y-60167066D02*
X141740057Y-60137705D01*
X139216676Y-60869140D02*
X139096659Y-60706270D01*
X139096659Y-60706270D02*
X139166895Y-60524050D01*
X141740057Y-60137705D02*
X141647243Y-59956791D01*
X141647243Y-59956791D02*
X141658259Y-59872631D01*
X141550674Y-59558513D02*
X141367756Y-59463822D01*
X141367756Y-59463822D02*
X141163105Y-59477979D01*
X141163105Y-59477979D02*
X141052447Y-59554642D01*
X139969287Y-59378760D02*
X140015066Y-59554644D01*
X141668037Y-60702224D02*
X141854198Y-60626459D01*
X141854198Y-60626459D02*
X141985583Y-60693421D01*
X140307661Y-61310213D02*
X140254462Y-61257014D01*
X139166895Y-60524050D02*
X139166898Y-60524064D01*
X140015066Y-59554644D02*
X140015066Y-59554644D01*
X140426194Y-61481305D02*
X140228851Y-61548681D01*
X140228851Y-61548681D02*
X140012446Y-61478914D01*
X140012446Y-61478914D02*
X139981733Y-61468184D01*
X142382424Y-58521560D02*
X142582020Y-58554493D01*
X142582020Y-58554493D02*
X142694076Y-58566621D01*
X142014911Y-59714242D02*
X142102210Y-59906317D01*
X142102210Y-59906317D02*
X142090693Y-60030715D01*
X141052447Y-59554642D02*
X140875446Y-59656106D01*
X140875446Y-59656106D02*
X140710454Y-59577455D01*
X141985583Y-60693421D02*
X142185444Y-60725017D01*
X142185444Y-60725017D02*
X142353752Y-60592666D01*
X142353752Y-60592666D02*
X142418926Y-60401991D01*
X142418926Y-60401991D02*
X142384000Y-60249180D01*
X142384000Y-60249180D02*
X142352103Y-60048688D01*
X142352103Y-60048688D02*
X142356423Y-60031552D01*
X140094865Y-59477984D02*
X139969287Y-59378760D01*
X140704944Y-59236869D02*
X140904715Y-59201099D01*
X140904715Y-59201099D02*
X141113691Y-59228050D01*
X141113691Y-59228050D02*
X141168104Y-59237029D01*
X142694076Y-58566621D02*
X142881630Y-58665690D01*
X142881630Y-58665690D02*
X142940486Y-58859866D01*
X142940486Y-58859866D02*
X142934092Y-58886914D01*
X141038158Y-58798021D02*
X140808189Y-58792112D01*
X140808189Y-58792112D02*
X140591246Y-58782279D01*
X140591246Y-58782279D02*
X140375947Y-58760802D01*
X140375947Y-58760802D02*
X140267693Y-58716795D01*
X141658259Y-59872631D02*
X141654132Y-59668863D01*
X141654132Y-59668863D02*
X141550674Y-59558513D01*
X141758980Y-58918087D02*
X141559321Y-58813638D01*
X141559321Y-58813638D02*
X141326071Y-58804372D01*
X141326071Y-58804372D02*
X141103309Y-58799319D01*
X141103309Y-58799319D02*
X141038158Y-58798021D01*
X139166898Y-60524064D02*
X139340425Y-60408460D01*
X139340425Y-60408460D02*
X139538779Y-60485096D01*
X139538779Y-60485096D02*
X139574350Y-60542756D01*
X140710454Y-59577455D02*
X140630259Y-59388031D01*
X140630259Y-59388031D02*
X140704943Y-59236880D01*
X142414531Y-58796607D02*
X142224981Y-58701330D01*
X142224981Y-58701330D02*
X142037560Y-58771828D01*
X142037560Y-58771828D02*
X142011902Y-58806397D01*
X142626958Y-58871366D02*
X142717377Y-58868594D01*
X140892850Y-59448245D02*
X140946050Y-59424793D01*
X141168104Y-59237029D02*
X141376169Y-59278012D01*
X141376169Y-59278012D02*
X141568309Y-59350100D01*
X141568309Y-59350100D02*
X141730442Y-59476281D01*
X141730442Y-59476281D02*
X141763469Y-59508118D01*
X140946050Y-59424793D02*
X140892850Y-59368454D01*
X140892850Y-59368454D02*
X140839651Y-59391907D01*
X140704943Y-59236880D02*
X140704944Y-59236869D01*
X139566901Y-57853916D02*
X138799541Y-57852196D01*
X140407956Y-58118270D02*
X140397531Y-58263491D01*
X141087937Y-59989637D02*
X140999247Y-60056133D01*
X141850433Y-63384975D02*
X142052531Y-63340738D01*
X142052531Y-63340738D02*
X142239992Y-63241353D01*
X142239992Y-63241353D02*
X142393882Y-63107972D01*
X142393882Y-63107972D02*
X142441705Y-63043439D01*
X145495117Y-60026794D02*
X145391463Y-60212168D01*
X145391463Y-60212168D02*
X145266858Y-60411241D01*
X145266858Y-60411241D02*
X145130441Y-60611962D01*
X145130441Y-60611962D02*
X144991352Y-60802284D01*
X144991352Y-60802284D02*
X144858730Y-60970157D01*
X144858730Y-60970157D02*
X144715970Y-61130074D01*
X144715970Y-61130074D02*
X144591065Y-61218596D01*
X138799541Y-57852196D02*
X138926776Y-57987631D01*
X142887815Y-58243907D02*
X142967613Y-58165778D01*
X138926776Y-57987631D02*
X139108089Y-58102003D01*
X139108089Y-58102003D02*
X139330280Y-58116362D01*
X139330280Y-58116362D02*
X139552848Y-58113769D01*
X145841672Y-56484568D02*
X145786745Y-56249732D01*
X145786745Y-56249732D02*
X145722125Y-56020044D01*
X145722125Y-56020044D02*
X145647618Y-55795105D01*
X145647618Y-55795105D02*
X145563030Y-55574514D01*
X145563030Y-55574514D02*
X145468167Y-55357874D01*
X145468167Y-55357874D02*
X145362836Y-55144783D01*
X145362836Y-55144783D02*
X145246842Y-54934842D01*
X145246842Y-54934842D02*
X145119993Y-54727651D01*
X145119993Y-54727651D02*
X144982094Y-54522812D01*
X144982094Y-54522812D02*
X144832952Y-54319924D01*
X144832952Y-54319924D02*
X144727183Y-54185553D01*
X141480071Y-53145074D02*
X141679204Y-53210537D01*
X141679204Y-53210537D02*
X141880889Y-53183781D01*
X141880889Y-53183781D02*
X141896778Y-53179097D01*
X142595219Y-52349026D02*
X142713519Y-52511844D01*
X142713519Y-52511844D02*
X142900679Y-52611789D01*
X142900679Y-52611789D02*
X142951704Y-52635960D01*
X142887815Y-58118270D02*
X142808016Y-58196400D01*
X138680657Y-58118270D02*
X138701716Y-58265676D01*
X139479936Y-59980236D02*
X139536275Y-59927037D01*
X141868825Y-62001999D02*
X141632412Y-62042707D01*
X141632412Y-62042707D02*
X141433889Y-62153190D01*
X141433889Y-62153190D02*
X141283067Y-62316685D01*
X141283067Y-62316685D02*
X141189755Y-62516432D01*
X141189755Y-62516432D02*
X141163766Y-62735671D01*
X141163766Y-62735671D02*
X141214909Y-62957641D01*
X141214909Y-62957641D02*
X141259162Y-63043439D01*
X142887815Y-58243907D02*
X142887815Y-58243907D01*
X140893400Y-52316229D02*
X140957268Y-52111523D01*
X140957268Y-52111523D02*
X141073570Y-51938595D01*
X141073570Y-51938595D02*
X141243697Y-51795701D01*
X141243697Y-51795701D02*
X141361983Y-51728650D01*
X142945454Y-59541337D02*
X142852904Y-59426783D01*
X140192973Y-57980091D02*
X140334260Y-57855635D01*
X142951704Y-52635960D02*
X143198310Y-52759169D01*
X143198310Y-52759169D02*
X143438663Y-52894831D01*
X143438663Y-52894831D02*
X143672185Y-53042320D01*
X143672185Y-53042320D02*
X143898297Y-53201008D01*
X143898297Y-53201008D02*
X144116423Y-53370270D01*
X144116423Y-53370270D02*
X144325986Y-53549480D01*
X144325986Y-53549480D02*
X144526407Y-53738011D01*
X144526407Y-53738011D02*
X144717111Y-53935237D01*
X144717111Y-53935237D02*
X144897518Y-54140531D01*
X144897518Y-54140531D02*
X145067052Y-54353268D01*
X145067052Y-54353268D02*
X145225136Y-54572822D01*
X145225136Y-54572822D02*
X145371191Y-54798565D01*
X145371191Y-54798565D02*
X145504642Y-55029872D01*
X145504642Y-55029872D02*
X145624909Y-55266116D01*
X145624909Y-55266116D02*
X145731417Y-55506671D01*
X145731417Y-55506671D02*
X145823587Y-55750912D01*
X145823587Y-55750912D02*
X145901496Y-55985897D01*
X145901496Y-55985897D02*
X145964599Y-56199122D01*
X145964599Y-56199122D02*
X146014277Y-56398999D01*
X146014277Y-56398999D02*
X146059601Y-56642893D01*
X146059601Y-56642893D02*
X146084126Y-56843498D01*
X146084126Y-56843498D02*
X146099718Y-57058098D01*
X146099718Y-57058098D02*
X146107757Y-57295106D01*
X146107757Y-57295106D02*
X146109663Y-57492629D01*
X142945466Y-59541346D02*
X142945454Y-59541337D01*
X146109663Y-57492629D02*
X146106152Y-57769944D01*
X146106152Y-57769944D02*
X146094016Y-58028450D01*
X146094016Y-58028450D02*
X146072364Y-58271812D01*
X146072364Y-58271812D02*
X146040308Y-58503695D01*
X146040308Y-58503695D02*
X145996960Y-58727763D01*
X145996960Y-58727763D02*
X145941431Y-58947682D01*
X145941431Y-58947682D02*
X145872831Y-59167117D01*
X145872831Y-59167117D02*
X145790273Y-59389732D01*
X145790273Y-59389732D02*
X145692867Y-59619193D01*
X145692867Y-59619193D02*
X145579726Y-59859164D01*
X145579726Y-59859164D02*
X145495117Y-60026794D01*
X139536275Y-59927037D02*
X139512814Y-59873837D01*
X144671958Y-60930481D02*
X144820082Y-60750665D01*
X144820082Y-60750665D02*
X144944822Y-60580223D01*
X144944822Y-60580223D02*
X145074903Y-60390299D01*
X145074903Y-60390299D02*
X145201115Y-60194588D01*
X145201115Y-60194588D02*
X145314245Y-60006783D01*
X145314245Y-60006783D02*
X145405082Y-59840579D01*
X138764889Y-58202501D02*
X138680657Y-58118270D01*
X140397531Y-58263491D02*
X140397529Y-58263491D01*
X140485634Y-58200316D02*
X140407956Y-58118270D01*
X142967613Y-58165778D02*
X142887815Y-58118270D01*
X141588299Y-62407967D02*
X141588299Y-62407967D01*
X140397529Y-58263491D02*
X140485634Y-58200316D01*
X141361983Y-51728650D02*
X141552060Y-51661652D01*
X141552060Y-51661652D02*
X141752653Y-51638294D01*
X141752653Y-51638294D02*
X141976235Y-51664065D01*
X141976235Y-51664065D02*
X142173093Y-51744719D01*
X142173093Y-51744719D02*
X142215604Y-51773326D01*
X141588299Y-62407967D02*
X141769462Y-62279761D01*
X141769462Y-62279761D02*
X141972239Y-62282510D01*
X141972239Y-62282510D02*
X142149549Y-62407391D01*
X142149549Y-62407391D02*
X142219721Y-62526295D01*
X144591065Y-61218596D02*
X144606449Y-61006014D01*
X144606449Y-61006014D02*
X144671958Y-60930481D01*
X145405082Y-59840579D02*
X145495495Y-59651616D01*
X145495495Y-59651616D02*
X145577888Y-59456836D01*
X145577888Y-59456836D02*
X145652176Y-59256889D01*
X145652176Y-59256889D02*
X145718273Y-59052430D01*
X145718273Y-59052430D02*
X145776095Y-58844111D01*
X145776095Y-58844111D02*
X145825557Y-58632586D01*
X145825557Y-58632586D02*
X145866573Y-58418505D01*
X145866573Y-58418505D02*
X145899060Y-58202524D01*
X145899060Y-58202524D02*
X145922931Y-57985294D01*
X145922931Y-57985294D02*
X145938102Y-57767469D01*
X145938102Y-57767469D02*
X145944488Y-57549700D01*
X145944488Y-57549700D02*
X145942004Y-57332642D01*
X145942004Y-57332642D02*
X145930566Y-57116947D01*
X145930566Y-57116947D02*
X145910087Y-56903268D01*
X145910087Y-56903268D02*
X145880484Y-56692257D01*
X145880484Y-56692257D02*
X145841672Y-56484568D01*
X142531447Y-52872624D02*
X142405588Y-53059960D01*
X142405588Y-53059960D02*
X142246073Y-53206073D01*
X142246073Y-53206073D02*
X142061489Y-53307950D01*
X142061489Y-53307950D02*
X141860421Y-53362578D01*
X141860421Y-53362578D02*
X141651455Y-53366947D01*
X141651455Y-53366947D02*
X141443177Y-53318043D01*
X141443177Y-53318043D02*
X141361983Y-53282891D01*
X141361983Y-53282891D02*
X141183835Y-53173456D01*
X141183835Y-53173456D02*
X141040583Y-53042183D01*
X141040583Y-53042183D02*
X140944302Y-52846013D01*
X140944302Y-52846013D02*
X140893383Y-52629071D01*
X140893383Y-52629071D02*
X140883157Y-52407603D01*
X140883157Y-52407603D02*
X140893400Y-52316229D01*
X142855706Y-59517203D02*
X142945466Y-59541346D01*
X139479936Y-59980236D02*
X139479936Y-59980236D01*
X142852904Y-59426783D02*
X142855706Y-59517203D01*
X142626883Y-52686599D02*
X142531447Y-52872624D01*
X138701715Y-58265676D02*
X138764889Y-58202501D01*
X142808016Y-58196400D02*
X142887815Y-58243907D01*
X140893400Y-52316229D02*
X140893400Y-52316229D01*
X139512814Y-59873837D02*
X139456476Y-59927037D01*
X142219721Y-62526295D02*
X142243732Y-62728824D01*
X142243732Y-62728824D02*
X142150791Y-62934002D01*
X142150791Y-62934002D02*
X141971380Y-63065705D01*
X141971380Y-63065705D02*
X141749258Y-63076519D01*
X141749258Y-63076519D02*
X141720670Y-63067010D01*
X144727183Y-54185553D02*
X144587550Y-54028407D01*
X144587550Y-54028407D02*
X144414912Y-53859361D01*
X144414912Y-53859361D02*
X144217027Y-53684458D01*
X144217027Y-53684458D02*
X144056711Y-53553075D01*
X144056711Y-53553075D02*
X143889830Y-53424347D01*
X143889830Y-53424347D02*
X143719656Y-53300825D01*
X143719656Y-53300825D02*
X143549462Y-53185059D01*
X143549462Y-53185059D02*
X143328163Y-53047176D01*
X143328163Y-53047176D02*
X143120405Y-52933658D01*
X141110078Y-60139834D02*
X141110080Y-60139834D01*
X142215604Y-51773326D02*
X142371351Y-51920393D01*
X142371351Y-51920393D02*
X142501988Y-52099134D01*
X142501988Y-52099134D02*
X142586675Y-52287845D01*
X142586675Y-52287845D02*
X142595219Y-52349026D01*
X138701716Y-58265676D02*
X138701715Y-58265676D01*
X140334260Y-57855635D02*
X139566901Y-57853916D01*
X139456476Y-59927037D02*
X139479936Y-59980236D01*
X141259162Y-63043439D02*
X141403997Y-63199601D01*
X141403997Y-63199601D02*
X141584430Y-63312723D01*
X141584430Y-63312723D02*
X141793365Y-63380682D01*
X141793365Y-63380682D02*
X141850433Y-63384975D01*
X141668040Y-60702216D02*
X141668037Y-60702224D01*
X142441705Y-63043439D02*
X142531302Y-62820812D01*
X142531302Y-62820812D02*
X142541680Y-62596952D01*
X142541680Y-62596952D02*
X142481622Y-62387825D01*
X142481622Y-62387825D02*
X142359911Y-62209401D01*
X142359911Y-62209401D02*
X142185331Y-62077647D01*
X142185331Y-62077647D02*
X141966667Y-62008530D01*
X141966667Y-62008530D02*
X141868825Y-62001999D01*
X141110080Y-60139834D02*
X141087937Y-59989637D01*
X140999247Y-60056133D02*
X141110078Y-60139834D01*
X139552848Y-58113846D02*
X139764567Y-58107857D01*
X139764567Y-58107857D02*
X139973875Y-58088400D01*
X139973875Y-58088400D02*
X140158885Y-58008548D01*
X140158885Y-58008548D02*
X140192973Y-57980091D01*
X141259162Y-63043439D02*
X141259162Y-63043439D01*
X141720670Y-63067010D02*
X141552791Y-62938372D01*
X141552791Y-62938372D02*
X141482749Y-62743387D01*
X141482749Y-62743387D02*
X141519050Y-62524405D01*
X141519050Y-62524405D02*
X141588299Y-62407967D01*
X143120405Y-52933658D02*
X142626883Y-52686599D01*
X141178031Y-52949769D02*
X141346446Y-53074688D01*
X141346446Y-53074688D02*
X141480071Y-53145074D01*
X139552848Y-58113769D02*
X139552848Y-58113846D01*
X141449022Y-52237357D02*
X141620666Y-52125311D01*
X141620666Y-52125311D02*
X141823199Y-52109819D01*
X141823199Y-52109819D02*
X142003924Y-52206761D01*
X142003924Y-52206761D02*
X142095988Y-52331482D01*
X141449022Y-52774184D02*
X141340822Y-52605075D01*
X141340822Y-52605075D02*
X141318443Y-52505771D01*
X141318443Y-52505771D02*
X141386912Y-52316166D01*
X141386912Y-52316166D02*
X141449022Y-52237357D01*
X141825409Y-52700919D02*
X141953641Y-52541332D01*
X141953641Y-52541332D02*
X141889339Y-52346248D01*
X141889339Y-52346248D02*
X141850436Y-52319562D01*
X141178031Y-52949769D02*
X141178031Y-52949769D01*
X141896778Y-53179097D02*
X142092976Y-53093040D01*
X142092976Y-53093040D02*
X142262811Y-52948885D01*
X142262811Y-52948885D02*
X142373472Y-52760421D01*
X142373472Y-52760421D02*
X142411658Y-52613146D01*
X141132669Y-52147346D02*
X141073805Y-52360759D01*
X141073805Y-52360759D02*
X141068707Y-52567591D01*
X141068707Y-52567591D02*
X141096777Y-52767137D01*
X141096777Y-52767137D02*
X141178031Y-52949769D01*
X141850436Y-52319562D02*
X141649936Y-52316239D01*
X141649936Y-52316239D02*
X141531689Y-52486130D01*
X141531689Y-52486130D02*
X141594533Y-52676815D01*
X141594533Y-52676815D02*
X141612616Y-52693264D01*
X142411658Y-52613146D02*
X142412879Y-52378533D01*
X142412879Y-52378533D02*
X142347453Y-52175469D01*
X142347453Y-52175469D02*
X142223047Y-52012859D01*
X142223047Y-52012859D02*
X142047332Y-51899609D01*
X142047332Y-51899609D02*
X141827976Y-51844623D01*
X141827976Y-51844623D02*
X141746485Y-51840782D01*
X142095988Y-52331482D02*
X142143445Y-52553148D01*
X142143445Y-52553148D02*
X142050732Y-52764837D01*
X142050732Y-52764837D02*
X141854815Y-52887493D01*
X141854815Y-52887493D02*
X141649526Y-52891123D01*
X141649526Y-52891123D02*
X141449022Y-52774184D01*
X141449022Y-52237357D02*
X141449022Y-52237357D01*
X141612616Y-52693264D02*
X141612613Y-52693275D01*
X141746485Y-51840782D02*
X141526986Y-51867398D01*
X141526986Y-51867398D02*
X141338394Y-51943544D01*
X141338394Y-51943544D02*
X141178627Y-52079479D01*
X141178627Y-52079479D02*
X141132669Y-52147346D01*
X141612613Y-52693275D02*
X141816133Y-52705072D01*
X141816133Y-52705072D02*
X141825409Y-52700919D01*
X130625434Y-55253637D02*
X130796280Y-55132398D01*
X130796280Y-55132398D02*
X130839227Y-55112111D01*
X133817544Y-54211758D02*
X133953258Y-54053639D01*
X133953258Y-54053639D02*
X134088590Y-53901803D01*
X134088590Y-53901803D02*
X134267698Y-53709836D01*
X134267698Y-53709836D02*
X134444346Y-53530738D01*
X134444346Y-53530738D02*
X134617517Y-53365479D01*
X134617517Y-53365479D02*
X134786193Y-53215032D01*
X134786193Y-53215032D02*
X134949357Y-53080366D01*
X134949357Y-53080366D02*
X135144009Y-52935707D01*
X135144009Y-52935707D02*
X135181541Y-52910084D01*
X135181541Y-52910084D02*
X135398716Y-52772801D01*
X135398716Y-52772801D02*
X135630664Y-52642313D01*
X135630664Y-52642313D02*
X135874291Y-52519738D01*
X135874291Y-52519738D02*
X136126505Y-52406195D01*
X136126505Y-52406195D02*
X136384213Y-52302804D01*
X136384213Y-52302804D02*
X136644323Y-52210684D01*
X136644323Y-52210684D02*
X136903743Y-52130954D01*
X136903743Y-52130954D02*
X137159379Y-52064733D01*
X137159379Y-52064733D02*
X137408139Y-52013142D01*
X137408139Y-52013142D02*
X137646932Y-51977298D01*
X137646932Y-51977298D02*
X137799062Y-51962705D01*
X139789234Y-52475836D02*
X139591941Y-52511435D01*
X139591941Y-52511435D02*
X139390436Y-52555594D01*
X139390436Y-52555594D02*
X139177801Y-52617145D01*
X139177801Y-52617145D02*
X138958067Y-52699129D01*
X138958067Y-52699129D02*
X138739177Y-52793329D01*
X138739177Y-52793329D02*
X138698390Y-52811658D01*
X138698390Y-52811658D02*
X138339297Y-52973752D01*
X128071880Y-55854139D02*
X128082022Y-55644940D01*
X128082022Y-55644940D02*
X128120778Y-55446282D01*
X128120778Y-55446282D02*
X128216660Y-55254673D01*
X128216660Y-55254673D02*
X128368756Y-55124565D01*
X128368756Y-55124565D02*
X128389333Y-55113423D01*
X128389333Y-55113423D02*
X128630601Y-55060387D01*
X128630601Y-55060387D02*
X128888771Y-55038669D01*
X128888771Y-55038669D02*
X129112739Y-55029535D01*
X129112739Y-55029535D02*
X129349028Y-55026532D01*
X129349028Y-55026532D02*
X129585323Y-55029655D01*
X129585323Y-55029655D02*
X129809307Y-55038903D01*
X129809307Y-55038903D02*
X130067517Y-55060756D01*
X130067517Y-55060756D02*
X130284238Y-55103365D01*
X130284238Y-55103365D02*
X130308882Y-55113926D01*
X128071880Y-56202046D02*
X128071880Y-55854139D01*
X138338482Y-52418400D02*
X138343868Y-52628402D01*
X138343868Y-52628402D02*
X138432395Y-52716836D01*
X138339297Y-52973752D02*
X138340064Y-53351568D01*
X130545636Y-55298757D02*
X130625434Y-55253637D01*
X130839227Y-55112111D02*
X131032493Y-55050851D01*
X131032493Y-55050851D02*
X131238375Y-55027023D01*
X131238375Y-55027023D02*
X131454363Y-55022920D01*
X131454363Y-55022920D02*
X131517515Y-55023708D01*
X140167120Y-52264189D02*
X140032467Y-52423966D01*
X140032467Y-52423966D02*
X139821890Y-52470179D01*
X139821890Y-52470179D02*
X139789234Y-52475836D01*
X138340831Y-53729386D02*
X138611759Y-53878850D01*
X126980968Y-57160686D02*
X127060404Y-56967605D01*
X127060404Y-56967605D02*
X127168935Y-56793447D01*
X127168935Y-56793447D02*
X127306236Y-56638559D01*
X127306236Y-56638559D02*
X127471981Y-56503288D01*
X127471981Y-56503288D02*
X127665847Y-56387979D01*
X127665847Y-56387979D02*
X127736662Y-56354040D01*
X138432395Y-52716836D02*
X138620655Y-52640708D01*
X138620655Y-52640708D02*
X138822224Y-52566695D01*
X138822224Y-52566695D02*
X139030661Y-52496478D01*
X139030661Y-52496478D02*
X139239521Y-52431736D01*
X139239521Y-52431736D02*
X139442363Y-52374152D01*
X139442363Y-52374152D02*
X139692321Y-52311413D01*
X139692321Y-52311413D02*
X139904855Y-52268372D01*
X139904855Y-52268372D02*
X140120077Y-52249460D01*
X140120077Y-52249460D02*
X140167120Y-52264189D01*
X138340064Y-53351568D02*
X138340831Y-53729386D01*
X137799062Y-51962705D02*
X138010264Y-51950001D01*
X138010264Y-51950001D02*
X138219912Y-51968545D01*
X138219912Y-51968545D02*
X138327821Y-52137571D01*
X138327821Y-52137571D02*
X138338327Y-52374381D01*
X138338327Y-52374381D02*
X138338482Y-52418400D01*
X130465838Y-55246924D02*
X130545636Y-55298757D01*
X138611759Y-53878850D02*
X138797248Y-53974920D01*
X138797248Y-53974920D02*
X138896382Y-54011849D01*
X138896382Y-54011849D02*
X138974871Y-53870976D01*
X138974871Y-53870976D02*
X139093564Y-53698990D01*
X139093564Y-53698990D02*
X139228059Y-53538053D01*
X139228059Y-53538053D02*
X139395286Y-53392606D01*
X139395286Y-53392606D02*
X139594094Y-53284870D01*
X139594094Y-53284870D02*
X139813814Y-53216687D01*
X139813814Y-53216687D02*
X140043780Y-53189901D01*
X140043780Y-53189901D02*
X140273325Y-53206354D01*
X140273325Y-53206354D02*
X140491781Y-53267891D01*
X140491781Y-53267891D02*
X140573669Y-53305542D01*
X140573669Y-53305542D02*
X140743322Y-53426432D01*
X140743322Y-53426432D02*
X140899098Y-53579505D01*
X140899098Y-53579505D02*
X141029082Y-53742785D01*
X141029082Y-53742785D02*
X141098667Y-53869333D01*
X141098667Y-53869333D02*
X141151382Y-54009279D01*
X127736662Y-56354040D02*
X128071880Y-56202046D01*
X141151382Y-54009279D02*
X141461006Y-53851361D01*
X130308882Y-55113926D02*
X130465023Y-55241222D01*
X130465023Y-55241222D02*
X130465838Y-55246924D01*
X131517515Y-55023708D02*
X131758866Y-55023145D01*
X131758866Y-55023145D02*
X131994254Y-55013303D01*
X131994254Y-55013303D02*
X132221237Y-54994549D01*
X132221237Y-54994549D02*
X132437371Y-54967249D01*
X132437371Y-54967249D02*
X132640213Y-54931769D01*
X132640213Y-54931769D02*
X132871353Y-54876476D01*
X132871353Y-54876476D02*
X133073135Y-54809690D01*
X133073135Y-54809690D02*
X133144560Y-54779919D01*
X133144560Y-54779919D02*
X133333944Y-54680532D01*
X133333944Y-54680532D02*
X133503868Y-54550228D01*
X133503868Y-54550228D02*
X133646498Y-54407309D01*
X133646498Y-54407309D02*
X133790702Y-54243478D01*
X133790702Y-54243478D02*
X133817544Y-54211758D01*
D13*
%TO.C,R1*%
X118767000Y-77043148D02*
X118767000Y-77565652D01*
X120187000Y-77043148D02*
X120187000Y-77565652D01*
%TO.C,R2*%
X120187000Y-72293148D02*
X120187000Y-72815652D01*
X118767000Y-72293148D02*
X118767000Y-72815652D01*
%TO.C,D1*%
X168772000Y-82937400D02*
X171632000Y-82937400D01*
X168772000Y-81017400D02*
X168772000Y-82937400D01*
X171632000Y-81017400D02*
X168772000Y-81017400D01*
%TO.C,R3*%
X170228748Y-85223400D02*
X170751252Y-85223400D01*
X170228748Y-83803400D02*
X170751252Y-83803400D01*
%TO.C,J1*%
X169922000Y-46099400D02*
X171252000Y-46099400D01*
X169922000Y-47429400D02*
X169922000Y-46099400D01*
X169922000Y-48699400D02*
X172582000Y-48699400D01*
X172582000Y-48699400D02*
X172582000Y-76699400D01*
X169922000Y-48699400D02*
X169922000Y-76699400D01*
X169922000Y-76699400D02*
X172582000Y-76699400D01*
%TO.C,J2*%
X111502000Y-76699400D02*
X114162000Y-76699400D01*
X111502000Y-48699400D02*
X111502000Y-76699400D01*
X114162000Y-48699400D02*
X114162000Y-76699400D01*
X111502000Y-48699400D02*
X114162000Y-48699400D01*
X111502000Y-47429400D02*
X111502000Y-46099400D01*
X111502000Y-46099400D02*
X112832000Y-46099400D01*
%TO.C,R1*%
D10*
X121579380Y-77471066D02*
X121103190Y-77804400D01*
X121579380Y-78042495D02*
X120579380Y-78042495D01*
X120579380Y-77661542D01*
X120627000Y-77566304D01*
X120674619Y-77518685D01*
X120769857Y-77471066D01*
X120912714Y-77471066D01*
X121007952Y-77518685D01*
X121055571Y-77566304D01*
X121103190Y-77661542D01*
X121103190Y-78042495D01*
X121579380Y-76518685D02*
X121579380Y-77090114D01*
X121579380Y-76804400D02*
X120579380Y-76804400D01*
X120722238Y-76899638D01*
X120817476Y-76994876D01*
X120865095Y-77090114D01*
%TO.C,R2*%
X121579380Y-72721066D02*
X121103190Y-73054400D01*
X121579380Y-73292495D02*
X120579380Y-73292495D01*
X120579380Y-72911542D01*
X120627000Y-72816304D01*
X120674619Y-72768685D01*
X120769857Y-72721066D01*
X120912714Y-72721066D01*
X121007952Y-72768685D01*
X121055571Y-72816304D01*
X121103190Y-72911542D01*
X121103190Y-73292495D01*
X120674619Y-72340114D02*
X120627000Y-72292495D01*
X120579380Y-72197257D01*
X120579380Y-71959161D01*
X120627000Y-71863923D01*
X120674619Y-71816304D01*
X120769857Y-71768685D01*
X120865095Y-71768685D01*
X121007952Y-71816304D01*
X121579380Y-72387733D01*
X121579380Y-71768685D01*
%TO.C,D1*%
X173736379Y-82711494D02*
X172736379Y-82711494D01*
X172736379Y-82473399D01*
X172783999Y-82330541D01*
X172879237Y-82235303D01*
X172974475Y-82187684D01*
X173164951Y-82140065D01*
X173307808Y-82140065D01*
X173498284Y-82187684D01*
X173593522Y-82235303D01*
X173688760Y-82330541D01*
X173736379Y-82473399D01*
X173736379Y-82711494D01*
X173736379Y-81187684D02*
X173736379Y-81759113D01*
X173736379Y-81473399D02*
X172736379Y-81473399D01*
X172879237Y-81568637D01*
X172974475Y-81663875D01*
X173022094Y-81759113D01*
%TO.C,R3*%
X173736380Y-84680066D02*
X173260190Y-85013400D01*
X173736380Y-85251495D02*
X172736380Y-85251495D01*
X172736380Y-84870542D01*
X172784000Y-84775304D01*
X172831619Y-84727685D01*
X172926857Y-84680066D01*
X173069714Y-84680066D01*
X173164952Y-84727685D01*
X173212571Y-84775304D01*
X173260190Y-84870542D01*
X173260190Y-85251495D01*
X172736380Y-84346733D02*
X172736380Y-83727685D01*
X173117333Y-84061019D01*
X173117333Y-83918161D01*
X173164952Y-83822923D01*
X173212571Y-83775304D01*
X173307809Y-83727685D01*
X173545904Y-83727685D01*
X173641142Y-83775304D01*
X173688761Y-83822923D01*
X173736380Y-83918161D01*
X173736380Y-84203876D01*
X173688761Y-84299114D01*
X173641142Y-84346733D01*
%TD*%
M02*
