M48
; DRILL file {KiCad (5.1.6)-1} date 10/07/20 23:45:24
; FORMAT={-:-/ absolute / metric / decimal}
; #@! TF.CreationDate,2020-10-07T23:45:24+02:00
; #@! TF.GenerationSoftware,Kicad,Pcbnew,(5.1.6)-1
; #@! TF.FileFunction,Plated,1,2,PTH
FMAT,2
METRIC
T1C0.635
T2C0.762
T3C1.000
%
G90
G05
T1
X114.486Y-60.705
X117.343Y-70.799
X117.343Y-79.703
X121.007Y-73.585
X121.87Y-68.739
X121.87Y-77.838
X121.964Y-95.255
X123.587Y-76.125
X128.593Y-72.334
X131.485Y-48.826
X132.269Y-72.874
X133.412Y-72.778
X134.422Y-87.766
X136.254Y-87.753
X136.931Y-78.288
X136.962Y-94.143
X137.002Y-73.392
X138.232Y-88.351
X138.524Y-72.566
X142.314Y-89.177
X147.442Y-80.368
X147.783Y-65.246
X148.392Y-72.638
X149.831Y-73.587
X150.468Y-71.778
X151.254Y-59.154
X154.332Y-59.863
X155.475Y-59.821
X157.5Y-76.409
X158.614Y-79.23
X159.783Y-89.895
X160.681Y-86.362
X162.387Y-73.587
X163.25Y-88.315
X168.2Y-62.845
X171.687Y-77.877
T2
X117.912Y-81.973
X117.912Y-84.513
X120.452Y-81.973
X120.452Y-84.513
X122.992Y-81.973
X122.992Y-84.513
X125.532Y-81.973
X125.532Y-84.513
X128.072Y-81.973
X128.072Y-84.513
X130.612Y-81.973
X130.612Y-84.513
X133.152Y-81.973
X133.152Y-84.513
X135.692Y-81.973
X135.692Y-84.513
X138.232Y-81.973
X138.232Y-84.513
X140.772Y-81.973
X140.772Y-84.513
X143.312Y-81.973
X143.312Y-84.513
X145.852Y-81.973
X145.852Y-84.513
X148.392Y-81.973
X148.392Y-84.513
X150.932Y-81.973
X150.932Y-84.513
X153.472Y-81.973
X153.472Y-84.513
X156.012Y-81.973
X156.012Y-84.513
X158.552Y-81.973
X158.552Y-84.513
X161.092Y-81.973
X161.092Y-84.513
X163.632Y-81.973
X163.632Y-84.513
X166.172Y-81.973
X166.172Y-84.513
X122.992Y-67.749
X125.532Y-67.749
X128.072Y-67.749
X130.612Y-67.749
X133.152Y-47.429
X133.152Y-67.749
X135.692Y-47.429
X135.692Y-67.749
X138.232Y-47.429
X138.232Y-67.749
X140.772Y-47.429
X140.772Y-67.749
X143.312Y-47.429
X143.312Y-67.749
X145.852Y-47.429
X145.852Y-67.749
X148.392Y-47.429
X148.392Y-67.749
X150.932Y-47.429
X150.932Y-67.749
X153.472Y-47.429
X153.472Y-67.749
X156.012Y-47.429
X156.012Y-67.749
X158.552Y-47.429
X158.552Y-67.749
X161.092Y-47.429
X161.092Y-67.749
X117.912Y-90.736
X117.912Y-93.276
X120.452Y-90.736
X120.452Y-93.276
X122.992Y-90.736
X122.992Y-93.276
X125.532Y-90.736
X125.532Y-93.276
X128.072Y-90.736
X128.072Y-93.276
X130.612Y-90.736
X130.612Y-93.276
X133.152Y-90.736
X133.152Y-93.276
X135.692Y-90.736
X135.692Y-93.276
X138.232Y-90.736
X138.232Y-93.276
X140.772Y-90.736
X140.772Y-93.276
X143.312Y-90.736
X143.312Y-93.276
X145.852Y-90.736
X145.852Y-93.276
X148.392Y-90.736
X148.392Y-93.276
X150.932Y-90.736
X150.932Y-93.276
X153.472Y-90.736
X153.472Y-93.276
X156.012Y-90.736
X156.012Y-93.276
X158.552Y-90.736
X158.552Y-93.276
X161.092Y-90.736
X161.092Y-93.276
X163.632Y-90.736
X163.632Y-93.276
X166.172Y-90.736
X166.172Y-93.276
T3
X112.832Y-47.429
X112.832Y-49.969
X112.832Y-52.509
X112.832Y-55.049
X112.832Y-57.589
X112.832Y-60.129
X112.832Y-62.669
X112.832Y-65.209
X112.832Y-67.749
X112.832Y-70.289
X112.832Y-72.829
X112.832Y-75.369
X171.252Y-47.429
X171.252Y-49.969
X171.252Y-52.509
X171.252Y-55.049
X171.252Y-57.589
X171.252Y-60.129
X171.252Y-62.669
X171.252Y-65.209
X171.252Y-67.749
X171.252Y-70.289
X171.252Y-72.829
X171.252Y-75.369
T0
M30
